G04 #@! TF.GenerationSoftware,KiCad,Pcbnew,10.0.4*
G04 #@! TF.CreationDate,2026-09-02T14:26:12+01:00*
G04 #@! TF.ProjectId,pl60c_dmx,706c3630-635f-4646-9d78-2e6b69636164,rev?*
G04 #@! TF.SameCoordinates,Original*
G04 #@! TF.FileFunction,Copper,L2,Bot*
G04 #@! TF.FilePolarity,Positive*
%FSLAX46Y46*%
G04 Gerber Fmt 4.6, Leading zero omitted, Abs format (unit mm)*
G04 Created by KiCad (PCBNEW 10.0.4) date 2026-09-02 14:26:12*
%MOMM*%
%LPD*%
G01*
G04 APERTURE LIST*
G04 Aperture macros list*
%AMRoundRect*
0 Rectangle with rounded corners*
0 $1 Rounding radius*
0 $2 $3 $4 $5 $6 $7 $8 $9 X,Y pos of 4 corners*
0 Add a 4 corners polygon primitive as box body*
4,1,4,$2,$3,$4,$5,$6,$7,$8,$9,$2,$3,0*
0 Add four circle primitives for the rounded corners*
1,1,$1+$1,$2,$3*
1,1,$1+$1,$4,$5*
1,1,$1+$1,$6,$7*
1,1,$1+$1,$8,$9*
0 Add four rect primitives between the rounded corners*
20,1,$1+$1,$2,$3,$4,$5,0*
20,1,$1+$1,$4,$5,$6,$7,0*
20,1,$1+$1,$6,$7,$8,$9,0*
20,1,$1+$1,$8,$9,$2,$3,0*%
G04 Aperture macros list end*
G04 #@! TA.AperFunction,ComponentPad*
%ADD10R,1.700000X1.700000*%
G04 #@! TD*
G04 #@! TA.AperFunction,ComponentPad*
%ADD11C,1.700000*%
G04 #@! TD*
G04 #@! TA.AperFunction,ComponentPad*
%ADD12C,3.400000*%
G04 #@! TD*
G04 #@! TA.AperFunction,ComponentPad*
%ADD13C,2.900000*%
G04 #@! TD*
G04 #@! TA.AperFunction,ComponentPad*
%ADD14RoundRect,0.250000X-1.049999X-1.049999X1.049999X-1.049999X1.049999X1.049999X-1.049999X1.049999X0*%
G04 #@! TD*
G04 #@! TA.AperFunction,ComponentPad*
%ADD15C,2.599999*%
G04 #@! TD*
G04 #@! TA.AperFunction,ComponentPad*
%ADD16O,2.100000X1.000000*%
G04 #@! TD*
G04 #@! TA.AperFunction,ComponentPad*
%ADD17O,1.600000X1.000000*%
G04 #@! TD*
G04 #@! TA.AperFunction,HeatsinkPad*
%ADD18C,0.600000*%
G04 #@! TD*
G04 #@! TA.AperFunction,ViaPad*
%ADD19C,0.800000*%
G04 #@! TD*
G04 #@! TA.AperFunction,ViaPad*
%ADD20C,0.700000*%
G04 #@! TD*
G04 #@! TA.AperFunction,Conductor*
%ADD21C,0.400000*%
G04 #@! TD*
G04 #@! TA.AperFunction,Conductor*
%ADD22C,0.250000*%
G04 #@! TD*
G04 APERTURE END LIST*
D10*
X43000000Y-22000000D03*
D11*
X43000000Y-24540000D03*
X43000000Y-27080000D03*
X43000000Y-29620000D03*
X43000000Y-32160000D03*
X43000000Y-34700000D03*
D12*
X62850000Y-16500000D03*
D13*
X66665000Y-20310000D03*
X62850000Y-20310000D03*
X66665000Y-27290000D03*
D12*
X62850000Y-24120000D03*
D13*
X73020000Y-12060000D03*
D10*
X47500000Y-22000000D03*
D11*
X47500000Y-24540000D03*
X47500000Y-27080000D03*
X47500000Y-29620000D03*
D14*
X50500000Y-48500000D03*
D15*
X55580000Y-48500000D03*
X60660000Y-48500000D03*
D16*
X6230000Y-26680000D03*
D17*
X2050000Y-26680000D03*
D16*
X6230000Y-35320000D03*
D17*
X2050000Y-35320000D03*
D18*
X27100000Y-8510000D03*
X27100000Y-9910000D03*
X27800000Y-7810000D03*
X27800000Y-9210000D03*
X27800000Y-10610000D03*
X28500000Y-8510000D03*
X28500000Y-9910000D03*
X29200000Y-7810000D03*
X29200000Y-9210000D03*
X29200000Y-10610000D03*
X29900000Y-8510000D03*
X29900000Y-9910000D03*
D19*
X10492500Y-41682500D03*
X21621800Y-42245300D03*
X49374600Y-9149500D03*
X40148900Y-45205900D03*
D20*
X65000000Y-15000000D03*
X5000000Y-10000000D03*
X60000000Y-30000000D03*
X54062500Y-35000000D03*
X17200000Y-42500000D03*
X30000000Y-15000000D03*
X60000000Y-5000000D03*
X18750000Y-49850000D03*
X70000000Y-50000000D03*
X17250000Y-49850000D03*
X65000000Y-5000000D03*
X55000000Y-10000000D03*
X10000000Y-50000000D03*
X25000000Y-30000000D03*
X75000000Y-25000000D03*
X50000000Y-5000000D03*
X16500000Y-33550000D03*
X7750000Y-49850000D03*
X65000000Y-50000000D03*
X35000000Y-5000000D03*
X45000000Y-40000000D03*
X52200000Y-13905000D03*
X20000000Y-25000000D03*
X47450000Y-50150000D03*
X5000000Y-15000000D03*
X70000000Y-5000000D03*
X35000000Y-10000000D03*
X20000000Y-40000000D03*
X25000000Y-35000000D03*
X28250000Y-49850000D03*
X19700000Y-3500000D03*
X7100000Y-12700000D03*
X39250000Y-49850000D03*
X20000000Y-35000000D03*
X35000000Y-50000000D03*
X10000000Y-25000000D03*
X35000000Y-30000000D03*
X45000000Y-50000000D03*
X50000000Y-45000000D03*
X30000000Y-25000000D03*
X40975000Y-43500000D03*
X25000000Y-50000000D03*
X35000000Y-15000000D03*
X55000000Y-15000000D03*
X14000000Y-24025000D03*
X25000000Y-25000000D03*
X35000000Y-25000000D03*
X15000000Y-10000000D03*
X40000000Y-40000000D03*
X5000000Y-45000000D03*
X5000000Y-40000000D03*
X18000000Y-5025000D03*
X45975000Y-17000000D03*
X60000000Y-15000000D03*
X20000000Y-50000000D03*
X35000000Y-35000000D03*
X29750000Y-49850000D03*
X75000000Y-20000000D03*
X55000000Y-30000000D03*
X25000000Y-15000000D03*
X56425000Y-20000000D03*
X49975000Y-7000000D03*
X60000000Y-10000000D03*
X11200000Y-21000000D03*
X75000000Y-30000000D03*
X55000000Y-5000000D03*
X5000000Y-25000000D03*
X30000000Y-40000000D03*
X15975000Y-21000000D03*
X15000000Y-50000000D03*
X30000000Y-30000000D03*
X14200000Y-9500000D03*
X30000000Y-35000000D03*
X25000000Y-5000000D03*
X65000000Y-10000000D03*
X14000000Y-34025000D03*
X22937100Y-15460000D03*
X25792700Y-20544400D03*
X27062600Y-20545900D03*
X28435100Y-20888700D03*
X51868800Y-11945000D03*
X52214900Y-21797600D03*
X54760500Y-21265800D03*
X40723800Y-5557400D03*
X40032800Y-6570000D03*
X43175000Y-14602600D03*
X22937100Y-11650000D03*
X9690400Y-7202900D03*
X12799700Y-30105400D03*
X12545000Y-27850000D03*
X12545000Y-34150000D03*
X4744999Y-30250000D03*
X20193300Y-18920000D03*
X11545000Y-32350000D03*
X14718800Y-31306300D03*
X19967200Y-16730000D03*
X15873900Y-27973400D03*
X10975000Y-33035000D03*
X13213500Y-36038500D03*
X14760900Y-41356100D03*
X22532800Y-3772600D03*
X33580000Y-46150000D03*
X22532800Y-6570000D03*
D19*
X10487300Y-17300000D03*
X56946100Y-36096100D03*
X10046100Y-10503900D03*
D20*
X63701800Y-38000000D03*
X65500000Y-43195500D03*
X61913000Y-37920000D03*
X42871300Y-36234400D03*
X22534400Y-7840000D03*
X35881000Y-12662600D03*
X46858400Y-13267700D03*
X37230000Y-12799600D03*
X40069600Y-10491200D03*
X41905900Y-42730900D03*
X35337200Y-21909900D03*
X42109700Y-18926900D03*
X44615900Y-38415100D03*
D21*
X43884200Y-38112100D02*
X43884200Y-46293600D01*
X44231700Y-24001400D02*
X44231700Y-37764600D01*
X21100000Y-41723500D02*
X21621800Y-42245300D01*
X38907100Y-50582000D02*
X38486000Y-50160900D01*
X44231700Y-37764600D02*
X43884200Y-38112100D01*
X16458500Y-42097600D02*
X16832600Y-41723500D01*
X49374600Y-18893700D02*
X47500000Y-20768300D01*
X16832600Y-41723500D02*
X21100000Y-41723500D01*
X47500000Y-22000000D02*
X47500000Y-20768300D01*
X38486000Y-50160900D02*
X38486000Y-46868800D01*
X43884200Y-46293600D02*
X39595800Y-50582000D01*
X43000000Y-23231700D02*
X43462000Y-23231700D01*
X10492500Y-41682500D02*
X10907600Y-42097600D01*
X39595800Y-50582000D02*
X38907100Y-50582000D01*
X43000000Y-22000000D02*
X43000000Y-23231700D01*
X10907600Y-42097600D02*
X16458500Y-42097600D01*
X38486000Y-46868800D02*
X40148900Y-45205900D01*
X43462000Y-23231700D02*
X44231700Y-24001400D01*
X49374600Y-9149500D02*
X49374600Y-18893700D01*
X56425000Y-16425000D02*
X55000000Y-15000000D01*
X54062500Y-30937500D02*
X54062500Y-35000000D01*
X56425000Y-28575000D02*
X56425000Y-20000000D01*
X35000000Y-10000000D02*
X35000000Y-5000000D01*
X40975000Y-43500000D02*
X40975000Y-48125000D01*
X18000000Y-5025000D02*
X15000000Y-8025000D01*
X19700000Y-4618800D02*
X19700000Y-3500000D01*
X35000000Y-25000000D02*
X35000000Y-30000000D01*
X47500000Y-24419500D02*
X45975000Y-22894500D01*
X15000000Y-8025000D02*
X15000000Y-9500000D01*
X60000000Y-10000000D02*
X60000000Y-15000000D01*
X10000000Y-25000000D02*
X11200000Y-23800000D01*
X55000000Y-30000000D02*
X54062500Y-30937500D01*
X17200000Y-49800000D02*
X17250000Y-49850000D01*
X50000000Y-48000000D02*
X50500000Y-48500000D01*
X75000000Y-20000000D02*
X75000000Y-25000000D01*
X18000000Y-5025000D02*
X19293800Y-5025000D01*
X52200000Y-19840000D02*
X47500000Y-24540000D01*
X5000000Y-15000000D02*
X7100000Y-12900000D01*
X19293800Y-5025000D02*
X19700000Y-4618800D01*
X27800000Y-10610000D02*
X28500000Y-9910000D01*
X29200000Y-10610000D02*
X29900000Y-9910000D01*
X5000000Y-40000000D02*
X4798300Y-39798300D01*
X35000000Y-30000000D02*
X35000000Y-35000000D01*
X15000000Y-9500000D02*
X15000000Y-10000000D01*
X45975000Y-22894500D02*
X45975000Y-17000000D01*
X52200000Y-13905000D02*
X52200000Y-19840000D01*
X29900000Y-8510000D02*
X29200000Y-7810000D01*
X60000000Y-10000000D02*
X60000000Y-5000000D01*
X30000000Y-25000000D02*
X30000000Y-30000000D01*
X24618800Y-4618800D02*
X25000000Y-5000000D01*
X7750000Y-47750000D02*
X7750000Y-49850000D01*
X6230000Y-26680000D02*
X4798300Y-26680000D01*
X25000000Y-5000000D02*
X27100000Y-7100000D01*
X50000000Y-45000000D02*
X45000000Y-40000000D01*
X17200000Y-42500000D02*
X17200000Y-49800000D01*
X11200000Y-23800000D02*
X11200000Y-21000000D01*
X40975000Y-48125000D02*
X39250000Y-49850000D01*
X4798300Y-25201700D02*
X4798300Y-26680000D01*
X40000000Y-40000000D02*
X40975000Y-40975000D01*
X5000000Y-15000000D02*
X5000000Y-25000000D01*
X18550000Y-33550000D02*
X20000000Y-35000000D01*
X50000000Y-45000000D02*
X50000000Y-48000000D01*
X27800000Y-10610000D02*
X27100000Y-9910000D01*
X5000000Y-25000000D02*
X4798300Y-25201700D01*
X14000000Y-22975000D02*
X15975000Y-21000000D01*
X27100000Y-7810000D02*
X27100000Y-8510000D01*
X5000000Y-45000000D02*
X7750000Y-47750000D01*
X16025000Y-34025000D02*
X16500000Y-33550000D01*
X25000000Y-35000000D02*
X25000000Y-30000000D01*
X20000000Y-40000000D02*
X20000000Y-35000000D01*
X29900000Y-9910000D02*
X29200000Y-9210000D01*
X55000000Y-15000000D02*
X55000000Y-10000000D01*
X75000000Y-30000000D02*
X75000000Y-25000000D01*
X50000000Y-5000000D02*
X49975000Y-5025000D01*
X14000000Y-34025000D02*
X16025000Y-34025000D01*
X30000000Y-30000000D02*
X30000000Y-35000000D01*
X19700000Y-4618800D02*
X24618800Y-4618800D01*
X30000000Y-35000000D02*
X30000000Y-40000000D01*
X49975000Y-5025000D02*
X49975000Y-7000000D01*
X14000000Y-24025000D02*
X14000000Y-22975000D01*
X30000000Y-15000000D02*
X29200000Y-14200000D01*
X35000000Y-15000000D02*
X35000000Y-10000000D01*
X6230000Y-35320000D02*
X4798300Y-35320000D01*
X29200000Y-9210000D02*
X29900000Y-8510000D01*
X27800000Y-7810000D02*
X27100000Y-7810000D01*
X4798300Y-39798300D02*
X4798300Y-35320000D01*
X55000000Y-30000000D02*
X56425000Y-28575000D01*
X27100000Y-7100000D02*
X27100000Y-7810000D01*
X56425000Y-20000000D02*
X56425000Y-16425000D01*
X14200000Y-9500000D02*
X15000000Y-9500000D01*
X27800000Y-9210000D02*
X27100000Y-8510000D01*
X5000000Y-45000000D02*
X5000000Y-40000000D01*
X29200000Y-14200000D02*
X29200000Y-10610000D01*
X16500000Y-33550000D02*
X18550000Y-33550000D01*
X25000000Y-30000000D02*
X25000000Y-25000000D01*
X7100000Y-12900000D02*
X7100000Y-12700000D01*
X28500000Y-9910000D02*
X27800000Y-9210000D01*
X40975000Y-40975000D02*
X40975000Y-43500000D01*
X29200000Y-7810000D02*
X28500000Y-8510000D01*
X55000000Y-5000000D02*
X55000000Y-10000000D01*
X47500000Y-24540000D02*
X47500000Y-24419500D01*
D22*
X32891100Y-16092500D02*
X23569600Y-16092500D01*
X23569600Y-16092500D02*
X22937100Y-15460000D01*
X43000000Y-27080000D02*
X43000000Y-26201400D01*
X43000000Y-26201400D02*
X32891100Y-16092500D01*
X41830200Y-28450200D02*
X41830200Y-25642200D01*
X35961200Y-19773200D02*
X26563900Y-19773200D01*
X26563900Y-19773200D02*
X25792700Y-20544400D01*
X43000000Y-29620000D02*
X41830200Y-28450200D01*
X41830200Y-25642200D02*
X35961200Y-19773200D01*
X43000000Y-32160000D02*
X37510300Y-26670300D01*
X35809400Y-20232000D02*
X27376500Y-20232000D01*
X37510300Y-21932900D02*
X35809400Y-20232000D01*
X27376500Y-20232000D02*
X27062600Y-20545900D01*
X37510300Y-26670300D02*
X37510300Y-21932900D01*
X35678300Y-20711500D02*
X28612300Y-20711500D01*
X37078600Y-22111800D02*
X35678300Y-20711500D01*
X37078600Y-28778600D02*
X37078600Y-22111800D01*
X28612300Y-20711500D02*
X28435100Y-20888700D01*
X43000000Y-34700000D02*
X37078600Y-28778600D01*
X51868800Y-11945000D02*
X52864700Y-12940900D01*
X55580000Y-48500000D02*
X52214900Y-45134900D01*
X52864700Y-12940900D02*
X52864700Y-21147800D01*
X52214900Y-45134900D02*
X52214900Y-21797600D01*
X52864700Y-21147800D02*
X52214900Y-21797600D01*
X53386500Y-22639800D02*
X54760500Y-21265800D01*
X60660000Y-48500000D02*
X53386500Y-41226500D01*
X53386500Y-41226500D02*
X53386500Y-22639800D01*
X45717300Y-23353400D02*
X45305600Y-22941700D01*
X47951700Y-14082600D02*
X47951700Y-12785300D01*
X47951700Y-12785300D02*
X40723800Y-5557400D01*
X47500000Y-27080000D02*
X45717300Y-25297300D01*
X45717300Y-25297300D02*
X45717300Y-23353400D01*
X45305600Y-22941700D02*
X45305600Y-16728700D01*
X45305600Y-16728700D02*
X47951700Y-14082600D01*
X45285600Y-27405600D02*
X45285600Y-23532300D01*
X44855400Y-23102100D02*
X44855400Y-16264900D01*
X44855400Y-16264900D02*
X47520000Y-13600300D01*
X47500000Y-29620000D02*
X45285600Y-27405600D01*
X40032800Y-6570100D02*
X40032800Y-6570000D01*
X41125800Y-6570100D02*
X40032800Y-6570100D01*
X45285600Y-23532300D02*
X44855400Y-23102100D01*
X47520000Y-13600300D02*
X47520000Y-12964300D01*
X47520000Y-12964300D02*
X41125800Y-6570100D01*
X26947900Y-15660800D02*
X22937100Y-11650000D01*
X42116800Y-15660800D02*
X26947900Y-15660800D01*
X43175000Y-14602600D02*
X42116800Y-15660800D01*
X12545000Y-10057500D02*
X12545000Y-27850000D01*
D21*
X12545000Y-27850000D02*
X12545000Y-34150000D01*
D22*
X9690400Y-7202900D02*
X12545000Y-10057500D01*
X12799700Y-30105400D02*
X12545000Y-29850700D01*
X12545000Y-29850700D02*
X12545000Y-27850000D01*
X18849400Y-20263900D02*
X20193300Y-18920000D01*
X4744999Y-30250000D02*
X11545000Y-32350000D01*
X18849400Y-27175700D02*
X18849400Y-20263900D01*
X14718800Y-31306300D02*
X18849400Y-27175700D01*
X19967200Y-16730000D02*
X17987500Y-18709700D01*
X17987500Y-25859800D02*
X15873900Y-27973400D01*
X17987500Y-18709700D02*
X17987500Y-25859800D01*
X13213500Y-36038500D02*
X10975000Y-33800000D01*
X10975000Y-33800000D02*
X10975000Y-33035000D01*
X20579900Y-1819700D02*
X22532800Y-3772600D01*
X13296800Y-34819200D02*
X13296800Y-30537100D01*
X14760900Y-36283300D02*
X13296800Y-34819200D01*
X13296800Y-30537100D02*
X13456400Y-30377500D01*
X14760900Y-41356100D02*
X14760900Y-36283300D01*
X13296800Y-8008500D02*
X19485600Y-1819700D01*
X13296800Y-29673700D02*
X13296800Y-8008500D01*
X19485600Y-1819700D02*
X20579900Y-1819700D01*
X13456400Y-29833300D02*
X13296800Y-29673700D01*
X13456400Y-30377500D02*
X13456400Y-29833300D01*
X22532800Y-6570000D02*
X21802300Y-7300500D01*
X21802300Y-34372300D02*
X33580000Y-46150000D01*
X21802300Y-7300500D02*
X21802300Y-34372300D01*
D21*
X61797900Y-36096100D02*
X63701800Y-38000000D01*
X10187400Y-10645200D02*
X10046100Y-10503900D01*
X10187500Y-10645200D02*
X10187400Y-10645200D01*
X10487300Y-17300000D02*
X10187500Y-17000200D01*
X56946100Y-36096100D02*
X61797900Y-36096100D01*
X10187500Y-17000200D02*
X10187500Y-10645200D01*
D22*
X61913000Y-37920000D02*
X61913000Y-39608500D01*
X61913000Y-39608500D02*
X65500000Y-43195500D01*
X36494800Y-29857900D02*
X36494800Y-22138600D01*
X25863200Y-21545500D02*
X22244300Y-17926600D01*
X22244300Y-8130100D02*
X22534400Y-7840000D01*
X35574000Y-21217800D02*
X34919000Y-21217800D01*
X36494800Y-22138600D02*
X35574000Y-21217800D01*
X42871300Y-36234400D02*
X36494800Y-29857900D01*
X22244300Y-17926600D02*
X22244300Y-8130100D01*
X34591300Y-21545500D02*
X25863200Y-21545500D01*
X34919000Y-21217800D02*
X34591300Y-21545500D01*
X36674700Y-13456300D02*
X35881000Y-12662600D01*
X46669800Y-13456300D02*
X36674700Y-13456300D01*
X46858400Y-13267700D02*
X46669800Y-13456300D01*
X40069600Y-10491200D02*
X39538400Y-10491200D01*
X39538400Y-10491200D02*
X37230000Y-12799600D01*
X35715000Y-22287700D02*
X35715000Y-30090000D01*
X35337200Y-21909900D02*
X35715000Y-22287700D01*
X41905900Y-36280900D02*
X41905900Y-42730900D01*
X35715000Y-30090000D02*
X41905900Y-36280900D01*
X44746400Y-38284600D02*
X44746400Y-23702800D01*
X44615900Y-38415100D02*
X44746400Y-38284600D01*
X44423700Y-21240900D02*
X42109700Y-18926900D01*
X44746400Y-23702800D02*
X44423700Y-23380100D01*
X44423700Y-23380100D02*
X44423700Y-21240900D01*
G04 #@! TA.AperFunction,Conductor*
G36*
X46404429Y-13901485D02*
G01*
X46450184Y-13954289D01*
X46460128Y-14023447D01*
X46431103Y-14087003D01*
X46425071Y-14093481D01*
X44514917Y-16003634D01*
X44514913Y-16003640D01*
X44458898Y-16100660D01*
X44458897Y-16100663D01*
X44429900Y-16208882D01*
X44429900Y-20345990D01*
X44410215Y-20413029D01*
X44357411Y-20458784D01*
X44288253Y-20468728D01*
X44224697Y-20439703D01*
X44218219Y-20433671D01*
X42796519Y-19011971D01*
X42763034Y-18950648D01*
X42760200Y-18924290D01*
X42760200Y-18862828D01*
X42735202Y-18737161D01*
X42735201Y-18737160D01*
X42735201Y-18737156D01*
X42686165Y-18618773D01*
X42686164Y-18618772D01*
X42686161Y-18618766D01*
X42614976Y-18512231D01*
X42614973Y-18512227D01*
X42524372Y-18421626D01*
X42524368Y-18421623D01*
X42417833Y-18350438D01*
X42417824Y-18350433D01*
X42299444Y-18301399D01*
X42299438Y-18301397D01*
X42173771Y-18276400D01*
X42173769Y-18276400D01*
X42045631Y-18276400D01*
X42045629Y-18276400D01*
X41919961Y-18301397D01*
X41919955Y-18301399D01*
X41801575Y-18350433D01*
X41801566Y-18350438D01*
X41695031Y-18421623D01*
X41695027Y-18421626D01*
X41604426Y-18512227D01*
X41604423Y-18512231D01*
X41533238Y-18618766D01*
X41533233Y-18618775D01*
X41484199Y-18737155D01*
X41484197Y-18737161D01*
X41459200Y-18862828D01*
X41459200Y-18862831D01*
X41459200Y-18990969D01*
X41459200Y-18990971D01*
X41459199Y-18990971D01*
X41484197Y-19116638D01*
X41484199Y-19116644D01*
X41533233Y-19235024D01*
X41533238Y-19235033D01*
X41604423Y-19341568D01*
X41604426Y-19341572D01*
X41695027Y-19432173D01*
X41695031Y-19432176D01*
X41801566Y-19503361D01*
X41801572Y-19503364D01*
X41801573Y-19503365D01*
X41919956Y-19552401D01*
X41919960Y-19552401D01*
X41919961Y-19552402D01*
X42045628Y-19577400D01*
X42045631Y-19577400D01*
X42107090Y-19577400D01*
X42174129Y-19597085D01*
X42194771Y-19613719D01*
X43218871Y-20637819D01*
X43252356Y-20699142D01*
X43247372Y-20768834D01*
X43205500Y-20824767D01*
X43140036Y-20849184D01*
X43131190Y-20849500D01*
X42105143Y-20849500D01*
X42105117Y-20849502D01*
X42080012Y-20852413D01*
X42080008Y-20852415D01*
X41977235Y-20897793D01*
X41897794Y-20977234D01*
X41852415Y-21080006D01*
X41852415Y-21080008D01*
X41849500Y-21105131D01*
X41849500Y-22894856D01*
X41849502Y-22894882D01*
X41852413Y-22919987D01*
X41852415Y-22919991D01*
X41897793Y-23022764D01*
X41897794Y-23022765D01*
X41977235Y-23102206D01*
X42080009Y-23147585D01*
X42105135Y-23150500D01*
X42375501Y-23150499D01*
X42382308Y-23152498D01*
X42389297Y-23151269D01*
X42415389Y-23162211D01*
X42442539Y-23170183D01*
X42447185Y-23175545D01*
X42453730Y-23178290D01*
X42469765Y-23201604D01*
X42488294Y-23222987D01*
X42490264Y-23231406D01*
X42493325Y-23235857D01*
X42497675Y-23263080D01*
X42499439Y-23270618D01*
X42499500Y-23272565D01*
X42499500Y-23297592D01*
X42500387Y-23300904D01*
X42500722Y-23311587D01*
X42493425Y-23339660D01*
X42488954Y-23368323D01*
X42484742Y-23373067D01*
X42483146Y-23379209D01*
X42461826Y-23398884D01*
X42442571Y-23420577D01*
X42433079Y-23425952D01*
X42344860Y-23470902D01*
X42344846Y-23470911D01*
X42268919Y-23526075D01*
X42268918Y-23526076D01*
X42814822Y-24071980D01*
X42807007Y-24074075D01*
X42692993Y-24139901D01*
X42599901Y-24232993D01*
X42534075Y-24347007D01*
X42531980Y-24354822D01*
X41986076Y-23808918D01*
X41986075Y-23808919D01*
X41930911Y-23884846D01*
X41930905Y-23884855D01*
X41841581Y-24060164D01*
X41810658Y-24155335D01*
X41771220Y-24213011D01*
X41706862Y-24240209D01*
X41638015Y-24228294D01*
X41605046Y-24204698D01*
X33698329Y-16297981D01*
X33664844Y-16236658D01*
X33669828Y-16166966D01*
X33711700Y-16111033D01*
X33777164Y-16086616D01*
X33786010Y-16086300D01*
X42172816Y-16086300D01*
X42172818Y-16086300D01*
X42281037Y-16057303D01*
X42378063Y-16001285D01*
X43089929Y-15289419D01*
X43151252Y-15255934D01*
X43177610Y-15253100D01*
X43239071Y-15253100D01*
X43342800Y-15232466D01*
X43364744Y-15228101D01*
X43483127Y-15179065D01*
X43589669Y-15107876D01*
X43680276Y-15017269D01*
X43751465Y-14910727D01*
X43800501Y-14792344D01*
X43819103Y-14698830D01*
X43825500Y-14666671D01*
X43825500Y-14538528D01*
X43800502Y-14412861D01*
X43800501Y-14412860D01*
X43800501Y-14412856D01*
X43751465Y-14294473D01*
X43751464Y-14294472D01*
X43751461Y-14294466D01*
X43680276Y-14187931D01*
X43680273Y-14187927D01*
X43585827Y-14093481D01*
X43552342Y-14032158D01*
X43557326Y-13962466D01*
X43599198Y-13906533D01*
X43664662Y-13882116D01*
X43673508Y-13881800D01*
X46337390Y-13881800D01*
X46404429Y-13901485D01*
G37*
G04 #@! TD.AperFunction*
G04 #@! TA.AperFunction,Conductor*
G36*
X22811792Y-12288318D02*
G01*
X22873031Y-12300500D01*
X22940351Y-12300500D01*
X22946187Y-12301053D01*
X22973407Y-12311927D01*
X23001529Y-12320185D01*
X23005474Y-12324738D01*
X23011071Y-12326974D01*
X23022171Y-12336819D01*
X26140671Y-15455319D01*
X26174156Y-15516642D01*
X26169172Y-15586334D01*
X26127300Y-15642267D01*
X26061836Y-15666684D01*
X26052990Y-15667000D01*
X23797210Y-15667000D01*
X23730171Y-15647315D01*
X23709529Y-15630681D01*
X23623919Y-15545071D01*
X23590434Y-15483748D01*
X23587600Y-15457390D01*
X23587600Y-15395928D01*
X23562602Y-15270261D01*
X23562601Y-15270260D01*
X23562601Y-15270256D01*
X23524674Y-15178692D01*
X23513566Y-15151875D01*
X23513561Y-15151866D01*
X23442376Y-15045331D01*
X23442373Y-15045327D01*
X23351772Y-14954726D01*
X23351768Y-14954723D01*
X23245233Y-14883538D01*
X23245224Y-14883533D01*
X23126844Y-14834499D01*
X23126838Y-14834497D01*
X23001171Y-14809500D01*
X23001169Y-14809500D01*
X22873031Y-14809500D01*
X22817990Y-14820448D01*
X22748399Y-14814219D01*
X22693222Y-14771356D01*
X22669978Y-14705466D01*
X22669800Y-14698830D01*
X22669800Y-12411169D01*
X22673992Y-12396889D01*
X22673274Y-12382023D01*
X22683638Y-12364040D01*
X22689485Y-12344130D01*
X22700731Y-12334384D01*
X22708165Y-12321488D01*
X22726607Y-12311963D01*
X22742289Y-12298375D01*
X22757019Y-12296256D01*
X22770244Y-12289427D01*
X22805497Y-12287722D01*
X22811792Y-12288318D01*
G37*
G04 #@! TD.AperFunction*
G04 #@! TA.AperFunction,Conductor*
G36*
X78429912Y-510923D02*
G01*
X78515331Y-549367D01*
X78528566Y-556314D01*
X78743045Y-685970D01*
X78755356Y-694468D01*
X78952636Y-849027D01*
X78963844Y-858957D01*
X79141042Y-1036155D01*
X79150972Y-1047363D01*
X79305527Y-1244637D01*
X79314033Y-1256960D01*
X79443681Y-1471425D01*
X79450638Y-1484682D01*
X79489075Y-1570085D01*
X79500000Y-1620975D01*
X79500000Y-52379021D01*
X79489075Y-52429913D01*
X79450636Y-52515320D01*
X79443678Y-52528578D01*
X79314032Y-52743039D01*
X79305525Y-52755363D01*
X79150970Y-52952636D01*
X79141041Y-52963843D01*
X78963843Y-53141041D01*
X78952636Y-53150970D01*
X78755363Y-53305525D01*
X78743039Y-53314032D01*
X78528578Y-53443678D01*
X78515320Y-53450636D01*
X78429913Y-53489075D01*
X78379021Y-53500000D01*
X1620976Y-53500000D01*
X1570087Y-53489076D01*
X1484675Y-53450635D01*
X1471425Y-53443681D01*
X1256960Y-53314033D01*
X1244637Y-53305527D01*
X1244634Y-53305525D01*
X1047363Y-53150972D01*
X1036155Y-53141042D01*
X858957Y-52963844D01*
X849027Y-52952636D01*
X694468Y-52755356D01*
X685966Y-52743038D01*
X556321Y-52528577D01*
X549362Y-52515319D01*
X510924Y-52429913D01*
X500000Y-52379022D01*
X500000Y-50378711D01*
X1649500Y-50378711D01*
X1649500Y-50621288D01*
X1681161Y-50861785D01*
X1743947Y-51096104D01*
X1836773Y-51320205D01*
X1836776Y-51320212D01*
X1958064Y-51530289D01*
X1958066Y-51530292D01*
X1958067Y-51530293D01*
X2105733Y-51722736D01*
X2105739Y-51722743D01*
X2277256Y-51894260D01*
X2277262Y-51894265D01*
X2469711Y-52041936D01*
X2679788Y-52163224D01*
X2903900Y-52256054D01*
X3138211Y-52318838D01*
X3318586Y-52342584D01*
X3378711Y-52350500D01*
X3378712Y-52350500D01*
X3621289Y-52350500D01*
X3669388Y-52344167D01*
X3861789Y-52318838D01*
X4096100Y-52256054D01*
X4320212Y-52163224D01*
X4530289Y-52041936D01*
X4722738Y-51894265D01*
X4894265Y-51722738D01*
X5041936Y-51530289D01*
X5163224Y-51320212D01*
X5256054Y-51096100D01*
X5318838Y-50861789D01*
X5350500Y-50621288D01*
X5350500Y-50378712D01*
X5318838Y-50138211D01*
X5256054Y-49903900D01*
X5163224Y-49679788D01*
X5041936Y-49469711D01*
X4941521Y-49338847D01*
X4894266Y-49277263D01*
X4894260Y-49277256D01*
X4722743Y-49105739D01*
X4722736Y-49105733D01*
X4530293Y-48958067D01*
X4530292Y-48958066D01*
X4530289Y-48958064D01*
X4320212Y-48836776D01*
X4320205Y-48836773D01*
X4096104Y-48743947D01*
X3861785Y-48681161D01*
X3621289Y-48649500D01*
X3621288Y-48649500D01*
X3378712Y-48649500D01*
X3378711Y-48649500D01*
X3138214Y-48681161D01*
X2903895Y-48743947D01*
X2679794Y-48836773D01*
X2679785Y-48836777D01*
X2613954Y-48874785D01*
X2490219Y-48946224D01*
X2469706Y-48958067D01*
X2277263Y-49105733D01*
X2277256Y-49105739D01*
X2105739Y-49277256D01*
X2105733Y-49277263D01*
X1958067Y-49469706D01*
X1836777Y-49679785D01*
X1836773Y-49679794D01*
X1743947Y-49903895D01*
X1681161Y-50138214D01*
X1649500Y-50378711D01*
X500000Y-50378711D01*
X500000Y-35120000D01*
X872150Y-35120000D01*
X1525735Y-35120000D01*
X1509940Y-35135795D01*
X1470444Y-35204204D01*
X1450000Y-35280504D01*
X1450000Y-35359496D01*
X1470444Y-35435796D01*
X1509940Y-35504205D01*
X1525735Y-35520000D01*
X872150Y-35520000D01*
X884584Y-35582512D01*
X884586Y-35582520D01*
X952428Y-35746307D01*
X952433Y-35746316D01*
X1050923Y-35893716D01*
X1050926Y-35893720D01*
X1176279Y-36019073D01*
X1176283Y-36019076D01*
X1323683Y-36117566D01*
X1323692Y-36117571D01*
X1487479Y-36185413D01*
X1487487Y-36185415D01*
X1661353Y-36219999D01*
X1661357Y-36220000D01*
X1850000Y-36220000D01*
X1850000Y-35620000D01*
X2250000Y-35620000D01*
X2250000Y-36220000D01*
X2438643Y-36220000D01*
X2438646Y-36219999D01*
X2612512Y-36185415D01*
X2612520Y-36185413D01*
X2776307Y-36117571D01*
X2776316Y-36117566D01*
X2923716Y-36019076D01*
X2923720Y-36019073D01*
X3049073Y-35893720D01*
X3049076Y-35893716D01*
X3147566Y-35746316D01*
X3147571Y-35746307D01*
X3215413Y-35582520D01*
X3215415Y-35582512D01*
X3227850Y-35520000D01*
X2574265Y-35520000D01*
X2590060Y-35504205D01*
X2629556Y-35435796D01*
X2650000Y-35359496D01*
X2650000Y-35280504D01*
X2629556Y-35204204D01*
X2590060Y-35135795D01*
X2574265Y-35120000D01*
X3227850Y-35120000D01*
X4802150Y-35120000D01*
X5455735Y-35120000D01*
X5439940Y-35135795D01*
X5400444Y-35204204D01*
X5380000Y-35280504D01*
X5380000Y-35359496D01*
X5400444Y-35435796D01*
X5439940Y-35504205D01*
X5455735Y-35520000D01*
X4802150Y-35520000D01*
X4814584Y-35582512D01*
X4814586Y-35582520D01*
X4882428Y-35746307D01*
X4882433Y-35746316D01*
X4980923Y-35893716D01*
X4980926Y-35893720D01*
X5106279Y-36019073D01*
X5106283Y-36019076D01*
X5253683Y-36117566D01*
X5253692Y-36117571D01*
X5417479Y-36185413D01*
X5417487Y-36185415D01*
X5591353Y-36219999D01*
X5591357Y-36220000D01*
X6030000Y-36220000D01*
X6030000Y-35620000D01*
X6430000Y-35620000D01*
X6430000Y-36220000D01*
X6868643Y-36220000D01*
X6868646Y-36219999D01*
X7042512Y-36185415D01*
X7042520Y-36185413D01*
X7206307Y-36117571D01*
X7206316Y-36117566D01*
X7353716Y-36019076D01*
X7353720Y-36019073D01*
X7479073Y-35893720D01*
X7479076Y-35893716D01*
X7577566Y-35746316D01*
X7577571Y-35746307D01*
X7645413Y-35582520D01*
X7645415Y-35582512D01*
X7657850Y-35520000D01*
X7004265Y-35520000D01*
X7020060Y-35504205D01*
X7059556Y-35435796D01*
X7080000Y-35359496D01*
X7080000Y-35280504D01*
X7059556Y-35204204D01*
X7020060Y-35135795D01*
X7004265Y-35120000D01*
X7657850Y-35120000D01*
X7645415Y-35057487D01*
X7645413Y-35057479D01*
X7577571Y-34893692D01*
X7577566Y-34893683D01*
X7479076Y-34746283D01*
X7479073Y-34746279D01*
X7353720Y-34620926D01*
X7353716Y-34620923D01*
X7206316Y-34522433D01*
X7206307Y-34522428D01*
X7042520Y-34454586D01*
X7042512Y-34454584D01*
X6868646Y-34420000D01*
X6430000Y-34420000D01*
X6430000Y-35020000D01*
X6030000Y-35020000D01*
X6030000Y-34425242D01*
X6038644Y-34395801D01*
X6045168Y-34365815D01*
X6048922Y-34360799D01*
X6049685Y-34358203D01*
X6066319Y-34337561D01*
X6122923Y-34280957D01*
X6138930Y-34264950D01*
X6160515Y-34243365D01*
X6236281Y-34112135D01*
X6275500Y-33965766D01*
X6275500Y-33814234D01*
X6236281Y-33667865D01*
X6160515Y-33536635D01*
X6053365Y-33429485D01*
X5987750Y-33391602D01*
X5922136Y-33353719D01*
X5814326Y-33324832D01*
X5775766Y-33314500D01*
X5624234Y-33314500D01*
X5477863Y-33353719D01*
X5346635Y-33429485D01*
X5346632Y-33429487D01*
X5239487Y-33536632D01*
X5239485Y-33536635D01*
X5163719Y-33667863D01*
X5139673Y-33757606D01*
X5124500Y-33814234D01*
X5124500Y-33965766D01*
X5127520Y-33977036D01*
X5163719Y-34112136D01*
X5197733Y-34171048D01*
X5239485Y-34243365D01*
X5239487Y-34243367D01*
X5309750Y-34313630D01*
X5343235Y-34374953D01*
X5338251Y-34444645D01*
X5296379Y-34500578D01*
X5269522Y-34515872D01*
X5253692Y-34522428D01*
X5253683Y-34522433D01*
X5106283Y-34620923D01*
X5106279Y-34620926D01*
X4980926Y-34746279D01*
X4980923Y-34746283D01*
X4882433Y-34893683D01*
X4882428Y-34893692D01*
X4814586Y-35057479D01*
X4814584Y-35057487D01*
X4802150Y-35120000D01*
X3227850Y-35120000D01*
X3215415Y-35057487D01*
X3215413Y-35057479D01*
X3147571Y-34893692D01*
X3147566Y-34893683D01*
X3049076Y-34746283D01*
X3049073Y-34746279D01*
X2923720Y-34620926D01*
X2923716Y-34620923D01*
X2776316Y-34522433D01*
X2776307Y-34522428D01*
X2612520Y-34454586D01*
X2612512Y-34454584D01*
X2438646Y-34420000D01*
X2250000Y-34420000D01*
X2250000Y-35020000D01*
X1850000Y-35020000D01*
X1850000Y-34420000D01*
X1661353Y-34420000D01*
X1487487Y-34454584D01*
X1487479Y-34454586D01*
X1323692Y-34522428D01*
X1323683Y-34522433D01*
X1176283Y-34620923D01*
X1176279Y-34620926D01*
X1050926Y-34746279D01*
X1050923Y-34746283D01*
X952433Y-34893683D01*
X952428Y-34893692D01*
X884586Y-35057479D01*
X884584Y-35057487D01*
X872150Y-35120000D01*
X500000Y-35120000D01*
X500000Y-30314071D01*
X4094498Y-30314071D01*
X4119496Y-30439738D01*
X4119498Y-30439744D01*
X4168532Y-30558124D01*
X4168537Y-30558133D01*
X4239722Y-30664668D01*
X4239725Y-30664672D01*
X4330326Y-30755273D01*
X4330330Y-30755276D01*
X4436865Y-30826461D01*
X4436871Y-30826464D01*
X4436872Y-30826465D01*
X4555255Y-30875501D01*
X4555259Y-30875501D01*
X4555260Y-30875502D01*
X4680927Y-30900500D01*
X4680930Y-30900500D01*
X4809070Y-30900500D01*
X4893614Y-30883682D01*
X4934743Y-30875501D01*
X5053126Y-30826465D01*
X5053125Y-30826465D01*
X5058754Y-30824134D01*
X5059566Y-30826096D01*
X5118530Y-30813798D01*
X5145205Y-30818921D01*
X9780943Y-32250546D01*
X10397806Y-32441048D01*
X10456052Y-32479638D01*
X10484189Y-32543592D01*
X10473283Y-32612605D01*
X10464320Y-32628417D01*
X10398537Y-32726868D01*
X10398533Y-32726875D01*
X10349499Y-32845255D01*
X10349497Y-32845261D01*
X10324500Y-32970928D01*
X10324500Y-32970931D01*
X10324500Y-33099069D01*
X10324500Y-33099071D01*
X10324499Y-33099071D01*
X10349497Y-33224738D01*
X10349499Y-33224744D01*
X10398533Y-33343124D01*
X10398538Y-33343133D01*
X10469723Y-33449668D01*
X10469726Y-33449672D01*
X10513180Y-33493125D01*
X10546666Y-33554448D01*
X10549500Y-33580807D01*
X10549500Y-33743982D01*
X10549500Y-33856018D01*
X10577431Y-33960256D01*
X10578497Y-33964236D01*
X10578498Y-33964239D01*
X10595863Y-33994315D01*
X10634515Y-34061263D01*
X10634517Y-34061265D01*
X12526681Y-35953429D01*
X12560166Y-36014752D01*
X12563000Y-36041110D01*
X12563000Y-36102569D01*
X12563000Y-36102571D01*
X12562999Y-36102571D01*
X12587997Y-36228238D01*
X12587999Y-36228244D01*
X12637033Y-36346624D01*
X12637038Y-36346633D01*
X12708223Y-36453168D01*
X12708226Y-36453172D01*
X12798827Y-36543773D01*
X12798831Y-36543776D01*
X12905366Y-36614961D01*
X12905375Y-36614966D01*
X12932192Y-36626074D01*
X13023756Y-36664001D01*
X13023760Y-36664001D01*
X13023761Y-36664002D01*
X13149428Y-36689000D01*
X13149431Y-36689000D01*
X13277571Y-36689000D01*
X13362115Y-36672182D01*
X13403244Y-36664001D01*
X13521627Y-36614965D01*
X13628169Y-36543776D01*
X13718776Y-36453169D01*
X13789965Y-36346627D01*
X13839001Y-36228244D01*
X13839002Y-36228234D01*
X13840644Y-36222826D01*
X13878939Y-36164386D01*
X13942749Y-36135926D01*
X14011817Y-36146483D01*
X14046987Y-36171135D01*
X14299081Y-36423229D01*
X14332566Y-36484552D01*
X14335400Y-36510910D01*
X14335400Y-40810292D01*
X14315715Y-40877331D01*
X14299081Y-40897973D01*
X14255626Y-40941427D01*
X14255623Y-40941431D01*
X14184438Y-41047966D01*
X14184433Y-41047975D01*
X14135399Y-41166355D01*
X14135397Y-41166361D01*
X14110400Y-41292028D01*
X14110400Y-41420173D01*
X14116116Y-41448909D01*
X14109889Y-41518501D01*
X14067026Y-41573678D01*
X14001136Y-41596922D01*
X13994499Y-41597100D01*
X11291500Y-41597100D01*
X11224461Y-41577415D01*
X11178706Y-41524611D01*
X11169883Y-41497293D01*
X11166080Y-41478172D01*
X11142056Y-41420173D01*
X11113278Y-41350695D01*
X11113271Y-41350682D01*
X11036614Y-41235958D01*
X11036611Y-41235954D01*
X10939045Y-41138388D01*
X10939041Y-41138385D01*
X10824317Y-41061728D01*
X10824304Y-41061721D01*
X10696832Y-41008921D01*
X10696822Y-41008918D01*
X10561495Y-40982000D01*
X10561493Y-40982000D01*
X10423507Y-40982000D01*
X10423505Y-40982000D01*
X10288177Y-41008918D01*
X10288167Y-41008921D01*
X10160695Y-41061721D01*
X10160682Y-41061728D01*
X10045958Y-41138385D01*
X10045954Y-41138388D01*
X9948388Y-41235954D01*
X9948385Y-41235958D01*
X9871728Y-41350682D01*
X9871721Y-41350695D01*
X9818921Y-41478167D01*
X9818918Y-41478177D01*
X9792000Y-41613504D01*
X9792000Y-41613507D01*
X9792000Y-41751493D01*
X9792000Y-41751495D01*
X9791999Y-41751495D01*
X9818918Y-41886822D01*
X9818921Y-41886832D01*
X9871721Y-42014304D01*
X9871728Y-42014317D01*
X9948385Y-42129041D01*
X9948388Y-42129045D01*
X10045954Y-42226611D01*
X10045958Y-42226614D01*
X10160682Y-42303271D01*
X10160695Y-42303278D01*
X10288167Y-42356078D01*
X10288172Y-42356080D01*
X10288176Y-42356080D01*
X10288177Y-42356081D01*
X10423504Y-42383000D01*
X10423507Y-42383000D01*
X10433824Y-42383000D01*
X10500863Y-42402685D01*
X10521505Y-42419319D01*
X10600286Y-42498100D01*
X10714414Y-42563992D01*
X10841708Y-42598100D01*
X10841710Y-42598100D01*
X16524390Y-42598100D01*
X16524392Y-42598100D01*
X16651686Y-42563992D01*
X16765814Y-42498100D01*
X17003594Y-42260318D01*
X17064917Y-42226834D01*
X17091275Y-42224000D01*
X20801575Y-42224000D01*
X20868614Y-42243685D01*
X20914369Y-42296489D01*
X20923192Y-42323808D01*
X20948218Y-42449622D01*
X20948221Y-42449632D01*
X21001021Y-42577104D01*
X21001028Y-42577117D01*
X21077685Y-42691841D01*
X21077688Y-42691845D01*
X21175254Y-42789411D01*
X21175258Y-42789414D01*
X21289982Y-42866071D01*
X21289995Y-42866078D01*
X21417467Y-42918878D01*
X21417472Y-42918880D01*
X21417476Y-42918880D01*
X21417477Y-42918881D01*
X21552804Y-42945800D01*
X21552807Y-42945800D01*
X21690795Y-42945800D01*
X21781841Y-42927689D01*
X21826128Y-42918880D01*
X21953611Y-42866075D01*
X22068342Y-42789414D01*
X22165914Y-42691842D01*
X22242575Y-42577111D01*
X22248010Y-42563991D01*
X22257468Y-42541155D01*
X22295380Y-42449628D01*
X22313988Y-42356080D01*
X22322300Y-42314295D01*
X22322300Y-42176304D01*
X22295381Y-42040977D01*
X22295380Y-42040976D01*
X22295380Y-42040972D01*
X22284334Y-42014304D01*
X22242578Y-41913495D01*
X22242571Y-41913482D01*
X22165914Y-41798758D01*
X22165911Y-41798754D01*
X22068345Y-41701188D01*
X22068341Y-41701185D01*
X21953617Y-41624528D01*
X21953604Y-41624521D01*
X21826132Y-41571721D01*
X21826122Y-41571718D01*
X21690795Y-41544800D01*
X21690793Y-41544800D01*
X21680476Y-41544800D01*
X21613437Y-41525115D01*
X21592795Y-41508481D01*
X21407316Y-41323002D01*
X21407314Y-41323000D01*
X21350250Y-41290054D01*
X21293187Y-41257108D01*
X21214237Y-41235954D01*
X21165892Y-41223000D01*
X16898492Y-41223000D01*
X16766707Y-41223000D01*
X16639412Y-41257108D01*
X16525286Y-41323000D01*
X16439169Y-41409117D01*
X16439168Y-41409116D01*
X16439166Y-41409118D01*
X16439167Y-41409119D01*
X16432100Y-41416186D01*
X16432098Y-41416187D01*
X16287503Y-41560782D01*
X16226182Y-41594266D01*
X16199824Y-41597100D01*
X15527301Y-41597100D01*
X15460262Y-41577415D01*
X15414507Y-41524611D01*
X15404563Y-41455453D01*
X15405684Y-41448909D01*
X15411399Y-41420173D01*
X15411400Y-41420171D01*
X15411400Y-41292028D01*
X15386402Y-41166361D01*
X15386401Y-41166360D01*
X15386401Y-41166356D01*
X15337365Y-41047973D01*
X15337364Y-41047972D01*
X15337361Y-41047966D01*
X15266176Y-40941431D01*
X15266173Y-40941427D01*
X15222719Y-40897973D01*
X15189234Y-40836650D01*
X15186400Y-40810292D01*
X15186400Y-36227284D01*
X15186400Y-36227282D01*
X15157403Y-36119063D01*
X15101385Y-36022037D01*
X15022163Y-35942815D01*
X13758619Y-34679271D01*
X13725134Y-34617948D01*
X13722300Y-34591590D01*
X13722300Y-31370371D01*
X14068299Y-31370371D01*
X14093297Y-31496038D01*
X14093299Y-31496044D01*
X14142333Y-31614424D01*
X14142338Y-31614433D01*
X14213523Y-31720968D01*
X14213526Y-31720972D01*
X14304127Y-31811573D01*
X14304131Y-31811576D01*
X14410666Y-31882761D01*
X14410675Y-31882766D01*
X14437492Y-31893874D01*
X14529056Y-31931801D01*
X14529060Y-31931801D01*
X14529061Y-31931802D01*
X14654728Y-31956800D01*
X14654731Y-31956800D01*
X14782871Y-31956800D01*
X14867415Y-31939982D01*
X14908544Y-31931801D01*
X15026927Y-31882765D01*
X15133469Y-31811576D01*
X15224076Y-31720969D01*
X15295265Y-31614427D01*
X15344301Y-31496044D01*
X15369300Y-31370369D01*
X15369300Y-31308910D01*
X15388985Y-31241871D01*
X15405619Y-31221229D01*
X17276259Y-29350589D01*
X19189885Y-27436963D01*
X19245903Y-27339937D01*
X19274900Y-27231718D01*
X19274900Y-27119681D01*
X19274900Y-20491510D01*
X19294585Y-20424471D01*
X19311219Y-20403829D01*
X20108229Y-19606819D01*
X20169552Y-19573334D01*
X20195910Y-19570500D01*
X20257371Y-19570500D01*
X20348361Y-19552400D01*
X20383044Y-19545501D01*
X20501427Y-19496465D01*
X20607969Y-19425276D01*
X20698576Y-19334669D01*
X20769765Y-19228127D01*
X20818801Y-19109744D01*
X20838250Y-19011971D01*
X20843800Y-18984071D01*
X20843800Y-18855928D01*
X20818802Y-18730261D01*
X20818801Y-18730260D01*
X20818801Y-18730256D01*
X20780874Y-18638692D01*
X20769766Y-18611875D01*
X20769761Y-18611866D01*
X20698576Y-18505331D01*
X20698573Y-18505327D01*
X20607972Y-18414726D01*
X20607968Y-18414723D01*
X20501433Y-18343538D01*
X20501424Y-18343533D01*
X20383044Y-18294499D01*
X20383038Y-18294497D01*
X20257371Y-18269500D01*
X20257369Y-18269500D01*
X20129231Y-18269500D01*
X20129229Y-18269500D01*
X20003561Y-18294497D01*
X20003555Y-18294499D01*
X19885175Y-18343533D01*
X19885166Y-18343538D01*
X19778631Y-18414723D01*
X19778627Y-18414726D01*
X19688026Y-18505327D01*
X19688023Y-18505331D01*
X19616838Y-18611866D01*
X19616833Y-18611875D01*
X19567799Y-18730255D01*
X19567797Y-18730261D01*
X19542800Y-18855928D01*
X19542800Y-18917390D01*
X19523115Y-18984429D01*
X19506481Y-19005071D01*
X18624681Y-19886871D01*
X18563358Y-19920356D01*
X18493666Y-19915372D01*
X18437733Y-19873500D01*
X18413316Y-19808036D01*
X18413000Y-19799190D01*
X18413000Y-18937310D01*
X18432685Y-18870271D01*
X18449319Y-18849629D01*
X19882129Y-17416819D01*
X19943452Y-17383334D01*
X19969810Y-17380500D01*
X20031271Y-17380500D01*
X20115815Y-17363682D01*
X20156944Y-17355501D01*
X20275327Y-17306465D01*
X20381869Y-17235276D01*
X20472476Y-17144669D01*
X20543665Y-17038127D01*
X20592701Y-16919744D01*
X20602869Y-16868629D01*
X20617700Y-16794071D01*
X20617700Y-16665928D01*
X20592702Y-16540261D01*
X20592701Y-16540260D01*
X20592701Y-16540256D01*
X20543665Y-16421873D01*
X20543664Y-16421872D01*
X20543661Y-16421866D01*
X20472476Y-16315331D01*
X20472473Y-16315327D01*
X20381872Y-16224726D01*
X20381868Y-16224723D01*
X20275333Y-16153538D01*
X20275324Y-16153533D01*
X20156944Y-16104499D01*
X20156938Y-16104497D01*
X20031271Y-16079500D01*
X20031269Y-16079500D01*
X19903131Y-16079500D01*
X19903129Y-16079500D01*
X19777461Y-16104497D01*
X19777455Y-16104499D01*
X19659075Y-16153533D01*
X19659066Y-16153538D01*
X19552531Y-16224723D01*
X19552527Y-16224726D01*
X19461926Y-16315327D01*
X19461923Y-16315331D01*
X19390738Y-16421866D01*
X19390733Y-16421875D01*
X19341699Y-16540255D01*
X19341697Y-16540261D01*
X19316700Y-16665928D01*
X19316700Y-16727390D01*
X19297015Y-16794429D01*
X19280381Y-16815071D01*
X17647017Y-18448434D01*
X17647013Y-18448440D01*
X17590998Y-18545460D01*
X17590997Y-18545463D01*
X17562000Y-18653682D01*
X17562000Y-25632190D01*
X17542315Y-25699229D01*
X17525681Y-25719871D01*
X15958971Y-27286581D01*
X15897648Y-27320066D01*
X15871290Y-27322900D01*
X15809829Y-27322900D01*
X15684161Y-27347897D01*
X15684155Y-27347899D01*
X15565775Y-27396933D01*
X15565766Y-27396938D01*
X15459231Y-27468123D01*
X15459227Y-27468126D01*
X15368626Y-27558727D01*
X15368623Y-27558731D01*
X15297438Y-27665266D01*
X15297433Y-27665275D01*
X15248399Y-27783655D01*
X15248397Y-27783661D01*
X15223400Y-27909328D01*
X15223400Y-27909331D01*
X15223400Y-28037469D01*
X15223400Y-28037471D01*
X15223399Y-28037471D01*
X15248397Y-28163138D01*
X15248399Y-28163144D01*
X15297433Y-28281524D01*
X15297438Y-28281533D01*
X15368623Y-28388068D01*
X15368626Y-28388072D01*
X15459227Y-28478673D01*
X15459231Y-28478676D01*
X15565766Y-28549861D01*
X15565775Y-28549866D01*
X15575244Y-28553788D01*
X15684156Y-28598901D01*
X15684160Y-28598901D01*
X15684161Y-28598902D01*
X15809828Y-28623900D01*
X15809831Y-28623900D01*
X15937971Y-28623900D01*
X16046295Y-28602352D01*
X16063644Y-28598901D01*
X16182027Y-28549865D01*
X16288569Y-28478676D01*
X16379176Y-28388069D01*
X16450365Y-28281527D01*
X16499401Y-28163144D01*
X16509213Y-28113817D01*
X16524400Y-28037471D01*
X16524400Y-27976010D01*
X16544085Y-27908971D01*
X16560719Y-27888329D01*
X18212219Y-26236829D01*
X18273542Y-26203344D01*
X18343234Y-26208328D01*
X18399167Y-26250200D01*
X18423584Y-26315664D01*
X18423900Y-26324510D01*
X18423900Y-26948090D01*
X18404215Y-27015129D01*
X18387581Y-27035771D01*
X14803871Y-30619481D01*
X14742548Y-30652966D01*
X14716190Y-30655800D01*
X14654729Y-30655800D01*
X14529061Y-30680797D01*
X14529055Y-30680799D01*
X14410675Y-30729833D01*
X14410666Y-30729838D01*
X14304131Y-30801023D01*
X14304127Y-30801026D01*
X14213526Y-30891627D01*
X14213523Y-30891631D01*
X14142338Y-30998166D01*
X14142333Y-30998175D01*
X14093299Y-31116555D01*
X14093297Y-31116561D01*
X14068300Y-31242228D01*
X14068300Y-31242231D01*
X14068300Y-31370369D01*
X14068300Y-31370371D01*
X14068299Y-31370371D01*
X13722300Y-31370371D01*
X13722300Y-30764710D01*
X13741985Y-30697671D01*
X13758619Y-30677029D01*
X13770980Y-30664668D01*
X13796884Y-30638764D01*
X13801659Y-30630495D01*
X13852903Y-30541737D01*
X13859933Y-30515500D01*
X13881900Y-30433519D01*
X13881900Y-30321482D01*
X13881900Y-29777282D01*
X13852903Y-29669063D01*
X13796885Y-29572037D01*
X13758619Y-29533771D01*
X13725134Y-29472448D01*
X13722300Y-29446090D01*
X13722300Y-8236110D01*
X13741985Y-8169071D01*
X13758619Y-8148429D01*
X14662566Y-7244482D01*
X21376800Y-7244482D01*
X21376800Y-34316282D01*
X21376800Y-34428318D01*
X21405797Y-34536537D01*
X21461815Y-34633563D01*
X21461817Y-34633565D01*
X32893181Y-46064929D01*
X32926666Y-46126252D01*
X32929500Y-46152610D01*
X32929500Y-46214069D01*
X32929500Y-46214071D01*
X32929499Y-46214071D01*
X32954497Y-46339738D01*
X32954499Y-46339744D01*
X33003533Y-46458124D01*
X33003538Y-46458133D01*
X33074723Y-46564668D01*
X33074726Y-46564672D01*
X33165327Y-46655273D01*
X33165331Y-46655276D01*
X33271866Y-46726461D01*
X33271872Y-46726464D01*
X33271873Y-46726465D01*
X33390256Y-46775501D01*
X33390260Y-46775501D01*
X33390261Y-46775502D01*
X33515928Y-46800500D01*
X33515931Y-46800500D01*
X33644071Y-46800500D01*
X33728615Y-46783682D01*
X33769744Y-46775501D01*
X33888127Y-46726465D01*
X33994669Y-46655276D01*
X34085276Y-46564669D01*
X34156465Y-46458127D01*
X34205501Y-46339744D01*
X34230500Y-46214069D01*
X34230500Y-46085931D01*
X34230500Y-46085928D01*
X34205502Y-45960261D01*
X34205501Y-45960260D01*
X34205501Y-45960256D01*
X34156465Y-45841873D01*
X34156464Y-45841872D01*
X34156461Y-45841866D01*
X34085276Y-45735331D01*
X34085273Y-45735327D01*
X33994672Y-45644726D01*
X33994668Y-45644723D01*
X33888133Y-45573538D01*
X33888124Y-45573533D01*
X33769744Y-45524499D01*
X33769738Y-45524497D01*
X33644071Y-45499500D01*
X33644069Y-45499500D01*
X33582610Y-45499500D01*
X33515571Y-45479815D01*
X33494929Y-45463181D01*
X22264119Y-34232371D01*
X22230634Y-34171048D01*
X22227800Y-34144690D01*
X22227800Y-18811210D01*
X22247485Y-18744171D01*
X22300289Y-18698416D01*
X22369447Y-18688472D01*
X22433003Y-18717497D01*
X22439481Y-18723529D01*
X25522715Y-21806763D01*
X25601937Y-21885985D01*
X25698963Y-21942003D01*
X25807181Y-21971000D01*
X25807182Y-21971000D01*
X25807183Y-21971000D01*
X34584346Y-21971000D01*
X34651385Y-21990685D01*
X34697140Y-22043489D01*
X34705963Y-22070809D01*
X34711697Y-22099636D01*
X34711699Y-22099644D01*
X34760733Y-22218024D01*
X34760738Y-22218033D01*
X34831923Y-22324568D01*
X34831926Y-22324572D01*
X34922527Y-22415173D01*
X34922531Y-22415176D01*
X35029066Y-22486361D01*
X35029072Y-22486364D01*
X35029073Y-22486365D01*
X35147456Y-22535401D01*
X35189693Y-22543802D01*
X35251601Y-22576186D01*
X35286176Y-22636901D01*
X35289500Y-22665419D01*
X35289500Y-30033982D01*
X35289500Y-30146018D01*
X35318497Y-30254237D01*
X35374515Y-30351263D01*
X35374517Y-30351265D01*
X41444081Y-36420829D01*
X41477566Y-36482152D01*
X41480400Y-36508510D01*
X41480400Y-42185092D01*
X41460715Y-42252131D01*
X41444081Y-42272773D01*
X41400626Y-42316227D01*
X41400623Y-42316231D01*
X41329438Y-42422766D01*
X41329433Y-42422775D01*
X41280399Y-42541155D01*
X41280397Y-42541161D01*
X41255400Y-42666828D01*
X41255400Y-42666831D01*
X41255400Y-42794969D01*
X41255400Y-42794971D01*
X41255399Y-42794971D01*
X41280397Y-42920638D01*
X41280399Y-42920644D01*
X41329433Y-43039024D01*
X41329438Y-43039033D01*
X41400623Y-43145568D01*
X41400626Y-43145572D01*
X41491227Y-43236173D01*
X41491231Y-43236176D01*
X41597766Y-43307361D01*
X41597772Y-43307364D01*
X41597773Y-43307365D01*
X41716156Y-43356401D01*
X41716160Y-43356401D01*
X41716161Y-43356402D01*
X41841828Y-43381400D01*
X41841831Y-43381400D01*
X41969971Y-43381400D01*
X42054515Y-43364582D01*
X42095644Y-43356401D01*
X42214027Y-43307365D01*
X42320569Y-43236176D01*
X42411176Y-43145569D01*
X42482365Y-43039027D01*
X42531401Y-42920644D01*
X42556400Y-42794969D01*
X42556400Y-42666831D01*
X42556400Y-42666828D01*
X42531402Y-42541161D01*
X42531401Y-42541160D01*
X42531401Y-42541156D01*
X42482365Y-42422773D01*
X42482364Y-42422772D01*
X42482361Y-42422766D01*
X42411176Y-42316231D01*
X42411173Y-42316227D01*
X42367719Y-42272773D01*
X42334234Y-42211450D01*
X42331400Y-42185092D01*
X42331400Y-36887987D01*
X42351085Y-36820948D01*
X42403889Y-36775193D01*
X42473047Y-36765249D01*
X42524289Y-36784884D01*
X42563173Y-36810865D01*
X42681556Y-36859901D01*
X42681560Y-36859901D01*
X42681561Y-36859902D01*
X42807228Y-36884900D01*
X42807231Y-36884900D01*
X42935371Y-36884900D01*
X43019915Y-36868082D01*
X43061044Y-36859901D01*
X43179427Y-36810865D01*
X43285969Y-36739676D01*
X43376576Y-36649069D01*
X43447765Y-36542527D01*
X43492639Y-36434192D01*
X43536480Y-36379788D01*
X43602774Y-36357723D01*
X43670473Y-36375002D01*
X43718084Y-36426139D01*
X43731200Y-36481644D01*
X43731200Y-37505922D01*
X43722554Y-37535365D01*
X43716032Y-37565348D01*
X43712277Y-37570363D01*
X43711515Y-37572961D01*
X43694882Y-37593603D01*
X43639727Y-37648757D01*
X43576886Y-37711599D01*
X43559444Y-37729042D01*
X43483700Y-37804786D01*
X43417808Y-37918912D01*
X43383700Y-38046208D01*
X43383700Y-46034924D01*
X43364015Y-46101963D01*
X43347381Y-46122605D01*
X39424805Y-50045181D01*
X39397877Y-50059884D01*
X39372059Y-50076477D01*
X39365858Y-50077368D01*
X39363482Y-50078666D01*
X39337124Y-50081500D01*
X39165776Y-50081500D01*
X39098737Y-50061815D01*
X39078094Y-50045180D01*
X39022818Y-49989903D01*
X38989334Y-49928580D01*
X38986500Y-49902223D01*
X38986500Y-47127476D01*
X39006185Y-47060437D01*
X39022819Y-47039795D01*
X40119895Y-45942719D01*
X40181218Y-45909234D01*
X40207576Y-45906400D01*
X40217895Y-45906400D01*
X40308941Y-45888289D01*
X40353228Y-45879480D01*
X40480711Y-45826675D01*
X40595442Y-45750014D01*
X40693014Y-45652442D01*
X40769675Y-45537711D01*
X40822480Y-45410228D01*
X40849400Y-45274893D01*
X40849400Y-45136907D01*
X40849400Y-45136904D01*
X40822481Y-45001577D01*
X40822480Y-45001576D01*
X40822480Y-45001572D01*
X40794345Y-44933648D01*
X40769678Y-44874095D01*
X40769671Y-44874082D01*
X40693014Y-44759358D01*
X40693011Y-44759354D01*
X40595445Y-44661788D01*
X40595441Y-44661785D01*
X40480717Y-44585128D01*
X40480704Y-44585121D01*
X40353232Y-44532321D01*
X40353222Y-44532318D01*
X40217895Y-44505400D01*
X40217893Y-44505400D01*
X40079907Y-44505400D01*
X40079905Y-44505400D01*
X39944577Y-44532318D01*
X39944567Y-44532321D01*
X39817095Y-44585121D01*
X39817082Y-44585128D01*
X39702358Y-44661785D01*
X39702354Y-44661788D01*
X39604788Y-44759354D01*
X39604785Y-44759358D01*
X39528128Y-44874082D01*
X39528121Y-44874095D01*
X39475321Y-45001567D01*
X39475318Y-45001577D01*
X39448400Y-45136904D01*
X39448400Y-45147224D01*
X39428715Y-45214263D01*
X39412081Y-45234905D01*
X38085502Y-46561483D01*
X38085500Y-46561486D01*
X38019608Y-46675612D01*
X37985500Y-46802908D01*
X37985500Y-50226791D01*
X38019608Y-50354087D01*
X38033825Y-50378711D01*
X38085500Y-50468214D01*
X38506598Y-50889312D01*
X38506600Y-50889314D01*
X38599786Y-50982500D01*
X38713914Y-51048392D01*
X38841207Y-51082500D01*
X38841208Y-51082500D01*
X38841209Y-51082500D01*
X39661690Y-51082500D01*
X39661692Y-51082500D01*
X39788986Y-51048392D01*
X39903114Y-50982500D01*
X40506903Y-50378711D01*
X74649500Y-50378711D01*
X74649500Y-50621288D01*
X74681161Y-50861785D01*
X74743947Y-51096104D01*
X74836773Y-51320205D01*
X74836776Y-51320212D01*
X74958064Y-51530289D01*
X74958066Y-51530292D01*
X74958067Y-51530293D01*
X75105733Y-51722736D01*
X75105739Y-51722743D01*
X75277256Y-51894260D01*
X75277262Y-51894265D01*
X75469711Y-52041936D01*
X75679788Y-52163224D01*
X75903900Y-52256054D01*
X76138211Y-52318838D01*
X76318586Y-52342584D01*
X76378711Y-52350500D01*
X76378712Y-52350500D01*
X76621289Y-52350500D01*
X76669388Y-52344167D01*
X76861789Y-52318838D01*
X77096100Y-52256054D01*
X77320212Y-52163224D01*
X77530289Y-52041936D01*
X77722738Y-51894265D01*
X77894265Y-51722738D01*
X78041936Y-51530289D01*
X78163224Y-51320212D01*
X78256054Y-51096100D01*
X78318838Y-50861789D01*
X78350500Y-50621288D01*
X78350500Y-50378712D01*
X78318838Y-50138211D01*
X78256054Y-49903900D01*
X78163224Y-49679788D01*
X78041936Y-49469711D01*
X77941521Y-49338847D01*
X77894266Y-49277263D01*
X77894260Y-49277256D01*
X77722743Y-49105739D01*
X77722736Y-49105733D01*
X77530293Y-48958067D01*
X77530292Y-48958066D01*
X77530289Y-48958064D01*
X77320212Y-48836776D01*
X77320205Y-48836773D01*
X77096104Y-48743947D01*
X76861785Y-48681161D01*
X76621289Y-48649500D01*
X76621288Y-48649500D01*
X76378712Y-48649500D01*
X76378711Y-48649500D01*
X76138214Y-48681161D01*
X75903895Y-48743947D01*
X75679794Y-48836773D01*
X75679785Y-48836777D01*
X75613954Y-48874785D01*
X75490219Y-48946224D01*
X75469706Y-48958067D01*
X75277263Y-49105733D01*
X75277256Y-49105739D01*
X75105739Y-49277256D01*
X75105733Y-49277263D01*
X74958067Y-49469706D01*
X74836777Y-49679785D01*
X74836773Y-49679794D01*
X74743947Y-49903895D01*
X74681161Y-50138214D01*
X74649500Y-50378711D01*
X40506903Y-50378711D01*
X41415908Y-49469706D01*
X42324658Y-48560957D01*
X43501265Y-47384350D01*
X48800000Y-47384350D01*
X48800000Y-48300000D01*
X49826069Y-48300000D01*
X49800000Y-48431056D01*
X49800000Y-48568944D01*
X49826069Y-48700000D01*
X48800000Y-48700000D01*
X48800000Y-49615649D01*
X48802899Y-49652489D01*
X48802900Y-49652495D01*
X48848716Y-49810193D01*
X48848717Y-49810196D01*
X48932314Y-49951552D01*
X48932321Y-49951561D01*
X49048438Y-50067678D01*
X49048447Y-50067685D01*
X49189803Y-50151282D01*
X49189806Y-50151283D01*
X49347504Y-50197099D01*
X49347510Y-50197100D01*
X49384350Y-50199999D01*
X49384366Y-50200000D01*
X50300000Y-50200000D01*
X50300000Y-49173930D01*
X50431056Y-49200000D01*
X50568944Y-49200000D01*
X50700000Y-49173930D01*
X50700000Y-50200000D01*
X51615634Y-50200000D01*
X51615649Y-50199999D01*
X51652489Y-50197100D01*
X51652495Y-50197099D01*
X51810193Y-50151283D01*
X51810196Y-50151282D01*
X51951552Y-50067685D01*
X51951561Y-50067678D01*
X52067678Y-49951561D01*
X52067685Y-49951552D01*
X52151282Y-49810196D01*
X52151283Y-49810193D01*
X52197099Y-49652495D01*
X52197100Y-49652489D01*
X52199999Y-49615649D01*
X52200000Y-49615634D01*
X52200000Y-48700000D01*
X51173931Y-48700000D01*
X51200000Y-48568944D01*
X51200000Y-48431056D01*
X51173931Y-48300000D01*
X52200000Y-48300000D01*
X52200000Y-47384365D01*
X52199999Y-47384350D01*
X52197100Y-47347510D01*
X52197099Y-47347504D01*
X52151283Y-47189806D01*
X52151282Y-47189803D01*
X52067685Y-47048447D01*
X52067678Y-47048438D01*
X51951561Y-46932321D01*
X51951552Y-46932314D01*
X51810196Y-46848717D01*
X51810193Y-46848716D01*
X51652495Y-46802900D01*
X51652489Y-46802899D01*
X51615649Y-46800000D01*
X50700000Y-46800000D01*
X50700000Y-47826069D01*
X50568944Y-47800000D01*
X50431056Y-47800000D01*
X50300000Y-47826069D01*
X50300000Y-46800000D01*
X49384350Y-46800000D01*
X49347510Y-46802899D01*
X49347504Y-46802900D01*
X49189806Y-46848716D01*
X49189803Y-46848717D01*
X49048447Y-46932314D01*
X49048438Y-46932321D01*
X48932321Y-47048438D01*
X48932314Y-47048447D01*
X48848717Y-47189803D01*
X48848716Y-47189806D01*
X48802900Y-47347504D01*
X48802899Y-47347510D01*
X48800000Y-47384350D01*
X43501265Y-47384350D01*
X43591373Y-47294242D01*
X44284696Y-46600918D01*
X44284699Y-46600915D01*
X44299373Y-46575500D01*
X44305625Y-46564672D01*
X44350589Y-46486792D01*
X44350589Y-46486790D01*
X44350592Y-46486786D01*
X44384700Y-46359492D01*
X44384700Y-39183450D01*
X44404385Y-39116411D01*
X44457189Y-39070656D01*
X44526347Y-39060712D01*
X44532893Y-39061833D01*
X44551830Y-39065600D01*
X44551831Y-39065600D01*
X44679971Y-39065600D01*
X44764515Y-39048782D01*
X44805644Y-39040601D01*
X44924027Y-38991565D01*
X45030569Y-38920376D01*
X45121176Y-38829769D01*
X45192365Y-38723227D01*
X45241401Y-38604844D01*
X45261207Y-38505276D01*
X45266400Y-38479171D01*
X45266400Y-38351028D01*
X45241402Y-38225361D01*
X45241401Y-38225360D01*
X45241401Y-38225356D01*
X45192365Y-38106973D01*
X45192362Y-38106969D01*
X45189495Y-38101604D01*
X45190707Y-38100955D01*
X45171920Y-38040930D01*
X45171900Y-38038730D01*
X45171900Y-28193010D01*
X45191585Y-28125971D01*
X45244389Y-28080216D01*
X45313547Y-28070272D01*
X45377103Y-28099297D01*
X45383581Y-28105329D01*
X46385655Y-29107403D01*
X46419140Y-29168726D01*
X46415905Y-29233402D01*
X46377829Y-29350589D01*
X46349500Y-29529448D01*
X46349500Y-29710551D01*
X46377829Y-29889410D01*
X46433787Y-30061636D01*
X46433788Y-30061639D01*
X46516006Y-30222997D01*
X46622441Y-30369494D01*
X46622445Y-30369499D01*
X46750500Y-30497554D01*
X46750505Y-30497558D01*
X46854986Y-30573467D01*
X46897006Y-30603996D01*
X46994785Y-30653817D01*
X47058360Y-30686211D01*
X47058363Y-30686212D01*
X47103945Y-30701022D01*
X47230591Y-30742171D01*
X47313314Y-30755273D01*
X47409449Y-30770500D01*
X47409454Y-30770500D01*
X47590551Y-30770500D01*
X47677259Y-30756765D01*
X47769409Y-30742171D01*
X47941639Y-30686211D01*
X48102994Y-30603996D01*
X48249501Y-30497553D01*
X48377553Y-30369501D01*
X48483996Y-30222994D01*
X48566211Y-30061639D01*
X48622171Y-29889409D01*
X48639930Y-29777282D01*
X48650500Y-29710551D01*
X48650500Y-29529448D01*
X48629786Y-29398672D01*
X48622171Y-29350591D01*
X48566211Y-29178361D01*
X48566211Y-29178360D01*
X48530056Y-29107403D01*
X48483996Y-29017006D01*
X48436154Y-28951157D01*
X48377558Y-28870505D01*
X48377554Y-28870500D01*
X48249499Y-28742445D01*
X48249494Y-28742441D01*
X48102997Y-28636006D01*
X48102996Y-28636005D01*
X48102994Y-28636004D01*
X48030174Y-28598900D01*
X47941639Y-28553788D01*
X47941636Y-28553787D01*
X47769410Y-28497829D01*
X47609321Y-28472473D01*
X47546186Y-28442544D01*
X47509255Y-28383232D01*
X47510253Y-28313370D01*
X47548863Y-28255137D01*
X47609321Y-28227527D01*
X47679425Y-28216422D01*
X47769409Y-28202171D01*
X47941639Y-28146211D01*
X48102994Y-28063996D01*
X48249501Y-27957553D01*
X48377553Y-27829501D01*
X48483996Y-27682994D01*
X48566211Y-27521639D01*
X48622171Y-27349409D01*
X48637327Y-27253716D01*
X48650500Y-27170551D01*
X48650500Y-26989448D01*
X48633164Y-26880000D01*
X48622171Y-26810591D01*
X48584095Y-26693402D01*
X48566212Y-26638363D01*
X48566211Y-26638360D01*
X48502908Y-26514123D01*
X48483996Y-26477006D01*
X48440753Y-26417487D01*
X48377558Y-26330505D01*
X48377554Y-26330500D01*
X48249499Y-26202445D01*
X48249494Y-26202441D01*
X48102997Y-26096006D01*
X48102996Y-26096005D01*
X48102994Y-26096004D01*
X48030072Y-26058848D01*
X47941639Y-26013788D01*
X47941636Y-26013787D01*
X47838387Y-25980240D01*
X47780711Y-25940803D01*
X47753513Y-25876444D01*
X47765428Y-25807598D01*
X47812672Y-25756122D01*
X47838387Y-25744378D01*
X47979835Y-25698418D01*
X48155143Y-25609095D01*
X48231079Y-25553922D01*
X48231080Y-25553922D01*
X47685177Y-25008019D01*
X47692993Y-25005925D01*
X47807007Y-24940099D01*
X47900099Y-24847007D01*
X47965925Y-24732993D01*
X47968019Y-24725177D01*
X48513921Y-25271080D01*
X48513922Y-25271079D01*
X48569095Y-25195143D01*
X48658418Y-25019835D01*
X48719221Y-24832705D01*
X48750000Y-24638382D01*
X48750000Y-24441617D01*
X48719221Y-24247294D01*
X48658418Y-24060164D01*
X48569095Y-23884856D01*
X48513922Y-23808919D01*
X48513922Y-23808918D01*
X47968018Y-24354821D01*
X47965925Y-24347007D01*
X47900099Y-24232993D01*
X47807007Y-24139901D01*
X47692993Y-24074075D01*
X47685177Y-24071980D01*
X48231080Y-23526077D01*
X48231079Y-23526076D01*
X48155143Y-23470904D01*
X47986514Y-23384984D01*
X47935718Y-23337010D01*
X47918923Y-23269189D01*
X47941460Y-23203054D01*
X47996175Y-23159602D01*
X48042807Y-23150499D01*
X48394864Y-23150499D01*
X48394879Y-23150497D01*
X48394882Y-23150497D01*
X48419987Y-23147586D01*
X48419988Y-23147585D01*
X48419991Y-23147585D01*
X48522765Y-23102206D01*
X48602206Y-23022765D01*
X48647585Y-22919991D01*
X48650500Y-22894865D01*
X48650499Y-21105136D01*
X48650497Y-21105117D01*
X48647586Y-21080012D01*
X48647585Y-21080010D01*
X48647585Y-21080009D01*
X48602206Y-20977235D01*
X48522765Y-20897794D01*
X48522763Y-20897793D01*
X48419993Y-20852415D01*
X48419985Y-20852413D01*
X48409192Y-20851161D01*
X48344868Y-20823880D01*
X48305505Y-20766153D01*
X48303601Y-20696310D01*
X48335803Y-20640309D01*
X49775100Y-19201014D01*
X49840992Y-19086886D01*
X49875100Y-18959592D01*
X49875100Y-18827807D01*
X49875100Y-12009071D01*
X51218299Y-12009071D01*
X51243297Y-12134738D01*
X51243299Y-12134744D01*
X51292333Y-12253124D01*
X51292338Y-12253133D01*
X51363523Y-12359668D01*
X51363526Y-12359672D01*
X51454127Y-12450273D01*
X51454131Y-12450276D01*
X51560666Y-12521461D01*
X51560675Y-12521466D01*
X51587492Y-12532574D01*
X51679056Y-12570501D01*
X51679060Y-12570501D01*
X51679061Y-12570502D01*
X51804728Y-12595500D01*
X51804731Y-12595500D01*
X51866190Y-12595500D01*
X51933229Y-12615185D01*
X51953871Y-12631819D01*
X52402881Y-13080828D01*
X52436366Y-13142151D01*
X52439200Y-13168509D01*
X52439200Y-20920190D01*
X52430555Y-20949630D01*
X52424032Y-20979617D01*
X52420277Y-20984632D01*
X52419515Y-20987229D01*
X52402881Y-21007871D01*
X52299971Y-21110781D01*
X52238648Y-21144266D01*
X52212290Y-21147100D01*
X52150829Y-21147100D01*
X52025161Y-21172097D01*
X52025155Y-21172099D01*
X51906775Y-21221133D01*
X51906766Y-21221138D01*
X51800231Y-21292323D01*
X51800227Y-21292326D01*
X51709626Y-21382927D01*
X51709623Y-21382931D01*
X51638438Y-21489466D01*
X51638433Y-21489475D01*
X51589399Y-21607855D01*
X51589397Y-21607861D01*
X51564400Y-21733528D01*
X51564400Y-21733531D01*
X51564400Y-21861669D01*
X51564400Y-21861671D01*
X51564399Y-21861671D01*
X51589397Y-21987338D01*
X51589399Y-21987344D01*
X51638433Y-22105724D01*
X51638438Y-22105733D01*
X51709623Y-22212268D01*
X51709626Y-22212272D01*
X51753080Y-22255725D01*
X51786566Y-22317048D01*
X51789400Y-22343407D01*
X51789400Y-45078882D01*
X51789400Y-45190918D01*
X51818397Y-45299137D01*
X51874415Y-45396163D01*
X51874417Y-45396165D01*
X54123216Y-47644964D01*
X54156701Y-47706287D01*
X54151717Y-47775979D01*
X54146020Y-47788939D01*
X54096761Y-47885615D01*
X54096757Y-47885624D01*
X54018911Y-48125214D01*
X53979501Y-48374038D01*
X53979501Y-48625961D01*
X54018911Y-48874785D01*
X54096757Y-49114375D01*
X54096758Y-49114378D01*
X54211133Y-49338847D01*
X54359202Y-49542648D01*
X54359206Y-49542653D01*
X54537346Y-49720793D01*
X54537351Y-49720797D01*
X54660395Y-49810193D01*
X54741156Y-49868869D01*
X54858345Y-49928580D01*
X54965621Y-49983241D01*
X54965624Y-49983242D01*
X55085419Y-50022165D01*
X55205216Y-50061089D01*
X55454038Y-50100499D01*
X55454039Y-50100499D01*
X55705961Y-50100499D01*
X55705962Y-50100499D01*
X55954784Y-50061089D01*
X56194378Y-49983241D01*
X56418844Y-49868869D01*
X56622655Y-49720792D01*
X56800792Y-49542655D01*
X56948869Y-49338844D01*
X57063241Y-49114378D01*
X57141089Y-48874784D01*
X57180499Y-48625962D01*
X57180499Y-48374038D01*
X57141089Y-48125216D01*
X57063241Y-47885622D01*
X57063241Y-47885621D01*
X57013978Y-47788938D01*
X56948869Y-47661156D01*
X56929951Y-47635118D01*
X56800797Y-47457351D01*
X56800793Y-47457346D01*
X56622653Y-47279206D01*
X56622648Y-47279202D01*
X56418847Y-47131133D01*
X56418846Y-47131132D01*
X56418844Y-47131131D01*
X56310868Y-47076114D01*
X56194378Y-47016758D01*
X56194375Y-47016757D01*
X55954785Y-46938911D01*
X55830373Y-46919206D01*
X55705962Y-46899501D01*
X55454038Y-46899501D01*
X55371097Y-46912637D01*
X55205214Y-46938911D01*
X54965624Y-47016757D01*
X54965615Y-47016761D01*
X54868939Y-47066020D01*
X54800270Y-47078916D01*
X54735530Y-47052639D01*
X54724964Y-47043216D01*
X52676719Y-44994971D01*
X52643234Y-44933648D01*
X52640400Y-44907290D01*
X52640400Y-22583782D01*
X52961000Y-22583782D01*
X52961000Y-41170482D01*
X52961000Y-41282518D01*
X52989997Y-41390737D01*
X53046015Y-41487763D01*
X56143380Y-44585128D01*
X59203216Y-47644963D01*
X59236701Y-47706286D01*
X59231717Y-47775978D01*
X59226020Y-47788938D01*
X59176761Y-47885615D01*
X59176757Y-47885624D01*
X59098911Y-48125214D01*
X59059501Y-48374038D01*
X59059501Y-48625961D01*
X59098911Y-48874785D01*
X59176757Y-49114375D01*
X59176758Y-49114378D01*
X59291133Y-49338847D01*
X59439202Y-49542648D01*
X59439206Y-49542653D01*
X59617346Y-49720793D01*
X59617351Y-49720797D01*
X59740395Y-49810193D01*
X59821156Y-49868869D01*
X59938345Y-49928580D01*
X60045621Y-49983241D01*
X60045624Y-49983242D01*
X60165419Y-50022165D01*
X60285216Y-50061089D01*
X60534038Y-50100499D01*
X60534039Y-50100499D01*
X60785961Y-50100499D01*
X60785962Y-50100499D01*
X61034784Y-50061089D01*
X61274378Y-49983241D01*
X61498844Y-49868869D01*
X61702655Y-49720792D01*
X61880792Y-49542655D01*
X62028869Y-49338844D01*
X62143241Y-49114378D01*
X62221089Y-48874784D01*
X62260499Y-48625962D01*
X62260499Y-48374038D01*
X62221089Y-48125216D01*
X62143241Y-47885622D01*
X62143241Y-47885621D01*
X62093978Y-47788938D01*
X62028869Y-47661156D01*
X62009951Y-47635118D01*
X61880797Y-47457351D01*
X61880793Y-47457346D01*
X61702653Y-47279206D01*
X61702648Y-47279202D01*
X61498847Y-47131133D01*
X61498846Y-47131132D01*
X61498844Y-47131131D01*
X61390868Y-47076114D01*
X61274378Y-47016758D01*
X61274375Y-47016757D01*
X61034785Y-46938911D01*
X60910373Y-46919206D01*
X60785962Y-46899501D01*
X60534038Y-46899501D01*
X60451097Y-46912637D01*
X60285214Y-46938911D01*
X60045624Y-47016757D01*
X60045615Y-47016761D01*
X59948938Y-47066020D01*
X59880268Y-47078916D01*
X59815528Y-47052639D01*
X59804963Y-47043216D01*
X53848319Y-41086571D01*
X53814834Y-41025248D01*
X53812000Y-40998890D01*
X53812000Y-36165095D01*
X56245599Y-36165095D01*
X56272518Y-36300422D01*
X56272521Y-36300432D01*
X56325321Y-36427904D01*
X56325328Y-36427917D01*
X56401985Y-36542641D01*
X56401988Y-36542645D01*
X56499554Y-36640211D01*
X56499558Y-36640214D01*
X56614282Y-36716871D01*
X56614295Y-36716878D01*
X56741767Y-36769678D01*
X56741772Y-36769680D01*
X56741776Y-36769680D01*
X56741777Y-36769681D01*
X56877104Y-36796600D01*
X56877107Y-36796600D01*
X57015095Y-36796600D01*
X57122712Y-36775193D01*
X57150428Y-36769680D01*
X57277911Y-36716875D01*
X57392642Y-36640214D01*
X57392645Y-36640211D01*
X57399938Y-36632919D01*
X57461261Y-36599434D01*
X57487619Y-36596600D01*
X61539224Y-36596600D01*
X61606263Y-36616285D01*
X61626905Y-36632919D01*
X62051805Y-37057819D01*
X62085290Y-37119142D01*
X62080306Y-37188834D01*
X62038434Y-37244767D01*
X61972970Y-37269184D01*
X61964124Y-37269500D01*
X61848929Y-37269500D01*
X61723261Y-37294497D01*
X61723255Y-37294499D01*
X61604875Y-37343533D01*
X61604866Y-37343538D01*
X61498331Y-37414723D01*
X61498327Y-37414726D01*
X61407726Y-37505327D01*
X61407723Y-37505331D01*
X61336538Y-37611866D01*
X61336533Y-37611875D01*
X61287499Y-37730255D01*
X61287497Y-37730261D01*
X61262500Y-37855928D01*
X61262500Y-37855931D01*
X61262500Y-37984069D01*
X61262500Y-37984071D01*
X61262499Y-37984071D01*
X61287497Y-38109738D01*
X61287499Y-38109744D01*
X61336533Y-38228124D01*
X61336538Y-38228133D01*
X61407723Y-38334668D01*
X61407726Y-38334672D01*
X61451180Y-38378125D01*
X61484666Y-38439448D01*
X61487500Y-38465807D01*
X61487500Y-39552482D01*
X61487500Y-39664518D01*
X61516497Y-39772737D01*
X61572515Y-39869763D01*
X61572517Y-39869765D01*
X64813181Y-43110429D01*
X64846666Y-43171752D01*
X64849500Y-43198110D01*
X64849500Y-43259569D01*
X64849500Y-43259571D01*
X64849499Y-43259571D01*
X64874497Y-43385238D01*
X64874499Y-43385244D01*
X64923533Y-43503624D01*
X64923538Y-43503633D01*
X64994723Y-43610168D01*
X64994726Y-43610172D01*
X65085327Y-43700773D01*
X65085331Y-43700776D01*
X65191866Y-43771961D01*
X65191872Y-43771964D01*
X65191873Y-43771965D01*
X65310256Y-43821001D01*
X65310260Y-43821001D01*
X65310261Y-43821002D01*
X65435928Y-43846000D01*
X65435931Y-43846000D01*
X65564071Y-43846000D01*
X65648615Y-43829182D01*
X65689744Y-43821001D01*
X65808127Y-43771965D01*
X65914669Y-43700776D01*
X66005276Y-43610169D01*
X66076465Y-43503627D01*
X66125501Y-43385244D01*
X66150500Y-43259569D01*
X66150500Y-43131431D01*
X66150500Y-43131428D01*
X66125502Y-43005761D01*
X66125501Y-43005760D01*
X66125501Y-43005756D01*
X66076465Y-42887373D01*
X66076464Y-42887372D01*
X66076461Y-42887366D01*
X66005276Y-42780831D01*
X66005273Y-42780827D01*
X65914672Y-42690226D01*
X65914668Y-42690223D01*
X65808133Y-42619038D01*
X65808124Y-42619033D01*
X65689744Y-42569999D01*
X65689738Y-42569997D01*
X65564071Y-42545000D01*
X65564069Y-42545000D01*
X65502610Y-42545000D01*
X65435571Y-42525315D01*
X65414929Y-42508681D01*
X62374819Y-39468571D01*
X62341334Y-39407248D01*
X62338500Y-39380890D01*
X62338500Y-38465807D01*
X62358185Y-38398768D01*
X62374820Y-38378125D01*
X62418273Y-38334672D01*
X62418276Y-38334669D01*
X62489465Y-38228127D01*
X62538501Y-38109744D01*
X62547587Y-38064069D01*
X62563500Y-37984071D01*
X62563500Y-37868875D01*
X62583185Y-37801836D01*
X62635989Y-37756081D01*
X62705147Y-37746137D01*
X62768703Y-37775162D01*
X62775181Y-37781194D01*
X63023024Y-38029037D01*
X63056509Y-38090360D01*
X63056960Y-38092526D01*
X63076297Y-38189738D01*
X63076299Y-38189744D01*
X63125333Y-38308124D01*
X63125338Y-38308133D01*
X63196523Y-38414668D01*
X63196526Y-38414672D01*
X63287127Y-38505273D01*
X63287131Y-38505276D01*
X63393666Y-38576461D01*
X63393672Y-38576464D01*
X63393673Y-38576465D01*
X63512056Y-38625501D01*
X63512060Y-38625501D01*
X63512061Y-38625502D01*
X63637728Y-38650500D01*
X63637731Y-38650500D01*
X63765871Y-38650500D01*
X63850415Y-38633682D01*
X63891544Y-38625501D01*
X64009927Y-38576465D01*
X64116469Y-38505276D01*
X64207076Y-38414669D01*
X64278265Y-38308127D01*
X64327301Y-38189744D01*
X64335482Y-38148615D01*
X64352300Y-38064071D01*
X64352300Y-37935928D01*
X64327302Y-37810261D01*
X64327301Y-37810260D01*
X64327301Y-37810256D01*
X64278265Y-37691873D01*
X64278264Y-37691872D01*
X64278261Y-37691866D01*
X64207076Y-37585331D01*
X64207073Y-37585327D01*
X64116472Y-37494726D01*
X64116468Y-37494723D01*
X64009933Y-37423538D01*
X64009924Y-37423533D01*
X63891544Y-37374499D01*
X63891538Y-37374497D01*
X63794326Y-37355160D01*
X63732415Y-37322775D01*
X63730837Y-37321224D01*
X62920523Y-36510910D01*
X62105214Y-35695600D01*
X62048150Y-35662654D01*
X61991087Y-35629708D01*
X61927439Y-35612654D01*
X61863792Y-35595600D01*
X61863791Y-35595600D01*
X57487619Y-35595600D01*
X57420580Y-35575915D01*
X57399938Y-35559281D01*
X57392645Y-35551988D01*
X57392641Y-35551985D01*
X57277917Y-35475328D01*
X57277904Y-35475321D01*
X57150432Y-35422521D01*
X57150422Y-35422518D01*
X57015095Y-35395600D01*
X57015093Y-35395600D01*
X56877107Y-35395600D01*
X56877105Y-35395600D01*
X56741777Y-35422518D01*
X56741767Y-35422521D01*
X56614295Y-35475321D01*
X56614282Y-35475328D01*
X56499558Y-35551985D01*
X56499554Y-35551988D01*
X56401988Y-35649554D01*
X56401985Y-35649558D01*
X56325328Y-35764282D01*
X56325321Y-35764295D01*
X56272521Y-35891767D01*
X56272518Y-35891777D01*
X56245600Y-36027104D01*
X56245600Y-36027107D01*
X56245600Y-36165093D01*
X56245600Y-36165095D01*
X56245599Y-36165095D01*
X53812000Y-36165095D01*
X53812000Y-27175258D01*
X64914500Y-27175258D01*
X64914500Y-27404741D01*
X64929891Y-27521639D01*
X64944452Y-27632238D01*
X64996561Y-27826714D01*
X65003842Y-27853887D01*
X65091650Y-28065876D01*
X65091657Y-28065890D01*
X65146581Y-28161022D01*
X65202257Y-28257456D01*
X65206392Y-28264617D01*
X65346081Y-28446661D01*
X65346089Y-28446670D01*
X65508330Y-28608911D01*
X65508338Y-28608918D01*
X65508339Y-28608919D01*
X65557030Y-28646281D01*
X65690382Y-28748607D01*
X65690385Y-28748608D01*
X65690388Y-28748611D01*
X65889112Y-28863344D01*
X65889117Y-28863346D01*
X65889123Y-28863349D01*
X65980480Y-28901190D01*
X66101113Y-28951158D01*
X66322762Y-29010548D01*
X66550266Y-29040500D01*
X66550273Y-29040500D01*
X66779727Y-29040500D01*
X66779734Y-29040500D01*
X67007238Y-29010548D01*
X67228887Y-28951158D01*
X67440888Y-28863344D01*
X67639612Y-28748611D01*
X67821661Y-28608919D01*
X67821665Y-28608914D01*
X67821670Y-28608911D01*
X67983911Y-28446670D01*
X67983914Y-28446665D01*
X67983919Y-28446661D01*
X68123611Y-28264612D01*
X68238344Y-28065888D01*
X68326158Y-27853887D01*
X68385548Y-27632238D01*
X68415500Y-27404734D01*
X68415500Y-27175266D01*
X68385548Y-26947762D01*
X68326158Y-26726113D01*
X68238344Y-26514112D01*
X68123611Y-26315388D01*
X68123608Y-26315385D01*
X68123607Y-26315382D01*
X67983918Y-26133338D01*
X67983911Y-26133330D01*
X67821670Y-25971089D01*
X67821661Y-25971081D01*
X67639617Y-25831392D01*
X67440890Y-25716657D01*
X67440876Y-25716650D01*
X67228887Y-25628842D01*
X67155189Y-25609095D01*
X67007238Y-25569452D01*
X66969215Y-25564446D01*
X66779741Y-25539500D01*
X66779734Y-25539500D01*
X66550266Y-25539500D01*
X66550258Y-25539500D01*
X66333715Y-25568009D01*
X66322762Y-25569452D01*
X66229076Y-25594554D01*
X66101112Y-25628842D01*
X65889123Y-25716650D01*
X65889109Y-25716657D01*
X65690382Y-25831392D01*
X65508338Y-25971081D01*
X65346081Y-26133338D01*
X65206392Y-26315382D01*
X65091657Y-26514109D01*
X65091650Y-26514123D01*
X65003842Y-26726112D01*
X64944453Y-26947759D01*
X64944451Y-26947770D01*
X64914500Y-27175258D01*
X53812000Y-27175258D01*
X53812000Y-22867410D01*
X53831685Y-22800371D01*
X53848319Y-22779729D01*
X54675429Y-21952619D01*
X54736752Y-21919134D01*
X54763110Y-21916300D01*
X54824571Y-21916300D01*
X54909115Y-21899482D01*
X54950244Y-21891301D01*
X55068627Y-21842265D01*
X55175169Y-21771076D01*
X55265776Y-21680469D01*
X55336965Y-21573927D01*
X55386001Y-21455544D01*
X55400446Y-21382927D01*
X55411000Y-21329871D01*
X55411000Y-21201728D01*
X55386002Y-21076061D01*
X55386001Y-21076060D01*
X55386001Y-21076056D01*
X55345068Y-20977235D01*
X55336966Y-20957675D01*
X55336961Y-20957666D01*
X55265776Y-20851131D01*
X55265773Y-20851127D01*
X55175172Y-20760526D01*
X55175168Y-20760523D01*
X55068633Y-20689338D01*
X55068624Y-20689333D01*
X54950244Y-20640299D01*
X54950238Y-20640297D01*
X54824571Y-20615300D01*
X54824569Y-20615300D01*
X54696431Y-20615300D01*
X54696429Y-20615300D01*
X54570761Y-20640297D01*
X54570755Y-20640299D01*
X54452375Y-20689333D01*
X54452366Y-20689338D01*
X54345831Y-20760523D01*
X54345827Y-20760526D01*
X54255226Y-20851127D01*
X54255223Y-20851131D01*
X54184038Y-20957666D01*
X54184033Y-20957675D01*
X54134999Y-21076055D01*
X54134997Y-21076061D01*
X54110000Y-21201728D01*
X54110000Y-21263190D01*
X54090315Y-21330229D01*
X54073681Y-21350871D01*
X53046017Y-22378534D01*
X53046013Y-22378540D01*
X52989998Y-22475560D01*
X52989997Y-22475563D01*
X52961000Y-22583782D01*
X52640400Y-22583782D01*
X52640400Y-22343407D01*
X52660085Y-22276368D01*
X52676720Y-22255725D01*
X52720173Y-22212272D01*
X52720176Y-22212269D01*
X52791365Y-22105727D01*
X52840401Y-21987344D01*
X52854533Y-21916300D01*
X52865400Y-21861671D01*
X52865400Y-21800210D01*
X52885085Y-21733171D01*
X52901719Y-21712529D01*
X53040324Y-21573924D01*
X53205185Y-21409063D01*
X53261203Y-21312037D01*
X53290200Y-21203818D01*
X53290200Y-21091782D01*
X53290200Y-16362358D01*
X60750000Y-16362358D01*
X60750000Y-16637641D01*
X60785930Y-16910565D01*
X60857180Y-17176471D01*
X60962520Y-17430787D01*
X60962527Y-17430802D01*
X61100166Y-17669200D01*
X61229459Y-17837697D01*
X62159941Y-16907216D01*
X62228599Y-17009970D01*
X62340030Y-17121401D01*
X62442783Y-17190058D01*
X61512301Y-18120539D01*
X61680803Y-18249836D01*
X61919197Y-18387472D01*
X61919212Y-18387479D01*
X62141581Y-18479586D01*
X62195985Y-18523426D01*
X62218050Y-18589720D01*
X62200771Y-18657420D01*
X62149634Y-18705031D01*
X62141583Y-18708708D01*
X62074113Y-18736655D01*
X62074109Y-18736657D01*
X61875382Y-18851392D01*
X61693338Y-18991081D01*
X61531081Y-19153338D01*
X61391392Y-19335382D01*
X61276657Y-19534109D01*
X61276650Y-19534123D01*
X61188842Y-19746112D01*
X61188842Y-19746113D01*
X61129452Y-19967762D01*
X61129429Y-19967935D01*
X61099500Y-20195258D01*
X61099500Y-20424741D01*
X61108291Y-20491510D01*
X61129452Y-20652238D01*
X61179305Y-20838294D01*
X61188842Y-20873887D01*
X61276650Y-21085876D01*
X61276657Y-21085890D01*
X61310360Y-21144266D01*
X61354739Y-21221133D01*
X61391392Y-21284617D01*
X61531081Y-21466661D01*
X61531089Y-21466670D01*
X61693330Y-21628911D01*
X61693338Y-21628918D01*
X61875382Y-21768607D01*
X61875385Y-21768608D01*
X61875388Y-21768611D01*
X62074112Y-21883344D01*
X62074117Y-21883346D01*
X62074123Y-21883349D01*
X62160516Y-21919134D01*
X62284127Y-21970335D01*
X62338531Y-22014176D01*
X62360596Y-22080470D01*
X62343317Y-22148169D01*
X62292180Y-22195780D01*
X62268769Y-22204670D01*
X62205581Y-22221602D01*
X62205579Y-22221602D01*
X62205578Y-22221603D01*
X62205571Y-22221605D01*
X61963309Y-22321953D01*
X61963299Y-22321958D01*
X61736196Y-22453075D01*
X61528148Y-22612718D01*
X61342718Y-22798148D01*
X61183075Y-23006196D01*
X61051958Y-23233299D01*
X61051953Y-23233309D01*
X60951605Y-23475571D01*
X60951602Y-23475581D01*
X60883730Y-23728884D01*
X60879926Y-23757772D01*
X60849500Y-23988872D01*
X60849500Y-24251127D01*
X60872578Y-24426412D01*
X60883730Y-24511116D01*
X60951602Y-24764418D01*
X60951605Y-24764428D01*
X61051953Y-25006690D01*
X61051958Y-25006700D01*
X61183075Y-25233803D01*
X61342718Y-25441851D01*
X61342726Y-25441860D01*
X61528140Y-25627274D01*
X61528148Y-25627281D01*
X61736196Y-25786924D01*
X61963299Y-25918041D01*
X61963309Y-25918046D01*
X62137843Y-25990340D01*
X62205581Y-26018398D01*
X62458884Y-26086270D01*
X62718880Y-26120500D01*
X62718887Y-26120500D01*
X62981113Y-26120500D01*
X62981120Y-26120500D01*
X63241116Y-26086270D01*
X63494419Y-26018398D01*
X63683357Y-25940137D01*
X63736690Y-25918046D01*
X63736691Y-25918045D01*
X63736697Y-25918043D01*
X63963803Y-25786924D01*
X64171851Y-25627282D01*
X64171855Y-25627277D01*
X64171860Y-25627274D01*
X64357274Y-25441860D01*
X64357277Y-25441855D01*
X64357282Y-25441851D01*
X64516924Y-25233803D01*
X64648043Y-25006697D01*
X64748398Y-24764419D01*
X64816270Y-24511116D01*
X64850500Y-24251120D01*
X64850500Y-24016530D01*
X70059500Y-24016530D01*
X70059500Y-24223469D01*
X70099868Y-24426412D01*
X70099870Y-24426420D01*
X70169176Y-24593740D01*
X70179059Y-24617598D01*
X70236541Y-24703626D01*
X70294024Y-24789657D01*
X70440342Y-24935975D01*
X70440345Y-24935977D01*
X70612402Y-25050941D01*
X70803580Y-25130130D01*
X71006530Y-25170499D01*
X71006534Y-25170500D01*
X71006535Y-25170500D01*
X71213466Y-25170500D01*
X71213467Y-25170499D01*
X71416420Y-25130130D01*
X71607598Y-25050941D01*
X71779655Y-24935977D01*
X71925977Y-24789655D01*
X72040941Y-24617598D01*
X72120130Y-24426420D01*
X72160500Y-24223465D01*
X72160500Y-24016535D01*
X72120130Y-23813580D01*
X72040941Y-23622402D01*
X71925977Y-23450345D01*
X71925975Y-23450342D01*
X71779657Y-23304024D01*
X71626373Y-23201604D01*
X71607598Y-23189059D01*
X71581599Y-23178290D01*
X71416420Y-23109870D01*
X71416412Y-23109868D01*
X71213469Y-23069500D01*
X71213465Y-23069500D01*
X71006535Y-23069500D01*
X71006530Y-23069500D01*
X70803587Y-23109868D01*
X70803579Y-23109870D01*
X70612403Y-23189058D01*
X70440342Y-23304024D01*
X70294024Y-23450342D01*
X70179058Y-23622403D01*
X70099870Y-23813579D01*
X70099868Y-23813587D01*
X70059500Y-24016530D01*
X64850500Y-24016530D01*
X64850500Y-23988880D01*
X64816270Y-23728884D01*
X64748398Y-23475581D01*
X64727841Y-23425952D01*
X64648046Y-23233309D01*
X64648041Y-23233299D01*
X64516924Y-23006196D01*
X64357281Y-22798148D01*
X64357274Y-22798140D01*
X64171860Y-22612726D01*
X64171851Y-22612718D01*
X63963803Y-22453075D01*
X63736700Y-22321958D01*
X63736690Y-22321953D01*
X63494428Y-22221605D01*
X63494421Y-22221603D01*
X63494422Y-22221603D01*
X63494419Y-22221602D01*
X63431228Y-22204670D01*
X63371570Y-22168306D01*
X63341041Y-22105459D01*
X63349336Y-22036083D01*
X63393821Y-21982205D01*
X63415865Y-21970338D01*
X63625888Y-21883344D01*
X63824612Y-21768611D01*
X64006661Y-21628919D01*
X64006665Y-21628914D01*
X64006670Y-21628911D01*
X64168911Y-21466670D01*
X64168914Y-21466665D01*
X64168919Y-21466661D01*
X64308611Y-21284612D01*
X64423344Y-21085888D01*
X64511158Y-20873887D01*
X64570548Y-20652238D01*
X64600500Y-20424734D01*
X64600500Y-20195266D01*
X64600499Y-20195258D01*
X64914500Y-20195258D01*
X64914500Y-20424741D01*
X64923291Y-20491510D01*
X64944452Y-20652238D01*
X64994305Y-20838294D01*
X65003842Y-20873887D01*
X65091650Y-21085876D01*
X65091657Y-21085890D01*
X65125360Y-21144266D01*
X65169739Y-21221133D01*
X65206392Y-21284617D01*
X65346081Y-21466661D01*
X65346089Y-21466670D01*
X65508330Y-21628911D01*
X65508338Y-21628918D01*
X65690382Y-21768607D01*
X65690385Y-21768608D01*
X65690388Y-21768611D01*
X65889112Y-21883344D01*
X65889117Y-21883346D01*
X65889123Y-21883349D01*
X65975516Y-21919134D01*
X66101113Y-21971158D01*
X66322762Y-22030548D01*
X66550266Y-22060500D01*
X66550273Y-22060500D01*
X66779727Y-22060500D01*
X66779734Y-22060500D01*
X67007238Y-22030548D01*
X67228887Y-21971158D01*
X67440888Y-21883344D01*
X67639612Y-21768611D01*
X67821661Y-21628919D01*
X67821665Y-21628914D01*
X67821670Y-21628911D01*
X67983911Y-21466670D01*
X67983914Y-21466665D01*
X67983919Y-21466661D01*
X68123611Y-21284612D01*
X68238344Y-21085888D01*
X68326158Y-20873887D01*
X68385548Y-20652238D01*
X68415500Y-20424734D01*
X68415500Y-20195266D01*
X68385548Y-19967762D01*
X68326158Y-19746113D01*
X68268460Y-19606819D01*
X68238349Y-19534123D01*
X68238346Y-19534117D01*
X68238344Y-19534112D01*
X68123611Y-19335388D01*
X68123608Y-19335385D01*
X68123607Y-19335382D01*
X67983918Y-19153338D01*
X67983911Y-19153330D01*
X67821670Y-18991089D01*
X67821661Y-18991081D01*
X67639617Y-18851392D01*
X67636563Y-18849629D01*
X67555620Y-18802896D01*
X67440890Y-18736657D01*
X67440876Y-18736650D01*
X67228887Y-18648842D01*
X67177317Y-18635024D01*
X67007238Y-18589452D01*
X66969215Y-18584446D01*
X66779741Y-18559500D01*
X66779734Y-18559500D01*
X66550266Y-18559500D01*
X66550258Y-18559500D01*
X66333715Y-18588009D01*
X66322762Y-18589452D01*
X66239111Y-18611866D01*
X66101112Y-18648842D01*
X65889123Y-18736650D01*
X65889109Y-18736657D01*
X65690382Y-18851392D01*
X65508338Y-18991081D01*
X65346081Y-19153338D01*
X65206392Y-19335382D01*
X65091657Y-19534109D01*
X65091650Y-19534123D01*
X65003842Y-19746112D01*
X65003842Y-19746113D01*
X64944452Y-19967762D01*
X64944429Y-19967935D01*
X64914500Y-20195258D01*
X64600499Y-20195258D01*
X64570548Y-19967762D01*
X64511158Y-19746113D01*
X64453460Y-19606819D01*
X64423349Y-19534123D01*
X64423346Y-19534117D01*
X64423344Y-19534112D01*
X64308611Y-19335388D01*
X64308608Y-19335385D01*
X64308607Y-19335382D01*
X64168918Y-19153338D01*
X64168911Y-19153330D01*
X64006670Y-18991089D01*
X64006661Y-18991081D01*
X63824617Y-18851392D01*
X63821563Y-18849629D01*
X63740620Y-18802896D01*
X63625890Y-18736657D01*
X63625881Y-18736652D01*
X63558417Y-18708708D01*
X63504014Y-18664867D01*
X63481949Y-18598572D01*
X63499228Y-18530873D01*
X63550366Y-18483263D01*
X63558418Y-18479586D01*
X63780787Y-18387479D01*
X63780802Y-18387472D01*
X64019195Y-18249836D01*
X64187697Y-18120539D01*
X63257216Y-17190058D01*
X63359970Y-17121401D01*
X63471401Y-17009970D01*
X63540058Y-16907216D01*
X64470539Y-17837697D01*
X64599836Y-17669195D01*
X64737472Y-17430802D01*
X64737479Y-17430787D01*
X64842819Y-17176471D01*
X64914069Y-16910565D01*
X64950000Y-16637641D01*
X64950000Y-16396530D01*
X75139500Y-16396530D01*
X75139500Y-16603469D01*
X75179868Y-16806412D01*
X75179870Y-16806420D01*
X75223008Y-16910565D01*
X75259059Y-16997598D01*
X75304824Y-17066091D01*
X75374024Y-17169657D01*
X75520342Y-17315975D01*
X75520345Y-17315977D01*
X75692402Y-17430941D01*
X75883580Y-17510130D01*
X76086530Y-17550499D01*
X76086534Y-17550500D01*
X76086535Y-17550500D01*
X76293466Y-17550500D01*
X76293467Y-17550499D01*
X76496420Y-17510130D01*
X76687598Y-17430941D01*
X76859655Y-17315977D01*
X77005977Y-17169655D01*
X77120941Y-16997598D01*
X77200130Y-16806420D01*
X77240500Y-16603465D01*
X77240500Y-16396535D01*
X77200130Y-16193580D01*
X77120941Y-16002402D01*
X77005977Y-15830345D01*
X77005975Y-15830342D01*
X76859657Y-15684024D01*
X76713452Y-15586334D01*
X76687598Y-15569059D01*
X76496420Y-15489870D01*
X76496412Y-15489868D01*
X76293469Y-15449500D01*
X76293465Y-15449500D01*
X76086535Y-15449500D01*
X76086530Y-15449500D01*
X75883587Y-15489868D01*
X75883579Y-15489870D01*
X75692403Y-15569058D01*
X75520342Y-15684024D01*
X75374024Y-15830342D01*
X75259058Y-16002403D01*
X75179870Y-16193579D01*
X75179868Y-16193587D01*
X75139500Y-16396530D01*
X64950000Y-16396530D01*
X64950000Y-16362358D01*
X64914069Y-16089434D01*
X64842819Y-15823528D01*
X64737479Y-15569212D01*
X64737472Y-15569197D01*
X64599836Y-15330803D01*
X64470539Y-15162301D01*
X63540058Y-16092782D01*
X63471401Y-15990030D01*
X63359970Y-15878599D01*
X63257216Y-15809941D01*
X64187697Y-14879459D01*
X64187697Y-14879458D01*
X64019200Y-14750166D01*
X63780802Y-14612527D01*
X63780787Y-14612520D01*
X63526471Y-14507180D01*
X63260565Y-14435930D01*
X62987642Y-14400000D01*
X62712358Y-14400000D01*
X62439434Y-14435930D01*
X62173528Y-14507180D01*
X61919212Y-14612520D01*
X61919197Y-14612527D01*
X61680799Y-14750166D01*
X61512301Y-14879458D01*
X61512301Y-14879459D01*
X62442783Y-15809941D01*
X62340030Y-15878599D01*
X62228599Y-15990030D01*
X62159941Y-16092783D01*
X61229459Y-15162301D01*
X61229458Y-15162301D01*
X61100166Y-15330799D01*
X60962527Y-15569197D01*
X60962520Y-15569212D01*
X60857180Y-15823528D01*
X60785930Y-16089434D01*
X60750000Y-16362358D01*
X53290200Y-16362358D01*
X53290200Y-12884882D01*
X53278763Y-12842200D01*
X53261203Y-12776663D01*
X53251273Y-12759464D01*
X53205185Y-12679637D01*
X53125963Y-12600415D01*
X53121632Y-12596084D01*
X53121621Y-12596074D01*
X52555619Y-12030071D01*
X52543259Y-12007436D01*
X52530506Y-11992718D01*
X52528607Y-11983992D01*
X52524323Y-11977325D01*
X52523431Y-11971124D01*
X52522134Y-11968748D01*
X52519608Y-11945258D01*
X71269500Y-11945258D01*
X71269500Y-12174741D01*
X71293164Y-12354475D01*
X71299452Y-12402238D01*
X71344538Y-12570502D01*
X71358842Y-12623887D01*
X71446650Y-12835876D01*
X71446657Y-12835890D01*
X71503700Y-12934691D01*
X71559145Y-13030726D01*
X71561392Y-13034617D01*
X71701081Y-13216661D01*
X71701089Y-13216670D01*
X71863330Y-13378911D01*
X71863338Y-13378918D01*
X72045382Y-13518607D01*
X72045385Y-13518608D01*
X72045388Y-13518611D01*
X72244112Y-13633344D01*
X72244117Y-13633346D01*
X72244123Y-13633349D01*
X72335480Y-13671190D01*
X72456113Y-13721158D01*
X72677762Y-13780548D01*
X72905266Y-13810500D01*
X72905273Y-13810500D01*
X73134727Y-13810500D01*
X73134734Y-13810500D01*
X73362238Y-13780548D01*
X73583887Y-13721158D01*
X73795888Y-13633344D01*
X73994612Y-13518611D01*
X74176661Y-13378919D01*
X74176665Y-13378914D01*
X74176670Y-13378911D01*
X74338911Y-13216670D01*
X74338914Y-13216665D01*
X74338919Y-13216661D01*
X74478611Y-13034612D01*
X74593344Y-12835888D01*
X74681158Y-12623887D01*
X74740548Y-12402238D01*
X74770500Y-12174734D01*
X74770500Y-11945266D01*
X74740548Y-11717762D01*
X74681158Y-11496113D01*
X74617270Y-11341875D01*
X74593349Y-11284123D01*
X74593346Y-11284117D01*
X74593344Y-11284112D01*
X74478611Y-11085388D01*
X74478608Y-11085385D01*
X74478607Y-11085382D01*
X74375062Y-10950441D01*
X74338919Y-10903339D01*
X74338918Y-10903338D01*
X74338911Y-10903330D01*
X74176670Y-10741089D01*
X74176661Y-10741081D01*
X73994617Y-10601392D01*
X73795890Y-10486657D01*
X73795876Y-10486650D01*
X73583887Y-10398842D01*
X73362238Y-10339452D01*
X73324215Y-10334446D01*
X73134741Y-10309500D01*
X73134734Y-10309500D01*
X72905266Y-10309500D01*
X72905258Y-10309500D01*
X72688715Y-10338009D01*
X72677762Y-10339452D01*
X72584076Y-10364554D01*
X72456112Y-10398842D01*
X72244123Y-10486650D01*
X72244109Y-10486657D01*
X72045382Y-10601392D01*
X71863338Y-10741081D01*
X71701081Y-10903338D01*
X71561392Y-11085382D01*
X71446657Y-11284109D01*
X71446650Y-11284123D01*
X71358842Y-11496112D01*
X71299453Y-11717759D01*
X71299451Y-11717770D01*
X71269500Y-11945258D01*
X52519608Y-11945258D01*
X52519300Y-11942390D01*
X52519300Y-11880928D01*
X52494302Y-11755261D01*
X52494301Y-11755260D01*
X52494301Y-11755256D01*
X52445265Y-11636873D01*
X52445264Y-11636872D01*
X52445261Y-11636866D01*
X52374076Y-11530331D01*
X52374073Y-11530327D01*
X52283472Y-11439726D01*
X52283468Y-11439723D01*
X52176933Y-11368538D01*
X52176924Y-11368533D01*
X52058544Y-11319499D01*
X52058538Y-11319497D01*
X51932871Y-11294500D01*
X51932869Y-11294500D01*
X51804731Y-11294500D01*
X51804729Y-11294500D01*
X51679061Y-11319497D01*
X51679055Y-11319499D01*
X51560675Y-11368533D01*
X51560666Y-11368538D01*
X51454131Y-11439723D01*
X51454127Y-11439726D01*
X51363526Y-11530327D01*
X51363523Y-11530331D01*
X51292338Y-11636866D01*
X51292333Y-11636875D01*
X51243299Y-11755255D01*
X51243297Y-11755261D01*
X51218300Y-11880928D01*
X51218300Y-11880931D01*
X51218300Y-12009069D01*
X51218300Y-12009071D01*
X51218299Y-12009071D01*
X49875100Y-12009071D01*
X49875100Y-9691018D01*
X49894785Y-9623979D01*
X49911423Y-9603333D01*
X49918714Y-9596042D01*
X49995375Y-9481311D01*
X50048180Y-9353828D01*
X50075100Y-9218493D01*
X50075100Y-9080507D01*
X50075100Y-9080504D01*
X50048181Y-8945177D01*
X50048180Y-8945176D01*
X50048180Y-8945172D01*
X50048178Y-8945167D01*
X49995378Y-8817695D01*
X49995371Y-8817682D01*
X49918714Y-8702958D01*
X49918711Y-8702954D01*
X49821145Y-8605388D01*
X49821141Y-8605385D01*
X49706417Y-8528728D01*
X49706404Y-8528721D01*
X49578932Y-8475921D01*
X49578922Y-8475918D01*
X49443595Y-8449000D01*
X49443593Y-8449000D01*
X49305607Y-8449000D01*
X49305605Y-8449000D01*
X49170277Y-8475918D01*
X49170267Y-8475921D01*
X49042795Y-8528721D01*
X49042782Y-8528728D01*
X48928058Y-8605385D01*
X48928054Y-8605388D01*
X48830488Y-8702954D01*
X48830485Y-8702958D01*
X48753828Y-8817682D01*
X48753821Y-8817695D01*
X48701021Y-8945167D01*
X48701018Y-8945177D01*
X48674100Y-9080504D01*
X48674100Y-9080507D01*
X48674100Y-9218493D01*
X48674100Y-9218495D01*
X48674099Y-9218495D01*
X48701018Y-9353822D01*
X48701021Y-9353832D01*
X48753821Y-9481304D01*
X48753828Y-9481317D01*
X48830485Y-9596041D01*
X48837777Y-9603333D01*
X48871265Y-9664655D01*
X48874100Y-9691018D01*
X48874100Y-18635024D01*
X48854415Y-18702063D01*
X48837781Y-18722705D01*
X47099502Y-20460983D01*
X47099500Y-20460986D01*
X47033608Y-20575112D01*
X46999500Y-20702408D01*
X46999500Y-20725500D01*
X46979815Y-20792539D01*
X46927011Y-20838294D01*
X46875500Y-20849500D01*
X46605143Y-20849500D01*
X46605117Y-20849502D01*
X46580012Y-20852413D01*
X46580008Y-20852415D01*
X46477235Y-20897793D01*
X46397794Y-20977234D01*
X46352415Y-21080006D01*
X46352415Y-21080008D01*
X46349500Y-21105131D01*
X46349500Y-22894856D01*
X46349502Y-22894882D01*
X46352413Y-22919987D01*
X46352415Y-22919991D01*
X46397793Y-23022764D01*
X46397794Y-23022765D01*
X46477235Y-23102206D01*
X46580009Y-23147585D01*
X46605135Y-23150500D01*
X46957191Y-23150499D01*
X47024228Y-23170183D01*
X47069983Y-23222987D01*
X47079927Y-23292146D01*
X47050902Y-23355701D01*
X47013484Y-23384984D01*
X46844855Y-23470905D01*
X46844846Y-23470911D01*
X46768919Y-23526075D01*
X46768918Y-23526076D01*
X47314823Y-24071980D01*
X47307007Y-24074075D01*
X47192993Y-24139901D01*
X47099901Y-24232993D01*
X47034075Y-24347007D01*
X47031980Y-24354822D01*
X46486076Y-23808918D01*
X46486075Y-23808919D01*
X46430911Y-23884846D01*
X46430905Y-23884855D01*
X46377285Y-23990091D01*
X46329310Y-24040887D01*
X46261489Y-24057682D01*
X46195354Y-24035145D01*
X46151903Y-23980429D01*
X46142800Y-23933796D01*
X46142800Y-23297384D01*
X46142800Y-23297382D01*
X46113803Y-23189163D01*
X46057785Y-23092137D01*
X45978563Y-23012915D01*
X45767419Y-22801771D01*
X45733934Y-22740448D01*
X45731100Y-22714090D01*
X45731100Y-16956310D01*
X45750785Y-16889271D01*
X45767419Y-16868629D01*
X47005367Y-15630681D01*
X48292185Y-14343863D01*
X48348203Y-14246837D01*
X48377200Y-14138618D01*
X48377200Y-14026581D01*
X48377200Y-12729282D01*
X48375224Y-12721909D01*
X48348203Y-12621063D01*
X48333444Y-12595500D01*
X48292185Y-12524037D01*
X48212963Y-12444815D01*
X48212962Y-12444814D01*
X48208632Y-12440484D01*
X48208621Y-12440474D01*
X41410619Y-5642471D01*
X41377134Y-5581148D01*
X41374300Y-5554790D01*
X41374300Y-5493328D01*
X41349302Y-5367661D01*
X41349301Y-5367660D01*
X41349301Y-5367656D01*
X41300265Y-5249273D01*
X41300264Y-5249272D01*
X41300261Y-5249266D01*
X41229076Y-5142731D01*
X41229073Y-5142727D01*
X41138472Y-5052126D01*
X41138468Y-5052123D01*
X41031933Y-4980938D01*
X41031924Y-4980933D01*
X40913544Y-4931899D01*
X40913538Y-4931897D01*
X40787871Y-4906900D01*
X40787869Y-4906900D01*
X40659731Y-4906900D01*
X40659729Y-4906900D01*
X40534061Y-4931897D01*
X40534055Y-4931899D01*
X40415675Y-4980933D01*
X40415666Y-4980938D01*
X40309131Y-5052123D01*
X40309127Y-5052126D01*
X40218526Y-5142727D01*
X40218523Y-5142731D01*
X40147338Y-5249266D01*
X40147333Y-5249275D01*
X40098299Y-5367655D01*
X40098297Y-5367661D01*
X40073300Y-5493328D01*
X40073300Y-5493331D01*
X40073300Y-5621469D01*
X40073300Y-5621471D01*
X40073299Y-5621471D01*
X40098297Y-5747138D01*
X40098301Y-5747152D01*
X40098674Y-5748051D01*
X40098728Y-5748559D01*
X40100067Y-5752971D01*
X40099230Y-5753224D01*
X40106141Y-5817520D01*
X40074864Y-5879999D01*
X40014774Y-5915649D01*
X39984112Y-5919500D01*
X39968729Y-5919500D01*
X39843061Y-5944497D01*
X39843055Y-5944499D01*
X39724675Y-5993533D01*
X39724666Y-5993538D01*
X39618131Y-6064723D01*
X39618127Y-6064726D01*
X39527526Y-6155327D01*
X39527523Y-6155331D01*
X39456338Y-6261866D01*
X39456333Y-6261875D01*
X39407299Y-6380255D01*
X39407297Y-6380261D01*
X39382300Y-6505928D01*
X39382300Y-6505931D01*
X39382300Y-6634069D01*
X39382300Y-6634071D01*
X39382299Y-6634071D01*
X39407297Y-6759738D01*
X39407299Y-6759744D01*
X39456333Y-6878124D01*
X39456338Y-6878133D01*
X39527523Y-6984668D01*
X39527526Y-6984672D01*
X39618127Y-7075273D01*
X39618131Y-7075276D01*
X39724666Y-7146461D01*
X39724672Y-7146464D01*
X39724673Y-7146465D01*
X39843056Y-7195501D01*
X39843060Y-7195501D01*
X39843061Y-7195502D01*
X39968728Y-7220500D01*
X39968731Y-7220500D01*
X40096871Y-7220500D01*
X40181415Y-7203682D01*
X40222544Y-7195501D01*
X40340927Y-7146465D01*
X40447469Y-7075276D01*
X40490825Y-7031920D01*
X40552148Y-6998434D01*
X40578507Y-6995600D01*
X40898190Y-6995600D01*
X40965229Y-7015285D01*
X40985871Y-7031919D01*
X46500329Y-12546377D01*
X46533814Y-12607700D01*
X46528830Y-12677392D01*
X46486958Y-12733325D01*
X46481541Y-12737159D01*
X46443729Y-12762424D01*
X46353126Y-12853027D01*
X46353123Y-12853031D01*
X46281938Y-12959566D01*
X46279065Y-12964943D01*
X46276613Y-12963632D01*
X46240178Y-13008739D01*
X46173858Y-13030726D01*
X46169577Y-13030800D01*
X37998350Y-13030800D01*
X37986173Y-13027224D01*
X37973529Y-13028290D01*
X37953287Y-13017567D01*
X37931311Y-13011115D01*
X37923002Y-13001526D01*
X37911786Y-12995585D01*
X37900552Y-12975617D01*
X37885556Y-12958311D01*
X37882938Y-12944308D01*
X37877527Y-12934691D01*
X37877206Y-12913653D01*
X37874564Y-12899521D01*
X37875065Y-12890988D01*
X37880500Y-12863669D01*
X37880500Y-12798569D01*
X37880714Y-12794930D01*
X37891327Y-12765334D01*
X37900185Y-12735170D01*
X37903717Y-12730786D01*
X37904300Y-12729162D01*
X37906208Y-12727695D01*
X37916814Y-12714533D01*
X39570949Y-11060397D01*
X39632270Y-11026914D01*
X39701962Y-11031898D01*
X39727519Y-11044978D01*
X39761467Y-11067661D01*
X39761475Y-11067666D01*
X39788292Y-11078774D01*
X39879856Y-11116701D01*
X39879860Y-11116701D01*
X39879861Y-11116702D01*
X40005528Y-11141700D01*
X40005531Y-11141700D01*
X40133671Y-11141700D01*
X40226526Y-11123229D01*
X40259344Y-11116701D01*
X40377727Y-11067665D01*
X40484269Y-10996476D01*
X40574876Y-10905869D01*
X40646065Y-10799327D01*
X40695101Y-10680944D01*
X40716594Y-10572895D01*
X40720100Y-10555271D01*
X40720100Y-10427128D01*
X40695102Y-10301461D01*
X40695101Y-10301460D01*
X40695101Y-10301456D01*
X40657174Y-10209892D01*
X40646066Y-10183075D01*
X40646061Y-10183066D01*
X40574876Y-10076531D01*
X40574873Y-10076527D01*
X40484272Y-9985926D01*
X40484268Y-9985923D01*
X40377733Y-9914738D01*
X40377724Y-9914733D01*
X40259344Y-9865699D01*
X40259338Y-9865697D01*
X40133671Y-9840700D01*
X40133669Y-9840700D01*
X40005531Y-9840700D01*
X40005529Y-9840700D01*
X39879861Y-9865697D01*
X39879855Y-9865699D01*
X39761475Y-9914733D01*
X39761466Y-9914738D01*
X39654931Y-9985923D01*
X39654927Y-9985926D01*
X39611475Y-10029380D01*
X39550152Y-10062866D01*
X39523793Y-10065700D01*
X39482382Y-10065700D01*
X39374163Y-10094697D01*
X39374160Y-10094698D01*
X39277140Y-10150713D01*
X39277134Y-10150717D01*
X37315071Y-12112781D01*
X37253748Y-12146266D01*
X37227390Y-12149100D01*
X37165929Y-12149100D01*
X37040261Y-12174097D01*
X37040255Y-12174099D01*
X36921875Y-12223133D01*
X36921866Y-12223138D01*
X36815331Y-12294323D01*
X36815327Y-12294326D01*
X36724724Y-12384929D01*
X36696412Y-12427301D01*
X36642799Y-12472105D01*
X36573474Y-12480811D01*
X36510447Y-12450655D01*
X36478751Y-12405861D01*
X36457465Y-12354473D01*
X36457461Y-12354466D01*
X36386276Y-12247931D01*
X36386273Y-12247927D01*
X36295672Y-12157326D01*
X36295668Y-12157323D01*
X36189133Y-12086138D01*
X36189124Y-12086133D01*
X36070744Y-12037099D01*
X36070738Y-12037097D01*
X35945071Y-12012100D01*
X35945069Y-12012100D01*
X35816931Y-12012100D01*
X35816929Y-12012100D01*
X35691261Y-12037097D01*
X35691255Y-12037099D01*
X35572875Y-12086133D01*
X35572866Y-12086138D01*
X35466331Y-12157323D01*
X35466327Y-12157326D01*
X35375726Y-12247927D01*
X35375723Y-12247931D01*
X35304538Y-12354466D01*
X35304533Y-12354475D01*
X35255499Y-12472855D01*
X35255497Y-12472861D01*
X35230500Y-12598528D01*
X35230500Y-12598531D01*
X35230500Y-12726669D01*
X35230500Y-12726671D01*
X35230499Y-12726671D01*
X35255497Y-12852338D01*
X35255499Y-12852344D01*
X35304533Y-12970724D01*
X35304538Y-12970733D01*
X35375723Y-13077268D01*
X35375726Y-13077272D01*
X35466327Y-13167873D01*
X35466331Y-13167876D01*
X35572866Y-13239061D01*
X35572872Y-13239064D01*
X35572873Y-13239065D01*
X35691256Y-13288101D01*
X35691260Y-13288101D01*
X35691261Y-13288102D01*
X35816928Y-13313100D01*
X35816931Y-13313100D01*
X35878390Y-13313100D01*
X35945429Y-13332785D01*
X35966071Y-13349419D01*
X36249995Y-13633342D01*
X36334213Y-13717560D01*
X36334215Y-13717563D01*
X36413437Y-13796785D01*
X36495502Y-13844165D01*
X36510463Y-13852803D01*
X36618681Y-13881800D01*
X36618682Y-13881800D01*
X42676492Y-13881800D01*
X42743531Y-13901485D01*
X42789286Y-13954289D01*
X42799230Y-14023447D01*
X42770205Y-14087003D01*
X42764173Y-14093481D01*
X42669726Y-14187927D01*
X42669723Y-14187931D01*
X42598538Y-14294466D01*
X42598533Y-14294475D01*
X42549499Y-14412855D01*
X42549497Y-14412861D01*
X42524500Y-14538528D01*
X42524500Y-14599990D01*
X42504815Y-14667029D01*
X42488181Y-14687671D01*
X41976871Y-15198981D01*
X41915548Y-15232466D01*
X41889190Y-15235300D01*
X27175510Y-15235300D01*
X27108471Y-15215615D01*
X27087829Y-15198981D01*
X23623919Y-11735071D01*
X23590434Y-11673748D01*
X23587600Y-11647390D01*
X23587600Y-11585928D01*
X23562602Y-11460261D01*
X23562601Y-11460260D01*
X23562601Y-11460256D01*
X23513565Y-11341873D01*
X23513564Y-11341872D01*
X23513561Y-11341866D01*
X23442376Y-11235331D01*
X23442373Y-11235327D01*
X23351772Y-11144726D01*
X23351768Y-11144723D01*
X23245233Y-11073538D01*
X23245224Y-11073533D01*
X23126844Y-11024499D01*
X23126838Y-11024497D01*
X23001171Y-10999500D01*
X23001169Y-10999500D01*
X22873031Y-10999500D01*
X22817990Y-11010448D01*
X22748399Y-11004219D01*
X22693222Y-10961356D01*
X22669978Y-10895466D01*
X22669800Y-10888830D01*
X22669800Y-8570864D01*
X22689485Y-8503825D01*
X22742289Y-8458070D01*
X22746265Y-8456338D01*
X22842527Y-8416465D01*
X22949069Y-8345276D01*
X23039676Y-8254669D01*
X23110865Y-8148127D01*
X23159901Y-8029744D01*
X23184900Y-7904069D01*
X23184900Y-7775931D01*
X23184900Y-7775928D01*
X23159902Y-7650261D01*
X23159901Y-7650260D01*
X23159901Y-7650256D01*
X23110865Y-7531873D01*
X23110864Y-7531872D01*
X23110861Y-7531866D01*
X23039676Y-7425331D01*
X23039673Y-7425327D01*
X22949069Y-7334723D01*
X22908426Y-7307567D01*
X22863621Y-7253955D01*
X22854914Y-7184630D01*
X22885068Y-7121603D01*
X22908428Y-7101362D01*
X22947469Y-7075276D01*
X23038076Y-6984669D01*
X23109265Y-6878127D01*
X23158301Y-6759744D01*
X23170658Y-6697623D01*
X23183300Y-6634071D01*
X23183300Y-6505928D01*
X23158302Y-6380261D01*
X23158301Y-6380260D01*
X23158301Y-6380256D01*
X23109265Y-6261873D01*
X23109264Y-6261872D01*
X23109261Y-6261866D01*
X23038076Y-6155331D01*
X23038073Y-6155327D01*
X22947472Y-6064726D01*
X22947468Y-6064723D01*
X22840933Y-5993538D01*
X22840924Y-5993533D01*
X22722544Y-5944499D01*
X22722538Y-5944497D01*
X22596871Y-5919500D01*
X22596869Y-5919500D01*
X22468731Y-5919500D01*
X22468729Y-5919500D01*
X22343061Y-5944497D01*
X22343055Y-5944499D01*
X22224675Y-5993533D01*
X22224666Y-5993538D01*
X22118131Y-6064723D01*
X22118127Y-6064726D01*
X22027526Y-6155327D01*
X22027523Y-6155331D01*
X21956338Y-6261866D01*
X21956333Y-6261875D01*
X21907299Y-6380255D01*
X21907297Y-6380261D01*
X21882300Y-6505928D01*
X21882300Y-6567390D01*
X21862615Y-6634429D01*
X21845981Y-6655071D01*
X21461817Y-7039234D01*
X21461813Y-7039240D01*
X21405798Y-7136260D01*
X21405797Y-7136263D01*
X21376800Y-7244482D01*
X14662566Y-7244482D01*
X19625529Y-2281519D01*
X19686852Y-2248034D01*
X19713210Y-2245200D01*
X20352290Y-2245200D01*
X20419329Y-2264885D01*
X20439971Y-2281519D01*
X21845981Y-3687529D01*
X21879466Y-3748852D01*
X21882300Y-3775210D01*
X21882300Y-3836669D01*
X21882300Y-3836671D01*
X21882299Y-3836671D01*
X21907297Y-3962338D01*
X21907299Y-3962344D01*
X21956333Y-4080724D01*
X21956338Y-4080733D01*
X22027523Y-4187268D01*
X22027526Y-4187272D01*
X22118127Y-4277873D01*
X22118131Y-4277876D01*
X22224666Y-4349061D01*
X22224672Y-4349064D01*
X22224673Y-4349065D01*
X22343056Y-4398101D01*
X22343060Y-4398101D01*
X22343061Y-4398102D01*
X22468728Y-4423100D01*
X22468731Y-4423100D01*
X22596871Y-4423100D01*
X22681415Y-4406282D01*
X22722544Y-4398101D01*
X22840927Y-4349065D01*
X22947469Y-4277876D01*
X23038076Y-4187269D01*
X23109265Y-4080727D01*
X23158301Y-3962344D01*
X23183300Y-3836669D01*
X23183300Y-3708531D01*
X23183300Y-3708528D01*
X23158302Y-3582861D01*
X23158301Y-3582860D01*
X23158301Y-3582856D01*
X23109265Y-3464473D01*
X23092164Y-3438880D01*
X23051961Y-3378711D01*
X74649500Y-3378711D01*
X74649500Y-3621288D01*
X74681161Y-3861785D01*
X74743947Y-4096104D01*
X74819240Y-4277876D01*
X74836776Y-4320212D01*
X74958064Y-4530289D01*
X74958066Y-4530292D01*
X74958067Y-4530293D01*
X75105733Y-4722736D01*
X75105739Y-4722743D01*
X75277256Y-4894260D01*
X75277262Y-4894265D01*
X75469711Y-5041936D01*
X75679788Y-5163224D01*
X75903900Y-5256054D01*
X76138211Y-5318838D01*
X76318586Y-5342584D01*
X76378711Y-5350500D01*
X76378712Y-5350500D01*
X76621289Y-5350500D01*
X76669388Y-5344167D01*
X76861789Y-5318838D01*
X77096100Y-5256054D01*
X77320212Y-5163224D01*
X77530289Y-5041936D01*
X77722738Y-4894265D01*
X77894265Y-4722738D01*
X78041936Y-4530289D01*
X78163224Y-4320212D01*
X78256054Y-4096100D01*
X78318838Y-3861789D01*
X78350500Y-3621288D01*
X78350500Y-3378712D01*
X78318838Y-3138211D01*
X78256054Y-2903900D01*
X78163224Y-2679788D01*
X78041936Y-2469711D01*
X77894265Y-2277262D01*
X77894260Y-2277256D01*
X77722743Y-2105739D01*
X77722736Y-2105733D01*
X77530293Y-1958067D01*
X77530292Y-1958066D01*
X77530289Y-1958064D01*
X77320212Y-1836776D01*
X77320205Y-1836773D01*
X77096104Y-1743947D01*
X76861785Y-1681161D01*
X76621289Y-1649500D01*
X76621288Y-1649500D01*
X76378712Y-1649500D01*
X76378711Y-1649500D01*
X76138214Y-1681161D01*
X75903895Y-1743947D01*
X75679794Y-1836773D01*
X75679785Y-1836777D01*
X75469706Y-1958067D01*
X75277263Y-2105733D01*
X75277256Y-2105739D01*
X75105739Y-2277256D01*
X75105733Y-2277263D01*
X74958067Y-2469706D01*
X74836777Y-2679785D01*
X74836773Y-2679794D01*
X74743947Y-2903895D01*
X74681161Y-3138214D01*
X74649500Y-3378711D01*
X23051961Y-3378711D01*
X23038076Y-3357930D01*
X22947472Y-3267326D01*
X22947468Y-3267323D01*
X22840933Y-3196138D01*
X22840924Y-3196133D01*
X22722544Y-3147099D01*
X22722538Y-3147097D01*
X22596871Y-3122100D01*
X22596869Y-3122100D01*
X22535410Y-3122100D01*
X22468371Y-3102415D01*
X22447729Y-3085781D01*
X20841165Y-1479217D01*
X20841163Y-1479215D01*
X20776479Y-1441869D01*
X20744139Y-1423198D01*
X20744138Y-1423197D01*
X20744137Y-1423197D01*
X20635918Y-1394200D01*
X19541618Y-1394200D01*
X19429582Y-1394200D01*
X19321363Y-1423197D01*
X19321360Y-1423198D01*
X19224340Y-1479213D01*
X19224334Y-1479217D01*
X12956317Y-7747234D01*
X12956313Y-7747240D01*
X12900298Y-7844260D01*
X12900297Y-7844263D01*
X12871300Y-7952482D01*
X12871300Y-9482690D01*
X12851615Y-9549729D01*
X12798811Y-9595484D01*
X12729653Y-9605428D01*
X12666097Y-9576403D01*
X12659619Y-9570371D01*
X10377219Y-7287971D01*
X10343734Y-7226648D01*
X10340900Y-7200290D01*
X10340900Y-7138828D01*
X10315902Y-7013161D01*
X10315901Y-7013160D01*
X10315901Y-7013156D01*
X10266865Y-6894773D01*
X10266864Y-6894772D01*
X10266861Y-6894766D01*
X10195676Y-6788231D01*
X10195673Y-6788227D01*
X10105072Y-6697626D01*
X10105068Y-6697623D01*
X9998533Y-6626438D01*
X9998524Y-6626433D01*
X9880144Y-6577399D01*
X9880138Y-6577397D01*
X9754471Y-6552400D01*
X9754469Y-6552400D01*
X9626331Y-6552400D01*
X9626329Y-6552400D01*
X9500661Y-6577397D01*
X9500655Y-6577399D01*
X9382275Y-6626433D01*
X9382266Y-6626438D01*
X9275731Y-6697623D01*
X9275727Y-6697626D01*
X9185126Y-6788227D01*
X9185123Y-6788231D01*
X9113938Y-6894766D01*
X9113933Y-6894775D01*
X9064899Y-7013155D01*
X9064897Y-7013161D01*
X9039900Y-7138828D01*
X9039900Y-7138831D01*
X9039900Y-7266969D01*
X9039900Y-7266971D01*
X9039899Y-7266971D01*
X9064897Y-7392638D01*
X9064899Y-7392644D01*
X9113933Y-7511024D01*
X9113938Y-7511033D01*
X9185123Y-7617568D01*
X9185126Y-7617572D01*
X9275727Y-7708173D01*
X9275731Y-7708176D01*
X9382266Y-7779361D01*
X9382272Y-7779364D01*
X9382273Y-7779365D01*
X9500656Y-7828401D01*
X9500660Y-7828401D01*
X9500661Y-7828402D01*
X9626328Y-7853400D01*
X9626331Y-7853400D01*
X9687790Y-7853400D01*
X9754829Y-7873085D01*
X9775471Y-7889719D01*
X12083181Y-10197429D01*
X12116666Y-10258752D01*
X12119500Y-10285110D01*
X12119500Y-27304192D01*
X12099815Y-27371231D01*
X12083181Y-27391873D01*
X12039726Y-27435327D01*
X12039723Y-27435331D01*
X11968538Y-27541866D01*
X11968533Y-27541875D01*
X11919499Y-27660255D01*
X11919497Y-27660261D01*
X11894500Y-27785928D01*
X11894500Y-27785931D01*
X11894500Y-27914069D01*
X11894500Y-27914071D01*
X11894499Y-27914071D01*
X11919497Y-28039738D01*
X11919499Y-28039744D01*
X11968533Y-28158124D01*
X11968538Y-28158133D01*
X12023602Y-28240541D01*
X12044480Y-28307218D01*
X12044500Y-28309432D01*
X12044500Y-31669418D01*
X12024815Y-31736457D01*
X11972011Y-31782212D01*
X11902853Y-31792156D01*
X11859054Y-31775373D01*
X11858502Y-31776408D01*
X11853124Y-31773533D01*
X11734744Y-31724499D01*
X11734738Y-31724497D01*
X11609071Y-31699500D01*
X11609069Y-31699500D01*
X11480931Y-31699500D01*
X11480929Y-31699500D01*
X11355261Y-31724497D01*
X11355255Y-31724499D01*
X11273342Y-31758428D01*
X11237195Y-31773402D01*
X11231246Y-31775866D01*
X11230438Y-31773916D01*
X11171390Y-31786193D01*
X11144787Y-31781075D01*
X5396327Y-30005816D01*
X5338081Y-29967226D01*
X5323557Y-29945790D01*
X5321467Y-29941882D01*
X5321464Y-29941873D01*
X5286409Y-29889410D01*
X5250278Y-29835335D01*
X5250272Y-29835327D01*
X5159671Y-29744726D01*
X5159667Y-29744723D01*
X5053132Y-29673538D01*
X5053123Y-29673533D01*
X4934743Y-29624499D01*
X4934737Y-29624497D01*
X4809070Y-29599500D01*
X4809068Y-29599500D01*
X4680930Y-29599500D01*
X4680928Y-29599500D01*
X4555260Y-29624497D01*
X4555254Y-29624499D01*
X4436874Y-29673533D01*
X4436865Y-29673538D01*
X4330330Y-29744723D01*
X4330326Y-29744726D01*
X4239725Y-29835327D01*
X4239722Y-29835331D01*
X4168537Y-29941866D01*
X4168532Y-29941875D01*
X4119498Y-30060255D01*
X4119496Y-30060261D01*
X4094499Y-30185928D01*
X4094499Y-30185931D01*
X4094499Y-30314069D01*
X4094499Y-30314071D01*
X4094498Y-30314071D01*
X500000Y-30314071D01*
X500000Y-26480000D01*
X872150Y-26480000D01*
X1525735Y-26480000D01*
X1509940Y-26495795D01*
X1470444Y-26564204D01*
X1450000Y-26640504D01*
X1450000Y-26719496D01*
X1470444Y-26795796D01*
X1509940Y-26864205D01*
X1525735Y-26880000D01*
X872150Y-26880000D01*
X884584Y-26942512D01*
X884586Y-26942520D01*
X952428Y-27106307D01*
X952433Y-27106316D01*
X1050923Y-27253716D01*
X1050926Y-27253720D01*
X1176279Y-27379073D01*
X1176283Y-27379076D01*
X1323683Y-27477566D01*
X1323692Y-27477571D01*
X1487479Y-27545413D01*
X1487487Y-27545415D01*
X1661353Y-27579999D01*
X1661357Y-27580000D01*
X1850000Y-27580000D01*
X1850000Y-26980000D01*
X2250000Y-26980000D01*
X2250000Y-27580000D01*
X2438643Y-27580000D01*
X2438646Y-27579999D01*
X2612512Y-27545415D01*
X2612520Y-27545413D01*
X2776307Y-27477571D01*
X2776316Y-27477566D01*
X2923716Y-27379076D01*
X2923720Y-27379073D01*
X3049073Y-27253720D01*
X3049076Y-27253716D01*
X3147566Y-27106316D01*
X3147571Y-27106307D01*
X3215413Y-26942520D01*
X3215415Y-26942512D01*
X3227850Y-26880000D01*
X2574265Y-26880000D01*
X2590060Y-26864205D01*
X2629556Y-26795796D01*
X2650000Y-26719496D01*
X2650000Y-26640504D01*
X2629556Y-26564204D01*
X2590060Y-26495795D01*
X2574265Y-26480000D01*
X3227850Y-26480000D01*
X4802150Y-26480000D01*
X5455735Y-26480000D01*
X5439940Y-26495795D01*
X5400444Y-26564204D01*
X5380000Y-26640504D01*
X5380000Y-26719496D01*
X5400444Y-26795796D01*
X5439940Y-26864205D01*
X5455735Y-26880000D01*
X4802150Y-26880000D01*
X4814584Y-26942512D01*
X4814586Y-26942520D01*
X4882428Y-27106307D01*
X4882433Y-27106316D01*
X4980923Y-27253716D01*
X4980926Y-27253720D01*
X5106279Y-27379073D01*
X5106283Y-27379076D01*
X5253683Y-27477566D01*
X5253691Y-27477570D01*
X5269517Y-27484125D01*
X5323922Y-27527964D01*
X5345990Y-27594257D01*
X5328713Y-27661957D01*
X5309751Y-27686369D01*
X5239485Y-27756635D01*
X5163719Y-27887863D01*
X5156697Y-27914071D01*
X5124500Y-28034234D01*
X5124500Y-28185766D01*
X5128896Y-28202171D01*
X5163719Y-28332136D01*
X5193220Y-28383232D01*
X5239485Y-28463365D01*
X5346635Y-28570515D01*
X5477865Y-28646281D01*
X5624234Y-28685500D01*
X5624236Y-28685500D01*
X5775764Y-28685500D01*
X5775766Y-28685500D01*
X5922135Y-28646281D01*
X6053365Y-28570515D01*
X6160515Y-28463365D01*
X6236281Y-28332135D01*
X6275500Y-28185766D01*
X6275500Y-28034234D01*
X6236281Y-27887865D01*
X6160515Y-27756635D01*
X6066319Y-27662439D01*
X6032834Y-27601116D01*
X6030000Y-27574758D01*
X6030000Y-26980000D01*
X6430000Y-26980000D01*
X6430000Y-27580000D01*
X6868643Y-27580000D01*
X6868646Y-27579999D01*
X7042512Y-27545415D01*
X7042520Y-27545413D01*
X7206307Y-27477571D01*
X7206316Y-27477566D01*
X7353716Y-27379076D01*
X7353720Y-27379073D01*
X7479073Y-27253720D01*
X7479076Y-27253716D01*
X7577566Y-27106316D01*
X7577571Y-27106307D01*
X7645413Y-26942520D01*
X7645415Y-26942512D01*
X7657850Y-26880000D01*
X7004265Y-26880000D01*
X7020060Y-26864205D01*
X7059556Y-26795796D01*
X7080000Y-26719496D01*
X7080000Y-26640504D01*
X7059556Y-26564204D01*
X7020060Y-26495795D01*
X7004265Y-26480000D01*
X7657850Y-26480000D01*
X7645415Y-26417487D01*
X7645413Y-26417479D01*
X7577571Y-26253692D01*
X7577566Y-26253683D01*
X7479076Y-26106283D01*
X7479073Y-26106279D01*
X7353720Y-25980926D01*
X7353716Y-25980923D01*
X7206316Y-25882433D01*
X7206307Y-25882428D01*
X7042520Y-25814586D01*
X7042512Y-25814584D01*
X6868646Y-25780000D01*
X6430000Y-25780000D01*
X6430000Y-26380000D01*
X6030000Y-26380000D01*
X6030000Y-25780000D01*
X5591353Y-25780000D01*
X5417487Y-25814584D01*
X5417479Y-25814586D01*
X5253692Y-25882428D01*
X5253683Y-25882433D01*
X5106283Y-25980923D01*
X5106279Y-25980926D01*
X4980926Y-26106279D01*
X4980923Y-26106283D01*
X4882433Y-26253683D01*
X4882428Y-26253692D01*
X4814586Y-26417479D01*
X4814584Y-26417487D01*
X4802150Y-26480000D01*
X3227850Y-26480000D01*
X3215415Y-26417487D01*
X3215413Y-26417479D01*
X3147571Y-26253692D01*
X3147566Y-26253683D01*
X3049076Y-26106283D01*
X3049073Y-26106279D01*
X2923720Y-25980926D01*
X2923716Y-25980923D01*
X2776316Y-25882433D01*
X2776307Y-25882428D01*
X2612520Y-25814586D01*
X2612512Y-25814584D01*
X2438646Y-25780000D01*
X2250000Y-25780000D01*
X2250000Y-26380000D01*
X1850000Y-26380000D01*
X1850000Y-25780000D01*
X1661353Y-25780000D01*
X1487487Y-25814584D01*
X1487479Y-25814586D01*
X1323692Y-25882428D01*
X1323683Y-25882433D01*
X1176283Y-25980923D01*
X1176279Y-25980926D01*
X1050926Y-26106279D01*
X1050923Y-26106283D01*
X952433Y-26253683D01*
X952428Y-26253692D01*
X884586Y-26417479D01*
X884584Y-26417487D01*
X872150Y-26480000D01*
X500000Y-26480000D01*
X500000Y-10572895D01*
X9345599Y-10572895D01*
X9372518Y-10708222D01*
X9372521Y-10708232D01*
X9425321Y-10835704D01*
X9425328Y-10835717D01*
X9501985Y-10950441D01*
X9501988Y-10950445D01*
X9599555Y-11048012D01*
X9599558Y-11048014D01*
X9631891Y-11069618D01*
X9676695Y-11123229D01*
X9687000Y-11172720D01*
X9687000Y-16934308D01*
X9687000Y-17066092D01*
X9714749Y-17169655D01*
X9721109Y-17193388D01*
X9721110Y-17193391D01*
X9770186Y-17278391D01*
X9786800Y-17340392D01*
X9786800Y-17368993D01*
X9786800Y-17368995D01*
X9786799Y-17368995D01*
X9813718Y-17504322D01*
X9813721Y-17504332D01*
X9866521Y-17631804D01*
X9866528Y-17631817D01*
X9943185Y-17746541D01*
X9943188Y-17746545D01*
X10040754Y-17844111D01*
X10040758Y-17844114D01*
X10155482Y-17920771D01*
X10155495Y-17920778D01*
X10282967Y-17973578D01*
X10282972Y-17973580D01*
X10282976Y-17973580D01*
X10282977Y-17973581D01*
X10418304Y-18000500D01*
X10418307Y-18000500D01*
X10556295Y-18000500D01*
X10647341Y-17982389D01*
X10691628Y-17973580D01*
X10819111Y-17920775D01*
X10933842Y-17844114D01*
X11031414Y-17746542D01*
X11108075Y-17631811D01*
X11160880Y-17504328D01*
X11178287Y-17416819D01*
X11187800Y-17368995D01*
X11187800Y-17231004D01*
X11160881Y-17095677D01*
X11160880Y-17095676D01*
X11160880Y-17095672D01*
X11137043Y-17038124D01*
X11108078Y-16968195D01*
X11108071Y-16968182D01*
X11031414Y-16853458D01*
X11031411Y-16853454D01*
X10933845Y-16755888D01*
X10933841Y-16755885D01*
X10819117Y-16679228D01*
X10819112Y-16679226D01*
X10819111Y-16679225D01*
X10794846Y-16669174D01*
X10764546Y-16656623D01*
X10710143Y-16612781D01*
X10688079Y-16546487D01*
X10688000Y-16542062D01*
X10688000Y-10809375D01*
X10697439Y-10761922D01*
X10706068Y-10741089D01*
X10719680Y-10708228D01*
X10746600Y-10572893D01*
X10746600Y-10434907D01*
X10746600Y-10434904D01*
X10719681Y-10299577D01*
X10719680Y-10299576D01*
X10719680Y-10299572D01*
X10692415Y-10233748D01*
X10666878Y-10172095D01*
X10666871Y-10172082D01*
X10590214Y-10057358D01*
X10590211Y-10057354D01*
X10492645Y-9959788D01*
X10492641Y-9959785D01*
X10377917Y-9883128D01*
X10377904Y-9883121D01*
X10250432Y-9830321D01*
X10250422Y-9830318D01*
X10115095Y-9803400D01*
X10115093Y-9803400D01*
X9977107Y-9803400D01*
X9977105Y-9803400D01*
X9841777Y-9830318D01*
X9841767Y-9830321D01*
X9714295Y-9883121D01*
X9714282Y-9883128D01*
X9599558Y-9959785D01*
X9599554Y-9959788D01*
X9501988Y-10057354D01*
X9501985Y-10057358D01*
X9425328Y-10172082D01*
X9425321Y-10172095D01*
X9372521Y-10299567D01*
X9372518Y-10299577D01*
X9345600Y-10434904D01*
X9345600Y-10434907D01*
X9345600Y-10572893D01*
X9345600Y-10572895D01*
X9345599Y-10572895D01*
X500000Y-10572895D01*
X500000Y-3378711D01*
X1649500Y-3378711D01*
X1649500Y-3621288D01*
X1681161Y-3861785D01*
X1743947Y-4096104D01*
X1819240Y-4277876D01*
X1836776Y-4320212D01*
X1958064Y-4530289D01*
X1958066Y-4530292D01*
X1958067Y-4530293D01*
X2105733Y-4722736D01*
X2105739Y-4722743D01*
X2277256Y-4894260D01*
X2277262Y-4894265D01*
X2469711Y-5041936D01*
X2679788Y-5163224D01*
X2903900Y-5256054D01*
X3138211Y-5318838D01*
X3318586Y-5342584D01*
X3378711Y-5350500D01*
X3378712Y-5350500D01*
X3621289Y-5350500D01*
X3669388Y-5344167D01*
X3861789Y-5318838D01*
X4096100Y-5256054D01*
X4320212Y-5163224D01*
X4530289Y-5041936D01*
X4722738Y-4894265D01*
X4894265Y-4722738D01*
X5041936Y-4530289D01*
X5163224Y-4320212D01*
X5256054Y-4096100D01*
X5318838Y-3861789D01*
X5350500Y-3621288D01*
X5350500Y-3378712D01*
X5318838Y-3138211D01*
X5256054Y-2903900D01*
X5163224Y-2679788D01*
X5041936Y-2469711D01*
X4894265Y-2277262D01*
X4894260Y-2277256D01*
X4722743Y-2105739D01*
X4722736Y-2105733D01*
X4530293Y-1958067D01*
X4530292Y-1958066D01*
X4530289Y-1958064D01*
X4320212Y-1836776D01*
X4320205Y-1836773D01*
X4096104Y-1743947D01*
X3861785Y-1681161D01*
X3621289Y-1649500D01*
X3621288Y-1649500D01*
X3378712Y-1649500D01*
X3378711Y-1649500D01*
X3138214Y-1681161D01*
X2903895Y-1743947D01*
X2679794Y-1836773D01*
X2679785Y-1836777D01*
X2469706Y-1958067D01*
X2277263Y-2105733D01*
X2277256Y-2105739D01*
X2105739Y-2277256D01*
X2105733Y-2277263D01*
X1958067Y-2469706D01*
X1836777Y-2679785D01*
X1836773Y-2679794D01*
X1743947Y-2903895D01*
X1681161Y-3138214D01*
X1649500Y-3378711D01*
X500000Y-3378711D01*
X500000Y-1620975D01*
X502183Y-1610804D01*
X501167Y-1604003D01*
X510924Y-1570085D01*
X549360Y-1484683D01*
X549364Y-1484674D01*
X556312Y-1471434D01*
X685975Y-1256946D01*
X694462Y-1244650D01*
X849033Y-1047354D01*
X858948Y-1036163D01*
X1036162Y-858949D01*
X1047353Y-849034D01*
X1244649Y-694462D01*
X1256944Y-685975D01*
X1471438Y-556310D01*
X1484667Y-549367D01*
X1570085Y-510923D01*
X1620975Y-500000D01*
X78379024Y-500000D01*
X78429912Y-510923D01*
G37*
G04 #@! TD.AperFunction*
M02*
