%TF.GenerationSoftware,KiCad,Pcbnew,10.0.4*%
%TF.CreationDate,2026-09-02T14:56:08+01:00*%
%TF.ProjectId,pl60c_dmx,706c3630-635f-4646-9d78-2e6b69636164,rev?*%
%TF.SameCoordinates,Original*%
%TF.FileFunction,Drillmap*%
%TF.FilePolarity,Positive*%
%FSLAX45Y45*%
G04 Gerber Fmt 4.5, Leading zero omitted, Abs format (unit mm)*
G04 Created by KiCad (PCBNEW 10.0.4) date 2026-09-02 14:56:08*
%MOMM*%
%LPD*%
G01*
G04 APERTURE LIST*
%ADD10C,0.100000*%
%ADD11C,0.200000*%
%ADD12C,0.120000*%
%ADD13C,0.140000*%
%ADD14C,0.160000*%
G04 APERTURE END LIST*
D10*
X0Y-250000D02*
G75*
G02*
X250000Y0I250000J0D01*
G01*
X0Y-5150000D02*
X0Y-250000D01*
X250000Y0D02*
X7750000Y0D01*
X250000Y-5400000D02*
G75*
G02*
X0Y-5150000I0J250000D01*
G01*
X7750000Y0D02*
G75*
G02*
X8000000Y-250000I0J-250000D01*
G01*
X7750000Y-5400000D02*
X250000Y-5400000D01*
X8000000Y-250000D02*
X8000000Y-5150000D01*
X8000000Y-5150000D02*
G75*
G02*
X7750000Y-5400000I-250000J0D01*
G01*
D11*
D10*
X954040Y-705290D02*
X984040Y-735290D01*
X984040Y-705290D02*
X954040Y-735290D01*
X1082500Y-3288500D02*
X1112500Y-3318500D01*
X1112500Y-3288500D02*
X1082500Y-3318500D01*
X1281310Y-3667500D02*
X1311310Y-3697500D01*
X1311310Y-3667500D02*
X1281310Y-3697500D01*
X1382340Y-3297310D02*
X1412340Y-3327310D01*
X1412340Y-3297310D02*
X1382340Y-3327310D01*
X1456880Y-3115630D02*
X1486880Y-3145630D01*
X1486880Y-3115630D02*
X1456880Y-3145630D01*
X1482110Y-4142890D02*
X1512110Y-4172890D01*
X1512110Y-4142890D02*
X1482110Y-4172890D01*
X1815480Y-3198750D02*
X1845480Y-3228750D01*
X1845480Y-3198750D02*
X1815480Y-3228750D01*
X1981720Y-1658000D02*
X2011720Y-1688000D01*
X2011720Y-1658000D02*
X1981720Y-1688000D01*
X2004330Y-1877000D02*
X2034330Y-1907000D01*
X2034330Y-1877000D02*
X2004330Y-1907000D01*
X2238280Y-388000D02*
X2268280Y-418000D01*
X2268280Y-388000D02*
X2238280Y-418000D01*
X2238280Y-642000D02*
X2268280Y-672000D01*
X2268280Y-642000D02*
X2238280Y-672000D01*
X2238280Y-769000D02*
X2268280Y-799000D01*
X2268280Y-769000D02*
X2238280Y-799000D01*
X2431870Y-1556740D02*
X2461870Y-1586740D01*
X2461870Y-1556740D02*
X2431870Y-1586740D01*
X2510400Y-1124260D02*
X2540400Y-1154260D01*
X2540400Y-1124260D02*
X2510400Y-1154260D01*
X2564430Y-2039440D02*
X2594430Y-2069440D01*
X2594430Y-2039440D02*
X2564430Y-2069440D01*
X2691260Y-2039590D02*
X2721260Y-2069590D01*
X2721260Y-2039590D02*
X2691260Y-2069590D01*
X3343000Y-4600000D02*
X3373000Y-4630000D01*
X3373000Y-4600000D02*
X3343000Y-4630000D01*
X3474060Y-2078830D02*
X3504060Y-2108830D01*
X3504060Y-2078830D02*
X3474060Y-2108830D01*
X3515960Y-2181180D02*
X3545960Y-2211180D01*
X3545960Y-2181180D02*
X3515960Y-2211180D01*
X3555830Y-1251260D02*
X3585830Y-1281260D01*
X3585830Y-1251260D02*
X3555830Y-1281260D01*
X3566050Y-1378260D02*
X3596050Y-1408260D01*
X3596050Y-1378260D02*
X3566050Y-1408260D01*
X3936510Y-4186470D02*
X3966510Y-4216470D01*
X3966510Y-4186470D02*
X3936510Y-4216470D01*
X3965670Y-1877690D02*
X3995670Y-1907690D01*
X3995670Y-1877690D02*
X3965670Y-1907690D01*
X3988280Y-515000D02*
X4018280Y-545000D01*
X4018280Y-515000D02*
X3988280Y-545000D01*
X3988280Y-642000D02*
X4018280Y-672000D01*
X4018280Y-642000D02*
X3988280Y-672000D01*
X4302500Y-1445260D02*
X4332500Y-1475260D01*
X4332500Y-1445260D02*
X4302500Y-1475260D01*
X4305590Y-3834080D02*
X4335590Y-3864080D01*
X4335590Y-3834080D02*
X4305590Y-3864080D01*
X4386340Y-1034120D02*
X4416340Y-1064120D01*
X4416340Y-1034120D02*
X4386340Y-1064120D01*
X4673530Y-1309080D02*
X4703530Y-1339080D01*
X4703530Y-1309080D02*
X4673530Y-1339080D01*
X4871980Y-3604480D02*
X4901980Y-3634480D01*
X4901980Y-3604480D02*
X4871980Y-3634480D01*
X5171880Y-1179500D02*
X5201880Y-1209500D01*
X5201880Y-1179500D02*
X5171880Y-1209500D01*
X5206490Y-2164760D02*
X5236490Y-2194760D01*
X5236490Y-2164760D02*
X5206490Y-2194760D01*
X5461050Y-2111580D02*
X5491050Y-2141580D01*
X5491050Y-2111580D02*
X5461050Y-2141580D01*
X2725000Y-851000D02*
G75*
G02*
X2695000Y-851000I-15000J0D01*
G01*
X2695000Y-851000D02*
G75*
G02*
X2725000Y-851000I15000J0D01*
G01*
X2725000Y-991000D02*
G75*
G02*
X2695000Y-991000I-15000J0D01*
G01*
X2695000Y-991000D02*
G75*
G02*
X2725000Y-991000I15000J0D01*
G01*
X2795000Y-781000D02*
G75*
G02*
X2765000Y-781000I-15000J0D01*
G01*
X2765000Y-781000D02*
G75*
G02*
X2795000Y-781000I15000J0D01*
G01*
X2795000Y-921000D02*
G75*
G02*
X2765000Y-921000I-15000J0D01*
G01*
X2765000Y-921000D02*
G75*
G02*
X2795000Y-921000I15000J0D01*
G01*
X2795000Y-1061000D02*
G75*
G02*
X2765000Y-1061000I-15000J0D01*
G01*
X2765000Y-1061000D02*
G75*
G02*
X2795000Y-1061000I15000J0D01*
G01*
X2865000Y-851000D02*
G75*
G02*
X2835000Y-851000I-15000J0D01*
G01*
X2835000Y-851000D02*
G75*
G02*
X2865000Y-851000I15000J0D01*
G01*
X2865000Y-991000D02*
G75*
G02*
X2835000Y-991000I-15000J0D01*
G01*
X2835000Y-991000D02*
G75*
G02*
X2865000Y-991000I15000J0D01*
G01*
X2935000Y-781000D02*
G75*
G02*
X2905000Y-781000I-15000J0D01*
G01*
X2905000Y-781000D02*
G75*
G02*
X2935000Y-781000I15000J0D01*
G01*
X2935000Y-921000D02*
G75*
G02*
X2905000Y-921000I-15000J0D01*
G01*
X2905000Y-921000D02*
G75*
G02*
X2935000Y-921000I15000J0D01*
G01*
X2935000Y-1061000D02*
G75*
G02*
X2905000Y-1061000I-15000J0D01*
G01*
X2905000Y-1061000D02*
G75*
G02*
X2935000Y-1061000I15000J0D01*
G01*
X3005000Y-851000D02*
G75*
G02*
X2975000Y-851000I-15000J0D01*
G01*
X2975000Y-851000D02*
G75*
G02*
X3005000Y-851000I15000J0D01*
G01*
X3005000Y-991000D02*
G75*
G02*
X2975000Y-991000I-15000J0D01*
G01*
X2975000Y-991000D02*
G75*
G02*
X3005000Y-991000I15000J0D01*
G01*
X474500Y-3007500D02*
X474500Y-3042500D01*
X457000Y-3025000D02*
X492000Y-3025000D01*
X500000Y-982500D02*
X500000Y-1017500D01*
X482500Y-1000000D02*
X517500Y-1000000D01*
X500000Y-1482500D02*
X500000Y-1517500D01*
X482500Y-1500000D02*
X517500Y-1500000D01*
X500000Y-2482500D02*
X500000Y-2517500D01*
X482500Y-2500000D02*
X517500Y-2500000D01*
X500000Y-3982500D02*
X500000Y-4017500D01*
X482500Y-4000000D02*
X517500Y-4000000D01*
X500000Y-4482500D02*
X500000Y-4517500D01*
X482500Y-4500000D02*
X517500Y-4500000D01*
X710000Y-1252500D02*
X710000Y-1287500D01*
X692500Y-1270000D02*
X727500Y-1270000D01*
X775000Y-4967500D02*
X775000Y-5002500D01*
X757500Y-4985000D02*
X792500Y-4985000D01*
X1000000Y-2482500D02*
X1000000Y-2517500D01*
X982500Y-2500000D02*
X1017500Y-2500000D01*
X1000000Y-4982500D02*
X1000000Y-5017500D01*
X982500Y-5000000D02*
X1017500Y-5000000D01*
X1120000Y-2082500D02*
X1120000Y-2117500D01*
X1102500Y-2100000D02*
X1137500Y-2100000D01*
X1154500Y-3217500D02*
X1154500Y-3252500D01*
X1137000Y-3235000D02*
X1172000Y-3235000D01*
X1254500Y-2767500D02*
X1254500Y-2802500D01*
X1237000Y-2785000D02*
X1272000Y-2785000D01*
X1254500Y-3397500D02*
X1254500Y-3432500D01*
X1237000Y-3415000D02*
X1272000Y-3415000D01*
X1400000Y-2385000D02*
X1400000Y-2420000D01*
X1382500Y-2402500D02*
X1417500Y-2402500D01*
X1400000Y-3385000D02*
X1400000Y-3420000D01*
X1382500Y-3402500D02*
X1417500Y-3402500D01*
X1420000Y-932500D02*
X1420000Y-967500D01*
X1402500Y-950000D02*
X1437500Y-950000D01*
X1500000Y-982500D02*
X1500000Y-1017500D01*
X1482500Y-1000000D02*
X1517500Y-1000000D01*
X1500000Y-4982500D02*
X1500000Y-5017500D01*
X1482500Y-5000000D02*
X1517500Y-5000000D01*
X1597500Y-2082500D02*
X1597500Y-2117500D01*
X1580000Y-2100000D02*
X1615000Y-2100000D01*
X1650000Y-3337500D02*
X1650000Y-3372500D01*
X1632500Y-3355000D02*
X1667500Y-3355000D01*
X1720000Y-4232500D02*
X1720000Y-4267500D01*
X1702500Y-4250000D02*
X1737500Y-4250000D01*
X1725000Y-4967500D02*
X1725000Y-5002500D01*
X1707500Y-4985000D02*
X1742500Y-4985000D01*
X1800000Y-485000D02*
X1800000Y-520000D01*
X1782500Y-502500D02*
X1817500Y-502500D01*
X1875000Y-4967500D02*
X1875000Y-5002500D01*
X1857500Y-4985000D02*
X1892500Y-4985000D01*
X1970000Y-332500D02*
X1970000Y-367500D01*
X1952500Y-350000D02*
X1987500Y-350000D01*
X2000000Y-2482500D02*
X2000000Y-2517500D01*
X1982500Y-2500000D02*
X2017500Y-2500000D01*
X2000000Y-3482500D02*
X2000000Y-3517500D01*
X1982500Y-3500000D02*
X2017500Y-3500000D01*
X2000000Y-3982500D02*
X2000000Y-4017500D01*
X1982500Y-4000000D02*
X2017500Y-4000000D01*
X2000000Y-4982500D02*
X2000000Y-5017500D01*
X1982500Y-5000000D02*
X2017500Y-5000000D01*
X2500000Y-482500D02*
X2500000Y-517500D01*
X2482500Y-500000D02*
X2517500Y-500000D01*
X2500000Y-1482500D02*
X2500000Y-1517500D01*
X2482500Y-1500000D02*
X2517500Y-1500000D01*
X2500000Y-2482500D02*
X2500000Y-2517500D01*
X2482500Y-2500000D02*
X2517500Y-2500000D01*
X2500000Y-2982500D02*
X2500000Y-3017500D01*
X2482500Y-3000000D02*
X2517500Y-3000000D01*
X2500000Y-3482500D02*
X2500000Y-3517500D01*
X2482500Y-3500000D02*
X2517500Y-3500000D01*
X2500000Y-4982500D02*
X2500000Y-5017500D01*
X2482500Y-5000000D02*
X2517500Y-5000000D01*
X2825000Y-4967500D02*
X2825000Y-5002500D01*
X2807500Y-4985000D02*
X2842500Y-4985000D01*
X2975000Y-4967500D02*
X2975000Y-5002500D01*
X2957500Y-4985000D02*
X2992500Y-4985000D01*
X3000000Y-1482500D02*
X3000000Y-1517500D01*
X2982500Y-1500000D02*
X3017500Y-1500000D01*
X3000000Y-2482500D02*
X3000000Y-2517500D01*
X2982500Y-2500000D02*
X3017500Y-2500000D01*
X3000000Y-2982500D02*
X3000000Y-3017500D01*
X2982500Y-3000000D02*
X3017500Y-3000000D01*
X3000000Y-3482500D02*
X3000000Y-3517500D01*
X2982500Y-3500000D02*
X3017500Y-3500000D01*
X3000000Y-3982500D02*
X3000000Y-4017500D01*
X2982500Y-4000000D02*
X3017500Y-4000000D01*
X3500000Y-482500D02*
X3500000Y-517500D01*
X3482500Y-500000D02*
X3517500Y-500000D01*
X3500000Y-982500D02*
X3500000Y-1017500D01*
X3482500Y-1000000D02*
X3517500Y-1000000D01*
X3500000Y-1482500D02*
X3500000Y-1517500D01*
X3482500Y-1500000D02*
X3517500Y-1500000D01*
X3500000Y-2482500D02*
X3500000Y-2517500D01*
X3482500Y-2500000D02*
X3517500Y-2500000D01*
X3500000Y-2982500D02*
X3500000Y-3017500D01*
X3482500Y-3000000D02*
X3517500Y-3000000D01*
X3500000Y-3482500D02*
X3500000Y-3517500D01*
X3482500Y-3500000D02*
X3517500Y-3500000D01*
X3500000Y-4982500D02*
X3500000Y-5017500D01*
X3482500Y-5000000D02*
X3517500Y-5000000D01*
X3925000Y-4967500D02*
X3925000Y-5002500D01*
X3907500Y-4985000D02*
X3942500Y-4985000D01*
X4000000Y-3982500D02*
X4000000Y-4017500D01*
X3982500Y-4000000D02*
X4017500Y-4000000D01*
X4097500Y-4332500D02*
X4097500Y-4367500D01*
X4080000Y-4350000D02*
X4115000Y-4350000D01*
X4148500Y-4887500D02*
X4148500Y-4922500D01*
X4131000Y-4905000D02*
X4166000Y-4905000D01*
X4500000Y-3982500D02*
X4500000Y-4017500D01*
X4482500Y-4000000D02*
X4517500Y-4000000D01*
X4597500Y-1682500D02*
X4597500Y-1717500D01*
X4580000Y-1700000D02*
X4615000Y-1700000D01*
X4997500Y-682500D02*
X4997500Y-717500D01*
X4980000Y-700000D02*
X5015000Y-700000D01*
X5000000Y-482500D02*
X5000000Y-517500D01*
X4982500Y-500000D02*
X5017500Y-500000D01*
X5000000Y-4482500D02*
X5000000Y-4517500D01*
X4982500Y-4500000D02*
X5017500Y-4500000D01*
X5220000Y-1373000D02*
X5220000Y-1408000D01*
X5202500Y-1390500D02*
X5237500Y-1390500D01*
X5406250Y-3882500D02*
X5406250Y-3917500D01*
X5388750Y-3900000D02*
X5423750Y-3900000D01*
X5500000Y-482500D02*
X5500000Y-517500D01*
X5482500Y-500000D02*
X5517500Y-500000D01*
X5500000Y-982500D02*
X5500000Y-1017500D01*
X5482500Y-1000000D02*
X5517500Y-1000000D01*
X5500000Y-1482500D02*
X5500000Y-1517500D01*
X5482500Y-1500000D02*
X5517500Y-1500000D01*
X5500000Y-2982500D02*
X5500000Y-3017500D01*
X5482500Y-3000000D02*
X5517500Y-3000000D01*
X5642500Y-1982500D02*
X5642500Y-2017500D01*
X5625000Y-2000000D02*
X5660000Y-2000000D01*
X6000000Y-482500D02*
X6000000Y-517500D01*
X5982500Y-500000D02*
X6017500Y-500000D01*
X6000000Y-982500D02*
X6000000Y-1017500D01*
X5982500Y-1000000D02*
X6017500Y-1000000D01*
X6000000Y-1482500D02*
X6000000Y-1517500D01*
X5982500Y-1500000D02*
X6017500Y-1500000D01*
X6000000Y-2982500D02*
X6000000Y-3017500D01*
X5982500Y-3000000D02*
X6017500Y-3000000D01*
X6500000Y-482500D02*
X6500000Y-517500D01*
X6482500Y-500000D02*
X6517500Y-500000D01*
X6500000Y-982500D02*
X6500000Y-1017500D01*
X6482500Y-1000000D02*
X6517500Y-1000000D01*
X6500000Y-1482500D02*
X6500000Y-1517500D01*
X6482500Y-1500000D02*
X6517500Y-1500000D01*
X6500000Y-4982500D02*
X6500000Y-5017500D01*
X6482500Y-5000000D02*
X6517500Y-5000000D01*
X7000000Y-482500D02*
X7000000Y-517500D01*
X6982500Y-500000D02*
X7017500Y-500000D01*
X7000000Y-4982500D02*
X7000000Y-5017500D01*
X6982500Y-5000000D02*
X7017500Y-5000000D01*
X7500000Y-1982500D02*
X7500000Y-2017500D01*
X7482500Y-2000000D02*
X7517500Y-2000000D01*
X7500000Y-2482500D02*
X7500000Y-2517500D01*
X7482500Y-2500000D02*
X7517500Y-2500000D01*
X7500000Y-2982500D02*
X7500000Y-3017500D01*
X7482500Y-3000000D02*
X7517500Y-3000000D01*
X728642Y-3654582D02*
X728642Y-3626298D01*
X700358Y-3626298D01*
X700358Y-3654582D01*
X728642Y-3654582D01*
X1018752Y-1064532D02*
X1018752Y-1036248D01*
X990468Y-1036248D01*
X990468Y-1064532D01*
X1018752Y-1064532D01*
X1062872Y-1744142D02*
X1062872Y-1715858D01*
X1034588Y-1715858D01*
X1034588Y-1744142D01*
X1062872Y-1744142D01*
X2176322Y-4238512D02*
X2176322Y-4210228D01*
X2148038Y-4210228D01*
X2148038Y-4238512D01*
X2176322Y-4238512D01*
X2759322Y-2299192D02*
X2759322Y-2270908D01*
X2731038Y-2270908D01*
X2731038Y-2299192D01*
X2759322Y-2299192D01*
X3472142Y-4173642D02*
X3472142Y-4145358D01*
X3443858Y-4145358D01*
X3443858Y-4173642D01*
X3472142Y-4173642D01*
X4951602Y-929092D02*
X4951602Y-900808D01*
X4923318Y-900808D01*
X4923318Y-929092D01*
X4951602Y-929092D01*
X205000Y-2698000D02*
X235000Y-2668000D01*
X205000Y-2638000D01*
X175000Y-2668000D01*
X205000Y-2698000D01*
X235000Y-2638000D02*
X175000Y-2638000D01*
X175000Y-2698000D02*
G75*
G02*
X175000Y-2638000I0J30000D01*
G01*
X175000Y-2698000D02*
X235000Y-2698000D01*
X235000Y-2698000D02*
G75*
G03*
X235000Y-2638000I0J30000D01*
G01*
X205000Y-3562000D02*
X235000Y-3532000D01*
X205000Y-3502000D01*
X175000Y-3532000D01*
X205000Y-3562000D01*
X235000Y-3502000D02*
X175000Y-3502000D01*
X175000Y-3562000D02*
G75*
G02*
X175000Y-3502000I0J30000D01*
G01*
X175000Y-3562000D02*
X235000Y-3562000D01*
X235000Y-3562000D02*
G75*
G03*
X235000Y-3502000I0J30000D01*
G01*
X623000Y-2698000D02*
X653000Y-2668000D01*
X623000Y-2638000D01*
X593000Y-2668000D01*
X623000Y-2698000D01*
X678000Y-2638000D02*
X568000Y-2638000D01*
X568000Y-2698000D02*
G75*
G02*
X568000Y-2638000I0J30000D01*
G01*
X568000Y-2698000D02*
X678000Y-2698000D01*
X678000Y-2698000D02*
G75*
G03*
X678000Y-2638000I0J30000D01*
G01*
X623000Y-3562000D02*
X653000Y-3532000D01*
X623000Y-3502000D01*
X593000Y-3532000D01*
X623000Y-3562000D01*
X678000Y-3502000D02*
X568000Y-3502000D01*
X568000Y-3562000D02*
G75*
G02*
X568000Y-3502000I0J30000D01*
G01*
X568000Y-3562000D02*
X678000Y-3562000D01*
X678000Y-3562000D02*
G75*
G03*
X678000Y-3502000I0J30000D01*
G01*
X4250000Y-2150000D02*
X4350000Y-2250000D01*
X4350000Y-2150000D02*
X4250000Y-2250000D01*
X4350000Y-2200000D02*
G75*
G02*
X4250000Y-2200000I-50000J0D01*
G01*
X4250000Y-2200000D02*
G75*
G02*
X4350000Y-2200000I50000J0D01*
G01*
X4250000Y-2404000D02*
X4350000Y-2504000D01*
X4350000Y-2404000D02*
X4250000Y-2504000D01*
X4350000Y-2454000D02*
G75*
G02*
X4250000Y-2454000I-50000J0D01*
G01*
X4250000Y-2454000D02*
G75*
G02*
X4350000Y-2454000I50000J0D01*
G01*
X4250000Y-2658000D02*
X4350000Y-2758000D01*
X4350000Y-2658000D02*
X4250000Y-2758000D01*
X4350000Y-2708000D02*
G75*
G02*
X4250000Y-2708000I-50000J0D01*
G01*
X4250000Y-2708000D02*
G75*
G02*
X4350000Y-2708000I50000J0D01*
G01*
X4250000Y-2912000D02*
X4350000Y-3012000D01*
X4350000Y-2912000D02*
X4250000Y-3012000D01*
X4350000Y-2962000D02*
G75*
G02*
X4250000Y-2962000I-50000J0D01*
G01*
X4250000Y-2962000D02*
G75*
G02*
X4350000Y-2962000I50000J0D01*
G01*
X4250000Y-3166000D02*
X4350000Y-3266000D01*
X4350000Y-3166000D02*
X4250000Y-3266000D01*
X4350000Y-3216000D02*
G75*
G02*
X4250000Y-3216000I-50000J0D01*
G01*
X4250000Y-3216000D02*
G75*
G02*
X4350000Y-3216000I50000J0D01*
G01*
X4250000Y-3420000D02*
X4350000Y-3520000D01*
X4350000Y-3420000D02*
X4250000Y-3520000D01*
X4350000Y-3470000D02*
G75*
G02*
X4250000Y-3470000I-50000J0D01*
G01*
X4250000Y-3470000D02*
G75*
G02*
X4350000Y-3470000I50000J0D01*
G01*
X4700000Y-2150000D02*
X4800000Y-2250000D01*
X4800000Y-2150000D02*
X4700000Y-2250000D01*
X4800000Y-2200000D02*
G75*
G02*
X4700000Y-2200000I-50000J0D01*
G01*
X4700000Y-2200000D02*
G75*
G02*
X4800000Y-2200000I50000J0D01*
G01*
X4700000Y-2404000D02*
X4800000Y-2504000D01*
X4800000Y-2404000D02*
X4700000Y-2504000D01*
X4800000Y-2454000D02*
G75*
G02*
X4700000Y-2454000I-50000J0D01*
G01*
X4700000Y-2454000D02*
G75*
G02*
X4800000Y-2454000I50000J0D01*
G01*
X4700000Y-2658000D02*
X4800000Y-2758000D01*
X4800000Y-2658000D02*
X4700000Y-2758000D01*
X4800000Y-2708000D02*
G75*
G02*
X4700000Y-2708000I-50000J0D01*
G01*
X4700000Y-2708000D02*
G75*
G02*
X4800000Y-2708000I50000J0D01*
G01*
X4700000Y-2912000D02*
X4800000Y-3012000D01*
X4800000Y-2912000D02*
X4700000Y-3012000D01*
X4800000Y-2962000D02*
G75*
G02*
X4700000Y-2962000I-50000J0D01*
G01*
X4700000Y-2962000D02*
G75*
G02*
X4800000Y-2962000I50000J0D01*
G01*
D12*
X6225000Y-1971000D02*
X6345000Y-2091000D01*
X6345000Y-1971000D02*
X6225000Y-2091000D01*
X6285000Y-1971000D02*
X6285000Y-2091000D01*
X6225000Y-2031000D02*
X6345000Y-2031000D01*
X6606500Y-1971000D02*
X6726500Y-2091000D01*
X6726500Y-1971000D02*
X6606500Y-2091000D01*
X6666500Y-1971000D02*
X6666500Y-2091000D01*
X6606500Y-2031000D02*
X6726500Y-2031000D01*
X6606500Y-2669000D02*
X6726500Y-2789000D01*
X6726500Y-2669000D02*
X6606500Y-2789000D01*
X6666500Y-2669000D02*
X6666500Y-2789000D01*
X6606500Y-2729000D02*
X6726500Y-2729000D01*
X7242000Y-1146000D02*
X7362000Y-1266000D01*
X7362000Y-1146000D02*
X7242000Y-1266000D01*
X7302000Y-1146000D02*
X7302000Y-1266000D01*
X7242000Y-1206000D02*
X7362000Y-1206000D01*
D13*
X4980000Y-4780000D02*
X5120000Y-4920000D01*
X5120000Y-4780000D02*
X4980000Y-4920000D01*
X5099498Y-4899498D02*
X5099498Y-4800502D01*
X5000502Y-4800502D01*
X5000502Y-4899498D01*
X5099498Y-4899498D01*
X5488000Y-4780000D02*
X5628000Y-4920000D01*
X5628000Y-4780000D02*
X5488000Y-4920000D01*
X5607498Y-4899498D02*
X5607498Y-4800502D01*
X5508502Y-4800502D01*
X5508502Y-4899498D01*
X5607498Y-4899498D01*
X5996000Y-4780000D02*
X6136000Y-4920000D01*
X6136000Y-4780000D02*
X5996000Y-4920000D01*
X6115498Y-4899498D02*
X6115498Y-4800502D01*
X6016502Y-4800502D01*
X6016502Y-4899498D01*
X6115498Y-4899498D01*
D14*
X6205000Y-1570000D02*
X6365000Y-1730000D01*
X6365000Y-1570000D02*
X6205000Y-1730000D01*
X6285000Y-1730000D02*
X6365000Y-1650000D01*
X6285000Y-1570000D01*
X6205000Y-1650000D01*
X6285000Y-1730000D01*
X6205000Y-2332000D02*
X6365000Y-2492000D01*
X6365000Y-2332000D02*
X6205000Y-2492000D01*
X6285000Y-2492000D02*
X6365000Y-2412000D01*
X6285000Y-2332000D01*
X6205000Y-2412000D01*
X6285000Y-2492000D01*
D11*
X255777Y-5716484D02*
X255777Y-5516484D01*
X255777Y-5516484D02*
X303396Y-5516484D01*
X303396Y-5516484D02*
X331967Y-5526008D01*
X331967Y-5526008D02*
X351015Y-5545055D01*
X351015Y-5545055D02*
X360539Y-5564103D01*
X360539Y-5564103D02*
X370062Y-5602198D01*
X370062Y-5602198D02*
X370062Y-5630769D01*
X370062Y-5630769D02*
X360539Y-5668865D01*
X360539Y-5668865D02*
X351015Y-5687912D01*
X351015Y-5687912D02*
X331967Y-5706960D01*
X331967Y-5706960D02*
X303396Y-5716484D01*
X303396Y-5716484D02*
X255777Y-5716484D01*
X455777Y-5716484D02*
X455777Y-5583150D01*
X455777Y-5621246D02*
X465301Y-5602198D01*
X465301Y-5602198D02*
X474824Y-5592674D01*
X474824Y-5592674D02*
X493872Y-5583150D01*
X493872Y-5583150D02*
X512920Y-5583150D01*
X579586Y-5716484D02*
X579586Y-5583150D01*
X579586Y-5516484D02*
X570063Y-5526008D01*
X570063Y-5526008D02*
X579586Y-5535531D01*
X579586Y-5535531D02*
X589110Y-5526008D01*
X589110Y-5526008D02*
X579586Y-5516484D01*
X579586Y-5516484D02*
X579586Y-5535531D01*
X703396Y-5716484D02*
X684348Y-5706960D01*
X684348Y-5706960D02*
X674824Y-5687912D01*
X674824Y-5687912D02*
X674824Y-5516484D01*
X808158Y-5716484D02*
X789110Y-5706960D01*
X789110Y-5706960D02*
X779586Y-5687912D01*
X779586Y-5687912D02*
X779586Y-5516484D01*
X1036729Y-5716484D02*
X1036729Y-5516484D01*
X1036729Y-5516484D02*
X1103396Y-5659341D01*
X1103396Y-5659341D02*
X1170063Y-5516484D01*
X1170063Y-5516484D02*
X1170063Y-5716484D01*
X1351015Y-5716484D02*
X1351015Y-5611722D01*
X1351015Y-5611722D02*
X1341491Y-5592674D01*
X1341491Y-5592674D02*
X1322444Y-5583150D01*
X1322444Y-5583150D02*
X1284348Y-5583150D01*
X1284348Y-5583150D02*
X1265301Y-5592674D01*
X1351015Y-5706960D02*
X1331967Y-5716484D01*
X1331967Y-5716484D02*
X1284348Y-5716484D01*
X1284348Y-5716484D02*
X1265301Y-5706960D01*
X1265301Y-5706960D02*
X1255777Y-5687912D01*
X1255777Y-5687912D02*
X1255777Y-5668865D01*
X1255777Y-5668865D02*
X1265301Y-5649817D01*
X1265301Y-5649817D02*
X1284348Y-5640293D01*
X1284348Y-5640293D02*
X1331967Y-5640293D01*
X1331967Y-5640293D02*
X1351015Y-5630769D01*
X1446253Y-5583150D02*
X1446253Y-5783150D01*
X1446253Y-5592674D02*
X1465301Y-5583150D01*
X1465301Y-5583150D02*
X1503396Y-5583150D01*
X1503396Y-5583150D02*
X1522443Y-5592674D01*
X1522443Y-5592674D02*
X1531967Y-5602198D01*
X1531967Y-5602198D02*
X1541491Y-5621246D01*
X1541491Y-5621246D02*
X1541491Y-5678388D01*
X1541491Y-5678388D02*
X1531967Y-5697436D01*
X1531967Y-5697436D02*
X1522443Y-5706960D01*
X1522443Y-5706960D02*
X1503396Y-5716484D01*
X1503396Y-5716484D02*
X1465301Y-5716484D01*
X1465301Y-5716484D02*
X1446253Y-5706960D01*
X1627205Y-5697436D02*
X1636729Y-5706960D01*
X1636729Y-5706960D02*
X1627205Y-5716484D01*
X1627205Y-5716484D02*
X1617682Y-5706960D01*
X1617682Y-5706960D02*
X1627205Y-5697436D01*
X1627205Y-5697436D02*
X1627205Y-5716484D01*
X1627205Y-5592674D02*
X1636729Y-5602198D01*
X1636729Y-5602198D02*
X1627205Y-5611722D01*
X1627205Y-5611722D02*
X1617682Y-5602198D01*
X1617682Y-5602198D02*
X1627205Y-5592674D01*
X1627205Y-5592674D02*
X1627205Y-5611722D01*
D10*
X-35000Y-6030000D02*
X-5000Y-6060000D01*
X-5000Y-6030000D02*
X-35000Y-6060000D01*
D11*
X293872Y-5936484D02*
X312920Y-5936484D01*
X312920Y-5936484D02*
X331967Y-5946008D01*
X331967Y-5946008D02*
X341491Y-5955531D01*
X341491Y-5955531D02*
X351015Y-5974579D01*
X351015Y-5974579D02*
X360539Y-6012674D01*
X360539Y-6012674D02*
X360539Y-6060293D01*
X360539Y-6060293D02*
X351015Y-6098388D01*
X351015Y-6098388D02*
X341491Y-6117436D01*
X341491Y-6117436D02*
X331967Y-6126960D01*
X331967Y-6126960D02*
X312920Y-6136484D01*
X312920Y-6136484D02*
X293872Y-6136484D01*
X293872Y-6136484D02*
X274824Y-6126960D01*
X274824Y-6126960D02*
X265301Y-6117436D01*
X265301Y-6117436D02*
X255777Y-6098388D01*
X255777Y-6098388D02*
X246253Y-6060293D01*
X246253Y-6060293D02*
X246253Y-6012674D01*
X246253Y-6012674D02*
X255777Y-5974579D01*
X255777Y-5974579D02*
X265301Y-5955531D01*
X265301Y-5955531D02*
X274824Y-5946008D01*
X274824Y-5946008D02*
X293872Y-5936484D01*
X446253Y-6117436D02*
X455777Y-6126960D01*
X455777Y-6126960D02*
X446253Y-6136484D01*
X446253Y-6136484D02*
X436729Y-6126960D01*
X436729Y-6126960D02*
X446253Y-6117436D01*
X446253Y-6117436D02*
X446253Y-6136484D01*
X522443Y-5936484D02*
X646253Y-5936484D01*
X646253Y-5936484D02*
X579586Y-6012674D01*
X579586Y-6012674D02*
X608158Y-6012674D01*
X608158Y-6012674D02*
X627205Y-6022198D01*
X627205Y-6022198D02*
X636729Y-6031722D01*
X636729Y-6031722D02*
X646253Y-6050769D01*
X646253Y-6050769D02*
X646253Y-6098388D01*
X646253Y-6098388D02*
X636729Y-6117436D01*
X636729Y-6117436D02*
X627205Y-6126960D01*
X627205Y-6126960D02*
X608158Y-6136484D01*
X608158Y-6136484D02*
X551015Y-6136484D01*
X551015Y-6136484D02*
X531967Y-6126960D01*
X531967Y-6126960D02*
X522443Y-6117436D01*
X770062Y-5936484D02*
X789110Y-5936484D01*
X789110Y-5936484D02*
X808158Y-5946008D01*
X808158Y-5946008D02*
X817682Y-5955531D01*
X817682Y-5955531D02*
X827205Y-5974579D01*
X827205Y-5974579D02*
X836729Y-6012674D01*
X836729Y-6012674D02*
X836729Y-6060293D01*
X836729Y-6060293D02*
X827205Y-6098388D01*
X827205Y-6098388D02*
X817682Y-6117436D01*
X817682Y-6117436D02*
X808158Y-6126960D01*
X808158Y-6126960D02*
X789110Y-6136484D01*
X789110Y-6136484D02*
X770062Y-6136484D01*
X770062Y-6136484D02*
X751015Y-6126960D01*
X751015Y-6126960D02*
X741491Y-6117436D01*
X741491Y-6117436D02*
X731967Y-6098388D01*
X731967Y-6098388D02*
X722443Y-6060293D01*
X722443Y-6060293D02*
X722443Y-6012674D01*
X722443Y-6012674D02*
X731967Y-5974579D01*
X731967Y-5974579D02*
X741491Y-5955531D01*
X741491Y-5955531D02*
X751015Y-5946008D01*
X751015Y-5946008D02*
X770062Y-5936484D01*
X960539Y-5936484D02*
X979586Y-5936484D01*
X979586Y-5936484D02*
X998634Y-5946008D01*
X998634Y-5946008D02*
X1008158Y-5955531D01*
X1008158Y-5955531D02*
X1017682Y-5974579D01*
X1017682Y-5974579D02*
X1027205Y-6012674D01*
X1027205Y-6012674D02*
X1027205Y-6060293D01*
X1027205Y-6060293D02*
X1017682Y-6098388D01*
X1017682Y-6098388D02*
X1008158Y-6117436D01*
X1008158Y-6117436D02*
X998634Y-6126960D01*
X998634Y-6126960D02*
X979586Y-6136484D01*
X979586Y-6136484D02*
X960539Y-6136484D01*
X960539Y-6136484D02*
X941491Y-6126960D01*
X941491Y-6126960D02*
X931967Y-6117436D01*
X931967Y-6117436D02*
X922443Y-6098388D01*
X922443Y-6098388D02*
X912920Y-6060293D01*
X912920Y-6060293D02*
X912920Y-6012674D01*
X912920Y-6012674D02*
X922443Y-5974579D01*
X922443Y-5974579D02*
X931967Y-5955531D01*
X931967Y-5955531D02*
X941491Y-5946008D01*
X941491Y-5946008D02*
X960539Y-5936484D01*
X1112920Y-6136484D02*
X1112920Y-6003150D01*
X1112920Y-6022198D02*
X1122444Y-6012674D01*
X1122444Y-6012674D02*
X1141491Y-6003150D01*
X1141491Y-6003150D02*
X1170063Y-6003150D01*
X1170063Y-6003150D02*
X1189110Y-6012674D01*
X1189110Y-6012674D02*
X1198634Y-6031722D01*
X1198634Y-6031722D02*
X1198634Y-6136484D01*
X1198634Y-6031722D02*
X1208158Y-6012674D01*
X1208158Y-6012674D02*
X1227205Y-6003150D01*
X1227205Y-6003150D02*
X1255777Y-6003150D01*
X1255777Y-6003150D02*
X1274825Y-6012674D01*
X1274825Y-6012674D02*
X1284348Y-6031722D01*
X1284348Y-6031722D02*
X1284348Y-6136484D01*
X1379586Y-6136484D02*
X1379586Y-6003150D01*
X1379586Y-6022198D02*
X1389110Y-6012674D01*
X1389110Y-6012674D02*
X1408158Y-6003150D01*
X1408158Y-6003150D02*
X1436729Y-6003150D01*
X1436729Y-6003150D02*
X1455777Y-6012674D01*
X1455777Y-6012674D02*
X1465301Y-6031722D01*
X1465301Y-6031722D02*
X1465301Y-6136484D01*
X1465301Y-6031722D02*
X1474824Y-6012674D01*
X1474824Y-6012674D02*
X1493872Y-6003150D01*
X1493872Y-6003150D02*
X1522443Y-6003150D01*
X1522443Y-6003150D02*
X1541491Y-6012674D01*
X1541491Y-6012674D02*
X1551015Y-6031722D01*
X1551015Y-6031722D02*
X1551015Y-6136484D01*
X1941491Y-5926960D02*
X1770063Y-6184103D01*
X2198634Y-5936484D02*
X2217682Y-5936484D01*
X2217682Y-5936484D02*
X2236729Y-5946008D01*
X2236729Y-5946008D02*
X2246253Y-5955531D01*
X2246253Y-5955531D02*
X2255777Y-5974579D01*
X2255777Y-5974579D02*
X2265301Y-6012674D01*
X2265301Y-6012674D02*
X2265301Y-6060293D01*
X2265301Y-6060293D02*
X2255777Y-6098388D01*
X2255777Y-6098388D02*
X2246253Y-6117436D01*
X2246253Y-6117436D02*
X2236729Y-6126960D01*
X2236729Y-6126960D02*
X2217682Y-6136484D01*
X2217682Y-6136484D02*
X2198634Y-6136484D01*
X2198634Y-6136484D02*
X2179587Y-6126960D01*
X2179587Y-6126960D02*
X2170063Y-6117436D01*
X2170063Y-6117436D02*
X2160539Y-6098388D01*
X2160539Y-6098388D02*
X2151015Y-6060293D01*
X2151015Y-6060293D02*
X2151015Y-6012674D01*
X2151015Y-6012674D02*
X2160539Y-5974579D01*
X2160539Y-5974579D02*
X2170063Y-5955531D01*
X2170063Y-5955531D02*
X2179587Y-5946008D01*
X2179587Y-5946008D02*
X2198634Y-5936484D01*
X2351015Y-6117436D02*
X2360539Y-6126960D01*
X2360539Y-6126960D02*
X2351015Y-6136484D01*
X2351015Y-6136484D02*
X2341491Y-6126960D01*
X2341491Y-6126960D02*
X2351015Y-6117436D01*
X2351015Y-6117436D02*
X2351015Y-6136484D01*
X2484348Y-5936484D02*
X2503396Y-5936484D01*
X2503396Y-5936484D02*
X2522444Y-5946008D01*
X2522444Y-5946008D02*
X2531968Y-5955531D01*
X2531968Y-5955531D02*
X2541491Y-5974579D01*
X2541491Y-5974579D02*
X2551015Y-6012674D01*
X2551015Y-6012674D02*
X2551015Y-6060293D01*
X2551015Y-6060293D02*
X2541491Y-6098388D01*
X2541491Y-6098388D02*
X2531968Y-6117436D01*
X2531968Y-6117436D02*
X2522444Y-6126960D01*
X2522444Y-6126960D02*
X2503396Y-6136484D01*
X2503396Y-6136484D02*
X2484348Y-6136484D01*
X2484348Y-6136484D02*
X2465301Y-6126960D01*
X2465301Y-6126960D02*
X2455777Y-6117436D01*
X2455777Y-6117436D02*
X2446253Y-6098388D01*
X2446253Y-6098388D02*
X2436729Y-6060293D01*
X2436729Y-6060293D02*
X2436729Y-6012674D01*
X2436729Y-6012674D02*
X2446253Y-5974579D01*
X2446253Y-5974579D02*
X2455777Y-5955531D01*
X2455777Y-5955531D02*
X2465301Y-5946008D01*
X2465301Y-5946008D02*
X2484348Y-5936484D01*
X2741491Y-6136484D02*
X2627206Y-6136484D01*
X2684348Y-6136484D02*
X2684348Y-5936484D01*
X2684348Y-5936484D02*
X2665301Y-5965055D01*
X2665301Y-5965055D02*
X2646253Y-5984103D01*
X2646253Y-5984103D02*
X2627206Y-5993627D01*
X2931967Y-6136484D02*
X2817682Y-6136484D01*
X2874825Y-6136484D02*
X2874825Y-5936484D01*
X2874825Y-5936484D02*
X2855777Y-5965055D01*
X2855777Y-5965055D02*
X2836729Y-5984103D01*
X2836729Y-5984103D02*
X2817682Y-5993627D01*
X3046253Y-6022198D02*
X3027206Y-6012674D01*
X3027206Y-6012674D02*
X3017682Y-6003150D01*
X3017682Y-6003150D02*
X3008158Y-5984103D01*
X3008158Y-5984103D02*
X3008158Y-5974579D01*
X3008158Y-5974579D02*
X3017682Y-5955531D01*
X3017682Y-5955531D02*
X3027206Y-5946008D01*
X3027206Y-5946008D02*
X3046253Y-5936484D01*
X3046253Y-5936484D02*
X3084348Y-5936484D01*
X3084348Y-5936484D02*
X3103396Y-5946008D01*
X3103396Y-5946008D02*
X3112920Y-5955531D01*
X3112920Y-5955531D02*
X3122444Y-5974579D01*
X3122444Y-5974579D02*
X3122444Y-5984103D01*
X3122444Y-5984103D02*
X3112920Y-6003150D01*
X3112920Y-6003150D02*
X3103396Y-6012674D01*
X3103396Y-6012674D02*
X3084348Y-6022198D01*
X3084348Y-6022198D02*
X3046253Y-6022198D01*
X3046253Y-6022198D02*
X3027206Y-6031722D01*
X3027206Y-6031722D02*
X3017682Y-6041246D01*
X3017682Y-6041246D02*
X3008158Y-6060293D01*
X3008158Y-6060293D02*
X3008158Y-6098388D01*
X3008158Y-6098388D02*
X3017682Y-6117436D01*
X3017682Y-6117436D02*
X3027206Y-6126960D01*
X3027206Y-6126960D02*
X3046253Y-6136484D01*
X3046253Y-6136484D02*
X3084348Y-6136484D01*
X3084348Y-6136484D02*
X3103396Y-6126960D01*
X3103396Y-6126960D02*
X3112920Y-6117436D01*
X3112920Y-6117436D02*
X3122444Y-6098388D01*
X3122444Y-6098388D02*
X3122444Y-6060293D01*
X3122444Y-6060293D02*
X3112920Y-6041246D01*
X3112920Y-6041246D02*
X3103396Y-6031722D01*
X3103396Y-6031722D02*
X3084348Y-6022198D01*
X3198634Y-5936484D02*
X3198634Y-5974579D01*
X3274825Y-5936484D02*
X3274825Y-5974579D01*
X3570063Y-6212674D02*
X3560539Y-6203150D01*
X3560539Y-6203150D02*
X3541491Y-6174579D01*
X3541491Y-6174579D02*
X3531968Y-6155531D01*
X3531968Y-6155531D02*
X3522444Y-6126960D01*
X3522444Y-6126960D02*
X3512920Y-6079341D01*
X3512920Y-6079341D02*
X3512920Y-6041246D01*
X3512920Y-6041246D02*
X3522444Y-5993627D01*
X3522444Y-5993627D02*
X3531968Y-5965055D01*
X3531968Y-5965055D02*
X3541491Y-5946008D01*
X3541491Y-5946008D02*
X3560539Y-5917436D01*
X3560539Y-5917436D02*
X3570063Y-5907912D01*
X3627206Y-5936484D02*
X3751015Y-5936484D01*
X3751015Y-5936484D02*
X3684348Y-6012674D01*
X3684348Y-6012674D02*
X3712920Y-6012674D01*
X3712920Y-6012674D02*
X3731968Y-6022198D01*
X3731968Y-6022198D02*
X3741491Y-6031722D01*
X3741491Y-6031722D02*
X3751015Y-6050769D01*
X3751015Y-6050769D02*
X3751015Y-6098388D01*
X3751015Y-6098388D02*
X3741491Y-6117436D01*
X3741491Y-6117436D02*
X3731968Y-6126960D01*
X3731968Y-6126960D02*
X3712920Y-6136484D01*
X3712920Y-6136484D02*
X3655777Y-6136484D01*
X3655777Y-6136484D02*
X3636729Y-6126960D01*
X3636729Y-6126960D02*
X3627206Y-6117436D01*
X3817682Y-5936484D02*
X3941491Y-5936484D01*
X3941491Y-5936484D02*
X3874825Y-6012674D01*
X3874825Y-6012674D02*
X3903396Y-6012674D01*
X3903396Y-6012674D02*
X3922444Y-6022198D01*
X3922444Y-6022198D02*
X3931968Y-6031722D01*
X3931968Y-6031722D02*
X3941491Y-6050769D01*
X3941491Y-6050769D02*
X3941491Y-6098388D01*
X3941491Y-6098388D02*
X3931968Y-6117436D01*
X3931968Y-6117436D02*
X3922444Y-6126960D01*
X3922444Y-6126960D02*
X3903396Y-6136484D01*
X3903396Y-6136484D02*
X3846253Y-6136484D01*
X3846253Y-6136484D02*
X3827206Y-6126960D01*
X3827206Y-6126960D02*
X3817682Y-6117436D01*
X4179587Y-6136484D02*
X4179587Y-5936484D01*
X4265301Y-6136484D02*
X4265301Y-6031722D01*
X4265301Y-6031722D02*
X4255777Y-6012674D01*
X4255777Y-6012674D02*
X4236730Y-6003150D01*
X4236730Y-6003150D02*
X4208158Y-6003150D01*
X4208158Y-6003150D02*
X4189110Y-6012674D01*
X4189110Y-6012674D02*
X4179587Y-6022198D01*
X4389111Y-6136484D02*
X4370063Y-6126960D01*
X4370063Y-6126960D02*
X4360539Y-6117436D01*
X4360539Y-6117436D02*
X4351015Y-6098388D01*
X4351015Y-6098388D02*
X4351015Y-6041246D01*
X4351015Y-6041246D02*
X4360539Y-6022198D01*
X4360539Y-6022198D02*
X4370063Y-6012674D01*
X4370063Y-6012674D02*
X4389111Y-6003150D01*
X4389111Y-6003150D02*
X4417682Y-6003150D01*
X4417682Y-6003150D02*
X4436730Y-6012674D01*
X4436730Y-6012674D02*
X4446253Y-6022198D01*
X4446253Y-6022198D02*
X4455777Y-6041246D01*
X4455777Y-6041246D02*
X4455777Y-6098388D01*
X4455777Y-6098388D02*
X4446253Y-6117436D01*
X4446253Y-6117436D02*
X4436730Y-6126960D01*
X4436730Y-6126960D02*
X4417682Y-6136484D01*
X4417682Y-6136484D02*
X4389111Y-6136484D01*
X4570063Y-6136484D02*
X4551015Y-6126960D01*
X4551015Y-6126960D02*
X4541492Y-6107912D01*
X4541492Y-6107912D02*
X4541492Y-5936484D01*
X4722444Y-6126960D02*
X4703396Y-6136484D01*
X4703396Y-6136484D02*
X4665301Y-6136484D01*
X4665301Y-6136484D02*
X4646253Y-6126960D01*
X4646253Y-6126960D02*
X4636730Y-6107912D01*
X4636730Y-6107912D02*
X4636730Y-6031722D01*
X4636730Y-6031722D02*
X4646253Y-6012674D01*
X4646253Y-6012674D02*
X4665301Y-6003150D01*
X4665301Y-6003150D02*
X4703396Y-6003150D01*
X4703396Y-6003150D02*
X4722444Y-6012674D01*
X4722444Y-6012674D02*
X4731968Y-6031722D01*
X4731968Y-6031722D02*
X4731968Y-6050769D01*
X4731968Y-6050769D02*
X4636730Y-6069817D01*
X4808158Y-6126960D02*
X4827206Y-6136484D01*
X4827206Y-6136484D02*
X4865301Y-6136484D01*
X4865301Y-6136484D02*
X4884349Y-6126960D01*
X4884349Y-6126960D02*
X4893873Y-6107912D01*
X4893873Y-6107912D02*
X4893873Y-6098388D01*
X4893873Y-6098388D02*
X4884349Y-6079341D01*
X4884349Y-6079341D02*
X4865301Y-6069817D01*
X4865301Y-6069817D02*
X4836730Y-6069817D01*
X4836730Y-6069817D02*
X4817682Y-6060293D01*
X4817682Y-6060293D02*
X4808158Y-6041246D01*
X4808158Y-6041246D02*
X4808158Y-6031722D01*
X4808158Y-6031722D02*
X4817682Y-6012674D01*
X4817682Y-6012674D02*
X4836730Y-6003150D01*
X4836730Y-6003150D02*
X4865301Y-6003150D01*
X4865301Y-6003150D02*
X4884349Y-6012674D01*
X4960539Y-6212674D02*
X4970063Y-6203150D01*
X4970063Y-6203150D02*
X4989111Y-6174579D01*
X4989111Y-6174579D02*
X4998634Y-6155531D01*
X4998634Y-6155531D02*
X5008158Y-6126960D01*
X5008158Y-6126960D02*
X5017682Y-6079341D01*
X5017682Y-6079341D02*
X5017682Y-6041246D01*
X5017682Y-6041246D02*
X5008158Y-5993627D01*
X5008158Y-5993627D02*
X4998634Y-5965055D01*
X4998634Y-5965055D02*
X4989111Y-5946008D01*
X4989111Y-5946008D02*
X4970063Y-5917436D01*
X4970063Y-5917436D02*
X4960539Y-5907912D01*
D10*
X-5000Y-6309000D02*
G75*
G02*
X-35000Y-6309000I-15000J0D01*
G01*
X-35000Y-6309000D02*
G75*
G02*
X-5000Y-6309000I15000J0D01*
G01*
D11*
X293872Y-6200484D02*
X312920Y-6200484D01*
X312920Y-6200484D02*
X331967Y-6210008D01*
X331967Y-6210008D02*
X341491Y-6219531D01*
X341491Y-6219531D02*
X351015Y-6238579D01*
X351015Y-6238579D02*
X360539Y-6276674D01*
X360539Y-6276674D02*
X360539Y-6324293D01*
X360539Y-6324293D02*
X351015Y-6362388D01*
X351015Y-6362388D02*
X341491Y-6381436D01*
X341491Y-6381436D02*
X331967Y-6390960D01*
X331967Y-6390960D02*
X312920Y-6400484D01*
X312920Y-6400484D02*
X293872Y-6400484D01*
X293872Y-6400484D02*
X274824Y-6390960D01*
X274824Y-6390960D02*
X265301Y-6381436D01*
X265301Y-6381436D02*
X255777Y-6362388D01*
X255777Y-6362388D02*
X246253Y-6324293D01*
X246253Y-6324293D02*
X246253Y-6276674D01*
X246253Y-6276674D02*
X255777Y-6238579D01*
X255777Y-6238579D02*
X265301Y-6219531D01*
X265301Y-6219531D02*
X274824Y-6210008D01*
X274824Y-6210008D02*
X293872Y-6200484D01*
X446253Y-6381436D02*
X455777Y-6390960D01*
X455777Y-6390960D02*
X446253Y-6400484D01*
X446253Y-6400484D02*
X436729Y-6390960D01*
X436729Y-6390960D02*
X446253Y-6381436D01*
X446253Y-6381436D02*
X446253Y-6400484D01*
X522443Y-6200484D02*
X646253Y-6200484D01*
X646253Y-6200484D02*
X579586Y-6276674D01*
X579586Y-6276674D02*
X608158Y-6276674D01*
X608158Y-6276674D02*
X627205Y-6286198D01*
X627205Y-6286198D02*
X636729Y-6295722D01*
X636729Y-6295722D02*
X646253Y-6314769D01*
X646253Y-6314769D02*
X646253Y-6362388D01*
X646253Y-6362388D02*
X636729Y-6381436D01*
X636729Y-6381436D02*
X627205Y-6390960D01*
X627205Y-6390960D02*
X608158Y-6400484D01*
X608158Y-6400484D02*
X551015Y-6400484D01*
X551015Y-6400484D02*
X531967Y-6390960D01*
X531967Y-6390960D02*
X522443Y-6381436D01*
X770062Y-6200484D02*
X789110Y-6200484D01*
X789110Y-6200484D02*
X808158Y-6210008D01*
X808158Y-6210008D02*
X817682Y-6219531D01*
X817682Y-6219531D02*
X827205Y-6238579D01*
X827205Y-6238579D02*
X836729Y-6276674D01*
X836729Y-6276674D02*
X836729Y-6324293D01*
X836729Y-6324293D02*
X827205Y-6362388D01*
X827205Y-6362388D02*
X817682Y-6381436D01*
X817682Y-6381436D02*
X808158Y-6390960D01*
X808158Y-6390960D02*
X789110Y-6400484D01*
X789110Y-6400484D02*
X770062Y-6400484D01*
X770062Y-6400484D02*
X751015Y-6390960D01*
X751015Y-6390960D02*
X741491Y-6381436D01*
X741491Y-6381436D02*
X731967Y-6362388D01*
X731967Y-6362388D02*
X722443Y-6324293D01*
X722443Y-6324293D02*
X722443Y-6276674D01*
X722443Y-6276674D02*
X731967Y-6238579D01*
X731967Y-6238579D02*
X741491Y-6219531D01*
X741491Y-6219531D02*
X751015Y-6210008D01*
X751015Y-6210008D02*
X770062Y-6200484D01*
X960539Y-6200484D02*
X979586Y-6200484D01*
X979586Y-6200484D02*
X998634Y-6210008D01*
X998634Y-6210008D02*
X1008158Y-6219531D01*
X1008158Y-6219531D02*
X1017682Y-6238579D01*
X1017682Y-6238579D02*
X1027205Y-6276674D01*
X1027205Y-6276674D02*
X1027205Y-6324293D01*
X1027205Y-6324293D02*
X1017682Y-6362388D01*
X1017682Y-6362388D02*
X1008158Y-6381436D01*
X1008158Y-6381436D02*
X998634Y-6390960D01*
X998634Y-6390960D02*
X979586Y-6400484D01*
X979586Y-6400484D02*
X960539Y-6400484D01*
X960539Y-6400484D02*
X941491Y-6390960D01*
X941491Y-6390960D02*
X931967Y-6381436D01*
X931967Y-6381436D02*
X922443Y-6362388D01*
X922443Y-6362388D02*
X912920Y-6324293D01*
X912920Y-6324293D02*
X912920Y-6276674D01*
X912920Y-6276674D02*
X922443Y-6238579D01*
X922443Y-6238579D02*
X931967Y-6219531D01*
X931967Y-6219531D02*
X941491Y-6210008D01*
X941491Y-6210008D02*
X960539Y-6200484D01*
X1112920Y-6400484D02*
X1112920Y-6267150D01*
X1112920Y-6286198D02*
X1122444Y-6276674D01*
X1122444Y-6276674D02*
X1141491Y-6267150D01*
X1141491Y-6267150D02*
X1170063Y-6267150D01*
X1170063Y-6267150D02*
X1189110Y-6276674D01*
X1189110Y-6276674D02*
X1198634Y-6295722D01*
X1198634Y-6295722D02*
X1198634Y-6400484D01*
X1198634Y-6295722D02*
X1208158Y-6276674D01*
X1208158Y-6276674D02*
X1227205Y-6267150D01*
X1227205Y-6267150D02*
X1255777Y-6267150D01*
X1255777Y-6267150D02*
X1274825Y-6276674D01*
X1274825Y-6276674D02*
X1284348Y-6295722D01*
X1284348Y-6295722D02*
X1284348Y-6400484D01*
X1379586Y-6400484D02*
X1379586Y-6267150D01*
X1379586Y-6286198D02*
X1389110Y-6276674D01*
X1389110Y-6276674D02*
X1408158Y-6267150D01*
X1408158Y-6267150D02*
X1436729Y-6267150D01*
X1436729Y-6267150D02*
X1455777Y-6276674D01*
X1455777Y-6276674D02*
X1465301Y-6295722D01*
X1465301Y-6295722D02*
X1465301Y-6400484D01*
X1465301Y-6295722D02*
X1474824Y-6276674D01*
X1474824Y-6276674D02*
X1493872Y-6267150D01*
X1493872Y-6267150D02*
X1522443Y-6267150D01*
X1522443Y-6267150D02*
X1541491Y-6276674D01*
X1541491Y-6276674D02*
X1551015Y-6295722D01*
X1551015Y-6295722D02*
X1551015Y-6400484D01*
X1941491Y-6190960D02*
X1770063Y-6448103D01*
X2198634Y-6200484D02*
X2217682Y-6200484D01*
X2217682Y-6200484D02*
X2236729Y-6210008D01*
X2236729Y-6210008D02*
X2246253Y-6219531D01*
X2246253Y-6219531D02*
X2255777Y-6238579D01*
X2255777Y-6238579D02*
X2265301Y-6276674D01*
X2265301Y-6276674D02*
X2265301Y-6324293D01*
X2265301Y-6324293D02*
X2255777Y-6362388D01*
X2255777Y-6362388D02*
X2246253Y-6381436D01*
X2246253Y-6381436D02*
X2236729Y-6390960D01*
X2236729Y-6390960D02*
X2217682Y-6400484D01*
X2217682Y-6400484D02*
X2198634Y-6400484D01*
X2198634Y-6400484D02*
X2179587Y-6390960D01*
X2179587Y-6390960D02*
X2170063Y-6381436D01*
X2170063Y-6381436D02*
X2160539Y-6362388D01*
X2160539Y-6362388D02*
X2151015Y-6324293D01*
X2151015Y-6324293D02*
X2151015Y-6276674D01*
X2151015Y-6276674D02*
X2160539Y-6238579D01*
X2160539Y-6238579D02*
X2170063Y-6219531D01*
X2170063Y-6219531D02*
X2179587Y-6210008D01*
X2179587Y-6210008D02*
X2198634Y-6200484D01*
X2351015Y-6381436D02*
X2360539Y-6390960D01*
X2360539Y-6390960D02*
X2351015Y-6400484D01*
X2351015Y-6400484D02*
X2341491Y-6390960D01*
X2341491Y-6390960D02*
X2351015Y-6381436D01*
X2351015Y-6381436D02*
X2351015Y-6400484D01*
X2484348Y-6200484D02*
X2503396Y-6200484D01*
X2503396Y-6200484D02*
X2522444Y-6210008D01*
X2522444Y-6210008D02*
X2531968Y-6219531D01*
X2531968Y-6219531D02*
X2541491Y-6238579D01*
X2541491Y-6238579D02*
X2551015Y-6276674D01*
X2551015Y-6276674D02*
X2551015Y-6324293D01*
X2551015Y-6324293D02*
X2541491Y-6362388D01*
X2541491Y-6362388D02*
X2531968Y-6381436D01*
X2531968Y-6381436D02*
X2522444Y-6390960D01*
X2522444Y-6390960D02*
X2503396Y-6400484D01*
X2503396Y-6400484D02*
X2484348Y-6400484D01*
X2484348Y-6400484D02*
X2465301Y-6390960D01*
X2465301Y-6390960D02*
X2455777Y-6381436D01*
X2455777Y-6381436D02*
X2446253Y-6362388D01*
X2446253Y-6362388D02*
X2436729Y-6324293D01*
X2436729Y-6324293D02*
X2436729Y-6276674D01*
X2436729Y-6276674D02*
X2446253Y-6238579D01*
X2446253Y-6238579D02*
X2455777Y-6219531D01*
X2455777Y-6219531D02*
X2465301Y-6210008D01*
X2465301Y-6210008D02*
X2484348Y-6200484D01*
X2741491Y-6400484D02*
X2627206Y-6400484D01*
X2684348Y-6400484D02*
X2684348Y-6200484D01*
X2684348Y-6200484D02*
X2665301Y-6229055D01*
X2665301Y-6229055D02*
X2646253Y-6248103D01*
X2646253Y-6248103D02*
X2627206Y-6257627D01*
X2931967Y-6400484D02*
X2817682Y-6400484D01*
X2874825Y-6400484D02*
X2874825Y-6200484D01*
X2874825Y-6200484D02*
X2855777Y-6229055D01*
X2855777Y-6229055D02*
X2836729Y-6248103D01*
X2836729Y-6248103D02*
X2817682Y-6257627D01*
X3046253Y-6286198D02*
X3027206Y-6276674D01*
X3027206Y-6276674D02*
X3017682Y-6267150D01*
X3017682Y-6267150D02*
X3008158Y-6248103D01*
X3008158Y-6248103D02*
X3008158Y-6238579D01*
X3008158Y-6238579D02*
X3017682Y-6219531D01*
X3017682Y-6219531D02*
X3027206Y-6210008D01*
X3027206Y-6210008D02*
X3046253Y-6200484D01*
X3046253Y-6200484D02*
X3084348Y-6200484D01*
X3084348Y-6200484D02*
X3103396Y-6210008D01*
X3103396Y-6210008D02*
X3112920Y-6219531D01*
X3112920Y-6219531D02*
X3122444Y-6238579D01*
X3122444Y-6238579D02*
X3122444Y-6248103D01*
X3122444Y-6248103D02*
X3112920Y-6267150D01*
X3112920Y-6267150D02*
X3103396Y-6276674D01*
X3103396Y-6276674D02*
X3084348Y-6286198D01*
X3084348Y-6286198D02*
X3046253Y-6286198D01*
X3046253Y-6286198D02*
X3027206Y-6295722D01*
X3027206Y-6295722D02*
X3017682Y-6305246D01*
X3017682Y-6305246D02*
X3008158Y-6324293D01*
X3008158Y-6324293D02*
X3008158Y-6362388D01*
X3008158Y-6362388D02*
X3017682Y-6381436D01*
X3017682Y-6381436D02*
X3027206Y-6390960D01*
X3027206Y-6390960D02*
X3046253Y-6400484D01*
X3046253Y-6400484D02*
X3084348Y-6400484D01*
X3084348Y-6400484D02*
X3103396Y-6390960D01*
X3103396Y-6390960D02*
X3112920Y-6381436D01*
X3112920Y-6381436D02*
X3122444Y-6362388D01*
X3122444Y-6362388D02*
X3122444Y-6324293D01*
X3122444Y-6324293D02*
X3112920Y-6305246D01*
X3112920Y-6305246D02*
X3103396Y-6295722D01*
X3103396Y-6295722D02*
X3084348Y-6286198D01*
X3198634Y-6200484D02*
X3198634Y-6238579D01*
X3274825Y-6200484D02*
X3274825Y-6238579D01*
X3570063Y-6476674D02*
X3560539Y-6467150D01*
X3560539Y-6467150D02*
X3541491Y-6438579D01*
X3541491Y-6438579D02*
X3531968Y-6419531D01*
X3531968Y-6419531D02*
X3522444Y-6390960D01*
X3522444Y-6390960D02*
X3512920Y-6343341D01*
X3512920Y-6343341D02*
X3512920Y-6305246D01*
X3512920Y-6305246D02*
X3522444Y-6257627D01*
X3522444Y-6257627D02*
X3531968Y-6229055D01*
X3531968Y-6229055D02*
X3541491Y-6210008D01*
X3541491Y-6210008D02*
X3560539Y-6181436D01*
X3560539Y-6181436D02*
X3570063Y-6171912D01*
X3751015Y-6400484D02*
X3636729Y-6400484D01*
X3693872Y-6400484D02*
X3693872Y-6200484D01*
X3693872Y-6200484D02*
X3674825Y-6229055D01*
X3674825Y-6229055D02*
X3655777Y-6248103D01*
X3655777Y-6248103D02*
X3636729Y-6257627D01*
X3827206Y-6219531D02*
X3836729Y-6210008D01*
X3836729Y-6210008D02*
X3855777Y-6200484D01*
X3855777Y-6200484D02*
X3903396Y-6200484D01*
X3903396Y-6200484D02*
X3922444Y-6210008D01*
X3922444Y-6210008D02*
X3931968Y-6219531D01*
X3931968Y-6219531D02*
X3941491Y-6238579D01*
X3941491Y-6238579D02*
X3941491Y-6257627D01*
X3941491Y-6257627D02*
X3931968Y-6286198D01*
X3931968Y-6286198D02*
X3817682Y-6400484D01*
X3817682Y-6400484D02*
X3941491Y-6400484D01*
X4179587Y-6400484D02*
X4179587Y-6200484D01*
X4265301Y-6400484D02*
X4265301Y-6295722D01*
X4265301Y-6295722D02*
X4255777Y-6276674D01*
X4255777Y-6276674D02*
X4236730Y-6267150D01*
X4236730Y-6267150D02*
X4208158Y-6267150D01*
X4208158Y-6267150D02*
X4189110Y-6276674D01*
X4189110Y-6276674D02*
X4179587Y-6286198D01*
X4389111Y-6400484D02*
X4370063Y-6390960D01*
X4370063Y-6390960D02*
X4360539Y-6381436D01*
X4360539Y-6381436D02*
X4351015Y-6362388D01*
X4351015Y-6362388D02*
X4351015Y-6305246D01*
X4351015Y-6305246D02*
X4360539Y-6286198D01*
X4360539Y-6286198D02*
X4370063Y-6276674D01*
X4370063Y-6276674D02*
X4389111Y-6267150D01*
X4389111Y-6267150D02*
X4417682Y-6267150D01*
X4417682Y-6267150D02*
X4436730Y-6276674D01*
X4436730Y-6276674D02*
X4446253Y-6286198D01*
X4446253Y-6286198D02*
X4455777Y-6305246D01*
X4455777Y-6305246D02*
X4455777Y-6362388D01*
X4455777Y-6362388D02*
X4446253Y-6381436D01*
X4446253Y-6381436D02*
X4436730Y-6390960D01*
X4436730Y-6390960D02*
X4417682Y-6400484D01*
X4417682Y-6400484D02*
X4389111Y-6400484D01*
X4570063Y-6400484D02*
X4551015Y-6390960D01*
X4551015Y-6390960D02*
X4541492Y-6371912D01*
X4541492Y-6371912D02*
X4541492Y-6200484D01*
X4722444Y-6390960D02*
X4703396Y-6400484D01*
X4703396Y-6400484D02*
X4665301Y-6400484D01*
X4665301Y-6400484D02*
X4646253Y-6390960D01*
X4646253Y-6390960D02*
X4636730Y-6371912D01*
X4636730Y-6371912D02*
X4636730Y-6295722D01*
X4636730Y-6295722D02*
X4646253Y-6276674D01*
X4646253Y-6276674D02*
X4665301Y-6267150D01*
X4665301Y-6267150D02*
X4703396Y-6267150D01*
X4703396Y-6267150D02*
X4722444Y-6276674D01*
X4722444Y-6276674D02*
X4731968Y-6295722D01*
X4731968Y-6295722D02*
X4731968Y-6314769D01*
X4731968Y-6314769D02*
X4636730Y-6333817D01*
X4808158Y-6390960D02*
X4827206Y-6400484D01*
X4827206Y-6400484D02*
X4865301Y-6400484D01*
X4865301Y-6400484D02*
X4884349Y-6390960D01*
X4884349Y-6390960D02*
X4893873Y-6371912D01*
X4893873Y-6371912D02*
X4893873Y-6362388D01*
X4893873Y-6362388D02*
X4884349Y-6343341D01*
X4884349Y-6343341D02*
X4865301Y-6333817D01*
X4865301Y-6333817D02*
X4836730Y-6333817D01*
X4836730Y-6333817D02*
X4817682Y-6324293D01*
X4817682Y-6324293D02*
X4808158Y-6305246D01*
X4808158Y-6305246D02*
X4808158Y-6295722D01*
X4808158Y-6295722D02*
X4817682Y-6276674D01*
X4817682Y-6276674D02*
X4836730Y-6267150D01*
X4836730Y-6267150D02*
X4865301Y-6267150D01*
X4865301Y-6267150D02*
X4884349Y-6276674D01*
X4960539Y-6476674D02*
X4970063Y-6467150D01*
X4970063Y-6467150D02*
X4989111Y-6438579D01*
X4989111Y-6438579D02*
X4998634Y-6419531D01*
X4998634Y-6419531D02*
X5008158Y-6390960D01*
X5008158Y-6390960D02*
X5017682Y-6343341D01*
X5017682Y-6343341D02*
X5017682Y-6305246D01*
X5017682Y-6305246D02*
X5008158Y-6257627D01*
X5008158Y-6257627D02*
X4998634Y-6229055D01*
X4998634Y-6229055D02*
X4989111Y-6210008D01*
X4989111Y-6210008D02*
X4970063Y-6181436D01*
X4970063Y-6181436D02*
X4960539Y-6171912D01*
D10*
X-22500Y-6555500D02*
X-22500Y-6590500D01*
X-40000Y-6573000D02*
X-5000Y-6573000D01*
D11*
X293872Y-6464484D02*
X312920Y-6464484D01*
X312920Y-6464484D02*
X331967Y-6474008D01*
X331967Y-6474008D02*
X341491Y-6483531D01*
X341491Y-6483531D02*
X351015Y-6502579D01*
X351015Y-6502579D02*
X360539Y-6540674D01*
X360539Y-6540674D02*
X360539Y-6588293D01*
X360539Y-6588293D02*
X351015Y-6626388D01*
X351015Y-6626388D02*
X341491Y-6645436D01*
X341491Y-6645436D02*
X331967Y-6654960D01*
X331967Y-6654960D02*
X312920Y-6664484D01*
X312920Y-6664484D02*
X293872Y-6664484D01*
X293872Y-6664484D02*
X274824Y-6654960D01*
X274824Y-6654960D02*
X265301Y-6645436D01*
X265301Y-6645436D02*
X255777Y-6626388D01*
X255777Y-6626388D02*
X246253Y-6588293D01*
X246253Y-6588293D02*
X246253Y-6540674D01*
X246253Y-6540674D02*
X255777Y-6502579D01*
X255777Y-6502579D02*
X265301Y-6483531D01*
X265301Y-6483531D02*
X274824Y-6474008D01*
X274824Y-6474008D02*
X293872Y-6464484D01*
X446253Y-6645436D02*
X455777Y-6654960D01*
X455777Y-6654960D02*
X446253Y-6664484D01*
X446253Y-6664484D02*
X436729Y-6654960D01*
X436729Y-6654960D02*
X446253Y-6645436D01*
X446253Y-6645436D02*
X446253Y-6664484D01*
X522443Y-6464484D02*
X646253Y-6464484D01*
X646253Y-6464484D02*
X579586Y-6540674D01*
X579586Y-6540674D02*
X608158Y-6540674D01*
X608158Y-6540674D02*
X627205Y-6550198D01*
X627205Y-6550198D02*
X636729Y-6559722D01*
X636729Y-6559722D02*
X646253Y-6578769D01*
X646253Y-6578769D02*
X646253Y-6626388D01*
X646253Y-6626388D02*
X636729Y-6645436D01*
X636729Y-6645436D02*
X627205Y-6654960D01*
X627205Y-6654960D02*
X608158Y-6664484D01*
X608158Y-6664484D02*
X551015Y-6664484D01*
X551015Y-6664484D02*
X531967Y-6654960D01*
X531967Y-6654960D02*
X522443Y-6645436D01*
X827205Y-6464484D02*
X731967Y-6464484D01*
X731967Y-6464484D02*
X722443Y-6559722D01*
X722443Y-6559722D02*
X731967Y-6550198D01*
X731967Y-6550198D02*
X751015Y-6540674D01*
X751015Y-6540674D02*
X798634Y-6540674D01*
X798634Y-6540674D02*
X817682Y-6550198D01*
X817682Y-6550198D02*
X827205Y-6559722D01*
X827205Y-6559722D02*
X836729Y-6578769D01*
X836729Y-6578769D02*
X836729Y-6626388D01*
X836729Y-6626388D02*
X827205Y-6645436D01*
X827205Y-6645436D02*
X817682Y-6654960D01*
X817682Y-6654960D02*
X798634Y-6664484D01*
X798634Y-6664484D02*
X751015Y-6664484D01*
X751015Y-6664484D02*
X731967Y-6654960D01*
X731967Y-6654960D02*
X722443Y-6645436D01*
X960539Y-6464484D02*
X979586Y-6464484D01*
X979586Y-6464484D02*
X998634Y-6474008D01*
X998634Y-6474008D02*
X1008158Y-6483531D01*
X1008158Y-6483531D02*
X1017682Y-6502579D01*
X1017682Y-6502579D02*
X1027205Y-6540674D01*
X1027205Y-6540674D02*
X1027205Y-6588293D01*
X1027205Y-6588293D02*
X1017682Y-6626388D01*
X1017682Y-6626388D02*
X1008158Y-6645436D01*
X1008158Y-6645436D02*
X998634Y-6654960D01*
X998634Y-6654960D02*
X979586Y-6664484D01*
X979586Y-6664484D02*
X960539Y-6664484D01*
X960539Y-6664484D02*
X941491Y-6654960D01*
X941491Y-6654960D02*
X931967Y-6645436D01*
X931967Y-6645436D02*
X922443Y-6626388D01*
X922443Y-6626388D02*
X912920Y-6588293D01*
X912920Y-6588293D02*
X912920Y-6540674D01*
X912920Y-6540674D02*
X922443Y-6502579D01*
X922443Y-6502579D02*
X931967Y-6483531D01*
X931967Y-6483531D02*
X941491Y-6474008D01*
X941491Y-6474008D02*
X960539Y-6464484D01*
X1112920Y-6664484D02*
X1112920Y-6531150D01*
X1112920Y-6550198D02*
X1122444Y-6540674D01*
X1122444Y-6540674D02*
X1141491Y-6531150D01*
X1141491Y-6531150D02*
X1170063Y-6531150D01*
X1170063Y-6531150D02*
X1189110Y-6540674D01*
X1189110Y-6540674D02*
X1198634Y-6559722D01*
X1198634Y-6559722D02*
X1198634Y-6664484D01*
X1198634Y-6559722D02*
X1208158Y-6540674D01*
X1208158Y-6540674D02*
X1227205Y-6531150D01*
X1227205Y-6531150D02*
X1255777Y-6531150D01*
X1255777Y-6531150D02*
X1274825Y-6540674D01*
X1274825Y-6540674D02*
X1284348Y-6559722D01*
X1284348Y-6559722D02*
X1284348Y-6664484D01*
X1379586Y-6664484D02*
X1379586Y-6531150D01*
X1379586Y-6550198D02*
X1389110Y-6540674D01*
X1389110Y-6540674D02*
X1408158Y-6531150D01*
X1408158Y-6531150D02*
X1436729Y-6531150D01*
X1436729Y-6531150D02*
X1455777Y-6540674D01*
X1455777Y-6540674D02*
X1465301Y-6559722D01*
X1465301Y-6559722D02*
X1465301Y-6664484D01*
X1465301Y-6559722D02*
X1474824Y-6540674D01*
X1474824Y-6540674D02*
X1493872Y-6531150D01*
X1493872Y-6531150D02*
X1522443Y-6531150D01*
X1522443Y-6531150D02*
X1541491Y-6540674D01*
X1541491Y-6540674D02*
X1551015Y-6559722D01*
X1551015Y-6559722D02*
X1551015Y-6664484D01*
X1941491Y-6454960D02*
X1770063Y-6712103D01*
X2198634Y-6464484D02*
X2217682Y-6464484D01*
X2217682Y-6464484D02*
X2236729Y-6474008D01*
X2236729Y-6474008D02*
X2246253Y-6483531D01*
X2246253Y-6483531D02*
X2255777Y-6502579D01*
X2255777Y-6502579D02*
X2265301Y-6540674D01*
X2265301Y-6540674D02*
X2265301Y-6588293D01*
X2265301Y-6588293D02*
X2255777Y-6626388D01*
X2255777Y-6626388D02*
X2246253Y-6645436D01*
X2246253Y-6645436D02*
X2236729Y-6654960D01*
X2236729Y-6654960D02*
X2217682Y-6664484D01*
X2217682Y-6664484D02*
X2198634Y-6664484D01*
X2198634Y-6664484D02*
X2179587Y-6654960D01*
X2179587Y-6654960D02*
X2170063Y-6645436D01*
X2170063Y-6645436D02*
X2160539Y-6626388D01*
X2160539Y-6626388D02*
X2151015Y-6588293D01*
X2151015Y-6588293D02*
X2151015Y-6540674D01*
X2151015Y-6540674D02*
X2160539Y-6502579D01*
X2160539Y-6502579D02*
X2170063Y-6483531D01*
X2170063Y-6483531D02*
X2179587Y-6474008D01*
X2179587Y-6474008D02*
X2198634Y-6464484D01*
X2351015Y-6645436D02*
X2360539Y-6654960D01*
X2360539Y-6654960D02*
X2351015Y-6664484D01*
X2351015Y-6664484D02*
X2341491Y-6654960D01*
X2341491Y-6654960D02*
X2351015Y-6645436D01*
X2351015Y-6645436D02*
X2351015Y-6664484D01*
X2484348Y-6464484D02*
X2503396Y-6464484D01*
X2503396Y-6464484D02*
X2522444Y-6474008D01*
X2522444Y-6474008D02*
X2531968Y-6483531D01*
X2531968Y-6483531D02*
X2541491Y-6502579D01*
X2541491Y-6502579D02*
X2551015Y-6540674D01*
X2551015Y-6540674D02*
X2551015Y-6588293D01*
X2551015Y-6588293D02*
X2541491Y-6626388D01*
X2541491Y-6626388D02*
X2531968Y-6645436D01*
X2531968Y-6645436D02*
X2522444Y-6654960D01*
X2522444Y-6654960D02*
X2503396Y-6664484D01*
X2503396Y-6664484D02*
X2484348Y-6664484D01*
X2484348Y-6664484D02*
X2465301Y-6654960D01*
X2465301Y-6654960D02*
X2455777Y-6645436D01*
X2455777Y-6645436D02*
X2446253Y-6626388D01*
X2446253Y-6626388D02*
X2436729Y-6588293D01*
X2436729Y-6588293D02*
X2436729Y-6540674D01*
X2436729Y-6540674D02*
X2446253Y-6502579D01*
X2446253Y-6502579D02*
X2455777Y-6483531D01*
X2455777Y-6483531D02*
X2465301Y-6474008D01*
X2465301Y-6474008D02*
X2484348Y-6464484D01*
X2741491Y-6664484D02*
X2627206Y-6664484D01*
X2684348Y-6664484D02*
X2684348Y-6464484D01*
X2684348Y-6464484D02*
X2665301Y-6493055D01*
X2665301Y-6493055D02*
X2646253Y-6512103D01*
X2646253Y-6512103D02*
X2627206Y-6521627D01*
X2808158Y-6464484D02*
X2931967Y-6464484D01*
X2931967Y-6464484D02*
X2865301Y-6540674D01*
X2865301Y-6540674D02*
X2893872Y-6540674D01*
X2893872Y-6540674D02*
X2912920Y-6550198D01*
X2912920Y-6550198D02*
X2922444Y-6559722D01*
X2922444Y-6559722D02*
X2931967Y-6578769D01*
X2931967Y-6578769D02*
X2931967Y-6626388D01*
X2931967Y-6626388D02*
X2922444Y-6645436D01*
X2922444Y-6645436D02*
X2912920Y-6654960D01*
X2912920Y-6654960D02*
X2893872Y-6664484D01*
X2893872Y-6664484D02*
X2836729Y-6664484D01*
X2836729Y-6664484D02*
X2817682Y-6654960D01*
X2817682Y-6654960D02*
X2808158Y-6645436D01*
X3046253Y-6550198D02*
X3027206Y-6540674D01*
X3027206Y-6540674D02*
X3017682Y-6531150D01*
X3017682Y-6531150D02*
X3008158Y-6512103D01*
X3008158Y-6512103D02*
X3008158Y-6502579D01*
X3008158Y-6502579D02*
X3017682Y-6483531D01*
X3017682Y-6483531D02*
X3027206Y-6474008D01*
X3027206Y-6474008D02*
X3046253Y-6464484D01*
X3046253Y-6464484D02*
X3084348Y-6464484D01*
X3084348Y-6464484D02*
X3103396Y-6474008D01*
X3103396Y-6474008D02*
X3112920Y-6483531D01*
X3112920Y-6483531D02*
X3122444Y-6502579D01*
X3122444Y-6502579D02*
X3122444Y-6512103D01*
X3122444Y-6512103D02*
X3112920Y-6531150D01*
X3112920Y-6531150D02*
X3103396Y-6540674D01*
X3103396Y-6540674D02*
X3084348Y-6550198D01*
X3084348Y-6550198D02*
X3046253Y-6550198D01*
X3046253Y-6550198D02*
X3027206Y-6559722D01*
X3027206Y-6559722D02*
X3017682Y-6569246D01*
X3017682Y-6569246D02*
X3008158Y-6588293D01*
X3008158Y-6588293D02*
X3008158Y-6626388D01*
X3008158Y-6626388D02*
X3017682Y-6645436D01*
X3017682Y-6645436D02*
X3027206Y-6654960D01*
X3027206Y-6654960D02*
X3046253Y-6664484D01*
X3046253Y-6664484D02*
X3084348Y-6664484D01*
X3084348Y-6664484D02*
X3103396Y-6654960D01*
X3103396Y-6654960D02*
X3112920Y-6645436D01*
X3112920Y-6645436D02*
X3122444Y-6626388D01*
X3122444Y-6626388D02*
X3122444Y-6588293D01*
X3122444Y-6588293D02*
X3112920Y-6569246D01*
X3112920Y-6569246D02*
X3103396Y-6559722D01*
X3103396Y-6559722D02*
X3084348Y-6550198D01*
X3198634Y-6464484D02*
X3198634Y-6502579D01*
X3274825Y-6464484D02*
X3274825Y-6502579D01*
X3570063Y-6740674D02*
X3560539Y-6731150D01*
X3560539Y-6731150D02*
X3541491Y-6702579D01*
X3541491Y-6702579D02*
X3531968Y-6683531D01*
X3531968Y-6683531D02*
X3522444Y-6654960D01*
X3522444Y-6654960D02*
X3512920Y-6607341D01*
X3512920Y-6607341D02*
X3512920Y-6569246D01*
X3512920Y-6569246D02*
X3522444Y-6521627D01*
X3522444Y-6521627D02*
X3531968Y-6493055D01*
X3531968Y-6493055D02*
X3541491Y-6474008D01*
X3541491Y-6474008D02*
X3560539Y-6445436D01*
X3560539Y-6445436D02*
X3570063Y-6435912D01*
X3627206Y-6464484D02*
X3760539Y-6464484D01*
X3760539Y-6464484D02*
X3674825Y-6664484D01*
X3846253Y-6664484D02*
X3884348Y-6664484D01*
X3884348Y-6664484D02*
X3903396Y-6654960D01*
X3903396Y-6654960D02*
X3912920Y-6645436D01*
X3912920Y-6645436D02*
X3931968Y-6616865D01*
X3931968Y-6616865D02*
X3941491Y-6578769D01*
X3941491Y-6578769D02*
X3941491Y-6502579D01*
X3941491Y-6502579D02*
X3931968Y-6483531D01*
X3931968Y-6483531D02*
X3922444Y-6474008D01*
X3922444Y-6474008D02*
X3903396Y-6464484D01*
X3903396Y-6464484D02*
X3865301Y-6464484D01*
X3865301Y-6464484D02*
X3846253Y-6474008D01*
X3846253Y-6474008D02*
X3836729Y-6483531D01*
X3836729Y-6483531D02*
X3827206Y-6502579D01*
X3827206Y-6502579D02*
X3827206Y-6550198D01*
X3827206Y-6550198D02*
X3836729Y-6569246D01*
X3836729Y-6569246D02*
X3846253Y-6578769D01*
X3846253Y-6578769D02*
X3865301Y-6588293D01*
X3865301Y-6588293D02*
X3903396Y-6588293D01*
X3903396Y-6588293D02*
X3922444Y-6578769D01*
X3922444Y-6578769D02*
X3931968Y-6569246D01*
X3931968Y-6569246D02*
X3941491Y-6550198D01*
X4179587Y-6664484D02*
X4179587Y-6464484D01*
X4265301Y-6664484D02*
X4265301Y-6559722D01*
X4265301Y-6559722D02*
X4255777Y-6540674D01*
X4255777Y-6540674D02*
X4236730Y-6531150D01*
X4236730Y-6531150D02*
X4208158Y-6531150D01*
X4208158Y-6531150D02*
X4189110Y-6540674D01*
X4189110Y-6540674D02*
X4179587Y-6550198D01*
X4389111Y-6664484D02*
X4370063Y-6654960D01*
X4370063Y-6654960D02*
X4360539Y-6645436D01*
X4360539Y-6645436D02*
X4351015Y-6626388D01*
X4351015Y-6626388D02*
X4351015Y-6569246D01*
X4351015Y-6569246D02*
X4360539Y-6550198D01*
X4360539Y-6550198D02*
X4370063Y-6540674D01*
X4370063Y-6540674D02*
X4389111Y-6531150D01*
X4389111Y-6531150D02*
X4417682Y-6531150D01*
X4417682Y-6531150D02*
X4436730Y-6540674D01*
X4436730Y-6540674D02*
X4446253Y-6550198D01*
X4446253Y-6550198D02*
X4455777Y-6569246D01*
X4455777Y-6569246D02*
X4455777Y-6626388D01*
X4455777Y-6626388D02*
X4446253Y-6645436D01*
X4446253Y-6645436D02*
X4436730Y-6654960D01*
X4436730Y-6654960D02*
X4417682Y-6664484D01*
X4417682Y-6664484D02*
X4389111Y-6664484D01*
X4570063Y-6664484D02*
X4551015Y-6654960D01*
X4551015Y-6654960D02*
X4541492Y-6635912D01*
X4541492Y-6635912D02*
X4541492Y-6464484D01*
X4722444Y-6654960D02*
X4703396Y-6664484D01*
X4703396Y-6664484D02*
X4665301Y-6664484D01*
X4665301Y-6664484D02*
X4646253Y-6654960D01*
X4646253Y-6654960D02*
X4636730Y-6635912D01*
X4636730Y-6635912D02*
X4636730Y-6559722D01*
X4636730Y-6559722D02*
X4646253Y-6540674D01*
X4646253Y-6540674D02*
X4665301Y-6531150D01*
X4665301Y-6531150D02*
X4703396Y-6531150D01*
X4703396Y-6531150D02*
X4722444Y-6540674D01*
X4722444Y-6540674D02*
X4731968Y-6559722D01*
X4731968Y-6559722D02*
X4731968Y-6578769D01*
X4731968Y-6578769D02*
X4636730Y-6597817D01*
X4808158Y-6654960D02*
X4827206Y-6664484D01*
X4827206Y-6664484D02*
X4865301Y-6664484D01*
X4865301Y-6664484D02*
X4884349Y-6654960D01*
X4884349Y-6654960D02*
X4893873Y-6635912D01*
X4893873Y-6635912D02*
X4893873Y-6626388D01*
X4893873Y-6626388D02*
X4884349Y-6607341D01*
X4884349Y-6607341D02*
X4865301Y-6597817D01*
X4865301Y-6597817D02*
X4836730Y-6597817D01*
X4836730Y-6597817D02*
X4817682Y-6588293D01*
X4817682Y-6588293D02*
X4808158Y-6569246D01*
X4808158Y-6569246D02*
X4808158Y-6559722D01*
X4808158Y-6559722D02*
X4817682Y-6540674D01*
X4817682Y-6540674D02*
X4836730Y-6531150D01*
X4836730Y-6531150D02*
X4865301Y-6531150D01*
X4865301Y-6531150D02*
X4884349Y-6540674D01*
X4960539Y-6740674D02*
X4970063Y-6731150D01*
X4970063Y-6731150D02*
X4989111Y-6702579D01*
X4989111Y-6702579D02*
X4998634Y-6683531D01*
X4998634Y-6683531D02*
X5008158Y-6654960D01*
X5008158Y-6654960D02*
X5017682Y-6607341D01*
X5017682Y-6607341D02*
X5017682Y-6569246D01*
X5017682Y-6569246D02*
X5008158Y-6521627D01*
X5008158Y-6521627D02*
X4998634Y-6493055D01*
X4998634Y-6493055D02*
X4989111Y-6474008D01*
X4989111Y-6474008D02*
X4970063Y-6445436D01*
X4970063Y-6445436D02*
X4960539Y-6435912D01*
D10*
X-10858Y-6851142D02*
X-10858Y-6822858D01*
X-39142Y-6822858D01*
X-39142Y-6851142D01*
X-10858Y-6851142D01*
D11*
X293872Y-6728484D02*
X312920Y-6728484D01*
X312920Y-6728484D02*
X331967Y-6738008D01*
X331967Y-6738008D02*
X341491Y-6747531D01*
X341491Y-6747531D02*
X351015Y-6766579D01*
X351015Y-6766579D02*
X360539Y-6804674D01*
X360539Y-6804674D02*
X360539Y-6852293D01*
X360539Y-6852293D02*
X351015Y-6890388D01*
X351015Y-6890388D02*
X341491Y-6909436D01*
X341491Y-6909436D02*
X331967Y-6918960D01*
X331967Y-6918960D02*
X312920Y-6928484D01*
X312920Y-6928484D02*
X293872Y-6928484D01*
X293872Y-6928484D02*
X274824Y-6918960D01*
X274824Y-6918960D02*
X265301Y-6909436D01*
X265301Y-6909436D02*
X255777Y-6890388D01*
X255777Y-6890388D02*
X246253Y-6852293D01*
X246253Y-6852293D02*
X246253Y-6804674D01*
X246253Y-6804674D02*
X255777Y-6766579D01*
X255777Y-6766579D02*
X265301Y-6747531D01*
X265301Y-6747531D02*
X274824Y-6738008D01*
X274824Y-6738008D02*
X293872Y-6728484D01*
X446253Y-6909436D02*
X455777Y-6918960D01*
X455777Y-6918960D02*
X446253Y-6928484D01*
X446253Y-6928484D02*
X436729Y-6918960D01*
X436729Y-6918960D02*
X446253Y-6909436D01*
X446253Y-6909436D02*
X446253Y-6928484D01*
X627205Y-6795150D02*
X627205Y-6928484D01*
X579586Y-6718960D02*
X531967Y-6861817D01*
X531967Y-6861817D02*
X655777Y-6861817D01*
X770062Y-6728484D02*
X789110Y-6728484D01*
X789110Y-6728484D02*
X808158Y-6738008D01*
X808158Y-6738008D02*
X817682Y-6747531D01*
X817682Y-6747531D02*
X827205Y-6766579D01*
X827205Y-6766579D02*
X836729Y-6804674D01*
X836729Y-6804674D02*
X836729Y-6852293D01*
X836729Y-6852293D02*
X827205Y-6890388D01*
X827205Y-6890388D02*
X817682Y-6909436D01*
X817682Y-6909436D02*
X808158Y-6918960D01*
X808158Y-6918960D02*
X789110Y-6928484D01*
X789110Y-6928484D02*
X770062Y-6928484D01*
X770062Y-6928484D02*
X751015Y-6918960D01*
X751015Y-6918960D02*
X741491Y-6909436D01*
X741491Y-6909436D02*
X731967Y-6890388D01*
X731967Y-6890388D02*
X722443Y-6852293D01*
X722443Y-6852293D02*
X722443Y-6804674D01*
X722443Y-6804674D02*
X731967Y-6766579D01*
X731967Y-6766579D02*
X741491Y-6747531D01*
X741491Y-6747531D02*
X751015Y-6738008D01*
X751015Y-6738008D02*
X770062Y-6728484D01*
X960539Y-6728484D02*
X979586Y-6728484D01*
X979586Y-6728484D02*
X998634Y-6738008D01*
X998634Y-6738008D02*
X1008158Y-6747531D01*
X1008158Y-6747531D02*
X1017682Y-6766579D01*
X1017682Y-6766579D02*
X1027205Y-6804674D01*
X1027205Y-6804674D02*
X1027205Y-6852293D01*
X1027205Y-6852293D02*
X1017682Y-6890388D01*
X1017682Y-6890388D02*
X1008158Y-6909436D01*
X1008158Y-6909436D02*
X998634Y-6918960D01*
X998634Y-6918960D02*
X979586Y-6928484D01*
X979586Y-6928484D02*
X960539Y-6928484D01*
X960539Y-6928484D02*
X941491Y-6918960D01*
X941491Y-6918960D02*
X931967Y-6909436D01*
X931967Y-6909436D02*
X922443Y-6890388D01*
X922443Y-6890388D02*
X912920Y-6852293D01*
X912920Y-6852293D02*
X912920Y-6804674D01*
X912920Y-6804674D02*
X922443Y-6766579D01*
X922443Y-6766579D02*
X931967Y-6747531D01*
X931967Y-6747531D02*
X941491Y-6738008D01*
X941491Y-6738008D02*
X960539Y-6728484D01*
X1112920Y-6928484D02*
X1112920Y-6795150D01*
X1112920Y-6814198D02*
X1122444Y-6804674D01*
X1122444Y-6804674D02*
X1141491Y-6795150D01*
X1141491Y-6795150D02*
X1170063Y-6795150D01*
X1170063Y-6795150D02*
X1189110Y-6804674D01*
X1189110Y-6804674D02*
X1198634Y-6823722D01*
X1198634Y-6823722D02*
X1198634Y-6928484D01*
X1198634Y-6823722D02*
X1208158Y-6804674D01*
X1208158Y-6804674D02*
X1227205Y-6795150D01*
X1227205Y-6795150D02*
X1255777Y-6795150D01*
X1255777Y-6795150D02*
X1274825Y-6804674D01*
X1274825Y-6804674D02*
X1284348Y-6823722D01*
X1284348Y-6823722D02*
X1284348Y-6928484D01*
X1379586Y-6928484D02*
X1379586Y-6795150D01*
X1379586Y-6814198D02*
X1389110Y-6804674D01*
X1389110Y-6804674D02*
X1408158Y-6795150D01*
X1408158Y-6795150D02*
X1436729Y-6795150D01*
X1436729Y-6795150D02*
X1455777Y-6804674D01*
X1455777Y-6804674D02*
X1465301Y-6823722D01*
X1465301Y-6823722D02*
X1465301Y-6928484D01*
X1465301Y-6823722D02*
X1474824Y-6804674D01*
X1474824Y-6804674D02*
X1493872Y-6795150D01*
X1493872Y-6795150D02*
X1522443Y-6795150D01*
X1522443Y-6795150D02*
X1541491Y-6804674D01*
X1541491Y-6804674D02*
X1551015Y-6823722D01*
X1551015Y-6823722D02*
X1551015Y-6928484D01*
X1941491Y-6718960D02*
X1770063Y-6976103D01*
X2198634Y-6728484D02*
X2217682Y-6728484D01*
X2217682Y-6728484D02*
X2236729Y-6738008D01*
X2236729Y-6738008D02*
X2246253Y-6747531D01*
X2246253Y-6747531D02*
X2255777Y-6766579D01*
X2255777Y-6766579D02*
X2265301Y-6804674D01*
X2265301Y-6804674D02*
X2265301Y-6852293D01*
X2265301Y-6852293D02*
X2255777Y-6890388D01*
X2255777Y-6890388D02*
X2246253Y-6909436D01*
X2246253Y-6909436D02*
X2236729Y-6918960D01*
X2236729Y-6918960D02*
X2217682Y-6928484D01*
X2217682Y-6928484D02*
X2198634Y-6928484D01*
X2198634Y-6928484D02*
X2179587Y-6918960D01*
X2179587Y-6918960D02*
X2170063Y-6909436D01*
X2170063Y-6909436D02*
X2160539Y-6890388D01*
X2160539Y-6890388D02*
X2151015Y-6852293D01*
X2151015Y-6852293D02*
X2151015Y-6804674D01*
X2151015Y-6804674D02*
X2160539Y-6766579D01*
X2160539Y-6766579D02*
X2170063Y-6747531D01*
X2170063Y-6747531D02*
X2179587Y-6738008D01*
X2179587Y-6738008D02*
X2198634Y-6728484D01*
X2351015Y-6909436D02*
X2360539Y-6918960D01*
X2360539Y-6918960D02*
X2351015Y-6928484D01*
X2351015Y-6928484D02*
X2341491Y-6918960D01*
X2341491Y-6918960D02*
X2351015Y-6909436D01*
X2351015Y-6909436D02*
X2351015Y-6928484D01*
X2484348Y-6728484D02*
X2503396Y-6728484D01*
X2503396Y-6728484D02*
X2522444Y-6738008D01*
X2522444Y-6738008D02*
X2531968Y-6747531D01*
X2531968Y-6747531D02*
X2541491Y-6766579D01*
X2541491Y-6766579D02*
X2551015Y-6804674D01*
X2551015Y-6804674D02*
X2551015Y-6852293D01*
X2551015Y-6852293D02*
X2541491Y-6890388D01*
X2541491Y-6890388D02*
X2531968Y-6909436D01*
X2531968Y-6909436D02*
X2522444Y-6918960D01*
X2522444Y-6918960D02*
X2503396Y-6928484D01*
X2503396Y-6928484D02*
X2484348Y-6928484D01*
X2484348Y-6928484D02*
X2465301Y-6918960D01*
X2465301Y-6918960D02*
X2455777Y-6909436D01*
X2455777Y-6909436D02*
X2446253Y-6890388D01*
X2446253Y-6890388D02*
X2436729Y-6852293D01*
X2436729Y-6852293D02*
X2436729Y-6804674D01*
X2436729Y-6804674D02*
X2446253Y-6766579D01*
X2446253Y-6766579D02*
X2455777Y-6747531D01*
X2455777Y-6747531D02*
X2465301Y-6738008D01*
X2465301Y-6738008D02*
X2484348Y-6728484D01*
X2741491Y-6928484D02*
X2627206Y-6928484D01*
X2684348Y-6928484D02*
X2684348Y-6728484D01*
X2684348Y-6728484D02*
X2665301Y-6757055D01*
X2665301Y-6757055D02*
X2646253Y-6776103D01*
X2646253Y-6776103D02*
X2627206Y-6785627D01*
X2922444Y-6728484D02*
X2827206Y-6728484D01*
X2827206Y-6728484D02*
X2817682Y-6823722D01*
X2817682Y-6823722D02*
X2827206Y-6814198D01*
X2827206Y-6814198D02*
X2846253Y-6804674D01*
X2846253Y-6804674D02*
X2893872Y-6804674D01*
X2893872Y-6804674D02*
X2912920Y-6814198D01*
X2912920Y-6814198D02*
X2922444Y-6823722D01*
X2922444Y-6823722D02*
X2931967Y-6842769D01*
X2931967Y-6842769D02*
X2931967Y-6890388D01*
X2931967Y-6890388D02*
X2922444Y-6909436D01*
X2922444Y-6909436D02*
X2912920Y-6918960D01*
X2912920Y-6918960D02*
X2893872Y-6928484D01*
X2893872Y-6928484D02*
X2846253Y-6928484D01*
X2846253Y-6928484D02*
X2827206Y-6918960D01*
X2827206Y-6918960D02*
X2817682Y-6909436D01*
X2998634Y-6728484D02*
X3131967Y-6728484D01*
X3131967Y-6728484D02*
X3046253Y-6928484D01*
X3198634Y-6728484D02*
X3198634Y-6766579D01*
X3274825Y-6728484D02*
X3274825Y-6766579D01*
X3570063Y-7004674D02*
X3560539Y-6995150D01*
X3560539Y-6995150D02*
X3541491Y-6966579D01*
X3541491Y-6966579D02*
X3531968Y-6947531D01*
X3531968Y-6947531D02*
X3522444Y-6918960D01*
X3522444Y-6918960D02*
X3512920Y-6871341D01*
X3512920Y-6871341D02*
X3512920Y-6833246D01*
X3512920Y-6833246D02*
X3522444Y-6785627D01*
X3522444Y-6785627D02*
X3531968Y-6757055D01*
X3531968Y-6757055D02*
X3541491Y-6738008D01*
X3541491Y-6738008D02*
X3560539Y-6709436D01*
X3560539Y-6709436D02*
X3570063Y-6699912D01*
X3627206Y-6728484D02*
X3760539Y-6728484D01*
X3760539Y-6728484D02*
X3674825Y-6928484D01*
X3989110Y-6928484D02*
X3989110Y-6728484D01*
X4074825Y-6928484D02*
X4074825Y-6823722D01*
X4074825Y-6823722D02*
X4065301Y-6804674D01*
X4065301Y-6804674D02*
X4046253Y-6795150D01*
X4046253Y-6795150D02*
X4017682Y-6795150D01*
X4017682Y-6795150D02*
X3998634Y-6804674D01*
X3998634Y-6804674D02*
X3989110Y-6814198D01*
X4198634Y-6928484D02*
X4179587Y-6918960D01*
X4179587Y-6918960D02*
X4170063Y-6909436D01*
X4170063Y-6909436D02*
X4160539Y-6890388D01*
X4160539Y-6890388D02*
X4160539Y-6833246D01*
X4160539Y-6833246D02*
X4170063Y-6814198D01*
X4170063Y-6814198D02*
X4179587Y-6804674D01*
X4179587Y-6804674D02*
X4198634Y-6795150D01*
X4198634Y-6795150D02*
X4227206Y-6795150D01*
X4227206Y-6795150D02*
X4246253Y-6804674D01*
X4246253Y-6804674D02*
X4255777Y-6814198D01*
X4255777Y-6814198D02*
X4265301Y-6833246D01*
X4265301Y-6833246D02*
X4265301Y-6890388D01*
X4265301Y-6890388D02*
X4255777Y-6909436D01*
X4255777Y-6909436D02*
X4246253Y-6918960D01*
X4246253Y-6918960D02*
X4227206Y-6928484D01*
X4227206Y-6928484D02*
X4198634Y-6928484D01*
X4379587Y-6928484D02*
X4360539Y-6918960D01*
X4360539Y-6918960D02*
X4351015Y-6899912D01*
X4351015Y-6899912D02*
X4351015Y-6728484D01*
X4531968Y-6918960D02*
X4512920Y-6928484D01*
X4512920Y-6928484D02*
X4474825Y-6928484D01*
X4474825Y-6928484D02*
X4455777Y-6918960D01*
X4455777Y-6918960D02*
X4446253Y-6899912D01*
X4446253Y-6899912D02*
X4446253Y-6823722D01*
X4446253Y-6823722D02*
X4455777Y-6804674D01*
X4455777Y-6804674D02*
X4474825Y-6795150D01*
X4474825Y-6795150D02*
X4512920Y-6795150D01*
X4512920Y-6795150D02*
X4531968Y-6804674D01*
X4531968Y-6804674D02*
X4541492Y-6823722D01*
X4541492Y-6823722D02*
X4541492Y-6842769D01*
X4541492Y-6842769D02*
X4446253Y-6861817D01*
X4617682Y-6918960D02*
X4636730Y-6928484D01*
X4636730Y-6928484D02*
X4674825Y-6928484D01*
X4674825Y-6928484D02*
X4693873Y-6918960D01*
X4693873Y-6918960D02*
X4703396Y-6899912D01*
X4703396Y-6899912D02*
X4703396Y-6890388D01*
X4703396Y-6890388D02*
X4693873Y-6871341D01*
X4693873Y-6871341D02*
X4674825Y-6861817D01*
X4674825Y-6861817D02*
X4646253Y-6861817D01*
X4646253Y-6861817D02*
X4627206Y-6852293D01*
X4627206Y-6852293D02*
X4617682Y-6833246D01*
X4617682Y-6833246D02*
X4617682Y-6823722D01*
X4617682Y-6823722D02*
X4627206Y-6804674D01*
X4627206Y-6804674D02*
X4646253Y-6795150D01*
X4646253Y-6795150D02*
X4674825Y-6795150D01*
X4674825Y-6795150D02*
X4693873Y-6804674D01*
X4770063Y-7004674D02*
X4779587Y-6995150D01*
X4779587Y-6995150D02*
X4798634Y-6966579D01*
X4798634Y-6966579D02*
X4808158Y-6947531D01*
X4808158Y-6947531D02*
X4817682Y-6918960D01*
X4817682Y-6918960D02*
X4827206Y-6871341D01*
X4827206Y-6871341D02*
X4827206Y-6833246D01*
X4827206Y-6833246D02*
X4817682Y-6785627D01*
X4817682Y-6785627D02*
X4808158Y-6757055D01*
X4808158Y-6757055D02*
X4798634Y-6738008D01*
X4798634Y-6738008D02*
X4779587Y-6709436D01*
X4779587Y-6709436D02*
X4770063Y-6699912D01*
D10*
X-35000Y-7131000D02*
X-5000Y-7101000D01*
X-35000Y-7071000D01*
X-65000Y-7101000D01*
X-35000Y-7131000D01*
D11*
X293872Y-6992484D02*
X312920Y-6992484D01*
X312920Y-6992484D02*
X331967Y-7002008D01*
X331967Y-7002008D02*
X341491Y-7011531D01*
X341491Y-7011531D02*
X351015Y-7030579D01*
X351015Y-7030579D02*
X360539Y-7068674D01*
X360539Y-7068674D02*
X360539Y-7116293D01*
X360539Y-7116293D02*
X351015Y-7154388D01*
X351015Y-7154388D02*
X341491Y-7173436D01*
X341491Y-7173436D02*
X331967Y-7182960D01*
X331967Y-7182960D02*
X312920Y-7192484D01*
X312920Y-7192484D02*
X293872Y-7192484D01*
X293872Y-7192484D02*
X274824Y-7182960D01*
X274824Y-7182960D02*
X265301Y-7173436D01*
X265301Y-7173436D02*
X255777Y-7154388D01*
X255777Y-7154388D02*
X246253Y-7116293D01*
X246253Y-7116293D02*
X246253Y-7068674D01*
X246253Y-7068674D02*
X255777Y-7030579D01*
X255777Y-7030579D02*
X265301Y-7011531D01*
X265301Y-7011531D02*
X274824Y-7002008D01*
X274824Y-7002008D02*
X293872Y-6992484D01*
X446253Y-7173436D02*
X455777Y-7182960D01*
X455777Y-7182960D02*
X446253Y-7192484D01*
X446253Y-7192484D02*
X436729Y-7182960D01*
X436729Y-7182960D02*
X446253Y-7173436D01*
X446253Y-7173436D02*
X446253Y-7192484D01*
X627205Y-6992484D02*
X589110Y-6992484D01*
X589110Y-6992484D02*
X570063Y-7002008D01*
X570063Y-7002008D02*
X560539Y-7011531D01*
X560539Y-7011531D02*
X541491Y-7040103D01*
X541491Y-7040103D02*
X531967Y-7078198D01*
X531967Y-7078198D02*
X531967Y-7154388D01*
X531967Y-7154388D02*
X541491Y-7173436D01*
X541491Y-7173436D02*
X551015Y-7182960D01*
X551015Y-7182960D02*
X570063Y-7192484D01*
X570063Y-7192484D02*
X608158Y-7192484D01*
X608158Y-7192484D02*
X627205Y-7182960D01*
X627205Y-7182960D02*
X636729Y-7173436D01*
X636729Y-7173436D02*
X646253Y-7154388D01*
X646253Y-7154388D02*
X646253Y-7106769D01*
X646253Y-7106769D02*
X636729Y-7087722D01*
X636729Y-7087722D02*
X627205Y-7078198D01*
X627205Y-7078198D02*
X608158Y-7068674D01*
X608158Y-7068674D02*
X570063Y-7068674D01*
X570063Y-7068674D02*
X551015Y-7078198D01*
X551015Y-7078198D02*
X541491Y-7087722D01*
X541491Y-7087722D02*
X531967Y-7106769D01*
X770062Y-6992484D02*
X789110Y-6992484D01*
X789110Y-6992484D02*
X808158Y-7002008D01*
X808158Y-7002008D02*
X817682Y-7011531D01*
X817682Y-7011531D02*
X827205Y-7030579D01*
X827205Y-7030579D02*
X836729Y-7068674D01*
X836729Y-7068674D02*
X836729Y-7116293D01*
X836729Y-7116293D02*
X827205Y-7154388D01*
X827205Y-7154388D02*
X817682Y-7173436D01*
X817682Y-7173436D02*
X808158Y-7182960D01*
X808158Y-7182960D02*
X789110Y-7192484D01*
X789110Y-7192484D02*
X770062Y-7192484D01*
X770062Y-7192484D02*
X751015Y-7182960D01*
X751015Y-7182960D02*
X741491Y-7173436D01*
X741491Y-7173436D02*
X731967Y-7154388D01*
X731967Y-7154388D02*
X722443Y-7116293D01*
X722443Y-7116293D02*
X722443Y-7068674D01*
X722443Y-7068674D02*
X731967Y-7030579D01*
X731967Y-7030579D02*
X741491Y-7011531D01*
X741491Y-7011531D02*
X751015Y-7002008D01*
X751015Y-7002008D02*
X770062Y-6992484D01*
X960539Y-6992484D02*
X979586Y-6992484D01*
X979586Y-6992484D02*
X998634Y-7002008D01*
X998634Y-7002008D02*
X1008158Y-7011531D01*
X1008158Y-7011531D02*
X1017682Y-7030579D01*
X1017682Y-7030579D02*
X1027205Y-7068674D01*
X1027205Y-7068674D02*
X1027205Y-7116293D01*
X1027205Y-7116293D02*
X1017682Y-7154388D01*
X1017682Y-7154388D02*
X1008158Y-7173436D01*
X1008158Y-7173436D02*
X998634Y-7182960D01*
X998634Y-7182960D02*
X979586Y-7192484D01*
X979586Y-7192484D02*
X960539Y-7192484D01*
X960539Y-7192484D02*
X941491Y-7182960D01*
X941491Y-7182960D02*
X931967Y-7173436D01*
X931967Y-7173436D02*
X922443Y-7154388D01*
X922443Y-7154388D02*
X912920Y-7116293D01*
X912920Y-7116293D02*
X912920Y-7068674D01*
X912920Y-7068674D02*
X922443Y-7030579D01*
X922443Y-7030579D02*
X931967Y-7011531D01*
X931967Y-7011531D02*
X941491Y-7002008D01*
X941491Y-7002008D02*
X960539Y-6992484D01*
X1112920Y-7192484D02*
X1112920Y-7059150D01*
X1112920Y-7078198D02*
X1122444Y-7068674D01*
X1122444Y-7068674D02*
X1141491Y-7059150D01*
X1141491Y-7059150D02*
X1170063Y-7059150D01*
X1170063Y-7059150D02*
X1189110Y-7068674D01*
X1189110Y-7068674D02*
X1198634Y-7087722D01*
X1198634Y-7087722D02*
X1198634Y-7192484D01*
X1198634Y-7087722D02*
X1208158Y-7068674D01*
X1208158Y-7068674D02*
X1227205Y-7059150D01*
X1227205Y-7059150D02*
X1255777Y-7059150D01*
X1255777Y-7059150D02*
X1274825Y-7068674D01*
X1274825Y-7068674D02*
X1284348Y-7087722D01*
X1284348Y-7087722D02*
X1284348Y-7192484D01*
X1379586Y-7192484D02*
X1379586Y-7059150D01*
X1379586Y-7078198D02*
X1389110Y-7068674D01*
X1389110Y-7068674D02*
X1408158Y-7059150D01*
X1408158Y-7059150D02*
X1436729Y-7059150D01*
X1436729Y-7059150D02*
X1455777Y-7068674D01*
X1455777Y-7068674D02*
X1465301Y-7087722D01*
X1465301Y-7087722D02*
X1465301Y-7192484D01*
X1465301Y-7087722D02*
X1474824Y-7068674D01*
X1474824Y-7068674D02*
X1493872Y-7059150D01*
X1493872Y-7059150D02*
X1522443Y-7059150D01*
X1522443Y-7059150D02*
X1541491Y-7068674D01*
X1541491Y-7068674D02*
X1551015Y-7087722D01*
X1551015Y-7087722D02*
X1551015Y-7192484D01*
X1941491Y-6982960D02*
X1770063Y-7240103D01*
X2198634Y-6992484D02*
X2217682Y-6992484D01*
X2217682Y-6992484D02*
X2236729Y-7002008D01*
X2236729Y-7002008D02*
X2246253Y-7011531D01*
X2246253Y-7011531D02*
X2255777Y-7030579D01*
X2255777Y-7030579D02*
X2265301Y-7068674D01*
X2265301Y-7068674D02*
X2265301Y-7116293D01*
X2265301Y-7116293D02*
X2255777Y-7154388D01*
X2255777Y-7154388D02*
X2246253Y-7173436D01*
X2246253Y-7173436D02*
X2236729Y-7182960D01*
X2236729Y-7182960D02*
X2217682Y-7192484D01*
X2217682Y-7192484D02*
X2198634Y-7192484D01*
X2198634Y-7192484D02*
X2179587Y-7182960D01*
X2179587Y-7182960D02*
X2170063Y-7173436D01*
X2170063Y-7173436D02*
X2160539Y-7154388D01*
X2160539Y-7154388D02*
X2151015Y-7116293D01*
X2151015Y-7116293D02*
X2151015Y-7068674D01*
X2151015Y-7068674D02*
X2160539Y-7030579D01*
X2160539Y-7030579D02*
X2170063Y-7011531D01*
X2170063Y-7011531D02*
X2179587Y-7002008D01*
X2179587Y-7002008D02*
X2198634Y-6992484D01*
X2351015Y-7173436D02*
X2360539Y-7182960D01*
X2360539Y-7182960D02*
X2351015Y-7192484D01*
X2351015Y-7192484D02*
X2341491Y-7182960D01*
X2341491Y-7182960D02*
X2351015Y-7173436D01*
X2351015Y-7173436D02*
X2351015Y-7192484D01*
X2484348Y-6992484D02*
X2503396Y-6992484D01*
X2503396Y-6992484D02*
X2522444Y-7002008D01*
X2522444Y-7002008D02*
X2531968Y-7011531D01*
X2531968Y-7011531D02*
X2541491Y-7030579D01*
X2541491Y-7030579D02*
X2551015Y-7068674D01*
X2551015Y-7068674D02*
X2551015Y-7116293D01*
X2551015Y-7116293D02*
X2541491Y-7154388D01*
X2541491Y-7154388D02*
X2531968Y-7173436D01*
X2531968Y-7173436D02*
X2522444Y-7182960D01*
X2522444Y-7182960D02*
X2503396Y-7192484D01*
X2503396Y-7192484D02*
X2484348Y-7192484D01*
X2484348Y-7192484D02*
X2465301Y-7182960D01*
X2465301Y-7182960D02*
X2455777Y-7173436D01*
X2455777Y-7173436D02*
X2446253Y-7154388D01*
X2446253Y-7154388D02*
X2436729Y-7116293D01*
X2436729Y-7116293D02*
X2436729Y-7068674D01*
X2436729Y-7068674D02*
X2446253Y-7030579D01*
X2446253Y-7030579D02*
X2455777Y-7011531D01*
X2455777Y-7011531D02*
X2465301Y-7002008D01*
X2465301Y-7002008D02*
X2484348Y-6992484D01*
X2627206Y-7011531D02*
X2636729Y-7002008D01*
X2636729Y-7002008D02*
X2655777Y-6992484D01*
X2655777Y-6992484D02*
X2703396Y-6992484D01*
X2703396Y-6992484D02*
X2722444Y-7002008D01*
X2722444Y-7002008D02*
X2731968Y-7011531D01*
X2731968Y-7011531D02*
X2741491Y-7030579D01*
X2741491Y-7030579D02*
X2741491Y-7049627D01*
X2741491Y-7049627D02*
X2731968Y-7078198D01*
X2731968Y-7078198D02*
X2617682Y-7192484D01*
X2617682Y-7192484D02*
X2741491Y-7192484D01*
X2808158Y-6992484D02*
X2931967Y-6992484D01*
X2931967Y-6992484D02*
X2865301Y-7068674D01*
X2865301Y-7068674D02*
X2893872Y-7068674D01*
X2893872Y-7068674D02*
X2912920Y-7078198D01*
X2912920Y-7078198D02*
X2922444Y-7087722D01*
X2922444Y-7087722D02*
X2931967Y-7106769D01*
X2931967Y-7106769D02*
X2931967Y-7154388D01*
X2931967Y-7154388D02*
X2922444Y-7173436D01*
X2922444Y-7173436D02*
X2912920Y-7182960D01*
X2912920Y-7182960D02*
X2893872Y-7192484D01*
X2893872Y-7192484D02*
X2836729Y-7192484D01*
X2836729Y-7192484D02*
X2817682Y-7182960D01*
X2817682Y-7182960D02*
X2808158Y-7173436D01*
X3103396Y-6992484D02*
X3065301Y-6992484D01*
X3065301Y-6992484D02*
X3046253Y-7002008D01*
X3046253Y-7002008D02*
X3036729Y-7011531D01*
X3036729Y-7011531D02*
X3017682Y-7040103D01*
X3017682Y-7040103D02*
X3008158Y-7078198D01*
X3008158Y-7078198D02*
X3008158Y-7154388D01*
X3008158Y-7154388D02*
X3017682Y-7173436D01*
X3017682Y-7173436D02*
X3027206Y-7182960D01*
X3027206Y-7182960D02*
X3046253Y-7192484D01*
X3046253Y-7192484D02*
X3084348Y-7192484D01*
X3084348Y-7192484D02*
X3103396Y-7182960D01*
X3103396Y-7182960D02*
X3112920Y-7173436D01*
X3112920Y-7173436D02*
X3122444Y-7154388D01*
X3122444Y-7154388D02*
X3122444Y-7106769D01*
X3122444Y-7106769D02*
X3112920Y-7087722D01*
X3112920Y-7087722D02*
X3103396Y-7078198D01*
X3103396Y-7078198D02*
X3084348Y-7068674D01*
X3084348Y-7068674D02*
X3046253Y-7068674D01*
X3046253Y-7068674D02*
X3027206Y-7078198D01*
X3027206Y-7078198D02*
X3017682Y-7087722D01*
X3017682Y-7087722D02*
X3008158Y-7106769D01*
X3198634Y-6992484D02*
X3198634Y-7030579D01*
X3274825Y-6992484D02*
X3274825Y-7030579D01*
X3570063Y-7268674D02*
X3560539Y-7259150D01*
X3560539Y-7259150D02*
X3541491Y-7230579D01*
X3541491Y-7230579D02*
X3531968Y-7211531D01*
X3531968Y-7211531D02*
X3522444Y-7182960D01*
X3522444Y-7182960D02*
X3512920Y-7135341D01*
X3512920Y-7135341D02*
X3512920Y-7097246D01*
X3512920Y-7097246D02*
X3522444Y-7049627D01*
X3522444Y-7049627D02*
X3531968Y-7021055D01*
X3531968Y-7021055D02*
X3541491Y-7002008D01*
X3541491Y-7002008D02*
X3560539Y-6973436D01*
X3560539Y-6973436D02*
X3570063Y-6963912D01*
X3684348Y-6992484D02*
X3703396Y-6992484D01*
X3703396Y-6992484D02*
X3722444Y-7002008D01*
X3722444Y-7002008D02*
X3731968Y-7011531D01*
X3731968Y-7011531D02*
X3741491Y-7030579D01*
X3741491Y-7030579D02*
X3751015Y-7068674D01*
X3751015Y-7068674D02*
X3751015Y-7116293D01*
X3751015Y-7116293D02*
X3741491Y-7154388D01*
X3741491Y-7154388D02*
X3731968Y-7173436D01*
X3731968Y-7173436D02*
X3722444Y-7182960D01*
X3722444Y-7182960D02*
X3703396Y-7192484D01*
X3703396Y-7192484D02*
X3684348Y-7192484D01*
X3684348Y-7192484D02*
X3665301Y-7182960D01*
X3665301Y-7182960D02*
X3655777Y-7173436D01*
X3655777Y-7173436D02*
X3646253Y-7154388D01*
X3646253Y-7154388D02*
X3636729Y-7116293D01*
X3636729Y-7116293D02*
X3636729Y-7068674D01*
X3636729Y-7068674D02*
X3646253Y-7030579D01*
X3646253Y-7030579D02*
X3655777Y-7011531D01*
X3655777Y-7011531D02*
X3665301Y-7002008D01*
X3665301Y-7002008D02*
X3684348Y-6992484D01*
X3989110Y-7192484D02*
X3989110Y-6992484D01*
X4074825Y-7192484D02*
X4074825Y-7087722D01*
X4074825Y-7087722D02*
X4065301Y-7068674D01*
X4065301Y-7068674D02*
X4046253Y-7059150D01*
X4046253Y-7059150D02*
X4017682Y-7059150D01*
X4017682Y-7059150D02*
X3998634Y-7068674D01*
X3998634Y-7068674D02*
X3989110Y-7078198D01*
X4198634Y-7192484D02*
X4179587Y-7182960D01*
X4179587Y-7182960D02*
X4170063Y-7173436D01*
X4170063Y-7173436D02*
X4160539Y-7154388D01*
X4160539Y-7154388D02*
X4160539Y-7097246D01*
X4160539Y-7097246D02*
X4170063Y-7078198D01*
X4170063Y-7078198D02*
X4179587Y-7068674D01*
X4179587Y-7068674D02*
X4198634Y-7059150D01*
X4198634Y-7059150D02*
X4227206Y-7059150D01*
X4227206Y-7059150D02*
X4246253Y-7068674D01*
X4246253Y-7068674D02*
X4255777Y-7078198D01*
X4255777Y-7078198D02*
X4265301Y-7097246D01*
X4265301Y-7097246D02*
X4265301Y-7154388D01*
X4265301Y-7154388D02*
X4255777Y-7173436D01*
X4255777Y-7173436D02*
X4246253Y-7182960D01*
X4246253Y-7182960D02*
X4227206Y-7192484D01*
X4227206Y-7192484D02*
X4198634Y-7192484D01*
X4379587Y-7192484D02*
X4360539Y-7182960D01*
X4360539Y-7182960D02*
X4351015Y-7163912D01*
X4351015Y-7163912D02*
X4351015Y-6992484D01*
X4531968Y-7182960D02*
X4512920Y-7192484D01*
X4512920Y-7192484D02*
X4474825Y-7192484D01*
X4474825Y-7192484D02*
X4455777Y-7182960D01*
X4455777Y-7182960D02*
X4446253Y-7163912D01*
X4446253Y-7163912D02*
X4446253Y-7087722D01*
X4446253Y-7087722D02*
X4455777Y-7068674D01*
X4455777Y-7068674D02*
X4474825Y-7059150D01*
X4474825Y-7059150D02*
X4512920Y-7059150D01*
X4512920Y-7059150D02*
X4531968Y-7068674D01*
X4531968Y-7068674D02*
X4541492Y-7087722D01*
X4541492Y-7087722D02*
X4541492Y-7106769D01*
X4541492Y-7106769D02*
X4446253Y-7125817D01*
X4617682Y-7182960D02*
X4636730Y-7192484D01*
X4636730Y-7192484D02*
X4674825Y-7192484D01*
X4674825Y-7192484D02*
X4693873Y-7182960D01*
X4693873Y-7182960D02*
X4703396Y-7163912D01*
X4703396Y-7163912D02*
X4703396Y-7154388D01*
X4703396Y-7154388D02*
X4693873Y-7135341D01*
X4693873Y-7135341D02*
X4674825Y-7125817D01*
X4674825Y-7125817D02*
X4646253Y-7125817D01*
X4646253Y-7125817D02*
X4627206Y-7116293D01*
X4627206Y-7116293D02*
X4617682Y-7097246D01*
X4617682Y-7097246D02*
X4617682Y-7087722D01*
X4617682Y-7087722D02*
X4627206Y-7068674D01*
X4627206Y-7068674D02*
X4646253Y-7059150D01*
X4646253Y-7059150D02*
X4674825Y-7059150D01*
X4674825Y-7059150D02*
X4693873Y-7068674D01*
X4941492Y-7116293D02*
X5093873Y-7116293D01*
X5017682Y-7192484D02*
X5017682Y-7040103D01*
X5427206Y-7059150D02*
X5427206Y-7192484D01*
X5379587Y-6982960D02*
X5331968Y-7125817D01*
X5331968Y-7125817D02*
X5455777Y-7125817D01*
X5674825Y-7182960D02*
X5693873Y-7192484D01*
X5693873Y-7192484D02*
X5731968Y-7192484D01*
X5731968Y-7192484D02*
X5751015Y-7182960D01*
X5751015Y-7182960D02*
X5760539Y-7163912D01*
X5760539Y-7163912D02*
X5760539Y-7154388D01*
X5760539Y-7154388D02*
X5751015Y-7135341D01*
X5751015Y-7135341D02*
X5731968Y-7125817D01*
X5731968Y-7125817D02*
X5703396Y-7125817D01*
X5703396Y-7125817D02*
X5684349Y-7116293D01*
X5684349Y-7116293D02*
X5674825Y-7097246D01*
X5674825Y-7097246D02*
X5674825Y-7087722D01*
X5674825Y-7087722D02*
X5684349Y-7068674D01*
X5684349Y-7068674D02*
X5703396Y-7059150D01*
X5703396Y-7059150D02*
X5731968Y-7059150D01*
X5731968Y-7059150D02*
X5751015Y-7068674D01*
X5874825Y-7192484D02*
X5855777Y-7182960D01*
X5855777Y-7182960D02*
X5846254Y-7163912D01*
X5846254Y-7163912D02*
X5846254Y-6992484D01*
X5979587Y-7192484D02*
X5960539Y-7182960D01*
X5960539Y-7182960D02*
X5951015Y-7173436D01*
X5951015Y-7173436D02*
X5941492Y-7154388D01*
X5941492Y-7154388D02*
X5941492Y-7097246D01*
X5941492Y-7097246D02*
X5951015Y-7078198D01*
X5951015Y-7078198D02*
X5960539Y-7068674D01*
X5960539Y-7068674D02*
X5979587Y-7059150D01*
X5979587Y-7059150D02*
X6008158Y-7059150D01*
X6008158Y-7059150D02*
X6027206Y-7068674D01*
X6027206Y-7068674D02*
X6036730Y-7078198D01*
X6036730Y-7078198D02*
X6046254Y-7097246D01*
X6046254Y-7097246D02*
X6046254Y-7154388D01*
X6046254Y-7154388D02*
X6036730Y-7173436D01*
X6036730Y-7173436D02*
X6027206Y-7182960D01*
X6027206Y-7182960D02*
X6008158Y-7192484D01*
X6008158Y-7192484D02*
X5979587Y-7192484D01*
X6103396Y-7059150D02*
X6179587Y-7059150D01*
X6131968Y-6992484D02*
X6131968Y-7163912D01*
X6131968Y-7163912D02*
X6141492Y-7182960D01*
X6141492Y-7182960D02*
X6160539Y-7192484D01*
X6160539Y-7192484D02*
X6179587Y-7192484D01*
X6236730Y-7182960D02*
X6255777Y-7192484D01*
X6255777Y-7192484D02*
X6293873Y-7192484D01*
X6293873Y-7192484D02*
X6312920Y-7182960D01*
X6312920Y-7182960D02*
X6322444Y-7163912D01*
X6322444Y-7163912D02*
X6322444Y-7154388D01*
X6322444Y-7154388D02*
X6312920Y-7135341D01*
X6312920Y-7135341D02*
X6293873Y-7125817D01*
X6293873Y-7125817D02*
X6265301Y-7125817D01*
X6265301Y-7125817D02*
X6246254Y-7116293D01*
X6246254Y-7116293D02*
X6236730Y-7097246D01*
X6236730Y-7097246D02*
X6236730Y-7087722D01*
X6236730Y-7087722D02*
X6246254Y-7068674D01*
X6246254Y-7068674D02*
X6265301Y-7059150D01*
X6265301Y-7059150D02*
X6293873Y-7059150D01*
X6293873Y-7059150D02*
X6312920Y-7068674D01*
X6389111Y-7268674D02*
X6398635Y-7259150D01*
X6398635Y-7259150D02*
X6417682Y-7230579D01*
X6417682Y-7230579D02*
X6427206Y-7211531D01*
X6427206Y-7211531D02*
X6436730Y-7182960D01*
X6436730Y-7182960D02*
X6446254Y-7135341D01*
X6446254Y-7135341D02*
X6446254Y-7097246D01*
X6446254Y-7097246D02*
X6436730Y-7049627D01*
X6436730Y-7049627D02*
X6427206Y-7021055D01*
X6427206Y-7021055D02*
X6417682Y-7002008D01*
X6417682Y-7002008D02*
X6398635Y-6973436D01*
X6398635Y-6973436D02*
X6389111Y-6963912D01*
D10*
X-105000Y-7315000D02*
X-5000Y-7415000D01*
X-5000Y-7315000D02*
X-105000Y-7415000D01*
X-5000Y-7365000D02*
G75*
G02*
X-105000Y-7365000I-50000J0D01*
G01*
X-105000Y-7365000D02*
G75*
G02*
X-5000Y-7365000I50000J0D01*
G01*
D11*
X360539Y-7456484D02*
X246253Y-7456484D01*
X303396Y-7456484D02*
X303396Y-7256484D01*
X303396Y-7256484D02*
X284348Y-7285055D01*
X284348Y-7285055D02*
X265301Y-7304103D01*
X265301Y-7304103D02*
X246253Y-7313627D01*
X446253Y-7437436D02*
X455777Y-7446960D01*
X455777Y-7446960D02*
X446253Y-7456484D01*
X446253Y-7456484D02*
X436729Y-7446960D01*
X436729Y-7446960D02*
X446253Y-7437436D01*
X446253Y-7437436D02*
X446253Y-7456484D01*
X579586Y-7256484D02*
X598634Y-7256484D01*
X598634Y-7256484D02*
X617682Y-7266008D01*
X617682Y-7266008D02*
X627205Y-7275531D01*
X627205Y-7275531D02*
X636729Y-7294579D01*
X636729Y-7294579D02*
X646253Y-7332674D01*
X646253Y-7332674D02*
X646253Y-7380293D01*
X646253Y-7380293D02*
X636729Y-7418388D01*
X636729Y-7418388D02*
X627205Y-7437436D01*
X627205Y-7437436D02*
X617682Y-7446960D01*
X617682Y-7446960D02*
X598634Y-7456484D01*
X598634Y-7456484D02*
X579586Y-7456484D01*
X579586Y-7456484D02*
X560539Y-7446960D01*
X560539Y-7446960D02*
X551015Y-7437436D01*
X551015Y-7437436D02*
X541491Y-7418388D01*
X541491Y-7418388D02*
X531967Y-7380293D01*
X531967Y-7380293D02*
X531967Y-7332674D01*
X531967Y-7332674D02*
X541491Y-7294579D01*
X541491Y-7294579D02*
X551015Y-7275531D01*
X551015Y-7275531D02*
X560539Y-7266008D01*
X560539Y-7266008D02*
X579586Y-7256484D01*
X770062Y-7256484D02*
X789110Y-7256484D01*
X789110Y-7256484D02*
X808158Y-7266008D01*
X808158Y-7266008D02*
X817682Y-7275531D01*
X817682Y-7275531D02*
X827205Y-7294579D01*
X827205Y-7294579D02*
X836729Y-7332674D01*
X836729Y-7332674D02*
X836729Y-7380293D01*
X836729Y-7380293D02*
X827205Y-7418388D01*
X827205Y-7418388D02*
X817682Y-7437436D01*
X817682Y-7437436D02*
X808158Y-7446960D01*
X808158Y-7446960D02*
X789110Y-7456484D01*
X789110Y-7456484D02*
X770062Y-7456484D01*
X770062Y-7456484D02*
X751015Y-7446960D01*
X751015Y-7446960D02*
X741491Y-7437436D01*
X741491Y-7437436D02*
X731967Y-7418388D01*
X731967Y-7418388D02*
X722443Y-7380293D01*
X722443Y-7380293D02*
X722443Y-7332674D01*
X722443Y-7332674D02*
X731967Y-7294579D01*
X731967Y-7294579D02*
X741491Y-7275531D01*
X741491Y-7275531D02*
X751015Y-7266008D01*
X751015Y-7266008D02*
X770062Y-7256484D01*
X960539Y-7256484D02*
X979586Y-7256484D01*
X979586Y-7256484D02*
X998634Y-7266008D01*
X998634Y-7266008D02*
X1008158Y-7275531D01*
X1008158Y-7275531D02*
X1017682Y-7294579D01*
X1017682Y-7294579D02*
X1027205Y-7332674D01*
X1027205Y-7332674D02*
X1027205Y-7380293D01*
X1027205Y-7380293D02*
X1017682Y-7418388D01*
X1017682Y-7418388D02*
X1008158Y-7437436D01*
X1008158Y-7437436D02*
X998634Y-7446960D01*
X998634Y-7446960D02*
X979586Y-7456484D01*
X979586Y-7456484D02*
X960539Y-7456484D01*
X960539Y-7456484D02*
X941491Y-7446960D01*
X941491Y-7446960D02*
X931967Y-7437436D01*
X931967Y-7437436D02*
X922443Y-7418388D01*
X922443Y-7418388D02*
X912920Y-7380293D01*
X912920Y-7380293D02*
X912920Y-7332674D01*
X912920Y-7332674D02*
X922443Y-7294579D01*
X922443Y-7294579D02*
X931967Y-7275531D01*
X931967Y-7275531D02*
X941491Y-7266008D01*
X941491Y-7266008D02*
X960539Y-7256484D01*
X1112920Y-7456484D02*
X1112920Y-7323150D01*
X1112920Y-7342198D02*
X1122444Y-7332674D01*
X1122444Y-7332674D02*
X1141491Y-7323150D01*
X1141491Y-7323150D02*
X1170063Y-7323150D01*
X1170063Y-7323150D02*
X1189110Y-7332674D01*
X1189110Y-7332674D02*
X1198634Y-7351722D01*
X1198634Y-7351722D02*
X1198634Y-7456484D01*
X1198634Y-7351722D02*
X1208158Y-7332674D01*
X1208158Y-7332674D02*
X1227205Y-7323150D01*
X1227205Y-7323150D02*
X1255777Y-7323150D01*
X1255777Y-7323150D02*
X1274825Y-7332674D01*
X1274825Y-7332674D02*
X1284348Y-7351722D01*
X1284348Y-7351722D02*
X1284348Y-7456484D01*
X1379586Y-7456484D02*
X1379586Y-7323150D01*
X1379586Y-7342198D02*
X1389110Y-7332674D01*
X1389110Y-7332674D02*
X1408158Y-7323150D01*
X1408158Y-7323150D02*
X1436729Y-7323150D01*
X1436729Y-7323150D02*
X1455777Y-7332674D01*
X1455777Y-7332674D02*
X1465301Y-7351722D01*
X1465301Y-7351722D02*
X1465301Y-7456484D01*
X1465301Y-7351722D02*
X1474824Y-7332674D01*
X1474824Y-7332674D02*
X1493872Y-7323150D01*
X1493872Y-7323150D02*
X1522443Y-7323150D01*
X1522443Y-7323150D02*
X1541491Y-7332674D01*
X1541491Y-7332674D02*
X1551015Y-7351722D01*
X1551015Y-7351722D02*
X1551015Y-7456484D01*
X1941491Y-7246960D02*
X1770063Y-7504103D01*
X2198634Y-7256484D02*
X2217682Y-7256484D01*
X2217682Y-7256484D02*
X2236729Y-7266008D01*
X2236729Y-7266008D02*
X2246253Y-7275531D01*
X2246253Y-7275531D02*
X2255777Y-7294579D01*
X2255777Y-7294579D02*
X2265301Y-7332674D01*
X2265301Y-7332674D02*
X2265301Y-7380293D01*
X2265301Y-7380293D02*
X2255777Y-7418388D01*
X2255777Y-7418388D02*
X2246253Y-7437436D01*
X2246253Y-7437436D02*
X2236729Y-7446960D01*
X2236729Y-7446960D02*
X2217682Y-7456484D01*
X2217682Y-7456484D02*
X2198634Y-7456484D01*
X2198634Y-7456484D02*
X2179587Y-7446960D01*
X2179587Y-7446960D02*
X2170063Y-7437436D01*
X2170063Y-7437436D02*
X2160539Y-7418388D01*
X2160539Y-7418388D02*
X2151015Y-7380293D01*
X2151015Y-7380293D02*
X2151015Y-7332674D01*
X2151015Y-7332674D02*
X2160539Y-7294579D01*
X2160539Y-7294579D02*
X2170063Y-7275531D01*
X2170063Y-7275531D02*
X2179587Y-7266008D01*
X2179587Y-7266008D02*
X2198634Y-7256484D01*
X2351015Y-7437436D02*
X2360539Y-7446960D01*
X2360539Y-7446960D02*
X2351015Y-7456484D01*
X2351015Y-7456484D02*
X2341491Y-7446960D01*
X2341491Y-7446960D02*
X2351015Y-7437436D01*
X2351015Y-7437436D02*
X2351015Y-7456484D01*
X2484348Y-7256484D02*
X2503396Y-7256484D01*
X2503396Y-7256484D02*
X2522444Y-7266008D01*
X2522444Y-7266008D02*
X2531968Y-7275531D01*
X2531968Y-7275531D02*
X2541491Y-7294579D01*
X2541491Y-7294579D02*
X2551015Y-7332674D01*
X2551015Y-7332674D02*
X2551015Y-7380293D01*
X2551015Y-7380293D02*
X2541491Y-7418388D01*
X2541491Y-7418388D02*
X2531968Y-7437436D01*
X2531968Y-7437436D02*
X2522444Y-7446960D01*
X2522444Y-7446960D02*
X2503396Y-7456484D01*
X2503396Y-7456484D02*
X2484348Y-7456484D01*
X2484348Y-7456484D02*
X2465301Y-7446960D01*
X2465301Y-7446960D02*
X2455777Y-7437436D01*
X2455777Y-7437436D02*
X2446253Y-7418388D01*
X2446253Y-7418388D02*
X2436729Y-7380293D01*
X2436729Y-7380293D02*
X2436729Y-7332674D01*
X2436729Y-7332674D02*
X2446253Y-7294579D01*
X2446253Y-7294579D02*
X2455777Y-7275531D01*
X2455777Y-7275531D02*
X2465301Y-7266008D01*
X2465301Y-7266008D02*
X2484348Y-7256484D01*
X2617682Y-7256484D02*
X2741491Y-7256484D01*
X2741491Y-7256484D02*
X2674825Y-7332674D01*
X2674825Y-7332674D02*
X2703396Y-7332674D01*
X2703396Y-7332674D02*
X2722444Y-7342198D01*
X2722444Y-7342198D02*
X2731968Y-7351722D01*
X2731968Y-7351722D02*
X2741491Y-7370769D01*
X2741491Y-7370769D02*
X2741491Y-7418388D01*
X2741491Y-7418388D02*
X2731968Y-7437436D01*
X2731968Y-7437436D02*
X2722444Y-7446960D01*
X2722444Y-7446960D02*
X2703396Y-7456484D01*
X2703396Y-7456484D02*
X2646253Y-7456484D01*
X2646253Y-7456484D02*
X2627206Y-7446960D01*
X2627206Y-7446960D02*
X2617682Y-7437436D01*
X2836729Y-7456484D02*
X2874825Y-7456484D01*
X2874825Y-7456484D02*
X2893872Y-7446960D01*
X2893872Y-7446960D02*
X2903396Y-7437436D01*
X2903396Y-7437436D02*
X2922444Y-7408865D01*
X2922444Y-7408865D02*
X2931967Y-7370769D01*
X2931967Y-7370769D02*
X2931967Y-7294579D01*
X2931967Y-7294579D02*
X2922444Y-7275531D01*
X2922444Y-7275531D02*
X2912920Y-7266008D01*
X2912920Y-7266008D02*
X2893872Y-7256484D01*
X2893872Y-7256484D02*
X2855777Y-7256484D01*
X2855777Y-7256484D02*
X2836729Y-7266008D01*
X2836729Y-7266008D02*
X2827206Y-7275531D01*
X2827206Y-7275531D02*
X2817682Y-7294579D01*
X2817682Y-7294579D02*
X2817682Y-7342198D01*
X2817682Y-7342198D02*
X2827206Y-7361246D01*
X2827206Y-7361246D02*
X2836729Y-7370769D01*
X2836729Y-7370769D02*
X2855777Y-7380293D01*
X2855777Y-7380293D02*
X2893872Y-7380293D01*
X2893872Y-7380293D02*
X2912920Y-7370769D01*
X2912920Y-7370769D02*
X2922444Y-7361246D01*
X2922444Y-7361246D02*
X2931967Y-7342198D01*
X3103396Y-7323150D02*
X3103396Y-7456484D01*
X3055777Y-7246960D02*
X3008158Y-7389817D01*
X3008158Y-7389817D02*
X3131967Y-7389817D01*
X3198634Y-7256484D02*
X3198634Y-7294579D01*
X3274825Y-7256484D02*
X3274825Y-7294579D01*
X3570063Y-7532674D02*
X3560539Y-7523150D01*
X3560539Y-7523150D02*
X3541491Y-7494579D01*
X3541491Y-7494579D02*
X3531968Y-7475531D01*
X3531968Y-7475531D02*
X3522444Y-7446960D01*
X3522444Y-7446960D02*
X3512920Y-7399341D01*
X3512920Y-7399341D02*
X3512920Y-7361246D01*
X3512920Y-7361246D02*
X3522444Y-7313627D01*
X3522444Y-7313627D02*
X3531968Y-7285055D01*
X3531968Y-7285055D02*
X3541491Y-7266008D01*
X3541491Y-7266008D02*
X3560539Y-7237436D01*
X3560539Y-7237436D02*
X3570063Y-7227912D01*
X3751015Y-7456484D02*
X3636729Y-7456484D01*
X3693872Y-7456484D02*
X3693872Y-7256484D01*
X3693872Y-7256484D02*
X3674825Y-7285055D01*
X3674825Y-7285055D02*
X3655777Y-7304103D01*
X3655777Y-7304103D02*
X3636729Y-7313627D01*
X3874825Y-7256484D02*
X3893872Y-7256484D01*
X3893872Y-7256484D02*
X3912920Y-7266008D01*
X3912920Y-7266008D02*
X3922444Y-7275531D01*
X3922444Y-7275531D02*
X3931968Y-7294579D01*
X3931968Y-7294579D02*
X3941491Y-7332674D01*
X3941491Y-7332674D02*
X3941491Y-7380293D01*
X3941491Y-7380293D02*
X3931968Y-7418388D01*
X3931968Y-7418388D02*
X3922444Y-7437436D01*
X3922444Y-7437436D02*
X3912920Y-7446960D01*
X3912920Y-7446960D02*
X3893872Y-7456484D01*
X3893872Y-7456484D02*
X3874825Y-7456484D01*
X3874825Y-7456484D02*
X3855777Y-7446960D01*
X3855777Y-7446960D02*
X3846253Y-7437436D01*
X3846253Y-7437436D02*
X3836729Y-7418388D01*
X3836729Y-7418388D02*
X3827206Y-7380293D01*
X3827206Y-7380293D02*
X3827206Y-7332674D01*
X3827206Y-7332674D02*
X3836729Y-7294579D01*
X3836729Y-7294579D02*
X3846253Y-7275531D01*
X3846253Y-7275531D02*
X3855777Y-7266008D01*
X3855777Y-7266008D02*
X3874825Y-7256484D01*
X4179587Y-7456484D02*
X4179587Y-7256484D01*
X4265301Y-7456484D02*
X4265301Y-7351722D01*
X4265301Y-7351722D02*
X4255777Y-7332674D01*
X4255777Y-7332674D02*
X4236730Y-7323150D01*
X4236730Y-7323150D02*
X4208158Y-7323150D01*
X4208158Y-7323150D02*
X4189110Y-7332674D01*
X4189110Y-7332674D02*
X4179587Y-7342198D01*
X4389111Y-7456484D02*
X4370063Y-7446960D01*
X4370063Y-7446960D02*
X4360539Y-7437436D01*
X4360539Y-7437436D02*
X4351015Y-7418388D01*
X4351015Y-7418388D02*
X4351015Y-7361246D01*
X4351015Y-7361246D02*
X4360539Y-7342198D01*
X4360539Y-7342198D02*
X4370063Y-7332674D01*
X4370063Y-7332674D02*
X4389111Y-7323150D01*
X4389111Y-7323150D02*
X4417682Y-7323150D01*
X4417682Y-7323150D02*
X4436730Y-7332674D01*
X4436730Y-7332674D02*
X4446253Y-7342198D01*
X4446253Y-7342198D02*
X4455777Y-7361246D01*
X4455777Y-7361246D02*
X4455777Y-7418388D01*
X4455777Y-7418388D02*
X4446253Y-7437436D01*
X4446253Y-7437436D02*
X4436730Y-7446960D01*
X4436730Y-7446960D02*
X4417682Y-7456484D01*
X4417682Y-7456484D02*
X4389111Y-7456484D01*
X4570063Y-7456484D02*
X4551015Y-7446960D01*
X4551015Y-7446960D02*
X4541492Y-7427912D01*
X4541492Y-7427912D02*
X4541492Y-7256484D01*
X4722444Y-7446960D02*
X4703396Y-7456484D01*
X4703396Y-7456484D02*
X4665301Y-7456484D01*
X4665301Y-7456484D02*
X4646253Y-7446960D01*
X4646253Y-7446960D02*
X4636730Y-7427912D01*
X4636730Y-7427912D02*
X4636730Y-7351722D01*
X4636730Y-7351722D02*
X4646253Y-7332674D01*
X4646253Y-7332674D02*
X4665301Y-7323150D01*
X4665301Y-7323150D02*
X4703396Y-7323150D01*
X4703396Y-7323150D02*
X4722444Y-7332674D01*
X4722444Y-7332674D02*
X4731968Y-7351722D01*
X4731968Y-7351722D02*
X4731968Y-7370769D01*
X4731968Y-7370769D02*
X4636730Y-7389817D01*
X4808158Y-7446960D02*
X4827206Y-7456484D01*
X4827206Y-7456484D02*
X4865301Y-7456484D01*
X4865301Y-7456484D02*
X4884349Y-7446960D01*
X4884349Y-7446960D02*
X4893873Y-7427912D01*
X4893873Y-7427912D02*
X4893873Y-7418388D01*
X4893873Y-7418388D02*
X4884349Y-7399341D01*
X4884349Y-7399341D02*
X4865301Y-7389817D01*
X4865301Y-7389817D02*
X4836730Y-7389817D01*
X4836730Y-7389817D02*
X4817682Y-7380293D01*
X4817682Y-7380293D02*
X4808158Y-7361246D01*
X4808158Y-7361246D02*
X4808158Y-7351722D01*
X4808158Y-7351722D02*
X4817682Y-7332674D01*
X4817682Y-7332674D02*
X4836730Y-7323150D01*
X4836730Y-7323150D02*
X4865301Y-7323150D01*
X4865301Y-7323150D02*
X4884349Y-7332674D01*
X4960539Y-7532674D02*
X4970063Y-7523150D01*
X4970063Y-7523150D02*
X4989111Y-7494579D01*
X4989111Y-7494579D02*
X4998634Y-7475531D01*
X4998634Y-7475531D02*
X5008158Y-7446960D01*
X5008158Y-7446960D02*
X5017682Y-7399341D01*
X5017682Y-7399341D02*
X5017682Y-7361246D01*
X5017682Y-7361246D02*
X5008158Y-7313627D01*
X5008158Y-7313627D02*
X4998634Y-7285055D01*
X4998634Y-7285055D02*
X4989111Y-7266008D01*
X4989111Y-7266008D02*
X4970063Y-7237436D01*
X4970063Y-7237436D02*
X4960539Y-7227912D01*
D12*
X-125000Y-7569000D02*
X-5000Y-7689000D01*
X-5000Y-7569000D02*
X-125000Y-7689000D01*
X-65000Y-7569000D02*
X-65000Y-7689000D01*
X-125000Y-7629000D02*
X-5000Y-7629000D01*
D11*
X360539Y-7720484D02*
X246253Y-7720484D01*
X303396Y-7720484D02*
X303396Y-7520484D01*
X303396Y-7520484D02*
X284348Y-7549055D01*
X284348Y-7549055D02*
X265301Y-7568103D01*
X265301Y-7568103D02*
X246253Y-7577627D01*
X446253Y-7701436D02*
X455777Y-7710960D01*
X455777Y-7710960D02*
X446253Y-7720484D01*
X446253Y-7720484D02*
X436729Y-7710960D01*
X436729Y-7710960D02*
X446253Y-7701436D01*
X446253Y-7701436D02*
X446253Y-7720484D01*
X531967Y-7539531D02*
X541491Y-7530008D01*
X541491Y-7530008D02*
X560539Y-7520484D01*
X560539Y-7520484D02*
X608158Y-7520484D01*
X608158Y-7520484D02*
X627205Y-7530008D01*
X627205Y-7530008D02*
X636729Y-7539531D01*
X636729Y-7539531D02*
X646253Y-7558579D01*
X646253Y-7558579D02*
X646253Y-7577627D01*
X646253Y-7577627D02*
X636729Y-7606198D01*
X636729Y-7606198D02*
X522443Y-7720484D01*
X522443Y-7720484D02*
X646253Y-7720484D01*
X770062Y-7520484D02*
X789110Y-7520484D01*
X789110Y-7520484D02*
X808158Y-7530008D01*
X808158Y-7530008D02*
X817682Y-7539531D01*
X817682Y-7539531D02*
X827205Y-7558579D01*
X827205Y-7558579D02*
X836729Y-7596674D01*
X836729Y-7596674D02*
X836729Y-7644293D01*
X836729Y-7644293D02*
X827205Y-7682388D01*
X827205Y-7682388D02*
X817682Y-7701436D01*
X817682Y-7701436D02*
X808158Y-7710960D01*
X808158Y-7710960D02*
X789110Y-7720484D01*
X789110Y-7720484D02*
X770062Y-7720484D01*
X770062Y-7720484D02*
X751015Y-7710960D01*
X751015Y-7710960D02*
X741491Y-7701436D01*
X741491Y-7701436D02*
X731967Y-7682388D01*
X731967Y-7682388D02*
X722443Y-7644293D01*
X722443Y-7644293D02*
X722443Y-7596674D01*
X722443Y-7596674D02*
X731967Y-7558579D01*
X731967Y-7558579D02*
X741491Y-7539531D01*
X741491Y-7539531D02*
X751015Y-7530008D01*
X751015Y-7530008D02*
X770062Y-7520484D01*
X960539Y-7520484D02*
X979586Y-7520484D01*
X979586Y-7520484D02*
X998634Y-7530008D01*
X998634Y-7530008D02*
X1008158Y-7539531D01*
X1008158Y-7539531D02*
X1017682Y-7558579D01*
X1017682Y-7558579D02*
X1027205Y-7596674D01*
X1027205Y-7596674D02*
X1027205Y-7644293D01*
X1027205Y-7644293D02*
X1017682Y-7682388D01*
X1017682Y-7682388D02*
X1008158Y-7701436D01*
X1008158Y-7701436D02*
X998634Y-7710960D01*
X998634Y-7710960D02*
X979586Y-7720484D01*
X979586Y-7720484D02*
X960539Y-7720484D01*
X960539Y-7720484D02*
X941491Y-7710960D01*
X941491Y-7710960D02*
X931967Y-7701436D01*
X931967Y-7701436D02*
X922443Y-7682388D01*
X922443Y-7682388D02*
X912920Y-7644293D01*
X912920Y-7644293D02*
X912920Y-7596674D01*
X912920Y-7596674D02*
X922443Y-7558579D01*
X922443Y-7558579D02*
X931967Y-7539531D01*
X931967Y-7539531D02*
X941491Y-7530008D01*
X941491Y-7530008D02*
X960539Y-7520484D01*
X1112920Y-7720484D02*
X1112920Y-7587150D01*
X1112920Y-7606198D02*
X1122444Y-7596674D01*
X1122444Y-7596674D02*
X1141491Y-7587150D01*
X1141491Y-7587150D02*
X1170063Y-7587150D01*
X1170063Y-7587150D02*
X1189110Y-7596674D01*
X1189110Y-7596674D02*
X1198634Y-7615722D01*
X1198634Y-7615722D02*
X1198634Y-7720484D01*
X1198634Y-7615722D02*
X1208158Y-7596674D01*
X1208158Y-7596674D02*
X1227205Y-7587150D01*
X1227205Y-7587150D02*
X1255777Y-7587150D01*
X1255777Y-7587150D02*
X1274825Y-7596674D01*
X1274825Y-7596674D02*
X1284348Y-7615722D01*
X1284348Y-7615722D02*
X1284348Y-7720484D01*
X1379586Y-7720484D02*
X1379586Y-7587150D01*
X1379586Y-7606198D02*
X1389110Y-7596674D01*
X1389110Y-7596674D02*
X1408158Y-7587150D01*
X1408158Y-7587150D02*
X1436729Y-7587150D01*
X1436729Y-7587150D02*
X1455777Y-7596674D01*
X1455777Y-7596674D02*
X1465301Y-7615722D01*
X1465301Y-7615722D02*
X1465301Y-7720484D01*
X1465301Y-7615722D02*
X1474824Y-7596674D01*
X1474824Y-7596674D02*
X1493872Y-7587150D01*
X1493872Y-7587150D02*
X1522443Y-7587150D01*
X1522443Y-7587150D02*
X1541491Y-7596674D01*
X1541491Y-7596674D02*
X1551015Y-7615722D01*
X1551015Y-7615722D02*
X1551015Y-7720484D01*
X1941491Y-7510960D02*
X1770063Y-7768103D01*
X2198634Y-7520484D02*
X2217682Y-7520484D01*
X2217682Y-7520484D02*
X2236729Y-7530008D01*
X2236729Y-7530008D02*
X2246253Y-7539531D01*
X2246253Y-7539531D02*
X2255777Y-7558579D01*
X2255777Y-7558579D02*
X2265301Y-7596674D01*
X2265301Y-7596674D02*
X2265301Y-7644293D01*
X2265301Y-7644293D02*
X2255777Y-7682388D01*
X2255777Y-7682388D02*
X2246253Y-7701436D01*
X2246253Y-7701436D02*
X2236729Y-7710960D01*
X2236729Y-7710960D02*
X2217682Y-7720484D01*
X2217682Y-7720484D02*
X2198634Y-7720484D01*
X2198634Y-7720484D02*
X2179587Y-7710960D01*
X2179587Y-7710960D02*
X2170063Y-7701436D01*
X2170063Y-7701436D02*
X2160539Y-7682388D01*
X2160539Y-7682388D02*
X2151015Y-7644293D01*
X2151015Y-7644293D02*
X2151015Y-7596674D01*
X2151015Y-7596674D02*
X2160539Y-7558579D01*
X2160539Y-7558579D02*
X2170063Y-7539531D01*
X2170063Y-7539531D02*
X2179587Y-7530008D01*
X2179587Y-7530008D02*
X2198634Y-7520484D01*
X2351015Y-7701436D02*
X2360539Y-7710960D01*
X2360539Y-7710960D02*
X2351015Y-7720484D01*
X2351015Y-7720484D02*
X2341491Y-7710960D01*
X2341491Y-7710960D02*
X2351015Y-7701436D01*
X2351015Y-7701436D02*
X2351015Y-7720484D01*
X2484348Y-7520484D02*
X2503396Y-7520484D01*
X2503396Y-7520484D02*
X2522444Y-7530008D01*
X2522444Y-7530008D02*
X2531968Y-7539531D01*
X2531968Y-7539531D02*
X2541491Y-7558579D01*
X2541491Y-7558579D02*
X2551015Y-7596674D01*
X2551015Y-7596674D02*
X2551015Y-7644293D01*
X2551015Y-7644293D02*
X2541491Y-7682388D01*
X2541491Y-7682388D02*
X2531968Y-7701436D01*
X2531968Y-7701436D02*
X2522444Y-7710960D01*
X2522444Y-7710960D02*
X2503396Y-7720484D01*
X2503396Y-7720484D02*
X2484348Y-7720484D01*
X2484348Y-7720484D02*
X2465301Y-7710960D01*
X2465301Y-7710960D02*
X2455777Y-7701436D01*
X2455777Y-7701436D02*
X2446253Y-7682388D01*
X2446253Y-7682388D02*
X2436729Y-7644293D01*
X2436729Y-7644293D02*
X2436729Y-7596674D01*
X2436729Y-7596674D02*
X2446253Y-7558579D01*
X2446253Y-7558579D02*
X2455777Y-7539531D01*
X2455777Y-7539531D02*
X2465301Y-7530008D01*
X2465301Y-7530008D02*
X2484348Y-7520484D01*
X2722444Y-7587150D02*
X2722444Y-7720484D01*
X2674825Y-7510960D02*
X2627206Y-7653817D01*
X2627206Y-7653817D02*
X2751015Y-7653817D01*
X2808158Y-7520484D02*
X2941491Y-7520484D01*
X2941491Y-7520484D02*
X2855777Y-7720484D01*
X3008158Y-7539531D02*
X3017682Y-7530008D01*
X3017682Y-7530008D02*
X3036729Y-7520484D01*
X3036729Y-7520484D02*
X3084348Y-7520484D01*
X3084348Y-7520484D02*
X3103396Y-7530008D01*
X3103396Y-7530008D02*
X3112920Y-7539531D01*
X3112920Y-7539531D02*
X3122444Y-7558579D01*
X3122444Y-7558579D02*
X3122444Y-7577627D01*
X3122444Y-7577627D02*
X3112920Y-7606198D01*
X3112920Y-7606198D02*
X2998634Y-7720484D01*
X2998634Y-7720484D02*
X3122444Y-7720484D01*
X3198634Y-7520484D02*
X3198634Y-7558579D01*
X3274825Y-7520484D02*
X3274825Y-7558579D01*
X3570063Y-7796674D02*
X3560539Y-7787150D01*
X3560539Y-7787150D02*
X3541491Y-7758579D01*
X3541491Y-7758579D02*
X3531968Y-7739531D01*
X3531968Y-7739531D02*
X3522444Y-7710960D01*
X3522444Y-7710960D02*
X3512920Y-7663341D01*
X3512920Y-7663341D02*
X3512920Y-7625246D01*
X3512920Y-7625246D02*
X3522444Y-7577627D01*
X3522444Y-7577627D02*
X3531968Y-7549055D01*
X3531968Y-7549055D02*
X3541491Y-7530008D01*
X3541491Y-7530008D02*
X3560539Y-7501436D01*
X3560539Y-7501436D02*
X3570063Y-7491912D01*
X3731968Y-7587150D02*
X3731968Y-7720484D01*
X3684348Y-7510960D02*
X3636729Y-7653817D01*
X3636729Y-7653817D02*
X3760539Y-7653817D01*
X3989110Y-7720484D02*
X3989110Y-7520484D01*
X4074825Y-7720484D02*
X4074825Y-7615722D01*
X4074825Y-7615722D02*
X4065301Y-7596674D01*
X4065301Y-7596674D02*
X4046253Y-7587150D01*
X4046253Y-7587150D02*
X4017682Y-7587150D01*
X4017682Y-7587150D02*
X3998634Y-7596674D01*
X3998634Y-7596674D02*
X3989110Y-7606198D01*
X4198634Y-7720484D02*
X4179587Y-7710960D01*
X4179587Y-7710960D02*
X4170063Y-7701436D01*
X4170063Y-7701436D02*
X4160539Y-7682388D01*
X4160539Y-7682388D02*
X4160539Y-7625246D01*
X4160539Y-7625246D02*
X4170063Y-7606198D01*
X4170063Y-7606198D02*
X4179587Y-7596674D01*
X4179587Y-7596674D02*
X4198634Y-7587150D01*
X4198634Y-7587150D02*
X4227206Y-7587150D01*
X4227206Y-7587150D02*
X4246253Y-7596674D01*
X4246253Y-7596674D02*
X4255777Y-7606198D01*
X4255777Y-7606198D02*
X4265301Y-7625246D01*
X4265301Y-7625246D02*
X4265301Y-7682388D01*
X4265301Y-7682388D02*
X4255777Y-7701436D01*
X4255777Y-7701436D02*
X4246253Y-7710960D01*
X4246253Y-7710960D02*
X4227206Y-7720484D01*
X4227206Y-7720484D02*
X4198634Y-7720484D01*
X4379587Y-7720484D02*
X4360539Y-7710960D01*
X4360539Y-7710960D02*
X4351015Y-7691912D01*
X4351015Y-7691912D02*
X4351015Y-7520484D01*
X4531968Y-7710960D02*
X4512920Y-7720484D01*
X4512920Y-7720484D02*
X4474825Y-7720484D01*
X4474825Y-7720484D02*
X4455777Y-7710960D01*
X4455777Y-7710960D02*
X4446253Y-7691912D01*
X4446253Y-7691912D02*
X4446253Y-7615722D01*
X4446253Y-7615722D02*
X4455777Y-7596674D01*
X4455777Y-7596674D02*
X4474825Y-7587150D01*
X4474825Y-7587150D02*
X4512920Y-7587150D01*
X4512920Y-7587150D02*
X4531968Y-7596674D01*
X4531968Y-7596674D02*
X4541492Y-7615722D01*
X4541492Y-7615722D02*
X4541492Y-7634769D01*
X4541492Y-7634769D02*
X4446253Y-7653817D01*
X4617682Y-7710960D02*
X4636730Y-7720484D01*
X4636730Y-7720484D02*
X4674825Y-7720484D01*
X4674825Y-7720484D02*
X4693873Y-7710960D01*
X4693873Y-7710960D02*
X4703396Y-7691912D01*
X4703396Y-7691912D02*
X4703396Y-7682388D01*
X4703396Y-7682388D02*
X4693873Y-7663341D01*
X4693873Y-7663341D02*
X4674825Y-7653817D01*
X4674825Y-7653817D02*
X4646253Y-7653817D01*
X4646253Y-7653817D02*
X4627206Y-7644293D01*
X4627206Y-7644293D02*
X4617682Y-7625246D01*
X4617682Y-7625246D02*
X4617682Y-7615722D01*
X4617682Y-7615722D02*
X4627206Y-7596674D01*
X4627206Y-7596674D02*
X4646253Y-7587150D01*
X4646253Y-7587150D02*
X4674825Y-7587150D01*
X4674825Y-7587150D02*
X4693873Y-7596674D01*
X4770063Y-7796674D02*
X4779587Y-7787150D01*
X4779587Y-7787150D02*
X4798634Y-7758579D01*
X4798634Y-7758579D02*
X4808158Y-7739531D01*
X4808158Y-7739531D02*
X4817682Y-7710960D01*
X4817682Y-7710960D02*
X4827206Y-7663341D01*
X4827206Y-7663341D02*
X4827206Y-7625246D01*
X4827206Y-7625246D02*
X4817682Y-7577627D01*
X4817682Y-7577627D02*
X4808158Y-7549055D01*
X4808158Y-7549055D02*
X4798634Y-7530008D01*
X4798634Y-7530008D02*
X4779587Y-7501436D01*
X4779587Y-7501436D02*
X4770063Y-7491912D01*
D13*
X-145000Y-7823000D02*
X-5000Y-7963000D01*
X-5000Y-7823000D02*
X-145000Y-7963000D01*
X-25502Y-7942498D02*
X-25502Y-7843502D01*
X-124498Y-7843502D01*
X-124498Y-7942498D01*
X-25502Y-7942498D01*
D11*
X360539Y-7984484D02*
X246253Y-7984484D01*
X303396Y-7984484D02*
X303396Y-7784484D01*
X303396Y-7784484D02*
X284348Y-7813055D01*
X284348Y-7813055D02*
X265301Y-7832103D01*
X265301Y-7832103D02*
X246253Y-7841627D01*
X446253Y-7965436D02*
X455777Y-7974960D01*
X455777Y-7974960D02*
X446253Y-7984484D01*
X446253Y-7984484D02*
X436729Y-7974960D01*
X436729Y-7974960D02*
X446253Y-7965436D01*
X446253Y-7965436D02*
X446253Y-7984484D01*
X627205Y-7851150D02*
X627205Y-7984484D01*
X579586Y-7774960D02*
X531967Y-7917817D01*
X531967Y-7917817D02*
X655777Y-7917817D01*
X770062Y-7784484D02*
X789110Y-7784484D01*
X789110Y-7784484D02*
X808158Y-7794008D01*
X808158Y-7794008D02*
X817682Y-7803531D01*
X817682Y-7803531D02*
X827205Y-7822579D01*
X827205Y-7822579D02*
X836729Y-7860674D01*
X836729Y-7860674D02*
X836729Y-7908293D01*
X836729Y-7908293D02*
X827205Y-7946388D01*
X827205Y-7946388D02*
X817682Y-7965436D01*
X817682Y-7965436D02*
X808158Y-7974960D01*
X808158Y-7974960D02*
X789110Y-7984484D01*
X789110Y-7984484D02*
X770062Y-7984484D01*
X770062Y-7984484D02*
X751015Y-7974960D01*
X751015Y-7974960D02*
X741491Y-7965436D01*
X741491Y-7965436D02*
X731967Y-7946388D01*
X731967Y-7946388D02*
X722443Y-7908293D01*
X722443Y-7908293D02*
X722443Y-7860674D01*
X722443Y-7860674D02*
X731967Y-7822579D01*
X731967Y-7822579D02*
X741491Y-7803531D01*
X741491Y-7803531D02*
X751015Y-7794008D01*
X751015Y-7794008D02*
X770062Y-7784484D01*
X960539Y-7784484D02*
X979586Y-7784484D01*
X979586Y-7784484D02*
X998634Y-7794008D01*
X998634Y-7794008D02*
X1008158Y-7803531D01*
X1008158Y-7803531D02*
X1017682Y-7822579D01*
X1017682Y-7822579D02*
X1027205Y-7860674D01*
X1027205Y-7860674D02*
X1027205Y-7908293D01*
X1027205Y-7908293D02*
X1017682Y-7946388D01*
X1017682Y-7946388D02*
X1008158Y-7965436D01*
X1008158Y-7965436D02*
X998634Y-7974960D01*
X998634Y-7974960D02*
X979586Y-7984484D01*
X979586Y-7984484D02*
X960539Y-7984484D01*
X960539Y-7984484D02*
X941491Y-7974960D01*
X941491Y-7974960D02*
X931967Y-7965436D01*
X931967Y-7965436D02*
X922443Y-7946388D01*
X922443Y-7946388D02*
X912920Y-7908293D01*
X912920Y-7908293D02*
X912920Y-7860674D01*
X912920Y-7860674D02*
X922443Y-7822579D01*
X922443Y-7822579D02*
X931967Y-7803531D01*
X931967Y-7803531D02*
X941491Y-7794008D01*
X941491Y-7794008D02*
X960539Y-7784484D01*
X1112920Y-7984484D02*
X1112920Y-7851150D01*
X1112920Y-7870198D02*
X1122444Y-7860674D01*
X1122444Y-7860674D02*
X1141491Y-7851150D01*
X1141491Y-7851150D02*
X1170063Y-7851150D01*
X1170063Y-7851150D02*
X1189110Y-7860674D01*
X1189110Y-7860674D02*
X1198634Y-7879722D01*
X1198634Y-7879722D02*
X1198634Y-7984484D01*
X1198634Y-7879722D02*
X1208158Y-7860674D01*
X1208158Y-7860674D02*
X1227205Y-7851150D01*
X1227205Y-7851150D02*
X1255777Y-7851150D01*
X1255777Y-7851150D02*
X1274825Y-7860674D01*
X1274825Y-7860674D02*
X1284348Y-7879722D01*
X1284348Y-7879722D02*
X1284348Y-7984484D01*
X1379586Y-7984484D02*
X1379586Y-7851150D01*
X1379586Y-7870198D02*
X1389110Y-7860674D01*
X1389110Y-7860674D02*
X1408158Y-7851150D01*
X1408158Y-7851150D02*
X1436729Y-7851150D01*
X1436729Y-7851150D02*
X1455777Y-7860674D01*
X1455777Y-7860674D02*
X1465301Y-7879722D01*
X1465301Y-7879722D02*
X1465301Y-7984484D01*
X1465301Y-7879722D02*
X1474824Y-7860674D01*
X1474824Y-7860674D02*
X1493872Y-7851150D01*
X1493872Y-7851150D02*
X1522443Y-7851150D01*
X1522443Y-7851150D02*
X1541491Y-7860674D01*
X1541491Y-7860674D02*
X1551015Y-7879722D01*
X1551015Y-7879722D02*
X1551015Y-7984484D01*
X1941491Y-7774960D02*
X1770063Y-8032103D01*
X2198634Y-7784484D02*
X2217682Y-7784484D01*
X2217682Y-7784484D02*
X2236729Y-7794008D01*
X2236729Y-7794008D02*
X2246253Y-7803531D01*
X2246253Y-7803531D02*
X2255777Y-7822579D01*
X2255777Y-7822579D02*
X2265301Y-7860674D01*
X2265301Y-7860674D02*
X2265301Y-7908293D01*
X2265301Y-7908293D02*
X2255777Y-7946388D01*
X2255777Y-7946388D02*
X2246253Y-7965436D01*
X2246253Y-7965436D02*
X2236729Y-7974960D01*
X2236729Y-7974960D02*
X2217682Y-7984484D01*
X2217682Y-7984484D02*
X2198634Y-7984484D01*
X2198634Y-7984484D02*
X2179587Y-7974960D01*
X2179587Y-7974960D02*
X2170063Y-7965436D01*
X2170063Y-7965436D02*
X2160539Y-7946388D01*
X2160539Y-7946388D02*
X2151015Y-7908293D01*
X2151015Y-7908293D02*
X2151015Y-7860674D01*
X2151015Y-7860674D02*
X2160539Y-7822579D01*
X2160539Y-7822579D02*
X2170063Y-7803531D01*
X2170063Y-7803531D02*
X2179587Y-7794008D01*
X2179587Y-7794008D02*
X2198634Y-7784484D01*
X2351015Y-7965436D02*
X2360539Y-7974960D01*
X2360539Y-7974960D02*
X2351015Y-7984484D01*
X2351015Y-7984484D02*
X2341491Y-7974960D01*
X2341491Y-7974960D02*
X2351015Y-7965436D01*
X2351015Y-7965436D02*
X2351015Y-7984484D01*
X2484348Y-7784484D02*
X2503396Y-7784484D01*
X2503396Y-7784484D02*
X2522444Y-7794008D01*
X2522444Y-7794008D02*
X2531968Y-7803531D01*
X2531968Y-7803531D02*
X2541491Y-7822579D01*
X2541491Y-7822579D02*
X2551015Y-7860674D01*
X2551015Y-7860674D02*
X2551015Y-7908293D01*
X2551015Y-7908293D02*
X2541491Y-7946388D01*
X2541491Y-7946388D02*
X2531968Y-7965436D01*
X2531968Y-7965436D02*
X2522444Y-7974960D01*
X2522444Y-7974960D02*
X2503396Y-7984484D01*
X2503396Y-7984484D02*
X2484348Y-7984484D01*
X2484348Y-7984484D02*
X2465301Y-7974960D01*
X2465301Y-7974960D02*
X2455777Y-7965436D01*
X2455777Y-7965436D02*
X2446253Y-7946388D01*
X2446253Y-7946388D02*
X2436729Y-7908293D01*
X2436729Y-7908293D02*
X2436729Y-7860674D01*
X2436729Y-7860674D02*
X2446253Y-7822579D01*
X2446253Y-7822579D02*
X2455777Y-7803531D01*
X2455777Y-7803531D02*
X2465301Y-7794008D01*
X2465301Y-7794008D02*
X2484348Y-7784484D01*
X2731968Y-7784484D02*
X2636729Y-7784484D01*
X2636729Y-7784484D02*
X2627206Y-7879722D01*
X2627206Y-7879722D02*
X2636729Y-7870198D01*
X2636729Y-7870198D02*
X2655777Y-7860674D01*
X2655777Y-7860674D02*
X2703396Y-7860674D01*
X2703396Y-7860674D02*
X2722444Y-7870198D01*
X2722444Y-7870198D02*
X2731968Y-7879722D01*
X2731968Y-7879722D02*
X2741491Y-7898769D01*
X2741491Y-7898769D02*
X2741491Y-7946388D01*
X2741491Y-7946388D02*
X2731968Y-7965436D01*
X2731968Y-7965436D02*
X2722444Y-7974960D01*
X2722444Y-7974960D02*
X2703396Y-7984484D01*
X2703396Y-7984484D02*
X2655777Y-7984484D01*
X2655777Y-7984484D02*
X2636729Y-7974960D01*
X2636729Y-7974960D02*
X2627206Y-7965436D01*
X2922444Y-7784484D02*
X2827206Y-7784484D01*
X2827206Y-7784484D02*
X2817682Y-7879722D01*
X2817682Y-7879722D02*
X2827206Y-7870198D01*
X2827206Y-7870198D02*
X2846253Y-7860674D01*
X2846253Y-7860674D02*
X2893872Y-7860674D01*
X2893872Y-7860674D02*
X2912920Y-7870198D01*
X2912920Y-7870198D02*
X2922444Y-7879722D01*
X2922444Y-7879722D02*
X2931967Y-7898769D01*
X2931967Y-7898769D02*
X2931967Y-7946388D01*
X2931967Y-7946388D02*
X2922444Y-7965436D01*
X2922444Y-7965436D02*
X2912920Y-7974960D01*
X2912920Y-7974960D02*
X2893872Y-7984484D01*
X2893872Y-7984484D02*
X2846253Y-7984484D01*
X2846253Y-7984484D02*
X2827206Y-7974960D01*
X2827206Y-7974960D02*
X2817682Y-7965436D01*
X3122444Y-7984484D02*
X3008158Y-7984484D01*
X3065301Y-7984484D02*
X3065301Y-7784484D01*
X3065301Y-7784484D02*
X3046253Y-7813055D01*
X3046253Y-7813055D02*
X3027206Y-7832103D01*
X3027206Y-7832103D02*
X3008158Y-7841627D01*
X3198634Y-7784484D02*
X3198634Y-7822579D01*
X3274825Y-7784484D02*
X3274825Y-7822579D01*
X3570063Y-8060674D02*
X3560539Y-8051150D01*
X3560539Y-8051150D02*
X3541491Y-8022579D01*
X3541491Y-8022579D02*
X3531968Y-8003531D01*
X3531968Y-8003531D02*
X3522444Y-7974960D01*
X3522444Y-7974960D02*
X3512920Y-7927341D01*
X3512920Y-7927341D02*
X3512920Y-7889246D01*
X3512920Y-7889246D02*
X3522444Y-7841627D01*
X3522444Y-7841627D02*
X3531968Y-7813055D01*
X3531968Y-7813055D02*
X3541491Y-7794008D01*
X3541491Y-7794008D02*
X3560539Y-7765436D01*
X3560539Y-7765436D02*
X3570063Y-7755912D01*
X3627206Y-7784484D02*
X3751015Y-7784484D01*
X3751015Y-7784484D02*
X3684348Y-7860674D01*
X3684348Y-7860674D02*
X3712920Y-7860674D01*
X3712920Y-7860674D02*
X3731968Y-7870198D01*
X3731968Y-7870198D02*
X3741491Y-7879722D01*
X3741491Y-7879722D02*
X3751015Y-7898769D01*
X3751015Y-7898769D02*
X3751015Y-7946388D01*
X3751015Y-7946388D02*
X3741491Y-7965436D01*
X3741491Y-7965436D02*
X3731968Y-7974960D01*
X3731968Y-7974960D02*
X3712920Y-7984484D01*
X3712920Y-7984484D02*
X3655777Y-7984484D01*
X3655777Y-7984484D02*
X3636729Y-7974960D01*
X3636729Y-7974960D02*
X3627206Y-7965436D01*
X3989110Y-7984484D02*
X3989110Y-7784484D01*
X4074825Y-7984484D02*
X4074825Y-7879722D01*
X4074825Y-7879722D02*
X4065301Y-7860674D01*
X4065301Y-7860674D02*
X4046253Y-7851150D01*
X4046253Y-7851150D02*
X4017682Y-7851150D01*
X4017682Y-7851150D02*
X3998634Y-7860674D01*
X3998634Y-7860674D02*
X3989110Y-7870198D01*
X4198634Y-7984484D02*
X4179587Y-7974960D01*
X4179587Y-7974960D02*
X4170063Y-7965436D01*
X4170063Y-7965436D02*
X4160539Y-7946388D01*
X4160539Y-7946388D02*
X4160539Y-7889246D01*
X4160539Y-7889246D02*
X4170063Y-7870198D01*
X4170063Y-7870198D02*
X4179587Y-7860674D01*
X4179587Y-7860674D02*
X4198634Y-7851150D01*
X4198634Y-7851150D02*
X4227206Y-7851150D01*
X4227206Y-7851150D02*
X4246253Y-7860674D01*
X4246253Y-7860674D02*
X4255777Y-7870198D01*
X4255777Y-7870198D02*
X4265301Y-7889246D01*
X4265301Y-7889246D02*
X4265301Y-7946388D01*
X4265301Y-7946388D02*
X4255777Y-7965436D01*
X4255777Y-7965436D02*
X4246253Y-7974960D01*
X4246253Y-7974960D02*
X4227206Y-7984484D01*
X4227206Y-7984484D02*
X4198634Y-7984484D01*
X4379587Y-7984484D02*
X4360539Y-7974960D01*
X4360539Y-7974960D02*
X4351015Y-7955912D01*
X4351015Y-7955912D02*
X4351015Y-7784484D01*
X4531968Y-7974960D02*
X4512920Y-7984484D01*
X4512920Y-7984484D02*
X4474825Y-7984484D01*
X4474825Y-7984484D02*
X4455777Y-7974960D01*
X4455777Y-7974960D02*
X4446253Y-7955912D01*
X4446253Y-7955912D02*
X4446253Y-7879722D01*
X4446253Y-7879722D02*
X4455777Y-7860674D01*
X4455777Y-7860674D02*
X4474825Y-7851150D01*
X4474825Y-7851150D02*
X4512920Y-7851150D01*
X4512920Y-7851150D02*
X4531968Y-7860674D01*
X4531968Y-7860674D02*
X4541492Y-7879722D01*
X4541492Y-7879722D02*
X4541492Y-7898769D01*
X4541492Y-7898769D02*
X4446253Y-7917817D01*
X4617682Y-7974960D02*
X4636730Y-7984484D01*
X4636730Y-7984484D02*
X4674825Y-7984484D01*
X4674825Y-7984484D02*
X4693873Y-7974960D01*
X4693873Y-7974960D02*
X4703396Y-7955912D01*
X4703396Y-7955912D02*
X4703396Y-7946388D01*
X4703396Y-7946388D02*
X4693873Y-7927341D01*
X4693873Y-7927341D02*
X4674825Y-7917817D01*
X4674825Y-7917817D02*
X4646253Y-7917817D01*
X4646253Y-7917817D02*
X4627206Y-7908293D01*
X4627206Y-7908293D02*
X4617682Y-7889246D01*
X4617682Y-7889246D02*
X4617682Y-7879722D01*
X4617682Y-7879722D02*
X4627206Y-7860674D01*
X4627206Y-7860674D02*
X4646253Y-7851150D01*
X4646253Y-7851150D02*
X4674825Y-7851150D01*
X4674825Y-7851150D02*
X4693873Y-7860674D01*
X4770063Y-8060674D02*
X4779587Y-8051150D01*
X4779587Y-8051150D02*
X4798634Y-8022579D01*
X4798634Y-8022579D02*
X4808158Y-8003531D01*
X4808158Y-8003531D02*
X4817682Y-7974960D01*
X4817682Y-7974960D02*
X4827206Y-7927341D01*
X4827206Y-7927341D02*
X4827206Y-7889246D01*
X4827206Y-7889246D02*
X4817682Y-7841627D01*
X4817682Y-7841627D02*
X4808158Y-7813055D01*
X4808158Y-7813055D02*
X4798634Y-7794008D01*
X4798634Y-7794008D02*
X4779587Y-7765436D01*
X4779587Y-7765436D02*
X4770063Y-7755912D01*
D14*
X-165000Y-8077000D02*
X-5000Y-8237000D01*
X-5000Y-8077000D02*
X-165000Y-8237000D01*
X-85000Y-8237000D02*
X-5000Y-8157000D01*
X-85000Y-8077000D01*
X-165000Y-8157000D01*
X-85000Y-8237000D01*
D11*
X360539Y-8248484D02*
X246253Y-8248484D01*
X303396Y-8248484D02*
X303396Y-8048484D01*
X303396Y-8048484D02*
X284348Y-8077055D01*
X284348Y-8077055D02*
X265301Y-8096103D01*
X265301Y-8096103D02*
X246253Y-8105627D01*
X446253Y-8229436D02*
X455777Y-8238960D01*
X455777Y-8238960D02*
X446253Y-8248484D01*
X446253Y-8248484D02*
X436729Y-8238960D01*
X436729Y-8238960D02*
X446253Y-8229436D01*
X446253Y-8229436D02*
X446253Y-8248484D01*
X627205Y-8048484D02*
X589110Y-8048484D01*
X589110Y-8048484D02*
X570063Y-8058008D01*
X570063Y-8058008D02*
X560539Y-8067531D01*
X560539Y-8067531D02*
X541491Y-8096103D01*
X541491Y-8096103D02*
X531967Y-8134198D01*
X531967Y-8134198D02*
X531967Y-8210388D01*
X531967Y-8210388D02*
X541491Y-8229436D01*
X541491Y-8229436D02*
X551015Y-8238960D01*
X551015Y-8238960D02*
X570063Y-8248484D01*
X570063Y-8248484D02*
X608158Y-8248484D01*
X608158Y-8248484D02*
X627205Y-8238960D01*
X627205Y-8238960D02*
X636729Y-8229436D01*
X636729Y-8229436D02*
X646253Y-8210388D01*
X646253Y-8210388D02*
X646253Y-8162769D01*
X646253Y-8162769D02*
X636729Y-8143722D01*
X636729Y-8143722D02*
X627205Y-8134198D01*
X627205Y-8134198D02*
X608158Y-8124674D01*
X608158Y-8124674D02*
X570063Y-8124674D01*
X570063Y-8124674D02*
X551015Y-8134198D01*
X551015Y-8134198D02*
X541491Y-8143722D01*
X541491Y-8143722D02*
X531967Y-8162769D01*
X770062Y-8048484D02*
X789110Y-8048484D01*
X789110Y-8048484D02*
X808158Y-8058008D01*
X808158Y-8058008D02*
X817682Y-8067531D01*
X817682Y-8067531D02*
X827205Y-8086579D01*
X827205Y-8086579D02*
X836729Y-8124674D01*
X836729Y-8124674D02*
X836729Y-8172293D01*
X836729Y-8172293D02*
X827205Y-8210388D01*
X827205Y-8210388D02*
X817682Y-8229436D01*
X817682Y-8229436D02*
X808158Y-8238960D01*
X808158Y-8238960D02*
X789110Y-8248484D01*
X789110Y-8248484D02*
X770062Y-8248484D01*
X770062Y-8248484D02*
X751015Y-8238960D01*
X751015Y-8238960D02*
X741491Y-8229436D01*
X741491Y-8229436D02*
X731967Y-8210388D01*
X731967Y-8210388D02*
X722443Y-8172293D01*
X722443Y-8172293D02*
X722443Y-8124674D01*
X722443Y-8124674D02*
X731967Y-8086579D01*
X731967Y-8086579D02*
X741491Y-8067531D01*
X741491Y-8067531D02*
X751015Y-8058008D01*
X751015Y-8058008D02*
X770062Y-8048484D01*
X960539Y-8048484D02*
X979586Y-8048484D01*
X979586Y-8048484D02*
X998634Y-8058008D01*
X998634Y-8058008D02*
X1008158Y-8067531D01*
X1008158Y-8067531D02*
X1017682Y-8086579D01*
X1017682Y-8086579D02*
X1027205Y-8124674D01*
X1027205Y-8124674D02*
X1027205Y-8172293D01*
X1027205Y-8172293D02*
X1017682Y-8210388D01*
X1017682Y-8210388D02*
X1008158Y-8229436D01*
X1008158Y-8229436D02*
X998634Y-8238960D01*
X998634Y-8238960D02*
X979586Y-8248484D01*
X979586Y-8248484D02*
X960539Y-8248484D01*
X960539Y-8248484D02*
X941491Y-8238960D01*
X941491Y-8238960D02*
X931967Y-8229436D01*
X931967Y-8229436D02*
X922443Y-8210388D01*
X922443Y-8210388D02*
X912920Y-8172293D01*
X912920Y-8172293D02*
X912920Y-8124674D01*
X912920Y-8124674D02*
X922443Y-8086579D01*
X922443Y-8086579D02*
X931967Y-8067531D01*
X931967Y-8067531D02*
X941491Y-8058008D01*
X941491Y-8058008D02*
X960539Y-8048484D01*
X1112920Y-8248484D02*
X1112920Y-8115150D01*
X1112920Y-8134198D02*
X1122444Y-8124674D01*
X1122444Y-8124674D02*
X1141491Y-8115150D01*
X1141491Y-8115150D02*
X1170063Y-8115150D01*
X1170063Y-8115150D02*
X1189110Y-8124674D01*
X1189110Y-8124674D02*
X1198634Y-8143722D01*
X1198634Y-8143722D02*
X1198634Y-8248484D01*
X1198634Y-8143722D02*
X1208158Y-8124674D01*
X1208158Y-8124674D02*
X1227205Y-8115150D01*
X1227205Y-8115150D02*
X1255777Y-8115150D01*
X1255777Y-8115150D02*
X1274825Y-8124674D01*
X1274825Y-8124674D02*
X1284348Y-8143722D01*
X1284348Y-8143722D02*
X1284348Y-8248484D01*
X1379586Y-8248484D02*
X1379586Y-8115150D01*
X1379586Y-8134198D02*
X1389110Y-8124674D01*
X1389110Y-8124674D02*
X1408158Y-8115150D01*
X1408158Y-8115150D02*
X1436729Y-8115150D01*
X1436729Y-8115150D02*
X1455777Y-8124674D01*
X1455777Y-8124674D02*
X1465301Y-8143722D01*
X1465301Y-8143722D02*
X1465301Y-8248484D01*
X1465301Y-8143722D02*
X1474824Y-8124674D01*
X1474824Y-8124674D02*
X1493872Y-8115150D01*
X1493872Y-8115150D02*
X1522443Y-8115150D01*
X1522443Y-8115150D02*
X1541491Y-8124674D01*
X1541491Y-8124674D02*
X1551015Y-8143722D01*
X1551015Y-8143722D02*
X1551015Y-8248484D01*
X1941491Y-8038960D02*
X1770063Y-8296103D01*
X2198634Y-8048484D02*
X2217682Y-8048484D01*
X2217682Y-8048484D02*
X2236729Y-8058008D01*
X2236729Y-8058008D02*
X2246253Y-8067531D01*
X2246253Y-8067531D02*
X2255777Y-8086579D01*
X2255777Y-8086579D02*
X2265301Y-8124674D01*
X2265301Y-8124674D02*
X2265301Y-8172293D01*
X2265301Y-8172293D02*
X2255777Y-8210388D01*
X2255777Y-8210388D02*
X2246253Y-8229436D01*
X2246253Y-8229436D02*
X2236729Y-8238960D01*
X2236729Y-8238960D02*
X2217682Y-8248484D01*
X2217682Y-8248484D02*
X2198634Y-8248484D01*
X2198634Y-8248484D02*
X2179587Y-8238960D01*
X2179587Y-8238960D02*
X2170063Y-8229436D01*
X2170063Y-8229436D02*
X2160539Y-8210388D01*
X2160539Y-8210388D02*
X2151015Y-8172293D01*
X2151015Y-8172293D02*
X2151015Y-8124674D01*
X2151015Y-8124674D02*
X2160539Y-8086579D01*
X2160539Y-8086579D02*
X2170063Y-8067531D01*
X2170063Y-8067531D02*
X2179587Y-8058008D01*
X2179587Y-8058008D02*
X2198634Y-8048484D01*
X2351015Y-8229436D02*
X2360539Y-8238960D01*
X2360539Y-8238960D02*
X2351015Y-8248484D01*
X2351015Y-8248484D02*
X2341491Y-8238960D01*
X2341491Y-8238960D02*
X2351015Y-8229436D01*
X2351015Y-8229436D02*
X2351015Y-8248484D01*
X2484348Y-8048484D02*
X2503396Y-8048484D01*
X2503396Y-8048484D02*
X2522444Y-8058008D01*
X2522444Y-8058008D02*
X2531968Y-8067531D01*
X2531968Y-8067531D02*
X2541491Y-8086579D01*
X2541491Y-8086579D02*
X2551015Y-8124674D01*
X2551015Y-8124674D02*
X2551015Y-8172293D01*
X2551015Y-8172293D02*
X2541491Y-8210388D01*
X2541491Y-8210388D02*
X2531968Y-8229436D01*
X2531968Y-8229436D02*
X2522444Y-8238960D01*
X2522444Y-8238960D02*
X2503396Y-8248484D01*
X2503396Y-8248484D02*
X2484348Y-8248484D01*
X2484348Y-8248484D02*
X2465301Y-8238960D01*
X2465301Y-8238960D02*
X2455777Y-8229436D01*
X2455777Y-8229436D02*
X2446253Y-8210388D01*
X2446253Y-8210388D02*
X2436729Y-8172293D01*
X2436729Y-8172293D02*
X2436729Y-8124674D01*
X2436729Y-8124674D02*
X2446253Y-8086579D01*
X2446253Y-8086579D02*
X2455777Y-8067531D01*
X2455777Y-8067531D02*
X2465301Y-8058008D01*
X2465301Y-8058008D02*
X2484348Y-8048484D01*
X2722444Y-8048484D02*
X2684348Y-8048484D01*
X2684348Y-8048484D02*
X2665301Y-8058008D01*
X2665301Y-8058008D02*
X2655777Y-8067531D01*
X2655777Y-8067531D02*
X2636729Y-8096103D01*
X2636729Y-8096103D02*
X2627206Y-8134198D01*
X2627206Y-8134198D02*
X2627206Y-8210388D01*
X2627206Y-8210388D02*
X2636729Y-8229436D01*
X2636729Y-8229436D02*
X2646253Y-8238960D01*
X2646253Y-8238960D02*
X2665301Y-8248484D01*
X2665301Y-8248484D02*
X2703396Y-8248484D01*
X2703396Y-8248484D02*
X2722444Y-8238960D01*
X2722444Y-8238960D02*
X2731968Y-8229436D01*
X2731968Y-8229436D02*
X2741491Y-8210388D01*
X2741491Y-8210388D02*
X2741491Y-8162769D01*
X2741491Y-8162769D02*
X2731968Y-8143722D01*
X2731968Y-8143722D02*
X2722444Y-8134198D01*
X2722444Y-8134198D02*
X2703396Y-8124674D01*
X2703396Y-8124674D02*
X2665301Y-8124674D01*
X2665301Y-8124674D02*
X2646253Y-8134198D01*
X2646253Y-8134198D02*
X2636729Y-8143722D01*
X2636729Y-8143722D02*
X2627206Y-8162769D01*
X2808158Y-8048484D02*
X2931967Y-8048484D01*
X2931967Y-8048484D02*
X2865301Y-8124674D01*
X2865301Y-8124674D02*
X2893872Y-8124674D01*
X2893872Y-8124674D02*
X2912920Y-8134198D01*
X2912920Y-8134198D02*
X2922444Y-8143722D01*
X2922444Y-8143722D02*
X2931967Y-8162769D01*
X2931967Y-8162769D02*
X2931967Y-8210388D01*
X2931967Y-8210388D02*
X2922444Y-8229436D01*
X2922444Y-8229436D02*
X2912920Y-8238960D01*
X2912920Y-8238960D02*
X2893872Y-8248484D01*
X2893872Y-8248484D02*
X2836729Y-8248484D01*
X2836729Y-8248484D02*
X2817682Y-8238960D01*
X2817682Y-8238960D02*
X2808158Y-8229436D01*
X3055777Y-8048484D02*
X3074825Y-8048484D01*
X3074825Y-8048484D02*
X3093872Y-8058008D01*
X3093872Y-8058008D02*
X3103396Y-8067531D01*
X3103396Y-8067531D02*
X3112920Y-8086579D01*
X3112920Y-8086579D02*
X3122444Y-8124674D01*
X3122444Y-8124674D02*
X3122444Y-8172293D01*
X3122444Y-8172293D02*
X3112920Y-8210388D01*
X3112920Y-8210388D02*
X3103396Y-8229436D01*
X3103396Y-8229436D02*
X3093872Y-8238960D01*
X3093872Y-8238960D02*
X3074825Y-8248484D01*
X3074825Y-8248484D02*
X3055777Y-8248484D01*
X3055777Y-8248484D02*
X3036729Y-8238960D01*
X3036729Y-8238960D02*
X3027206Y-8229436D01*
X3027206Y-8229436D02*
X3017682Y-8210388D01*
X3017682Y-8210388D02*
X3008158Y-8172293D01*
X3008158Y-8172293D02*
X3008158Y-8124674D01*
X3008158Y-8124674D02*
X3017682Y-8086579D01*
X3017682Y-8086579D02*
X3027206Y-8067531D01*
X3027206Y-8067531D02*
X3036729Y-8058008D01*
X3036729Y-8058008D02*
X3055777Y-8048484D01*
X3198634Y-8048484D02*
X3198634Y-8086579D01*
X3274825Y-8048484D02*
X3274825Y-8086579D01*
X3570063Y-8324674D02*
X3560539Y-8315150D01*
X3560539Y-8315150D02*
X3541491Y-8286579D01*
X3541491Y-8286579D02*
X3531968Y-8267531D01*
X3531968Y-8267531D02*
X3522444Y-8238960D01*
X3522444Y-8238960D02*
X3512920Y-8191341D01*
X3512920Y-8191341D02*
X3512920Y-8153246D01*
X3512920Y-8153246D02*
X3522444Y-8105627D01*
X3522444Y-8105627D02*
X3531968Y-8077055D01*
X3531968Y-8077055D02*
X3541491Y-8058008D01*
X3541491Y-8058008D02*
X3560539Y-8029436D01*
X3560539Y-8029436D02*
X3570063Y-8019912D01*
X3636729Y-8067531D02*
X3646253Y-8058008D01*
X3646253Y-8058008D02*
X3665301Y-8048484D01*
X3665301Y-8048484D02*
X3712920Y-8048484D01*
X3712920Y-8048484D02*
X3731968Y-8058008D01*
X3731968Y-8058008D02*
X3741491Y-8067531D01*
X3741491Y-8067531D02*
X3751015Y-8086579D01*
X3751015Y-8086579D02*
X3751015Y-8105627D01*
X3751015Y-8105627D02*
X3741491Y-8134198D01*
X3741491Y-8134198D02*
X3627206Y-8248484D01*
X3627206Y-8248484D02*
X3751015Y-8248484D01*
X3989110Y-8248484D02*
X3989110Y-8048484D01*
X4074825Y-8248484D02*
X4074825Y-8143722D01*
X4074825Y-8143722D02*
X4065301Y-8124674D01*
X4065301Y-8124674D02*
X4046253Y-8115150D01*
X4046253Y-8115150D02*
X4017682Y-8115150D01*
X4017682Y-8115150D02*
X3998634Y-8124674D01*
X3998634Y-8124674D02*
X3989110Y-8134198D01*
X4198634Y-8248484D02*
X4179587Y-8238960D01*
X4179587Y-8238960D02*
X4170063Y-8229436D01*
X4170063Y-8229436D02*
X4160539Y-8210388D01*
X4160539Y-8210388D02*
X4160539Y-8153246D01*
X4160539Y-8153246D02*
X4170063Y-8134198D01*
X4170063Y-8134198D02*
X4179587Y-8124674D01*
X4179587Y-8124674D02*
X4198634Y-8115150D01*
X4198634Y-8115150D02*
X4227206Y-8115150D01*
X4227206Y-8115150D02*
X4246253Y-8124674D01*
X4246253Y-8124674D02*
X4255777Y-8134198D01*
X4255777Y-8134198D02*
X4265301Y-8153246D01*
X4265301Y-8153246D02*
X4265301Y-8210388D01*
X4265301Y-8210388D02*
X4255777Y-8229436D01*
X4255777Y-8229436D02*
X4246253Y-8238960D01*
X4246253Y-8238960D02*
X4227206Y-8248484D01*
X4227206Y-8248484D02*
X4198634Y-8248484D01*
X4379587Y-8248484D02*
X4360539Y-8238960D01*
X4360539Y-8238960D02*
X4351015Y-8219912D01*
X4351015Y-8219912D02*
X4351015Y-8048484D01*
X4531968Y-8238960D02*
X4512920Y-8248484D01*
X4512920Y-8248484D02*
X4474825Y-8248484D01*
X4474825Y-8248484D02*
X4455777Y-8238960D01*
X4455777Y-8238960D02*
X4446253Y-8219912D01*
X4446253Y-8219912D02*
X4446253Y-8143722D01*
X4446253Y-8143722D02*
X4455777Y-8124674D01*
X4455777Y-8124674D02*
X4474825Y-8115150D01*
X4474825Y-8115150D02*
X4512920Y-8115150D01*
X4512920Y-8115150D02*
X4531968Y-8124674D01*
X4531968Y-8124674D02*
X4541492Y-8143722D01*
X4541492Y-8143722D02*
X4541492Y-8162769D01*
X4541492Y-8162769D02*
X4446253Y-8181817D01*
X4617682Y-8238960D02*
X4636730Y-8248484D01*
X4636730Y-8248484D02*
X4674825Y-8248484D01*
X4674825Y-8248484D02*
X4693873Y-8238960D01*
X4693873Y-8238960D02*
X4703396Y-8219912D01*
X4703396Y-8219912D02*
X4703396Y-8210388D01*
X4703396Y-8210388D02*
X4693873Y-8191341D01*
X4693873Y-8191341D02*
X4674825Y-8181817D01*
X4674825Y-8181817D02*
X4646253Y-8181817D01*
X4646253Y-8181817D02*
X4627206Y-8172293D01*
X4627206Y-8172293D02*
X4617682Y-8153246D01*
X4617682Y-8153246D02*
X4617682Y-8143722D01*
X4617682Y-8143722D02*
X4627206Y-8124674D01*
X4627206Y-8124674D02*
X4646253Y-8115150D01*
X4646253Y-8115150D02*
X4674825Y-8115150D01*
X4674825Y-8115150D02*
X4693873Y-8124674D01*
X4770063Y-8324674D02*
X4779587Y-8315150D01*
X4779587Y-8315150D02*
X4798634Y-8286579D01*
X4798634Y-8286579D02*
X4808158Y-8267531D01*
X4808158Y-8267531D02*
X4817682Y-8238960D01*
X4817682Y-8238960D02*
X4827206Y-8191341D01*
X4827206Y-8191341D02*
X4827206Y-8153246D01*
X4827206Y-8153246D02*
X4817682Y-8105627D01*
X4817682Y-8105627D02*
X4808158Y-8077055D01*
X4808158Y-8077055D02*
X4798634Y-8058008D01*
X4798634Y-8058008D02*
X4779587Y-8029436D01*
X4779587Y-8029436D02*
X4770063Y-8019912D01*
M02*
