G04 #@! TF.GenerationSoftware,KiCad,Pcbnew,10.0.4*
G04 #@! TF.CreationDate,2026-09-02T14:56:08+01:00*
G04 #@! TF.ProjectId,pl60c_dmx,706c3630-635f-4646-9d78-2e6b69636164,rev?*
G04 #@! TF.SameCoordinates,Original*
G04 #@! TF.FileFunction,Copper,L2,Bot*
G04 #@! TF.FilePolarity,Positive*
%FSLAX46Y46*%
G04 Gerber Fmt 4.6, Leading zero omitted, Abs format (unit mm)*
G04 Created by KiCad (PCBNEW 10.0.4) date 2026-09-02 14:56:08*
%MOMM*%
%LPD*%
G01*
G04 APERTURE LIST*
G04 Aperture macros list*
%AMRoundRect*
0 Rectangle with rounded corners*
0 $1 Rounding radius*
0 $2 $3 $4 $5 $6 $7 $8 $9 X,Y pos of 4 corners*
0 Add a 4 corners polygon primitive as box body*
4,1,4,$2,$3,$4,$5,$6,$7,$8,$9,$2,$3,0*
0 Add four circle primitives for the rounded corners*
1,1,$1+$1,$2,$3*
1,1,$1+$1,$4,$5*
1,1,$1+$1,$6,$7*
1,1,$1+$1,$8,$9*
0 Add four rect primitives between the rounded corners*
20,1,$1+$1,$2,$3,$4,$5,0*
20,1,$1+$1,$4,$5,$6,$7,0*
20,1,$1+$1,$6,$7,$8,$9,0*
20,1,$1+$1,$8,$9,$2,$3,0*%
G04 Aperture macros list end*
G04 #@! TA.AperFunction,ComponentPad*
%ADD10R,1.700000X1.700000*%
G04 #@! TD*
G04 #@! TA.AperFunction,ComponentPad*
%ADD11C,1.700000*%
G04 #@! TD*
G04 #@! TA.AperFunction,ComponentPad*
%ADD12C,3.400000*%
G04 #@! TD*
G04 #@! TA.AperFunction,ComponentPad*
%ADD13C,2.900000*%
G04 #@! TD*
G04 #@! TA.AperFunction,ComponentPad*
%ADD14RoundRect,0.250000X-1.049999X-1.049999X1.049999X-1.049999X1.049999X1.049999X-1.049999X1.049999X0*%
G04 #@! TD*
G04 #@! TA.AperFunction,ComponentPad*
%ADD15C,2.599999*%
G04 #@! TD*
G04 #@! TA.AperFunction,HeatsinkPad*
%ADD16C,0.600000*%
G04 #@! TD*
G04 #@! TA.AperFunction,ComponentPad*
%ADD17O,2.100000X1.000000*%
G04 #@! TD*
G04 #@! TA.AperFunction,ComponentPad*
%ADD18O,1.600000X1.000000*%
G04 #@! TD*
G04 #@! TA.AperFunction,ViaPad*
%ADD19C,0.700000*%
G04 #@! TD*
G04 #@! TA.AperFunction,ViaPad*
%ADD20C,0.800000*%
G04 #@! TD*
G04 #@! TA.AperFunction,Conductor*
%ADD21C,0.400000*%
G04 #@! TD*
G04 #@! TA.AperFunction,Conductor*
%ADD22C,0.250000*%
G04 #@! TD*
G04 APERTURE END LIST*
D10*
X43000000Y-22000000D03*
D11*
X43000000Y-24540000D03*
X43000000Y-27080000D03*
X43000000Y-29620000D03*
X43000000Y-32160000D03*
X43000000Y-34700000D03*
D12*
X62850000Y-16500000D03*
D13*
X66665000Y-20310000D03*
X62850000Y-20310000D03*
X66665000Y-27290000D03*
D12*
X62850000Y-24120000D03*
D13*
X73020000Y-12060000D03*
D14*
X50500000Y-48500000D03*
D15*
X55580000Y-48500000D03*
X60660000Y-48500000D03*
D16*
X27100000Y-8510000D03*
X27100000Y-9910000D03*
X27800000Y-7810000D03*
X27800000Y-9210000D03*
X27800000Y-10610000D03*
X28500000Y-8510000D03*
X28500000Y-9910000D03*
X29200000Y-7810000D03*
X29200000Y-9210000D03*
X29200000Y-10610000D03*
X29900000Y-8510000D03*
X29900000Y-9910000D03*
D17*
X6230000Y-26680000D03*
D18*
X2050000Y-26680000D03*
D17*
X6230000Y-35320000D03*
D18*
X2050000Y-35320000D03*
D10*
X47500000Y-22000000D03*
D11*
X47500000Y-24540000D03*
X47500000Y-27080000D03*
X47500000Y-29620000D03*
D19*
X30000000Y-30000000D03*
X28250000Y-49850000D03*
X18000000Y-5025000D03*
X25000000Y-15000000D03*
X7100000Y-12700000D03*
X35000000Y-50000000D03*
X29750000Y-49850000D03*
X75000000Y-20000000D03*
X35000000Y-25000000D03*
X5000000Y-25000000D03*
X5000000Y-40000000D03*
X49975000Y-7000000D03*
X40000000Y-40000000D03*
X60000000Y-10000000D03*
X35000000Y-35000000D03*
X15000000Y-10000000D03*
X30000000Y-15000000D03*
X41485000Y-49050000D03*
X40975000Y-43500000D03*
X35000000Y-5000000D03*
X70000000Y-5000000D03*
X25000000Y-35000000D03*
X54062500Y-39000000D03*
X50000000Y-45000000D03*
X5000000Y-45000000D03*
X20000000Y-25000000D03*
X39250000Y-49850000D03*
X10000000Y-25000000D03*
X65000000Y-5000000D03*
X10000000Y-50000000D03*
X35000000Y-10000000D03*
X14000000Y-34025000D03*
X7750000Y-49850000D03*
X55000000Y-10000000D03*
X18750000Y-49850000D03*
X14000000Y-24025000D03*
X17250000Y-49850000D03*
X5000000Y-15000000D03*
X25000000Y-50000000D03*
X16500000Y-33550000D03*
X25000000Y-30000000D03*
X14200000Y-9500000D03*
X75000000Y-30000000D03*
X15975000Y-21000000D03*
X17200000Y-42500000D03*
X50000000Y-5000000D03*
X35000000Y-30000000D03*
X65000000Y-50000000D03*
X30000000Y-25000000D03*
X19700000Y-3500000D03*
X55000000Y-15000000D03*
X20000000Y-35000000D03*
X30000000Y-35000000D03*
X25000000Y-5000000D03*
X20000000Y-50000000D03*
X11200000Y-21000000D03*
X75000000Y-25000000D03*
X20000000Y-40000000D03*
X52200000Y-13905000D03*
X25000000Y-25000000D03*
X30000000Y-40000000D03*
X70000000Y-50000000D03*
D20*
X7145000Y-36404400D03*
D19*
X60000000Y-15000000D03*
X15000000Y-50000000D03*
X65000000Y-10000000D03*
X65000000Y-15000000D03*
X35000000Y-15000000D03*
X5000000Y-10000000D03*
X55000000Y-5000000D03*
X60000000Y-5000000D03*
X45975000Y-17000000D03*
X60000000Y-30000000D03*
X45000000Y-40000000D03*
X56425000Y-20000000D03*
X55000000Y-30000000D03*
X54760500Y-21265800D03*
X52214900Y-21797600D03*
X51868800Y-11945000D03*
X20193300Y-18920000D03*
X14718800Y-31306300D03*
X4744999Y-30250000D03*
X11545000Y-32350000D03*
X13973400Y-33123100D03*
X18304800Y-32137500D03*
X19967200Y-16730000D03*
X12545000Y-27850000D03*
X12545000Y-34150000D03*
X9690400Y-7202900D03*
D20*
X34580000Y-41595000D03*
X49374600Y-9149500D03*
X27451800Y-22850500D03*
X21621800Y-42243700D03*
D19*
X14971100Y-41578900D03*
X22532800Y-4030000D03*
X10975000Y-33035000D03*
X12963100Y-36825000D03*
X35309600Y-21961800D03*
X39515100Y-42014700D03*
X24468700Y-15717400D03*
X25794300Y-20544400D03*
X27062600Y-20545900D03*
X34890600Y-20938300D03*
X33580000Y-46150000D03*
X22532800Y-6570000D03*
D20*
X10046100Y-10503900D03*
X10487300Y-17300000D03*
D19*
X48869800Y-36194800D03*
X22532800Y-7840000D03*
X43175000Y-14602600D03*
X25254000Y-11392600D03*
X46885300Y-13240800D03*
X35708300Y-12662600D03*
X35810500Y-13932600D03*
X44013400Y-10491200D03*
X39806700Y-18926900D03*
X43205900Y-38490800D03*
X40032800Y-6570000D03*
X40032800Y-5300000D03*
D21*
X27100000Y-7100000D02*
X27100000Y-7810000D01*
X7100000Y-12900000D02*
X7100000Y-12700000D01*
X14500000Y-9500000D02*
X15000000Y-10000000D01*
X27800000Y-10610000D02*
X28500000Y-9910000D01*
X11200000Y-21000000D02*
X10000000Y-22200000D01*
X34976500Y-14976500D02*
X35000000Y-15000000D01*
X48410200Y-8564800D02*
X48410200Y-14564800D01*
X41485000Y-49050000D02*
X40050000Y-49050000D01*
X16500000Y-33550000D02*
X18550000Y-33550000D01*
X29900000Y-8510000D02*
X29200000Y-7810000D01*
X50000000Y-42999300D02*
X50000000Y-45000000D01*
X54062500Y-39000000D02*
X50063200Y-42999300D01*
X6230000Y-35320000D02*
X7661700Y-35320000D01*
X21200000Y-5000000D02*
X25000000Y-5000000D01*
X53889100Y-31110900D02*
X53889100Y-38826600D01*
X40050000Y-49050000D02*
X39250000Y-49850000D01*
X29900000Y-9910000D02*
X29200000Y-9210000D01*
X10000000Y-22200000D02*
X10000000Y-25000000D01*
X14200000Y-9500000D02*
X14500000Y-9500000D01*
X35000000Y-10000000D02*
X34976500Y-10023500D01*
X50000000Y-42999300D02*
X47999300Y-42999300D01*
X5000000Y-45000000D02*
X5000000Y-40000000D01*
X28500000Y-9910000D02*
X27800000Y-9210000D01*
X5000000Y-15000000D02*
X7100000Y-12900000D01*
X35000000Y-30000000D02*
X35000000Y-35000000D01*
X27800000Y-7810000D02*
X27100000Y-7810000D01*
X65000000Y-10000000D02*
X65000000Y-15000000D01*
X5000000Y-40000000D02*
X7145000Y-37855000D01*
X4798300Y-25201700D02*
X4798300Y-26680000D01*
X18175000Y-5025000D02*
X19700000Y-3500000D01*
X35000000Y-5000000D02*
X35000000Y-10000000D01*
X15000000Y-10000000D02*
X18000000Y-7000000D01*
X27800000Y-9210000D02*
X27100000Y-8510000D01*
X19700000Y-40000000D02*
X17200000Y-42500000D01*
X29200000Y-9210000D02*
X29900000Y-8510000D01*
X56425000Y-16425000D02*
X55000000Y-15000000D01*
X50000000Y-6975000D02*
X50000000Y-5000000D01*
X50063200Y-42999300D02*
X50000000Y-42999300D01*
X47500000Y-24540000D02*
X45976500Y-23016500D01*
X30000000Y-35000000D02*
X30000000Y-30000000D01*
X7145000Y-37855000D02*
X7145000Y-36404400D01*
X16025000Y-34025000D02*
X16500000Y-33550000D01*
X50000000Y-45000000D02*
X50500000Y-45500000D01*
X75000000Y-20000000D02*
X75000000Y-25000000D01*
X45000000Y-40000000D02*
X41950000Y-40000000D01*
X40975000Y-40975000D02*
X40975000Y-43500000D01*
X6230000Y-26680000D02*
X4798300Y-26680000D01*
X5000000Y-15000000D02*
X5000000Y-25000000D01*
X30000000Y-25000000D02*
X30000000Y-30000000D01*
X18000000Y-5025000D02*
X18175000Y-5025000D01*
X47999300Y-42999300D02*
X45000000Y-40000000D01*
X30000000Y-15000000D02*
X29200000Y-14200000D01*
X75000000Y-25000000D02*
X75000000Y-30000000D01*
X41950000Y-40000000D02*
X40975000Y-40975000D01*
X20000000Y-35000000D02*
X20000000Y-40000000D01*
X14000000Y-34025000D02*
X16025000Y-34025000D01*
X17200000Y-42500000D02*
X17200000Y-49800000D01*
X7661700Y-35320000D02*
X7661700Y-35887700D01*
X5000000Y-25000000D02*
X4798300Y-25201700D01*
X65000000Y-5000000D02*
X65000000Y-10000000D01*
X14000000Y-22975000D02*
X14000000Y-24025000D01*
X27100000Y-7810000D02*
X27100000Y-8510000D01*
X50500000Y-45500000D02*
X50500000Y-48500000D01*
X15975000Y-21000000D02*
X14000000Y-22975000D01*
X45976500Y-23016500D02*
X45976500Y-17001500D01*
X25000000Y-5000000D02*
X27100000Y-7100000D01*
X53889100Y-38826600D02*
X54062500Y-39000000D01*
X49975000Y-7000000D02*
X48410200Y-8564800D01*
X55000000Y-30000000D02*
X53889100Y-31110900D01*
X29200000Y-7810000D02*
X28500000Y-8510000D01*
X40975000Y-43500000D02*
X41485000Y-44010000D01*
X56425000Y-20000000D02*
X56425000Y-16425000D01*
X40000000Y-40000000D02*
X40975000Y-40975000D01*
X29200000Y-14200000D02*
X29200000Y-10610000D01*
X25000000Y-25000000D02*
X25000000Y-30000000D01*
X19700000Y-3500000D02*
X21200000Y-5000000D01*
X20000000Y-40000000D02*
X19700000Y-40000000D01*
X5000000Y-45000000D02*
X7750000Y-47750000D01*
X17200000Y-49800000D02*
X17250000Y-49850000D01*
X7661700Y-35887700D02*
X7145000Y-36404400D01*
X49975000Y-7000000D02*
X50000000Y-6975000D01*
X18000000Y-7000000D02*
X18000000Y-5025000D01*
X48410200Y-14564800D02*
X45975000Y-17000000D01*
X30000000Y-40000000D02*
X30000000Y-35000000D01*
X29200000Y-10610000D02*
X29900000Y-9910000D01*
X45976500Y-17001500D02*
X45975000Y-17000000D01*
X18550000Y-33550000D02*
X20000000Y-35000000D01*
X34976500Y-10023500D02*
X34976500Y-14976500D01*
X41485000Y-44010000D02*
X41485000Y-49050000D01*
X27800000Y-10610000D02*
X27100000Y-9910000D01*
X7750000Y-47750000D02*
X7750000Y-49850000D01*
D22*
X60660000Y-48500000D02*
X60660000Y-27165300D01*
X60660000Y-27165300D02*
X54760500Y-21265800D01*
X52864700Y-12940900D02*
X52864700Y-21147800D01*
X55580000Y-48500000D02*
X55699700Y-48380300D01*
X55699700Y-48380300D02*
X55699700Y-25282400D01*
X51868800Y-11945000D02*
X52864700Y-12940900D01*
X55699700Y-25282400D02*
X52214900Y-21797600D01*
X52864700Y-21147800D02*
X52214900Y-21797600D01*
X13973400Y-33123100D02*
X14718800Y-32377700D01*
X14718800Y-24394500D02*
X14718800Y-31306300D01*
X4744999Y-30250000D02*
X11545000Y-32350000D01*
X14718800Y-32377700D02*
X14718800Y-31306300D01*
X20193300Y-18920000D02*
X14718800Y-24394500D01*
X20894800Y-29547500D02*
X20894800Y-17657600D01*
X20894800Y-17657600D02*
X19967200Y-16730000D01*
X18304800Y-32137500D02*
X20894800Y-29547500D01*
X9690400Y-7202900D02*
X12545000Y-10057500D01*
D21*
X12545000Y-27850000D02*
X12545000Y-34150000D01*
D22*
X12545000Y-10057500D02*
X12545000Y-27850000D01*
D21*
X26803100Y-42243700D02*
X21621800Y-42243700D01*
X49374600Y-18893700D02*
X47500000Y-20768300D01*
X27451800Y-22850500D02*
X27451800Y-41595000D01*
X27451800Y-41595000D02*
X26803100Y-42243700D01*
X34580000Y-41595000D02*
X27451800Y-41595000D01*
X49374600Y-9149500D02*
X49374600Y-18893700D01*
X47500000Y-22000000D02*
X47500000Y-20768300D01*
D22*
X22532800Y-4030000D02*
X20322500Y-1819700D01*
X19485600Y-1819700D02*
X13316700Y-7988600D01*
X20322500Y-1819700D02*
X19485600Y-1819700D01*
X13316700Y-35319900D02*
X14971100Y-36974300D01*
X13316700Y-7988600D02*
X13316700Y-35319900D01*
X14971100Y-36974300D02*
X14971100Y-41578900D01*
X10975000Y-33035000D02*
X10975000Y-34836900D01*
X10975000Y-34836900D02*
X12963100Y-36825000D01*
X34283300Y-22988100D02*
X34283300Y-36782900D01*
X34283300Y-36782900D02*
X39515100Y-42014700D01*
X35309600Y-21961800D02*
X34283300Y-22988100D01*
X33627800Y-17461500D02*
X43000000Y-26833700D01*
X26212800Y-17461500D02*
X33627800Y-17461500D01*
X24468700Y-15717400D02*
X26212800Y-17461500D01*
X43000000Y-26833700D02*
X43000000Y-27080000D01*
X43000000Y-29620000D02*
X41830200Y-28450200D01*
X26488900Y-19849800D02*
X25794300Y-20544400D01*
X41830200Y-26279500D02*
X35400500Y-19849800D01*
X35400500Y-19849800D02*
X26488900Y-19849800D01*
X41830200Y-28450200D02*
X41830200Y-26279500D01*
X27062600Y-20545900D02*
X27327000Y-20281500D01*
X35168800Y-20281500D02*
X41398500Y-26511200D01*
X27327000Y-20281500D02*
X35168800Y-20281500D01*
X41398500Y-26511200D02*
X41398500Y-30558500D01*
X41398500Y-30558500D02*
X43000000Y-32160000D01*
X40966800Y-32666800D02*
X43000000Y-34700000D01*
X35215000Y-20938300D02*
X40966800Y-26690100D01*
X40966800Y-26690100D02*
X40966800Y-32666800D01*
X34890600Y-20938300D02*
X35215000Y-20938300D01*
X30774500Y-24808700D02*
X30774500Y-34847900D01*
X23525800Y-7563000D02*
X23525800Y-19207400D01*
X22532800Y-6570000D02*
X23525800Y-7563000D01*
X35337800Y-39411200D02*
X35337800Y-44392200D01*
X27438400Y-21472600D02*
X30774500Y-24808700D01*
X25791000Y-21472600D02*
X27438400Y-21472600D01*
X30774500Y-34847900D02*
X35337800Y-39411200D01*
X23525800Y-19207400D02*
X25791000Y-21472600D01*
X35337800Y-44392200D02*
X33580000Y-46150000D01*
D21*
X10046100Y-10503900D02*
X10487300Y-10945100D01*
X10487300Y-10945100D02*
X10487300Y-17300000D01*
D22*
X29272900Y-16403600D02*
X39573600Y-16403600D01*
X39573600Y-16403600D02*
X44589400Y-21419400D01*
X23967000Y-7047200D02*
X23967000Y-11097700D01*
X23967000Y-11097700D02*
X29272900Y-16403600D01*
X21867200Y-6269300D02*
X22268000Y-5868500D01*
X22788300Y-5868500D02*
X23967000Y-7047200D01*
X22532800Y-7840000D02*
X21867200Y-7174400D01*
X44589400Y-21419400D02*
X44589400Y-31914400D01*
X44589400Y-31914400D02*
X48869800Y-36194800D01*
X22268000Y-5868500D02*
X22788300Y-5868500D01*
X21867200Y-7174400D02*
X21867200Y-6269300D01*
X25254000Y-11392600D02*
X29520400Y-15659000D01*
X29520400Y-15659000D02*
X35278700Y-15659000D01*
X35278700Y-15659000D02*
X39143900Y-11793800D01*
X40265200Y-4602500D02*
X43175000Y-7512300D01*
X39143900Y-11793800D02*
X39143900Y-5198500D01*
X43175000Y-7512300D02*
X43175000Y-14602600D01*
X39739900Y-4602500D02*
X40265200Y-4602500D01*
X39143900Y-5198500D02*
X39739900Y-4602500D01*
X40623000Y-3739100D02*
X39382100Y-3739100D01*
X39382100Y-3739100D02*
X35708300Y-7412900D01*
X35708300Y-7412900D02*
X35708300Y-12662600D01*
X46885300Y-13240800D02*
X46885300Y-10001400D01*
X46885300Y-10001400D02*
X40623000Y-3739100D01*
X38560300Y-5171500D02*
X38560300Y-11182800D01*
X38560300Y-11182800D02*
X35810500Y-13932600D01*
X44013400Y-10491200D02*
X44013400Y-7740100D01*
X40444100Y-4170800D02*
X39561000Y-4170800D01*
X44013400Y-7740100D02*
X40444100Y-4170800D01*
X39561000Y-4170800D02*
X38560300Y-5171500D01*
X39806700Y-18926900D02*
X39806700Y-23006100D01*
X43255000Y-25696700D02*
X44157700Y-26599400D01*
X42497300Y-25696700D02*
X43255000Y-25696700D01*
X39806700Y-23006100D02*
X42497300Y-25696700D01*
X44157700Y-26599400D02*
X44157700Y-37539000D01*
X44157700Y-37539000D02*
X43205900Y-38490800D01*
X45038100Y-21102700D02*
X40032800Y-16097400D01*
X45038100Y-27158100D02*
X45038100Y-21102700D01*
X40032800Y-16097400D02*
X40032800Y-6570000D01*
X47500000Y-29620000D02*
X45038100Y-27158100D01*
X40032800Y-5300000D02*
X41966900Y-7234100D01*
X45469800Y-25049800D02*
X47500000Y-27080000D01*
X45469800Y-18888300D02*
X45469800Y-25049800D01*
X41966900Y-15385400D02*
X45469800Y-18888300D01*
X41966900Y-7234100D02*
X41966900Y-15385400D01*
G04 #@! TA.AperFunction,Conductor*
G36*
X28291682Y-22944805D02*
G01*
X28338114Y-22974062D01*
X30312681Y-24948629D01*
X30346166Y-25009952D01*
X30349000Y-25036310D01*
X30349000Y-34791882D01*
X30349000Y-34903918D01*
X30377997Y-35012137D01*
X30434015Y-35109163D01*
X30434017Y-35109165D01*
X34875981Y-39551129D01*
X34909466Y-39612452D01*
X34912300Y-39638810D01*
X34912300Y-40795780D01*
X34892615Y-40862819D01*
X34839811Y-40908574D01*
X34770653Y-40918518D01*
X34764109Y-40917397D01*
X34648997Y-40894500D01*
X34648993Y-40894500D01*
X34511007Y-40894500D01*
X34511005Y-40894500D01*
X34375677Y-40921418D01*
X34375667Y-40921421D01*
X34248195Y-40974221D01*
X34248182Y-40974228D01*
X34133458Y-41050885D01*
X34133454Y-41050888D01*
X34126162Y-41058181D01*
X34064839Y-41091666D01*
X34038481Y-41094500D01*
X28076300Y-41094500D01*
X28009261Y-41074815D01*
X27963506Y-41022011D01*
X27952300Y-40970500D01*
X27952300Y-23392018D01*
X27971985Y-23324979D01*
X27988623Y-23304333D01*
X27988933Y-23304023D01*
X27995914Y-23297042D01*
X28072575Y-23182311D01*
X28125380Y-23054828D01*
X28128816Y-23037554D01*
X28161197Y-22975644D01*
X28221912Y-22941068D01*
X28291682Y-22944805D01*
G37*
G04 #@! TD.AperFunction*
G04 #@! TA.AperFunction,Conductor*
G36*
X44013921Y-25271079D02*
G01*
X44030171Y-25269801D01*
X44032226Y-25270232D01*
X44034214Y-25269549D01*
X44066266Y-25277383D01*
X44098548Y-25284165D01*
X44100044Y-25285639D01*
X44102086Y-25286139D01*
X44124811Y-25310056D01*
X44148305Y-25333216D01*
X44148766Y-25335266D01*
X44150214Y-25336790D01*
X44163900Y-25393419D01*
X44163900Y-25704490D01*
X44144215Y-25771529D01*
X44091411Y-25817284D01*
X44022253Y-25827228D01*
X43958697Y-25798203D01*
X43952219Y-25792171D01*
X43770252Y-25610204D01*
X43760966Y-25593199D01*
X43747619Y-25579152D01*
X43745567Y-25568409D01*
X43185177Y-25008019D01*
X43192993Y-25005925D01*
X43307007Y-24940099D01*
X43400099Y-24847007D01*
X43465925Y-24732993D01*
X43468019Y-24725177D01*
X44013921Y-25271079D01*
G37*
G04 #@! TD.AperFunction*
G04 #@! TA.AperFunction,Conductor*
G36*
X39413029Y-16848785D02*
G01*
X39433671Y-16865419D01*
X43206071Y-20637819D01*
X43239556Y-20699142D01*
X43234572Y-20768834D01*
X43192700Y-20824767D01*
X43127236Y-20849184D01*
X43118390Y-20849500D01*
X42105143Y-20849500D01*
X42105117Y-20849502D01*
X42080012Y-20852413D01*
X42080008Y-20852415D01*
X41977235Y-20897793D01*
X41897794Y-20977234D01*
X41852415Y-21080006D01*
X41852415Y-21080008D01*
X41849500Y-21105131D01*
X41849500Y-22894856D01*
X41849502Y-22894882D01*
X41852413Y-22919987D01*
X41852415Y-22919991D01*
X41897793Y-23022764D01*
X41897794Y-23022765D01*
X41977235Y-23102206D01*
X42080009Y-23147585D01*
X42105135Y-23150500D01*
X42457191Y-23150499D01*
X42524228Y-23170183D01*
X42569983Y-23222987D01*
X42579927Y-23292146D01*
X42550902Y-23355701D01*
X42513484Y-23384984D01*
X42344855Y-23470905D01*
X42344846Y-23470911D01*
X42268919Y-23526075D01*
X42268918Y-23526076D01*
X42814823Y-24071980D01*
X42807007Y-24074075D01*
X42692993Y-24139901D01*
X42599901Y-24232993D01*
X42534075Y-24347007D01*
X42531980Y-24354822D01*
X41986076Y-23808918D01*
X41986075Y-23808919D01*
X41930911Y-23884846D01*
X41930905Y-23884855D01*
X41841581Y-24060162D01*
X41811148Y-24153826D01*
X41771710Y-24211501D01*
X41707351Y-24238699D01*
X41638505Y-24226784D01*
X41605536Y-24203188D01*
X40268519Y-22866171D01*
X40235034Y-22804848D01*
X40232200Y-22778490D01*
X40232200Y-19472707D01*
X40251885Y-19405668D01*
X40268520Y-19385025D01*
X40311973Y-19341572D01*
X40311976Y-19341569D01*
X40383165Y-19235027D01*
X40432201Y-19116644D01*
X40449207Y-19031152D01*
X40457200Y-18990971D01*
X40457200Y-18862828D01*
X40432202Y-18737161D01*
X40432201Y-18737160D01*
X40432201Y-18737156D01*
X40383165Y-18618773D01*
X40383164Y-18618772D01*
X40383161Y-18618766D01*
X40311976Y-18512231D01*
X40311973Y-18512227D01*
X40221372Y-18421626D01*
X40221368Y-18421623D01*
X40114833Y-18350438D01*
X40114824Y-18350433D01*
X39996444Y-18301399D01*
X39996438Y-18301397D01*
X39870771Y-18276400D01*
X39870769Y-18276400D01*
X39742631Y-18276400D01*
X39742629Y-18276400D01*
X39616961Y-18301397D01*
X39616955Y-18301399D01*
X39498575Y-18350433D01*
X39498566Y-18350438D01*
X39392031Y-18421623D01*
X39392027Y-18421626D01*
X39301426Y-18512227D01*
X39301423Y-18512231D01*
X39230238Y-18618766D01*
X39230233Y-18618775D01*
X39181199Y-18737155D01*
X39181197Y-18737161D01*
X39156200Y-18862828D01*
X39156200Y-18862831D01*
X39156200Y-18990969D01*
X39156200Y-18990971D01*
X39156199Y-18990971D01*
X39181197Y-19116638D01*
X39181199Y-19116644D01*
X39230233Y-19235024D01*
X39230238Y-19235033D01*
X39301423Y-19341568D01*
X39301426Y-19341572D01*
X39344880Y-19385025D01*
X39378366Y-19446348D01*
X39381200Y-19472707D01*
X39381200Y-22313790D01*
X39361515Y-22380829D01*
X39308711Y-22426584D01*
X39239553Y-22436528D01*
X39175997Y-22407503D01*
X39169519Y-22401471D01*
X33889065Y-17121017D01*
X33889063Y-17121015D01*
X33792037Y-17064997D01*
X33784998Y-17060933D01*
X33786624Y-17058114D01*
X33744071Y-17023829D01*
X33722000Y-16957536D01*
X33739274Y-16889836D01*
X33790407Y-16842221D01*
X33845921Y-16829100D01*
X39345990Y-16829100D01*
X39413029Y-16848785D01*
G37*
G04 #@! TD.AperFunction*
G04 #@! TA.AperFunction,Conductor*
G36*
X44122277Y-23137506D02*
G01*
X44159308Y-23196755D01*
X44163900Y-23230189D01*
X44163900Y-23686579D01*
X44144215Y-23753618D01*
X44091411Y-23799373D01*
X44030173Y-23810197D01*
X44013922Y-23808918D01*
X43468018Y-24354821D01*
X43465925Y-24347007D01*
X43400099Y-24232993D01*
X43307007Y-24139901D01*
X43192993Y-24074075D01*
X43185177Y-24071980D01*
X43731080Y-23526077D01*
X43731079Y-23526076D01*
X43655143Y-23470904D01*
X43486514Y-23384984D01*
X43435718Y-23337010D01*
X43418923Y-23269189D01*
X43441460Y-23203054D01*
X43496175Y-23159602D01*
X43542807Y-23150499D01*
X43894864Y-23150499D01*
X43894879Y-23150497D01*
X43894882Y-23150497D01*
X43919987Y-23147586D01*
X43919987Y-23147585D01*
X43919991Y-23147585D01*
X43989815Y-23116754D01*
X44059092Y-23107683D01*
X44122277Y-23137506D01*
G37*
G04 #@! TD.AperFunction*
G04 #@! TA.AperFunction,Conductor*
G36*
X24156503Y-11889397D02*
G01*
X24162981Y-11895429D01*
X29011637Y-16744085D01*
X29108663Y-16800103D01*
X29109688Y-16800377D01*
X29118226Y-16805462D01*
X29136129Y-16824754D01*
X29156629Y-16841271D01*
X29159522Y-16849962D01*
X29165753Y-16856676D01*
X29170384Y-16882587D01*
X29178700Y-16907564D01*
X29176435Y-16916439D01*
X29178047Y-16925456D01*
X29167933Y-16949760D01*
X29161426Y-16975264D01*
X29154723Y-16981505D01*
X29151204Y-16989963D01*
X29129556Y-17004940D01*
X29110293Y-17022879D01*
X29100173Y-17025270D01*
X29093746Y-17029718D01*
X29079270Y-17030211D01*
X29054779Y-17036000D01*
X26440410Y-17036000D01*
X26373371Y-17016315D01*
X26352729Y-16999681D01*
X25155519Y-15802471D01*
X25122034Y-15741148D01*
X25119200Y-15714790D01*
X25119200Y-15653328D01*
X25094202Y-15527661D01*
X25094201Y-15527660D01*
X25094201Y-15527656D01*
X25045165Y-15409273D01*
X25045164Y-15409272D01*
X25045161Y-15409266D01*
X24973976Y-15302731D01*
X24973973Y-15302727D01*
X24883372Y-15212126D01*
X24883368Y-15212123D01*
X24776833Y-15140938D01*
X24776824Y-15140933D01*
X24658444Y-15091899D01*
X24658438Y-15091897D01*
X24532771Y-15066900D01*
X24532769Y-15066900D01*
X24404631Y-15066900D01*
X24404629Y-15066900D01*
X24278961Y-15091897D01*
X24278955Y-15091899D01*
X24160575Y-15140933D01*
X24160563Y-15140940D01*
X24144189Y-15151881D01*
X24077512Y-15172758D01*
X24010132Y-15154273D01*
X23963442Y-15102293D01*
X23951300Y-15048778D01*
X23951300Y-11983110D01*
X23970985Y-11916071D01*
X24023789Y-11870316D01*
X24092947Y-11860372D01*
X24156503Y-11889397D01*
G37*
G04 #@! TD.AperFunction*
G04 #@! TA.AperFunction,Conductor*
G36*
X78429912Y-510923D02*
G01*
X78515331Y-549367D01*
X78528566Y-556314D01*
X78743045Y-685970D01*
X78755356Y-694468D01*
X78952636Y-849027D01*
X78963844Y-858957D01*
X79141042Y-1036155D01*
X79150972Y-1047363D01*
X79305527Y-1244637D01*
X79314033Y-1256960D01*
X79443681Y-1471425D01*
X79450638Y-1484682D01*
X79489075Y-1570085D01*
X79500000Y-1620975D01*
X79500000Y-52379021D01*
X79489075Y-52429913D01*
X79450636Y-52515320D01*
X79443678Y-52528578D01*
X79314032Y-52743039D01*
X79305525Y-52755363D01*
X79150970Y-52952636D01*
X79141041Y-52963843D01*
X78963843Y-53141041D01*
X78952636Y-53150970D01*
X78755363Y-53305525D01*
X78743039Y-53314032D01*
X78528578Y-53443678D01*
X78515320Y-53450636D01*
X78429913Y-53489075D01*
X78379021Y-53500000D01*
X1620976Y-53500000D01*
X1570087Y-53489076D01*
X1484675Y-53450635D01*
X1471425Y-53443681D01*
X1256960Y-53314033D01*
X1244637Y-53305527D01*
X1244634Y-53305525D01*
X1047363Y-53150972D01*
X1036155Y-53141042D01*
X858957Y-52963844D01*
X849027Y-52952636D01*
X694468Y-52755356D01*
X685966Y-52743038D01*
X556321Y-52528577D01*
X549362Y-52515319D01*
X510924Y-52429913D01*
X500000Y-52379022D01*
X500000Y-50378711D01*
X1649500Y-50378711D01*
X1649500Y-50621288D01*
X1681161Y-50861785D01*
X1743947Y-51096104D01*
X1836773Y-51320205D01*
X1836776Y-51320212D01*
X1958064Y-51530289D01*
X1958066Y-51530292D01*
X1958067Y-51530293D01*
X2105733Y-51722736D01*
X2105739Y-51722743D01*
X2277256Y-51894260D01*
X2277262Y-51894265D01*
X2469711Y-52041936D01*
X2679788Y-52163224D01*
X2903900Y-52256054D01*
X3138211Y-52318838D01*
X3318586Y-52342584D01*
X3378711Y-52350500D01*
X3378712Y-52350500D01*
X3621289Y-52350500D01*
X3669388Y-52344167D01*
X3861789Y-52318838D01*
X4096100Y-52256054D01*
X4320212Y-52163224D01*
X4530289Y-52041936D01*
X4722738Y-51894265D01*
X4894265Y-51722738D01*
X5041936Y-51530289D01*
X5163224Y-51320212D01*
X5256054Y-51096100D01*
X5318838Y-50861789D01*
X5350500Y-50621288D01*
X5350500Y-50378712D01*
X5350500Y-50378711D01*
X74649500Y-50378711D01*
X74649500Y-50621288D01*
X74681161Y-50861785D01*
X74743947Y-51096104D01*
X74836773Y-51320205D01*
X74836776Y-51320212D01*
X74958064Y-51530289D01*
X74958066Y-51530292D01*
X74958067Y-51530293D01*
X75105733Y-51722736D01*
X75105739Y-51722743D01*
X75277256Y-51894260D01*
X75277262Y-51894265D01*
X75469711Y-52041936D01*
X75679788Y-52163224D01*
X75903900Y-52256054D01*
X76138211Y-52318838D01*
X76318586Y-52342584D01*
X76378711Y-52350500D01*
X76378712Y-52350500D01*
X76621289Y-52350500D01*
X76669388Y-52344167D01*
X76861789Y-52318838D01*
X77096100Y-52256054D01*
X77320212Y-52163224D01*
X77530289Y-52041936D01*
X77722738Y-51894265D01*
X77894265Y-51722738D01*
X78041936Y-51530289D01*
X78163224Y-51320212D01*
X78256054Y-51096100D01*
X78318838Y-50861789D01*
X78350500Y-50621288D01*
X78350500Y-50378712D01*
X78318838Y-50138211D01*
X78256054Y-49903900D01*
X78163224Y-49679788D01*
X78041936Y-49469711D01*
X77941521Y-49338847D01*
X77894266Y-49277263D01*
X77894260Y-49277256D01*
X77722743Y-49105739D01*
X77722736Y-49105733D01*
X77530293Y-48958067D01*
X77530292Y-48958066D01*
X77530289Y-48958064D01*
X77320212Y-48836776D01*
X77320205Y-48836773D01*
X77096104Y-48743947D01*
X76861785Y-48681161D01*
X76621289Y-48649500D01*
X76621288Y-48649500D01*
X76378712Y-48649500D01*
X76378711Y-48649500D01*
X76138214Y-48681161D01*
X75903895Y-48743947D01*
X75679794Y-48836773D01*
X75679785Y-48836777D01*
X75613954Y-48874785D01*
X75490219Y-48946224D01*
X75469706Y-48958067D01*
X75277263Y-49105733D01*
X75277256Y-49105739D01*
X75105739Y-49277256D01*
X75105733Y-49277263D01*
X74958067Y-49469706D01*
X74836777Y-49679785D01*
X74836773Y-49679794D01*
X74743947Y-49903895D01*
X74681161Y-50138214D01*
X74649500Y-50378711D01*
X5350500Y-50378711D01*
X5318838Y-50138211D01*
X5256054Y-49903900D01*
X5163224Y-49679788D01*
X5041936Y-49469711D01*
X4941521Y-49338847D01*
X4894266Y-49277263D01*
X4894260Y-49277256D01*
X4722743Y-49105739D01*
X4722736Y-49105733D01*
X4530293Y-48958067D01*
X4530292Y-48958066D01*
X4530289Y-48958064D01*
X4320212Y-48836776D01*
X4320205Y-48836773D01*
X4142582Y-48763199D01*
X4142580Y-48763198D01*
X4096107Y-48743948D01*
X3932092Y-48700000D01*
X3861789Y-48681162D01*
X3861788Y-48681161D01*
X3861785Y-48681161D01*
X3621289Y-48649500D01*
X3621288Y-48649500D01*
X3378712Y-48649500D01*
X3378711Y-48649500D01*
X3138214Y-48681161D01*
X2903895Y-48743947D01*
X2679794Y-48836773D01*
X2679785Y-48836777D01*
X2613954Y-48874785D01*
X2490219Y-48946224D01*
X2469706Y-48958067D01*
X2277263Y-49105733D01*
X2277256Y-49105739D01*
X2105739Y-49277256D01*
X2105733Y-49277263D01*
X1958067Y-49469706D01*
X1836777Y-49679785D01*
X1836773Y-49679794D01*
X1743947Y-49903895D01*
X1681161Y-50138214D01*
X1649500Y-50378711D01*
X500000Y-50378711D01*
X500000Y-47384350D01*
X48800000Y-47384350D01*
X48800000Y-48300000D01*
X49826069Y-48300000D01*
X49800000Y-48431056D01*
X49800000Y-48568944D01*
X49826069Y-48700000D01*
X48800000Y-48700000D01*
X48800000Y-49615649D01*
X48802899Y-49652489D01*
X48802900Y-49652495D01*
X48848716Y-49810193D01*
X48848717Y-49810196D01*
X48932314Y-49951552D01*
X48932321Y-49951561D01*
X49048438Y-50067678D01*
X49048447Y-50067685D01*
X49189803Y-50151282D01*
X49189806Y-50151283D01*
X49347504Y-50197099D01*
X49347510Y-50197100D01*
X49384350Y-50199999D01*
X49384366Y-50200000D01*
X50300000Y-50200000D01*
X50300000Y-49173930D01*
X50431056Y-49200000D01*
X50568944Y-49200000D01*
X50700000Y-49173930D01*
X50700000Y-50200000D01*
X51615634Y-50200000D01*
X51615649Y-50199999D01*
X51652489Y-50197100D01*
X51652495Y-50197099D01*
X51810193Y-50151283D01*
X51810196Y-50151282D01*
X51951552Y-50067685D01*
X51951561Y-50067678D01*
X52067678Y-49951561D01*
X52067685Y-49951552D01*
X52151282Y-49810196D01*
X52151283Y-49810193D01*
X52197099Y-49652495D01*
X52197100Y-49652489D01*
X52199999Y-49615649D01*
X52200000Y-49615634D01*
X52200000Y-48700000D01*
X51173931Y-48700000D01*
X51200000Y-48568944D01*
X51200000Y-48431056D01*
X51173931Y-48300000D01*
X52200000Y-48300000D01*
X52200000Y-47384365D01*
X52199999Y-47384350D01*
X52197100Y-47347510D01*
X52197099Y-47347504D01*
X52151283Y-47189806D01*
X52151282Y-47189803D01*
X52067685Y-47048447D01*
X52067678Y-47048438D01*
X51951561Y-46932321D01*
X51951552Y-46932314D01*
X51810196Y-46848717D01*
X51810193Y-46848716D01*
X51652495Y-46802900D01*
X51652489Y-46802899D01*
X51615649Y-46800000D01*
X50700000Y-46800000D01*
X50700000Y-47826069D01*
X50568944Y-47800000D01*
X50431056Y-47800000D01*
X50300000Y-47826069D01*
X50300000Y-46800000D01*
X49384350Y-46800000D01*
X49347510Y-46802899D01*
X49347504Y-46802900D01*
X49189806Y-46848716D01*
X49189803Y-46848717D01*
X49048447Y-46932314D01*
X49048438Y-46932321D01*
X48932321Y-47048438D01*
X48932314Y-47048447D01*
X48848717Y-47189803D01*
X48848716Y-47189806D01*
X48802900Y-47347504D01*
X48802899Y-47347510D01*
X48800000Y-47384350D01*
X500000Y-47384350D01*
X500000Y-42312695D01*
X20921299Y-42312695D01*
X20948218Y-42448022D01*
X20948221Y-42448032D01*
X21001021Y-42575504D01*
X21001028Y-42575517D01*
X21077685Y-42690241D01*
X21077688Y-42690245D01*
X21175254Y-42787811D01*
X21175258Y-42787814D01*
X21289982Y-42864471D01*
X21289995Y-42864478D01*
X21417467Y-42917278D01*
X21417472Y-42917280D01*
X21417476Y-42917280D01*
X21417477Y-42917281D01*
X21552804Y-42944200D01*
X21552807Y-42944200D01*
X21690795Y-42944200D01*
X21781841Y-42926089D01*
X21826128Y-42917280D01*
X21953611Y-42864475D01*
X22068342Y-42787814D01*
X22068345Y-42787811D01*
X22075638Y-42780519D01*
X22136961Y-42747034D01*
X22163319Y-42744200D01*
X26868990Y-42744200D01*
X26868992Y-42744200D01*
X26996286Y-42710092D01*
X27110414Y-42644200D01*
X27622795Y-42131819D01*
X27684118Y-42098334D01*
X27710476Y-42095500D01*
X34038481Y-42095500D01*
X34105520Y-42115185D01*
X34126162Y-42131819D01*
X34133454Y-42139111D01*
X34133458Y-42139114D01*
X34248182Y-42215771D01*
X34248195Y-42215778D01*
X34375667Y-42268578D01*
X34375672Y-42268580D01*
X34375676Y-42268580D01*
X34375677Y-42268581D01*
X34511004Y-42295500D01*
X34511007Y-42295500D01*
X34648995Y-42295500D01*
X34764108Y-42272602D01*
X34833700Y-42278829D01*
X34888877Y-42321692D01*
X34912122Y-42387581D01*
X34912300Y-42394219D01*
X34912300Y-44164590D01*
X34892615Y-44231629D01*
X34875981Y-44252271D01*
X33665071Y-45463181D01*
X33603748Y-45496666D01*
X33577390Y-45499500D01*
X33515929Y-45499500D01*
X33390261Y-45524497D01*
X33390255Y-45524499D01*
X33271875Y-45573533D01*
X33271866Y-45573538D01*
X33165331Y-45644723D01*
X33165327Y-45644726D01*
X33074726Y-45735327D01*
X33074723Y-45735331D01*
X33003538Y-45841866D01*
X33003533Y-45841875D01*
X32954499Y-45960255D01*
X32954497Y-45960261D01*
X32929500Y-46085928D01*
X32929500Y-46085931D01*
X32929500Y-46214069D01*
X32929500Y-46214071D01*
X32929499Y-46214071D01*
X32954497Y-46339738D01*
X32954499Y-46339744D01*
X33003533Y-46458124D01*
X33003538Y-46458133D01*
X33074723Y-46564668D01*
X33074726Y-46564672D01*
X33165327Y-46655273D01*
X33165331Y-46655276D01*
X33271866Y-46726461D01*
X33271872Y-46726464D01*
X33271873Y-46726465D01*
X33390256Y-46775501D01*
X33390260Y-46775501D01*
X33390261Y-46775502D01*
X33515928Y-46800500D01*
X33515931Y-46800500D01*
X33644071Y-46800500D01*
X33728615Y-46783682D01*
X33769744Y-46775501D01*
X33888127Y-46726465D01*
X33994669Y-46655276D01*
X34085276Y-46564669D01*
X34156465Y-46458127D01*
X34205501Y-46339744D01*
X34230500Y-46214069D01*
X34230500Y-46152610D01*
X34250185Y-46085571D01*
X34266819Y-46064929D01*
X34868567Y-45463181D01*
X35678285Y-44653463D01*
X35734303Y-44556437D01*
X35763300Y-44448218D01*
X35763300Y-44336181D01*
X35763300Y-39355182D01*
X35734303Y-39246963D01*
X35678285Y-39149937D01*
X35599063Y-39070715D01*
X31236319Y-34707971D01*
X31202834Y-34646648D01*
X31200000Y-34620290D01*
X31200000Y-24752684D01*
X31200000Y-24752682D01*
X31171003Y-24644463D01*
X31114985Y-24547437D01*
X31035763Y-24468215D01*
X27699663Y-21132115D01*
X27636504Y-21095650D01*
X27631613Y-21090521D01*
X27624956Y-21088096D01*
X27607821Y-21065568D01*
X27588288Y-21045083D01*
X27586947Y-21038125D01*
X27582657Y-21032485D01*
X27580421Y-21004267D01*
X27575066Y-20976476D01*
X27577565Y-20968209D01*
X27577140Y-20962833D01*
X27584458Y-20945416D01*
X27589220Y-20929671D01*
X27592057Y-20924379D01*
X27639065Y-20854027D01*
X27670619Y-20777847D01*
X27673536Y-20772408D01*
X27693894Y-20751735D01*
X27712100Y-20729144D01*
X27718114Y-20727142D01*
X27722562Y-20722626D01*
X27750863Y-20716242D01*
X27778394Y-20707079D01*
X27782820Y-20707000D01*
X34122270Y-20707000D01*
X34189309Y-20726685D01*
X34235064Y-20779489D01*
X34245008Y-20848647D01*
X34243887Y-20855192D01*
X34240100Y-20874231D01*
X34240100Y-21002369D01*
X34240100Y-21002371D01*
X34240099Y-21002371D01*
X34265097Y-21128038D01*
X34265099Y-21128044D01*
X34314133Y-21246424D01*
X34314138Y-21246433D01*
X34385323Y-21352968D01*
X34385326Y-21352972D01*
X34475927Y-21443573D01*
X34475931Y-21443576D01*
X34582466Y-21514761D01*
X34582470Y-21514763D01*
X34582473Y-21514765D01*
X34620639Y-21530574D01*
X34645621Y-21540922D01*
X34700024Y-21584763D01*
X34722089Y-21651057D01*
X34712729Y-21702935D01*
X34684100Y-21772051D01*
X34684097Y-21772061D01*
X34659100Y-21897728D01*
X34659100Y-21959189D01*
X34639415Y-22026228D01*
X34622781Y-22046870D01*
X34004595Y-22665055D01*
X34004596Y-22665056D01*
X33942814Y-22726838D01*
X33942813Y-22726840D01*
X33886798Y-22823860D01*
X33886797Y-22823863D01*
X33857800Y-22932082D01*
X33857800Y-36726882D01*
X33857800Y-36838918D01*
X33886797Y-36947137D01*
X33942815Y-37044163D01*
X33942817Y-37044165D01*
X38828281Y-41929629D01*
X38861766Y-41990952D01*
X38864600Y-42017310D01*
X38864600Y-42078769D01*
X38864600Y-42078771D01*
X38864599Y-42078771D01*
X38889597Y-42204438D01*
X38889599Y-42204444D01*
X38938633Y-42322824D01*
X38938638Y-42322833D01*
X39009823Y-42429368D01*
X39009826Y-42429372D01*
X39100427Y-42519973D01*
X39100431Y-42519976D01*
X39206966Y-42591161D01*
X39206972Y-42591164D01*
X39206973Y-42591165D01*
X39325356Y-42640201D01*
X39325360Y-42640201D01*
X39325361Y-42640202D01*
X39451028Y-42665200D01*
X39451031Y-42665200D01*
X39579171Y-42665200D01*
X39684755Y-42644197D01*
X39704844Y-42640201D01*
X39823227Y-42591165D01*
X39929769Y-42519976D01*
X40020376Y-42429369D01*
X40091565Y-42322827D01*
X40140601Y-42204444D01*
X40148782Y-42163315D01*
X40165600Y-42078771D01*
X40165600Y-41950628D01*
X40140602Y-41824961D01*
X40140601Y-41824960D01*
X40140601Y-41824956D01*
X40091565Y-41706573D01*
X40091564Y-41706572D01*
X40091561Y-41706566D01*
X40020376Y-41600031D01*
X40020373Y-41600027D01*
X39929772Y-41509426D01*
X39929768Y-41509423D01*
X39823233Y-41438238D01*
X39823224Y-41438233D01*
X39704844Y-41389199D01*
X39704838Y-41389197D01*
X39579171Y-41364200D01*
X39579169Y-41364200D01*
X39517710Y-41364200D01*
X39450671Y-41344515D01*
X39430029Y-41327881D01*
X34745119Y-36642971D01*
X34711634Y-36581648D01*
X34708800Y-36555290D01*
X34708800Y-23215709D01*
X34728485Y-23148670D01*
X34745119Y-23128028D01*
X35224528Y-22648619D01*
X35285851Y-22615134D01*
X35312209Y-22612300D01*
X35373671Y-22612300D01*
X35458215Y-22595482D01*
X35499344Y-22587301D01*
X35617727Y-22538265D01*
X35724269Y-22467076D01*
X35814876Y-22376469D01*
X35825678Y-22360301D01*
X35879287Y-22315497D01*
X35948612Y-22306787D01*
X36011640Y-22336939D01*
X36016462Y-22341510D01*
X40504981Y-26830029D01*
X40538466Y-26891352D01*
X40541300Y-26917710D01*
X40541300Y-32610782D01*
X40541300Y-32722818D01*
X40570297Y-32831037D01*
X40626315Y-32928063D01*
X40626317Y-32928065D01*
X41885655Y-34187403D01*
X41919140Y-34248726D01*
X41915905Y-34313402D01*
X41877829Y-34430589D01*
X41849500Y-34609448D01*
X41849500Y-34790551D01*
X41877829Y-34969410D01*
X41933787Y-35141636D01*
X41933788Y-35141639D01*
X42016006Y-35302997D01*
X42122441Y-35449494D01*
X42122445Y-35449499D01*
X42250500Y-35577554D01*
X42250505Y-35577558D01*
X42378287Y-35670396D01*
X42397006Y-35683996D01*
X42474354Y-35723407D01*
X42558360Y-35766211D01*
X42558363Y-35766212D01*
X42644476Y-35794191D01*
X42730591Y-35822171D01*
X42813429Y-35835291D01*
X42909449Y-35850500D01*
X42909454Y-35850500D01*
X43090551Y-35850500D01*
X43177259Y-35836765D01*
X43269409Y-35822171D01*
X43441639Y-35766211D01*
X43480703Y-35746307D01*
X43551905Y-35710028D01*
X43620574Y-35697131D01*
X43685314Y-35723407D01*
X43725572Y-35780513D01*
X43732200Y-35820512D01*
X43732200Y-37311390D01*
X43712515Y-37378429D01*
X43695881Y-37399071D01*
X43290971Y-37803981D01*
X43229648Y-37837466D01*
X43203290Y-37840300D01*
X43141829Y-37840300D01*
X43016161Y-37865297D01*
X43016155Y-37865299D01*
X42897775Y-37914333D01*
X42897766Y-37914338D01*
X42791231Y-37985523D01*
X42791227Y-37985526D01*
X42700626Y-38076127D01*
X42700623Y-38076131D01*
X42629438Y-38182666D01*
X42629433Y-38182675D01*
X42580399Y-38301055D01*
X42580397Y-38301061D01*
X42555400Y-38426728D01*
X42555400Y-38426731D01*
X42555400Y-38554869D01*
X42555400Y-38554871D01*
X42555399Y-38554871D01*
X42580397Y-38680538D01*
X42580399Y-38680544D01*
X42629433Y-38798924D01*
X42629438Y-38798933D01*
X42700623Y-38905468D01*
X42700626Y-38905472D01*
X42791227Y-38996073D01*
X42791231Y-38996076D01*
X42897766Y-39067261D01*
X42897772Y-39067264D01*
X42897773Y-39067265D01*
X43016156Y-39116301D01*
X43016160Y-39116301D01*
X43016161Y-39116302D01*
X43141828Y-39141300D01*
X43141831Y-39141300D01*
X43269971Y-39141300D01*
X43354515Y-39124482D01*
X43395644Y-39116301D01*
X43514027Y-39067265D01*
X43620569Y-38996076D01*
X43711176Y-38905469D01*
X43782365Y-38798927D01*
X43831401Y-38680544D01*
X43856400Y-38554869D01*
X43856400Y-38493410D01*
X43876085Y-38426371D01*
X43892719Y-38405729D01*
X44115782Y-38182666D01*
X44498184Y-37800264D01*
X44554203Y-37703237D01*
X44583200Y-37595019D01*
X44583200Y-37482982D01*
X44583200Y-32809310D01*
X44602885Y-32742271D01*
X44655689Y-32696516D01*
X44724847Y-32686572D01*
X44788403Y-32715597D01*
X44794881Y-32721629D01*
X48182981Y-36109729D01*
X48216466Y-36171052D01*
X48219300Y-36197410D01*
X48219300Y-36258869D01*
X48219300Y-36258871D01*
X48219299Y-36258871D01*
X48244297Y-36384538D01*
X48244299Y-36384544D01*
X48293333Y-36502924D01*
X48293338Y-36502933D01*
X48364523Y-36609468D01*
X48364526Y-36609472D01*
X48455127Y-36700073D01*
X48455131Y-36700076D01*
X48561666Y-36771261D01*
X48561672Y-36771264D01*
X48561673Y-36771265D01*
X48680056Y-36820301D01*
X48680060Y-36820301D01*
X48680061Y-36820302D01*
X48805728Y-36845300D01*
X48805731Y-36845300D01*
X48933871Y-36845300D01*
X49022800Y-36827610D01*
X49059544Y-36820301D01*
X49177927Y-36771265D01*
X49284469Y-36700076D01*
X49375076Y-36609469D01*
X49446265Y-36502927D01*
X49495301Y-36384544D01*
X49508246Y-36319467D01*
X49520300Y-36258871D01*
X49520300Y-36130728D01*
X49495302Y-36005061D01*
X49495301Y-36005060D01*
X49495301Y-36005056D01*
X49446265Y-35886673D01*
X49446264Y-35886672D01*
X49446261Y-35886666D01*
X49375076Y-35780131D01*
X49375073Y-35780127D01*
X49284472Y-35689526D01*
X49284468Y-35689523D01*
X49177933Y-35618338D01*
X49177924Y-35618333D01*
X49059544Y-35569299D01*
X49059538Y-35569297D01*
X48933871Y-35544300D01*
X48933869Y-35544300D01*
X48872410Y-35544300D01*
X48805371Y-35524615D01*
X48784729Y-35507981D01*
X45051219Y-31774471D01*
X45017734Y-31713148D01*
X45014900Y-31686790D01*
X45014900Y-28036009D01*
X45034585Y-27968970D01*
X45087389Y-27923215D01*
X45156547Y-27913271D01*
X45220103Y-27942296D01*
X45226581Y-27948328D01*
X46385655Y-29107402D01*
X46419140Y-29168725D01*
X46415905Y-29233400D01*
X46377829Y-29350587D01*
X46349500Y-29529448D01*
X46349500Y-29710551D01*
X46377829Y-29889410D01*
X46433787Y-30061636D01*
X46433788Y-30061639D01*
X46516006Y-30222997D01*
X46622441Y-30369494D01*
X46622445Y-30369499D01*
X46750500Y-30497554D01*
X46750505Y-30497558D01*
X46854986Y-30573467D01*
X46897006Y-30603996D01*
X46974354Y-30643407D01*
X47058360Y-30686211D01*
X47058363Y-30686212D01*
X47144476Y-30714191D01*
X47230591Y-30742171D01*
X47313314Y-30755273D01*
X47409449Y-30770500D01*
X47409454Y-30770500D01*
X47590551Y-30770500D01*
X47677259Y-30756765D01*
X47769409Y-30742171D01*
X47941639Y-30686211D01*
X48102994Y-30603996D01*
X48249501Y-30497553D01*
X48377553Y-30369501D01*
X48483996Y-30222994D01*
X48566211Y-30061639D01*
X48622171Y-29889409D01*
X48636765Y-29797259D01*
X48650500Y-29710551D01*
X48650500Y-29529448D01*
X48625443Y-29371252D01*
X48622171Y-29350591D01*
X48566211Y-29178361D01*
X48566211Y-29178360D01*
X48530055Y-29107402D01*
X48483996Y-29017006D01*
X48436154Y-28951157D01*
X48377558Y-28870505D01*
X48377554Y-28870500D01*
X48249499Y-28742445D01*
X48249494Y-28742441D01*
X48102997Y-28636006D01*
X48102996Y-28636005D01*
X48102994Y-28636004D01*
X48049821Y-28608911D01*
X47941639Y-28553788D01*
X47941636Y-28553787D01*
X47769410Y-28497829D01*
X47609321Y-28472473D01*
X47546186Y-28442544D01*
X47509255Y-28383232D01*
X47510253Y-28313370D01*
X47548863Y-28255137D01*
X47609321Y-28227527D01*
X47679425Y-28216422D01*
X47769409Y-28202171D01*
X47941639Y-28146211D01*
X48102994Y-28063996D01*
X48249501Y-27957553D01*
X48377553Y-27829501D01*
X48483996Y-27682994D01*
X48566211Y-27521639D01*
X48622171Y-27349409D01*
X48637327Y-27253716D01*
X48650500Y-27170551D01*
X48650500Y-26989448D01*
X48631002Y-26866348D01*
X48622171Y-26810591D01*
X48584094Y-26693400D01*
X48566212Y-26638363D01*
X48566211Y-26638360D01*
X48502908Y-26514123D01*
X48483996Y-26477006D01*
X48440753Y-26417487D01*
X48377558Y-26330505D01*
X48377554Y-26330500D01*
X48249499Y-26202445D01*
X48249494Y-26202441D01*
X48102997Y-26096006D01*
X48102996Y-26096005D01*
X48102994Y-26096004D01*
X48051300Y-26069664D01*
X47941639Y-26013788D01*
X47941636Y-26013787D01*
X47838387Y-25980240D01*
X47780711Y-25940803D01*
X47753513Y-25876444D01*
X47765428Y-25807598D01*
X47812672Y-25756122D01*
X47838387Y-25744378D01*
X47979835Y-25698418D01*
X48155143Y-25609095D01*
X48231079Y-25553922D01*
X48231080Y-25553922D01*
X47685177Y-25008019D01*
X47692993Y-25005925D01*
X47807007Y-24940099D01*
X47900099Y-24847007D01*
X47965925Y-24732993D01*
X47968019Y-24725177D01*
X48513921Y-25271080D01*
X48513922Y-25271079D01*
X48569095Y-25195143D01*
X48658418Y-25019835D01*
X48719221Y-24832705D01*
X48750000Y-24638382D01*
X48750000Y-24441617D01*
X48719221Y-24247294D01*
X48658418Y-24060164D01*
X48569095Y-23884856D01*
X48513922Y-23808919D01*
X48513922Y-23808918D01*
X47968018Y-24354821D01*
X47965925Y-24347007D01*
X47900099Y-24232993D01*
X47807007Y-24139901D01*
X47692993Y-24074075D01*
X47685177Y-24071980D01*
X48231080Y-23526077D01*
X48231079Y-23526076D01*
X48155143Y-23470904D01*
X47986514Y-23384984D01*
X47935718Y-23337010D01*
X47918923Y-23269189D01*
X47941460Y-23203054D01*
X47996175Y-23159602D01*
X48042807Y-23150499D01*
X48394864Y-23150499D01*
X48394879Y-23150497D01*
X48394882Y-23150497D01*
X48419987Y-23147586D01*
X48419988Y-23147585D01*
X48419991Y-23147585D01*
X48522765Y-23102206D01*
X48602206Y-23022765D01*
X48647585Y-22919991D01*
X48650500Y-22894865D01*
X48650499Y-21105136D01*
X48649399Y-21095650D01*
X48647586Y-21080012D01*
X48647585Y-21080010D01*
X48647585Y-21080009D01*
X48602206Y-20977235D01*
X48522765Y-20897794D01*
X48522763Y-20897793D01*
X48419993Y-20852415D01*
X48419985Y-20852413D01*
X48409192Y-20851161D01*
X48344868Y-20823880D01*
X48305505Y-20766153D01*
X48303601Y-20696310D01*
X48335803Y-20640309D01*
X49775100Y-19201014D01*
X49840992Y-19086886D01*
X49875100Y-18959592D01*
X49875100Y-18827807D01*
X49875100Y-12009071D01*
X51218299Y-12009071D01*
X51243297Y-12134738D01*
X51243299Y-12134744D01*
X51292333Y-12253124D01*
X51292338Y-12253133D01*
X51363523Y-12359668D01*
X51363526Y-12359672D01*
X51454127Y-12450273D01*
X51454131Y-12450276D01*
X51560666Y-12521461D01*
X51560672Y-12521464D01*
X51560673Y-12521465D01*
X51679056Y-12570501D01*
X51679060Y-12570501D01*
X51679061Y-12570502D01*
X51804728Y-12595500D01*
X51804731Y-12595500D01*
X51866190Y-12595500D01*
X51933229Y-12615185D01*
X51953871Y-12631819D01*
X52402881Y-13080828D01*
X52436366Y-13142151D01*
X52439200Y-13168509D01*
X52439200Y-20920190D01*
X52430555Y-20949630D01*
X52424032Y-20979617D01*
X52420277Y-20984632D01*
X52419515Y-20987229D01*
X52402881Y-21007871D01*
X52299971Y-21110781D01*
X52238648Y-21144266D01*
X52212290Y-21147100D01*
X52150829Y-21147100D01*
X52025161Y-21172097D01*
X52025155Y-21172099D01*
X51906775Y-21221133D01*
X51906766Y-21221138D01*
X51800231Y-21292323D01*
X51800227Y-21292326D01*
X51709626Y-21382927D01*
X51709623Y-21382931D01*
X51638438Y-21489466D01*
X51638433Y-21489475D01*
X51589399Y-21607855D01*
X51589397Y-21607861D01*
X51564400Y-21733528D01*
X51564400Y-21733531D01*
X51564400Y-21861669D01*
X51564400Y-21861671D01*
X51564399Y-21861671D01*
X51589397Y-21987338D01*
X51589399Y-21987344D01*
X51638433Y-22105724D01*
X51638438Y-22105733D01*
X51709623Y-22212268D01*
X51709626Y-22212272D01*
X51800227Y-22302873D01*
X51800231Y-22302876D01*
X51906766Y-22374061D01*
X51906775Y-22374066D01*
X51912584Y-22376472D01*
X52025156Y-22423101D01*
X52025160Y-22423101D01*
X52025161Y-22423102D01*
X52150828Y-22448100D01*
X52150831Y-22448100D01*
X52212290Y-22448100D01*
X52279329Y-22467785D01*
X52299971Y-22484419D01*
X55237881Y-25422329D01*
X55271366Y-25483652D01*
X55274200Y-25510010D01*
X55274200Y-46826405D01*
X55254515Y-46893444D01*
X55201711Y-46939199D01*
X55188518Y-46944336D01*
X54965624Y-47016757D01*
X54965621Y-47016758D01*
X54741152Y-47131133D01*
X54537351Y-47279202D01*
X54537346Y-47279206D01*
X54359206Y-47457346D01*
X54359202Y-47457351D01*
X54211133Y-47661152D01*
X54096758Y-47885621D01*
X54096757Y-47885624D01*
X54018911Y-48125214D01*
X53979501Y-48374038D01*
X53979501Y-48625961D01*
X54018911Y-48874785D01*
X54096757Y-49114375D01*
X54096758Y-49114378D01*
X54211133Y-49338847D01*
X54359202Y-49542648D01*
X54359206Y-49542653D01*
X54537346Y-49720793D01*
X54537351Y-49720797D01*
X54660395Y-49810193D01*
X54741156Y-49868869D01*
X54887890Y-49943634D01*
X54965621Y-49983241D01*
X54965624Y-49983242D01*
X55085419Y-50022165D01*
X55205216Y-50061089D01*
X55454038Y-50100499D01*
X55454039Y-50100499D01*
X55705961Y-50100499D01*
X55705962Y-50100499D01*
X55954784Y-50061089D01*
X56194378Y-49983241D01*
X56418844Y-49868869D01*
X56622655Y-49720792D01*
X56800792Y-49542655D01*
X56948869Y-49338844D01*
X57063241Y-49114378D01*
X57141089Y-48874784D01*
X57180499Y-48625962D01*
X57180499Y-48374038D01*
X57141089Y-48125216D01*
X57063241Y-47885622D01*
X57063241Y-47885621D01*
X57019614Y-47800000D01*
X56948869Y-47661156D01*
X56929951Y-47635118D01*
X56800797Y-47457351D01*
X56800793Y-47457346D01*
X56622653Y-47279206D01*
X56622648Y-47279202D01*
X56418847Y-47131133D01*
X56418846Y-47131132D01*
X56418844Y-47131131D01*
X56194378Y-47016759D01*
X56194375Y-47016758D01*
X56192905Y-47016009D01*
X56142109Y-46968034D01*
X56125200Y-46905524D01*
X56125200Y-25226384D01*
X56125200Y-25226382D01*
X56096203Y-25118163D01*
X56040185Y-25021137D01*
X55960963Y-24941915D01*
X52904329Y-21885281D01*
X52870844Y-21823958D01*
X52875828Y-21754266D01*
X52904329Y-21709919D01*
X53050447Y-21563801D01*
X53205185Y-21409063D01*
X53250907Y-21329871D01*
X54109999Y-21329871D01*
X54134997Y-21455538D01*
X54134999Y-21455544D01*
X54184033Y-21573924D01*
X54184038Y-21573933D01*
X54255223Y-21680468D01*
X54255226Y-21680472D01*
X54345827Y-21771073D01*
X54345831Y-21771076D01*
X54452366Y-21842261D01*
X54452372Y-21842264D01*
X54452373Y-21842265D01*
X54570756Y-21891301D01*
X54570760Y-21891301D01*
X54570761Y-21891302D01*
X54696428Y-21916300D01*
X54696431Y-21916300D01*
X54757890Y-21916300D01*
X54824929Y-21935985D01*
X54845571Y-21952619D01*
X60198181Y-27305229D01*
X60231666Y-27366552D01*
X60234500Y-27392910D01*
X60234500Y-46865297D01*
X60214815Y-46932336D01*
X60162011Y-46978091D01*
X60148819Y-46983228D01*
X60045618Y-47016760D01*
X59821152Y-47131133D01*
X59617351Y-47279202D01*
X59617346Y-47279206D01*
X59439206Y-47457346D01*
X59439202Y-47457351D01*
X59291133Y-47661152D01*
X59176758Y-47885621D01*
X59176757Y-47885624D01*
X59098911Y-48125214D01*
X59059501Y-48374038D01*
X59059501Y-48625961D01*
X59098911Y-48874785D01*
X59176757Y-49114375D01*
X59176758Y-49114378D01*
X59291133Y-49338847D01*
X59439202Y-49542648D01*
X59439206Y-49542653D01*
X59617346Y-49720793D01*
X59617351Y-49720797D01*
X59740395Y-49810193D01*
X59821156Y-49868869D01*
X59967890Y-49943634D01*
X60045621Y-49983241D01*
X60045624Y-49983242D01*
X60165419Y-50022165D01*
X60285216Y-50061089D01*
X60534038Y-50100499D01*
X60534039Y-50100499D01*
X60785961Y-50100499D01*
X60785962Y-50100499D01*
X61034784Y-50061089D01*
X61274378Y-49983241D01*
X61498844Y-49868869D01*
X61702655Y-49720792D01*
X61880792Y-49542655D01*
X62028869Y-49338844D01*
X62143241Y-49114378D01*
X62221089Y-48874784D01*
X62260499Y-48625962D01*
X62260499Y-48374038D01*
X62221089Y-48125216D01*
X62143241Y-47885622D01*
X62143241Y-47885621D01*
X62099614Y-47800000D01*
X62028869Y-47661156D01*
X62009951Y-47635118D01*
X61880797Y-47457351D01*
X61880793Y-47457346D01*
X61702653Y-47279206D01*
X61702648Y-47279202D01*
X61498847Y-47131133D01*
X61498846Y-47131132D01*
X61498844Y-47131131D01*
X61336569Y-47048447D01*
X61274381Y-47016760D01*
X61171181Y-46983228D01*
X61113506Y-46943790D01*
X61086308Y-46879431D01*
X61085500Y-46865297D01*
X61085500Y-27175258D01*
X64914500Y-27175258D01*
X64914500Y-27404741D01*
X64929891Y-27521639D01*
X64944452Y-27632238D01*
X64996561Y-27826714D01*
X65003842Y-27853887D01*
X65091650Y-28065876D01*
X65091657Y-28065890D01*
X65146288Y-28160513D01*
X65202257Y-28257456D01*
X65206392Y-28264617D01*
X65346081Y-28446661D01*
X65346089Y-28446670D01*
X65508330Y-28608911D01*
X65508338Y-28608918D01*
X65508339Y-28608919D01*
X65557030Y-28646281D01*
X65690382Y-28748607D01*
X65690385Y-28748608D01*
X65690388Y-28748611D01*
X65889112Y-28863344D01*
X65889117Y-28863346D01*
X65889123Y-28863349D01*
X65980480Y-28901190D01*
X66101113Y-28951158D01*
X66322762Y-29010548D01*
X66550266Y-29040500D01*
X66550273Y-29040500D01*
X66779727Y-29040500D01*
X66779734Y-29040500D01*
X67007238Y-29010548D01*
X67228887Y-28951158D01*
X67440888Y-28863344D01*
X67639612Y-28748611D01*
X67821661Y-28608919D01*
X67821665Y-28608914D01*
X67821670Y-28608911D01*
X67983911Y-28446670D01*
X67983914Y-28446665D01*
X67983919Y-28446661D01*
X68123611Y-28264612D01*
X68238344Y-28065888D01*
X68326158Y-27853887D01*
X68385548Y-27632238D01*
X68415500Y-27404734D01*
X68415500Y-27175266D01*
X68385548Y-26947762D01*
X68326158Y-26726113D01*
X68238344Y-26514112D01*
X68123611Y-26315388D01*
X68123608Y-26315385D01*
X68123607Y-26315382D01*
X67983918Y-26133338D01*
X67983911Y-26133330D01*
X67821670Y-25971089D01*
X67821661Y-25971081D01*
X67639617Y-25831392D01*
X67440890Y-25716657D01*
X67440876Y-25716650D01*
X67228887Y-25628842D01*
X67155189Y-25609095D01*
X67007238Y-25569452D01*
X66969215Y-25564446D01*
X66779741Y-25539500D01*
X66779734Y-25539500D01*
X66550266Y-25539500D01*
X66550258Y-25539500D01*
X66333715Y-25568009D01*
X66322762Y-25569452D01*
X66286561Y-25579152D01*
X66101112Y-25628842D01*
X65889123Y-25716650D01*
X65889109Y-25716657D01*
X65690382Y-25831392D01*
X65508338Y-25971081D01*
X65346081Y-26133338D01*
X65206392Y-26315382D01*
X65091657Y-26514109D01*
X65091650Y-26514123D01*
X65003842Y-26726112D01*
X64944453Y-26947759D01*
X64944451Y-26947770D01*
X64914500Y-27175258D01*
X61085500Y-27175258D01*
X61085500Y-27109284D01*
X61085500Y-27109282D01*
X61056503Y-27001063D01*
X61000485Y-26904037D01*
X60921263Y-26824815D01*
X55447319Y-21350871D01*
X55413834Y-21289548D01*
X55411000Y-21263190D01*
X55411000Y-21201728D01*
X55386002Y-21076061D01*
X55386001Y-21076060D01*
X55386001Y-21076056D01*
X55345068Y-20977235D01*
X55336966Y-20957675D01*
X55336961Y-20957666D01*
X55265776Y-20851131D01*
X55265773Y-20851127D01*
X55175172Y-20760526D01*
X55175168Y-20760523D01*
X55068633Y-20689338D01*
X55068624Y-20689333D01*
X54950244Y-20640299D01*
X54950238Y-20640297D01*
X54824571Y-20615300D01*
X54824569Y-20615300D01*
X54696431Y-20615300D01*
X54696429Y-20615300D01*
X54570761Y-20640297D01*
X54570755Y-20640299D01*
X54452375Y-20689333D01*
X54452366Y-20689338D01*
X54345831Y-20760523D01*
X54345827Y-20760526D01*
X54255226Y-20851127D01*
X54255223Y-20851131D01*
X54184038Y-20957666D01*
X54184033Y-20957675D01*
X54134999Y-21076055D01*
X54134997Y-21076061D01*
X54110000Y-21201728D01*
X54110000Y-21201731D01*
X54110000Y-21329869D01*
X54110000Y-21329871D01*
X54109999Y-21329871D01*
X53250907Y-21329871D01*
X53261203Y-21312037D01*
X53290200Y-21203818D01*
X53290200Y-21091782D01*
X53290200Y-16362358D01*
X60750000Y-16362358D01*
X60750000Y-16637641D01*
X60785930Y-16910565D01*
X60857180Y-17176471D01*
X60962520Y-17430787D01*
X60962527Y-17430802D01*
X61100166Y-17669200D01*
X61229459Y-17837697D01*
X62159941Y-16907216D01*
X62228599Y-17009970D01*
X62340030Y-17121401D01*
X62442783Y-17190058D01*
X61512301Y-18120539D01*
X61680803Y-18249836D01*
X61919197Y-18387472D01*
X61919212Y-18387479D01*
X62141581Y-18479586D01*
X62195985Y-18523426D01*
X62218050Y-18589720D01*
X62200771Y-18657420D01*
X62149634Y-18705031D01*
X62141583Y-18708708D01*
X62074113Y-18736655D01*
X62074109Y-18736657D01*
X61875382Y-18851392D01*
X61693338Y-18991081D01*
X61531081Y-19153338D01*
X61391392Y-19335382D01*
X61276657Y-19534109D01*
X61276650Y-19534123D01*
X61188842Y-19746112D01*
X61188842Y-19746113D01*
X61129452Y-19967762D01*
X61129429Y-19967935D01*
X61099500Y-20195258D01*
X61099500Y-20424741D01*
X61119298Y-20575112D01*
X61129452Y-20652238D01*
X61179305Y-20838294D01*
X61188842Y-20873887D01*
X61276650Y-21085876D01*
X61276656Y-21085888D01*
X61354739Y-21221133D01*
X61391392Y-21284617D01*
X61531081Y-21466661D01*
X61531089Y-21466670D01*
X61693330Y-21628911D01*
X61693338Y-21628918D01*
X61875382Y-21768607D01*
X61875385Y-21768608D01*
X61875388Y-21768611D01*
X62074112Y-21883344D01*
X62074117Y-21883346D01*
X62074123Y-21883349D01*
X62188774Y-21930839D01*
X62284127Y-21970335D01*
X62338531Y-22014176D01*
X62360596Y-22080470D01*
X62343317Y-22148169D01*
X62292180Y-22195780D01*
X62268769Y-22204670D01*
X62205581Y-22221602D01*
X62205579Y-22221602D01*
X62205578Y-22221603D01*
X62205571Y-22221605D01*
X61963309Y-22321953D01*
X61963299Y-22321958D01*
X61736196Y-22453075D01*
X61528148Y-22612718D01*
X61342718Y-22798148D01*
X61183075Y-23006196D01*
X61051958Y-23233299D01*
X61051953Y-23233309D01*
X60951605Y-23475571D01*
X60951602Y-23475581D01*
X60912262Y-23622403D01*
X60883730Y-23728885D01*
X60849500Y-23988872D01*
X60849500Y-24251127D01*
X60862124Y-24347007D01*
X60883730Y-24511116D01*
X60948457Y-24752682D01*
X60951602Y-24764418D01*
X60951605Y-24764428D01*
X61051953Y-25006690D01*
X61051958Y-25006700D01*
X61183075Y-25233803D01*
X61342718Y-25441851D01*
X61342726Y-25441860D01*
X61528140Y-25627274D01*
X61528148Y-25627281D01*
X61736196Y-25786924D01*
X61963299Y-25918041D01*
X61963309Y-25918046D01*
X62194449Y-26013787D01*
X62205581Y-26018398D01*
X62458884Y-26086270D01*
X62718880Y-26120500D01*
X62718887Y-26120500D01*
X62981113Y-26120500D01*
X62981120Y-26120500D01*
X63241116Y-26086270D01*
X63494419Y-26018398D01*
X63681750Y-25940803D01*
X63736690Y-25918046D01*
X63736691Y-25918045D01*
X63736697Y-25918043D01*
X63963803Y-25786924D01*
X64171851Y-25627282D01*
X64171855Y-25627277D01*
X64171860Y-25627274D01*
X64357274Y-25441860D01*
X64357277Y-25441855D01*
X64357282Y-25441851D01*
X64516924Y-25233803D01*
X64648043Y-25006697D01*
X64748398Y-24764419D01*
X64816270Y-24511116D01*
X64850500Y-24251120D01*
X64850500Y-24016530D01*
X70059500Y-24016530D01*
X70059500Y-24223469D01*
X70099868Y-24426412D01*
X70099870Y-24426420D01*
X70179059Y-24617598D01*
X70236541Y-24703626D01*
X70294024Y-24789657D01*
X70440342Y-24935975D01*
X70440345Y-24935977D01*
X70612402Y-25050941D01*
X70803580Y-25130130D01*
X71006530Y-25170499D01*
X71006534Y-25170500D01*
X71006535Y-25170500D01*
X71213466Y-25170500D01*
X71213467Y-25170499D01*
X71416420Y-25130130D01*
X71607598Y-25050941D01*
X71779655Y-24935977D01*
X71925977Y-24789655D01*
X72040941Y-24617598D01*
X72120130Y-24426420D01*
X72160500Y-24223465D01*
X72160500Y-24016535D01*
X72120130Y-23813580D01*
X72040941Y-23622402D01*
X71925977Y-23450345D01*
X71925975Y-23450342D01*
X71779657Y-23304024D01*
X71619116Y-23196755D01*
X71607598Y-23189059D01*
X71591321Y-23182317D01*
X71416420Y-23109870D01*
X71416412Y-23109868D01*
X71213469Y-23069500D01*
X71213465Y-23069500D01*
X71006535Y-23069500D01*
X71006530Y-23069500D01*
X70803587Y-23109868D01*
X70803579Y-23109870D01*
X70612403Y-23189058D01*
X70440342Y-23304024D01*
X70294024Y-23450342D01*
X70179058Y-23622403D01*
X70099870Y-23813579D01*
X70099868Y-23813587D01*
X70059500Y-24016530D01*
X64850500Y-24016530D01*
X64850500Y-23988880D01*
X64816270Y-23728884D01*
X64748398Y-23475581D01*
X64713785Y-23392018D01*
X64648046Y-23233309D01*
X64648041Y-23233299D01*
X64516924Y-23006196D01*
X64357281Y-22798148D01*
X64357274Y-22798140D01*
X64171860Y-22612726D01*
X64171851Y-22612718D01*
X63963803Y-22453075D01*
X63736700Y-22321958D01*
X63736690Y-22321953D01*
X63494428Y-22221605D01*
X63494421Y-22221603D01*
X63494422Y-22221603D01*
X63494419Y-22221602D01*
X63431228Y-22204670D01*
X63371570Y-22168306D01*
X63341041Y-22105459D01*
X63349336Y-22036083D01*
X63393821Y-21982205D01*
X63415865Y-21970338D01*
X63625888Y-21883344D01*
X63824612Y-21768611D01*
X64006661Y-21628919D01*
X64006665Y-21628914D01*
X64006670Y-21628911D01*
X64168911Y-21466670D01*
X64168914Y-21466665D01*
X64168919Y-21466661D01*
X64308611Y-21284612D01*
X64423344Y-21085888D01*
X64511158Y-20873887D01*
X64570548Y-20652238D01*
X64600500Y-20424734D01*
X64600500Y-20195266D01*
X64600499Y-20195258D01*
X64914500Y-20195258D01*
X64914500Y-20424741D01*
X64934298Y-20575112D01*
X64944452Y-20652238D01*
X64994305Y-20838294D01*
X65003842Y-20873887D01*
X65091650Y-21085876D01*
X65091656Y-21085888D01*
X65169739Y-21221133D01*
X65206392Y-21284617D01*
X65346081Y-21466661D01*
X65346089Y-21466670D01*
X65508330Y-21628911D01*
X65508338Y-21628918D01*
X65690382Y-21768607D01*
X65690385Y-21768608D01*
X65690388Y-21768611D01*
X65889112Y-21883344D01*
X65889117Y-21883346D01*
X65889123Y-21883349D01*
X65972260Y-21917785D01*
X66101113Y-21971158D01*
X66322762Y-22030548D01*
X66550266Y-22060500D01*
X66550273Y-22060500D01*
X66779727Y-22060500D01*
X66779734Y-22060500D01*
X67007238Y-22030548D01*
X67228887Y-21971158D01*
X67440888Y-21883344D01*
X67639612Y-21768611D01*
X67821661Y-21628919D01*
X67821665Y-21628914D01*
X67821670Y-21628911D01*
X67983911Y-21466670D01*
X67983914Y-21466665D01*
X67983919Y-21466661D01*
X68123611Y-21284612D01*
X68238344Y-21085888D01*
X68326158Y-20873887D01*
X68385548Y-20652238D01*
X68415500Y-20424734D01*
X68415500Y-20195266D01*
X68385548Y-19967762D01*
X68326158Y-19746113D01*
X68261071Y-19588980D01*
X68238349Y-19534123D01*
X68238346Y-19534117D01*
X68238344Y-19534112D01*
X68123611Y-19335388D01*
X68123608Y-19335385D01*
X68123607Y-19335382D01*
X67983918Y-19153338D01*
X67983911Y-19153330D01*
X67821670Y-18991089D01*
X67821661Y-18991081D01*
X67639617Y-18851392D01*
X67606517Y-18832282D01*
X67441754Y-18737156D01*
X67440890Y-18736657D01*
X67440876Y-18736650D01*
X67228887Y-18648842D01*
X67177317Y-18635024D01*
X67007238Y-18589452D01*
X66969215Y-18584446D01*
X66779741Y-18559500D01*
X66779734Y-18559500D01*
X66550266Y-18559500D01*
X66550258Y-18559500D01*
X66333715Y-18588009D01*
X66322762Y-18589452D01*
X66239111Y-18611866D01*
X66101112Y-18648842D01*
X65889123Y-18736650D01*
X65889109Y-18736657D01*
X65690382Y-18851392D01*
X65508338Y-18991081D01*
X65346081Y-19153338D01*
X65206392Y-19335382D01*
X65091657Y-19534109D01*
X65091650Y-19534123D01*
X65003842Y-19746112D01*
X65003842Y-19746113D01*
X64944452Y-19967762D01*
X64944429Y-19967935D01*
X64914500Y-20195258D01*
X64600499Y-20195258D01*
X64570548Y-19967762D01*
X64511158Y-19746113D01*
X64446071Y-19588980D01*
X64423349Y-19534123D01*
X64423346Y-19534117D01*
X64423344Y-19534112D01*
X64308611Y-19335388D01*
X64308608Y-19335385D01*
X64308607Y-19335382D01*
X64168918Y-19153338D01*
X64168911Y-19153330D01*
X64006670Y-18991089D01*
X64006661Y-18991081D01*
X63824617Y-18851392D01*
X63791517Y-18832282D01*
X63626754Y-18737156D01*
X63625890Y-18736657D01*
X63625881Y-18736652D01*
X63558417Y-18708708D01*
X63504014Y-18664867D01*
X63481949Y-18598572D01*
X63499228Y-18530873D01*
X63550366Y-18483263D01*
X63558418Y-18479586D01*
X63780787Y-18387479D01*
X63780802Y-18387472D01*
X64019195Y-18249836D01*
X64187697Y-18120539D01*
X63257216Y-17190058D01*
X63359970Y-17121401D01*
X63471401Y-17009970D01*
X63540058Y-16907216D01*
X64470539Y-17837697D01*
X64599836Y-17669195D01*
X64737472Y-17430802D01*
X64737479Y-17430787D01*
X64842819Y-17176471D01*
X64914069Y-16910565D01*
X64950000Y-16637641D01*
X64950000Y-16396530D01*
X75139500Y-16396530D01*
X75139500Y-16603469D01*
X75179868Y-16806412D01*
X75179870Y-16806420D01*
X75223008Y-16910565D01*
X75259059Y-16997598D01*
X75299494Y-17058114D01*
X75374024Y-17169657D01*
X75520342Y-17315975D01*
X75520345Y-17315977D01*
X75692402Y-17430941D01*
X75883580Y-17510130D01*
X76086530Y-17550499D01*
X76086534Y-17550500D01*
X76086535Y-17550500D01*
X76293466Y-17550500D01*
X76293467Y-17550499D01*
X76496420Y-17510130D01*
X76687598Y-17430941D01*
X76859655Y-17315977D01*
X77005977Y-17169655D01*
X77120941Y-16997598D01*
X77200130Y-16806420D01*
X77240500Y-16603465D01*
X77240500Y-16396535D01*
X77200130Y-16193580D01*
X77120941Y-16002402D01*
X77005977Y-15830345D01*
X77005975Y-15830342D01*
X76859657Y-15684024D01*
X76773626Y-15626541D01*
X76687598Y-15569059D01*
X76640714Y-15549639D01*
X76496420Y-15489870D01*
X76496412Y-15489868D01*
X76293469Y-15449500D01*
X76293465Y-15449500D01*
X76086535Y-15449500D01*
X76086530Y-15449500D01*
X75883587Y-15489868D01*
X75883579Y-15489870D01*
X75692403Y-15569058D01*
X75520342Y-15684024D01*
X75374024Y-15830342D01*
X75259058Y-16002403D01*
X75179870Y-16193579D01*
X75179868Y-16193587D01*
X75139500Y-16396530D01*
X64950000Y-16396530D01*
X64950000Y-16362358D01*
X64914069Y-16089434D01*
X64842819Y-15823528D01*
X64737479Y-15569212D01*
X64737472Y-15569197D01*
X64599836Y-15330803D01*
X64470539Y-15162301D01*
X63540058Y-16092782D01*
X63471401Y-15990030D01*
X63359970Y-15878599D01*
X63257216Y-15809941D01*
X64187697Y-14879459D01*
X64187697Y-14879458D01*
X64019200Y-14750166D01*
X63780802Y-14612527D01*
X63780787Y-14612520D01*
X63526471Y-14507180D01*
X63260565Y-14435930D01*
X62987642Y-14400000D01*
X62712358Y-14400000D01*
X62439434Y-14435930D01*
X62173528Y-14507180D01*
X61919212Y-14612520D01*
X61919197Y-14612527D01*
X61680799Y-14750166D01*
X61512301Y-14879458D01*
X61512301Y-14879459D01*
X62442783Y-15809941D01*
X62340030Y-15878599D01*
X62228599Y-15990030D01*
X62159941Y-16092783D01*
X61229459Y-15162301D01*
X61229458Y-15162301D01*
X61100166Y-15330799D01*
X60962527Y-15569197D01*
X60962520Y-15569212D01*
X60857180Y-15823528D01*
X60785930Y-16089434D01*
X60750000Y-16362358D01*
X53290200Y-16362358D01*
X53290200Y-12884882D01*
X53277232Y-12836486D01*
X53261203Y-12776663D01*
X53237451Y-12735524D01*
X53205185Y-12679637D01*
X53125963Y-12600415D01*
X53125960Y-12600413D01*
X52555619Y-12030071D01*
X52543259Y-12007436D01*
X52530506Y-11992718D01*
X52527382Y-11978359D01*
X52522134Y-11968748D01*
X52519608Y-11945258D01*
X71269500Y-11945258D01*
X71269500Y-12174741D01*
X71293164Y-12354475D01*
X71299452Y-12402238D01*
X71344538Y-12570502D01*
X71358842Y-12623887D01*
X71446650Y-12835876D01*
X71446657Y-12835890D01*
X71561392Y-13034617D01*
X71701081Y-13216661D01*
X71701089Y-13216670D01*
X71863330Y-13378911D01*
X71863338Y-13378918D01*
X72045382Y-13518607D01*
X72045385Y-13518608D01*
X72045388Y-13518611D01*
X72244112Y-13633344D01*
X72244117Y-13633346D01*
X72244123Y-13633349D01*
X72335480Y-13671190D01*
X72456113Y-13721158D01*
X72677762Y-13780548D01*
X72905266Y-13810500D01*
X72905273Y-13810500D01*
X73134727Y-13810500D01*
X73134734Y-13810500D01*
X73362238Y-13780548D01*
X73583887Y-13721158D01*
X73795888Y-13633344D01*
X73994612Y-13518611D01*
X74176661Y-13378919D01*
X74176665Y-13378914D01*
X74176670Y-13378911D01*
X74338911Y-13216670D01*
X74338914Y-13216665D01*
X74338919Y-13216661D01*
X74478611Y-13034612D01*
X74593344Y-12835888D01*
X74681158Y-12623887D01*
X74740548Y-12402238D01*
X74770500Y-12174734D01*
X74770500Y-11945266D01*
X74740548Y-11717762D01*
X74681158Y-11496113D01*
X74593344Y-11284112D01*
X74478611Y-11085388D01*
X74478608Y-11085385D01*
X74478607Y-11085382D01*
X74352818Y-10921452D01*
X74338919Y-10903339D01*
X74338918Y-10903338D01*
X74338911Y-10903330D01*
X74176670Y-10741089D01*
X74176661Y-10741081D01*
X73994617Y-10601392D01*
X73795890Y-10486657D01*
X73795876Y-10486650D01*
X73583887Y-10398842D01*
X73362238Y-10339452D01*
X73324215Y-10334446D01*
X73134741Y-10309500D01*
X73134734Y-10309500D01*
X72905266Y-10309500D01*
X72905258Y-10309500D01*
X72688715Y-10338009D01*
X72677762Y-10339452D01*
X72584076Y-10364554D01*
X72456112Y-10398842D01*
X72244123Y-10486650D01*
X72244109Y-10486657D01*
X72045382Y-10601392D01*
X71863338Y-10741081D01*
X71701081Y-10903338D01*
X71561392Y-11085382D01*
X71446657Y-11284109D01*
X71446650Y-11284123D01*
X71358842Y-11496112D01*
X71299453Y-11717759D01*
X71299451Y-11717770D01*
X71269500Y-11945258D01*
X52519608Y-11945258D01*
X52519300Y-11942390D01*
X52519300Y-11880928D01*
X52494302Y-11755261D01*
X52494301Y-11755260D01*
X52494301Y-11755256D01*
X52445265Y-11636873D01*
X52445264Y-11636872D01*
X52445261Y-11636866D01*
X52374076Y-11530331D01*
X52374073Y-11530327D01*
X52283472Y-11439726D01*
X52283468Y-11439723D01*
X52176933Y-11368538D01*
X52176924Y-11368533D01*
X52058544Y-11319499D01*
X52058538Y-11319497D01*
X51932871Y-11294500D01*
X51932869Y-11294500D01*
X51804731Y-11294500D01*
X51804729Y-11294500D01*
X51679061Y-11319497D01*
X51679055Y-11319499D01*
X51560675Y-11368533D01*
X51560666Y-11368538D01*
X51454131Y-11439723D01*
X51454127Y-11439726D01*
X51363526Y-11530327D01*
X51363523Y-11530331D01*
X51292338Y-11636866D01*
X51292333Y-11636875D01*
X51243299Y-11755255D01*
X51243297Y-11755261D01*
X51218300Y-11880928D01*
X51218300Y-11880931D01*
X51218300Y-12009069D01*
X51218300Y-12009071D01*
X51218299Y-12009071D01*
X49875100Y-12009071D01*
X49875100Y-9691018D01*
X49894785Y-9623979D01*
X49911423Y-9603333D01*
X49918714Y-9596042D01*
X49995375Y-9481311D01*
X50048180Y-9353828D01*
X50075100Y-9218493D01*
X50075100Y-9080507D01*
X50075100Y-9080504D01*
X50048181Y-8945177D01*
X50048180Y-8945176D01*
X50048180Y-8945172D01*
X50048178Y-8945167D01*
X49995378Y-8817695D01*
X49995371Y-8817682D01*
X49918714Y-8702958D01*
X49918711Y-8702954D01*
X49821145Y-8605388D01*
X49821141Y-8605385D01*
X49706417Y-8528728D01*
X49706404Y-8528721D01*
X49578932Y-8475921D01*
X49578922Y-8475918D01*
X49443595Y-8449000D01*
X49443593Y-8449000D01*
X49305607Y-8449000D01*
X49305605Y-8449000D01*
X49170277Y-8475918D01*
X49170267Y-8475921D01*
X49042795Y-8528721D01*
X49042782Y-8528728D01*
X48928058Y-8605385D01*
X48928054Y-8605388D01*
X48830488Y-8702954D01*
X48830485Y-8702958D01*
X48753828Y-8817682D01*
X48753821Y-8817695D01*
X48701021Y-8945167D01*
X48701018Y-8945177D01*
X48674100Y-9080504D01*
X48674100Y-9080507D01*
X48674100Y-9218493D01*
X48674100Y-9218495D01*
X48674099Y-9218495D01*
X48701018Y-9353822D01*
X48701021Y-9353832D01*
X48753821Y-9481304D01*
X48753828Y-9481317D01*
X48830485Y-9596041D01*
X48837777Y-9603333D01*
X48871265Y-9664655D01*
X48874100Y-9691018D01*
X48874100Y-18635024D01*
X48854415Y-18702063D01*
X48837781Y-18722705D01*
X47099502Y-20460983D01*
X47099500Y-20460986D01*
X47033608Y-20575112D01*
X46999500Y-20702408D01*
X46999500Y-20725500D01*
X46979815Y-20792539D01*
X46927011Y-20838294D01*
X46875500Y-20849500D01*
X46605143Y-20849500D01*
X46605117Y-20849502D01*
X46580012Y-20852413D01*
X46580008Y-20852415D01*
X46477235Y-20897793D01*
X46397794Y-20977234D01*
X46352415Y-21080006D01*
X46352415Y-21080008D01*
X46349500Y-21105131D01*
X46349500Y-22894856D01*
X46349502Y-22894882D01*
X46352413Y-22919987D01*
X46352415Y-22919991D01*
X46397793Y-23022764D01*
X46397794Y-23022765D01*
X46477235Y-23102206D01*
X46580009Y-23147585D01*
X46605135Y-23150500D01*
X46957191Y-23150499D01*
X47024228Y-23170183D01*
X47069983Y-23222987D01*
X47079927Y-23292146D01*
X47050902Y-23355701D01*
X47013484Y-23384984D01*
X46844855Y-23470905D01*
X46844846Y-23470911D01*
X46768919Y-23526075D01*
X46768918Y-23526076D01*
X47314823Y-24071980D01*
X47307007Y-24074075D01*
X47192993Y-24139901D01*
X47099901Y-24232993D01*
X47034075Y-24347007D01*
X47031980Y-24354822D01*
X46486076Y-23808918D01*
X46486075Y-23808919D01*
X46430911Y-23884846D01*
X46430905Y-23884855D01*
X46341581Y-24060164D01*
X46280778Y-24247294D01*
X46250000Y-24441617D01*
X46250000Y-24638382D01*
X46280778Y-24832705D01*
X46326365Y-24973006D01*
X46328360Y-25042847D01*
X46292280Y-25102680D01*
X46229579Y-25133508D01*
X46160165Y-25125543D01*
X46120753Y-25099005D01*
X45931619Y-24909871D01*
X45898134Y-24848548D01*
X45895300Y-24822190D01*
X45895300Y-18832284D01*
X45895300Y-18832282D01*
X45866303Y-18724063D01*
X45810285Y-18627037D01*
X45731063Y-18547815D01*
X42428719Y-15245471D01*
X42395234Y-15184148D01*
X42392400Y-15157790D01*
X42392400Y-15010998D01*
X42412085Y-14943959D01*
X42464889Y-14898204D01*
X42534047Y-14888260D01*
X42597603Y-14917285D01*
X42619502Y-14942107D01*
X42669723Y-15017268D01*
X42669726Y-15017272D01*
X42760327Y-15107873D01*
X42760331Y-15107876D01*
X42866866Y-15179061D01*
X42866872Y-15179064D01*
X42866873Y-15179065D01*
X42985256Y-15228101D01*
X42985260Y-15228101D01*
X42985261Y-15228102D01*
X43110928Y-15253100D01*
X43110931Y-15253100D01*
X43239071Y-15253100D01*
X43351849Y-15230666D01*
X43364744Y-15228101D01*
X43483127Y-15179065D01*
X43589669Y-15107876D01*
X43680276Y-15017269D01*
X43751465Y-14910727D01*
X43800501Y-14792344D01*
X43825500Y-14666669D01*
X43825500Y-14538531D01*
X43825500Y-14538528D01*
X43800502Y-14412861D01*
X43800501Y-14412860D01*
X43800501Y-14412856D01*
X43760632Y-14316604D01*
X43751466Y-14294475D01*
X43751461Y-14294466D01*
X43680276Y-14187931D01*
X43680273Y-14187927D01*
X43636819Y-14144473D01*
X43603334Y-14083150D01*
X43600500Y-14056792D01*
X43600500Y-11209845D01*
X43620185Y-11142806D01*
X43672989Y-11097051D01*
X43742147Y-11087107D01*
X43771944Y-11095281D01*
X43823656Y-11116701D01*
X43823660Y-11116701D01*
X43823661Y-11116702D01*
X43949328Y-11141700D01*
X43949331Y-11141700D01*
X44077471Y-11141700D01*
X44163077Y-11124671D01*
X44203144Y-11116701D01*
X44321527Y-11067665D01*
X44428069Y-10996476D01*
X44518676Y-10905869D01*
X44589865Y-10799327D01*
X44638901Y-10680944D01*
X44647486Y-10637786D01*
X44663900Y-10555271D01*
X44663900Y-10427128D01*
X44638902Y-10301461D01*
X44638901Y-10301460D01*
X44638901Y-10301456D01*
X44597975Y-10202652D01*
X44589866Y-10183075D01*
X44589861Y-10183066D01*
X44518676Y-10076531D01*
X44518673Y-10076527D01*
X44475219Y-10033073D01*
X44441734Y-9971750D01*
X44438900Y-9945392D01*
X44438900Y-8456110D01*
X44458585Y-8389071D01*
X44511389Y-8343316D01*
X44580547Y-8333372D01*
X44644103Y-8362397D01*
X44650581Y-8368429D01*
X46423481Y-10141329D01*
X46456966Y-10202652D01*
X46459800Y-10229010D01*
X46459800Y-12694992D01*
X46440115Y-12762031D01*
X46423481Y-12782673D01*
X46380026Y-12826127D01*
X46380023Y-12826131D01*
X46308838Y-12932666D01*
X46308833Y-12932675D01*
X46259799Y-13051055D01*
X46259797Y-13051061D01*
X46234800Y-13176728D01*
X46234800Y-13176731D01*
X46234800Y-13304869D01*
X46234800Y-13304871D01*
X46234799Y-13304871D01*
X46259797Y-13430538D01*
X46259799Y-13430544D01*
X46308833Y-13548924D01*
X46308838Y-13548933D01*
X46380023Y-13655468D01*
X46380026Y-13655472D01*
X46470627Y-13746073D01*
X46470631Y-13746076D01*
X46577166Y-13817261D01*
X46577172Y-13817264D01*
X46577173Y-13817265D01*
X46695556Y-13866301D01*
X46695560Y-13866301D01*
X46695561Y-13866302D01*
X46821228Y-13891300D01*
X46821231Y-13891300D01*
X46949371Y-13891300D01*
X47063848Y-13868528D01*
X47075044Y-13866301D01*
X47193427Y-13817265D01*
X47299969Y-13746076D01*
X47390576Y-13655469D01*
X47461765Y-13548927D01*
X47510801Y-13430544D01*
X47525602Y-13356135D01*
X47535800Y-13304871D01*
X47535800Y-13176728D01*
X47510802Y-13051061D01*
X47510801Y-13051060D01*
X47510801Y-13051056D01*
X47461765Y-12932673D01*
X47461764Y-12932672D01*
X47461761Y-12932666D01*
X47390576Y-12826131D01*
X47390573Y-12826127D01*
X47347119Y-12782673D01*
X47313634Y-12721350D01*
X47310800Y-12694992D01*
X47310800Y-9945384D01*
X47310800Y-9945382D01*
X47281803Y-9837163D01*
X47225785Y-9740137D01*
X47146563Y-9660915D01*
X40884263Y-3398615D01*
X40849788Y-3378711D01*
X74649500Y-3378711D01*
X74649500Y-3621288D01*
X74681161Y-3861785D01*
X74743947Y-4096104D01*
X74795158Y-4219738D01*
X74836776Y-4320212D01*
X74958064Y-4530289D01*
X74958066Y-4530292D01*
X74958067Y-4530293D01*
X75105733Y-4722736D01*
X75105739Y-4722743D01*
X75277256Y-4894260D01*
X75277262Y-4894265D01*
X75469711Y-5041936D01*
X75679788Y-5163224D01*
X75903900Y-5256054D01*
X76138211Y-5318838D01*
X76318586Y-5342584D01*
X76378711Y-5350500D01*
X76378712Y-5350500D01*
X76621289Y-5350500D01*
X76669388Y-5344167D01*
X76861789Y-5318838D01*
X77096100Y-5256054D01*
X77320212Y-5163224D01*
X77530289Y-5041936D01*
X77722738Y-4894265D01*
X77894265Y-4722738D01*
X78041936Y-4530289D01*
X78163224Y-4320212D01*
X78256054Y-4096100D01*
X78318838Y-3861789D01*
X78350500Y-3621288D01*
X78350500Y-3378712D01*
X78345745Y-3342597D01*
X78318838Y-3138214D01*
X78318838Y-3138211D01*
X78256054Y-2903900D01*
X78163224Y-2679788D01*
X78041936Y-2469711D01*
X77894265Y-2277262D01*
X77894260Y-2277256D01*
X77722743Y-2105739D01*
X77722736Y-2105733D01*
X77530293Y-1958067D01*
X77530292Y-1958066D01*
X77530289Y-1958064D01*
X77320212Y-1836776D01*
X77320205Y-1836773D01*
X77096104Y-1743947D01*
X76861785Y-1681161D01*
X76621289Y-1649500D01*
X76621288Y-1649500D01*
X76378712Y-1649500D01*
X76378711Y-1649500D01*
X76138214Y-1681161D01*
X75903895Y-1743947D01*
X75679794Y-1836773D01*
X75679785Y-1836777D01*
X75469706Y-1958067D01*
X75277263Y-2105733D01*
X75277256Y-2105739D01*
X75105739Y-2277256D01*
X75105733Y-2277263D01*
X74958067Y-2469706D01*
X74836777Y-2679785D01*
X74836773Y-2679794D01*
X74743947Y-2903895D01*
X74681161Y-3138214D01*
X74649500Y-3378711D01*
X40849788Y-3378711D01*
X40787237Y-3342597D01*
X40679018Y-3313600D01*
X39438119Y-3313600D01*
X39326082Y-3313600D01*
X39217863Y-3342597D01*
X39217860Y-3342598D01*
X39120840Y-3398613D01*
X39120834Y-3398617D01*
X35367817Y-7151634D01*
X35367813Y-7151640D01*
X35311798Y-7248660D01*
X35311797Y-7248663D01*
X35282800Y-7356882D01*
X35282800Y-12116792D01*
X35263115Y-12183831D01*
X35246481Y-12204473D01*
X35203026Y-12247927D01*
X35203023Y-12247931D01*
X35131838Y-12354466D01*
X35131833Y-12354475D01*
X35082799Y-12472855D01*
X35082797Y-12472861D01*
X35057800Y-12598528D01*
X35057800Y-12598531D01*
X35057800Y-12726669D01*
X35057800Y-12726671D01*
X35057799Y-12726671D01*
X35082797Y-12852338D01*
X35082799Y-12852344D01*
X35131833Y-12970724D01*
X35131838Y-12970733D01*
X35203023Y-13077268D01*
X35203026Y-13077272D01*
X35293627Y-13167873D01*
X35293635Y-13167879D01*
X35385206Y-13229065D01*
X35430012Y-13282677D01*
X35438719Y-13352002D01*
X35408565Y-13415029D01*
X35398445Y-13424708D01*
X35305226Y-13517927D01*
X35305223Y-13517931D01*
X35234038Y-13624466D01*
X35234033Y-13624475D01*
X35184999Y-13742855D01*
X35184997Y-13742861D01*
X35160000Y-13868528D01*
X35160000Y-13868531D01*
X35160000Y-13996669D01*
X35160000Y-13996671D01*
X35159999Y-13996671D01*
X35184997Y-14122338D01*
X35184999Y-14122344D01*
X35234033Y-14240724D01*
X35234038Y-14240733D01*
X35305223Y-14347268D01*
X35305226Y-14347272D01*
X35395827Y-14437873D01*
X35395831Y-14437876D01*
X35502366Y-14509061D01*
X35502375Y-14509066D01*
X35560386Y-14533095D01*
X35614789Y-14576936D01*
X35636854Y-14643230D01*
X35619575Y-14710930D01*
X35600614Y-14735337D01*
X35138771Y-15197181D01*
X35077448Y-15230666D01*
X35051090Y-15233500D01*
X29748010Y-15233500D01*
X29680971Y-15213815D01*
X29660329Y-15197181D01*
X25940819Y-11477671D01*
X25907334Y-11416348D01*
X25904500Y-11389990D01*
X25904500Y-11328528D01*
X25879502Y-11202861D01*
X25879501Y-11202860D01*
X25879501Y-11202856D01*
X25830465Y-11084473D01*
X25830464Y-11084472D01*
X25830461Y-11084466D01*
X25759276Y-10977931D01*
X25759273Y-10977927D01*
X25668672Y-10887326D01*
X25668668Y-10887323D01*
X25562133Y-10816138D01*
X25562124Y-10816133D01*
X25443744Y-10767099D01*
X25443738Y-10767097D01*
X25318071Y-10742100D01*
X25318069Y-10742100D01*
X25189931Y-10742100D01*
X25189929Y-10742100D01*
X25064261Y-10767097D01*
X25064255Y-10767099D01*
X24945875Y-10816133D01*
X24945866Y-10816138D01*
X24839331Y-10887323D01*
X24839327Y-10887326D01*
X24748723Y-10977930D01*
X24712606Y-11031985D01*
X24696439Y-11045495D01*
X24683814Y-11062361D01*
X24670169Y-11067450D01*
X24658994Y-11076790D01*
X24638089Y-11079415D01*
X24618350Y-11086778D01*
X24604118Y-11083682D01*
X24589669Y-11085497D01*
X24570664Y-11076404D01*
X24550077Y-11071926D01*
X24530197Y-11057043D01*
X24526642Y-11055343D01*
X24521823Y-11050775D01*
X24428819Y-10957771D01*
X24395334Y-10896448D01*
X24392500Y-10870090D01*
X24392500Y-6991184D01*
X24392500Y-6991182D01*
X24363503Y-6882963D01*
X24307485Y-6785937D01*
X24228263Y-6706715D01*
X23049563Y-5528015D01*
X22952537Y-5471997D01*
X22844318Y-5443000D01*
X22324019Y-5443000D01*
X22211982Y-5443000D01*
X22103763Y-5471997D01*
X22103760Y-5471998D01*
X22006740Y-5528013D01*
X22006734Y-5528017D01*
X21526717Y-6008034D01*
X21526713Y-6008040D01*
X21470698Y-6105060D01*
X21470697Y-6105063D01*
X21441700Y-6213282D01*
X21441700Y-7118382D01*
X21441700Y-7230418D01*
X21470697Y-7338637D01*
X21526715Y-7435663D01*
X21526717Y-7435665D01*
X21845981Y-7754929D01*
X21879466Y-7816252D01*
X21882300Y-7842610D01*
X21882300Y-7904069D01*
X21882300Y-7904071D01*
X21882299Y-7904071D01*
X21907297Y-8029738D01*
X21907299Y-8029744D01*
X21956333Y-8148124D01*
X21956338Y-8148133D01*
X22027523Y-8254668D01*
X22027526Y-8254672D01*
X22118127Y-8345273D01*
X22118131Y-8345276D01*
X22224666Y-8416461D01*
X22224675Y-8416466D01*
X22251492Y-8427574D01*
X22343056Y-8465501D01*
X22343060Y-8465501D01*
X22343061Y-8465502D01*
X22468728Y-8490500D01*
X22468731Y-8490500D01*
X22596871Y-8490500D01*
X22681415Y-8473682D01*
X22722544Y-8465501D01*
X22840927Y-8416465D01*
X22907410Y-8372042D01*
X22974086Y-8351165D01*
X23041466Y-8369649D01*
X23088157Y-8421628D01*
X23100300Y-8475145D01*
X23100300Y-19151382D01*
X23100300Y-19263418D01*
X23121241Y-19341569D01*
X23129297Y-19371636D01*
X23129298Y-19371639D01*
X23145422Y-19399567D01*
X23185315Y-19468663D01*
X25529737Y-21813085D01*
X25626763Y-21869103D01*
X25734982Y-21898100D01*
X25847019Y-21898100D01*
X27210790Y-21898100D01*
X27240230Y-21906744D01*
X27270217Y-21913268D01*
X27275232Y-21917022D01*
X27277829Y-21917785D01*
X27298471Y-21934419D01*
X27328237Y-21964185D01*
X27361722Y-22025508D01*
X27356738Y-22095200D01*
X27314866Y-22151133D01*
X27264749Y-22173483D01*
X27247476Y-22176918D01*
X27247467Y-22176921D01*
X27119995Y-22229721D01*
X27119982Y-22229728D01*
X27005258Y-22306385D01*
X27005254Y-22306388D01*
X26907688Y-22403954D01*
X26907685Y-22403958D01*
X26831028Y-22518682D01*
X26831021Y-22518695D01*
X26778221Y-22646167D01*
X26778218Y-22646177D01*
X26751300Y-22781504D01*
X26751300Y-22781507D01*
X26751300Y-22919493D01*
X26751300Y-22919495D01*
X26751299Y-22919495D01*
X26778218Y-23054822D01*
X26778221Y-23054832D01*
X26831021Y-23182304D01*
X26831028Y-23182317D01*
X26907685Y-23297041D01*
X26914977Y-23304333D01*
X26948465Y-23365655D01*
X26951300Y-23392018D01*
X26951300Y-41336324D01*
X26931615Y-41403363D01*
X26914981Y-41424005D01*
X26632105Y-41706881D01*
X26570782Y-41740366D01*
X26544424Y-41743200D01*
X22163319Y-41743200D01*
X22096280Y-41723515D01*
X22075638Y-41706881D01*
X22068345Y-41699588D01*
X22068341Y-41699585D01*
X21953617Y-41622928D01*
X21953604Y-41622921D01*
X21826132Y-41570121D01*
X21826122Y-41570118D01*
X21690795Y-41543200D01*
X21690793Y-41543200D01*
X21552807Y-41543200D01*
X21552805Y-41543200D01*
X21417477Y-41570118D01*
X21417467Y-41570121D01*
X21289995Y-41622921D01*
X21289982Y-41622928D01*
X21175258Y-41699585D01*
X21175254Y-41699588D01*
X21077688Y-41797154D01*
X21077685Y-41797158D01*
X21001028Y-41911882D01*
X21001021Y-41911895D01*
X20948221Y-42039367D01*
X20948218Y-42039377D01*
X20921300Y-42174704D01*
X20921300Y-42174707D01*
X20921300Y-42312693D01*
X20921300Y-42312695D01*
X20921299Y-42312695D01*
X500000Y-42312695D01*
X500000Y-35120000D01*
X872150Y-35120000D01*
X1525735Y-35120000D01*
X1509940Y-35135795D01*
X1470444Y-35204204D01*
X1450000Y-35280504D01*
X1450000Y-35359496D01*
X1470444Y-35435796D01*
X1509940Y-35504205D01*
X1525735Y-35520000D01*
X872150Y-35520000D01*
X884584Y-35582512D01*
X884586Y-35582520D01*
X952428Y-35746307D01*
X952433Y-35746316D01*
X1050923Y-35893716D01*
X1050926Y-35893720D01*
X1176279Y-36019073D01*
X1176283Y-36019076D01*
X1323683Y-36117566D01*
X1323692Y-36117571D01*
X1487479Y-36185413D01*
X1487487Y-36185415D01*
X1661353Y-36219999D01*
X1661357Y-36220000D01*
X1850000Y-36220000D01*
X1850000Y-35620000D01*
X2250000Y-35620000D01*
X2250000Y-36220000D01*
X2438643Y-36220000D01*
X2438646Y-36219999D01*
X2612512Y-36185415D01*
X2612520Y-36185413D01*
X2776307Y-36117571D01*
X2776316Y-36117566D01*
X2923716Y-36019076D01*
X2923720Y-36019073D01*
X3049073Y-35893720D01*
X3049076Y-35893716D01*
X3147566Y-35746316D01*
X3147571Y-35746307D01*
X3215413Y-35582520D01*
X3215415Y-35582512D01*
X3227850Y-35520000D01*
X2574265Y-35520000D01*
X2590060Y-35504205D01*
X2629556Y-35435796D01*
X2650000Y-35359496D01*
X2650000Y-35280504D01*
X2629556Y-35204204D01*
X2590060Y-35135795D01*
X2574265Y-35120000D01*
X3227850Y-35120000D01*
X4802150Y-35120000D01*
X5455735Y-35120000D01*
X5439940Y-35135795D01*
X5400444Y-35204204D01*
X5380000Y-35280504D01*
X5380000Y-35359496D01*
X5400444Y-35435796D01*
X5439940Y-35504205D01*
X5455735Y-35520000D01*
X4802150Y-35520000D01*
X4814584Y-35582512D01*
X4814586Y-35582520D01*
X4882428Y-35746307D01*
X4882433Y-35746316D01*
X4980923Y-35893716D01*
X4980926Y-35893720D01*
X5106279Y-36019073D01*
X5106283Y-36019076D01*
X5253683Y-36117566D01*
X5253692Y-36117571D01*
X5417479Y-36185413D01*
X5417487Y-36185415D01*
X5591353Y-36219999D01*
X5591357Y-36220000D01*
X6030000Y-36220000D01*
X6030000Y-35620000D01*
X6430000Y-35620000D01*
X6430000Y-36220000D01*
X6868643Y-36220000D01*
X6868646Y-36219999D01*
X7042512Y-36185415D01*
X7042520Y-36185413D01*
X7206307Y-36117571D01*
X7206316Y-36117566D01*
X7353716Y-36019076D01*
X7353720Y-36019073D01*
X7479073Y-35893720D01*
X7479076Y-35893716D01*
X7577566Y-35746316D01*
X7577571Y-35746307D01*
X7645413Y-35582520D01*
X7645415Y-35582512D01*
X7657850Y-35520000D01*
X7004265Y-35520000D01*
X7020060Y-35504205D01*
X7059556Y-35435796D01*
X7080000Y-35359496D01*
X7080000Y-35280504D01*
X7059556Y-35204204D01*
X7020060Y-35135795D01*
X7004265Y-35120000D01*
X7657850Y-35120000D01*
X7645415Y-35057487D01*
X7645413Y-35057479D01*
X7577571Y-34893692D01*
X7577566Y-34893683D01*
X7479076Y-34746283D01*
X7479073Y-34746279D01*
X7353720Y-34620926D01*
X7353716Y-34620923D01*
X7206316Y-34522433D01*
X7206307Y-34522428D01*
X7042520Y-34454586D01*
X7042512Y-34454584D01*
X6868646Y-34420000D01*
X6430000Y-34420000D01*
X6430000Y-35020000D01*
X6030000Y-35020000D01*
X6030000Y-34425242D01*
X6038644Y-34395801D01*
X6045168Y-34365815D01*
X6048922Y-34360799D01*
X6049685Y-34358203D01*
X6066319Y-34337561D01*
X6122923Y-34280957D01*
X6160515Y-34243365D01*
X6236281Y-34112135D01*
X6275500Y-33965766D01*
X6275500Y-33814234D01*
X6236281Y-33667865D01*
X6160515Y-33536635D01*
X6053365Y-33429485D01*
X5987750Y-33391602D01*
X5922136Y-33353719D01*
X5814326Y-33324832D01*
X5775766Y-33314500D01*
X5624234Y-33314500D01*
X5477863Y-33353719D01*
X5346635Y-33429485D01*
X5346632Y-33429487D01*
X5239487Y-33536632D01*
X5239485Y-33536635D01*
X5163719Y-33667863D01*
X5124500Y-33814234D01*
X5124500Y-33965765D01*
X5163719Y-34112136D01*
X5201602Y-34177750D01*
X5239485Y-34243365D01*
X5239487Y-34243367D01*
X5309750Y-34313630D01*
X5343235Y-34374953D01*
X5338251Y-34444645D01*
X5296379Y-34500578D01*
X5269522Y-34515872D01*
X5253692Y-34522428D01*
X5253683Y-34522433D01*
X5106283Y-34620923D01*
X5106279Y-34620926D01*
X4980926Y-34746279D01*
X4980923Y-34746283D01*
X4882433Y-34893683D01*
X4882428Y-34893692D01*
X4814586Y-35057479D01*
X4814584Y-35057487D01*
X4802150Y-35120000D01*
X3227850Y-35120000D01*
X3215415Y-35057487D01*
X3215413Y-35057479D01*
X3147571Y-34893692D01*
X3147566Y-34893683D01*
X3049076Y-34746283D01*
X3049073Y-34746279D01*
X2923720Y-34620926D01*
X2923716Y-34620923D01*
X2776316Y-34522433D01*
X2776307Y-34522428D01*
X2612520Y-34454586D01*
X2612512Y-34454584D01*
X2438646Y-34420000D01*
X2250000Y-34420000D01*
X2250000Y-35020000D01*
X1850000Y-35020000D01*
X1850000Y-34420000D01*
X1661353Y-34420000D01*
X1487487Y-34454584D01*
X1487479Y-34454586D01*
X1323692Y-34522428D01*
X1323683Y-34522433D01*
X1176283Y-34620923D01*
X1176279Y-34620926D01*
X1050926Y-34746279D01*
X1050923Y-34746283D01*
X952433Y-34893683D01*
X952428Y-34893692D01*
X884586Y-35057479D01*
X884584Y-35057487D01*
X872150Y-35120000D01*
X500000Y-35120000D01*
X500000Y-30314071D01*
X4094498Y-30314071D01*
X4119496Y-30439738D01*
X4119498Y-30439744D01*
X4168532Y-30558124D01*
X4168537Y-30558133D01*
X4239722Y-30664668D01*
X4239725Y-30664672D01*
X4330326Y-30755273D01*
X4330330Y-30755276D01*
X4436865Y-30826461D01*
X4436874Y-30826466D01*
X4463691Y-30837574D01*
X4555255Y-30875501D01*
X4555259Y-30875501D01*
X4555260Y-30875502D01*
X4680927Y-30900500D01*
X4680930Y-30900500D01*
X4809070Y-30900500D01*
X4893614Y-30883682D01*
X4934743Y-30875501D01*
X5037970Y-30832742D01*
X5058754Y-30824134D01*
X5059566Y-30826096D01*
X5118530Y-30813798D01*
X5145205Y-30818921D01*
X9622357Y-32201571D01*
X10397806Y-32441048D01*
X10456052Y-32479638D01*
X10484189Y-32543592D01*
X10473283Y-32612605D01*
X10464320Y-32628417D01*
X10398537Y-32726868D01*
X10398533Y-32726875D01*
X10349499Y-32845255D01*
X10349497Y-32845261D01*
X10324500Y-32970928D01*
X10324500Y-32970931D01*
X10324500Y-33099069D01*
X10324500Y-33099071D01*
X10324499Y-33099071D01*
X10349497Y-33224738D01*
X10349499Y-33224744D01*
X10398533Y-33343124D01*
X10398538Y-33343133D01*
X10469723Y-33449668D01*
X10469726Y-33449672D01*
X10513180Y-33493125D01*
X10546666Y-33554448D01*
X10549500Y-33580807D01*
X10549500Y-34780882D01*
X10549500Y-34892918D01*
X10552448Y-34903918D01*
X10578497Y-35001136D01*
X10578498Y-35001139D01*
X10597169Y-35033479D01*
X10634515Y-35098163D01*
X10634517Y-35098165D01*
X12276281Y-36739929D01*
X12309766Y-36801252D01*
X12312600Y-36827610D01*
X12312600Y-36889069D01*
X12312600Y-36889071D01*
X12312599Y-36889071D01*
X12337597Y-37014738D01*
X12337599Y-37014744D01*
X12386633Y-37133124D01*
X12386638Y-37133133D01*
X12457823Y-37239668D01*
X12457826Y-37239672D01*
X12548427Y-37330273D01*
X12548431Y-37330276D01*
X12654966Y-37401461D01*
X12654972Y-37401464D01*
X12654973Y-37401465D01*
X12773356Y-37450501D01*
X12773360Y-37450501D01*
X12773361Y-37450502D01*
X12899028Y-37475500D01*
X12899031Y-37475500D01*
X13027171Y-37475500D01*
X13111715Y-37458682D01*
X13152844Y-37450501D01*
X13271227Y-37401465D01*
X13377769Y-37330276D01*
X13468376Y-37239669D01*
X13539565Y-37133127D01*
X13588601Y-37014744D01*
X13602049Y-36947137D01*
X13613600Y-36889071D01*
X13613600Y-36760928D01*
X13588602Y-36635261D01*
X13588601Y-36635260D01*
X13588601Y-36635256D01*
X13539565Y-36516873D01*
X13539564Y-36516872D01*
X13539561Y-36516866D01*
X13489214Y-36441517D01*
X13468336Y-36374840D01*
X13486820Y-36307460D01*
X13538799Y-36260769D01*
X13607769Y-36249593D01*
X13671833Y-36277478D01*
X13679997Y-36284945D01*
X14509281Y-37114229D01*
X14542766Y-37175552D01*
X14545600Y-37201910D01*
X14545600Y-41033092D01*
X14525915Y-41100131D01*
X14509281Y-41120773D01*
X14465826Y-41164227D01*
X14465823Y-41164231D01*
X14394638Y-41270766D01*
X14394633Y-41270775D01*
X14345599Y-41389155D01*
X14345597Y-41389161D01*
X14320600Y-41514828D01*
X14320600Y-41514831D01*
X14320600Y-41642969D01*
X14320600Y-41642971D01*
X14320599Y-41642971D01*
X14345597Y-41768638D01*
X14345599Y-41768644D01*
X14394633Y-41887024D01*
X14394638Y-41887033D01*
X14465823Y-41993568D01*
X14465826Y-41993572D01*
X14556427Y-42084173D01*
X14556431Y-42084176D01*
X14662966Y-42155361D01*
X14662972Y-42155364D01*
X14662973Y-42155365D01*
X14781356Y-42204401D01*
X14781360Y-42204401D01*
X14781361Y-42204402D01*
X14907028Y-42229400D01*
X14907031Y-42229400D01*
X15035171Y-42229400D01*
X15119715Y-42212582D01*
X15160844Y-42204401D01*
X15279227Y-42155365D01*
X15385769Y-42084176D01*
X15385772Y-42084173D01*
X15389012Y-42080934D01*
X15476373Y-41993572D01*
X15476376Y-41993569D01*
X15547565Y-41887027D01*
X15596601Y-41768644D01*
X15608948Y-41706573D01*
X15621600Y-41642971D01*
X15621600Y-41514828D01*
X15596602Y-41389161D01*
X15596601Y-41389160D01*
X15596601Y-41389156D01*
X15547565Y-41270773D01*
X15547564Y-41270772D01*
X15547561Y-41270766D01*
X15476376Y-41164231D01*
X15476373Y-41164227D01*
X15432919Y-41120773D01*
X15399434Y-41059450D01*
X15396600Y-41033092D01*
X15396600Y-36918284D01*
X15396600Y-36918282D01*
X15367603Y-36810063D01*
X15311585Y-36713037D01*
X15232363Y-36633815D01*
X13778519Y-35179971D01*
X13745034Y-35118648D01*
X13742200Y-35092290D01*
X13742200Y-33891450D01*
X13761885Y-33824411D01*
X13814689Y-33778656D01*
X13883847Y-33768712D01*
X13890393Y-33769833D01*
X13909330Y-33773600D01*
X13909331Y-33773600D01*
X14037471Y-33773600D01*
X14122015Y-33756782D01*
X14163144Y-33748601D01*
X14281527Y-33699565D01*
X14388069Y-33628376D01*
X14478676Y-33537769D01*
X14549865Y-33431227D01*
X14598901Y-33312844D01*
X14623900Y-33187169D01*
X14623900Y-33125710D01*
X14643585Y-33058671D01*
X14660219Y-33038029D01*
X14859587Y-32838661D01*
X15059285Y-32638963D01*
X15115303Y-32541937D01*
X15144300Y-32433718D01*
X15144300Y-32321681D01*
X15144300Y-31852107D01*
X15163985Y-31785068D01*
X15180620Y-31764425D01*
X15224073Y-31720972D01*
X15224076Y-31720969D01*
X15295265Y-31614427D01*
X15344301Y-31496044D01*
X15369300Y-31370369D01*
X15369300Y-31242231D01*
X15369300Y-31242228D01*
X15344302Y-31116561D01*
X15344301Y-31116560D01*
X15344301Y-31116556D01*
X15295265Y-30998173D01*
X15295264Y-30998172D01*
X15295261Y-30998166D01*
X15224076Y-30891631D01*
X15224073Y-30891627D01*
X15180619Y-30848173D01*
X15147134Y-30786850D01*
X15144300Y-30760492D01*
X15144300Y-24622110D01*
X15163985Y-24555071D01*
X15180619Y-24534429D01*
X20108229Y-19606819D01*
X20129893Y-19594989D01*
X20149216Y-19579628D01*
X20162937Y-19576945D01*
X20169552Y-19573334D01*
X20183471Y-19571125D01*
X20189670Y-19570500D01*
X20257369Y-19570500D01*
X20326951Y-19556658D01*
X20332861Y-19556063D01*
X20361592Y-19561443D01*
X20390699Y-19564048D01*
X20395527Y-19567798D01*
X20401537Y-19568924D01*
X20422796Y-19588980D01*
X20445877Y-19606910D01*
X20447911Y-19612675D01*
X20452358Y-19616871D01*
X20459398Y-19645236D01*
X20469122Y-19672799D01*
X20469300Y-19679438D01*
X20469300Y-29319890D01*
X20449615Y-29386929D01*
X20432981Y-29407571D01*
X18389871Y-31450681D01*
X18328548Y-31484166D01*
X18302190Y-31487000D01*
X18240729Y-31487000D01*
X18115061Y-31511997D01*
X18115055Y-31511999D01*
X17996675Y-31561033D01*
X17996666Y-31561038D01*
X17890131Y-31632223D01*
X17890127Y-31632226D01*
X17799526Y-31722827D01*
X17799523Y-31722831D01*
X17728338Y-31829366D01*
X17728333Y-31829375D01*
X17679299Y-31947755D01*
X17679297Y-31947761D01*
X17654300Y-32073428D01*
X17654300Y-32073431D01*
X17654300Y-32201569D01*
X17654300Y-32201571D01*
X17654299Y-32201571D01*
X17679297Y-32327238D01*
X17679299Y-32327244D01*
X17728333Y-32445624D01*
X17728338Y-32445633D01*
X17799523Y-32552168D01*
X17799526Y-32552172D01*
X17890127Y-32642773D01*
X17890131Y-32642776D01*
X17996666Y-32713961D01*
X17996675Y-32713966D01*
X18018046Y-32722818D01*
X18115056Y-32763001D01*
X18115060Y-32763001D01*
X18115061Y-32763002D01*
X18240728Y-32788000D01*
X18240731Y-32788000D01*
X18368871Y-32788000D01*
X18453415Y-32771182D01*
X18494544Y-32763001D01*
X18612927Y-32713965D01*
X18719469Y-32642776D01*
X18810076Y-32552169D01*
X18881265Y-32445627D01*
X18930301Y-32327244D01*
X18955300Y-32201569D01*
X18955300Y-32140110D01*
X18974985Y-32073071D01*
X18991619Y-32052429D01*
X20061504Y-30982544D01*
X21235285Y-29808763D01*
X21291303Y-29711737D01*
X21320300Y-29603519D01*
X21320300Y-29491482D01*
X21320300Y-17601582D01*
X21291303Y-17493363D01*
X21235285Y-17396337D01*
X21156063Y-17317115D01*
X20654019Y-16815071D01*
X20620534Y-16753748D01*
X20617700Y-16727390D01*
X20617700Y-16665928D01*
X20592702Y-16540261D01*
X20592701Y-16540260D01*
X20592701Y-16540256D01*
X20543665Y-16421873D01*
X20543664Y-16421872D01*
X20543661Y-16421866D01*
X20472476Y-16315331D01*
X20472473Y-16315327D01*
X20381872Y-16224726D01*
X20381868Y-16224723D01*
X20275333Y-16153538D01*
X20275324Y-16153533D01*
X20156944Y-16104499D01*
X20156938Y-16104497D01*
X20031271Y-16079500D01*
X20031269Y-16079500D01*
X19903131Y-16079500D01*
X19903129Y-16079500D01*
X19777461Y-16104497D01*
X19777455Y-16104499D01*
X19659075Y-16153533D01*
X19659066Y-16153538D01*
X19552531Y-16224723D01*
X19552527Y-16224726D01*
X19461926Y-16315327D01*
X19461923Y-16315331D01*
X19390738Y-16421866D01*
X19390733Y-16421875D01*
X19341699Y-16540255D01*
X19341697Y-16540261D01*
X19316700Y-16665928D01*
X19316700Y-16665931D01*
X19316700Y-16794069D01*
X19316700Y-16794071D01*
X19316699Y-16794071D01*
X19341697Y-16919738D01*
X19341699Y-16919744D01*
X19390733Y-17038124D01*
X19390738Y-17038133D01*
X19461923Y-17144668D01*
X19461926Y-17144672D01*
X19552527Y-17235273D01*
X19552531Y-17235276D01*
X19659066Y-17306461D01*
X19659072Y-17306464D01*
X19659073Y-17306465D01*
X19777456Y-17355501D01*
X19777460Y-17355501D01*
X19777461Y-17355502D01*
X19903128Y-17380500D01*
X19903131Y-17380500D01*
X19964590Y-17380500D01*
X20031629Y-17400185D01*
X20052271Y-17416819D01*
X20432981Y-17797529D01*
X20466466Y-17858852D01*
X20469300Y-17885210D01*
X20469300Y-18160561D01*
X20449615Y-18227600D01*
X20396811Y-18273355D01*
X20327653Y-18283299D01*
X20321109Y-18282178D01*
X20257372Y-18269500D01*
X20257369Y-18269500D01*
X20129231Y-18269500D01*
X20129229Y-18269500D01*
X20003561Y-18294497D01*
X20003555Y-18294499D01*
X19885175Y-18343533D01*
X19885166Y-18343538D01*
X19778631Y-18414723D01*
X19778627Y-18414726D01*
X19688026Y-18505327D01*
X19688023Y-18505331D01*
X19616838Y-18611866D01*
X19616833Y-18611875D01*
X19567799Y-18730255D01*
X19567797Y-18730261D01*
X19542800Y-18855928D01*
X19542800Y-18917390D01*
X19523115Y-18984429D01*
X19506481Y-19005071D01*
X14378317Y-24133234D01*
X14378313Y-24133240D01*
X14322298Y-24230260D01*
X14322297Y-24230263D01*
X14293300Y-24338482D01*
X14293300Y-30760492D01*
X14273615Y-30827531D01*
X14256981Y-30848173D01*
X14213526Y-30891627D01*
X14213523Y-30891631D01*
X14142338Y-30998166D01*
X14142333Y-30998175D01*
X14093299Y-31116555D01*
X14093297Y-31116561D01*
X14068300Y-31242228D01*
X14068300Y-31242231D01*
X14068300Y-31370369D01*
X14068300Y-31370371D01*
X14068299Y-31370371D01*
X14093297Y-31496038D01*
X14093299Y-31496044D01*
X14142333Y-31614424D01*
X14142338Y-31614433D01*
X14213523Y-31720968D01*
X14213526Y-31720972D01*
X14256980Y-31764425D01*
X14290466Y-31825748D01*
X14293300Y-31852107D01*
X14293300Y-32150090D01*
X14273615Y-32217129D01*
X14256981Y-32237771D01*
X14058471Y-32436281D01*
X14034615Y-32449307D01*
X14012647Y-32465322D01*
X14001847Y-32467199D01*
X13997148Y-32469766D01*
X13978068Y-32472386D01*
X13974428Y-32472600D01*
X13909331Y-32472600D01*
X13882018Y-32478032D01*
X13873478Y-32478535D01*
X13847430Y-32472521D01*
X13820796Y-32470138D01*
X13813901Y-32464782D01*
X13805398Y-32462819D01*
X13786734Y-32443676D01*
X13765620Y-32427273D01*
X13762716Y-32419042D01*
X13756623Y-32412792D01*
X13751271Y-32386594D01*
X13742378Y-32361383D01*
X13742200Y-32354749D01*
X13742200Y-8216210D01*
X13761885Y-8149171D01*
X13778519Y-8128529D01*
X19625529Y-2281519D01*
X19686852Y-2248034D01*
X19713210Y-2245200D01*
X20094890Y-2245200D01*
X20161929Y-2264885D01*
X20182571Y-2281519D01*
X21845981Y-3944928D01*
X21879466Y-4006251D01*
X21882300Y-4032609D01*
X21882300Y-4094069D01*
X21882300Y-4094071D01*
X21882299Y-4094071D01*
X21907297Y-4219738D01*
X21907299Y-4219744D01*
X21956333Y-4338124D01*
X21956338Y-4338133D01*
X22027523Y-4444668D01*
X22027526Y-4444672D01*
X22118127Y-4535273D01*
X22118131Y-4535276D01*
X22224666Y-4606461D01*
X22224672Y-4606464D01*
X22224673Y-4606465D01*
X22343056Y-4655501D01*
X22343060Y-4655501D01*
X22343061Y-4655502D01*
X22468728Y-4680500D01*
X22468731Y-4680500D01*
X22596871Y-4680500D01*
X22681415Y-4663682D01*
X22722544Y-4655501D01*
X22840927Y-4606465D01*
X22947469Y-4535276D01*
X23038076Y-4444669D01*
X23109265Y-4338127D01*
X23158301Y-4219744D01*
X23166482Y-4178615D01*
X23183300Y-4094071D01*
X23183300Y-3965928D01*
X23158302Y-3840261D01*
X23158301Y-3840260D01*
X23158301Y-3840256D01*
X23109265Y-3721873D01*
X23109264Y-3721872D01*
X23109261Y-3721866D01*
X23038076Y-3615331D01*
X23038073Y-3615327D01*
X22947472Y-3524726D01*
X22947468Y-3524723D01*
X22840933Y-3453538D01*
X22840924Y-3453533D01*
X22722544Y-3404499D01*
X22722538Y-3404497D01*
X22596871Y-3379500D01*
X22596869Y-3379500D01*
X22535409Y-3379500D01*
X22468370Y-3359815D01*
X22447728Y-3343181D01*
X20583765Y-1479217D01*
X20583764Y-1479216D01*
X20583763Y-1479215D01*
X20519079Y-1441869D01*
X20486739Y-1423198D01*
X20486738Y-1423197D01*
X20486737Y-1423197D01*
X20378518Y-1394200D01*
X19541618Y-1394200D01*
X19429582Y-1394200D01*
X19321363Y-1423197D01*
X19321360Y-1423198D01*
X19224340Y-1479213D01*
X19224334Y-1479217D01*
X12976217Y-7727334D01*
X12976213Y-7727340D01*
X12920198Y-7824360D01*
X12920197Y-7824363D01*
X12891200Y-7932582D01*
X12891200Y-9502590D01*
X12871515Y-9569629D01*
X12818711Y-9615384D01*
X12749553Y-9625328D01*
X12685997Y-9596303D01*
X12679519Y-9590271D01*
X10377219Y-7287971D01*
X10343734Y-7226648D01*
X10340900Y-7200290D01*
X10340900Y-7138828D01*
X10315902Y-7013161D01*
X10315901Y-7013160D01*
X10315901Y-7013156D01*
X10266865Y-6894773D01*
X10266864Y-6894772D01*
X10266861Y-6894766D01*
X10195676Y-6788231D01*
X10195673Y-6788227D01*
X10105072Y-6697626D01*
X10105068Y-6697623D01*
X9998533Y-6626438D01*
X9998524Y-6626433D01*
X9880144Y-6577399D01*
X9880138Y-6577397D01*
X9754471Y-6552400D01*
X9754469Y-6552400D01*
X9626331Y-6552400D01*
X9626329Y-6552400D01*
X9500661Y-6577397D01*
X9500655Y-6577399D01*
X9382275Y-6626433D01*
X9382266Y-6626438D01*
X9275731Y-6697623D01*
X9275727Y-6697626D01*
X9185126Y-6788227D01*
X9185123Y-6788231D01*
X9113938Y-6894766D01*
X9113933Y-6894775D01*
X9064899Y-7013155D01*
X9064897Y-7013161D01*
X9039900Y-7138828D01*
X9039900Y-7138831D01*
X9039900Y-7266969D01*
X9039900Y-7266971D01*
X9039899Y-7266971D01*
X9064897Y-7392638D01*
X9064899Y-7392644D01*
X9113933Y-7511024D01*
X9113938Y-7511033D01*
X9185123Y-7617568D01*
X9185126Y-7617572D01*
X9275727Y-7708173D01*
X9275731Y-7708176D01*
X9382266Y-7779361D01*
X9382272Y-7779364D01*
X9382273Y-7779365D01*
X9500656Y-7828401D01*
X9500660Y-7828401D01*
X9500661Y-7828402D01*
X9626328Y-7853400D01*
X9626331Y-7853400D01*
X9687790Y-7853400D01*
X9754829Y-7873085D01*
X9775471Y-7889719D01*
X12083181Y-10197429D01*
X12116666Y-10258752D01*
X12119500Y-10285110D01*
X12119500Y-27304192D01*
X12099815Y-27371231D01*
X12083181Y-27391873D01*
X12039726Y-27435327D01*
X12039723Y-27435331D01*
X11968538Y-27541866D01*
X11968533Y-27541875D01*
X11919499Y-27660255D01*
X11919497Y-27660261D01*
X11894500Y-27785928D01*
X11894500Y-27785931D01*
X11894500Y-27914069D01*
X11894500Y-27914071D01*
X11894499Y-27914071D01*
X11919497Y-28039738D01*
X11919499Y-28039744D01*
X11968533Y-28158124D01*
X11968538Y-28158133D01*
X12023602Y-28240541D01*
X12044480Y-28307218D01*
X12044500Y-28309432D01*
X12044500Y-31669418D01*
X12024815Y-31736457D01*
X11972011Y-31782212D01*
X11902853Y-31792156D01*
X11859054Y-31775373D01*
X11858502Y-31776408D01*
X11853124Y-31773533D01*
X11734744Y-31724499D01*
X11734738Y-31724497D01*
X11609071Y-31699500D01*
X11609069Y-31699500D01*
X11480931Y-31699500D01*
X11480929Y-31699500D01*
X11355261Y-31724497D01*
X11355255Y-31724499D01*
X11273342Y-31758428D01*
X11237195Y-31773402D01*
X11231246Y-31775866D01*
X11230438Y-31773916D01*
X11171390Y-31786193D01*
X11144787Y-31781075D01*
X5396327Y-30005816D01*
X5338081Y-29967226D01*
X5323557Y-29945790D01*
X5321467Y-29941882D01*
X5321464Y-29941873D01*
X5286409Y-29889410D01*
X5250278Y-29835335D01*
X5250272Y-29835327D01*
X5159671Y-29744726D01*
X5159667Y-29744723D01*
X5053132Y-29673538D01*
X5053123Y-29673533D01*
X4934743Y-29624499D01*
X4934737Y-29624497D01*
X4809070Y-29599500D01*
X4809068Y-29599500D01*
X4680930Y-29599500D01*
X4680928Y-29599500D01*
X4555260Y-29624497D01*
X4555254Y-29624499D01*
X4436874Y-29673533D01*
X4436865Y-29673538D01*
X4330330Y-29744723D01*
X4330326Y-29744726D01*
X4239725Y-29835327D01*
X4239722Y-29835331D01*
X4168537Y-29941866D01*
X4168532Y-29941875D01*
X4119498Y-30060255D01*
X4119496Y-30060261D01*
X4094499Y-30185928D01*
X4094499Y-30185931D01*
X4094499Y-30314069D01*
X4094499Y-30314071D01*
X4094498Y-30314071D01*
X500000Y-30314071D01*
X500000Y-26480000D01*
X872150Y-26480000D01*
X1525735Y-26480000D01*
X1509940Y-26495795D01*
X1470444Y-26564204D01*
X1450000Y-26640504D01*
X1450000Y-26719496D01*
X1470444Y-26795796D01*
X1509940Y-26864205D01*
X1525735Y-26880000D01*
X872150Y-26880000D01*
X884584Y-26942512D01*
X884586Y-26942520D01*
X952428Y-27106307D01*
X952433Y-27106316D01*
X1050923Y-27253716D01*
X1050926Y-27253720D01*
X1176279Y-27379073D01*
X1176283Y-27379076D01*
X1323683Y-27477566D01*
X1323692Y-27477571D01*
X1487479Y-27545413D01*
X1487487Y-27545415D01*
X1661353Y-27579999D01*
X1661357Y-27580000D01*
X1850000Y-27580000D01*
X1850000Y-26980000D01*
X2250000Y-26980000D01*
X2250000Y-27580000D01*
X2438643Y-27580000D01*
X2438646Y-27579999D01*
X2612512Y-27545415D01*
X2612520Y-27545413D01*
X2776307Y-27477571D01*
X2776316Y-27477566D01*
X2923716Y-27379076D01*
X2923720Y-27379073D01*
X3049073Y-27253720D01*
X3049076Y-27253716D01*
X3147566Y-27106316D01*
X3147571Y-27106307D01*
X3215413Y-26942520D01*
X3215415Y-26942512D01*
X3227850Y-26880000D01*
X2574265Y-26880000D01*
X2590060Y-26864205D01*
X2629556Y-26795796D01*
X2650000Y-26719496D01*
X2650000Y-26640504D01*
X2629556Y-26564204D01*
X2590060Y-26495795D01*
X2574265Y-26480000D01*
X3227850Y-26480000D01*
X4802150Y-26480000D01*
X5455735Y-26480000D01*
X5439940Y-26495795D01*
X5400444Y-26564204D01*
X5380000Y-26640504D01*
X5380000Y-26719496D01*
X5400444Y-26795796D01*
X5439940Y-26864205D01*
X5455735Y-26880000D01*
X4802150Y-26880000D01*
X4814584Y-26942512D01*
X4814586Y-26942520D01*
X4882428Y-27106307D01*
X4882433Y-27106316D01*
X4980923Y-27253716D01*
X4980926Y-27253720D01*
X5106279Y-27379073D01*
X5106283Y-27379076D01*
X5253683Y-27477566D01*
X5253691Y-27477570D01*
X5269517Y-27484125D01*
X5323922Y-27527964D01*
X5345990Y-27594257D01*
X5328713Y-27661957D01*
X5309751Y-27686369D01*
X5239485Y-27756635D01*
X5163719Y-27887863D01*
X5124706Y-28033465D01*
X5124500Y-28034234D01*
X5124500Y-28185766D01*
X5128896Y-28202171D01*
X5163719Y-28332136D01*
X5193220Y-28383232D01*
X5239485Y-28463365D01*
X5346635Y-28570515D01*
X5477865Y-28646281D01*
X5624234Y-28685500D01*
X5624236Y-28685500D01*
X5775764Y-28685500D01*
X5775766Y-28685500D01*
X5922135Y-28646281D01*
X6053365Y-28570515D01*
X6160515Y-28463365D01*
X6236281Y-28332135D01*
X6275500Y-28185766D01*
X6275500Y-28034234D01*
X6236281Y-27887865D01*
X6229089Y-27875409D01*
X6200975Y-27826714D01*
X6160515Y-27756635D01*
X6066319Y-27662439D01*
X6032834Y-27601116D01*
X6030000Y-27574758D01*
X6030000Y-26980000D01*
X6430000Y-26980000D01*
X6430000Y-27580000D01*
X6868643Y-27580000D01*
X6868646Y-27579999D01*
X7042512Y-27545415D01*
X7042520Y-27545413D01*
X7206307Y-27477571D01*
X7206316Y-27477566D01*
X7353716Y-27379076D01*
X7353720Y-27379073D01*
X7479073Y-27253720D01*
X7479076Y-27253716D01*
X7577566Y-27106316D01*
X7577571Y-27106307D01*
X7645413Y-26942520D01*
X7645415Y-26942512D01*
X7657850Y-26880000D01*
X7004265Y-26880000D01*
X7020060Y-26864205D01*
X7059556Y-26795796D01*
X7080000Y-26719496D01*
X7080000Y-26640504D01*
X7059556Y-26564204D01*
X7020060Y-26495795D01*
X7004265Y-26480000D01*
X7657850Y-26480000D01*
X7645415Y-26417487D01*
X7645413Y-26417479D01*
X7577571Y-26253692D01*
X7577566Y-26253683D01*
X7479076Y-26106283D01*
X7479073Y-26106279D01*
X7353720Y-25980926D01*
X7353716Y-25980923D01*
X7206316Y-25882433D01*
X7206307Y-25882428D01*
X7042520Y-25814586D01*
X7042512Y-25814584D01*
X6868646Y-25780000D01*
X6430000Y-25780000D01*
X6430000Y-26380000D01*
X6030000Y-26380000D01*
X6030000Y-25780000D01*
X5591353Y-25780000D01*
X5417487Y-25814584D01*
X5417479Y-25814586D01*
X5253692Y-25882428D01*
X5253683Y-25882433D01*
X5106283Y-25980923D01*
X5106279Y-25980926D01*
X4980926Y-26106279D01*
X4980923Y-26106283D01*
X4882433Y-26253683D01*
X4882428Y-26253692D01*
X4814586Y-26417479D01*
X4814584Y-26417487D01*
X4802150Y-26480000D01*
X3227850Y-26480000D01*
X3215415Y-26417487D01*
X3215413Y-26417479D01*
X3147571Y-26253692D01*
X3147566Y-26253683D01*
X3049076Y-26106283D01*
X3049073Y-26106279D01*
X2923720Y-25980926D01*
X2923716Y-25980923D01*
X2776316Y-25882433D01*
X2776307Y-25882428D01*
X2612520Y-25814586D01*
X2612512Y-25814584D01*
X2438646Y-25780000D01*
X2250000Y-25780000D01*
X2250000Y-26380000D01*
X1850000Y-26380000D01*
X1850000Y-25780000D01*
X1661353Y-25780000D01*
X1487487Y-25814584D01*
X1487479Y-25814586D01*
X1323692Y-25882428D01*
X1323683Y-25882433D01*
X1176283Y-25980923D01*
X1176279Y-25980926D01*
X1050926Y-26106279D01*
X1050923Y-26106283D01*
X952433Y-26253683D01*
X952428Y-26253692D01*
X884586Y-26417479D01*
X884584Y-26417487D01*
X872150Y-26480000D01*
X500000Y-26480000D01*
X500000Y-10572895D01*
X9345599Y-10572895D01*
X9372518Y-10708222D01*
X9372521Y-10708232D01*
X9425321Y-10835704D01*
X9425328Y-10835717D01*
X9501985Y-10950441D01*
X9501988Y-10950445D01*
X9599554Y-11048011D01*
X9599558Y-11048014D01*
X9714282Y-11124671D01*
X9714295Y-11124678D01*
X9825522Y-11170749D01*
X9841772Y-11177480D01*
X9866802Y-11182458D01*
X9886991Y-11186475D01*
X9948902Y-11218860D01*
X9983476Y-11279575D01*
X9986800Y-11308092D01*
X9986800Y-16758481D01*
X9967115Y-16825520D01*
X9950481Y-16846162D01*
X9943188Y-16853454D01*
X9943185Y-16853458D01*
X9866528Y-16968182D01*
X9866521Y-16968195D01*
X9813721Y-17095667D01*
X9813718Y-17095677D01*
X9786800Y-17231004D01*
X9786800Y-17231007D01*
X9786800Y-17368993D01*
X9786800Y-17368995D01*
X9786799Y-17368995D01*
X9813718Y-17504322D01*
X9813721Y-17504332D01*
X9866521Y-17631804D01*
X9866528Y-17631817D01*
X9943185Y-17746541D01*
X9943188Y-17746545D01*
X10040754Y-17844111D01*
X10040758Y-17844114D01*
X10155482Y-17920771D01*
X10155495Y-17920778D01*
X10282967Y-17973578D01*
X10282972Y-17973580D01*
X10282976Y-17973580D01*
X10282977Y-17973581D01*
X10418304Y-18000500D01*
X10418307Y-18000500D01*
X10556295Y-18000500D01*
X10647341Y-17982389D01*
X10691628Y-17973580D01*
X10819111Y-17920775D01*
X10933842Y-17844114D01*
X11031414Y-17746542D01*
X11108075Y-17631811D01*
X11160880Y-17504328D01*
X11178287Y-17416819D01*
X11187800Y-17368995D01*
X11187800Y-17231004D01*
X11160881Y-17095677D01*
X11160880Y-17095676D01*
X11160880Y-17095672D01*
X11136163Y-17036000D01*
X11108078Y-16968195D01*
X11108071Y-16968182D01*
X11031414Y-16853458D01*
X11031411Y-16853454D01*
X11024119Y-16846162D01*
X10990634Y-16784839D01*
X10987800Y-16758481D01*
X10987800Y-10879210D01*
X10987800Y-10879208D01*
X10953692Y-10751914D01*
X10887800Y-10637786D01*
X10794614Y-10544600D01*
X10782919Y-10532905D01*
X10749434Y-10471582D01*
X10746600Y-10445224D01*
X10746600Y-10434904D01*
X10719681Y-10299577D01*
X10719680Y-10299576D01*
X10719680Y-10299572D01*
X10692415Y-10233748D01*
X10666878Y-10172095D01*
X10666871Y-10172082D01*
X10590214Y-10057358D01*
X10590211Y-10057354D01*
X10492645Y-9959788D01*
X10492641Y-9959785D01*
X10377917Y-9883128D01*
X10377904Y-9883121D01*
X10250432Y-9830321D01*
X10250422Y-9830318D01*
X10115095Y-9803400D01*
X10115093Y-9803400D01*
X9977107Y-9803400D01*
X9977105Y-9803400D01*
X9841777Y-9830318D01*
X9841767Y-9830321D01*
X9714295Y-9883121D01*
X9714282Y-9883128D01*
X9599558Y-9959785D01*
X9599554Y-9959788D01*
X9501988Y-10057354D01*
X9501985Y-10057358D01*
X9425328Y-10172082D01*
X9425321Y-10172095D01*
X9372521Y-10299567D01*
X9372518Y-10299577D01*
X9345600Y-10434904D01*
X9345600Y-10434907D01*
X9345600Y-10572893D01*
X9345600Y-10572895D01*
X9345599Y-10572895D01*
X500000Y-10572895D01*
X500000Y-3378711D01*
X1649500Y-3378711D01*
X1649500Y-3621288D01*
X1681161Y-3861785D01*
X1743947Y-4096104D01*
X1795158Y-4219738D01*
X1836776Y-4320212D01*
X1958064Y-4530289D01*
X1958066Y-4530292D01*
X1958067Y-4530293D01*
X2105733Y-4722736D01*
X2105739Y-4722743D01*
X2277256Y-4894260D01*
X2277262Y-4894265D01*
X2469711Y-5041936D01*
X2679788Y-5163224D01*
X2903900Y-5256054D01*
X3138211Y-5318838D01*
X3318586Y-5342584D01*
X3378711Y-5350500D01*
X3378712Y-5350500D01*
X3621289Y-5350500D01*
X3669388Y-5344167D01*
X3861789Y-5318838D01*
X4096100Y-5256054D01*
X4320212Y-5163224D01*
X4530289Y-5041936D01*
X4722738Y-4894265D01*
X4894265Y-4722738D01*
X5041936Y-4530289D01*
X5163224Y-4320212D01*
X5256054Y-4096100D01*
X5318838Y-3861789D01*
X5350500Y-3621288D01*
X5350500Y-3378712D01*
X5345745Y-3342597D01*
X5318838Y-3138214D01*
X5318838Y-3138211D01*
X5256054Y-2903900D01*
X5163224Y-2679788D01*
X5041936Y-2469711D01*
X4894265Y-2277262D01*
X4894260Y-2277256D01*
X4722743Y-2105739D01*
X4722736Y-2105733D01*
X4530293Y-1958067D01*
X4530292Y-1958066D01*
X4530289Y-1958064D01*
X4320212Y-1836776D01*
X4320205Y-1836773D01*
X4096104Y-1743947D01*
X3861785Y-1681161D01*
X3621289Y-1649500D01*
X3621288Y-1649500D01*
X3378712Y-1649500D01*
X3378711Y-1649500D01*
X3138214Y-1681161D01*
X2903895Y-1743947D01*
X2679794Y-1836773D01*
X2679785Y-1836777D01*
X2469706Y-1958067D01*
X2277263Y-2105733D01*
X2277256Y-2105739D01*
X2105739Y-2277256D01*
X2105733Y-2277263D01*
X1958067Y-2469706D01*
X1836777Y-2679785D01*
X1836773Y-2679794D01*
X1743947Y-2903895D01*
X1681161Y-3138214D01*
X1649500Y-3378711D01*
X500000Y-3378711D01*
X500000Y-1620975D01*
X502183Y-1610804D01*
X501167Y-1604003D01*
X510924Y-1570085D01*
X549360Y-1484683D01*
X549364Y-1484674D01*
X556312Y-1471434D01*
X685975Y-1256946D01*
X694462Y-1244650D01*
X849033Y-1047354D01*
X858948Y-1036163D01*
X1036162Y-858949D01*
X1047353Y-849034D01*
X1244649Y-694462D01*
X1256944Y-685975D01*
X1471438Y-556310D01*
X1484667Y-549367D01*
X1570085Y-510923D01*
X1620975Y-500000D01*
X78379024Y-500000D01*
X78429912Y-510923D01*
G37*
G04 #@! TD.AperFunction*
M02*
