G04 #@! TF.GenerationSoftware,KiCad,Pcbnew,10.0.4*
G04 #@! TF.CreationDate,2026-09-02T13:27:16+01:00*
G04 #@! TF.ProjectId,pl60c_dmx,706c3630-635f-4646-9d78-2e6b69636164,rev?*
G04 #@! TF.SameCoordinates,Original*
G04 #@! TF.FileFunction,Copper,L2,Bot*
G04 #@! TF.FilePolarity,Positive*
%FSLAX46Y46*%
G04 Gerber Fmt 4.6, Leading zero omitted, Abs format (unit mm)*
G04 Created by KiCad (PCBNEW 10.0.4) date 2026-09-02 13:27:16*
%MOMM*%
%LPD*%
G01*
G04 APERTURE LIST*
G04 Aperture macros list*
%AMRoundRect*
0 Rectangle with rounded corners*
0 $1 Rounding radius*
0 $2 $3 $4 $5 $6 $7 $8 $9 X,Y pos of 4 corners*
0 Add a 4 corners polygon primitive as box body*
4,1,4,$2,$3,$4,$5,$6,$7,$8,$9,$2,$3,0*
0 Add four circle primitives for the rounded corners*
1,1,$1+$1,$2,$3*
1,1,$1+$1,$4,$5*
1,1,$1+$1,$6,$7*
1,1,$1+$1,$8,$9*
0 Add four rect primitives between the rounded corners*
20,1,$1+$1,$2,$3,$4,$5,0*
20,1,$1+$1,$4,$5,$6,$7,0*
20,1,$1+$1,$6,$7,$8,$9,0*
20,1,$1+$1,$8,$9,$2,$3,0*%
G04 Aperture macros list end*
G04 #@! TA.AperFunction,HeatsinkPad*
%ADD10C,0.600000*%
G04 #@! TD*
G04 #@! TA.AperFunction,ComponentPad*
%ADD11RoundRect,0.250000X-1.049999X-1.049999X1.049999X-1.049999X1.049999X1.049999X-1.049999X1.049999X0*%
G04 #@! TD*
G04 #@! TA.AperFunction,ComponentPad*
%ADD12C,2.599999*%
G04 #@! TD*
G04 #@! TA.AperFunction,ComponentPad*
%ADD13R,1.700000X1.700000*%
G04 #@! TD*
G04 #@! TA.AperFunction,ComponentPad*
%ADD14C,1.700000*%
G04 #@! TD*
G04 #@! TA.AperFunction,ComponentPad*
%ADD15O,2.100000X1.000000*%
G04 #@! TD*
G04 #@! TA.AperFunction,ComponentPad*
%ADD16O,1.600000X1.000000*%
G04 #@! TD*
G04 #@! TA.AperFunction,ComponentPad*
%ADD17C,3.400000*%
G04 #@! TD*
G04 #@! TA.AperFunction,ComponentPad*
%ADD18C,2.900000*%
G04 #@! TD*
G04 #@! TA.AperFunction,ViaPad*
%ADD19C,0.700000*%
G04 #@! TD*
G04 #@! TA.AperFunction,ViaPad*
%ADD20C,0.800000*%
G04 #@! TD*
G04 #@! TA.AperFunction,Conductor*
%ADD21C,0.250000*%
G04 #@! TD*
G04 #@! TA.AperFunction,Conductor*
%ADD22C,0.400000*%
G04 #@! TD*
G04 APERTURE END LIST*
D10*
X27100000Y-8510000D03*
X27100000Y-9910000D03*
X27800000Y-7810000D03*
X27800000Y-9210000D03*
X27800000Y-10610000D03*
X28500000Y-8510000D03*
X28500000Y-9910000D03*
X29200000Y-7810000D03*
X29200000Y-9210000D03*
X29200000Y-10610000D03*
X29900000Y-8510000D03*
X29900000Y-9910000D03*
D11*
X50500000Y-48500000D03*
D12*
X55580000Y-48500000D03*
X60660000Y-48500000D03*
D13*
X43000000Y-22000000D03*
D14*
X43000000Y-24540000D03*
X43000000Y-27080000D03*
X43000000Y-29620000D03*
X43000000Y-32160000D03*
X43000000Y-34700000D03*
D13*
X47500000Y-22000000D03*
D14*
X47500000Y-24540000D03*
X47500000Y-27080000D03*
X47500000Y-29620000D03*
D15*
X6230000Y-26680000D03*
D16*
X2050000Y-26680000D03*
D15*
X6230000Y-35320000D03*
D16*
X2050000Y-35320000D03*
D17*
X62850000Y-16500000D03*
D18*
X66665000Y-20310000D03*
X62850000Y-20310000D03*
X66665000Y-27290000D03*
D17*
X62850000Y-24120000D03*
D18*
X73020000Y-12060000D03*
D19*
X52927700Y-11863600D03*
D20*
X41517000Y-45111100D03*
X48898200Y-10634200D03*
X19841700Y-2508700D03*
D19*
X20000000Y-50000000D03*
X75000000Y-25000000D03*
X14000000Y-34025000D03*
X65000000Y-5000000D03*
X25000000Y-50000000D03*
X20000000Y-35000000D03*
X50000000Y-45000000D03*
X65000000Y-10000000D03*
X75000000Y-30000000D03*
X5000000Y-40000000D03*
X35000000Y-15000000D03*
X54062500Y-35000000D03*
X49975000Y-7000000D03*
X14200000Y-9500000D03*
X29750000Y-49850000D03*
X70000000Y-5000000D03*
X10000000Y-50000000D03*
X52200000Y-13905000D03*
X5000000Y-45000000D03*
X20000000Y-40000000D03*
X30000000Y-35000000D03*
X20000000Y-25000000D03*
X65000000Y-50000000D03*
X25000000Y-35000000D03*
X30000000Y-40000000D03*
X25000000Y-15000000D03*
X19700000Y-3500000D03*
X5000000Y-25000000D03*
X35000000Y-25000000D03*
X16500000Y-33550000D03*
X28250000Y-49850000D03*
X30000000Y-25000000D03*
X14000000Y-24025000D03*
X45000000Y-40000000D03*
X35000000Y-5000000D03*
X35000000Y-35000000D03*
X7100000Y-12700000D03*
X45000000Y-50000000D03*
X50000000Y-5000000D03*
X70000000Y-50000000D03*
X45975000Y-17000000D03*
X55000000Y-5000000D03*
X15000000Y-50000000D03*
X17250000Y-49850000D03*
X55000000Y-15000000D03*
X25000000Y-5000000D03*
X35000000Y-30000000D03*
X75000000Y-20000000D03*
X60000000Y-5000000D03*
X65000000Y-15000000D03*
X25000000Y-30000000D03*
X10000000Y-25000000D03*
X7750000Y-49850000D03*
X5000000Y-10000000D03*
X11200000Y-21000000D03*
X60000000Y-10000000D03*
X35000000Y-50000000D03*
X60000000Y-30000000D03*
X56425000Y-20000000D03*
X35000000Y-10000000D03*
X47450000Y-50150000D03*
X17200000Y-42500000D03*
X60000000Y-15000000D03*
X40975000Y-43500000D03*
X18750000Y-49850000D03*
X40000000Y-40000000D03*
X30000000Y-30000000D03*
X39250000Y-49850000D03*
X25000000Y-25000000D03*
X30000000Y-15000000D03*
X55000000Y-10000000D03*
X55000000Y-30000000D03*
X5000000Y-15000000D03*
X15975000Y-21000000D03*
X15000000Y-10000000D03*
X18000000Y-5025000D03*
X35715000Y-20535800D03*
X41894900Y-42719900D03*
X62032600Y-37806800D03*
D20*
X56939900Y-36089900D03*
D19*
X37978600Y-19343200D03*
X25873800Y-42500000D03*
X12545000Y-33450000D03*
X11654000Y-7054000D03*
X12545000Y-28550000D03*
X15569500Y-41092000D03*
X22531700Y-3847400D03*
X33580000Y-46150000D03*
X22532800Y-6570000D03*
X48909400Y-36234400D03*
X22532800Y-7840000D03*
X24231100Y-11650000D03*
X43176600Y-14599400D03*
X43936400Y-15089500D03*
X37463500Y-12920000D03*
X35797000Y-14190000D03*
X40063300Y-10603300D03*
X22532800Y-15460000D03*
X14503700Y-30898100D03*
X19967200Y-16730000D03*
X18290100Y-29862500D03*
X20193300Y-18920000D03*
X4744999Y-30250000D03*
X11344999Y-32350000D03*
X27062600Y-20544300D03*
X31289700Y-20539200D03*
X41307100Y-6827400D03*
X41042100Y-5557400D03*
X11566500Y-27571400D03*
X9432400Y-29705500D03*
X12952000Y-36561200D03*
X5174200Y-32844200D03*
D21*
X68454300Y-19597000D02*
X68454300Y-40705700D01*
X64608700Y-18551300D02*
X67408600Y-18551300D01*
X68454300Y-40705700D02*
X60660000Y-48500000D01*
X62850000Y-20310000D02*
X64608700Y-18551300D01*
X67408600Y-18551300D02*
X68454300Y-19597000D01*
X60696900Y-20707900D02*
X62031000Y-22041900D01*
X60696900Y-19632800D02*
X60696900Y-20707900D01*
X57130200Y-26942700D02*
X62031000Y-22041900D01*
X62079000Y-22090000D02*
X64885000Y-22090000D01*
X55580000Y-48500000D02*
X55580000Y-30773300D01*
X55580000Y-30773300D02*
X57130200Y-29223100D01*
X52927700Y-11863600D02*
X60696900Y-19632800D01*
X64885000Y-22090000D02*
X66665000Y-20310000D01*
X62031000Y-22041900D02*
X62079000Y-22090000D01*
X57130200Y-29223100D02*
X57130200Y-26942700D01*
D22*
X22018000Y-4685000D02*
X23375000Y-4685000D01*
X49724700Y-36903400D02*
X41517000Y-45111100D01*
X48898200Y-10634200D02*
X48898200Y-19320100D01*
X19841700Y-2508700D02*
X22018000Y-4685000D01*
X48898200Y-19320100D02*
X47500000Y-20718300D01*
X47500000Y-22000000D02*
X49724700Y-24224700D01*
X47500000Y-22000000D02*
X47500000Y-20718300D01*
X49724700Y-24224700D02*
X49724700Y-36903400D01*
X42463700Y-4199700D02*
X48898200Y-10634200D01*
X23860300Y-4199700D02*
X42463700Y-4199700D01*
X23375000Y-4685000D02*
X23860300Y-4199700D01*
X27800000Y-9210000D02*
X27100000Y-8510000D01*
X47500000Y-24540000D02*
X45975000Y-23015000D01*
X24605200Y-5394800D02*
X25000000Y-5000000D01*
X25000000Y-5000000D02*
X27100000Y-7100000D01*
X19850000Y-39850000D02*
X20000000Y-39700000D01*
X15000000Y-9500000D02*
X14200000Y-9500000D01*
X19700000Y-3500000D02*
X21594800Y-5394800D01*
X20000000Y-39700000D02*
X20000000Y-35000000D01*
X29900000Y-8510000D02*
X29200000Y-7810000D01*
X7100000Y-12900000D02*
X7100000Y-12700000D01*
X21594800Y-5394800D02*
X24605200Y-5394800D01*
X43125000Y-48125000D02*
X40975000Y-48125000D01*
X49975000Y-11680000D02*
X49975000Y-7000000D01*
X45000000Y-50000000D02*
X43125000Y-48125000D01*
X27100000Y-7810000D02*
X27100000Y-8510000D01*
X4748300Y-25251700D02*
X4748300Y-26680000D01*
X40000000Y-42525000D02*
X40975000Y-43500000D01*
X5000000Y-40000000D02*
X5000000Y-45000000D01*
X3281700Y-26680000D02*
X3281700Y-35320000D01*
X55000000Y-21425000D02*
X56425000Y-20000000D01*
X56425000Y-20000000D02*
X56425000Y-16425000D01*
X52200000Y-13905000D02*
X49975000Y-11680000D01*
X29200000Y-10610000D02*
X29900000Y-9910000D01*
X56425000Y-16425000D02*
X55000000Y-15000000D01*
X17200000Y-42500000D02*
X19850000Y-39850000D01*
X2050000Y-26680000D02*
X3281700Y-26680000D01*
X55000000Y-15000000D02*
X53295000Y-15000000D01*
X49975000Y-5025000D02*
X49975000Y-7000000D01*
X29900000Y-9910000D02*
X29200000Y-9210000D01*
X27800000Y-10610000D02*
X28500000Y-9910000D01*
X16500000Y-33550000D02*
X14475000Y-33550000D01*
X55000000Y-30000000D02*
X55000000Y-21425000D01*
X27100000Y-7100000D02*
X27100000Y-7810000D01*
X15000000Y-8025000D02*
X15000000Y-9500000D01*
X25000000Y-25000000D02*
X25000000Y-30000000D01*
X18000000Y-5025000D02*
X15000000Y-8025000D01*
X40975000Y-43500000D02*
X40685300Y-43789700D01*
X40000000Y-40000000D02*
X40000000Y-42525000D01*
X5000000Y-25000000D02*
X4748300Y-25251700D01*
X30000000Y-15000000D02*
X29200000Y-14200000D01*
X55000000Y-34062500D02*
X55000000Y-30000000D01*
X2050000Y-35320000D02*
X3281700Y-35320000D01*
X25000000Y-30000000D02*
X25000000Y-35000000D01*
X45975000Y-23015000D02*
X45975000Y-17000000D01*
X53295000Y-15000000D02*
X52200000Y-13905000D01*
X29200000Y-7810000D02*
X28500000Y-8510000D01*
X29200000Y-9210000D02*
X29900000Y-8510000D01*
X20000000Y-40000000D02*
X19850000Y-39850000D01*
X40975000Y-48125000D02*
X39250000Y-49850000D01*
X40685300Y-43789700D02*
X40685300Y-47835300D01*
X27800000Y-7810000D02*
X27100000Y-7810000D01*
X35000000Y-15000000D02*
X35000000Y-10000000D01*
X29200000Y-14200000D02*
X29200000Y-10610000D01*
X5000000Y-15000000D02*
X5000000Y-25000000D01*
X5000000Y-15000000D02*
X7100000Y-12900000D01*
X14000000Y-22975000D02*
X14000000Y-24025000D01*
X15000000Y-9500000D02*
X15000000Y-10000000D01*
X27800000Y-10610000D02*
X27100000Y-9910000D01*
X6230000Y-26680000D02*
X4748300Y-26680000D01*
X54062500Y-35000000D02*
X55000000Y-34062500D01*
X14475000Y-33550000D02*
X14000000Y-34025000D01*
X10000000Y-25000000D02*
X11200000Y-23800000D01*
X17250000Y-49850000D02*
X17200000Y-49800000D01*
X40685300Y-47835300D02*
X40975000Y-48125000D01*
X50000000Y-5000000D02*
X49975000Y-5025000D01*
X28500000Y-9910000D02*
X27800000Y-9210000D01*
X15975000Y-21000000D02*
X14000000Y-22975000D01*
X11200000Y-23800000D02*
X11200000Y-21000000D01*
X17200000Y-49800000D02*
X17200000Y-42500000D01*
X35000000Y-5000000D02*
X35000000Y-10000000D01*
D21*
X35715000Y-20535800D02*
X35715000Y-21452500D01*
X35715000Y-21452500D02*
X42612500Y-28350000D01*
X44180900Y-29147000D02*
X44180900Y-40433900D01*
X44180900Y-40433900D02*
X41894900Y-42719900D01*
X43383900Y-28350000D02*
X44180900Y-29147000D01*
X42612500Y-28350000D02*
X43383900Y-28350000D01*
D22*
X62032600Y-37806800D02*
X58656800Y-37806800D01*
X58656800Y-37806800D02*
X56939900Y-36089900D01*
D21*
X25873800Y-42500000D02*
X25873800Y-21617500D01*
X25981700Y-19343200D02*
X37978600Y-19343200D01*
X25121200Y-20203700D02*
X25981700Y-19343200D01*
X25121200Y-20864900D02*
X25121200Y-20203700D01*
X25873800Y-21617500D02*
X25121200Y-20864900D01*
X12545000Y-7945000D02*
X11654000Y-7054000D01*
D22*
X12545000Y-28550000D02*
X12545000Y-33450000D01*
D21*
X12545000Y-28550000D02*
X12545000Y-7945000D01*
X20887900Y-12025100D02*
X20887900Y-32823300D01*
X20887900Y-32823300D02*
X15569500Y-38141700D01*
X15569500Y-38141700D02*
X15569500Y-41092000D01*
X22531700Y-3847400D02*
X20429400Y-1745100D01*
X20429400Y-1745100D02*
X19523900Y-1745100D01*
X18962100Y-2306900D02*
X18962100Y-10099300D01*
X18962100Y-10099300D02*
X20887900Y-12025100D01*
X19523900Y-1745100D02*
X18962100Y-2306900D01*
X28572500Y-46150000D02*
X21849200Y-39426700D01*
X21849200Y-7253600D02*
X22532800Y-6570000D01*
X21849200Y-39426700D02*
X21849200Y-7253600D01*
X33580000Y-46150000D02*
X28572500Y-46150000D01*
X22532800Y-10880600D02*
X22532800Y-7840000D01*
X45753300Y-29506900D02*
X44180700Y-27934300D01*
X45753300Y-33078300D02*
X45753300Y-29506900D01*
X44180700Y-27934300D02*
X44180700Y-26562500D01*
X43463500Y-25845300D02*
X42550400Y-25845300D01*
X41665200Y-24960100D02*
X41665200Y-21434600D01*
X42550400Y-25845300D02*
X41665200Y-24960100D01*
X44180700Y-26562500D02*
X43463500Y-25845300D01*
X28680200Y-17028000D02*
X22532800Y-10880600D01*
X37258600Y-17028000D02*
X28680200Y-17028000D01*
X41665200Y-21434600D02*
X37258600Y-17028000D01*
X48909400Y-36234400D02*
X45753300Y-33078300D01*
X42001600Y-15774400D02*
X43176600Y-14599400D01*
X28355500Y-15774400D02*
X42001600Y-15774400D01*
X24231100Y-11650000D02*
X28355500Y-15774400D01*
X37463500Y-12920000D02*
X42432500Y-12920000D01*
X42432500Y-12920000D02*
X43936400Y-14423900D01*
X43936400Y-14423900D02*
X43936400Y-15089500D01*
X38835800Y-10603300D02*
X35797000Y-13642100D01*
X40063300Y-10603300D02*
X38835800Y-10603300D01*
X35797000Y-13642100D02*
X35797000Y-14190000D01*
X39486100Y-23566100D02*
X43000000Y-27080000D01*
X37829100Y-18263600D02*
X39486100Y-19920600D01*
X39486100Y-19920600D02*
X39486100Y-23566100D01*
X25336400Y-18263600D02*
X37829100Y-18263600D01*
X22532800Y-15460000D02*
X25336400Y-18263600D01*
X18290100Y-29862500D02*
X18290100Y-18407100D01*
X18290100Y-29862500D02*
X15539300Y-29862500D01*
X18290100Y-18407100D02*
X19967200Y-16730000D01*
X15539300Y-29862500D02*
X14503700Y-30898100D01*
X19064600Y-20048700D02*
X19064600Y-30064200D01*
X20193300Y-18920000D02*
X19064600Y-20048700D01*
X19064600Y-30064200D02*
X17935100Y-31193700D01*
X12258800Y-34124700D02*
X11345000Y-33210900D01*
X15730000Y-31193700D02*
X12799000Y-34124700D01*
X4744999Y-30250000D02*
X11344999Y-32350000D01*
X12799000Y-34124700D02*
X12258800Y-34124700D01*
X11345000Y-33210900D02*
X11345000Y-32350000D01*
X17935100Y-31193700D02*
X15730000Y-31193700D01*
X31549700Y-19852400D02*
X43000000Y-31302700D01*
X43000000Y-31302700D02*
X43000000Y-32160000D01*
X27754500Y-19852400D02*
X31549700Y-19852400D01*
X27062600Y-20544300D02*
X27754500Y-19852400D01*
X31554000Y-20539200D02*
X31289700Y-20539200D01*
X38422400Y-27407600D02*
X31554000Y-20539200D01*
X43000000Y-34700000D02*
X38422400Y-30122400D01*
X38422400Y-30122400D02*
X38422400Y-27407600D01*
X44616800Y-26736900D02*
X44616900Y-26736900D01*
X44616900Y-26736900D02*
X47500000Y-29620000D01*
X41307100Y-6827400D02*
X44616800Y-10137100D01*
X44616800Y-10137100D02*
X44616800Y-26736900D01*
X41042100Y-5557400D02*
X45215500Y-9730800D01*
X45215600Y-24795600D02*
X47500000Y-27080000D01*
X45215500Y-9730800D02*
X45215500Y-24795600D01*
X45215500Y-24795600D02*
X45215600Y-24795600D01*
X11566500Y-27571400D02*
X9432400Y-29705500D01*
X12952000Y-36561200D02*
X9235000Y-32844200D01*
X9235000Y-32844200D02*
X5174200Y-32844200D01*
G04 #@! TA.AperFunction,Conductor*
G36*
X22416253Y-16100061D02*
G01*
X22468731Y-16110500D01*
X22535599Y-16110500D01*
X22540995Y-16110972D01*
X22568693Y-16121806D01*
X22597229Y-16130185D01*
X22600875Y-16134393D01*
X22606064Y-16136423D01*
X22617871Y-16146819D01*
X25075137Y-18604085D01*
X25172163Y-18660103D01*
X25280381Y-18689100D01*
X25280382Y-18689100D01*
X25836956Y-18689100D01*
X25903995Y-18708785D01*
X25949750Y-18761589D01*
X25959694Y-18830747D01*
X25930669Y-18894303D01*
X25871891Y-18932077D01*
X25869075Y-18932867D01*
X25817463Y-18946697D01*
X25817460Y-18946698D01*
X25720440Y-19002713D01*
X25720434Y-19002717D01*
X24780717Y-19942434D01*
X24780713Y-19942440D01*
X24724698Y-20039460D01*
X24724697Y-20039463D01*
X24695700Y-20147682D01*
X24695700Y-20808882D01*
X24695700Y-20920918D01*
X24724697Y-21029136D01*
X24724698Y-21029139D01*
X24733551Y-21044473D01*
X24780715Y-21126163D01*
X24780717Y-21126165D01*
X25411981Y-21757429D01*
X25445466Y-21818752D01*
X25448300Y-21845110D01*
X25448300Y-41954192D01*
X25428615Y-42021231D01*
X25411981Y-42041873D01*
X25368526Y-42085327D01*
X25368523Y-42085331D01*
X25348748Y-42114927D01*
X25295135Y-42159732D01*
X25225810Y-42168439D01*
X25162783Y-42138284D01*
X25157965Y-42133717D01*
X22311019Y-39286771D01*
X22277534Y-39225448D01*
X22274700Y-39199090D01*
X22274700Y-16222999D01*
X22278768Y-16209142D01*
X22277967Y-16194724D01*
X22288415Y-16176289D01*
X22294385Y-16155960D01*
X22305297Y-16146503D01*
X22312419Y-16133940D01*
X22331176Y-16124079D01*
X22347189Y-16110205D01*
X22361481Y-16108149D01*
X22374265Y-16101430D01*
X22409505Y-16099471D01*
X22416253Y-16100061D01*
G37*
G04 #@! TD.AperFunction*
G04 #@! TA.AperFunction,Conductor*
G36*
X48906668Y-24119039D02*
G01*
X48928806Y-24136620D01*
X49187881Y-24395695D01*
X49221366Y-24457018D01*
X49224200Y-24483376D01*
X49224200Y-35482679D01*
X49219560Y-35498480D01*
X49219928Y-35514947D01*
X49209919Y-35531313D01*
X49204515Y-35549718D01*
X49192069Y-35560502D01*
X49183476Y-35574554D01*
X49166207Y-35582911D01*
X49151711Y-35595473D01*
X49134844Y-35598090D01*
X49120585Y-35604992D01*
X49093137Y-35604563D01*
X49085299Y-35605780D01*
X49080612Y-35605212D01*
X48973469Y-35583900D01*
X48904536Y-35583900D01*
X48897109Y-35583001D01*
X48871604Y-35572035D01*
X48844971Y-35564215D01*
X48835313Y-35556432D01*
X48832921Y-35555404D01*
X48831591Y-35553433D01*
X48824329Y-35547581D01*
X46215119Y-32938371D01*
X46181634Y-32877048D01*
X46178800Y-32850690D01*
X46178800Y-30059768D01*
X46198485Y-29992729D01*
X46251289Y-29946974D01*
X46320447Y-29937030D01*
X46384003Y-29966055D01*
X46420731Y-30021451D01*
X46433786Y-30061633D01*
X46433788Y-30061639D01*
X46516006Y-30222997D01*
X46622441Y-30369494D01*
X46622445Y-30369499D01*
X46750500Y-30497554D01*
X46750505Y-30497558D01*
X46868782Y-30583490D01*
X46897006Y-30603996D01*
X47002484Y-30657740D01*
X47058360Y-30686211D01*
X47058363Y-30686212D01*
X47126514Y-30708355D01*
X47230591Y-30742171D01*
X47306956Y-30754266D01*
X47409449Y-30770500D01*
X47409454Y-30770500D01*
X47590551Y-30770500D01*
X47682569Y-30755925D01*
X47769409Y-30742171D01*
X47935424Y-30688230D01*
X47941636Y-30686212D01*
X47941639Y-30686211D01*
X47983917Y-30664669D01*
X48102994Y-30603996D01*
X48249501Y-30497553D01*
X48377553Y-30369501D01*
X48483996Y-30222994D01*
X48566211Y-30061639D01*
X48622171Y-29889409D01*
X48636765Y-29797259D01*
X48650500Y-29710551D01*
X48650500Y-29529448D01*
X48631255Y-29407945D01*
X48622171Y-29350591D01*
X48584095Y-29233402D01*
X48566212Y-29178363D01*
X48566211Y-29178360D01*
X48517709Y-29083171D01*
X48483996Y-29017006D01*
X48429787Y-28942393D01*
X48377558Y-28870505D01*
X48377554Y-28870500D01*
X48249499Y-28742445D01*
X48249494Y-28742441D01*
X48102997Y-28636006D01*
X48102996Y-28636005D01*
X48102994Y-28636004D01*
X48045570Y-28606745D01*
X47941639Y-28553788D01*
X47941636Y-28553787D01*
X47769410Y-28497829D01*
X47609321Y-28472473D01*
X47546186Y-28442544D01*
X47509255Y-28383232D01*
X47510253Y-28313370D01*
X47548863Y-28255137D01*
X47609321Y-28227527D01*
X47679425Y-28216422D01*
X47769409Y-28202171D01*
X47941639Y-28146211D01*
X48102994Y-28063996D01*
X48249501Y-27957553D01*
X48377553Y-27829501D01*
X48483996Y-27682994D01*
X48566211Y-27521639D01*
X48622171Y-27349409D01*
X48641376Y-27228155D01*
X48650500Y-27170551D01*
X48650500Y-26989448D01*
X48633164Y-26880000D01*
X48622171Y-26810591D01*
X48568352Y-26644950D01*
X48566212Y-26638363D01*
X48566211Y-26638360D01*
X48526565Y-26560552D01*
X48483996Y-26477006D01*
X48440753Y-26417487D01*
X48377558Y-26330505D01*
X48377554Y-26330500D01*
X48249499Y-26202445D01*
X48249494Y-26202441D01*
X48102997Y-26096006D01*
X48102996Y-26096005D01*
X48102994Y-26096004D01*
X48051300Y-26069664D01*
X47941639Y-26013788D01*
X47941636Y-26013787D01*
X47838387Y-25980240D01*
X47780711Y-25940803D01*
X47753513Y-25876444D01*
X47765428Y-25807598D01*
X47812672Y-25756122D01*
X47838387Y-25744378D01*
X47979835Y-25698418D01*
X48155143Y-25609095D01*
X48231079Y-25553922D01*
X48231080Y-25553922D01*
X47685177Y-25008019D01*
X47692993Y-25005925D01*
X47807007Y-24940099D01*
X47900099Y-24847007D01*
X47965925Y-24732993D01*
X47968019Y-24725177D01*
X48513922Y-25271080D01*
X48513922Y-25271079D01*
X48569095Y-25195143D01*
X48658418Y-25019835D01*
X48719221Y-24832705D01*
X48750000Y-24638382D01*
X48750000Y-24441617D01*
X48718652Y-24243699D01*
X48727606Y-24174406D01*
X48772602Y-24120954D01*
X48839354Y-24100314D01*
X48906668Y-24119039D01*
G37*
G04 #@! TD.AperFunction*
G04 #@! TA.AperFunction,Conductor*
G36*
X44013921Y-25271079D02*
G01*
X44057570Y-25267644D01*
X44125948Y-25282008D01*
X44175705Y-25331059D01*
X44191300Y-25391262D01*
X44191300Y-25671990D01*
X44171615Y-25739029D01*
X44118811Y-25784784D01*
X44049653Y-25794728D01*
X43986097Y-25765703D01*
X43979619Y-25759671D01*
X43724765Y-25504817D01*
X43724763Y-25504815D01*
X43637655Y-25454523D01*
X43611974Y-25434817D01*
X43185176Y-25008019D01*
X43192993Y-25005925D01*
X43307007Y-24940099D01*
X43400099Y-24847007D01*
X43465925Y-24732993D01*
X43468019Y-24725177D01*
X44013921Y-25271079D01*
G37*
G04 #@! TD.AperFunction*
G04 #@! TA.AperFunction,Conductor*
G36*
X42272063Y-4719885D02*
G01*
X42292705Y-4736519D01*
X48161381Y-10605195D01*
X48194866Y-10666518D01*
X48197700Y-10692876D01*
X48197700Y-10703193D01*
X48197700Y-10703195D01*
X48197699Y-10703195D01*
X48224618Y-10838522D01*
X48224621Y-10838532D01*
X48277421Y-10966004D01*
X48277428Y-10966017D01*
X48354085Y-11080741D01*
X48361377Y-11088033D01*
X48394865Y-11149355D01*
X48397700Y-11175718D01*
X48397700Y-19061424D01*
X48378015Y-19128463D01*
X48361381Y-19149105D01*
X47099502Y-20410983D01*
X47099500Y-20410986D01*
X47033608Y-20525112D01*
X46999500Y-20652408D01*
X46999500Y-20725500D01*
X46979815Y-20792539D01*
X46927011Y-20838294D01*
X46875500Y-20849500D01*
X46605143Y-20849500D01*
X46605117Y-20849502D01*
X46580012Y-20852413D01*
X46580008Y-20852415D01*
X46477235Y-20897793D01*
X46397794Y-20977234D01*
X46352415Y-21080006D01*
X46352415Y-21080008D01*
X46349500Y-21105131D01*
X46349500Y-22894856D01*
X46349502Y-22894882D01*
X46352413Y-22919987D01*
X46352415Y-22919991D01*
X46397793Y-23022764D01*
X46397794Y-23022765D01*
X46477235Y-23102206D01*
X46580009Y-23147585D01*
X46605135Y-23150500D01*
X46957191Y-23150499D01*
X47024228Y-23170183D01*
X47069983Y-23222987D01*
X47079927Y-23292146D01*
X47050902Y-23355701D01*
X47013484Y-23384984D01*
X46844855Y-23470905D01*
X46844846Y-23470911D01*
X46768919Y-23526075D01*
X46768918Y-23526076D01*
X47314822Y-24071980D01*
X47307007Y-24074075D01*
X47192993Y-24139901D01*
X47099901Y-24232993D01*
X47034075Y-24347007D01*
X47031980Y-24354822D01*
X46486076Y-23808918D01*
X46486075Y-23808919D01*
X46430911Y-23884846D01*
X46430905Y-23884855D01*
X46341581Y-24060164D01*
X46280778Y-24247294D01*
X46250000Y-24441617D01*
X46250000Y-24638382D01*
X46280778Y-24832705D01*
X46326365Y-24973006D01*
X46328360Y-25042847D01*
X46292280Y-25102680D01*
X46229579Y-25133508D01*
X46160165Y-25125543D01*
X46120753Y-25099005D01*
X45677319Y-24655571D01*
X45643834Y-24594248D01*
X45641000Y-24567890D01*
X45641000Y-9674784D01*
X45641000Y-9674782D01*
X45612003Y-9566563D01*
X45555985Y-9469537D01*
X45476763Y-9390315D01*
X41728919Y-5642471D01*
X41695434Y-5581148D01*
X41692600Y-5554790D01*
X41692600Y-5493328D01*
X41667602Y-5367661D01*
X41667601Y-5367660D01*
X41667601Y-5367656D01*
X41618565Y-5249273D01*
X41618564Y-5249272D01*
X41618561Y-5249266D01*
X41547376Y-5142731D01*
X41547373Y-5142727D01*
X41456772Y-5052126D01*
X41456768Y-5052123D01*
X41350233Y-4980938D01*
X41350224Y-4980933D01*
X41248410Y-4938761D01*
X41194007Y-4894920D01*
X41171942Y-4828626D01*
X41189221Y-4760927D01*
X41240358Y-4713316D01*
X41295863Y-4700200D01*
X42205024Y-4700200D01*
X42272063Y-4719885D01*
G37*
G04 #@! TD.AperFunction*
G04 #@! TA.AperFunction,Conductor*
G36*
X44149677Y-23125409D02*
G01*
X44186708Y-23184658D01*
X44191300Y-23218091D01*
X44191300Y-23688736D01*
X44171615Y-23755775D01*
X44118811Y-23801530D01*
X44057571Y-23812354D01*
X44013922Y-23808918D01*
X43468018Y-24354821D01*
X43465925Y-24347007D01*
X43400099Y-24232993D01*
X43307007Y-24139901D01*
X43192993Y-24074075D01*
X43185175Y-24071980D01*
X43731080Y-23526076D01*
X43655143Y-23470904D01*
X43486514Y-23384984D01*
X43435718Y-23337010D01*
X43418923Y-23269189D01*
X43441460Y-23203054D01*
X43496175Y-23159602D01*
X43542807Y-23150499D01*
X43894864Y-23150499D01*
X43894879Y-23150497D01*
X43894882Y-23150497D01*
X43919987Y-23147586D01*
X43919988Y-23147585D01*
X43919991Y-23147585D01*
X44017214Y-23104657D01*
X44086492Y-23095585D01*
X44149677Y-23125409D01*
G37*
G04 #@! TD.AperFunction*
G04 #@! TA.AperFunction,Conductor*
G36*
X22479903Y-11429896D02*
G01*
X22486380Y-11435927D01*
X28339715Y-17289263D01*
X28418937Y-17368485D01*
X28439748Y-17380500D01*
X28450496Y-17386705D01*
X28450497Y-17386706D01*
X28515957Y-17424500D01*
X28515958Y-17424501D01*
X28515960Y-17424501D01*
X28515963Y-17424503D01*
X28624181Y-17453500D01*
X28624182Y-17453500D01*
X37030990Y-17453500D01*
X37060430Y-17462144D01*
X37090417Y-17468668D01*
X37095432Y-17472422D01*
X37098029Y-17473185D01*
X37118671Y-17489819D01*
X37255271Y-17626419D01*
X37288756Y-17687742D01*
X37283772Y-17757434D01*
X37241900Y-17813367D01*
X37176436Y-17837784D01*
X37167590Y-17838100D01*
X25564010Y-17838100D01*
X25496971Y-17818415D01*
X25476329Y-17801781D01*
X23219619Y-15545071D01*
X23186134Y-15483748D01*
X23183300Y-15457390D01*
X23183300Y-15395928D01*
X23158302Y-15270261D01*
X23158301Y-15270260D01*
X23158301Y-15270256D01*
X23120374Y-15178692D01*
X23109266Y-15151875D01*
X23109261Y-15151866D01*
X23038076Y-15045331D01*
X23038073Y-15045327D01*
X22947472Y-14954726D01*
X22947468Y-14954723D01*
X22840933Y-14883538D01*
X22840924Y-14883533D01*
X22722544Y-14834499D01*
X22722538Y-14834497D01*
X22596871Y-14809500D01*
X22596869Y-14809500D01*
X22468731Y-14809500D01*
X22422890Y-14818618D01*
X22353299Y-14812389D01*
X22298122Y-14769526D01*
X22274878Y-14703636D01*
X22274700Y-14697000D01*
X22274700Y-11523609D01*
X22294385Y-11456570D01*
X22347189Y-11410815D01*
X22416347Y-11400871D01*
X22479903Y-11429896D01*
G37*
G04 #@! TD.AperFunction*
G04 #@! TA.AperFunction,Conductor*
G36*
X19527820Y-3141867D02*
G01*
X19529247Y-3141662D01*
X19559050Y-3149838D01*
X19637372Y-3182280D01*
X19637376Y-3182280D01*
X19637377Y-3182281D01*
X19772704Y-3209200D01*
X19772707Y-3209200D01*
X19783024Y-3209200D01*
X19850063Y-3228885D01*
X19870705Y-3245519D01*
X21710686Y-5085500D01*
X21824814Y-5151392D01*
X21952108Y-5185500D01*
X21952110Y-5185500D01*
X23440890Y-5185500D01*
X23440892Y-5185500D01*
X23568186Y-5151392D01*
X23682314Y-5085500D01*
X24031295Y-4736519D01*
X24092618Y-4703034D01*
X24118976Y-4700200D01*
X40788337Y-4700200D01*
X40855376Y-4719885D01*
X40901131Y-4772689D01*
X40911075Y-4841847D01*
X40882050Y-4905403D01*
X40835790Y-4938761D01*
X40733975Y-4980933D01*
X40733966Y-4980938D01*
X40627431Y-5052123D01*
X40627427Y-5052126D01*
X40536826Y-5142727D01*
X40536823Y-5142731D01*
X40465638Y-5249266D01*
X40465633Y-5249275D01*
X40416599Y-5367655D01*
X40416597Y-5367661D01*
X40391600Y-5493328D01*
X40391600Y-5493331D01*
X40391600Y-5621469D01*
X40391600Y-5621471D01*
X40391599Y-5621471D01*
X40416597Y-5747138D01*
X40416599Y-5747144D01*
X40465633Y-5865524D01*
X40465638Y-5865533D01*
X40536823Y-5972068D01*
X40536826Y-5972072D01*
X40627427Y-6062673D01*
X40627431Y-6062676D01*
X40733966Y-6133861D01*
X40733973Y-6133865D01*
X40807687Y-6164398D01*
X40862088Y-6208237D01*
X40884154Y-6274531D01*
X40866876Y-6342230D01*
X40847915Y-6366638D01*
X40801827Y-6412726D01*
X40801823Y-6412731D01*
X40730638Y-6519266D01*
X40730633Y-6519275D01*
X40681599Y-6637655D01*
X40681597Y-6637661D01*
X40656600Y-6763328D01*
X40656600Y-6763331D01*
X40656600Y-6891469D01*
X40656600Y-6891471D01*
X40656599Y-6891471D01*
X40681597Y-7017138D01*
X40681599Y-7017144D01*
X40730633Y-7135524D01*
X40730638Y-7135533D01*
X40801823Y-7242068D01*
X40801826Y-7242072D01*
X40892427Y-7332673D01*
X40892431Y-7332676D01*
X40998966Y-7403861D01*
X40998972Y-7403864D01*
X40998973Y-7403865D01*
X41117356Y-7452901D01*
X41117360Y-7452901D01*
X41117361Y-7452902D01*
X41243028Y-7477900D01*
X41243031Y-7477900D01*
X41304490Y-7477900D01*
X41371529Y-7497585D01*
X41392171Y-7514219D01*
X44154981Y-10277029D01*
X44188466Y-10338352D01*
X44191300Y-10364710D01*
X44191300Y-13777690D01*
X44171615Y-13844729D01*
X44118811Y-13890484D01*
X44049653Y-13900428D01*
X43986097Y-13871403D01*
X43979619Y-13865371D01*
X42693765Y-12579517D01*
X42693763Y-12579515D01*
X42596737Y-12523497D01*
X42488518Y-12494500D01*
X42488517Y-12494500D01*
X38009307Y-12494500D01*
X37983994Y-12487067D01*
X37957875Y-12483331D01*
X37948046Y-12476511D01*
X37942268Y-12474815D01*
X37928170Y-12464270D01*
X37924792Y-12461347D01*
X37878169Y-12414724D01*
X37846296Y-12393427D01*
X37840462Y-12388379D01*
X37825560Y-12365227D01*
X37807903Y-12344099D01*
X37806919Y-12336265D01*
X37802647Y-12329628D01*
X37802627Y-12302093D01*
X37799196Y-12274774D01*
X37802602Y-12267653D01*
X37802597Y-12259758D01*
X37817469Y-12236580D01*
X37829351Y-12211746D01*
X37833898Y-12206948D01*
X38975729Y-11065119D01*
X39037052Y-11031634D01*
X39063410Y-11028800D01*
X39517493Y-11028800D01*
X39584532Y-11048485D01*
X39605175Y-11065120D01*
X39648627Y-11108573D01*
X39648631Y-11108576D01*
X39755166Y-11179761D01*
X39755172Y-11179764D01*
X39755173Y-11179765D01*
X39873556Y-11228801D01*
X39873560Y-11228801D01*
X39873561Y-11228802D01*
X39999228Y-11253800D01*
X39999231Y-11253800D01*
X40127371Y-11253800D01*
X40220236Y-11235327D01*
X40253044Y-11228801D01*
X40371427Y-11179765D01*
X40477969Y-11108576D01*
X40568576Y-11017969D01*
X40639765Y-10911427D01*
X40688801Y-10793044D01*
X40699219Y-10740671D01*
X40713800Y-10667371D01*
X40713800Y-10539228D01*
X40688802Y-10413561D01*
X40688801Y-10413560D01*
X40688801Y-10413556D01*
X40647293Y-10313348D01*
X40639766Y-10295175D01*
X40639761Y-10295166D01*
X40568576Y-10188631D01*
X40568573Y-10188627D01*
X40477972Y-10098026D01*
X40477968Y-10098023D01*
X40371433Y-10026838D01*
X40371424Y-10026833D01*
X40253044Y-9977799D01*
X40253038Y-9977797D01*
X40127371Y-9952800D01*
X40127369Y-9952800D01*
X39999231Y-9952800D01*
X39999229Y-9952800D01*
X39873561Y-9977797D01*
X39873555Y-9977799D01*
X39755175Y-10026833D01*
X39755166Y-10026838D01*
X39648631Y-10098023D01*
X39648627Y-10098026D01*
X39605175Y-10141480D01*
X39543852Y-10174966D01*
X39517493Y-10177800D01*
X38891818Y-10177800D01*
X38779781Y-10177800D01*
X38671563Y-10206797D01*
X38671561Y-10206798D01*
X38671560Y-10206798D01*
X38574540Y-10262813D01*
X38574534Y-10262817D01*
X35456517Y-13380834D01*
X35456513Y-13380840D01*
X35400498Y-13477860D01*
X35400497Y-13477863D01*
X35371500Y-13586082D01*
X35371500Y-13644192D01*
X35351815Y-13711231D01*
X35335181Y-13731873D01*
X35291726Y-13775327D01*
X35291723Y-13775331D01*
X35220538Y-13881866D01*
X35220533Y-13881875D01*
X35171499Y-14000255D01*
X35171497Y-14000261D01*
X35146500Y-14125928D01*
X35146500Y-14125931D01*
X35146500Y-14254069D01*
X35146500Y-14254071D01*
X35146499Y-14254071D01*
X35171497Y-14379738D01*
X35171499Y-14379744D01*
X35220533Y-14498124D01*
X35220538Y-14498133D01*
X35291723Y-14604668D01*
X35291726Y-14604672D01*
X35382327Y-14695273D01*
X35382331Y-14695276D01*
X35488866Y-14766461D01*
X35488872Y-14766464D01*
X35488873Y-14766465D01*
X35607256Y-14815501D01*
X35607260Y-14815501D01*
X35607261Y-14815502D01*
X35732928Y-14840500D01*
X35732931Y-14840500D01*
X35861071Y-14840500D01*
X35971074Y-14818618D01*
X35986744Y-14815501D01*
X36105127Y-14766465D01*
X36211669Y-14695276D01*
X36302276Y-14604669D01*
X36373465Y-14498127D01*
X36422501Y-14379744D01*
X36440099Y-14291275D01*
X36447500Y-14254071D01*
X36447500Y-14125928D01*
X36422502Y-14000261D01*
X36422501Y-14000260D01*
X36422501Y-14000256D01*
X36373465Y-13881873D01*
X36373464Y-13881872D01*
X36373461Y-13881866D01*
X36344089Y-13837908D01*
X36323211Y-13771231D01*
X36341695Y-13703850D01*
X36359506Y-13681340D01*
X36750430Y-13290416D01*
X36811751Y-13256933D01*
X36881443Y-13261917D01*
X36937376Y-13303789D01*
X36941211Y-13309208D01*
X36958223Y-13334668D01*
X36958226Y-13334672D01*
X37048827Y-13425273D01*
X37048831Y-13425276D01*
X37155366Y-13496461D01*
X37155372Y-13496464D01*
X37155373Y-13496465D01*
X37273756Y-13545501D01*
X37273760Y-13545501D01*
X37273761Y-13545502D01*
X37399428Y-13570500D01*
X37399431Y-13570500D01*
X37527571Y-13570500D01*
X37612115Y-13553682D01*
X37653244Y-13545501D01*
X37771627Y-13496465D01*
X37878169Y-13425276D01*
X37921625Y-13381820D01*
X37982948Y-13348334D01*
X38009307Y-13345500D01*
X42204890Y-13345500D01*
X42271929Y-13365185D01*
X42292571Y-13381819D01*
X42800725Y-13889973D01*
X42834210Y-13951296D01*
X42829226Y-14020988D01*
X42787354Y-14076921D01*
X42781939Y-14080754D01*
X42761928Y-14094125D01*
X42671326Y-14184727D01*
X42671323Y-14184731D01*
X42600138Y-14291266D01*
X42600133Y-14291275D01*
X42551099Y-14409655D01*
X42551097Y-14409661D01*
X42526100Y-14535328D01*
X42526100Y-14596790D01*
X42506415Y-14663829D01*
X42489781Y-14684471D01*
X41861671Y-15312581D01*
X41800348Y-15346066D01*
X41773990Y-15348900D01*
X28583110Y-15348900D01*
X28516071Y-15329215D01*
X28495429Y-15312581D01*
X24917919Y-11735071D01*
X24884434Y-11673748D01*
X24881600Y-11647390D01*
X24881600Y-11585928D01*
X24856602Y-11460261D01*
X24856601Y-11460260D01*
X24856601Y-11460256D01*
X24807565Y-11341873D01*
X24807564Y-11341872D01*
X24807561Y-11341866D01*
X24736376Y-11235331D01*
X24736373Y-11235327D01*
X24645772Y-11144726D01*
X24645768Y-11144723D01*
X24539233Y-11073538D01*
X24539224Y-11073533D01*
X24420844Y-11024499D01*
X24420838Y-11024497D01*
X24295171Y-10999500D01*
X24295169Y-10999500D01*
X24167031Y-10999500D01*
X24167029Y-10999500D01*
X24041361Y-11024497D01*
X24041355Y-11024499D01*
X23922975Y-11073533D01*
X23922966Y-11073538D01*
X23816431Y-11144723D01*
X23816427Y-11144726D01*
X23725824Y-11235329D01*
X23715019Y-11251501D01*
X23661406Y-11296305D01*
X23592081Y-11305011D01*
X23529054Y-11274855D01*
X23524237Y-11270289D01*
X22994619Y-10740671D01*
X22961134Y-10679348D01*
X22958300Y-10652990D01*
X22958300Y-8385807D01*
X22977985Y-8318768D01*
X22994620Y-8298125D01*
X23038073Y-8254672D01*
X23038076Y-8254669D01*
X23109265Y-8148127D01*
X23158301Y-8029744D01*
X23183300Y-7904069D01*
X23183300Y-7775931D01*
X23183300Y-7775928D01*
X23158302Y-7650261D01*
X23158301Y-7650260D01*
X23158301Y-7650256D01*
X23109265Y-7531873D01*
X23109264Y-7531872D01*
X23109261Y-7531866D01*
X23038076Y-7425331D01*
X23038073Y-7425327D01*
X22947471Y-7334725D01*
X22932182Y-7324509D01*
X22907625Y-7308101D01*
X22862822Y-7254491D01*
X22854114Y-7185166D01*
X22884268Y-7122138D01*
X22907624Y-7101899D01*
X22947469Y-7075276D01*
X23038076Y-6984669D01*
X23109265Y-6878127D01*
X23158301Y-6759744D01*
X23166482Y-6718615D01*
X23183300Y-6634071D01*
X23183300Y-6505928D01*
X23158302Y-6380261D01*
X23158301Y-6380260D01*
X23158301Y-6380256D01*
X23109265Y-6261873D01*
X23109264Y-6261872D01*
X23109261Y-6261866D01*
X23038076Y-6155331D01*
X23038073Y-6155327D01*
X22947472Y-6064726D01*
X22947468Y-6064723D01*
X22840933Y-5993538D01*
X22840924Y-5993533D01*
X22722544Y-5944499D01*
X22722538Y-5944497D01*
X22596871Y-5919500D01*
X22596869Y-5919500D01*
X22468731Y-5919500D01*
X22468729Y-5919500D01*
X22343061Y-5944497D01*
X22343055Y-5944499D01*
X22224675Y-5993533D01*
X22224666Y-5993538D01*
X22118131Y-6064723D01*
X22118127Y-6064726D01*
X22027526Y-6155327D01*
X22027523Y-6155331D01*
X21956338Y-6261866D01*
X21956333Y-6261875D01*
X21907299Y-6380255D01*
X21907297Y-6380261D01*
X21882300Y-6505928D01*
X21882300Y-6567390D01*
X21862615Y-6634429D01*
X21845981Y-6655071D01*
X21508717Y-6992334D01*
X21508713Y-6992340D01*
X21452698Y-7089360D01*
X21452697Y-7089363D01*
X21423700Y-7197582D01*
X21423700Y-11659790D01*
X21404015Y-11726829D01*
X21351211Y-11772584D01*
X21282053Y-11782528D01*
X21218497Y-11753503D01*
X21212019Y-11747471D01*
X19423919Y-9959371D01*
X19390434Y-9898048D01*
X19387600Y-9871690D01*
X19387600Y-3264400D01*
X19396841Y-3232926D01*
X19404958Y-3201127D01*
X19406638Y-3199562D01*
X19407285Y-3197361D01*
X19432066Y-3175887D01*
X19456095Y-3153516D01*
X19458355Y-3153108D01*
X19460089Y-3151606D01*
X19492552Y-3146938D01*
X19524855Y-3141110D01*
X19527820Y-3141867D01*
G37*
G04 #@! TD.AperFunction*
G04 #@! TA.AperFunction,Conductor*
G36*
X78429912Y-510923D02*
G01*
X78515331Y-549367D01*
X78528566Y-556314D01*
X78743045Y-685970D01*
X78755356Y-694468D01*
X78952636Y-849027D01*
X78963844Y-858957D01*
X79141042Y-1036155D01*
X79150972Y-1047363D01*
X79305527Y-1244637D01*
X79314033Y-1256960D01*
X79443681Y-1471425D01*
X79450638Y-1484682D01*
X79489075Y-1570085D01*
X79500000Y-1620975D01*
X79500000Y-52379021D01*
X79489075Y-52429913D01*
X79450636Y-52515320D01*
X79443678Y-52528578D01*
X79314032Y-52743039D01*
X79305525Y-52755363D01*
X79150970Y-52952636D01*
X79141041Y-52963843D01*
X78963843Y-53141041D01*
X78952636Y-53150970D01*
X78755363Y-53305525D01*
X78743039Y-53314032D01*
X78528578Y-53443678D01*
X78515320Y-53450636D01*
X78429913Y-53489075D01*
X78379021Y-53500000D01*
X1620976Y-53500000D01*
X1570087Y-53489076D01*
X1484675Y-53450635D01*
X1471425Y-53443681D01*
X1256960Y-53314033D01*
X1244637Y-53305527D01*
X1244634Y-53305525D01*
X1047363Y-53150972D01*
X1036155Y-53141042D01*
X858957Y-52963844D01*
X849027Y-52952636D01*
X694468Y-52755356D01*
X685966Y-52743038D01*
X556321Y-52528577D01*
X549362Y-52515319D01*
X510924Y-52429913D01*
X500000Y-52379022D01*
X500000Y-50378711D01*
X1649500Y-50378711D01*
X1649500Y-50621288D01*
X1681161Y-50861785D01*
X1743947Y-51096104D01*
X1836773Y-51320205D01*
X1836776Y-51320212D01*
X1958064Y-51530289D01*
X1958066Y-51530292D01*
X1958067Y-51530293D01*
X2105733Y-51722736D01*
X2105739Y-51722743D01*
X2277256Y-51894260D01*
X2277262Y-51894265D01*
X2469711Y-52041936D01*
X2679788Y-52163224D01*
X2903900Y-52256054D01*
X3138211Y-52318838D01*
X3318586Y-52342584D01*
X3378711Y-52350500D01*
X3378712Y-52350500D01*
X3621289Y-52350500D01*
X3669388Y-52344167D01*
X3861789Y-52318838D01*
X4096100Y-52256054D01*
X4320212Y-52163224D01*
X4530289Y-52041936D01*
X4722738Y-51894265D01*
X4894265Y-51722738D01*
X5041936Y-51530289D01*
X5163224Y-51320212D01*
X5256054Y-51096100D01*
X5318838Y-50861789D01*
X5350500Y-50621288D01*
X5350500Y-50378712D01*
X5350500Y-50378711D01*
X74649500Y-50378711D01*
X74649500Y-50621288D01*
X74681161Y-50861785D01*
X74743947Y-51096104D01*
X74836773Y-51320205D01*
X74836776Y-51320212D01*
X74958064Y-51530289D01*
X74958066Y-51530292D01*
X74958067Y-51530293D01*
X75105733Y-51722736D01*
X75105739Y-51722743D01*
X75277256Y-51894260D01*
X75277262Y-51894265D01*
X75469711Y-52041936D01*
X75679788Y-52163224D01*
X75903900Y-52256054D01*
X76138211Y-52318838D01*
X76318586Y-52342584D01*
X76378711Y-52350500D01*
X76378712Y-52350500D01*
X76621289Y-52350500D01*
X76669388Y-52344167D01*
X76861789Y-52318838D01*
X77096100Y-52256054D01*
X77320212Y-52163224D01*
X77530289Y-52041936D01*
X77722738Y-51894265D01*
X77894265Y-51722738D01*
X78041936Y-51530289D01*
X78163224Y-51320212D01*
X78256054Y-51096100D01*
X78318838Y-50861789D01*
X78350500Y-50621288D01*
X78350500Y-50378712D01*
X78318838Y-50138211D01*
X78256054Y-49903900D01*
X78163224Y-49679788D01*
X78041936Y-49469711D01*
X77941521Y-49338847D01*
X77894266Y-49277263D01*
X77894260Y-49277256D01*
X77722743Y-49105739D01*
X77722736Y-49105733D01*
X77530293Y-48958067D01*
X77530292Y-48958066D01*
X77530289Y-48958064D01*
X77320212Y-48836776D01*
X77320205Y-48836773D01*
X77096104Y-48743947D01*
X76861785Y-48681161D01*
X76621289Y-48649500D01*
X76621288Y-48649500D01*
X76378712Y-48649500D01*
X76378711Y-48649500D01*
X76138214Y-48681161D01*
X75903895Y-48743947D01*
X75679794Y-48836773D01*
X75679785Y-48836777D01*
X75613954Y-48874785D01*
X75490219Y-48946224D01*
X75469706Y-48958067D01*
X75277263Y-49105733D01*
X75277256Y-49105739D01*
X75105739Y-49277256D01*
X75105733Y-49277263D01*
X74958067Y-49469706D01*
X74836777Y-49679785D01*
X74836773Y-49679794D01*
X74743947Y-49903895D01*
X74681161Y-50138214D01*
X74649500Y-50378711D01*
X5350500Y-50378711D01*
X5318838Y-50138211D01*
X5256054Y-49903900D01*
X5163224Y-49679788D01*
X5041936Y-49469711D01*
X4941521Y-49338847D01*
X4894266Y-49277263D01*
X4894260Y-49277256D01*
X4722743Y-49105739D01*
X4722736Y-49105733D01*
X4530293Y-48958067D01*
X4530292Y-48958066D01*
X4530289Y-48958064D01*
X4320212Y-48836776D01*
X4320205Y-48836773D01*
X4142582Y-48763199D01*
X4142580Y-48763198D01*
X4096107Y-48743948D01*
X3932092Y-48700000D01*
X3861789Y-48681162D01*
X3861788Y-48681161D01*
X3861785Y-48681161D01*
X3621289Y-48649500D01*
X3621288Y-48649500D01*
X3378712Y-48649500D01*
X3378711Y-48649500D01*
X3138214Y-48681161D01*
X2903895Y-48743947D01*
X2679794Y-48836773D01*
X2679785Y-48836777D01*
X2613954Y-48874785D01*
X2490219Y-48946224D01*
X2469706Y-48958067D01*
X2277263Y-49105733D01*
X2277256Y-49105739D01*
X2105739Y-49277256D01*
X2105733Y-49277263D01*
X1958067Y-49469706D01*
X1836777Y-49679785D01*
X1836773Y-49679794D01*
X1743947Y-49903895D01*
X1681161Y-50138214D01*
X1649500Y-50378711D01*
X500000Y-50378711D01*
X500000Y-47384350D01*
X48800000Y-47384350D01*
X48800000Y-48300000D01*
X49826069Y-48300000D01*
X49800000Y-48431056D01*
X49800000Y-48568944D01*
X49826069Y-48700000D01*
X48800000Y-48700000D01*
X48800000Y-49615649D01*
X48802899Y-49652489D01*
X48802900Y-49652495D01*
X48848716Y-49810193D01*
X48848717Y-49810196D01*
X48932314Y-49951552D01*
X48932321Y-49951561D01*
X49048438Y-50067678D01*
X49048447Y-50067685D01*
X49189803Y-50151282D01*
X49189806Y-50151283D01*
X49347504Y-50197099D01*
X49347510Y-50197100D01*
X49384350Y-50199999D01*
X49384366Y-50200000D01*
X50300000Y-50200000D01*
X50300000Y-49173930D01*
X50431056Y-49200000D01*
X50568944Y-49200000D01*
X50700000Y-49173930D01*
X50700000Y-50200000D01*
X51615634Y-50200000D01*
X51615649Y-50199999D01*
X51652489Y-50197100D01*
X51652495Y-50197099D01*
X51810193Y-50151283D01*
X51810196Y-50151282D01*
X51951552Y-50067685D01*
X51951561Y-50067678D01*
X52067678Y-49951561D01*
X52067685Y-49951552D01*
X52151282Y-49810196D01*
X52151283Y-49810193D01*
X52197099Y-49652495D01*
X52197100Y-49652489D01*
X52199999Y-49615649D01*
X52200000Y-49615634D01*
X52200000Y-48700000D01*
X51173931Y-48700000D01*
X51200000Y-48568944D01*
X51200000Y-48431056D01*
X51173931Y-48300000D01*
X52200000Y-48300000D01*
X52200000Y-47384365D01*
X52199999Y-47384350D01*
X52197100Y-47347510D01*
X52197099Y-47347504D01*
X52151283Y-47189806D01*
X52151282Y-47189803D01*
X52067685Y-47048447D01*
X52067678Y-47048438D01*
X51951561Y-46932321D01*
X51951552Y-46932314D01*
X51810196Y-46848717D01*
X51810193Y-46848716D01*
X51652495Y-46802900D01*
X51652489Y-46802899D01*
X51615649Y-46800000D01*
X50700000Y-46800000D01*
X50700000Y-47826069D01*
X50568944Y-47800000D01*
X50431056Y-47800000D01*
X50300000Y-47826069D01*
X50300000Y-46800000D01*
X49384350Y-46800000D01*
X49347510Y-46802899D01*
X49347504Y-46802900D01*
X49189806Y-46848716D01*
X49189803Y-46848717D01*
X49048447Y-46932314D01*
X49048438Y-46932321D01*
X48932321Y-47048438D01*
X48932314Y-47048447D01*
X48848717Y-47189803D01*
X48848716Y-47189806D01*
X48802900Y-47347504D01*
X48802899Y-47347510D01*
X48800000Y-47384350D01*
X500000Y-47384350D01*
X500000Y-35120000D01*
X872150Y-35120000D01*
X1525735Y-35120000D01*
X1509940Y-35135795D01*
X1470444Y-35204204D01*
X1450000Y-35280504D01*
X1450000Y-35359496D01*
X1470444Y-35435796D01*
X1509940Y-35504205D01*
X1525735Y-35520000D01*
X872150Y-35520000D01*
X884584Y-35582512D01*
X884586Y-35582520D01*
X952428Y-35746307D01*
X952433Y-35746316D01*
X1050923Y-35893716D01*
X1050926Y-35893720D01*
X1176279Y-36019073D01*
X1176283Y-36019076D01*
X1323683Y-36117566D01*
X1323692Y-36117571D01*
X1487479Y-36185413D01*
X1487487Y-36185415D01*
X1661353Y-36219999D01*
X1661357Y-36220000D01*
X1850000Y-36220000D01*
X1850000Y-35620000D01*
X2250000Y-35620000D01*
X2250000Y-36220000D01*
X2438643Y-36220000D01*
X2438646Y-36219999D01*
X2612512Y-36185415D01*
X2612520Y-36185413D01*
X2776307Y-36117571D01*
X2776316Y-36117566D01*
X2923716Y-36019076D01*
X2923720Y-36019073D01*
X3049073Y-35893720D01*
X3049076Y-35893716D01*
X3147566Y-35746316D01*
X3147571Y-35746307D01*
X3215413Y-35582520D01*
X3215415Y-35582512D01*
X3227850Y-35520000D01*
X2574265Y-35520000D01*
X2590060Y-35504205D01*
X2629556Y-35435796D01*
X2650000Y-35359496D01*
X2650000Y-35280504D01*
X2629556Y-35204204D01*
X2590060Y-35135795D01*
X2574265Y-35120000D01*
X3227850Y-35120000D01*
X3215415Y-35057487D01*
X3215413Y-35057479D01*
X3147571Y-34893692D01*
X3147566Y-34893683D01*
X3049076Y-34746283D01*
X3049073Y-34746279D01*
X2923720Y-34620926D01*
X2923716Y-34620923D01*
X2776316Y-34522433D01*
X2776307Y-34522428D01*
X2612520Y-34454586D01*
X2612512Y-34454584D01*
X2438646Y-34420000D01*
X2250000Y-34420000D01*
X2250000Y-35020000D01*
X1850000Y-35020000D01*
X1850000Y-34420000D01*
X1661353Y-34420000D01*
X1487487Y-34454584D01*
X1487479Y-34454586D01*
X1323692Y-34522428D01*
X1323683Y-34522433D01*
X1176283Y-34620923D01*
X1176279Y-34620926D01*
X1050926Y-34746279D01*
X1050923Y-34746283D01*
X952433Y-34893683D01*
X952428Y-34893692D01*
X884586Y-35057479D01*
X884584Y-35057487D01*
X872150Y-35120000D01*
X500000Y-35120000D01*
X500000Y-32908271D01*
X4523699Y-32908271D01*
X4548697Y-33033938D01*
X4548699Y-33033944D01*
X4597733Y-33152324D01*
X4597738Y-33152333D01*
X4668923Y-33258868D01*
X4668926Y-33258872D01*
X4759527Y-33349473D01*
X4759531Y-33349476D01*
X4866066Y-33420661D01*
X4866072Y-33420664D01*
X4866073Y-33420665D01*
X4984456Y-33469701D01*
X5078159Y-33488340D01*
X5140070Y-33520725D01*
X5174644Y-33581440D01*
X5170905Y-33651210D01*
X5166719Y-33660304D01*
X5166831Y-33660351D01*
X5163720Y-33667862D01*
X5163720Y-33667863D01*
X5163719Y-33667865D01*
X5151345Y-33714046D01*
X5124500Y-33814234D01*
X5124500Y-33965765D01*
X5163719Y-34112136D01*
X5201602Y-34177750D01*
X5239485Y-34243365D01*
X5239487Y-34243367D01*
X5309750Y-34313630D01*
X5343235Y-34374953D01*
X5338251Y-34444645D01*
X5296379Y-34500578D01*
X5269522Y-34515872D01*
X5253692Y-34522428D01*
X5253683Y-34522433D01*
X5106283Y-34620923D01*
X5106279Y-34620926D01*
X4980926Y-34746279D01*
X4980923Y-34746283D01*
X4882433Y-34893683D01*
X4882428Y-34893692D01*
X4814586Y-35057479D01*
X4814584Y-35057487D01*
X4802150Y-35120000D01*
X5455735Y-35120000D01*
X5439940Y-35135795D01*
X5400444Y-35204204D01*
X5380000Y-35280504D01*
X5380000Y-35359496D01*
X5400444Y-35435796D01*
X5439940Y-35504205D01*
X5455735Y-35520000D01*
X4802150Y-35520000D01*
X4814584Y-35582512D01*
X4814586Y-35582520D01*
X4882428Y-35746307D01*
X4882433Y-35746316D01*
X4980923Y-35893716D01*
X4980926Y-35893720D01*
X5106279Y-36019073D01*
X5106283Y-36019076D01*
X5253683Y-36117566D01*
X5253692Y-36117571D01*
X5417479Y-36185413D01*
X5417487Y-36185415D01*
X5591353Y-36219999D01*
X5591357Y-36220000D01*
X6030000Y-36220000D01*
X6030000Y-35620000D01*
X6430000Y-35620000D01*
X6430000Y-36220000D01*
X6868643Y-36220000D01*
X6868646Y-36219999D01*
X7042512Y-36185415D01*
X7042520Y-36185413D01*
X7206307Y-36117571D01*
X7206316Y-36117566D01*
X7353716Y-36019076D01*
X7353720Y-36019073D01*
X7479073Y-35893720D01*
X7479076Y-35893716D01*
X7577566Y-35746316D01*
X7577571Y-35746307D01*
X7645413Y-35582520D01*
X7645415Y-35582512D01*
X7657850Y-35520000D01*
X7004265Y-35520000D01*
X7020060Y-35504205D01*
X7059556Y-35435796D01*
X7080000Y-35359496D01*
X7080000Y-35280504D01*
X7059556Y-35204204D01*
X7020060Y-35135795D01*
X7004265Y-35120000D01*
X7657850Y-35120000D01*
X7645415Y-35057487D01*
X7645413Y-35057479D01*
X7577571Y-34893692D01*
X7577566Y-34893683D01*
X7479076Y-34746283D01*
X7479073Y-34746279D01*
X7353720Y-34620926D01*
X7353716Y-34620923D01*
X7206316Y-34522433D01*
X7206307Y-34522428D01*
X7042520Y-34454586D01*
X7042512Y-34454584D01*
X6868646Y-34420000D01*
X6430000Y-34420000D01*
X6430000Y-35020000D01*
X6030000Y-35020000D01*
X6030000Y-34425242D01*
X6038644Y-34395801D01*
X6045168Y-34365815D01*
X6048922Y-34360799D01*
X6049685Y-34358203D01*
X6066319Y-34337561D01*
X6122923Y-34280957D01*
X6160515Y-34243365D01*
X6236281Y-34112135D01*
X6275500Y-33965766D01*
X6275500Y-33814234D01*
X6236281Y-33667865D01*
X6160515Y-33536635D01*
X6105261Y-33481381D01*
X6071776Y-33420058D01*
X6076760Y-33350366D01*
X6118632Y-33294433D01*
X6184096Y-33270016D01*
X6192942Y-33269700D01*
X9007390Y-33269700D01*
X9074429Y-33289385D01*
X9095071Y-33306019D01*
X12265181Y-36476129D01*
X12298666Y-36537452D01*
X12301500Y-36563810D01*
X12301500Y-36625269D01*
X12301500Y-36625271D01*
X12301499Y-36625271D01*
X12326497Y-36750938D01*
X12326499Y-36750944D01*
X12375533Y-36869324D01*
X12375538Y-36869333D01*
X12446723Y-36975868D01*
X12446726Y-36975872D01*
X12537327Y-37066473D01*
X12537331Y-37066476D01*
X12643866Y-37137661D01*
X12643872Y-37137664D01*
X12643873Y-37137665D01*
X12762256Y-37186701D01*
X12762260Y-37186701D01*
X12762261Y-37186702D01*
X12887928Y-37211700D01*
X12887931Y-37211700D01*
X13016071Y-37211700D01*
X13100615Y-37194882D01*
X13141744Y-37186701D01*
X13260127Y-37137665D01*
X13366669Y-37066476D01*
X13457276Y-36975869D01*
X13528465Y-36869327D01*
X13577501Y-36750944D01*
X13597766Y-36649068D01*
X13602500Y-36625271D01*
X13602500Y-36497128D01*
X13577502Y-36371461D01*
X13577501Y-36371460D01*
X13577501Y-36371456D01*
X13528465Y-36253073D01*
X13528464Y-36253072D01*
X13528461Y-36253066D01*
X13457276Y-36146531D01*
X13457273Y-36146527D01*
X13366672Y-36055926D01*
X13366668Y-36055923D01*
X13260133Y-35984738D01*
X13260124Y-35984733D01*
X13141744Y-35935699D01*
X13141738Y-35935697D01*
X13016071Y-35910700D01*
X13016069Y-35910700D01*
X12954610Y-35910700D01*
X12887571Y-35891015D01*
X12866929Y-35874381D01*
X9496265Y-32503717D01*
X9496263Y-32503715D01*
X9399237Y-32447697D01*
X9291018Y-32418700D01*
X9291017Y-32418700D01*
X5720007Y-32418700D01*
X5652968Y-32399015D01*
X5632325Y-32382380D01*
X5588872Y-32338926D01*
X5588868Y-32338923D01*
X5482333Y-32267738D01*
X5482324Y-32267733D01*
X5363944Y-32218699D01*
X5363938Y-32218697D01*
X5238271Y-32193700D01*
X5238269Y-32193700D01*
X5110131Y-32193700D01*
X5110129Y-32193700D01*
X4984461Y-32218697D01*
X4984455Y-32218699D01*
X4866075Y-32267733D01*
X4866066Y-32267738D01*
X4759531Y-32338923D01*
X4759527Y-32338926D01*
X4668926Y-32429527D01*
X4668923Y-32429531D01*
X4597738Y-32536066D01*
X4597733Y-32536075D01*
X4548699Y-32654455D01*
X4548697Y-32654461D01*
X4523700Y-32780128D01*
X4523700Y-32780131D01*
X4523700Y-32908269D01*
X4523700Y-32908271D01*
X4523699Y-32908271D01*
X500000Y-32908271D01*
X500000Y-30314071D01*
X4094498Y-30314071D01*
X4119496Y-30439738D01*
X4119498Y-30439744D01*
X4168532Y-30558124D01*
X4168537Y-30558133D01*
X4239722Y-30664668D01*
X4239725Y-30664672D01*
X4330326Y-30755273D01*
X4330330Y-30755276D01*
X4436865Y-30826461D01*
X4436871Y-30826464D01*
X4436872Y-30826465D01*
X4555255Y-30875501D01*
X4555259Y-30875501D01*
X4555260Y-30875502D01*
X4680927Y-30900500D01*
X4680930Y-30900500D01*
X4809070Y-30900500D01*
X4893614Y-30883682D01*
X4934743Y-30875501D01*
X5053126Y-30826465D01*
X5053126Y-30826464D01*
X5054823Y-30825762D01*
X5124293Y-30818293D01*
X5139867Y-30822158D01*
X10692139Y-32588791D01*
X10750053Y-32627875D01*
X10753913Y-32632783D01*
X10763177Y-32645195D01*
X10768534Y-32658127D01*
X10839723Y-32764669D01*
X10889515Y-32814461D01*
X10894872Y-32821638D01*
X10904041Y-32846330D01*
X10916666Y-32869449D01*
X10918311Y-32884755D01*
X10919196Y-32887137D01*
X10918774Y-32889061D01*
X10919500Y-32895808D01*
X10919500Y-33154882D01*
X10919500Y-33266918D01*
X10948497Y-33375137D01*
X11004515Y-33472163D01*
X11004516Y-33472164D01*
X11004517Y-33472165D01*
X11913974Y-34381621D01*
X11913984Y-34381632D01*
X11918314Y-34385962D01*
X11918315Y-34385963D01*
X11997537Y-34465185D01*
X12094563Y-34521203D01*
X12202781Y-34550200D01*
X12202782Y-34550200D01*
X12202783Y-34550200D01*
X12855016Y-34550200D01*
X12855018Y-34550200D01*
X12963237Y-34521203D01*
X13060263Y-34465185D01*
X15869929Y-31655519D01*
X15931252Y-31622034D01*
X15957610Y-31619200D01*
X17991116Y-31619200D01*
X17991118Y-31619200D01*
X18099337Y-31590203D01*
X18196363Y-31534185D01*
X19315653Y-30414892D01*
X19315658Y-30414889D01*
X19325861Y-30404685D01*
X19325863Y-30404685D01*
X19405085Y-30325463D01*
X19461103Y-30228437D01*
X19462561Y-30222997D01*
X19473815Y-30180999D01*
X19481957Y-30150609D01*
X19490100Y-30120219D01*
X19490100Y-30008182D01*
X19490100Y-20276310D01*
X19509785Y-20209271D01*
X19526419Y-20188629D01*
X20108229Y-19606819D01*
X20130140Y-19594854D01*
X20149758Y-19579409D01*
X20163166Y-19576820D01*
X20169552Y-19573334D01*
X20184052Y-19571068D01*
X20189964Y-19570500D01*
X20257369Y-19570500D01*
X20320331Y-19557975D01*
X20326542Y-19557379D01*
X20354970Y-19562841D01*
X20383799Y-19565421D01*
X20388861Y-19569353D01*
X20395157Y-19570563D01*
X20416117Y-19590525D01*
X20438977Y-19608283D01*
X20441109Y-19614328D01*
X20445751Y-19618749D01*
X20452591Y-19646874D01*
X20462222Y-19674173D01*
X20462400Y-19680811D01*
X20462400Y-32595690D01*
X20442715Y-32662729D01*
X20426081Y-32683371D01*
X15229017Y-37880434D01*
X15229013Y-37880440D01*
X15172998Y-37977460D01*
X15172997Y-37977463D01*
X15144000Y-38085682D01*
X15144000Y-40546192D01*
X15124315Y-40613231D01*
X15107681Y-40633873D01*
X15064226Y-40677327D01*
X15064223Y-40677331D01*
X14993038Y-40783866D01*
X14993033Y-40783875D01*
X14943999Y-40902255D01*
X14943997Y-40902261D01*
X14919000Y-41027928D01*
X14919000Y-41027931D01*
X14919000Y-41156069D01*
X14919000Y-41156071D01*
X14918999Y-41156071D01*
X14943997Y-41281738D01*
X14943999Y-41281744D01*
X14993033Y-41400124D01*
X14993038Y-41400133D01*
X15064223Y-41506668D01*
X15064226Y-41506672D01*
X15154827Y-41597273D01*
X15154831Y-41597276D01*
X15261366Y-41668461D01*
X15261372Y-41668464D01*
X15261373Y-41668465D01*
X15379756Y-41717501D01*
X15379760Y-41717501D01*
X15379761Y-41717502D01*
X15505428Y-41742500D01*
X15505431Y-41742500D01*
X15633571Y-41742500D01*
X15718115Y-41725682D01*
X15759244Y-41717501D01*
X15877627Y-41668465D01*
X15984169Y-41597276D01*
X16074776Y-41506669D01*
X16145965Y-41400127D01*
X16195001Y-41281744D01*
X16220000Y-41156069D01*
X16220000Y-41027931D01*
X16220000Y-41027928D01*
X16195002Y-40902261D01*
X16195001Y-40902260D01*
X16195001Y-40902256D01*
X16145965Y-40783873D01*
X16145964Y-40783872D01*
X16145961Y-40783866D01*
X16074776Y-40677331D01*
X16074773Y-40677327D01*
X16031319Y-40633873D01*
X15997834Y-40572550D01*
X15995000Y-40546192D01*
X15995000Y-38369310D01*
X16014685Y-38302271D01*
X16031319Y-38281629D01*
X21212019Y-33100929D01*
X21273342Y-33067444D01*
X21343034Y-33072428D01*
X21398967Y-33114300D01*
X21423384Y-33179764D01*
X21423700Y-33188610D01*
X21423700Y-39370682D01*
X21423700Y-39482718D01*
X21452697Y-39590937D01*
X21508715Y-39687963D01*
X28232015Y-46411263D01*
X28311237Y-46490485D01*
X28408263Y-46546503D01*
X28516482Y-46575500D01*
X33034193Y-46575500D01*
X33101232Y-46595185D01*
X33121875Y-46611820D01*
X33165327Y-46655273D01*
X33165331Y-46655276D01*
X33271866Y-46726461D01*
X33271872Y-46726464D01*
X33271873Y-46726465D01*
X33390256Y-46775501D01*
X33390260Y-46775501D01*
X33390261Y-46775502D01*
X33515928Y-46800500D01*
X33515931Y-46800500D01*
X33644071Y-46800500D01*
X33728615Y-46783682D01*
X33769744Y-46775501D01*
X33888127Y-46726465D01*
X33994669Y-46655276D01*
X34085276Y-46564669D01*
X34156465Y-46458127D01*
X34205501Y-46339744D01*
X34230500Y-46214069D01*
X34230500Y-46085931D01*
X34230500Y-46085928D01*
X34205502Y-45960261D01*
X34205501Y-45960260D01*
X34205501Y-45960256D01*
X34156465Y-45841873D01*
X34156464Y-45841872D01*
X34156461Y-45841866D01*
X34085276Y-45735331D01*
X34085273Y-45735327D01*
X33994672Y-45644726D01*
X33994668Y-45644723D01*
X33888133Y-45573538D01*
X33888124Y-45573533D01*
X33769744Y-45524499D01*
X33769738Y-45524497D01*
X33644071Y-45499500D01*
X33644069Y-45499500D01*
X33515931Y-45499500D01*
X33515929Y-45499500D01*
X33390261Y-45524497D01*
X33390255Y-45524499D01*
X33271875Y-45573533D01*
X33271866Y-45573538D01*
X33165331Y-45644723D01*
X33165327Y-45644726D01*
X33121875Y-45688180D01*
X33060552Y-45721666D01*
X33034193Y-45724500D01*
X28800110Y-45724500D01*
X28733071Y-45704815D01*
X28712429Y-45688181D01*
X26240082Y-43215834D01*
X26206597Y-43154511D01*
X26211581Y-43084819D01*
X26253453Y-43028886D01*
X26258848Y-43025067D01*
X26288469Y-43005276D01*
X26379076Y-42914669D01*
X26450265Y-42808127D01*
X26499301Y-42689744D01*
X26524300Y-42564069D01*
X26524300Y-42435931D01*
X26524300Y-42435928D01*
X26499302Y-42310261D01*
X26499301Y-42310260D01*
X26499301Y-42310256D01*
X26450265Y-42191873D01*
X26450264Y-42191872D01*
X26450261Y-42191866D01*
X26379076Y-42085331D01*
X26379073Y-42085327D01*
X26335619Y-42041873D01*
X26302134Y-41980550D01*
X26299300Y-41954192D01*
X26299300Y-21561483D01*
X26299300Y-21561482D01*
X26285108Y-21508518D01*
X26270303Y-21453263D01*
X26214285Y-21356237D01*
X25583019Y-20724971D01*
X25568315Y-20698043D01*
X25551723Y-20672225D01*
X25550831Y-20666024D01*
X25549534Y-20663648D01*
X25546700Y-20637290D01*
X25546700Y-20431310D01*
X25566385Y-20364271D01*
X25583019Y-20343629D01*
X26121629Y-19805019D01*
X26182952Y-19771534D01*
X26209310Y-19768700D01*
X26643726Y-19768700D01*
X26710765Y-19788385D01*
X26756520Y-19841189D01*
X26766464Y-19910347D01*
X26737439Y-19973903D01*
X26712617Y-19995802D01*
X26647930Y-20039023D01*
X26557326Y-20129627D01*
X26557323Y-20129631D01*
X26486138Y-20236166D01*
X26486133Y-20236175D01*
X26437099Y-20354555D01*
X26437097Y-20354561D01*
X26412100Y-20480228D01*
X26412100Y-20480231D01*
X26412100Y-20608369D01*
X26412100Y-20608371D01*
X26412099Y-20608371D01*
X26437097Y-20734038D01*
X26437099Y-20734044D01*
X26486133Y-20852424D01*
X26486138Y-20852433D01*
X26557323Y-20958968D01*
X26557326Y-20958972D01*
X26647927Y-21049573D01*
X26647931Y-21049576D01*
X26754466Y-21120761D01*
X26754475Y-21120766D01*
X26770880Y-21127561D01*
X26872856Y-21169801D01*
X26872860Y-21169801D01*
X26872861Y-21169802D01*
X26998528Y-21194800D01*
X26998531Y-21194800D01*
X27126671Y-21194800D01*
X27211215Y-21177982D01*
X27252344Y-21169801D01*
X27370727Y-21120765D01*
X27477269Y-21049576D01*
X27567876Y-20958969D01*
X27639065Y-20852427D01*
X27688101Y-20734044D01*
X27700398Y-20672225D01*
X27713100Y-20608371D01*
X27713100Y-20546909D01*
X27721744Y-20517468D01*
X27728268Y-20487482D01*
X27732022Y-20482466D01*
X27732785Y-20479870D01*
X27749419Y-20459228D01*
X27894428Y-20314219D01*
X27955751Y-20280734D01*
X27982109Y-20277900D01*
X30527337Y-20277900D01*
X30594376Y-20297585D01*
X30640131Y-20350389D01*
X30650075Y-20419547D01*
X30648954Y-20426091D01*
X30639200Y-20475126D01*
X30639200Y-20475131D01*
X30639200Y-20603269D01*
X30639200Y-20603271D01*
X30639199Y-20603271D01*
X30664197Y-20728938D01*
X30664199Y-20728944D01*
X30713233Y-20847324D01*
X30713238Y-20847333D01*
X30784423Y-20953868D01*
X30784426Y-20953872D01*
X30875027Y-21044473D01*
X30875031Y-21044476D01*
X30981566Y-21115661D01*
X30981572Y-21115664D01*
X30981573Y-21115665D01*
X31099956Y-21164701D01*
X31099960Y-21164701D01*
X31099961Y-21164702D01*
X31225628Y-21189700D01*
X31225631Y-21189700D01*
X31353771Y-21189700D01*
X31479434Y-21164703D01*
X31479434Y-21164702D01*
X31479444Y-21164701D01*
X31479453Y-21164697D01*
X31483740Y-21163397D01*
X31553607Y-21162768D01*
X31607426Y-21194374D01*
X37960581Y-27547529D01*
X37994066Y-27608852D01*
X37996900Y-27635210D01*
X37996900Y-30066382D01*
X37996900Y-30178418D01*
X38024646Y-30281966D01*
X38025897Y-30286636D01*
X38025898Y-30286639D01*
X38032538Y-30298140D01*
X38081915Y-30383663D01*
X38081917Y-30383665D01*
X41885655Y-34187403D01*
X41919140Y-34248726D01*
X41915905Y-34313402D01*
X41877829Y-34430589D01*
X41849500Y-34609448D01*
X41849500Y-34790551D01*
X41877829Y-34969410D01*
X41933787Y-35141636D01*
X41933788Y-35141639D01*
X42016006Y-35302997D01*
X42122441Y-35449494D01*
X42122445Y-35449499D01*
X42250500Y-35577554D01*
X42250505Y-35577558D01*
X42341067Y-35643354D01*
X42397006Y-35683996D01*
X42502484Y-35737740D01*
X42558360Y-35766211D01*
X42558363Y-35766212D01*
X42644476Y-35794191D01*
X42730591Y-35822171D01*
X42813429Y-35835291D01*
X42909449Y-35850500D01*
X42909454Y-35850500D01*
X43090551Y-35850500D01*
X43177259Y-35836765D01*
X43269409Y-35822171D01*
X43441639Y-35766211D01*
X43575105Y-35698205D01*
X43643774Y-35685310D01*
X43708514Y-35711586D01*
X43748772Y-35768692D01*
X43755400Y-35808691D01*
X43755400Y-40206290D01*
X43735715Y-40273329D01*
X43719081Y-40293971D01*
X41979971Y-42033081D01*
X41918648Y-42066566D01*
X41892290Y-42069400D01*
X41830829Y-42069400D01*
X41705161Y-42094397D01*
X41705155Y-42094399D01*
X41586775Y-42143433D01*
X41586766Y-42143438D01*
X41480231Y-42214623D01*
X41480227Y-42214626D01*
X41389626Y-42305227D01*
X41389623Y-42305231D01*
X41318438Y-42411766D01*
X41318433Y-42411775D01*
X41269399Y-42530155D01*
X41269397Y-42530161D01*
X41244400Y-42655828D01*
X41244400Y-42655831D01*
X41244400Y-42783969D01*
X41244400Y-42783971D01*
X41244399Y-42783971D01*
X41269397Y-42909638D01*
X41269399Y-42909644D01*
X41318433Y-43028024D01*
X41318438Y-43028033D01*
X41389623Y-43134568D01*
X41389626Y-43134572D01*
X41480227Y-43225173D01*
X41480231Y-43225176D01*
X41586766Y-43296361D01*
X41586772Y-43296364D01*
X41586773Y-43296365D01*
X41705156Y-43345401D01*
X41705160Y-43345401D01*
X41705161Y-43345402D01*
X41830828Y-43370400D01*
X41830831Y-43370400D01*
X41958971Y-43370400D01*
X42043515Y-43353582D01*
X42084644Y-43345401D01*
X42203027Y-43296365D01*
X42309569Y-43225176D01*
X42400176Y-43134569D01*
X42471365Y-43028027D01*
X42520401Y-42909644D01*
X42528582Y-42868515D01*
X42545400Y-42783971D01*
X42545400Y-42722508D01*
X42565085Y-42655469D01*
X42581714Y-42634832D01*
X44431953Y-40784592D01*
X44431958Y-40784589D01*
X44442161Y-40774385D01*
X44442163Y-40774385D01*
X44521385Y-40695163D01*
X44577403Y-40598137D01*
X44606400Y-40489918D01*
X44606400Y-29261109D01*
X44626085Y-29194070D01*
X44678889Y-29148315D01*
X44748047Y-29138371D01*
X44811603Y-29167396D01*
X44818081Y-29173428D01*
X45291481Y-29646828D01*
X45324966Y-29708151D01*
X45327800Y-29734509D01*
X45327800Y-33022282D01*
X45327800Y-33134318D01*
X45356797Y-33242537D01*
X45412815Y-33339563D01*
X45412817Y-33339565D01*
X48222581Y-36149329D01*
X48256066Y-36210652D01*
X48258900Y-36237010D01*
X48258900Y-36298469D01*
X48258900Y-36298471D01*
X48258899Y-36298471D01*
X48283897Y-36424138D01*
X48283899Y-36424144D01*
X48332933Y-36542524D01*
X48332938Y-36542533D01*
X48404123Y-36649068D01*
X48404126Y-36649072D01*
X48494727Y-36739673D01*
X48494731Y-36739676D01*
X48601266Y-36810861D01*
X48601272Y-36810864D01*
X48601273Y-36810865D01*
X48719656Y-36859901D01*
X48767073Y-36869333D01*
X48776323Y-36871173D01*
X48838234Y-36903557D01*
X48872808Y-36964273D01*
X48869069Y-37034042D01*
X48839813Y-37080471D01*
X41546005Y-44374281D01*
X41484682Y-44407766D01*
X41458324Y-44410600D01*
X41448005Y-44410600D01*
X41312677Y-44437518D01*
X41312667Y-44437521D01*
X41185195Y-44490321D01*
X41185182Y-44490328D01*
X41070458Y-44566985D01*
X41070454Y-44566988D01*
X40972888Y-44664554D01*
X40972885Y-44664558D01*
X40896228Y-44779282D01*
X40896221Y-44779295D01*
X40843421Y-44906767D01*
X40843418Y-44906777D01*
X40816500Y-45042104D01*
X40816500Y-45042107D01*
X40816500Y-45180093D01*
X40816500Y-45180095D01*
X40816499Y-45180095D01*
X40843418Y-45315422D01*
X40843421Y-45315432D01*
X40896221Y-45442904D01*
X40896228Y-45442917D01*
X40972885Y-45557641D01*
X40972888Y-45557645D01*
X41070454Y-45655211D01*
X41070458Y-45655214D01*
X41185182Y-45731871D01*
X41185195Y-45731878D01*
X41312667Y-45784678D01*
X41312672Y-45784680D01*
X41312676Y-45784680D01*
X41312677Y-45784681D01*
X41448004Y-45811600D01*
X41448007Y-45811600D01*
X41585995Y-45811600D01*
X41677041Y-45793489D01*
X41721328Y-45784680D01*
X41819924Y-45743840D01*
X41848804Y-45731878D01*
X41848804Y-45731877D01*
X41848811Y-45731875D01*
X41963542Y-45655214D01*
X42061114Y-45557642D01*
X42137775Y-45442911D01*
X42190580Y-45315428D01*
X42217500Y-45180093D01*
X42217500Y-45169776D01*
X42237185Y-45102737D01*
X42253819Y-45082095D01*
X46179845Y-41156069D01*
X50125200Y-37210714D01*
X50191092Y-37096586D01*
X50225200Y-36969292D01*
X50225200Y-36837507D01*
X50225200Y-24158808D01*
X50191092Y-24031514D01*
X50125200Y-23917386D01*
X50032014Y-23824200D01*
X48686818Y-22479004D01*
X48653333Y-22417681D01*
X48650499Y-22391323D01*
X48650499Y-21105143D01*
X48650499Y-21105136D01*
X48648268Y-21085898D01*
X48647586Y-21080012D01*
X48647585Y-21080010D01*
X48647585Y-21080009D01*
X48602206Y-20977235D01*
X48522765Y-20897794D01*
X48468621Y-20873887D01*
X48419992Y-20852415D01*
X48394868Y-20849500D01*
X48394865Y-20849500D01*
X48375975Y-20849500D01*
X48308936Y-20829815D01*
X48263181Y-20777011D01*
X48253237Y-20707853D01*
X48282262Y-20644297D01*
X48288294Y-20637819D01*
X48649803Y-20276310D01*
X49298699Y-19627415D01*
X49308445Y-19610536D01*
X49364592Y-19513286D01*
X49395156Y-19399218D01*
X49398700Y-19385993D01*
X49398700Y-19254208D01*
X49398700Y-11927671D01*
X52277199Y-11927671D01*
X52302197Y-12053338D01*
X52302199Y-12053344D01*
X52351233Y-12171724D01*
X52351238Y-12171733D01*
X52422423Y-12278268D01*
X52422426Y-12278272D01*
X52513027Y-12368873D01*
X52513031Y-12368876D01*
X52619566Y-12440061D01*
X52619572Y-12440064D01*
X52619573Y-12440065D01*
X52737956Y-12489101D01*
X52737960Y-12489101D01*
X52737961Y-12489102D01*
X52863628Y-12514100D01*
X52863631Y-12514100D01*
X52925090Y-12514100D01*
X52992129Y-12533785D01*
X53012771Y-12550419D01*
X60235081Y-19772729D01*
X60268566Y-19834052D01*
X60271400Y-19860410D01*
X60271400Y-20651890D01*
X60271398Y-20651898D01*
X60271400Y-20700663D01*
X60271400Y-20763918D01*
X60271401Y-20763925D01*
X60271402Y-20763934D01*
X60286943Y-20821927D01*
X60287177Y-20822800D01*
X60300399Y-20872147D01*
X60300400Y-20872149D01*
X60328346Y-20920547D01*
X60328425Y-20920683D01*
X60328561Y-20920918D01*
X60356415Y-20969163D01*
X60356420Y-20969168D01*
X60356425Y-20969176D01*
X60357092Y-20969843D01*
X60357094Y-20969846D01*
X60396339Y-21009088D01*
X60396352Y-21009100D01*
X60435637Y-21048385D01*
X60435639Y-21048386D01*
X60439964Y-21052711D01*
X60439976Y-21052722D01*
X60581639Y-21194374D01*
X61341552Y-21954230D01*
X61375039Y-22015551D01*
X61370057Y-22085243D01*
X61341555Y-22129595D01*
X56868937Y-26602215D01*
X56789717Y-26681434D01*
X56789713Y-26681440D01*
X56733698Y-26778460D01*
X56733697Y-26778463D01*
X56704700Y-26886682D01*
X56704700Y-28995490D01*
X56685015Y-29062529D01*
X56668381Y-29083171D01*
X55239517Y-30512034D01*
X55239513Y-30512040D01*
X55183498Y-30609060D01*
X55183497Y-30609063D01*
X55154500Y-30717282D01*
X55154500Y-46865297D01*
X55134815Y-46932336D01*
X55082011Y-46978091D01*
X55068819Y-46983228D01*
X54965618Y-47016760D01*
X54741152Y-47131133D01*
X54537351Y-47279202D01*
X54537346Y-47279206D01*
X54359206Y-47457346D01*
X54359202Y-47457351D01*
X54211133Y-47661152D01*
X54096758Y-47885621D01*
X54096757Y-47885624D01*
X54018911Y-48125214D01*
X53979501Y-48374038D01*
X53979501Y-48625961D01*
X54018911Y-48874785D01*
X54096757Y-49114375D01*
X54096758Y-49114378D01*
X54211133Y-49338847D01*
X54359202Y-49542648D01*
X54359206Y-49542653D01*
X54537346Y-49720793D01*
X54537351Y-49720797D01*
X54660395Y-49810193D01*
X54741156Y-49868869D01*
X54887890Y-49943634D01*
X54965621Y-49983241D01*
X54965624Y-49983242D01*
X55085419Y-50022165D01*
X55205216Y-50061089D01*
X55454038Y-50100499D01*
X55454039Y-50100499D01*
X55705961Y-50100499D01*
X55705962Y-50100499D01*
X55954784Y-50061089D01*
X56194378Y-49983241D01*
X56418844Y-49868869D01*
X56622655Y-49720792D01*
X56800792Y-49542655D01*
X56948869Y-49338844D01*
X57063241Y-49114378D01*
X57141089Y-48874784D01*
X57180499Y-48625962D01*
X57180499Y-48374038D01*
X57141089Y-48125216D01*
X57063241Y-47885622D01*
X57063241Y-47885621D01*
X56973078Y-47708669D01*
X56948869Y-47661156D01*
X56929951Y-47635118D01*
X56800797Y-47457351D01*
X56800793Y-47457346D01*
X56622653Y-47279206D01*
X56622648Y-47279202D01*
X56418847Y-47131133D01*
X56418846Y-47131132D01*
X56418844Y-47131131D01*
X56302238Y-47071717D01*
X56194381Y-47016760D01*
X56091181Y-46983228D01*
X56033506Y-46943790D01*
X56006308Y-46879431D01*
X56005500Y-46865297D01*
X56005500Y-36241991D01*
X56025185Y-36174952D01*
X56077989Y-36129197D01*
X56147147Y-36119253D01*
X56210703Y-36148278D01*
X56248477Y-36207056D01*
X56251117Y-36217800D01*
X56266318Y-36294220D01*
X56266321Y-36294232D01*
X56319121Y-36421704D01*
X56319128Y-36421717D01*
X56395785Y-36536441D01*
X56395788Y-36536445D01*
X56493354Y-36634011D01*
X56493358Y-36634014D01*
X56608082Y-36710671D01*
X56608095Y-36710678D01*
X56705307Y-36750944D01*
X56735572Y-36763480D01*
X56735576Y-36763480D01*
X56735577Y-36763481D01*
X56870904Y-36790400D01*
X56870907Y-36790400D01*
X56881224Y-36790400D01*
X56948263Y-36810085D01*
X56968905Y-36826719D01*
X58251959Y-38109772D01*
X58251969Y-38109783D01*
X58256299Y-38114113D01*
X58256300Y-38114114D01*
X58349486Y-38207300D01*
X58463614Y-38273192D01*
X58590907Y-38307300D01*
X58590908Y-38307300D01*
X61573168Y-38307300D01*
X61640207Y-38326985D01*
X61642059Y-38328198D01*
X61724466Y-38383261D01*
X61724472Y-38383264D01*
X61724473Y-38383265D01*
X61842856Y-38432301D01*
X61842860Y-38432301D01*
X61842861Y-38432302D01*
X61968528Y-38457300D01*
X61968531Y-38457300D01*
X62096671Y-38457300D01*
X62181215Y-38440482D01*
X62222344Y-38432301D01*
X62340727Y-38383265D01*
X62447269Y-38312076D01*
X62537876Y-38221469D01*
X62609065Y-38114927D01*
X62658101Y-37996544D01*
X62666282Y-37955415D01*
X62683100Y-37870871D01*
X62683100Y-37742728D01*
X62658102Y-37617061D01*
X62658101Y-37617060D01*
X62658101Y-37617056D01*
X62609065Y-37498673D01*
X62609064Y-37498672D01*
X62609061Y-37498666D01*
X62537876Y-37392131D01*
X62537873Y-37392127D01*
X62447272Y-37301526D01*
X62447268Y-37301523D01*
X62340733Y-37230338D01*
X62340724Y-37230333D01*
X62222344Y-37181299D01*
X62222338Y-37181297D01*
X62096671Y-37156300D01*
X62096669Y-37156300D01*
X61968531Y-37156300D01*
X61968529Y-37156300D01*
X61842861Y-37181297D01*
X61842855Y-37181299D01*
X61724475Y-37230333D01*
X61724466Y-37230338D01*
X61642059Y-37285402D01*
X61575382Y-37306280D01*
X61573168Y-37306300D01*
X58915475Y-37306300D01*
X58848436Y-37286615D01*
X58827794Y-37269981D01*
X57676719Y-36118905D01*
X57643234Y-36057582D01*
X57640400Y-36031224D01*
X57640400Y-36020904D01*
X57613481Y-35885577D01*
X57613480Y-35885576D01*
X57613480Y-35885572D01*
X57564040Y-35766212D01*
X57560678Y-35758095D01*
X57560671Y-35758082D01*
X57484014Y-35643358D01*
X57484011Y-35643354D01*
X57386445Y-35545788D01*
X57386441Y-35545785D01*
X57271717Y-35469128D01*
X57271704Y-35469121D01*
X57144232Y-35416321D01*
X57144222Y-35416318D01*
X57008895Y-35389400D01*
X57008893Y-35389400D01*
X56870907Y-35389400D01*
X56870905Y-35389400D01*
X56735577Y-35416318D01*
X56735567Y-35416321D01*
X56608095Y-35469121D01*
X56608082Y-35469128D01*
X56493358Y-35545785D01*
X56493354Y-35545788D01*
X56395788Y-35643354D01*
X56395785Y-35643358D01*
X56319128Y-35758082D01*
X56319121Y-35758095D01*
X56266321Y-35885567D01*
X56266318Y-35885577D01*
X56251117Y-35962000D01*
X56218732Y-36023910D01*
X56158016Y-36058485D01*
X56088247Y-36054745D01*
X56031575Y-36013878D01*
X56005994Y-35948860D01*
X56005500Y-35937808D01*
X56005500Y-31000910D01*
X56025185Y-30933871D01*
X56041819Y-30913229D01*
X56744275Y-30210773D01*
X57470685Y-29484363D01*
X57526703Y-29387337D01*
X57555700Y-29279118D01*
X57555700Y-29167081D01*
X57555700Y-27170309D01*
X57575385Y-27103270D01*
X57592014Y-27082633D01*
X60637819Y-24036827D01*
X60699142Y-24003343D01*
X60768834Y-24008327D01*
X60824767Y-24050199D01*
X60849184Y-24115663D01*
X60849500Y-24124509D01*
X60849500Y-24251127D01*
X60868534Y-24395695D01*
X60883730Y-24511116D01*
X60951602Y-24764418D01*
X60951605Y-24764428D01*
X61051953Y-25006690D01*
X61051958Y-25006700D01*
X61183075Y-25233803D01*
X61342718Y-25441851D01*
X61342726Y-25441860D01*
X61528140Y-25627274D01*
X61528148Y-25627281D01*
X61736196Y-25786924D01*
X61963299Y-25918041D01*
X61963309Y-25918046D01*
X62194449Y-26013787D01*
X62205581Y-26018398D01*
X62458884Y-26086270D01*
X62718880Y-26120500D01*
X62718887Y-26120500D01*
X62981113Y-26120500D01*
X62981120Y-26120500D01*
X63241116Y-26086270D01*
X63494419Y-26018398D01*
X63681750Y-25940803D01*
X63736690Y-25918046D01*
X63736691Y-25918045D01*
X63736697Y-25918043D01*
X63963803Y-25786924D01*
X64171851Y-25627282D01*
X64171855Y-25627277D01*
X64171860Y-25627274D01*
X64357274Y-25441860D01*
X64357277Y-25441855D01*
X64357282Y-25441851D01*
X64516924Y-25233803D01*
X64648043Y-25006697D01*
X64748398Y-24764419D01*
X64816270Y-24511116D01*
X64850500Y-24251120D01*
X64850500Y-23988880D01*
X64816270Y-23728884D01*
X64748398Y-23475581D01*
X64712888Y-23389852D01*
X64648046Y-23233309D01*
X64648041Y-23233299D01*
X64516924Y-23006196D01*
X64357281Y-22798148D01*
X64357274Y-22798140D01*
X64286315Y-22727181D01*
X64252830Y-22665858D01*
X64257814Y-22596166D01*
X64299686Y-22540233D01*
X64365150Y-22515816D01*
X64373996Y-22515500D01*
X64941016Y-22515500D01*
X64941018Y-22515500D01*
X65049237Y-22486503D01*
X65146263Y-22430485D01*
X65697759Y-21878987D01*
X65759080Y-21845504D01*
X65828771Y-21850488D01*
X65847426Y-21859277D01*
X65889112Y-21883344D01*
X65889120Y-21883347D01*
X65889123Y-21883349D01*
X65980480Y-21921190D01*
X66101113Y-21971158D01*
X66322762Y-22030548D01*
X66550266Y-22060500D01*
X66550273Y-22060500D01*
X66779727Y-22060500D01*
X66779734Y-22060500D01*
X67007238Y-22030548D01*
X67228887Y-21971158D01*
X67440888Y-21883344D01*
X67639612Y-21768611D01*
X67821661Y-21628919D01*
X67821669Y-21628910D01*
X67823050Y-21627701D01*
X67823550Y-21627468D01*
X67824881Y-21626448D01*
X67825109Y-21626745D01*
X67886435Y-21598305D01*
X67955650Y-21607843D01*
X68008721Y-21653288D01*
X68028798Y-21720211D01*
X68028800Y-21720937D01*
X68028800Y-25879062D01*
X68009115Y-25946101D01*
X67956311Y-25991856D01*
X67887153Y-26001800D01*
X67824989Y-25973410D01*
X67824881Y-25973552D01*
X67824267Y-25973081D01*
X67823597Y-25972775D01*
X67823062Y-25972308D01*
X67821672Y-25971090D01*
X67821663Y-25971083D01*
X67821661Y-25971081D01*
X67748726Y-25915116D01*
X67639617Y-25831392D01*
X67440890Y-25716657D01*
X67440876Y-25716650D01*
X67228887Y-25628842D01*
X67155189Y-25609095D01*
X67007238Y-25569452D01*
X66969215Y-25564446D01*
X66779741Y-25539500D01*
X66779734Y-25539500D01*
X66550266Y-25539500D01*
X66550258Y-25539500D01*
X66333715Y-25568009D01*
X66322762Y-25569452D01*
X66229076Y-25594554D01*
X66101112Y-25628842D01*
X65889123Y-25716650D01*
X65889109Y-25716657D01*
X65690382Y-25831392D01*
X65508338Y-25971081D01*
X65346081Y-26133338D01*
X65206392Y-26315382D01*
X65091657Y-26514109D01*
X65091650Y-26514123D01*
X65003842Y-26726112D01*
X64944453Y-26947759D01*
X64944451Y-26947770D01*
X64914500Y-27175258D01*
X64914500Y-27404741D01*
X64934977Y-27560271D01*
X64944452Y-27632238D01*
X64978327Y-27758661D01*
X65003842Y-27853887D01*
X65091650Y-28065876D01*
X65091657Y-28065890D01*
X65131749Y-28135331D01*
X65202257Y-28257456D01*
X65206392Y-28264617D01*
X65346081Y-28446661D01*
X65346089Y-28446670D01*
X65508330Y-28608911D01*
X65508338Y-28608918D01*
X65508339Y-28608919D01*
X65557030Y-28646281D01*
X65690382Y-28748607D01*
X65690385Y-28748608D01*
X65690388Y-28748611D01*
X65889112Y-28863344D01*
X65889117Y-28863346D01*
X65889123Y-28863349D01*
X65943173Y-28885737D01*
X66101113Y-28951158D01*
X66322762Y-29010548D01*
X66550266Y-29040500D01*
X66550273Y-29040500D01*
X66779727Y-29040500D01*
X66779734Y-29040500D01*
X67007238Y-29010548D01*
X67228887Y-28951158D01*
X67440888Y-28863344D01*
X67639612Y-28748611D01*
X67821661Y-28608919D01*
X67821669Y-28608910D01*
X67823050Y-28607701D01*
X67823550Y-28607468D01*
X67824881Y-28606448D01*
X67825109Y-28606745D01*
X67886435Y-28578305D01*
X67955650Y-28587843D01*
X68008721Y-28633288D01*
X68028798Y-28700211D01*
X68028800Y-28700937D01*
X68028800Y-40478089D01*
X68009115Y-40545128D01*
X67992481Y-40565770D01*
X61515034Y-47043216D01*
X61453711Y-47076701D01*
X61384019Y-47071717D01*
X61371058Y-47066020D01*
X61274378Y-47016758D01*
X61274375Y-47016757D01*
X61034785Y-46938911D01*
X60910373Y-46919206D01*
X60785962Y-46899501D01*
X60534038Y-46899501D01*
X60451097Y-46912637D01*
X60285214Y-46938911D01*
X60045624Y-47016757D01*
X60045621Y-47016758D01*
X59821152Y-47131133D01*
X59617351Y-47279202D01*
X59617346Y-47279206D01*
X59439206Y-47457346D01*
X59439202Y-47457351D01*
X59291133Y-47661152D01*
X59176758Y-47885621D01*
X59176757Y-47885624D01*
X59098911Y-48125214D01*
X59059501Y-48374038D01*
X59059501Y-48625961D01*
X59098911Y-48874785D01*
X59176757Y-49114375D01*
X59176758Y-49114378D01*
X59291133Y-49338847D01*
X59439202Y-49542648D01*
X59439206Y-49542653D01*
X59617346Y-49720793D01*
X59617351Y-49720797D01*
X59740395Y-49810193D01*
X59821156Y-49868869D01*
X59967890Y-49943634D01*
X60045621Y-49983241D01*
X60045624Y-49983242D01*
X60165419Y-50022165D01*
X60285216Y-50061089D01*
X60534038Y-50100499D01*
X60534039Y-50100499D01*
X60785961Y-50100499D01*
X60785962Y-50100499D01*
X61034784Y-50061089D01*
X61274378Y-49983241D01*
X61498844Y-49868869D01*
X61702655Y-49720792D01*
X61880792Y-49542655D01*
X62028869Y-49338844D01*
X62143241Y-49114378D01*
X62221089Y-48874784D01*
X62260499Y-48625962D01*
X62260499Y-48374038D01*
X62221089Y-48125216D01*
X62143241Y-47885622D01*
X62143239Y-47885617D01*
X62093979Y-47788941D01*
X62081082Y-47720272D01*
X62107358Y-47655531D01*
X62116773Y-47644973D01*
X68794785Y-40966963D01*
X68850803Y-40869937D01*
X68879800Y-40761718D01*
X68879800Y-40649681D01*
X68879800Y-24016530D01*
X70059500Y-24016530D01*
X70059500Y-24223469D01*
X70099868Y-24426412D01*
X70099870Y-24426420D01*
X70132945Y-24506271D01*
X70179059Y-24617598D01*
X70204432Y-24655571D01*
X70294024Y-24789657D01*
X70440342Y-24935975D01*
X70440345Y-24935977D01*
X70612402Y-25050941D01*
X70803580Y-25130130D01*
X71006530Y-25170499D01*
X71006534Y-25170500D01*
X71006535Y-25170500D01*
X71213466Y-25170500D01*
X71213467Y-25170499D01*
X71416420Y-25130130D01*
X71607598Y-25050941D01*
X71779655Y-24935977D01*
X71925977Y-24789655D01*
X72040941Y-24617598D01*
X72120130Y-24426420D01*
X72160500Y-24223465D01*
X72160500Y-24016535D01*
X72120130Y-23813580D01*
X72040941Y-23622402D01*
X71925977Y-23450345D01*
X71925975Y-23450342D01*
X71779657Y-23304024D01*
X71628543Y-23203054D01*
X71607598Y-23189059D01*
X71596973Y-23184658D01*
X71416420Y-23109870D01*
X71416412Y-23109868D01*
X71213469Y-23069500D01*
X71213465Y-23069500D01*
X71006535Y-23069500D01*
X71006530Y-23069500D01*
X70803587Y-23109868D01*
X70803579Y-23109870D01*
X70612403Y-23189058D01*
X70440342Y-23304024D01*
X70294024Y-23450342D01*
X70179058Y-23622403D01*
X70099870Y-23813579D01*
X70099868Y-23813587D01*
X70059500Y-24016530D01*
X68879800Y-24016530D01*
X68879800Y-19540982D01*
X68850803Y-19432763D01*
X68794785Y-19335737D01*
X68715563Y-19256515D01*
X67669863Y-18210815D01*
X67605179Y-18173469D01*
X67572839Y-18154798D01*
X67572838Y-18154797D01*
X67572837Y-18154797D01*
X67464618Y-18125800D01*
X64664718Y-18125800D01*
X64552681Y-18125800D01*
X64477901Y-18145837D01*
X64477900Y-18145836D01*
X64444464Y-18154796D01*
X64444459Y-18154798D01*
X64376173Y-18194224D01*
X64308273Y-18210697D01*
X64242246Y-18187845D01*
X64199056Y-18132924D01*
X64198862Y-18131704D01*
X63257216Y-17190058D01*
X63359970Y-17121401D01*
X63471401Y-17009970D01*
X63540058Y-16907216D01*
X64470539Y-17837697D01*
X64599836Y-17669195D01*
X64737472Y-17430802D01*
X64737479Y-17430787D01*
X64842819Y-17176471D01*
X64914069Y-16910565D01*
X64950000Y-16637641D01*
X64950000Y-16396530D01*
X75139500Y-16396530D01*
X75139500Y-16603469D01*
X75179868Y-16806412D01*
X75179870Y-16806420D01*
X75259058Y-16997596D01*
X75374024Y-17169657D01*
X75520342Y-17315975D01*
X75520345Y-17315977D01*
X75692402Y-17430941D01*
X75883580Y-17510130D01*
X76086530Y-17550499D01*
X76086534Y-17550500D01*
X76086535Y-17550500D01*
X76293466Y-17550500D01*
X76293467Y-17550499D01*
X76496420Y-17510130D01*
X76687598Y-17430941D01*
X76859655Y-17315977D01*
X77005977Y-17169655D01*
X77120941Y-16997598D01*
X77200130Y-16806420D01*
X77240500Y-16603465D01*
X77240500Y-16396535D01*
X77200130Y-16193580D01*
X77120941Y-16002402D01*
X77005977Y-15830345D01*
X77005975Y-15830342D01*
X76859657Y-15684024D01*
X76726082Y-15594773D01*
X76687598Y-15569059D01*
X76496420Y-15489870D01*
X76496412Y-15489868D01*
X76293469Y-15449500D01*
X76293465Y-15449500D01*
X76086535Y-15449500D01*
X76086530Y-15449500D01*
X75883587Y-15489868D01*
X75883579Y-15489870D01*
X75692403Y-15569058D01*
X75520342Y-15684024D01*
X75374024Y-15830342D01*
X75259058Y-16002403D01*
X75179870Y-16193579D01*
X75179868Y-16193587D01*
X75139500Y-16396530D01*
X64950000Y-16396530D01*
X64950000Y-16362358D01*
X64914069Y-16089434D01*
X64842819Y-15823528D01*
X64737479Y-15569212D01*
X64737472Y-15569197D01*
X64599836Y-15330803D01*
X64470539Y-15162301D01*
X63540058Y-16092782D01*
X63471401Y-15990030D01*
X63359970Y-15878599D01*
X63257216Y-15809941D01*
X64187697Y-14879459D01*
X64187697Y-14879458D01*
X64019200Y-14750166D01*
X63780802Y-14612527D01*
X63780787Y-14612520D01*
X63526471Y-14507180D01*
X63260565Y-14435930D01*
X62987642Y-14400000D01*
X62712358Y-14400000D01*
X62439434Y-14435930D01*
X62173528Y-14507180D01*
X61919212Y-14612520D01*
X61919197Y-14612527D01*
X61680799Y-14750166D01*
X61512301Y-14879458D01*
X61512301Y-14879459D01*
X62442783Y-15809941D01*
X62340030Y-15878599D01*
X62228599Y-15990030D01*
X62159941Y-16092783D01*
X61229459Y-15162301D01*
X61229458Y-15162301D01*
X61100166Y-15330799D01*
X60962527Y-15569197D01*
X60962520Y-15569212D01*
X60857180Y-15823528D01*
X60785930Y-16089434D01*
X60750000Y-16362358D01*
X60750000Y-16637641D01*
X60785930Y-16910565D01*
X60857180Y-17176471D01*
X60962520Y-17430787D01*
X60962527Y-17430802D01*
X61100166Y-17669200D01*
X61229459Y-17837697D01*
X62159941Y-16907216D01*
X62228599Y-17009970D01*
X62340030Y-17121401D01*
X62442783Y-17190058D01*
X61512301Y-18120539D01*
X61680803Y-18249836D01*
X61919197Y-18387472D01*
X61919212Y-18387479D01*
X62141581Y-18479586D01*
X62195985Y-18523426D01*
X62218050Y-18589720D01*
X62200771Y-18657420D01*
X62149634Y-18705031D01*
X62141583Y-18708708D01*
X62074113Y-18736655D01*
X62074109Y-18736657D01*
X61875382Y-18851392D01*
X61693338Y-18991081D01*
X61531081Y-19153338D01*
X61391394Y-19335379D01*
X61311338Y-19474040D01*
X61260770Y-19522255D01*
X61192163Y-19535477D01*
X61127299Y-19509509D01*
X61096564Y-19474039D01*
X61093403Y-19468564D01*
X61093403Y-19468563D01*
X61037385Y-19371537D01*
X60958163Y-19292315D01*
X53614519Y-11948671D01*
X53612655Y-11945258D01*
X71269500Y-11945258D01*
X71269500Y-12174741D01*
X71290766Y-12336265D01*
X71299452Y-12402238D01*
X71329425Y-12514100D01*
X71358842Y-12623887D01*
X71446650Y-12835876D01*
X71446657Y-12835890D01*
X71561392Y-13034617D01*
X71701081Y-13216661D01*
X71701089Y-13216670D01*
X71863330Y-13378911D01*
X71863338Y-13378918D01*
X71863339Y-13378919D01*
X71867120Y-13381820D01*
X72045382Y-13518607D01*
X72045385Y-13518608D01*
X72045388Y-13518611D01*
X72244112Y-13633344D01*
X72244117Y-13633346D01*
X72244123Y-13633349D01*
X72270301Y-13644192D01*
X72456113Y-13721158D01*
X72677762Y-13780548D01*
X72905266Y-13810500D01*
X72905273Y-13810500D01*
X73134727Y-13810500D01*
X73134734Y-13810500D01*
X73362238Y-13780548D01*
X73583887Y-13721158D01*
X73795888Y-13633344D01*
X73994612Y-13518611D01*
X74176661Y-13378919D01*
X74176665Y-13378914D01*
X74176670Y-13378911D01*
X74338911Y-13216670D01*
X74338914Y-13216665D01*
X74338919Y-13216661D01*
X74478611Y-13034612D01*
X74593344Y-12835888D01*
X74681158Y-12623887D01*
X74740548Y-12402238D01*
X74770500Y-12174734D01*
X74770500Y-11945266D01*
X74740548Y-11717762D01*
X74681158Y-11496113D01*
X74617270Y-11341875D01*
X74593349Y-11284123D01*
X74593346Y-11284117D01*
X74593344Y-11284112D01*
X74478611Y-11085388D01*
X74478608Y-11085385D01*
X74478607Y-11085382D01*
X74338918Y-10903338D01*
X74338911Y-10903330D01*
X74176670Y-10741089D01*
X74176661Y-10741081D01*
X73994617Y-10601392D01*
X73931937Y-10565204D01*
X73795888Y-10486656D01*
X73795876Y-10486650D01*
X73583887Y-10398842D01*
X73362238Y-10339452D01*
X73324215Y-10334446D01*
X73134741Y-10309500D01*
X73134734Y-10309500D01*
X72905266Y-10309500D01*
X72905258Y-10309500D01*
X72688715Y-10338009D01*
X72677762Y-10339452D01*
X72598989Y-10360559D01*
X72456112Y-10398842D01*
X72244123Y-10486650D01*
X72244109Y-10486657D01*
X72045382Y-10601392D01*
X71863338Y-10741081D01*
X71701081Y-10903338D01*
X71561392Y-11085382D01*
X71446657Y-11284109D01*
X71446650Y-11284123D01*
X71358842Y-11496112D01*
X71342937Y-11555473D01*
X71311217Y-11673856D01*
X71299453Y-11717759D01*
X71299451Y-11717770D01*
X71269500Y-11945258D01*
X53612655Y-11945258D01*
X53581034Y-11887348D01*
X53578200Y-11860990D01*
X53578200Y-11799528D01*
X53553202Y-11673861D01*
X53553201Y-11673860D01*
X53553201Y-11673856D01*
X53504165Y-11555473D01*
X53504164Y-11555472D01*
X53504161Y-11555466D01*
X53432976Y-11448931D01*
X53432973Y-11448927D01*
X53342372Y-11358326D01*
X53342368Y-11358323D01*
X53235833Y-11287138D01*
X53235824Y-11287133D01*
X53117444Y-11238099D01*
X53117438Y-11238097D01*
X52991771Y-11213100D01*
X52991769Y-11213100D01*
X52863631Y-11213100D01*
X52863629Y-11213100D01*
X52737961Y-11238097D01*
X52737955Y-11238099D01*
X52619575Y-11287133D01*
X52619566Y-11287138D01*
X52513031Y-11358323D01*
X52513027Y-11358326D01*
X52422426Y-11448927D01*
X52422423Y-11448931D01*
X52351238Y-11555466D01*
X52351233Y-11555475D01*
X52302199Y-11673855D01*
X52302197Y-11673861D01*
X52277200Y-11799528D01*
X52277200Y-11799531D01*
X52277200Y-11927669D01*
X52277200Y-11927671D01*
X52277199Y-11927671D01*
X49398700Y-11927671D01*
X49398700Y-11175718D01*
X49418385Y-11108679D01*
X49435023Y-11088033D01*
X49437674Y-11085382D01*
X49442314Y-11080742D01*
X49518975Y-10966011D01*
X49571780Y-10838528D01*
X49591245Y-10740671D01*
X49598700Y-10703195D01*
X49598700Y-10565204D01*
X49571781Y-10429877D01*
X49571780Y-10429876D01*
X49571780Y-10429872D01*
X49544789Y-10364710D01*
X49518978Y-10302395D01*
X49518971Y-10302382D01*
X49442314Y-10187658D01*
X49442311Y-10187654D01*
X49344745Y-10090088D01*
X49344741Y-10090085D01*
X49230017Y-10013428D01*
X49230004Y-10013421D01*
X49102532Y-9960621D01*
X49102522Y-9960618D01*
X48967195Y-9933700D01*
X48967193Y-9933700D01*
X48956876Y-9933700D01*
X48889837Y-9914015D01*
X48869195Y-9897381D01*
X42771016Y-3799202D01*
X42771014Y-3799200D01*
X42713950Y-3766254D01*
X42656887Y-3733308D01*
X42593239Y-3716254D01*
X42529592Y-3699200D01*
X23926193Y-3699200D01*
X23794408Y-3699200D01*
X23667112Y-3733308D01*
X23552986Y-3799200D01*
X23552983Y-3799202D01*
X23393881Y-3958305D01*
X23332558Y-3991790D01*
X23262866Y-3986806D01*
X23206933Y-3944934D01*
X23182516Y-3879470D01*
X23182200Y-3870624D01*
X23182200Y-3783328D01*
X23157202Y-3657661D01*
X23157201Y-3657660D01*
X23157201Y-3657656D01*
X23108165Y-3539273D01*
X23108164Y-3539272D01*
X23108161Y-3539266D01*
X23044201Y-3443544D01*
X23044200Y-3443542D01*
X23036977Y-3432732D01*
X23036973Y-3432727D01*
X22982957Y-3378711D01*
X74649500Y-3378711D01*
X74649500Y-3621288D01*
X74681161Y-3861785D01*
X74743947Y-4096104D01*
X74768561Y-4155527D01*
X74836776Y-4320212D01*
X74958064Y-4530289D01*
X74958066Y-4530292D01*
X74958067Y-4530293D01*
X75105733Y-4722736D01*
X75105739Y-4722743D01*
X75277256Y-4894260D01*
X75277263Y-4894266D01*
X75291777Y-4905403D01*
X75469711Y-5041936D01*
X75679788Y-5163224D01*
X75903900Y-5256054D01*
X76138211Y-5318838D01*
X76318586Y-5342584D01*
X76378711Y-5350500D01*
X76378712Y-5350500D01*
X76621289Y-5350500D01*
X76669388Y-5344167D01*
X76861789Y-5318838D01*
X77096100Y-5256054D01*
X77320212Y-5163224D01*
X77530289Y-5041936D01*
X77722738Y-4894265D01*
X77894265Y-4722738D01*
X78041936Y-4530289D01*
X78163224Y-4320212D01*
X78256054Y-4096100D01*
X78318838Y-3861789D01*
X78350500Y-3621288D01*
X78350500Y-3378712D01*
X78318838Y-3138211D01*
X78256054Y-2903900D01*
X78163224Y-2679788D01*
X78041936Y-2469711D01*
X77894265Y-2277262D01*
X77894260Y-2277256D01*
X77722743Y-2105739D01*
X77722736Y-2105733D01*
X77530293Y-1958067D01*
X77530292Y-1958066D01*
X77530289Y-1958064D01*
X77320212Y-1836776D01*
X77320205Y-1836773D01*
X77096104Y-1743947D01*
X76861785Y-1681161D01*
X76621289Y-1649500D01*
X76621288Y-1649500D01*
X76378712Y-1649500D01*
X76378711Y-1649500D01*
X76138214Y-1681161D01*
X75903895Y-1743947D01*
X75679794Y-1836773D01*
X75679785Y-1836777D01*
X75469706Y-1958067D01*
X75277263Y-2105733D01*
X75277256Y-2105739D01*
X75105739Y-2277256D01*
X75105733Y-2277263D01*
X74958067Y-2469706D01*
X74836777Y-2679785D01*
X74836773Y-2679794D01*
X74743947Y-2903895D01*
X74681161Y-3138214D01*
X74649500Y-3378711D01*
X22982957Y-3378711D01*
X22946372Y-3342126D01*
X22946368Y-3342123D01*
X22839833Y-3270938D01*
X22839824Y-3270933D01*
X22721444Y-3221899D01*
X22721438Y-3221897D01*
X22595771Y-3196900D01*
X22595769Y-3196900D01*
X22534310Y-3196900D01*
X22467271Y-3177215D01*
X22446629Y-3160581D01*
X20690665Y-1404617D01*
X20690663Y-1404615D01*
X20593637Y-1348597D01*
X20485418Y-1319600D01*
X19579918Y-1319600D01*
X19467881Y-1319600D01*
X19359663Y-1348597D01*
X19359661Y-1348598D01*
X19359660Y-1348598D01*
X19262640Y-1404613D01*
X19262634Y-1404617D01*
X18621617Y-2045634D01*
X18621613Y-2045640D01*
X18565598Y-2142660D01*
X18565597Y-2142663D01*
X18536600Y-2250882D01*
X18536600Y-10043282D01*
X18536600Y-10155318D01*
X18565597Y-10263537D01*
X18621615Y-10360563D01*
X18621617Y-10360565D01*
X20426081Y-12165029D01*
X20459566Y-12226352D01*
X20462400Y-12252710D01*
X20462400Y-16046645D01*
X20442715Y-16113684D01*
X20389911Y-16159439D01*
X20320753Y-16169383D01*
X20279954Y-16156007D01*
X20275332Y-16153536D01*
X20156944Y-16104499D01*
X20156938Y-16104497D01*
X20031271Y-16079500D01*
X20031269Y-16079500D01*
X19903131Y-16079500D01*
X19903129Y-16079500D01*
X19777461Y-16104497D01*
X19777455Y-16104499D01*
X19659075Y-16153533D01*
X19659066Y-16153538D01*
X19552531Y-16224723D01*
X19552527Y-16224726D01*
X19461926Y-16315327D01*
X19461923Y-16315331D01*
X19390738Y-16421866D01*
X19390733Y-16421875D01*
X19341699Y-16540255D01*
X19341697Y-16540261D01*
X19316700Y-16665928D01*
X19316700Y-16727390D01*
X19297015Y-16794429D01*
X19280381Y-16815071D01*
X17949617Y-18145834D01*
X17949613Y-18145840D01*
X17893598Y-18242860D01*
X17893597Y-18242863D01*
X17864600Y-18351082D01*
X17864600Y-29313000D01*
X17844915Y-29380039D01*
X17792111Y-29425794D01*
X17740600Y-29437000D01*
X15483282Y-29437000D01*
X15375063Y-29465997D01*
X15375060Y-29465998D01*
X15278040Y-29522013D01*
X15278034Y-29522017D01*
X14588771Y-30211281D01*
X14527448Y-30244766D01*
X14501090Y-30247600D01*
X14439629Y-30247600D01*
X14313961Y-30272597D01*
X14313955Y-30272599D01*
X14195575Y-30321633D01*
X14195566Y-30321638D01*
X14089031Y-30392823D01*
X14089027Y-30392826D01*
X13998426Y-30483427D01*
X13998423Y-30483431D01*
X13927238Y-30589966D01*
X13927233Y-30589975D01*
X13878199Y-30708355D01*
X13878197Y-30708361D01*
X13853200Y-30834028D01*
X13853200Y-30834031D01*
X13853200Y-30962169D01*
X13853200Y-30962171D01*
X13853199Y-30962171D01*
X13878197Y-31087838D01*
X13878199Y-31087844D01*
X13927233Y-31206224D01*
X13927238Y-31206233D01*
X13998423Y-31312768D01*
X13998426Y-31312772D01*
X14089027Y-31403373D01*
X14089031Y-31403376D01*
X14195566Y-31474561D01*
X14195572Y-31474564D01*
X14195573Y-31474565D01*
X14313956Y-31523601D01*
X14313960Y-31523601D01*
X14313961Y-31523602D01*
X14439628Y-31548600D01*
X14473990Y-31548600D01*
X14541029Y-31568285D01*
X14586784Y-31621089D01*
X14596728Y-31690247D01*
X14567703Y-31753803D01*
X14561676Y-31760275D01*
X13907882Y-32414069D01*
X13257181Y-33064770D01*
X13195858Y-33098255D01*
X13126166Y-33093271D01*
X13070233Y-33051399D01*
X13045816Y-32985935D01*
X13045500Y-32977089D01*
X13045500Y-29009432D01*
X13065185Y-28942393D01*
X13066398Y-28940541D01*
X13121461Y-28858133D01*
X13121461Y-28858132D01*
X13121465Y-28858127D01*
X13170501Y-28739744D01*
X13182745Y-28678189D01*
X13195500Y-28614071D01*
X13195500Y-28485928D01*
X13170502Y-28360261D01*
X13170501Y-28360260D01*
X13170501Y-28360256D01*
X13121465Y-28241873D01*
X13121464Y-28241872D01*
X13121461Y-28241866D01*
X13050276Y-28135331D01*
X13050273Y-28135327D01*
X13006819Y-28091873D01*
X12973334Y-28030550D01*
X12970500Y-28004192D01*
X12970500Y-7888983D01*
X12970500Y-7888982D01*
X12941503Y-7780763D01*
X12885485Y-7683737D01*
X12806263Y-7604515D01*
X12806262Y-7604514D01*
X12801932Y-7600184D01*
X12801921Y-7600174D01*
X12340819Y-7139071D01*
X12307334Y-7077748D01*
X12304500Y-7051390D01*
X12304500Y-6989928D01*
X12279502Y-6864261D01*
X12279501Y-6864260D01*
X12279501Y-6864256D01*
X12230465Y-6745873D01*
X12230464Y-6745872D01*
X12230461Y-6745866D01*
X12159276Y-6639331D01*
X12159273Y-6639327D01*
X12068672Y-6548726D01*
X12068668Y-6548723D01*
X11962133Y-6477538D01*
X11962124Y-6477533D01*
X11843744Y-6428499D01*
X11843738Y-6428497D01*
X11718071Y-6403500D01*
X11718069Y-6403500D01*
X11589931Y-6403500D01*
X11589929Y-6403500D01*
X11464261Y-6428497D01*
X11464255Y-6428499D01*
X11345875Y-6477533D01*
X11345866Y-6477538D01*
X11239331Y-6548723D01*
X11239327Y-6548726D01*
X11148726Y-6639327D01*
X11148723Y-6639331D01*
X11077538Y-6745866D01*
X11077533Y-6745875D01*
X11028499Y-6864255D01*
X11028497Y-6864261D01*
X11003500Y-6989928D01*
X11003500Y-6989931D01*
X11003500Y-7118069D01*
X11003500Y-7118071D01*
X11003499Y-7118071D01*
X11028497Y-7243738D01*
X11028499Y-7243744D01*
X11077533Y-7362124D01*
X11077538Y-7362133D01*
X11148723Y-7468668D01*
X11148726Y-7468672D01*
X11239327Y-7559273D01*
X11239331Y-7559276D01*
X11345866Y-7630461D01*
X11345872Y-7630464D01*
X11345873Y-7630465D01*
X11464256Y-7679501D01*
X11464260Y-7679501D01*
X11464261Y-7679502D01*
X11589928Y-7704500D01*
X11589931Y-7704500D01*
X11651390Y-7704500D01*
X11718429Y-7724185D01*
X11739071Y-7740819D01*
X12083181Y-8084928D01*
X12116666Y-8146251D01*
X12119500Y-8172609D01*
X12119500Y-26926565D01*
X12099815Y-26993604D01*
X12047011Y-27039359D01*
X11977853Y-27049303D01*
X11926610Y-27029668D01*
X11874631Y-26994937D01*
X11874624Y-26994933D01*
X11756244Y-26945899D01*
X11756238Y-26945897D01*
X11630571Y-26920900D01*
X11630569Y-26920900D01*
X11502431Y-26920900D01*
X11502429Y-26920900D01*
X11376761Y-26945897D01*
X11376755Y-26945899D01*
X11258375Y-26994933D01*
X11258366Y-26994938D01*
X11151831Y-27066123D01*
X11151827Y-27066126D01*
X11061226Y-27156727D01*
X11061223Y-27156731D01*
X10990038Y-27263266D01*
X10990033Y-27263275D01*
X10940999Y-27381655D01*
X10940997Y-27381661D01*
X10916000Y-27507328D01*
X10916000Y-27568790D01*
X10896315Y-27635829D01*
X10879681Y-27656471D01*
X9517471Y-29018681D01*
X9456148Y-29052166D01*
X9429790Y-29055000D01*
X9368329Y-29055000D01*
X9242661Y-29079997D01*
X9242655Y-29079999D01*
X9124275Y-29129033D01*
X9124266Y-29129038D01*
X9017731Y-29200223D01*
X9017727Y-29200226D01*
X8927126Y-29290827D01*
X8927123Y-29290831D01*
X8855938Y-29397366D01*
X8855933Y-29397375D01*
X8806899Y-29515755D01*
X8806897Y-29515761D01*
X8781900Y-29641428D01*
X8781900Y-29641431D01*
X8781900Y-29769569D01*
X8781900Y-29769571D01*
X8781899Y-29769571D01*
X8806897Y-29895238D01*
X8806899Y-29895244D01*
X8855933Y-30013624D01*
X8855938Y-30013633D01*
X8927123Y-30120168D01*
X8927126Y-30120172D01*
X9017727Y-30210773D01*
X9017731Y-30210776D01*
X9124266Y-30281961D01*
X9124272Y-30281964D01*
X9124273Y-30281965D01*
X9242656Y-30331001D01*
X9242660Y-30331001D01*
X9242661Y-30331002D01*
X9368328Y-30356000D01*
X9368331Y-30356000D01*
X9496471Y-30356000D01*
X9581015Y-30339182D01*
X9622144Y-30331001D01*
X9740527Y-30281965D01*
X9847069Y-30210776D01*
X9937676Y-30120169D01*
X10008865Y-30013627D01*
X10057901Y-29895244D01*
X10082900Y-29769569D01*
X10082900Y-29708110D01*
X10102585Y-29641071D01*
X10119219Y-29620429D01*
X11481429Y-28258219D01*
X11542752Y-28224734D01*
X11550805Y-28223259D01*
X11559910Y-28221900D01*
X11630569Y-28221900D01*
X11756244Y-28196901D01*
X11772491Y-28190171D01*
X11787560Y-28187922D01*
X11807675Y-28190704D01*
X11827871Y-28188531D01*
X11841583Y-28195393D01*
X11856771Y-28197494D01*
X11872191Y-28210711D01*
X11890353Y-28219801D01*
X11898178Y-28232986D01*
X11909819Y-28242965D01*
X11915644Y-28262419D01*
X11926011Y-28279887D01*
X11925464Y-28295211D01*
X11929863Y-28309898D01*
X11924246Y-28329413D01*
X11923523Y-28349712D01*
X11920431Y-28358003D01*
X11919502Y-28360245D01*
X11919497Y-28360261D01*
X11894500Y-28485928D01*
X11894500Y-28485931D01*
X11894500Y-28614069D01*
X11894500Y-28614071D01*
X11894499Y-28614071D01*
X11919497Y-28739738D01*
X11919499Y-28739744D01*
X11968533Y-28858124D01*
X11968538Y-28858133D01*
X12023602Y-28940541D01*
X12044480Y-29007218D01*
X12044500Y-29009432D01*
X12044500Y-31830193D01*
X12024815Y-31897232D01*
X11972011Y-31942987D01*
X11902853Y-31952931D01*
X11839297Y-31923906D01*
X11832819Y-31917874D01*
X11759671Y-31844726D01*
X11759667Y-31844723D01*
X11653132Y-31773538D01*
X11653123Y-31773533D01*
X11534743Y-31724499D01*
X11534737Y-31724497D01*
X11409070Y-31699500D01*
X11409068Y-31699500D01*
X11280930Y-31699500D01*
X11280928Y-31699500D01*
X11155260Y-31724497D01*
X11155250Y-31724500D01*
X11035175Y-31774237D01*
X10965706Y-31781706D01*
X10950126Y-31777839D01*
X5397858Y-30011208D01*
X5339943Y-29972123D01*
X5324806Y-29946991D01*
X5324334Y-29947244D01*
X5321467Y-29941882D01*
X5321464Y-29941873D01*
X5290004Y-29894790D01*
X5250278Y-29835335D01*
X5250272Y-29835327D01*
X5159671Y-29744726D01*
X5159667Y-29744723D01*
X5053132Y-29673538D01*
X5053123Y-29673533D01*
X4934743Y-29624499D01*
X4934737Y-29624497D01*
X4809070Y-29599500D01*
X4809068Y-29599500D01*
X4680930Y-29599500D01*
X4680928Y-29599500D01*
X4555260Y-29624497D01*
X4555254Y-29624499D01*
X4436874Y-29673533D01*
X4436865Y-29673538D01*
X4330330Y-29744723D01*
X4330326Y-29744726D01*
X4239725Y-29835327D01*
X4239722Y-29835331D01*
X4168537Y-29941866D01*
X4168532Y-29941875D01*
X4119498Y-30060255D01*
X4119496Y-30060261D01*
X4094499Y-30185928D01*
X4094499Y-30185931D01*
X4094499Y-30314069D01*
X4094499Y-30314071D01*
X4094498Y-30314071D01*
X500000Y-30314071D01*
X500000Y-26480000D01*
X872150Y-26480000D01*
X1525735Y-26480000D01*
X1509940Y-26495795D01*
X1470444Y-26564204D01*
X1450000Y-26640504D01*
X1450000Y-26719496D01*
X1470444Y-26795796D01*
X1509940Y-26864205D01*
X1525735Y-26880000D01*
X872150Y-26880000D01*
X884584Y-26942512D01*
X884586Y-26942520D01*
X952428Y-27106307D01*
X952433Y-27106316D01*
X1050923Y-27253716D01*
X1050926Y-27253720D01*
X1176279Y-27379073D01*
X1176283Y-27379076D01*
X1323683Y-27477566D01*
X1323692Y-27477571D01*
X1487479Y-27545413D01*
X1487487Y-27545415D01*
X1661353Y-27579999D01*
X1661357Y-27580000D01*
X1850000Y-27580000D01*
X1850000Y-26980000D01*
X2250000Y-26980000D01*
X2250000Y-27580000D01*
X2438643Y-27580000D01*
X2438646Y-27579999D01*
X2612512Y-27545415D01*
X2612520Y-27545413D01*
X2776307Y-27477571D01*
X2776316Y-27477566D01*
X2923716Y-27379076D01*
X2923720Y-27379073D01*
X3049073Y-27253720D01*
X3049076Y-27253716D01*
X3147566Y-27106316D01*
X3147571Y-27106307D01*
X3215413Y-26942520D01*
X3215415Y-26942512D01*
X3227850Y-26880000D01*
X2574265Y-26880000D01*
X2590060Y-26864205D01*
X2629556Y-26795796D01*
X2650000Y-26719496D01*
X2650000Y-26640504D01*
X2629556Y-26564204D01*
X2590060Y-26495795D01*
X2574265Y-26480000D01*
X3227850Y-26480000D01*
X4802150Y-26480000D01*
X5455735Y-26480000D01*
X5439940Y-26495795D01*
X5400444Y-26564204D01*
X5380000Y-26640504D01*
X5380000Y-26719496D01*
X5400444Y-26795796D01*
X5439940Y-26864205D01*
X5455735Y-26880000D01*
X4802150Y-26880000D01*
X4814584Y-26942512D01*
X4814586Y-26942520D01*
X4882428Y-27106307D01*
X4882433Y-27106316D01*
X4980923Y-27253716D01*
X4980926Y-27253720D01*
X5106279Y-27379073D01*
X5106283Y-27379076D01*
X5253683Y-27477566D01*
X5253691Y-27477570D01*
X5269517Y-27484125D01*
X5323922Y-27527964D01*
X5345990Y-27594257D01*
X5328713Y-27661957D01*
X5309751Y-27686369D01*
X5239485Y-27756635D01*
X5163719Y-27887863D01*
X5136267Y-27990318D01*
X5124500Y-28034234D01*
X5124500Y-28185766D01*
X5144109Y-28258950D01*
X5163719Y-28332136D01*
X5201602Y-28397750D01*
X5239485Y-28463365D01*
X5346635Y-28570515D01*
X5477865Y-28646281D01*
X5624234Y-28685500D01*
X5624236Y-28685500D01*
X5775764Y-28685500D01*
X5775766Y-28685500D01*
X5922135Y-28646281D01*
X6053365Y-28570515D01*
X6160515Y-28463365D01*
X6236281Y-28332135D01*
X6275500Y-28185766D01*
X6275500Y-28034234D01*
X6236281Y-27887865D01*
X6160515Y-27756635D01*
X6066319Y-27662439D01*
X6032834Y-27601116D01*
X6030000Y-27574758D01*
X6030000Y-26980000D01*
X6430000Y-26980000D01*
X6430000Y-27580000D01*
X6868643Y-27580000D01*
X6868646Y-27579999D01*
X7042512Y-27545415D01*
X7042520Y-27545413D01*
X7206307Y-27477571D01*
X7206316Y-27477566D01*
X7353716Y-27379076D01*
X7353720Y-27379073D01*
X7479073Y-27253720D01*
X7479076Y-27253716D01*
X7577566Y-27106316D01*
X7577571Y-27106307D01*
X7645413Y-26942520D01*
X7645415Y-26942512D01*
X7657850Y-26880000D01*
X7004265Y-26880000D01*
X7020060Y-26864205D01*
X7059556Y-26795796D01*
X7080000Y-26719496D01*
X7080000Y-26640504D01*
X7059556Y-26564204D01*
X7020060Y-26495795D01*
X7004265Y-26480000D01*
X7657850Y-26480000D01*
X7645415Y-26417487D01*
X7645413Y-26417479D01*
X7577571Y-26253692D01*
X7577566Y-26253683D01*
X7479076Y-26106283D01*
X7479073Y-26106279D01*
X7353720Y-25980926D01*
X7353716Y-25980923D01*
X7206316Y-25882433D01*
X7206307Y-25882428D01*
X7042520Y-25814586D01*
X7042512Y-25814584D01*
X6868646Y-25780000D01*
X6430000Y-25780000D01*
X6430000Y-26380000D01*
X6030000Y-26380000D01*
X6030000Y-25780000D01*
X5591353Y-25780000D01*
X5417487Y-25814584D01*
X5417479Y-25814586D01*
X5253692Y-25882428D01*
X5253683Y-25882433D01*
X5106283Y-25980923D01*
X5106279Y-25980926D01*
X4980926Y-26106279D01*
X4980923Y-26106283D01*
X4882433Y-26253683D01*
X4882428Y-26253692D01*
X4814586Y-26417479D01*
X4814584Y-26417487D01*
X4802150Y-26480000D01*
X3227850Y-26480000D01*
X3215415Y-26417487D01*
X3215413Y-26417479D01*
X3147571Y-26253692D01*
X3147566Y-26253683D01*
X3049076Y-26106283D01*
X3049073Y-26106279D01*
X2923720Y-25980926D01*
X2923716Y-25980923D01*
X2776316Y-25882433D01*
X2776307Y-25882428D01*
X2612520Y-25814586D01*
X2612512Y-25814584D01*
X2438646Y-25780000D01*
X2250000Y-25780000D01*
X2250000Y-26380000D01*
X1850000Y-26380000D01*
X1850000Y-25780000D01*
X1661353Y-25780000D01*
X1487487Y-25814584D01*
X1487479Y-25814586D01*
X1323692Y-25882428D01*
X1323683Y-25882433D01*
X1176283Y-25980923D01*
X1176279Y-25980926D01*
X1050926Y-26106279D01*
X1050923Y-26106283D01*
X952433Y-26253683D01*
X952428Y-26253692D01*
X884586Y-26417479D01*
X884584Y-26417487D01*
X872150Y-26480000D01*
X500000Y-26480000D01*
X500000Y-3378711D01*
X1649500Y-3378711D01*
X1649500Y-3621288D01*
X1681161Y-3861785D01*
X1743947Y-4096104D01*
X1768561Y-4155527D01*
X1836776Y-4320212D01*
X1958064Y-4530289D01*
X1958066Y-4530292D01*
X1958067Y-4530293D01*
X2105733Y-4722736D01*
X2105739Y-4722743D01*
X2277256Y-4894260D01*
X2277263Y-4894266D01*
X2291777Y-4905403D01*
X2469711Y-5041936D01*
X2679788Y-5163224D01*
X2903900Y-5256054D01*
X3138211Y-5318838D01*
X3318586Y-5342584D01*
X3378711Y-5350500D01*
X3378712Y-5350500D01*
X3621289Y-5350500D01*
X3669388Y-5344167D01*
X3861789Y-5318838D01*
X4096100Y-5256054D01*
X4320212Y-5163224D01*
X4530289Y-5041936D01*
X4722738Y-4894265D01*
X4894265Y-4722738D01*
X5041936Y-4530289D01*
X5163224Y-4320212D01*
X5256054Y-4096100D01*
X5318838Y-3861789D01*
X5350500Y-3621288D01*
X5350500Y-3378712D01*
X5318838Y-3138211D01*
X5256054Y-2903900D01*
X5163224Y-2679788D01*
X5041936Y-2469711D01*
X4894265Y-2277262D01*
X4894260Y-2277256D01*
X4722743Y-2105739D01*
X4722736Y-2105733D01*
X4530293Y-1958067D01*
X4530292Y-1958066D01*
X4530289Y-1958064D01*
X4320212Y-1836776D01*
X4320205Y-1836773D01*
X4096104Y-1743947D01*
X3861785Y-1681161D01*
X3621289Y-1649500D01*
X3621288Y-1649500D01*
X3378712Y-1649500D01*
X3378711Y-1649500D01*
X3138214Y-1681161D01*
X2903895Y-1743947D01*
X2679794Y-1836773D01*
X2679785Y-1836777D01*
X2469706Y-1958067D01*
X2277263Y-2105733D01*
X2277256Y-2105739D01*
X2105739Y-2277256D01*
X2105733Y-2277263D01*
X1958067Y-2469706D01*
X1836777Y-2679785D01*
X1836773Y-2679794D01*
X1743947Y-2903895D01*
X1681161Y-3138214D01*
X1649500Y-3378711D01*
X500000Y-3378711D01*
X500000Y-1620975D01*
X502183Y-1610804D01*
X501167Y-1604003D01*
X510924Y-1570085D01*
X549360Y-1484683D01*
X549364Y-1484674D01*
X556312Y-1471434D01*
X685975Y-1256946D01*
X694462Y-1244650D01*
X849033Y-1047354D01*
X858948Y-1036163D01*
X1036162Y-858949D01*
X1047353Y-849034D01*
X1244649Y-694462D01*
X1256944Y-685975D01*
X1471438Y-556310D01*
X1484667Y-549367D01*
X1570085Y-510923D01*
X1620975Y-500000D01*
X78379024Y-500000D01*
X78429912Y-510923D01*
G37*
G04 #@! TD.AperFunction*
M02*
