M48
; DRILL file KiCad 10.0.4 date 2026-09-02T14:26:12
; FORMAT={-:-/ absolute / metric / decimal}
; #@! TF.CreationDate,2026-09-02T14:26:12+01:00
; #@! TF.GenerationSoftware,Kicad,Pcbnew,10.0.4
; #@! TF.FileFunction,Plated,1,2,PTH
FMAT,2
METRIC
; #@! TA.AperFunction,Plated,PTH,ViaDrill
T1C0.300
; #@! TA.AperFunction,Plated,PTH,ComponentDrill
T2C0.300
; #@! TA.AperFunction,Plated,PTH,ViaDrill
T3C0.350
; #@! TA.AperFunction,Plated,PTH,ViaDrill
T4C0.400
; #@! TA.AperFunction,Plated,PTH,ComponentDrill
T5C0.600
; #@! TA.AperFunction,Plated,PTH,ComponentDrill
T6C1.000
; #@! TA.AperFunction,Plated,PTH,ComponentDrill
T7C1.200
; #@! TA.AperFunction,Plated,PTH,ComponentDrill
T8C1.400
; #@! TA.AperFunction,Plated,PTH,ComponentDrill
T9C1.600
%
G90
G05
T1
X9.69Y-7.203
X10.975Y-33.035
X12.8Y-30.105
X13.213Y-36.038
X14.719Y-31.306
X14.761Y-41.356
X15.874Y-27.973
X19.967Y-16.73
X20.193Y-18.92
X22.533Y-3.773
X22.533Y-6.57
X22.534Y-7.84
X22.937Y-11.65
X22.937Y-15.46
X25.793Y-20.544
X27.063Y-20.546
X28.435Y-20.889
X33.58Y-46.15
X35.337Y-21.91
X35.881Y-12.663
X37.23Y-12.8
X40.033Y-6.57
X40.07Y-10.491
X40.724Y-5.557
X41.906Y-42.731
X42.11Y-18.927
X42.871Y-36.234
X43.175Y-14.603
X44.616Y-38.415
X46.858Y-13.268
X51.869Y-11.945
X52.215Y-21.798
X54.761Y-21.266
X61.913Y-37.92
X65.5Y-43.195
T2
X27.1Y-8.51
X27.1Y-9.91
X27.8Y-7.81
X27.8Y-9.21
X27.8Y-10.61
X28.5Y-8.51
X28.5Y-9.91
X29.2Y-7.81
X29.2Y-9.21
X29.2Y-10.61
X29.9Y-8.51
X29.9Y-9.91
T3
X4.745Y-30.25
X5.0Y-10.0
X5.0Y-15.0
X5.0Y-25.0
X5.0Y-40.0
X5.0Y-45.0
X7.1Y-12.7
X7.75Y-49.85
X10.0Y-25.0
X10.0Y-50.0
X11.2Y-21.0
X11.545Y-32.35
X12.545Y-27.85
X12.545Y-34.15
X14.0Y-24.025
X14.0Y-34.025
X14.2Y-9.5
X15.0Y-10.0
X15.0Y-50.0
X15.975Y-21.0
X16.5Y-33.55
X17.2Y-42.5
X17.25Y-49.85
X18.0Y-5.025
X18.75Y-49.85
X19.7Y-3.5
X20.0Y-25.0
X20.0Y-35.0
X20.0Y-40.0
X20.0Y-50.0
X25.0Y-5.0
X25.0Y-15.0
X25.0Y-25.0
X25.0Y-30.0
X25.0Y-35.0
X25.0Y-50.0
X28.25Y-49.85
X29.75Y-49.85
X30.0Y-15.0
X30.0Y-25.0
X30.0Y-30.0
X30.0Y-35.0
X30.0Y-40.0
X35.0Y-5.0
X35.0Y-10.0
X35.0Y-15.0
X35.0Y-25.0
X35.0Y-30.0
X35.0Y-35.0
X35.0Y-50.0
X39.25Y-49.85
X40.0Y-40.0
X40.975Y-43.5
X45.0Y-40.0
X45.0Y-50.0
X45.975Y-17.0
X47.45Y-50.15
X49.975Y-7.0
X50.0Y-5.0
X50.0Y-45.0
X52.2Y-13.905
X54.062Y-35.0
X55.0Y-5.0
X55.0Y-10.0
X55.0Y-15.0
X55.0Y-30.0
X56.425Y-20.0
X60.0Y-5.0
X60.0Y-10.0
X60.0Y-15.0
X60.0Y-30.0
X65.0Y-5.0
X65.0Y-10.0
X65.0Y-15.0
X65.0Y-50.0
X70.0Y-5.0
X70.0Y-50.0
X75.0Y-20.0
X75.0Y-25.0
X75.0Y-30.0
T4
X10.046Y-10.504
X10.487Y-17.3
X10.492Y-41.682
X21.622Y-42.245
X40.149Y-45.206
X49.375Y-9.149
X56.946Y-36.096
X63.702Y-38.0
T6
X43.0Y-22.0
X43.0Y-24.54
X43.0Y-27.08
X43.0Y-29.62
X43.0Y-32.16
X43.0Y-34.7
X47.5Y-22.0
X47.5Y-24.54
X47.5Y-27.08
X47.5Y-29.62
T7
X62.85Y-20.31
X66.665Y-20.31
X66.665Y-27.29
X73.02Y-12.06
T8
X50.5Y-48.5
X55.58Y-48.5
X60.66Y-48.5
T9
X62.85Y-16.5
X62.85Y-24.12
T5
X2.35Y-26.68G85X1.75Y-26.68
G05
X2.35Y-35.32G85X1.75Y-35.32
G05
X6.78Y-26.68G85X5.68Y-26.68
G05
X6.78Y-35.32G85X5.68Y-35.32
G05
M30
