G04 #@! TF.GenerationSoftware,KiCad,Pcbnew,10.0.4*
G04 #@! TF.CreationDate,2026-09-02T13:23:41+01:00*
G04 #@! TF.ProjectId,pl60c_dmx,706c3630-635f-4646-9d78-2e6b69636164,rev?*
G04 #@! TF.SameCoordinates,Original*
G04 #@! TF.FileFunction,Legend,Bot*
G04 #@! TF.FilePolarity,Positive*
%FSLAX46Y46*%
G04 Gerber Fmt 4.6, Leading zero omitted, Abs format (unit mm)*
G04 Created by KiCad (PCBNEW 10.0.4) date 2026-09-02 13:23:41*
%MOMM*%
%LPD*%
G01*
G04 APERTURE LIST*
G04 Aperture macros list*
%AMRoundRect*
0 Rectangle with rounded corners*
0 $1 Rounding radius*
0 $2 $3 $4 $5 $6 $7 $8 $9 X,Y pos of 4 corners*
0 Add a 4 corners polygon primitive as box body*
4,1,4,$2,$3,$4,$5,$6,$7,$8,$9,$2,$3,0*
0 Add four circle primitives for the rounded corners*
1,1,$1+$1,$2,$3*
1,1,$1+$1,$4,$5*
1,1,$1+$1,$6,$7*
1,1,$1+$1,$8,$9*
0 Add four rect primitives between the rounded corners*
20,1,$1+$1,$2,$3,$4,$5,0*
20,1,$1+$1,$4,$5,$6,$7,0*
20,1,$1+$1,$6,$7,$8,$9,0*
20,1,$1+$1,$8,$9,$2,$3,0*%
G04 Aperture macros list end*
%ADD10C,0.120000*%
%ADD11C,1.600000*%
%ADD12C,3.400000*%
%ADD13C,2.900000*%
%ADD14C,3.200000*%
%ADD15R,1.700000X1.700000*%
%ADD16C,1.700000*%
%ADD17C,0.650000*%
%ADD18O,2.100000X1.000000*%
%ADD19O,1.600000X1.000000*%
%ADD20RoundRect,0.250000X-1.049999X-1.049999X1.049999X-1.049999X1.049999X1.049999X-1.049999X1.049999X0*%
%ADD21C,2.599999*%
G04 APERTURE END LIST*
D10*
X40057145Y-28830521D02*
X40057145Y-29478140D01*
X40057145Y-29478140D02*
X40095240Y-29554331D01*
X40095240Y-29554331D02*
X40133336Y-29592426D01*
X40133336Y-29592426D02*
X40209526Y-29630521D01*
X40209526Y-29630521D02*
X40323812Y-29630521D01*
X40323812Y-29630521D02*
X40400002Y-29592426D01*
X40057145Y-29325760D02*
X40133336Y-29363855D01*
X40133336Y-29363855D02*
X40285717Y-29363855D01*
X40285717Y-29363855D02*
X40361907Y-29325760D01*
X40361907Y-29325760D02*
X40400002Y-29287664D01*
X40400002Y-29287664D02*
X40438098Y-29211474D01*
X40438098Y-29211474D02*
X40438098Y-28982902D01*
X40438098Y-28982902D02*
X40400002Y-28906712D01*
X40400002Y-28906712D02*
X40361907Y-28868617D01*
X40361907Y-28868617D02*
X40285717Y-28830521D01*
X40285717Y-28830521D02*
X40133336Y-28830521D01*
X40133336Y-28830521D02*
X40057145Y-28868617D01*
X39676192Y-29363855D02*
X39676192Y-28830521D01*
X39676192Y-28563855D02*
X39714288Y-28601950D01*
X39714288Y-28601950D02*
X39676192Y-28640045D01*
X39676192Y-28640045D02*
X39638097Y-28601950D01*
X39638097Y-28601950D02*
X39676192Y-28563855D01*
X39676192Y-28563855D02*
X39676192Y-28640045D01*
X39409526Y-28830521D02*
X39104764Y-28830521D01*
X39295240Y-28563855D02*
X39295240Y-29249569D01*
X39295240Y-29249569D02*
X39257145Y-29325760D01*
X39257145Y-29325760D02*
X39180955Y-29363855D01*
X39180955Y-29363855D02*
X39104764Y-29363855D01*
X38838097Y-29363855D02*
X38838097Y-28563855D01*
X38495240Y-29363855D02*
X38495240Y-28944807D01*
X38495240Y-28944807D02*
X38533335Y-28868617D01*
X38533335Y-28868617D02*
X38609526Y-28830521D01*
X38609526Y-28830521D02*
X38723812Y-28830521D01*
X38723812Y-28830521D02*
X38800002Y-28868617D01*
X38800002Y-28868617D02*
X38838097Y-28906712D01*
X37771430Y-28830521D02*
X37771430Y-29363855D01*
X38114287Y-28830521D02*
X38114287Y-29249569D01*
X38114287Y-29249569D02*
X38076192Y-29325760D01*
X38076192Y-29325760D02*
X38000002Y-29363855D01*
X38000002Y-29363855D02*
X37885716Y-29363855D01*
X37885716Y-29363855D02*
X37809525Y-29325760D01*
X37809525Y-29325760D02*
X37771430Y-29287664D01*
X37390477Y-29363855D02*
X37390477Y-28563855D01*
X37390477Y-28868617D02*
X37314287Y-28830521D01*
X37314287Y-28830521D02*
X37161906Y-28830521D01*
X37161906Y-28830521D02*
X37085715Y-28868617D01*
X37085715Y-28868617D02*
X37047620Y-28906712D01*
X37047620Y-28906712D02*
X37009525Y-28982902D01*
X37009525Y-28982902D02*
X37009525Y-29211474D01*
X37009525Y-29211474D02*
X37047620Y-29287664D01*
X37047620Y-29287664D02*
X37085715Y-29325760D01*
X37085715Y-29325760D02*
X37161906Y-29363855D01*
X37161906Y-29363855D02*
X37314287Y-29363855D01*
X37314287Y-29363855D02*
X37390477Y-29325760D01*
X36666667Y-29287664D02*
X36628572Y-29325760D01*
X36628572Y-29325760D02*
X36666667Y-29363855D01*
X36666667Y-29363855D02*
X36704763Y-29325760D01*
X36704763Y-29325760D02*
X36666667Y-29287664D01*
X36666667Y-29287664D02*
X36666667Y-29363855D01*
X35942858Y-29325760D02*
X36019049Y-29363855D01*
X36019049Y-29363855D02*
X36171430Y-29363855D01*
X36171430Y-29363855D02*
X36247620Y-29325760D01*
X36247620Y-29325760D02*
X36285715Y-29287664D01*
X36285715Y-29287664D02*
X36323811Y-29211474D01*
X36323811Y-29211474D02*
X36323811Y-28982902D01*
X36323811Y-28982902D02*
X36285715Y-28906712D01*
X36285715Y-28906712D02*
X36247620Y-28868617D01*
X36247620Y-28868617D02*
X36171430Y-28830521D01*
X36171430Y-28830521D02*
X36019049Y-28830521D01*
X36019049Y-28830521D02*
X35942858Y-28868617D01*
X35485716Y-29363855D02*
X35561906Y-29325760D01*
X35561906Y-29325760D02*
X35600001Y-29287664D01*
X35600001Y-29287664D02*
X35638097Y-29211474D01*
X35638097Y-29211474D02*
X35638097Y-28982902D01*
X35638097Y-28982902D02*
X35600001Y-28906712D01*
X35600001Y-28906712D02*
X35561906Y-28868617D01*
X35561906Y-28868617D02*
X35485716Y-28830521D01*
X35485716Y-28830521D02*
X35371430Y-28830521D01*
X35371430Y-28830521D02*
X35295239Y-28868617D01*
X35295239Y-28868617D02*
X35257144Y-28906712D01*
X35257144Y-28906712D02*
X35219049Y-28982902D01*
X35219049Y-28982902D02*
X35219049Y-29211474D01*
X35219049Y-29211474D02*
X35257144Y-29287664D01*
X35257144Y-29287664D02*
X35295239Y-29325760D01*
X35295239Y-29325760D02*
X35371430Y-29363855D01*
X35371430Y-29363855D02*
X35485716Y-29363855D01*
X34876191Y-29363855D02*
X34876191Y-28830521D01*
X34876191Y-28906712D02*
X34838096Y-28868617D01*
X34838096Y-28868617D02*
X34761906Y-28830521D01*
X34761906Y-28830521D02*
X34647620Y-28830521D01*
X34647620Y-28830521D02*
X34571429Y-28868617D01*
X34571429Y-28868617D02*
X34533334Y-28944807D01*
X34533334Y-28944807D02*
X34533334Y-29363855D01*
X34533334Y-28944807D02*
X34495239Y-28868617D01*
X34495239Y-28868617D02*
X34419048Y-28830521D01*
X34419048Y-28830521D02*
X34304763Y-28830521D01*
X34304763Y-28830521D02*
X34228572Y-28868617D01*
X34228572Y-28868617D02*
X34190477Y-28944807D01*
X34190477Y-28944807D02*
X34190477Y-29363855D01*
X33238096Y-28525760D02*
X33923810Y-29554331D01*
X33085715Y-28830521D02*
X32780953Y-28830521D01*
X32971429Y-28563855D02*
X32971429Y-29249569D01*
X32971429Y-29249569D02*
X32933334Y-29325760D01*
X32933334Y-29325760D02*
X32857144Y-29363855D01*
X32857144Y-29363855D02*
X32780953Y-29363855D01*
X32552382Y-29325760D02*
X32476191Y-29363855D01*
X32476191Y-29363855D02*
X32323810Y-29363855D01*
X32323810Y-29363855D02*
X32247620Y-29325760D01*
X32247620Y-29325760D02*
X32209524Y-29249569D01*
X32209524Y-29249569D02*
X32209524Y-29211474D01*
X32209524Y-29211474D02*
X32247620Y-29135283D01*
X32247620Y-29135283D02*
X32323810Y-29097188D01*
X32323810Y-29097188D02*
X32438096Y-29097188D01*
X32438096Y-29097188D02*
X32514286Y-29059093D01*
X32514286Y-29059093D02*
X32552382Y-28982902D01*
X32552382Y-28982902D02*
X32552382Y-28944807D01*
X32552382Y-28944807D02*
X32514286Y-28868617D01*
X32514286Y-28868617D02*
X32438096Y-28830521D01*
X32438096Y-28830521D02*
X32323810Y-28830521D01*
X32323810Y-28830521D02*
X32247620Y-28868617D01*
X31866667Y-29363855D02*
X31866667Y-28830521D01*
X31866667Y-28906712D02*
X31828572Y-28868617D01*
X31828572Y-28868617D02*
X31752382Y-28830521D01*
X31752382Y-28830521D02*
X31638096Y-28830521D01*
X31638096Y-28830521D02*
X31561905Y-28868617D01*
X31561905Y-28868617D02*
X31523810Y-28944807D01*
X31523810Y-28944807D02*
X31523810Y-29363855D01*
X31523810Y-28944807D02*
X31485715Y-28868617D01*
X31485715Y-28868617D02*
X31409524Y-28830521D01*
X31409524Y-28830521D02*
X31295239Y-28830521D01*
X31295239Y-28830521D02*
X31219048Y-28868617D01*
X31219048Y-28868617D02*
X31180953Y-28944807D01*
X31180953Y-28944807D02*
X31180953Y-29363855D01*
X30800000Y-29363855D02*
X30800000Y-28830521D01*
X30800000Y-28563855D02*
X30838096Y-28601950D01*
X30838096Y-28601950D02*
X30800000Y-28640045D01*
X30800000Y-28640045D02*
X30761905Y-28601950D01*
X30761905Y-28601950D02*
X30800000Y-28563855D01*
X30800000Y-28563855D02*
X30800000Y-28640045D01*
X30304763Y-29363855D02*
X30380953Y-29325760D01*
X30380953Y-29325760D02*
X30419048Y-29249569D01*
X30419048Y-29249569D02*
X30419048Y-28563855D01*
X30114286Y-28830521D02*
X29809524Y-28830521D01*
X30000000Y-28563855D02*
X30000000Y-29249569D01*
X30000000Y-29249569D02*
X29961905Y-29325760D01*
X29961905Y-29325760D02*
X29885715Y-29363855D01*
X29885715Y-29363855D02*
X29809524Y-29363855D01*
X29428572Y-29363855D02*
X29504762Y-29325760D01*
X29504762Y-29325760D02*
X29542857Y-29287664D01*
X29542857Y-29287664D02*
X29580953Y-29211474D01*
X29580953Y-29211474D02*
X29580953Y-28982902D01*
X29580953Y-28982902D02*
X29542857Y-28906712D01*
X29542857Y-28906712D02*
X29504762Y-28868617D01*
X29504762Y-28868617D02*
X29428572Y-28830521D01*
X29428572Y-28830521D02*
X29314286Y-28830521D01*
X29314286Y-28830521D02*
X29238095Y-28868617D01*
X29238095Y-28868617D02*
X29200000Y-28906712D01*
X29200000Y-28906712D02*
X29161905Y-28982902D01*
X29161905Y-28982902D02*
X29161905Y-29211474D01*
X29161905Y-29211474D02*
X29200000Y-29287664D01*
X29200000Y-29287664D02*
X29238095Y-29325760D01*
X29238095Y-29325760D02*
X29314286Y-29363855D01*
X29314286Y-29363855D02*
X29428572Y-29363855D01*
X28819047Y-28830521D02*
X28819047Y-29363855D01*
X28819047Y-28906712D02*
X28780952Y-28868617D01*
X28780952Y-28868617D02*
X28704762Y-28830521D01*
X28704762Y-28830521D02*
X28590476Y-28830521D01*
X28590476Y-28830521D02*
X28514285Y-28868617D01*
X28514285Y-28868617D02*
X28476190Y-28944807D01*
X28476190Y-28944807D02*
X28476190Y-29363855D01*
X28133333Y-29135283D02*
X27752380Y-29135283D01*
X28209523Y-29363855D02*
X27942856Y-28563855D01*
X27942856Y-28563855D02*
X27676190Y-29363855D01*
X27066666Y-28830521D02*
X27066666Y-29478140D01*
X27066666Y-29478140D02*
X27104761Y-29554331D01*
X27104761Y-29554331D02*
X27142857Y-29592426D01*
X27142857Y-29592426D02*
X27219047Y-29630521D01*
X27219047Y-29630521D02*
X27333333Y-29630521D01*
X27333333Y-29630521D02*
X27409523Y-29592426D01*
X27066666Y-29325760D02*
X27142857Y-29363855D01*
X27142857Y-29363855D02*
X27295238Y-29363855D01*
X27295238Y-29363855D02*
X27371428Y-29325760D01*
X27371428Y-29325760D02*
X27409523Y-29287664D01*
X27409523Y-29287664D02*
X27447619Y-29211474D01*
X27447619Y-29211474D02*
X27447619Y-28982902D01*
X27447619Y-28982902D02*
X27409523Y-28906712D01*
X27409523Y-28906712D02*
X27371428Y-28868617D01*
X27371428Y-28868617D02*
X27295238Y-28830521D01*
X27295238Y-28830521D02*
X27142857Y-28830521D01*
X27142857Y-28830521D02*
X27066666Y-28868617D01*
X26380951Y-29325760D02*
X26457142Y-29363855D01*
X26457142Y-29363855D02*
X26609523Y-29363855D01*
X26609523Y-29363855D02*
X26685713Y-29325760D01*
X26685713Y-29325760D02*
X26723809Y-29249569D01*
X26723809Y-29249569D02*
X26723809Y-28944807D01*
X26723809Y-28944807D02*
X26685713Y-28868617D01*
X26685713Y-28868617D02*
X26609523Y-28830521D01*
X26609523Y-28830521D02*
X26457142Y-28830521D01*
X26457142Y-28830521D02*
X26380951Y-28868617D01*
X26380951Y-28868617D02*
X26342856Y-28944807D01*
X26342856Y-28944807D02*
X26342856Y-29020998D01*
X26342856Y-29020998D02*
X26723809Y-29097188D01*
X25999999Y-28830521D02*
X25999999Y-29363855D01*
X25999999Y-28906712D02*
X25961904Y-28868617D01*
X25961904Y-28868617D02*
X25885714Y-28830521D01*
X25885714Y-28830521D02*
X25771428Y-28830521D01*
X25771428Y-28830521D02*
X25695237Y-28868617D01*
X25695237Y-28868617D02*
X25657142Y-28944807D01*
X25657142Y-28944807D02*
X25657142Y-29363855D01*
X25390475Y-28830521D02*
X25085713Y-28830521D01*
X25276189Y-28563855D02*
X25276189Y-29249569D01*
X25276189Y-29249569D02*
X25238094Y-29325760D01*
X25238094Y-29325760D02*
X25161904Y-29363855D01*
X25161904Y-29363855D02*
X25085713Y-29363855D01*
X24857142Y-29325760D02*
X24780951Y-29363855D01*
X24780951Y-29363855D02*
X24628570Y-29363855D01*
X24628570Y-29363855D02*
X24552380Y-29325760D01*
X24552380Y-29325760D02*
X24514284Y-29249569D01*
X24514284Y-29249569D02*
X24514284Y-29211474D01*
X24514284Y-29211474D02*
X24552380Y-29135283D01*
X24552380Y-29135283D02*
X24628570Y-29097188D01*
X24628570Y-29097188D02*
X24742856Y-29097188D01*
X24742856Y-29097188D02*
X24819046Y-29059093D01*
X24819046Y-29059093D02*
X24857142Y-28982902D01*
X24857142Y-28982902D02*
X24857142Y-28944807D01*
X24857142Y-28944807D02*
X24819046Y-28868617D01*
X24819046Y-28868617D02*
X24742856Y-28830521D01*
X24742856Y-28830521D02*
X24628570Y-28830521D01*
X24628570Y-28830521D02*
X24552380Y-28868617D01*
X23599999Y-28525760D02*
X24285713Y-29554331D01*
X23333332Y-28830521D02*
X23333332Y-29630521D01*
X23333332Y-28868617D02*
X23257142Y-28830521D01*
X23257142Y-28830521D02*
X23104761Y-28830521D01*
X23104761Y-28830521D02*
X23028570Y-28868617D01*
X23028570Y-28868617D02*
X22990475Y-28906712D01*
X22990475Y-28906712D02*
X22952380Y-28982902D01*
X22952380Y-28982902D02*
X22952380Y-29211474D01*
X22952380Y-29211474D02*
X22990475Y-29287664D01*
X22990475Y-29287664D02*
X23028570Y-29325760D01*
X23028570Y-29325760D02*
X23104761Y-29363855D01*
X23104761Y-29363855D02*
X23257142Y-29363855D01*
X23257142Y-29363855D02*
X23333332Y-29325760D01*
X22495237Y-29363855D02*
X22571427Y-29325760D01*
X22571427Y-29325760D02*
X22609522Y-29249569D01*
X22609522Y-29249569D02*
X22609522Y-28563855D01*
X21847617Y-28563855D02*
X21999998Y-28563855D01*
X21999998Y-28563855D02*
X22076189Y-28601950D01*
X22076189Y-28601950D02*
X22114284Y-28640045D01*
X22114284Y-28640045D02*
X22190474Y-28754331D01*
X22190474Y-28754331D02*
X22228570Y-28906712D01*
X22228570Y-28906712D02*
X22228570Y-29211474D01*
X22228570Y-29211474D02*
X22190474Y-29287664D01*
X22190474Y-29287664D02*
X22152379Y-29325760D01*
X22152379Y-29325760D02*
X22076189Y-29363855D01*
X22076189Y-29363855D02*
X21923808Y-29363855D01*
X21923808Y-29363855D02*
X21847617Y-29325760D01*
X21847617Y-29325760D02*
X21809522Y-29287664D01*
X21809522Y-29287664D02*
X21771427Y-29211474D01*
X21771427Y-29211474D02*
X21771427Y-29020998D01*
X21771427Y-29020998D02*
X21809522Y-28944807D01*
X21809522Y-28944807D02*
X21847617Y-28906712D01*
X21847617Y-28906712D02*
X21923808Y-28868617D01*
X21923808Y-28868617D02*
X22076189Y-28868617D01*
X22076189Y-28868617D02*
X22152379Y-28906712D01*
X22152379Y-28906712D02*
X22190474Y-28944807D01*
X22190474Y-28944807D02*
X22228570Y-29020998D01*
X21276188Y-28563855D02*
X21199998Y-28563855D01*
X21199998Y-28563855D02*
X21123807Y-28601950D01*
X21123807Y-28601950D02*
X21085712Y-28640045D01*
X21085712Y-28640045D02*
X21047617Y-28716236D01*
X21047617Y-28716236D02*
X21009522Y-28868617D01*
X21009522Y-28868617D02*
X21009522Y-29059093D01*
X21009522Y-29059093D02*
X21047617Y-29211474D01*
X21047617Y-29211474D02*
X21085712Y-29287664D01*
X21085712Y-29287664D02*
X21123807Y-29325760D01*
X21123807Y-29325760D02*
X21199998Y-29363855D01*
X21199998Y-29363855D02*
X21276188Y-29363855D01*
X21276188Y-29363855D02*
X21352379Y-29325760D01*
X21352379Y-29325760D02*
X21390474Y-29287664D01*
X21390474Y-29287664D02*
X21428569Y-29211474D01*
X21428569Y-29211474D02*
X21466665Y-29059093D01*
X21466665Y-29059093D02*
X21466665Y-28868617D01*
X21466665Y-28868617D02*
X21428569Y-28716236D01*
X21428569Y-28716236D02*
X21390474Y-28640045D01*
X21390474Y-28640045D02*
X21352379Y-28601950D01*
X21352379Y-28601950D02*
X21276188Y-28563855D01*
X20323807Y-29325760D02*
X20399998Y-29363855D01*
X20399998Y-29363855D02*
X20552379Y-29363855D01*
X20552379Y-29363855D02*
X20628569Y-29325760D01*
X20628569Y-29325760D02*
X20666664Y-29287664D01*
X20666664Y-29287664D02*
X20704760Y-29211474D01*
X20704760Y-29211474D02*
X20704760Y-28982902D01*
X20704760Y-28982902D02*
X20666664Y-28906712D01*
X20666664Y-28906712D02*
X20628569Y-28868617D01*
X20628569Y-28868617D02*
X20552379Y-28830521D01*
X20552379Y-28830521D02*
X20399998Y-28830521D01*
X20399998Y-28830521D02*
X20323807Y-28868617D01*
X19980950Y-29059093D02*
X19371427Y-29059093D01*
X18647617Y-29363855D02*
X18647617Y-28563855D01*
X18647617Y-29325760D02*
X18723808Y-29363855D01*
X18723808Y-29363855D02*
X18876189Y-29363855D01*
X18876189Y-29363855D02*
X18952379Y-29325760D01*
X18952379Y-29325760D02*
X18990474Y-29287664D01*
X18990474Y-29287664D02*
X19028570Y-29211474D01*
X19028570Y-29211474D02*
X19028570Y-28982902D01*
X19028570Y-28982902D02*
X18990474Y-28906712D01*
X18990474Y-28906712D02*
X18952379Y-28868617D01*
X18952379Y-28868617D02*
X18876189Y-28830521D01*
X18876189Y-28830521D02*
X18723808Y-28830521D01*
X18723808Y-28830521D02*
X18647617Y-28868617D01*
X18266664Y-29363855D02*
X18266664Y-28830521D01*
X18266664Y-28906712D02*
X18228569Y-28868617D01*
X18228569Y-28868617D02*
X18152379Y-28830521D01*
X18152379Y-28830521D02*
X18038093Y-28830521D01*
X18038093Y-28830521D02*
X17961902Y-28868617D01*
X17961902Y-28868617D02*
X17923807Y-28944807D01*
X17923807Y-28944807D02*
X17923807Y-29363855D01*
X17923807Y-28944807D02*
X17885712Y-28868617D01*
X17885712Y-28868617D02*
X17809521Y-28830521D01*
X17809521Y-28830521D02*
X17695236Y-28830521D01*
X17695236Y-28830521D02*
X17619045Y-28868617D01*
X17619045Y-28868617D02*
X17580950Y-28944807D01*
X17580950Y-28944807D02*
X17580950Y-29363855D01*
X17276188Y-29363855D02*
X16857140Y-28830521D01*
X17276188Y-28830521D02*
X16857140Y-29363855D01*
X16552378Y-29059093D02*
X15942855Y-29059093D01*
X15638093Y-28830521D02*
X15485712Y-29363855D01*
X15485712Y-29363855D02*
X15333331Y-28982902D01*
X15333331Y-28982902D02*
X15180950Y-29363855D01*
X15180950Y-29363855D02*
X15028569Y-28830521D01*
X14380950Y-29363855D02*
X14380950Y-28944807D01*
X14380950Y-28944807D02*
X14419045Y-28868617D01*
X14419045Y-28868617D02*
X14495236Y-28830521D01*
X14495236Y-28830521D02*
X14647617Y-28830521D01*
X14647617Y-28830521D02*
X14723807Y-28868617D01*
X14380950Y-29325760D02*
X14457141Y-29363855D01*
X14457141Y-29363855D02*
X14647617Y-29363855D01*
X14647617Y-29363855D02*
X14723807Y-29325760D01*
X14723807Y-29325760D02*
X14761903Y-29249569D01*
X14761903Y-29249569D02*
X14761903Y-29173379D01*
X14761903Y-29173379D02*
X14723807Y-29097188D01*
X14723807Y-29097188D02*
X14647617Y-29059093D01*
X14647617Y-29059093D02*
X14457141Y-29059093D01*
X14457141Y-29059093D02*
X14380950Y-29020998D01*
X13999997Y-29363855D02*
X13999997Y-28563855D01*
X13923807Y-29059093D02*
X13695235Y-29363855D01*
X13695235Y-28830521D02*
X13999997Y-29135283D01*
X13047616Y-29325760D02*
X13123807Y-29363855D01*
X13123807Y-29363855D02*
X13276188Y-29363855D01*
X13276188Y-29363855D02*
X13352378Y-29325760D01*
X13352378Y-29325760D02*
X13390474Y-29249569D01*
X13390474Y-29249569D02*
X13390474Y-28944807D01*
X13390474Y-28944807D02*
X13352378Y-28868617D01*
X13352378Y-28868617D02*
X13276188Y-28830521D01*
X13276188Y-28830521D02*
X13123807Y-28830521D01*
X13123807Y-28830521D02*
X13047616Y-28868617D01*
X13047616Y-28868617D02*
X13009521Y-28944807D01*
X13009521Y-28944807D02*
X13009521Y-29020998D01*
X13009521Y-29020998D02*
X13390474Y-29097188D01*
X12323807Y-28830521D02*
X12323807Y-29363855D01*
X12666664Y-28830521D02*
X12666664Y-29249569D01*
X12666664Y-29249569D02*
X12628569Y-29325760D01*
X12628569Y-29325760D02*
X12552379Y-29363855D01*
X12552379Y-29363855D02*
X12438093Y-29363855D01*
X12438093Y-29363855D02*
X12361902Y-29325760D01*
X12361902Y-29325760D02*
X12323807Y-29287664D01*
X11942854Y-28830521D02*
X11942854Y-29630521D01*
X11942854Y-28868617D02*
X11866664Y-28830521D01*
X11866664Y-28830521D02*
X11714283Y-28830521D01*
X11714283Y-28830521D02*
X11638092Y-28868617D01*
X11638092Y-28868617D02*
X11599997Y-28906712D01*
X11599997Y-28906712D02*
X11561902Y-28982902D01*
X11561902Y-28982902D02*
X11561902Y-29211474D01*
X11561902Y-29211474D02*
X11599997Y-29287664D01*
X11599997Y-29287664D02*
X11638092Y-29325760D01*
X11638092Y-29325760D02*
X11714283Y-29363855D01*
X11714283Y-29363855D02*
X11866664Y-29363855D01*
X11866664Y-29363855D02*
X11942854Y-29325760D01*
X37447620Y-31863855D02*
X37447620Y-31063855D01*
X37447620Y-31063855D02*
X37142858Y-31063855D01*
X37142858Y-31063855D02*
X37066668Y-31101950D01*
X37066668Y-31101950D02*
X37028573Y-31140045D01*
X37028573Y-31140045D02*
X36990477Y-31216236D01*
X36990477Y-31216236D02*
X36990477Y-31330521D01*
X36990477Y-31330521D02*
X37028573Y-31406712D01*
X37028573Y-31406712D02*
X37066668Y-31444807D01*
X37066668Y-31444807D02*
X37142858Y-31482902D01*
X37142858Y-31482902D02*
X37447620Y-31482902D01*
X36266668Y-31863855D02*
X36647620Y-31863855D01*
X36647620Y-31863855D02*
X36647620Y-31063855D01*
X35657144Y-31063855D02*
X35809525Y-31063855D01*
X35809525Y-31063855D02*
X35885716Y-31101950D01*
X35885716Y-31101950D02*
X35923811Y-31140045D01*
X35923811Y-31140045D02*
X36000001Y-31254331D01*
X36000001Y-31254331D02*
X36038097Y-31406712D01*
X36038097Y-31406712D02*
X36038097Y-31711474D01*
X36038097Y-31711474D02*
X36000001Y-31787664D01*
X36000001Y-31787664D02*
X35961906Y-31825760D01*
X35961906Y-31825760D02*
X35885716Y-31863855D01*
X35885716Y-31863855D02*
X35733335Y-31863855D01*
X35733335Y-31863855D02*
X35657144Y-31825760D01*
X35657144Y-31825760D02*
X35619049Y-31787664D01*
X35619049Y-31787664D02*
X35580954Y-31711474D01*
X35580954Y-31711474D02*
X35580954Y-31520998D01*
X35580954Y-31520998D02*
X35619049Y-31444807D01*
X35619049Y-31444807D02*
X35657144Y-31406712D01*
X35657144Y-31406712D02*
X35733335Y-31368617D01*
X35733335Y-31368617D02*
X35885716Y-31368617D01*
X35885716Y-31368617D02*
X35961906Y-31406712D01*
X35961906Y-31406712D02*
X36000001Y-31444807D01*
X36000001Y-31444807D02*
X36038097Y-31520998D01*
X35085715Y-31063855D02*
X35009525Y-31063855D01*
X35009525Y-31063855D02*
X34933334Y-31101950D01*
X34933334Y-31101950D02*
X34895239Y-31140045D01*
X34895239Y-31140045D02*
X34857144Y-31216236D01*
X34857144Y-31216236D02*
X34819049Y-31368617D01*
X34819049Y-31368617D02*
X34819049Y-31559093D01*
X34819049Y-31559093D02*
X34857144Y-31711474D01*
X34857144Y-31711474D02*
X34895239Y-31787664D01*
X34895239Y-31787664D02*
X34933334Y-31825760D01*
X34933334Y-31825760D02*
X35009525Y-31863855D01*
X35009525Y-31863855D02*
X35085715Y-31863855D01*
X35085715Y-31863855D02*
X35161906Y-31825760D01*
X35161906Y-31825760D02*
X35200001Y-31787664D01*
X35200001Y-31787664D02*
X35238096Y-31711474D01*
X35238096Y-31711474D02*
X35276192Y-31559093D01*
X35276192Y-31559093D02*
X35276192Y-31368617D01*
X35276192Y-31368617D02*
X35238096Y-31216236D01*
X35238096Y-31216236D02*
X35200001Y-31140045D01*
X35200001Y-31140045D02*
X35161906Y-31101950D01*
X35161906Y-31101950D02*
X35085715Y-31063855D01*
X34019048Y-31787664D02*
X34057144Y-31825760D01*
X34057144Y-31825760D02*
X34171429Y-31863855D01*
X34171429Y-31863855D02*
X34247620Y-31863855D01*
X34247620Y-31863855D02*
X34361906Y-31825760D01*
X34361906Y-31825760D02*
X34438096Y-31749569D01*
X34438096Y-31749569D02*
X34476191Y-31673379D01*
X34476191Y-31673379D02*
X34514287Y-31520998D01*
X34514287Y-31520998D02*
X34514287Y-31406712D01*
X34514287Y-31406712D02*
X34476191Y-31254331D01*
X34476191Y-31254331D02*
X34438096Y-31178140D01*
X34438096Y-31178140D02*
X34361906Y-31101950D01*
X34361906Y-31101950D02*
X34247620Y-31063855D01*
X34247620Y-31063855D02*
X34171429Y-31063855D01*
X34171429Y-31063855D02*
X34057144Y-31101950D01*
X34057144Y-31101950D02*
X34019048Y-31140045D01*
X33066667Y-31863855D02*
X33066667Y-31063855D01*
X33066667Y-31063855D02*
X32876191Y-31063855D01*
X32876191Y-31063855D02*
X32761905Y-31101950D01*
X32761905Y-31101950D02*
X32685715Y-31178140D01*
X32685715Y-31178140D02*
X32647620Y-31254331D01*
X32647620Y-31254331D02*
X32609524Y-31406712D01*
X32609524Y-31406712D02*
X32609524Y-31520998D01*
X32609524Y-31520998D02*
X32647620Y-31673379D01*
X32647620Y-31673379D02*
X32685715Y-31749569D01*
X32685715Y-31749569D02*
X32761905Y-31825760D01*
X32761905Y-31825760D02*
X32876191Y-31863855D01*
X32876191Y-31863855D02*
X33066667Y-31863855D01*
X32266667Y-31863855D02*
X32266667Y-31063855D01*
X32266667Y-31063855D02*
X32000001Y-31635283D01*
X32000001Y-31635283D02*
X31733334Y-31063855D01*
X31733334Y-31063855D02*
X31733334Y-31863855D01*
X31428572Y-31063855D02*
X30895238Y-31863855D01*
X30895238Y-31063855D02*
X31428572Y-31863855D01*
X30057143Y-31330521D02*
X29904762Y-31863855D01*
X29904762Y-31863855D02*
X29752381Y-31482902D01*
X29752381Y-31482902D02*
X29600000Y-31863855D01*
X29600000Y-31863855D02*
X29447619Y-31330521D01*
X28800000Y-31863855D02*
X28800000Y-31444807D01*
X28800000Y-31444807D02*
X28838095Y-31368617D01*
X28838095Y-31368617D02*
X28914286Y-31330521D01*
X28914286Y-31330521D02*
X29066667Y-31330521D01*
X29066667Y-31330521D02*
X29142857Y-31368617D01*
X28800000Y-31825760D02*
X28876191Y-31863855D01*
X28876191Y-31863855D02*
X29066667Y-31863855D01*
X29066667Y-31863855D02*
X29142857Y-31825760D01*
X29142857Y-31825760D02*
X29180953Y-31749569D01*
X29180953Y-31749569D02*
X29180953Y-31673379D01*
X29180953Y-31673379D02*
X29142857Y-31597188D01*
X29142857Y-31597188D02*
X29066667Y-31559093D01*
X29066667Y-31559093D02*
X28876191Y-31559093D01*
X28876191Y-31559093D02*
X28800000Y-31520998D01*
X28419047Y-31863855D02*
X28419047Y-31063855D01*
X28342857Y-31559093D02*
X28114285Y-31863855D01*
X28114285Y-31330521D02*
X28419047Y-31635283D01*
X27466666Y-31825760D02*
X27542857Y-31863855D01*
X27542857Y-31863855D02*
X27695238Y-31863855D01*
X27695238Y-31863855D02*
X27771428Y-31825760D01*
X27771428Y-31825760D02*
X27809524Y-31749569D01*
X27809524Y-31749569D02*
X27809524Y-31444807D01*
X27809524Y-31444807D02*
X27771428Y-31368617D01*
X27771428Y-31368617D02*
X27695238Y-31330521D01*
X27695238Y-31330521D02*
X27542857Y-31330521D01*
X27542857Y-31330521D02*
X27466666Y-31368617D01*
X27466666Y-31368617D02*
X27428571Y-31444807D01*
X27428571Y-31444807D02*
X27428571Y-31520998D01*
X27428571Y-31520998D02*
X27809524Y-31597188D01*
X27085714Y-31559093D02*
X26476191Y-31559093D01*
X25752381Y-31330521D02*
X25752381Y-31863855D01*
X26095238Y-31330521D02*
X26095238Y-31749569D01*
X26095238Y-31749569D02*
X26057143Y-31825760D01*
X26057143Y-31825760D02*
X25980953Y-31863855D01*
X25980953Y-31863855D02*
X25866667Y-31863855D01*
X25866667Y-31863855D02*
X25790476Y-31825760D01*
X25790476Y-31825760D02*
X25752381Y-31787664D01*
X25371428Y-31330521D02*
X25371428Y-32130521D01*
X25371428Y-31368617D02*
X25295238Y-31330521D01*
X25295238Y-31330521D02*
X25142857Y-31330521D01*
X25142857Y-31330521D02*
X25066666Y-31368617D01*
X25066666Y-31368617D02*
X25028571Y-31406712D01*
X25028571Y-31406712D02*
X24990476Y-31482902D01*
X24990476Y-31482902D02*
X24990476Y-31711474D01*
X24990476Y-31711474D02*
X25028571Y-31787664D01*
X25028571Y-31787664D02*
X25066666Y-31825760D01*
X25066666Y-31825760D02*
X25142857Y-31863855D01*
X25142857Y-31863855D02*
X25295238Y-31863855D01*
X25295238Y-31863855D02*
X25371428Y-31825760D01*
X24038094Y-31863855D02*
X24038094Y-31330521D01*
X24038094Y-31482902D02*
X23999999Y-31406712D01*
X23999999Y-31406712D02*
X23961904Y-31368617D01*
X23961904Y-31368617D02*
X23885713Y-31330521D01*
X23885713Y-31330521D02*
X23809523Y-31330521D01*
X23238094Y-31825760D02*
X23314285Y-31863855D01*
X23314285Y-31863855D02*
X23466666Y-31863855D01*
X23466666Y-31863855D02*
X23542856Y-31825760D01*
X23542856Y-31825760D02*
X23580952Y-31749569D01*
X23580952Y-31749569D02*
X23580952Y-31444807D01*
X23580952Y-31444807D02*
X23542856Y-31368617D01*
X23542856Y-31368617D02*
X23466666Y-31330521D01*
X23466666Y-31330521D02*
X23314285Y-31330521D01*
X23314285Y-31330521D02*
X23238094Y-31368617D01*
X23238094Y-31368617D02*
X23199999Y-31444807D01*
X23199999Y-31444807D02*
X23199999Y-31520998D01*
X23199999Y-31520998D02*
X23580952Y-31597188D01*
X22933333Y-31330521D02*
X22742857Y-31863855D01*
X22742857Y-31863855D02*
X22552380Y-31330521D01*
X21676190Y-31635283D02*
X21295237Y-31635283D01*
X21752380Y-31863855D02*
X21485713Y-31063855D01*
X21485713Y-31063855D02*
X21219047Y-31863855D01*
X19771428Y-31140045D02*
X19733332Y-31101950D01*
X19733332Y-31101950D02*
X19657142Y-31063855D01*
X19657142Y-31063855D02*
X19466666Y-31063855D01*
X19466666Y-31063855D02*
X19390475Y-31101950D01*
X19390475Y-31101950D02*
X19352380Y-31140045D01*
X19352380Y-31140045D02*
X19314285Y-31216236D01*
X19314285Y-31216236D02*
X19314285Y-31292426D01*
X19314285Y-31292426D02*
X19352380Y-31406712D01*
X19352380Y-31406712D02*
X19809523Y-31863855D01*
X19809523Y-31863855D02*
X19314285Y-31863855D01*
X18819046Y-31063855D02*
X18742856Y-31063855D01*
X18742856Y-31063855D02*
X18666665Y-31101950D01*
X18666665Y-31101950D02*
X18628570Y-31140045D01*
X18628570Y-31140045D02*
X18590475Y-31216236D01*
X18590475Y-31216236D02*
X18552380Y-31368617D01*
X18552380Y-31368617D02*
X18552380Y-31559093D01*
X18552380Y-31559093D02*
X18590475Y-31711474D01*
X18590475Y-31711474D02*
X18628570Y-31787664D01*
X18628570Y-31787664D02*
X18666665Y-31825760D01*
X18666665Y-31825760D02*
X18742856Y-31863855D01*
X18742856Y-31863855D02*
X18819046Y-31863855D01*
X18819046Y-31863855D02*
X18895237Y-31825760D01*
X18895237Y-31825760D02*
X18933332Y-31787664D01*
X18933332Y-31787664D02*
X18971427Y-31711474D01*
X18971427Y-31711474D02*
X19009523Y-31559093D01*
X19009523Y-31559093D02*
X19009523Y-31368617D01*
X19009523Y-31368617D02*
X18971427Y-31216236D01*
X18971427Y-31216236D02*
X18933332Y-31140045D01*
X18933332Y-31140045D02*
X18895237Y-31101950D01*
X18895237Y-31101950D02*
X18819046Y-31063855D01*
X18247618Y-31140045D02*
X18209522Y-31101950D01*
X18209522Y-31101950D02*
X18133332Y-31063855D01*
X18133332Y-31063855D02*
X17942856Y-31063855D01*
X17942856Y-31063855D02*
X17866665Y-31101950D01*
X17866665Y-31101950D02*
X17828570Y-31140045D01*
X17828570Y-31140045D02*
X17790475Y-31216236D01*
X17790475Y-31216236D02*
X17790475Y-31292426D01*
X17790475Y-31292426D02*
X17828570Y-31406712D01*
X17828570Y-31406712D02*
X18285713Y-31863855D01*
X18285713Y-31863855D02*
X17790475Y-31863855D01*
X17104760Y-31063855D02*
X17257141Y-31063855D01*
X17257141Y-31063855D02*
X17333332Y-31101950D01*
X17333332Y-31101950D02*
X17371427Y-31140045D01*
X17371427Y-31140045D02*
X17447617Y-31254331D01*
X17447617Y-31254331D02*
X17485713Y-31406712D01*
X17485713Y-31406712D02*
X17485713Y-31711474D01*
X17485713Y-31711474D02*
X17447617Y-31787664D01*
X17447617Y-31787664D02*
X17409522Y-31825760D01*
X17409522Y-31825760D02*
X17333332Y-31863855D01*
X17333332Y-31863855D02*
X17180951Y-31863855D01*
X17180951Y-31863855D02*
X17104760Y-31825760D01*
X17104760Y-31825760D02*
X17066665Y-31787664D01*
X17066665Y-31787664D02*
X17028570Y-31711474D01*
X17028570Y-31711474D02*
X17028570Y-31520998D01*
X17028570Y-31520998D02*
X17066665Y-31444807D01*
X17066665Y-31444807D02*
X17104760Y-31406712D01*
X17104760Y-31406712D02*
X17180951Y-31368617D01*
X17180951Y-31368617D02*
X17333332Y-31368617D01*
X17333332Y-31368617D02*
X17409522Y-31406712D01*
X17409522Y-31406712D02*
X17447617Y-31444807D01*
X17447617Y-31444807D02*
X17485713Y-31520998D01*
X16685712Y-31559093D02*
X16076189Y-31559093D01*
X15542855Y-31063855D02*
X15466665Y-31063855D01*
X15466665Y-31063855D02*
X15390474Y-31101950D01*
X15390474Y-31101950D02*
X15352379Y-31140045D01*
X15352379Y-31140045D02*
X15314284Y-31216236D01*
X15314284Y-31216236D02*
X15276189Y-31368617D01*
X15276189Y-31368617D02*
X15276189Y-31559093D01*
X15276189Y-31559093D02*
X15314284Y-31711474D01*
X15314284Y-31711474D02*
X15352379Y-31787664D01*
X15352379Y-31787664D02*
X15390474Y-31825760D01*
X15390474Y-31825760D02*
X15466665Y-31863855D01*
X15466665Y-31863855D02*
X15542855Y-31863855D01*
X15542855Y-31863855D02*
X15619046Y-31825760D01*
X15619046Y-31825760D02*
X15657141Y-31787664D01*
X15657141Y-31787664D02*
X15695236Y-31711474D01*
X15695236Y-31711474D02*
X15733332Y-31559093D01*
X15733332Y-31559093D02*
X15733332Y-31368617D01*
X15733332Y-31368617D02*
X15695236Y-31216236D01*
X15695236Y-31216236D02*
X15657141Y-31140045D01*
X15657141Y-31140045D02*
X15619046Y-31101950D01*
X15619046Y-31101950D02*
X15542855Y-31063855D01*
X14895236Y-31863855D02*
X14742855Y-31863855D01*
X14742855Y-31863855D02*
X14666665Y-31825760D01*
X14666665Y-31825760D02*
X14628569Y-31787664D01*
X14628569Y-31787664D02*
X14552379Y-31673379D01*
X14552379Y-31673379D02*
X14514284Y-31520998D01*
X14514284Y-31520998D02*
X14514284Y-31216236D01*
X14514284Y-31216236D02*
X14552379Y-31140045D01*
X14552379Y-31140045D02*
X14590474Y-31101950D01*
X14590474Y-31101950D02*
X14666665Y-31063855D01*
X14666665Y-31063855D02*
X14819046Y-31063855D01*
X14819046Y-31063855D02*
X14895236Y-31101950D01*
X14895236Y-31101950D02*
X14933331Y-31140045D01*
X14933331Y-31140045D02*
X14971427Y-31216236D01*
X14971427Y-31216236D02*
X14971427Y-31406712D01*
X14971427Y-31406712D02*
X14933331Y-31482902D01*
X14933331Y-31482902D02*
X14895236Y-31520998D01*
X14895236Y-31520998D02*
X14819046Y-31559093D01*
X14819046Y-31559093D02*
X14666665Y-31559093D01*
X14666665Y-31559093D02*
X14590474Y-31520998D01*
X14590474Y-31520998D02*
X14552379Y-31482902D01*
X14552379Y-31482902D02*
X14514284Y-31406712D01*
%LPC*%
D11*
X71110000Y-24120000D03*
X76190000Y-16500000D03*
D12*
X62850000Y-16500000D03*
D13*
X66665000Y-20310000D03*
X62850000Y-20310000D03*
X66665000Y-27290000D03*
D12*
X62850000Y-24120000D03*
D13*
X73020000Y-12060000D03*
D14*
X76500000Y-50500000D03*
D15*
X47500000Y-22000000D03*
D16*
X47500000Y-24540000D03*
X47500000Y-27080000D03*
X47500000Y-29620000D03*
D14*
X76500000Y-3500000D03*
D17*
X5700000Y-28110000D03*
X5700000Y-33890000D03*
D18*
X6230000Y-26680000D03*
D19*
X2050000Y-26680000D03*
D18*
X6230000Y-35320000D03*
D19*
X2050000Y-35320000D03*
D20*
X50500000Y-48500000D03*
D21*
X55580000Y-48500000D03*
X60660000Y-48500000D03*
D14*
X3500000Y-50500000D03*
D15*
X43000000Y-22000000D03*
D16*
X43000000Y-24540000D03*
X43000000Y-27080000D03*
X43000000Y-29620000D03*
X43000000Y-32160000D03*
X43000000Y-34700000D03*
D14*
X3500000Y-3500000D03*
%LPD*%
M02*
