G04 #@! TF.GenerationSoftware,KiCad,Pcbnew,10.0.4*
G04 #@! TF.CreationDate,2026-09-02T13:38:59+01:00*
G04 #@! TF.ProjectId,pl60c_dmx,706c3630-635f-4646-9d78-2e6b69636164,rev?*
G04 #@! TF.SameCoordinates,Original*
G04 #@! TF.FileFunction,Copper,L2,Bot*
G04 #@! TF.FilePolarity,Positive*
%FSLAX46Y46*%
G04 Gerber Fmt 4.6, Leading zero omitted, Abs format (unit mm)*
G04 Created by KiCad (PCBNEW 10.0.4) date 2026-09-02 13:38:59*
%MOMM*%
%LPD*%
G01*
G04 APERTURE LIST*
G04 Aperture macros list*
%AMRoundRect*
0 Rectangle with rounded corners*
0 $1 Rounding radius*
0 $2 $3 $4 $5 $6 $7 $8 $9 X,Y pos of 4 corners*
0 Add a 4 corners polygon primitive as box body*
4,1,4,$2,$3,$4,$5,$6,$7,$8,$9,$2,$3,0*
0 Add four circle primitives for the rounded corners*
1,1,$1+$1,$2,$3*
1,1,$1+$1,$4,$5*
1,1,$1+$1,$6,$7*
1,1,$1+$1,$8,$9*
0 Add four rect primitives between the rounded corners*
20,1,$1+$1,$2,$3,$4,$5,0*
20,1,$1+$1,$4,$5,$6,$7,0*
20,1,$1+$1,$6,$7,$8,$9,0*
20,1,$1+$1,$8,$9,$2,$3,0*%
G04 Aperture macros list end*
G04 #@! TA.AperFunction,ComponentPad*
%ADD10C,3.400000*%
G04 #@! TD*
G04 #@! TA.AperFunction,ComponentPad*
%ADD11C,2.900000*%
G04 #@! TD*
G04 #@! TA.AperFunction,ComponentPad*
%ADD12R,1.700000X1.700000*%
G04 #@! TD*
G04 #@! TA.AperFunction,ComponentPad*
%ADD13C,1.700000*%
G04 #@! TD*
G04 #@! TA.AperFunction,HeatsinkPad*
%ADD14C,0.600000*%
G04 #@! TD*
G04 #@! TA.AperFunction,ComponentPad*
%ADD15O,2.100000X1.000000*%
G04 #@! TD*
G04 #@! TA.AperFunction,ComponentPad*
%ADD16O,1.600000X1.000000*%
G04 #@! TD*
G04 #@! TA.AperFunction,ComponentPad*
%ADD17RoundRect,0.250000X-1.049999X-1.049999X1.049999X-1.049999X1.049999X1.049999X-1.049999X1.049999X0*%
G04 #@! TD*
G04 #@! TA.AperFunction,ComponentPad*
%ADD18C,2.599999*%
G04 #@! TD*
G04 #@! TA.AperFunction,ViaPad*
%ADD19C,0.700000*%
G04 #@! TD*
G04 #@! TA.AperFunction,ViaPad*
%ADD20C,0.800000*%
G04 #@! TD*
G04 #@! TA.AperFunction,Conductor*
%ADD21C,0.400000*%
G04 #@! TD*
G04 #@! TA.AperFunction,Conductor*
%ADD22C,0.250000*%
G04 #@! TD*
G04 APERTURE END LIST*
D10*
X62850000Y-16500000D03*
D11*
X66665000Y-20310000D03*
X62850000Y-20310000D03*
X66665000Y-27290000D03*
D10*
X62850000Y-24120000D03*
D11*
X73020000Y-12060000D03*
D12*
X43000000Y-22000000D03*
D13*
X43000000Y-24540000D03*
X43000000Y-27080000D03*
X43000000Y-29620000D03*
X43000000Y-32160000D03*
X43000000Y-34700000D03*
D12*
X47500000Y-22000000D03*
D13*
X47500000Y-24540000D03*
X47500000Y-27080000D03*
X47500000Y-29620000D03*
D14*
X27100000Y-8510000D03*
X27100000Y-9910000D03*
X27800000Y-7810000D03*
X27800000Y-9210000D03*
X27800000Y-10610000D03*
X28500000Y-8510000D03*
X28500000Y-9910000D03*
X29200000Y-7810000D03*
X29200000Y-9210000D03*
X29200000Y-10610000D03*
X29900000Y-8510000D03*
X29900000Y-9910000D03*
D15*
X6230000Y-26680000D03*
D16*
X2050000Y-26680000D03*
D15*
X6230000Y-35320000D03*
D16*
X2050000Y-35320000D03*
D17*
X50500000Y-48500000D03*
D18*
X55580000Y-48500000D03*
X60660000Y-48500000D03*
D19*
X54062500Y-35000000D03*
X15000000Y-10000000D03*
X45000000Y-50000000D03*
X25000000Y-50000000D03*
X55000000Y-5000000D03*
X30000000Y-25000000D03*
X70000000Y-50000000D03*
X30000000Y-35000000D03*
X16500000Y-33550000D03*
X25000000Y-30000000D03*
X5000000Y-10000000D03*
X5000000Y-40000000D03*
X35000000Y-5000000D03*
X25000000Y-15000000D03*
X14000000Y-24025000D03*
X35000000Y-25000000D03*
X20000000Y-40000000D03*
X29750000Y-49850000D03*
X28250000Y-49850000D03*
X35000000Y-15000000D03*
X25000000Y-25000000D03*
X20000000Y-25000000D03*
X30000000Y-30000000D03*
X49975000Y-7000000D03*
X39250000Y-49850000D03*
X75000000Y-25000000D03*
X5000000Y-45000000D03*
X19700000Y-3500000D03*
X18750000Y-49850000D03*
X14000000Y-34025000D03*
X50000000Y-45000000D03*
X35000000Y-50000000D03*
X56425000Y-20000000D03*
X55000000Y-15000000D03*
X47450000Y-50150000D03*
X5000000Y-25000000D03*
X75000000Y-30000000D03*
X55000000Y-10000000D03*
X14200000Y-9500000D03*
X65000000Y-50000000D03*
X25000000Y-35000000D03*
X55000000Y-30000000D03*
X17200000Y-42500000D03*
X40000000Y-40000000D03*
X17250000Y-49850000D03*
X20000000Y-50000000D03*
X35000000Y-35000000D03*
X52200000Y-13905000D03*
X11200000Y-21000000D03*
X30000000Y-40000000D03*
X15975000Y-21000000D03*
X60000000Y-10000000D03*
X7100000Y-12700000D03*
X60000000Y-30000000D03*
X75000000Y-20000000D03*
X20000000Y-35000000D03*
X25000000Y-5000000D03*
X45975000Y-17000000D03*
X60000000Y-15000000D03*
X65000000Y-10000000D03*
X60000000Y-5000000D03*
X65000000Y-15000000D03*
X10000000Y-25000000D03*
X5000000Y-15000000D03*
X10000000Y-50000000D03*
X15000000Y-50000000D03*
X50000000Y-5000000D03*
X35000000Y-30000000D03*
X65000000Y-5000000D03*
X35000000Y-10000000D03*
X40975000Y-43500000D03*
X18000000Y-5025000D03*
X30000000Y-15000000D03*
X45000000Y-40000000D03*
X7750000Y-49850000D03*
X70000000Y-5000000D03*
X51829100Y-11952500D03*
X54362100Y-21287800D03*
X52011000Y-21918700D03*
X26577400Y-13356500D03*
X44013400Y-10491200D03*
X42237700Y-17053700D03*
X23332700Y-11650000D03*
X44674700Y-14755300D03*
X24954600Y-12662600D03*
D20*
X48898200Y-10634200D03*
X19841700Y-2507100D03*
X9675000Y-43623100D03*
D19*
X24371600Y-15717400D03*
X25792500Y-20540200D03*
X27061500Y-20544800D03*
X34837100Y-20938200D03*
X35211800Y-21942100D03*
X41894900Y-42719900D03*
X22531700Y-3847400D03*
X20581000Y-38404800D03*
X40032800Y-5300000D03*
X40032800Y-6570000D03*
X12545000Y-33450000D03*
X12545000Y-28550000D03*
X9690400Y-7202900D03*
X63653100Y-38000000D03*
D20*
X56939900Y-36089900D03*
D19*
X33580000Y-46150000D03*
X22532800Y-6570000D03*
X48909400Y-36234400D03*
X22781600Y-7840000D03*
X18288500Y-29862500D03*
X14503700Y-31261500D03*
X19967200Y-16730000D03*
X11344999Y-32350000D03*
X4744999Y-30250000D03*
X17704300Y-18450300D03*
X30522200Y-42382500D03*
X24742800Y-17815200D03*
X9432400Y-29705500D03*
X11566500Y-27571400D03*
X12952000Y-36561200D03*
X5174200Y-32844200D03*
X61888000Y-37945000D03*
X65500000Y-43195500D03*
D21*
X19700000Y-3500000D02*
X19525000Y-3500000D01*
X19799300Y-39799300D02*
X20000000Y-40000000D01*
X20000000Y-35000000D02*
X19799300Y-35200700D01*
X30000000Y-25000000D02*
X30000000Y-30000000D01*
X27100000Y-7810000D02*
X27100000Y-8510000D01*
X27100000Y-7100000D02*
X27100000Y-7810000D01*
X4748300Y-25251700D02*
X4748300Y-26680000D01*
X19700000Y-40000000D02*
X20000000Y-40000000D01*
X29200000Y-14200000D02*
X29200000Y-10610000D01*
X5000000Y-15000000D02*
X5000000Y-25000000D01*
X15975000Y-22050000D02*
X15975000Y-21000000D01*
X49975000Y-5025000D02*
X49975000Y-7000000D01*
X3281700Y-26680000D02*
X3281700Y-35320000D01*
X27800000Y-10610000D02*
X27100000Y-9910000D01*
X14475000Y-33550000D02*
X14000000Y-34025000D01*
X29900000Y-9910000D02*
X29200000Y-9210000D01*
X35000000Y-10000000D02*
X35000000Y-15000000D01*
X5000000Y-45000000D02*
X7750000Y-47750000D01*
X5000000Y-40000000D02*
X4748300Y-39748300D01*
X29200000Y-10610000D02*
X29900000Y-9910000D01*
X30000000Y-30000000D02*
X30000000Y-35000000D01*
X14700000Y-10000000D02*
X14200000Y-9500000D01*
X10000000Y-22200000D02*
X10000000Y-25000000D01*
X45975000Y-17000000D02*
X45975000Y-11000000D01*
X50000000Y-5000000D02*
X49975000Y-5025000D01*
X17200000Y-42500000D02*
X19700000Y-40000000D01*
X27800000Y-10610000D02*
X28500000Y-9910000D01*
X55000000Y-34062500D02*
X55000000Y-30000000D01*
X54062500Y-35000000D02*
X55000000Y-34062500D01*
X40975000Y-43500000D02*
X40975000Y-48125000D01*
X29900000Y-8510000D02*
X29200000Y-7810000D01*
X55000000Y-30000000D02*
X56425000Y-28575000D01*
X19525000Y-3500000D02*
X18000000Y-5025000D01*
X40975000Y-48125000D02*
X39250000Y-49850000D01*
X40000000Y-42525000D02*
X40975000Y-43500000D01*
X45975000Y-11000000D02*
X49975000Y-7000000D01*
X27800000Y-9210000D02*
X27100000Y-8510000D01*
X11200000Y-21000000D02*
X10000000Y-22200000D01*
X28500000Y-9910000D02*
X27800000Y-9210000D01*
X7750000Y-47750000D02*
X7750000Y-49850000D01*
X7100000Y-12900000D02*
X7100000Y-12700000D01*
X55000000Y-10000000D02*
X55000000Y-15000000D01*
X15000000Y-10000000D02*
X14700000Y-10000000D01*
X15000000Y-10000000D02*
X18000000Y-7000000D01*
X43125000Y-48125000D02*
X45000000Y-50000000D01*
X45975000Y-17000000D02*
X45975000Y-23015000D01*
X5000000Y-40000000D02*
X5000000Y-45000000D01*
X16500000Y-33550000D02*
X14475000Y-33550000D01*
X27800000Y-7810000D02*
X27100000Y-7810000D01*
X56425000Y-16425000D02*
X55000000Y-15000000D01*
X29200000Y-9210000D02*
X29900000Y-8510000D01*
X5000000Y-25000000D02*
X4748300Y-25251700D01*
X45975000Y-23015000D02*
X47500000Y-24540000D01*
X40000000Y-40000000D02*
X40000000Y-42525000D01*
X25000000Y-5000000D02*
X27100000Y-7100000D01*
X56425000Y-20000000D02*
X56425000Y-16425000D01*
X2050000Y-26680000D02*
X3281700Y-26680000D01*
X35000000Y-5000000D02*
X35000000Y-10000000D01*
X19799300Y-35200700D02*
X19799300Y-39799300D01*
X40975000Y-48125000D02*
X43125000Y-48125000D01*
X4748300Y-39748300D02*
X4748300Y-35320000D01*
X6230000Y-35320000D02*
X4748300Y-35320000D01*
X14000000Y-24025000D02*
X15975000Y-22050000D01*
X6230000Y-26680000D02*
X4748300Y-26680000D01*
X65000000Y-5000000D02*
X65000000Y-10000000D01*
X30000000Y-15000000D02*
X29200000Y-14200000D01*
X5000000Y-15000000D02*
X7100000Y-12900000D01*
X2050000Y-35320000D02*
X3281700Y-35320000D01*
X18000000Y-7000000D02*
X18000000Y-5025000D01*
X56425000Y-28575000D02*
X56425000Y-20000000D01*
X29200000Y-7810000D02*
X28500000Y-8510000D01*
D22*
X54293700Y-21219400D02*
X54362100Y-21287800D01*
X51461100Y-20946400D02*
X51461100Y-12320500D01*
X51329300Y-21624200D02*
X51734100Y-21219400D01*
X51734100Y-21219400D02*
X51461100Y-20946400D01*
X51461100Y-12320500D02*
X51829100Y-11952500D01*
X51734100Y-21219400D02*
X54293700Y-21219400D01*
X51329300Y-44249300D02*
X51329300Y-21624200D01*
X55580000Y-48500000D02*
X51329300Y-44249300D01*
X60660000Y-48500000D02*
X52011000Y-39851000D01*
X52011000Y-39851000D02*
X52011000Y-21918700D01*
X30318500Y-15717400D02*
X28938300Y-15717400D01*
X32342300Y-5999100D02*
X32342300Y-13693600D01*
X34481900Y-3859500D02*
X32342300Y-5999100D01*
X32342300Y-13693600D02*
X30318500Y-15717400D01*
X44013400Y-10491200D02*
X44013400Y-7687400D01*
X28938300Y-15717400D02*
X26577400Y-13356500D01*
X44013400Y-7687400D02*
X40185500Y-3859500D01*
X40185500Y-3859500D02*
X34481900Y-3859500D01*
X42237700Y-17053700D02*
X28359900Y-17053700D01*
X28359900Y-17053700D02*
X23332700Y-12026500D01*
X23332700Y-12026500D02*
X23332700Y-11650000D01*
X32799500Y-6152500D02*
X32799500Y-13900000D01*
X30550400Y-16149100D02*
X28441100Y-16149100D01*
X40006600Y-4291200D02*
X34660800Y-4291200D01*
X43315000Y-7599600D02*
X40006600Y-4291200D01*
X34660800Y-4291200D02*
X32799500Y-6152500D01*
X28441100Y-16149100D02*
X24954600Y-12662600D01*
X44674700Y-14755300D02*
X43315000Y-13395600D01*
X32799500Y-13900000D02*
X30550400Y-16149100D01*
X43315000Y-13395600D02*
X43315000Y-7599600D01*
D21*
X20789300Y-32508800D02*
X20789300Y-3454700D01*
X9675000Y-43623100D02*
X20789300Y-32508800D01*
X48898200Y-19320100D02*
X47500000Y-20718300D01*
X47500000Y-22000000D02*
X47500000Y-20718300D01*
X20789300Y-3454700D02*
X19841700Y-2507100D01*
X48898200Y-10634200D02*
X48898200Y-19320100D01*
D22*
X26716000Y-18061800D02*
X24371600Y-15717400D01*
X43000000Y-26272100D02*
X34789700Y-18061800D01*
X43000000Y-27080000D02*
X43000000Y-26272100D01*
X34789700Y-18061800D02*
X26716000Y-18061800D01*
X26484600Y-19848100D02*
X25792500Y-20540200D01*
X37163700Y-23783700D02*
X37163700Y-21712000D01*
X35299800Y-19848100D02*
X26484600Y-19848100D01*
X37163700Y-21712000D02*
X35299800Y-19848100D01*
X43000000Y-29620000D02*
X37163700Y-23783700D01*
X27061500Y-20544800D02*
X27324900Y-20281400D01*
X36732000Y-25892000D02*
X43000000Y-32160000D01*
X36732000Y-21890900D02*
X36732000Y-25892000D01*
X35122500Y-20281400D02*
X36732000Y-21890900D01*
X27324900Y-20281400D02*
X35122500Y-20281400D01*
X36224100Y-21993600D02*
X36224100Y-27924100D01*
X36224100Y-27924100D02*
X43000000Y-34700000D01*
X34837100Y-20938200D02*
X35168700Y-20938200D01*
X35168700Y-20938200D02*
X36224100Y-21993600D01*
X35715000Y-32922500D02*
X41894900Y-39102400D01*
X35715000Y-22445300D02*
X35715000Y-32922500D01*
X35211800Y-21942100D02*
X35715000Y-22445300D01*
X41894900Y-39102400D02*
X41894900Y-42719900D01*
X21438500Y-37547300D02*
X20581000Y-38404800D01*
X22531700Y-3847400D02*
X21438500Y-4940600D01*
X21438500Y-4940600D02*
X21438500Y-37547300D01*
X42840200Y-8107400D02*
X42840200Y-14862500D01*
X40032800Y-5300000D02*
X42840200Y-8107400D01*
X45250000Y-24830000D02*
X47500000Y-27080000D01*
X45250000Y-17272300D02*
X45250000Y-24830000D01*
X42840200Y-14862500D02*
X45250000Y-17272300D01*
X40032800Y-13076800D02*
X40032800Y-6570000D01*
X47500000Y-29620000D02*
X44528000Y-26648000D01*
X44528000Y-26648000D02*
X44528000Y-17572000D01*
X44528000Y-17572000D02*
X40032800Y-13076800D01*
D21*
X12545000Y-28550000D02*
X12545000Y-33450000D01*
D22*
X12545000Y-28550000D02*
X12545000Y-10057500D01*
X12545000Y-10057500D02*
X9690400Y-7202900D01*
D21*
X56939900Y-36089900D02*
X61743000Y-36089900D01*
X61743000Y-36089900D02*
X63653100Y-38000000D01*
D22*
X33361000Y-46150000D02*
X33580000Y-46150000D01*
X22532800Y-6570000D02*
X22112900Y-6989900D01*
X22112900Y-6989900D02*
X22112900Y-34901900D01*
X22112900Y-34901900D02*
X33361000Y-46150000D01*
X22618900Y-8002700D02*
X22781600Y-7840000D01*
X43394800Y-28350000D02*
X42634300Y-28350000D01*
X25014900Y-17158500D02*
X24840500Y-17158500D01*
X26349900Y-18493500D02*
X25014900Y-17158500D01*
X48909400Y-36234400D02*
X48909400Y-33864600D01*
X34592800Y-18493500D02*
X26349900Y-18493500D01*
X24840500Y-17158500D02*
X22618900Y-14936900D01*
X48909400Y-33864600D02*
X43394800Y-28350000D01*
X22618900Y-14936900D02*
X22618900Y-8002700D01*
X37927400Y-23643100D02*
X37927400Y-21828100D01*
X37927400Y-21828100D02*
X34592800Y-18493500D01*
X42634300Y-28350000D02*
X37927400Y-23643100D01*
X18288500Y-29862500D02*
X15902700Y-29862500D01*
X18288500Y-29862500D02*
X18361000Y-29790000D01*
X18361000Y-29790000D02*
X18361000Y-18336200D01*
X18361000Y-18336200D02*
X19967200Y-16730000D01*
X15902700Y-29862500D02*
X14503700Y-31261500D01*
X13201700Y-31077000D02*
X17704300Y-26574400D01*
X11345000Y-33204700D02*
X12265000Y-34124700D01*
X11345000Y-32350000D02*
X11345000Y-33204700D01*
X12265000Y-34124700D02*
X12848500Y-34124700D01*
X4744999Y-30250000D02*
X11344999Y-32350000D01*
X17704300Y-26574400D02*
X17704300Y-18450300D01*
X13201700Y-33771500D02*
X13201700Y-31077000D01*
X12848500Y-34124700D02*
X13201700Y-33771500D01*
X25924400Y-21951700D02*
X24742800Y-20770100D01*
X25924400Y-37784700D02*
X25924400Y-21951700D01*
X24742800Y-20770100D02*
X24742800Y-17815200D01*
X30522200Y-42382500D02*
X25924400Y-37784700D01*
X11566500Y-27571400D02*
X9432400Y-29705500D01*
X5174200Y-32844200D02*
X9235000Y-32844200D01*
X9235000Y-32844200D02*
X12952000Y-36561200D01*
X61888000Y-37945000D02*
X61888000Y-39583500D01*
X61888000Y-39583500D02*
X65500000Y-43195500D01*
G04 #@! TA.AperFunction,Conductor*
G36*
X22743603Y-15663796D02*
G01*
X22750079Y-15669826D01*
X24271473Y-17191221D01*
X24304957Y-17252542D01*
X24299973Y-17322234D01*
X24271473Y-17366580D01*
X24237527Y-17400526D01*
X24237523Y-17400531D01*
X24166338Y-17507066D01*
X24166333Y-17507075D01*
X24117299Y-17625455D01*
X24117297Y-17625461D01*
X24092300Y-17751128D01*
X24092300Y-17751131D01*
X24092300Y-17879269D01*
X24092300Y-17879271D01*
X24092299Y-17879271D01*
X24117297Y-18004938D01*
X24117299Y-18004944D01*
X24166333Y-18123324D01*
X24166338Y-18123333D01*
X24237523Y-18229868D01*
X24237526Y-18229872D01*
X24280980Y-18273325D01*
X24314466Y-18334648D01*
X24317300Y-18361007D01*
X24317300Y-20714082D01*
X24317300Y-20826118D01*
X24346297Y-20934337D01*
X24402315Y-21031363D01*
X24402317Y-21031365D01*
X25462581Y-22091629D01*
X25496066Y-22152952D01*
X25498900Y-22179310D01*
X25498900Y-37386790D01*
X25479215Y-37453829D01*
X25426411Y-37499584D01*
X25357253Y-37509528D01*
X25293697Y-37480503D01*
X25287219Y-37474471D01*
X22574719Y-34761971D01*
X22541234Y-34700648D01*
X22538400Y-34674290D01*
X22538400Y-15757509D01*
X22558085Y-15690470D01*
X22610889Y-15644715D01*
X22680047Y-15634771D01*
X22743603Y-15663796D01*
G37*
G04 #@! TD.AperFunction*
G04 #@! TA.AperFunction,Conductor*
G36*
X44030425Y-25287583D02*
G01*
X44037145Y-25288995D01*
X44086903Y-25338045D01*
X44102500Y-25398251D01*
X44102500Y-26258478D01*
X44082815Y-26325517D01*
X44030011Y-26371272D01*
X43960853Y-26381216D01*
X43897297Y-26352191D01*
X43880764Y-26334178D01*
X43880725Y-26334212D01*
X43879781Y-26333107D01*
X43878184Y-26331367D01*
X43877554Y-26330500D01*
X43749499Y-26202445D01*
X43749494Y-26202441D01*
X43602997Y-26096006D01*
X43602996Y-26096005D01*
X43602994Y-26096004D01*
X43551300Y-26069664D01*
X43441639Y-26013788D01*
X43441636Y-26013787D01*
X43338386Y-25980240D01*
X43280711Y-25940803D01*
X43253512Y-25876444D01*
X43265426Y-25807598D01*
X43312670Y-25756122D01*
X43338386Y-25744378D01*
X43479835Y-25698418D01*
X43655143Y-25609095D01*
X43731079Y-25553922D01*
X43731080Y-25553922D01*
X43185177Y-25008019D01*
X43192993Y-25005925D01*
X43307007Y-24940099D01*
X43400099Y-24847007D01*
X43465925Y-24732993D01*
X43468019Y-24725177D01*
X44030425Y-25287583D01*
G37*
G04 #@! TD.AperFunction*
G04 #@! TA.AperFunction,Conductor*
G36*
X43004452Y-16668749D02*
G01*
X43052975Y-16698723D01*
X44066181Y-17711929D01*
X44099666Y-17773252D01*
X44102500Y-17799610D01*
X44102500Y-20742699D01*
X44082815Y-20809738D01*
X44030011Y-20855493D01*
X43960853Y-20865437D01*
X43928416Y-20856134D01*
X43919996Y-20852416D01*
X43919991Y-20852415D01*
X43894865Y-20849500D01*
X42105143Y-20849500D01*
X42105117Y-20849502D01*
X42080012Y-20852413D01*
X42080008Y-20852415D01*
X41977235Y-20897793D01*
X41897794Y-20977234D01*
X41852415Y-21080006D01*
X41852415Y-21080008D01*
X41849500Y-21105131D01*
X41849500Y-22894856D01*
X41849502Y-22894882D01*
X41852413Y-22919987D01*
X41852415Y-22919991D01*
X41897793Y-23022764D01*
X41897794Y-23022765D01*
X41977235Y-23102206D01*
X42080009Y-23147585D01*
X42105135Y-23150500D01*
X42457191Y-23150499D01*
X42524228Y-23170183D01*
X42569983Y-23222987D01*
X42579927Y-23292146D01*
X42550902Y-23355701D01*
X42513484Y-23384984D01*
X42344855Y-23470905D01*
X42344846Y-23470911D01*
X42268919Y-23526075D01*
X42268918Y-23526076D01*
X42814823Y-24071980D01*
X42807007Y-24074075D01*
X42692993Y-24139901D01*
X42599901Y-24232993D01*
X42534075Y-24347007D01*
X42531980Y-24354822D01*
X41986076Y-23808918D01*
X41986075Y-23808919D01*
X41930911Y-23884846D01*
X41930905Y-23884855D01*
X41841581Y-24060162D01*
X41793319Y-24208697D01*
X41753881Y-24266372D01*
X41689522Y-24293570D01*
X41620676Y-24281655D01*
X41587707Y-24258059D01*
X35050965Y-17721317D01*
X35050963Y-17721315D01*
X35032380Y-17710586D01*
X34984166Y-17660019D01*
X34970944Y-17591412D01*
X34996912Y-17526547D01*
X35053827Y-17486020D01*
X35094382Y-17479200D01*
X41691893Y-17479200D01*
X41758932Y-17498885D01*
X41779575Y-17515520D01*
X41823027Y-17558973D01*
X41823031Y-17558976D01*
X41929566Y-17630161D01*
X41929572Y-17630164D01*
X41929573Y-17630165D01*
X42047956Y-17679201D01*
X42047960Y-17679201D01*
X42047961Y-17679202D01*
X42173628Y-17704200D01*
X42173631Y-17704200D01*
X42301771Y-17704200D01*
X42386315Y-17687382D01*
X42427444Y-17679201D01*
X42545827Y-17630165D01*
X42652369Y-17558976D01*
X42742976Y-17468369D01*
X42814165Y-17361827D01*
X42863201Y-17243444D01*
X42871382Y-17202315D01*
X42888200Y-17117771D01*
X42888200Y-16989628D01*
X42863202Y-16863961D01*
X42863201Y-16863960D01*
X42863201Y-16863956D01*
X42850732Y-16833854D01*
X42843264Y-16764389D01*
X42874538Y-16701909D01*
X42934627Y-16666256D01*
X43004452Y-16668749D01*
G37*
G04 #@! TD.AperFunction*
G04 #@! TA.AperFunction,Conductor*
G36*
X44060876Y-23164617D02*
G01*
X44097908Y-23223866D01*
X44102500Y-23257300D01*
X44102500Y-23681747D01*
X44082815Y-23748786D01*
X44030011Y-23794541D01*
X44027932Y-23794908D01*
X43468018Y-24354821D01*
X43465925Y-24347007D01*
X43400099Y-24232993D01*
X43307007Y-24139901D01*
X43192993Y-24074075D01*
X43185177Y-24071980D01*
X43731080Y-23526077D01*
X43731079Y-23526076D01*
X43655143Y-23470904D01*
X43486514Y-23384984D01*
X43435718Y-23337010D01*
X43418923Y-23269189D01*
X43441460Y-23203054D01*
X43496175Y-23159602D01*
X43542807Y-23150499D01*
X43894864Y-23150499D01*
X43894879Y-23150497D01*
X43894882Y-23150497D01*
X43919987Y-23147586D01*
X43919987Y-23147585D01*
X43919991Y-23147585D01*
X43928414Y-23143865D01*
X43997691Y-23134794D01*
X44060876Y-23164617D01*
G37*
G04 #@! TD.AperFunction*
G04 #@! TA.AperFunction,Conductor*
G36*
X23249603Y-12545597D02*
G01*
X23256081Y-12551629D01*
X28019415Y-17314963D01*
X28098637Y-17394185D01*
X28098638Y-17394186D01*
X28098640Y-17394187D01*
X28117218Y-17404913D01*
X28165433Y-17455479D01*
X28178657Y-17524086D01*
X28152689Y-17588951D01*
X28095775Y-17629480D01*
X28055218Y-17636300D01*
X26943609Y-17636300D01*
X26876570Y-17616615D01*
X26855928Y-17599981D01*
X25058419Y-15802471D01*
X25024934Y-15741148D01*
X25022100Y-15714790D01*
X25022100Y-15653328D01*
X24997102Y-15527661D01*
X24997101Y-15527660D01*
X24997101Y-15527656D01*
X24948065Y-15409273D01*
X24948064Y-15409272D01*
X24948061Y-15409266D01*
X24876876Y-15302731D01*
X24876873Y-15302727D01*
X24786272Y-15212126D01*
X24786268Y-15212123D01*
X24679733Y-15140938D01*
X24679724Y-15140933D01*
X24561344Y-15091899D01*
X24561338Y-15091897D01*
X24435671Y-15066900D01*
X24435669Y-15066900D01*
X24307531Y-15066900D01*
X24307529Y-15066900D01*
X24181861Y-15091897D01*
X24181855Y-15091899D01*
X24063475Y-15140933D01*
X24063466Y-15140938D01*
X23956931Y-15212123D01*
X23956927Y-15212126D01*
X23866324Y-15302729D01*
X23838175Y-15344857D01*
X23784562Y-15389661D01*
X23715237Y-15398367D01*
X23652210Y-15368211D01*
X23647393Y-15363645D01*
X23080719Y-14796971D01*
X23047234Y-14735648D01*
X23044400Y-14709290D01*
X23044400Y-12639310D01*
X23064085Y-12572271D01*
X23116889Y-12526516D01*
X23186047Y-12516572D01*
X23249603Y-12545597D01*
G37*
G04 #@! TD.AperFunction*
G04 #@! TA.AperFunction,Conductor*
G36*
X39417963Y-4719563D02*
G01*
X39428048Y-4718297D01*
X39450923Y-4729241D01*
X39475251Y-4736385D01*
X39481905Y-4744065D01*
X39491075Y-4748452D01*
X39504402Y-4770028D01*
X39521006Y-4789189D01*
X39522452Y-4799247D01*
X39527794Y-4807895D01*
X39527341Y-4833247D01*
X39530950Y-4858347D01*
X39526694Y-4869453D01*
X39526546Y-4877753D01*
X39511314Y-4909591D01*
X39456338Y-4991866D01*
X39456333Y-4991875D01*
X39407299Y-5110255D01*
X39407297Y-5110261D01*
X39382300Y-5235928D01*
X39382300Y-5235931D01*
X39382300Y-5364069D01*
X39382300Y-5364071D01*
X39382299Y-5364071D01*
X39407297Y-5489738D01*
X39407299Y-5489744D01*
X39456333Y-5608124D01*
X39456338Y-5608133D01*
X39527523Y-5714668D01*
X39527526Y-5714672D01*
X39618127Y-5805273D01*
X39618131Y-5805276D01*
X39657973Y-5831898D01*
X39702778Y-5885510D01*
X39711485Y-5954835D01*
X39681330Y-6017863D01*
X39657973Y-6038102D01*
X39618131Y-6064723D01*
X39618127Y-6064726D01*
X39527526Y-6155327D01*
X39527523Y-6155331D01*
X39456338Y-6261866D01*
X39456333Y-6261875D01*
X39407299Y-6380255D01*
X39407297Y-6380261D01*
X39382300Y-6505928D01*
X39382300Y-6505931D01*
X39382300Y-6634069D01*
X39382300Y-6634071D01*
X39382299Y-6634071D01*
X39407297Y-6759738D01*
X39407299Y-6759744D01*
X39456333Y-6878124D01*
X39456338Y-6878133D01*
X39527523Y-6984668D01*
X39527526Y-6984672D01*
X39570980Y-7028125D01*
X39604466Y-7089448D01*
X39607300Y-7115807D01*
X39607300Y-13020782D01*
X39607300Y-13132818D01*
X39636297Y-13241037D01*
X39692315Y-13338063D01*
X39692317Y-13338065D01*
X42592676Y-16238424D01*
X42626161Y-16299747D01*
X42621177Y-16369439D01*
X42579305Y-16425372D01*
X42513841Y-16449789D01*
X42457543Y-16440666D01*
X42427448Y-16428200D01*
X42427438Y-16428197D01*
X42301771Y-16403200D01*
X42301769Y-16403200D01*
X42173631Y-16403200D01*
X42173629Y-16403200D01*
X42047961Y-16428197D01*
X42047955Y-16428199D01*
X41929575Y-16477233D01*
X41929566Y-16477238D01*
X41823031Y-16548423D01*
X41823027Y-16548426D01*
X41779575Y-16591880D01*
X41718252Y-16625366D01*
X41691893Y-16628200D01*
X30972410Y-16628200D01*
X30905371Y-16608515D01*
X30859616Y-16555711D01*
X30849672Y-16486553D01*
X30878697Y-16422997D01*
X30884729Y-16416519D01*
X32012182Y-15289066D01*
X33139985Y-14161263D01*
X33196003Y-14064237D01*
X33225000Y-13956018D01*
X33225000Y-13843981D01*
X33225000Y-6380110D01*
X33244685Y-6313071D01*
X33261319Y-6292429D01*
X34800729Y-4753019D01*
X34862052Y-4719534D01*
X34888410Y-4716700D01*
X39408212Y-4716700D01*
X39417963Y-4719563D01*
G37*
G04 #@! TD.AperFunction*
G04 #@! TA.AperFunction,Conductor*
G36*
X78389194Y-502183D02*
G01*
X78395996Y-501167D01*
X78429910Y-510922D01*
X78515331Y-549367D01*
X78528566Y-556314D01*
X78743045Y-685970D01*
X78755356Y-694468D01*
X78952636Y-849027D01*
X78963844Y-858957D01*
X79141042Y-1036155D01*
X79150972Y-1047363D01*
X79305527Y-1244637D01*
X79314033Y-1256960D01*
X79443681Y-1471425D01*
X79450638Y-1484682D01*
X79489075Y-1570085D01*
X79500000Y-1620975D01*
X79500000Y-52379021D01*
X79489075Y-52429913D01*
X79450636Y-52515320D01*
X79443678Y-52528578D01*
X79314032Y-52743039D01*
X79305525Y-52755363D01*
X79150970Y-52952636D01*
X79141041Y-52963843D01*
X78963843Y-53141041D01*
X78952636Y-53150970D01*
X78755363Y-53305525D01*
X78743039Y-53314032D01*
X78528578Y-53443678D01*
X78515320Y-53450636D01*
X78429913Y-53489075D01*
X78379021Y-53500000D01*
X1620976Y-53500000D01*
X1570087Y-53489076D01*
X1484675Y-53450635D01*
X1471425Y-53443681D01*
X1256960Y-53314033D01*
X1244637Y-53305527D01*
X1244634Y-53305525D01*
X1047363Y-53150972D01*
X1036155Y-53141042D01*
X858957Y-52963844D01*
X849027Y-52952636D01*
X694468Y-52755356D01*
X685966Y-52743038D01*
X556321Y-52528577D01*
X549362Y-52515319D01*
X510924Y-52429913D01*
X500000Y-52379022D01*
X500000Y-50378711D01*
X1649500Y-50378711D01*
X1649500Y-50621288D01*
X1681161Y-50861785D01*
X1743947Y-51096104D01*
X1836773Y-51320205D01*
X1836776Y-51320212D01*
X1958064Y-51530289D01*
X1958066Y-51530292D01*
X1958067Y-51530293D01*
X2105733Y-51722736D01*
X2105739Y-51722743D01*
X2277256Y-51894260D01*
X2277262Y-51894265D01*
X2469711Y-52041936D01*
X2679788Y-52163224D01*
X2903900Y-52256054D01*
X3138211Y-52318838D01*
X3318586Y-52342584D01*
X3378711Y-52350500D01*
X3378712Y-52350500D01*
X3621289Y-52350500D01*
X3669388Y-52344167D01*
X3861789Y-52318838D01*
X4096100Y-52256054D01*
X4320212Y-52163224D01*
X4530289Y-52041936D01*
X4722738Y-51894265D01*
X4894265Y-51722738D01*
X5041936Y-51530289D01*
X5163224Y-51320212D01*
X5256054Y-51096100D01*
X5318838Y-50861789D01*
X5350500Y-50621288D01*
X5350500Y-50378712D01*
X5350500Y-50378711D01*
X74649500Y-50378711D01*
X74649500Y-50621288D01*
X74681161Y-50861785D01*
X74743947Y-51096104D01*
X74836773Y-51320205D01*
X74836776Y-51320212D01*
X74958064Y-51530289D01*
X74958066Y-51530292D01*
X74958067Y-51530293D01*
X75105733Y-51722736D01*
X75105739Y-51722743D01*
X75277256Y-51894260D01*
X75277262Y-51894265D01*
X75469711Y-52041936D01*
X75679788Y-52163224D01*
X75903900Y-52256054D01*
X76138211Y-52318838D01*
X76318586Y-52342584D01*
X76378711Y-52350500D01*
X76378712Y-52350500D01*
X76621289Y-52350500D01*
X76669388Y-52344167D01*
X76861789Y-52318838D01*
X77096100Y-52256054D01*
X77320212Y-52163224D01*
X77530289Y-52041936D01*
X77722738Y-51894265D01*
X77894265Y-51722738D01*
X78041936Y-51530289D01*
X78163224Y-51320212D01*
X78256054Y-51096100D01*
X78318838Y-50861789D01*
X78350500Y-50621288D01*
X78350500Y-50378712D01*
X78318838Y-50138211D01*
X78256054Y-49903900D01*
X78163224Y-49679788D01*
X78041936Y-49469711D01*
X77941521Y-49338847D01*
X77894266Y-49277263D01*
X77894260Y-49277256D01*
X77722743Y-49105739D01*
X77722736Y-49105733D01*
X77530293Y-48958067D01*
X77530292Y-48958066D01*
X77530289Y-48958064D01*
X77320212Y-48836776D01*
X77320205Y-48836773D01*
X77096104Y-48743947D01*
X76861785Y-48681161D01*
X76621289Y-48649500D01*
X76621288Y-48649500D01*
X76378712Y-48649500D01*
X76378711Y-48649500D01*
X76138214Y-48681161D01*
X75903895Y-48743947D01*
X75679794Y-48836773D01*
X75679785Y-48836777D01*
X75613954Y-48874785D01*
X75490219Y-48946224D01*
X75469706Y-48958067D01*
X75277263Y-49105733D01*
X75277256Y-49105739D01*
X75105739Y-49277256D01*
X75105733Y-49277263D01*
X74958067Y-49469706D01*
X74836777Y-49679785D01*
X74836773Y-49679794D01*
X74743947Y-49903895D01*
X74681161Y-50138214D01*
X74649500Y-50378711D01*
X5350500Y-50378711D01*
X5318838Y-50138211D01*
X5256054Y-49903900D01*
X5163224Y-49679788D01*
X5041936Y-49469711D01*
X4941521Y-49338847D01*
X4894266Y-49277263D01*
X4894260Y-49277256D01*
X4722743Y-49105739D01*
X4722736Y-49105733D01*
X4530293Y-48958067D01*
X4530292Y-48958066D01*
X4530289Y-48958064D01*
X4320212Y-48836776D01*
X4320205Y-48836773D01*
X4142582Y-48763199D01*
X4142580Y-48763198D01*
X4096107Y-48743948D01*
X3932092Y-48700000D01*
X3861789Y-48681162D01*
X3861788Y-48681161D01*
X3861785Y-48681161D01*
X3621289Y-48649500D01*
X3621288Y-48649500D01*
X3378712Y-48649500D01*
X3378711Y-48649500D01*
X3138214Y-48681161D01*
X2903895Y-48743947D01*
X2679794Y-48836773D01*
X2679785Y-48836777D01*
X2613954Y-48874785D01*
X2490219Y-48946224D01*
X2469706Y-48958067D01*
X2277263Y-49105733D01*
X2277256Y-49105739D01*
X2105739Y-49277256D01*
X2105733Y-49277263D01*
X1958067Y-49469706D01*
X1836777Y-49679785D01*
X1836773Y-49679794D01*
X1743947Y-49903895D01*
X1681161Y-50138214D01*
X1649500Y-50378711D01*
X500000Y-50378711D01*
X500000Y-47384350D01*
X48800000Y-47384350D01*
X48800000Y-48300000D01*
X49826069Y-48300000D01*
X49800000Y-48431056D01*
X49800000Y-48568944D01*
X49826069Y-48700000D01*
X48800000Y-48700000D01*
X48800000Y-49615649D01*
X48802899Y-49652489D01*
X48802900Y-49652495D01*
X48848716Y-49810193D01*
X48848717Y-49810196D01*
X48932314Y-49951552D01*
X48932321Y-49951561D01*
X49048438Y-50067678D01*
X49048447Y-50067685D01*
X49189803Y-50151282D01*
X49189806Y-50151283D01*
X49347504Y-50197099D01*
X49347510Y-50197100D01*
X49384350Y-50199999D01*
X49384366Y-50200000D01*
X50300000Y-50200000D01*
X50300000Y-49173930D01*
X50431056Y-49200000D01*
X50568944Y-49200000D01*
X50700000Y-49173930D01*
X50700000Y-50200000D01*
X51615634Y-50200000D01*
X51615649Y-50199999D01*
X51652489Y-50197100D01*
X51652495Y-50197099D01*
X51810193Y-50151283D01*
X51810196Y-50151282D01*
X51951552Y-50067685D01*
X51951561Y-50067678D01*
X52067678Y-49951561D01*
X52067685Y-49951552D01*
X52151282Y-49810196D01*
X52151283Y-49810193D01*
X52197099Y-49652495D01*
X52197100Y-49652489D01*
X52199999Y-49615649D01*
X52200000Y-49615634D01*
X52200000Y-48700000D01*
X51173931Y-48700000D01*
X51200000Y-48568944D01*
X51200000Y-48431056D01*
X51173931Y-48300000D01*
X52200000Y-48300000D01*
X52200000Y-47384365D01*
X52199999Y-47384350D01*
X52197100Y-47347510D01*
X52197099Y-47347504D01*
X52151283Y-47189806D01*
X52151282Y-47189803D01*
X52067685Y-47048447D01*
X52067678Y-47048438D01*
X51951561Y-46932321D01*
X51951552Y-46932314D01*
X51810196Y-46848717D01*
X51810193Y-46848716D01*
X51652495Y-46802900D01*
X51652489Y-46802899D01*
X51615649Y-46800000D01*
X50700000Y-46800000D01*
X50700000Y-47826069D01*
X50568944Y-47800000D01*
X50431056Y-47800000D01*
X50300000Y-47826069D01*
X50300000Y-46800000D01*
X49384350Y-46800000D01*
X49347510Y-46802899D01*
X49347504Y-46802900D01*
X49189806Y-46848716D01*
X49189803Y-46848717D01*
X49048447Y-46932314D01*
X49048438Y-46932321D01*
X48932321Y-47048438D01*
X48932314Y-47048447D01*
X48848717Y-47189803D01*
X48848716Y-47189806D01*
X48802900Y-47347504D01*
X48802899Y-47347510D01*
X48800000Y-47384350D01*
X500000Y-47384350D01*
X500000Y-35120000D01*
X872150Y-35120000D01*
X1525735Y-35120000D01*
X1509940Y-35135795D01*
X1470444Y-35204204D01*
X1450000Y-35280504D01*
X1450000Y-35359496D01*
X1470444Y-35435796D01*
X1509940Y-35504205D01*
X1525735Y-35520000D01*
X872150Y-35520000D01*
X884584Y-35582512D01*
X884586Y-35582520D01*
X952428Y-35746307D01*
X952433Y-35746316D01*
X1050923Y-35893716D01*
X1050926Y-35893720D01*
X1176279Y-36019073D01*
X1176283Y-36019076D01*
X1323683Y-36117566D01*
X1323692Y-36117571D01*
X1487479Y-36185413D01*
X1487487Y-36185415D01*
X1661353Y-36219999D01*
X1661357Y-36220000D01*
X1850000Y-36220000D01*
X1850000Y-35620000D01*
X2250000Y-35620000D01*
X2250000Y-36220000D01*
X2438643Y-36220000D01*
X2438646Y-36219999D01*
X2612512Y-36185415D01*
X2612520Y-36185413D01*
X2776307Y-36117571D01*
X2776316Y-36117566D01*
X2923716Y-36019076D01*
X2923720Y-36019073D01*
X3049073Y-35893720D01*
X3049076Y-35893716D01*
X3147566Y-35746316D01*
X3147571Y-35746307D01*
X3215413Y-35582520D01*
X3215415Y-35582512D01*
X3227850Y-35520000D01*
X2574265Y-35520000D01*
X2590060Y-35504205D01*
X2629556Y-35435796D01*
X2650000Y-35359496D01*
X2650000Y-35280504D01*
X2629556Y-35204204D01*
X2590060Y-35135795D01*
X2574265Y-35120000D01*
X3227850Y-35120000D01*
X3215415Y-35057487D01*
X3215413Y-35057479D01*
X3147571Y-34893692D01*
X3147566Y-34893683D01*
X3049076Y-34746283D01*
X3049073Y-34746279D01*
X2923720Y-34620926D01*
X2923716Y-34620923D01*
X2776316Y-34522433D01*
X2776307Y-34522428D01*
X2612520Y-34454586D01*
X2612512Y-34454584D01*
X2438646Y-34420000D01*
X2250000Y-34420000D01*
X2250000Y-35020000D01*
X1850000Y-35020000D01*
X1850000Y-34420000D01*
X1661353Y-34420000D01*
X1487487Y-34454584D01*
X1487479Y-34454586D01*
X1323692Y-34522428D01*
X1323683Y-34522433D01*
X1176283Y-34620923D01*
X1176279Y-34620926D01*
X1050926Y-34746279D01*
X1050923Y-34746283D01*
X952433Y-34893683D01*
X952428Y-34893692D01*
X884586Y-35057479D01*
X884584Y-35057487D01*
X872150Y-35120000D01*
X500000Y-35120000D01*
X500000Y-32908271D01*
X4523699Y-32908271D01*
X4548697Y-33033938D01*
X4548699Y-33033944D01*
X4597733Y-33152324D01*
X4597738Y-33152333D01*
X4668923Y-33258868D01*
X4668926Y-33258872D01*
X4759527Y-33349473D01*
X4759531Y-33349476D01*
X4866066Y-33420661D01*
X4866072Y-33420664D01*
X4866073Y-33420665D01*
X4984456Y-33469701D01*
X5078159Y-33488340D01*
X5140070Y-33520725D01*
X5174644Y-33581440D01*
X5170905Y-33651210D01*
X5166719Y-33660304D01*
X5166831Y-33660351D01*
X5163720Y-33667862D01*
X5163720Y-33667863D01*
X5163719Y-33667865D01*
X5124500Y-33814234D01*
X5124500Y-33965766D01*
X5142451Y-34032759D01*
X5163719Y-34112136D01*
X5167714Y-34119055D01*
X5239485Y-34243365D01*
X5239487Y-34243367D01*
X5309750Y-34313630D01*
X5343235Y-34374953D01*
X5338251Y-34444645D01*
X5296379Y-34500578D01*
X5269522Y-34515872D01*
X5253692Y-34522428D01*
X5253683Y-34522433D01*
X5106283Y-34620923D01*
X5106279Y-34620926D01*
X4980926Y-34746279D01*
X4980923Y-34746283D01*
X4882433Y-34893683D01*
X4882428Y-34893692D01*
X4814586Y-35057479D01*
X4814584Y-35057487D01*
X4802150Y-35120000D01*
X5455735Y-35120000D01*
X5439940Y-35135795D01*
X5400444Y-35204204D01*
X5380000Y-35280504D01*
X5380000Y-35359496D01*
X5400444Y-35435796D01*
X5439940Y-35504205D01*
X5455735Y-35520000D01*
X4802150Y-35520000D01*
X4814584Y-35582512D01*
X4814586Y-35582520D01*
X4882428Y-35746307D01*
X4882433Y-35746316D01*
X4980923Y-35893716D01*
X4980926Y-35893720D01*
X5106279Y-36019073D01*
X5106283Y-36019076D01*
X5253683Y-36117566D01*
X5253692Y-36117571D01*
X5417479Y-36185413D01*
X5417487Y-36185415D01*
X5591353Y-36219999D01*
X5591357Y-36220000D01*
X6030000Y-36220000D01*
X6030000Y-35620000D01*
X6430000Y-35620000D01*
X6430000Y-36220000D01*
X6868643Y-36220000D01*
X6868646Y-36219999D01*
X7042512Y-36185415D01*
X7042520Y-36185413D01*
X7206307Y-36117571D01*
X7206316Y-36117566D01*
X7353716Y-36019076D01*
X7353720Y-36019073D01*
X7479073Y-35893720D01*
X7479076Y-35893716D01*
X7577566Y-35746316D01*
X7577571Y-35746307D01*
X7645413Y-35582520D01*
X7645415Y-35582512D01*
X7657850Y-35520000D01*
X7004265Y-35520000D01*
X7020060Y-35504205D01*
X7059556Y-35435796D01*
X7080000Y-35359496D01*
X7080000Y-35280504D01*
X7059556Y-35204204D01*
X7020060Y-35135795D01*
X7004265Y-35120000D01*
X7657850Y-35120000D01*
X7645415Y-35057487D01*
X7645413Y-35057479D01*
X7577571Y-34893692D01*
X7577566Y-34893683D01*
X7479076Y-34746283D01*
X7479073Y-34746279D01*
X7353720Y-34620926D01*
X7353716Y-34620923D01*
X7206316Y-34522433D01*
X7206307Y-34522428D01*
X7042520Y-34454586D01*
X7042512Y-34454584D01*
X6868646Y-34420000D01*
X6430000Y-34420000D01*
X6430000Y-35020000D01*
X6030000Y-35020000D01*
X6030000Y-34425242D01*
X6038644Y-34395801D01*
X6045168Y-34365815D01*
X6048922Y-34360799D01*
X6049685Y-34358203D01*
X6066319Y-34337561D01*
X6122923Y-34280957D01*
X6160515Y-34243365D01*
X6236281Y-34112135D01*
X6275500Y-33965766D01*
X6275500Y-33814234D01*
X6236281Y-33667865D01*
X6160515Y-33536635D01*
X6105261Y-33481381D01*
X6071776Y-33420058D01*
X6076760Y-33350366D01*
X6118632Y-33294433D01*
X6184096Y-33270016D01*
X6192942Y-33269700D01*
X9007390Y-33269700D01*
X9074429Y-33289385D01*
X9095071Y-33306019D01*
X12265181Y-36476129D01*
X12298666Y-36537452D01*
X12301500Y-36563810D01*
X12301500Y-36625269D01*
X12301500Y-36625271D01*
X12301499Y-36625271D01*
X12326497Y-36750938D01*
X12326499Y-36750944D01*
X12375533Y-36869324D01*
X12375538Y-36869333D01*
X12446723Y-36975868D01*
X12446726Y-36975872D01*
X12537327Y-37066473D01*
X12537331Y-37066476D01*
X12643866Y-37137661D01*
X12643872Y-37137664D01*
X12643873Y-37137665D01*
X12762256Y-37186701D01*
X12762260Y-37186701D01*
X12762261Y-37186702D01*
X12887928Y-37211700D01*
X12887931Y-37211700D01*
X13016071Y-37211700D01*
X13100615Y-37194882D01*
X13141744Y-37186701D01*
X13260127Y-37137665D01*
X13366669Y-37066476D01*
X13457276Y-36975869D01*
X13528465Y-36869327D01*
X13577501Y-36750944D01*
X13597766Y-36649068D01*
X13602500Y-36625271D01*
X13602500Y-36497128D01*
X13577502Y-36371461D01*
X13577501Y-36371460D01*
X13577501Y-36371456D01*
X13528465Y-36253073D01*
X13528464Y-36253072D01*
X13528461Y-36253066D01*
X13457276Y-36146531D01*
X13457273Y-36146527D01*
X13366672Y-36055926D01*
X13366668Y-36055923D01*
X13260133Y-35984738D01*
X13260124Y-35984733D01*
X13141744Y-35935699D01*
X13141738Y-35935697D01*
X13016071Y-35910700D01*
X13016069Y-35910700D01*
X12954610Y-35910700D01*
X12887571Y-35891015D01*
X12866929Y-35874381D01*
X9496265Y-32503717D01*
X9496263Y-32503715D01*
X9399237Y-32447697D01*
X9291018Y-32418700D01*
X9291017Y-32418700D01*
X5720007Y-32418700D01*
X5652968Y-32399015D01*
X5632325Y-32382380D01*
X5588872Y-32338926D01*
X5588868Y-32338923D01*
X5482333Y-32267738D01*
X5482324Y-32267733D01*
X5363944Y-32218699D01*
X5363938Y-32218697D01*
X5238271Y-32193700D01*
X5238269Y-32193700D01*
X5110131Y-32193700D01*
X5110129Y-32193700D01*
X4984461Y-32218697D01*
X4984455Y-32218699D01*
X4866075Y-32267733D01*
X4866066Y-32267738D01*
X4759531Y-32338923D01*
X4759527Y-32338926D01*
X4668926Y-32429527D01*
X4668923Y-32429531D01*
X4597738Y-32536066D01*
X4597733Y-32536075D01*
X4548699Y-32654455D01*
X4548697Y-32654461D01*
X4523700Y-32780128D01*
X4523700Y-32780131D01*
X4523700Y-32908269D01*
X4523700Y-32908271D01*
X4523699Y-32908271D01*
X500000Y-32908271D01*
X500000Y-30314071D01*
X4094498Y-30314071D01*
X4119496Y-30439738D01*
X4119498Y-30439744D01*
X4168532Y-30558124D01*
X4168537Y-30558133D01*
X4239722Y-30664668D01*
X4239725Y-30664672D01*
X4330326Y-30755273D01*
X4330330Y-30755276D01*
X4436865Y-30826461D01*
X4436871Y-30826464D01*
X4436872Y-30826465D01*
X4555255Y-30875501D01*
X4555259Y-30875501D01*
X4555260Y-30875502D01*
X4680927Y-30900500D01*
X4680930Y-30900500D01*
X4809070Y-30900500D01*
X4893614Y-30883682D01*
X4934743Y-30875501D01*
X5053126Y-30826465D01*
X5053126Y-30826464D01*
X5054823Y-30825762D01*
X5124293Y-30818293D01*
X5139867Y-30822158D01*
X10692139Y-32588791D01*
X10750053Y-32627875D01*
X10753913Y-32632783D01*
X10763177Y-32645195D01*
X10768534Y-32658127D01*
X10839723Y-32764669D01*
X10889515Y-32814461D01*
X10894872Y-32821638D01*
X10904041Y-32846330D01*
X10916666Y-32869449D01*
X10918311Y-32884755D01*
X10919196Y-32887137D01*
X10918774Y-32889061D01*
X10919500Y-32895808D01*
X10919500Y-33148682D01*
X10919500Y-33260718D01*
X10948497Y-33368937D01*
X11004515Y-33465963D01*
X11924515Y-34385963D01*
X12003737Y-34465185D01*
X12073386Y-34505397D01*
X12100763Y-34521203D01*
X12208981Y-34550200D01*
X12208982Y-34550200D01*
X12208983Y-34550200D01*
X12904516Y-34550200D01*
X12904518Y-34550200D01*
X13012737Y-34521203D01*
X13109763Y-34465185D01*
X13462961Y-34111986D01*
X13462963Y-34111985D01*
X13542185Y-34032763D01*
X13598203Y-33935737D01*
X13603032Y-33917712D01*
X13609630Y-33893094D01*
X13618414Y-33860307D01*
X13627200Y-33827519D01*
X13627200Y-33715482D01*
X13627200Y-31448381D01*
X13646885Y-31381342D01*
X13699689Y-31335587D01*
X13768847Y-31325643D01*
X13832403Y-31354668D01*
X13870177Y-31413446D01*
X13872817Y-31424189D01*
X13878197Y-31451238D01*
X13878199Y-31451244D01*
X13927233Y-31569624D01*
X13927238Y-31569633D01*
X13998423Y-31676168D01*
X13998426Y-31676172D01*
X14089027Y-31766773D01*
X14089031Y-31766776D01*
X14195566Y-31837961D01*
X14195575Y-31837966D01*
X14211895Y-31844726D01*
X14313956Y-31887001D01*
X14313960Y-31887001D01*
X14313961Y-31887002D01*
X14439628Y-31912000D01*
X14439631Y-31912000D01*
X14567771Y-31912000D01*
X14675406Y-31890589D01*
X14693444Y-31887001D01*
X14811827Y-31837965D01*
X14918369Y-31766776D01*
X15008976Y-31676169D01*
X15080165Y-31569627D01*
X15129201Y-31451244D01*
X15148412Y-31354668D01*
X15154200Y-31325571D01*
X15154200Y-31264110D01*
X15173885Y-31197071D01*
X15190519Y-31176429D01*
X16042629Y-30324319D01*
X16103952Y-30290834D01*
X16130310Y-30288000D01*
X17742693Y-30288000D01*
X17809732Y-30307685D01*
X17830375Y-30324320D01*
X17873827Y-30367773D01*
X17873831Y-30367776D01*
X17980366Y-30438961D01*
X17980375Y-30438966D01*
X18002842Y-30448272D01*
X18098756Y-30488001D01*
X18098760Y-30488001D01*
X18098761Y-30488002D01*
X18224428Y-30513000D01*
X18224431Y-30513000D01*
X18352571Y-30513000D01*
X18437115Y-30496182D01*
X18478244Y-30488001D01*
X18596627Y-30438965D01*
X18703169Y-30367776D01*
X18793776Y-30277169D01*
X18864965Y-30170627D01*
X18914001Y-30052244D01*
X18925639Y-29993736D01*
X18939000Y-29926571D01*
X18939000Y-29798428D01*
X18914002Y-29672761D01*
X18914001Y-29672760D01*
X18914001Y-29672756D01*
X18864965Y-29554373D01*
X18864964Y-29554372D01*
X18864961Y-29554366D01*
X18807398Y-29468217D01*
X18786520Y-29401539D01*
X18786500Y-29399326D01*
X18786500Y-18563810D01*
X18806185Y-18496771D01*
X18822819Y-18476129D01*
X19882129Y-17416819D01*
X19902601Y-17405640D01*
X19920526Y-17390715D01*
X19935691Y-17387571D01*
X19943452Y-17383334D01*
X19954579Y-17381439D01*
X19962166Y-17380500D01*
X20031269Y-17380500D01*
X20145071Y-17357862D01*
X20149569Y-17357306D01*
X20179746Y-17362252D01*
X20210199Y-17364977D01*
X20213896Y-17367849D01*
X20218519Y-17368607D01*
X20241230Y-17389082D01*
X20265377Y-17407839D01*
X20266935Y-17412255D01*
X20270413Y-17415391D01*
X20278448Y-17444890D01*
X20288622Y-17473728D01*
X20288800Y-17480367D01*
X20288800Y-32250124D01*
X20269115Y-32317163D01*
X20252481Y-32337805D01*
X9704005Y-42886281D01*
X9642682Y-42919766D01*
X9616324Y-42922600D01*
X9606005Y-42922600D01*
X9470677Y-42949518D01*
X9470667Y-42949521D01*
X9343195Y-43002321D01*
X9343182Y-43002328D01*
X9228458Y-43078985D01*
X9228454Y-43078988D01*
X9130888Y-43176554D01*
X9130885Y-43176558D01*
X9054228Y-43291282D01*
X9054221Y-43291295D01*
X9001421Y-43418767D01*
X9001418Y-43418777D01*
X8974500Y-43554104D01*
X8974500Y-43554107D01*
X8974500Y-43692093D01*
X8974500Y-43692095D01*
X8974499Y-43692095D01*
X9001418Y-43827422D01*
X9001421Y-43827432D01*
X9054221Y-43954904D01*
X9054228Y-43954917D01*
X9130885Y-44069641D01*
X9130888Y-44069645D01*
X9228454Y-44167211D01*
X9228458Y-44167214D01*
X9343182Y-44243871D01*
X9343195Y-44243878D01*
X9470667Y-44296678D01*
X9470672Y-44296680D01*
X9470676Y-44296680D01*
X9470677Y-44296681D01*
X9606004Y-44323600D01*
X9606007Y-44323600D01*
X9743995Y-44323600D01*
X9835907Y-44305317D01*
X9879328Y-44296680D01*
X10006811Y-44243875D01*
X10121542Y-44167214D01*
X10219114Y-44069642D01*
X10295775Y-43954911D01*
X10348580Y-43827428D01*
X10373773Y-43700776D01*
X10375500Y-43692095D01*
X10375500Y-43681776D01*
X10395185Y-43614737D01*
X10411819Y-43594095D01*
X20801319Y-33204595D01*
X20862642Y-33171110D01*
X20932334Y-33176094D01*
X20988267Y-33217966D01*
X21012684Y-33283430D01*
X21013000Y-33292276D01*
X21013000Y-37319690D01*
X20993315Y-37386729D01*
X20976681Y-37407371D01*
X20666071Y-37717981D01*
X20604748Y-37751466D01*
X20578390Y-37754300D01*
X20516929Y-37754300D01*
X20391261Y-37779297D01*
X20391255Y-37779299D01*
X20272875Y-37828333D01*
X20272866Y-37828338D01*
X20166331Y-37899523D01*
X20166327Y-37899526D01*
X20075726Y-37990127D01*
X20075723Y-37990131D01*
X20004538Y-38096666D01*
X20004533Y-38096675D01*
X19955499Y-38215055D01*
X19955497Y-38215061D01*
X19930500Y-38340728D01*
X19930500Y-38340731D01*
X19930500Y-38468869D01*
X19930500Y-38468871D01*
X19930499Y-38468871D01*
X19955497Y-38594538D01*
X19955499Y-38594544D01*
X20004533Y-38712924D01*
X20004538Y-38712933D01*
X20075723Y-38819468D01*
X20075726Y-38819472D01*
X20166327Y-38910073D01*
X20166331Y-38910076D01*
X20272866Y-38981261D01*
X20272872Y-38981264D01*
X20272873Y-38981265D01*
X20391256Y-39030301D01*
X20391260Y-39030301D01*
X20391261Y-39030302D01*
X20516928Y-39055300D01*
X20516931Y-39055300D01*
X20645071Y-39055300D01*
X20729615Y-39038482D01*
X20770744Y-39030301D01*
X20889127Y-38981265D01*
X20995669Y-38910076D01*
X21086276Y-38819469D01*
X21157465Y-38712927D01*
X21206501Y-38594544D01*
X21231500Y-38468869D01*
X21231500Y-38407410D01*
X21251185Y-38340371D01*
X21267819Y-38319729D01*
X21497188Y-38090360D01*
X21778985Y-37808563D01*
X21835003Y-37711537D01*
X21864000Y-37603319D01*
X21864000Y-37491282D01*
X21864000Y-35554110D01*
X21883685Y-35487071D01*
X21936489Y-35441316D01*
X22005647Y-35431372D01*
X22069203Y-35460397D01*
X22075681Y-35466429D01*
X32940948Y-46331696D01*
X32967828Y-46371924D01*
X33003533Y-46458123D01*
X33003538Y-46458133D01*
X33074723Y-46564668D01*
X33074726Y-46564672D01*
X33165327Y-46655273D01*
X33165331Y-46655276D01*
X33271866Y-46726461D01*
X33271872Y-46726464D01*
X33271873Y-46726465D01*
X33390256Y-46775501D01*
X33390260Y-46775501D01*
X33390261Y-46775502D01*
X33515928Y-46800500D01*
X33515931Y-46800500D01*
X33644071Y-46800500D01*
X33728615Y-46783682D01*
X33769744Y-46775501D01*
X33888127Y-46726465D01*
X33994669Y-46655276D01*
X34085276Y-46564669D01*
X34156465Y-46458127D01*
X34205501Y-46339744D01*
X34230500Y-46214069D01*
X34230500Y-46085931D01*
X34230500Y-46085928D01*
X34205502Y-45960261D01*
X34205501Y-45960260D01*
X34205501Y-45960256D01*
X34156465Y-45841873D01*
X34156464Y-45841872D01*
X34156461Y-45841866D01*
X34085276Y-45735331D01*
X34085273Y-45735327D01*
X33994672Y-45644726D01*
X33994668Y-45644723D01*
X33888133Y-45573538D01*
X33888124Y-45573533D01*
X33769744Y-45524499D01*
X33769738Y-45524497D01*
X33644071Y-45499500D01*
X33644069Y-45499500D01*
X33515931Y-45499500D01*
X33515926Y-45499500D01*
X33411046Y-45520362D01*
X33341454Y-45514135D01*
X33299174Y-45486426D01*
X30902030Y-43089282D01*
X30868545Y-43027959D01*
X30873529Y-42958267D01*
X30915401Y-42902334D01*
X30920808Y-42898507D01*
X30936869Y-42887776D01*
X31027476Y-42797169D01*
X31098665Y-42690627D01*
X31147701Y-42572244D01*
X31172700Y-42446569D01*
X31172700Y-42318431D01*
X31172700Y-42318428D01*
X31147702Y-42192761D01*
X31147701Y-42192760D01*
X31147701Y-42192756D01*
X31098665Y-42074373D01*
X31098664Y-42074372D01*
X31098661Y-42074366D01*
X31027476Y-41967831D01*
X31027473Y-41967827D01*
X30936872Y-41877226D01*
X30936868Y-41877223D01*
X30830333Y-41806038D01*
X30830324Y-41806033D01*
X30711944Y-41756999D01*
X30711938Y-41756997D01*
X30586271Y-41732000D01*
X30586269Y-41732000D01*
X30524810Y-41732000D01*
X30457771Y-41712315D01*
X30437129Y-41695681D01*
X26386219Y-37644771D01*
X26352734Y-37583448D01*
X26349900Y-37557090D01*
X26349900Y-21895684D01*
X26349900Y-21895682D01*
X26320903Y-21787463D01*
X26264885Y-21690437D01*
X26185663Y-21611215D01*
X25942281Y-21367833D01*
X25908796Y-21306510D01*
X25913780Y-21236818D01*
X25955652Y-21180885D01*
X25982507Y-21165591D01*
X26100627Y-21116665D01*
X26207169Y-21045476D01*
X26297776Y-20954869D01*
X26322360Y-20918075D01*
X26375972Y-20873270D01*
X26445297Y-20864563D01*
X26508325Y-20894717D01*
X26528565Y-20918075D01*
X26556223Y-20959468D01*
X26556226Y-20959472D01*
X26646827Y-21050073D01*
X26646831Y-21050076D01*
X26753366Y-21121261D01*
X26753372Y-21121264D01*
X26753373Y-21121265D01*
X26871756Y-21170301D01*
X26871760Y-21170301D01*
X26871761Y-21170302D01*
X26997428Y-21195300D01*
X26997431Y-21195300D01*
X27125571Y-21195300D01*
X27210115Y-21178482D01*
X27251244Y-21170301D01*
X27369627Y-21121265D01*
X27476169Y-21050076D01*
X27566776Y-20959469D01*
X27637965Y-20852927D01*
X27666745Y-20783447D01*
X27710586Y-20729044D01*
X27776880Y-20706979D01*
X27781306Y-20706900D01*
X34068770Y-20706900D01*
X34135809Y-20726585D01*
X34181564Y-20779389D01*
X34191508Y-20848547D01*
X34190387Y-20855093D01*
X34186649Y-20873887D01*
X34186600Y-20874131D01*
X34186600Y-21002269D01*
X34186600Y-21002271D01*
X34186599Y-21002271D01*
X34211597Y-21127938D01*
X34211599Y-21127944D01*
X34260633Y-21246324D01*
X34260638Y-21246333D01*
X34331823Y-21352868D01*
X34331826Y-21352872D01*
X34422427Y-21443473D01*
X34422431Y-21443476D01*
X34528966Y-21514661D01*
X34528979Y-21514668D01*
X34547378Y-21522289D01*
X34601782Y-21566129D01*
X34623847Y-21632423D01*
X34614487Y-21684302D01*
X34586300Y-21752351D01*
X34586297Y-21752361D01*
X34561300Y-21878028D01*
X34561300Y-21878031D01*
X34561300Y-22006169D01*
X34561300Y-22006171D01*
X34561299Y-22006171D01*
X34586297Y-22131838D01*
X34586299Y-22131844D01*
X34635333Y-22250224D01*
X34635338Y-22250233D01*
X34706523Y-22356768D01*
X34706526Y-22356772D01*
X34797127Y-22447373D01*
X34797131Y-22447376D01*
X34903666Y-22518561D01*
X34903672Y-22518564D01*
X34903673Y-22518565D01*
X35022056Y-22567601D01*
X35022060Y-22567601D01*
X35022061Y-22567602D01*
X35147728Y-22592600D01*
X35147731Y-22592600D01*
X35165500Y-22592600D01*
X35232539Y-22612285D01*
X35278294Y-22665089D01*
X35289500Y-22716600D01*
X35289500Y-32866482D01*
X35289500Y-32978518D01*
X35318497Y-33086737D01*
X35374515Y-33183763D01*
X35374517Y-33183765D01*
X41433081Y-39242329D01*
X41466566Y-39303652D01*
X41469400Y-39330010D01*
X41469400Y-42174092D01*
X41449715Y-42241131D01*
X41433081Y-42261773D01*
X41389626Y-42305227D01*
X41389623Y-42305231D01*
X41318438Y-42411766D01*
X41318433Y-42411775D01*
X41269399Y-42530155D01*
X41269397Y-42530161D01*
X41244400Y-42655828D01*
X41244400Y-42655831D01*
X41244400Y-42783969D01*
X41244400Y-42783971D01*
X41244399Y-42783971D01*
X41269397Y-42909638D01*
X41269399Y-42909644D01*
X41318433Y-43028024D01*
X41318438Y-43028033D01*
X41389623Y-43134568D01*
X41389626Y-43134572D01*
X41480227Y-43225173D01*
X41480231Y-43225176D01*
X41586766Y-43296361D01*
X41586772Y-43296364D01*
X41586773Y-43296365D01*
X41705156Y-43345401D01*
X41705160Y-43345401D01*
X41705161Y-43345402D01*
X41830828Y-43370400D01*
X41830831Y-43370400D01*
X41958971Y-43370400D01*
X42043515Y-43353582D01*
X42084644Y-43345401D01*
X42203027Y-43296365D01*
X42309569Y-43225176D01*
X42400176Y-43134569D01*
X42471365Y-43028027D01*
X42520401Y-42909644D01*
X42542774Y-42797172D01*
X42545400Y-42783971D01*
X42545400Y-42655828D01*
X42520402Y-42530161D01*
X42520401Y-42530160D01*
X42520401Y-42530156D01*
X42471365Y-42411773D01*
X42471364Y-42411772D01*
X42471361Y-42411766D01*
X42400176Y-42305231D01*
X42400173Y-42305227D01*
X42356719Y-42261773D01*
X42323234Y-42200450D01*
X42320400Y-42174092D01*
X42320400Y-39046384D01*
X42320400Y-39046382D01*
X42291403Y-38938163D01*
X42235385Y-38841137D01*
X42156163Y-38761915D01*
X36176819Y-32782571D01*
X36143334Y-32721248D01*
X36140500Y-32694890D01*
X36140500Y-28741610D01*
X36160185Y-28674571D01*
X36212989Y-28628816D01*
X36282147Y-28618872D01*
X36345703Y-28647897D01*
X36352181Y-28653929D01*
X41885655Y-34187403D01*
X41919140Y-34248726D01*
X41915905Y-34313402D01*
X41877829Y-34430589D01*
X41849500Y-34609448D01*
X41849500Y-34790551D01*
X41877829Y-34969410D01*
X41933787Y-35141636D01*
X41933788Y-35141639D01*
X42016006Y-35302997D01*
X42122441Y-35449494D01*
X42122445Y-35449499D01*
X42250500Y-35577554D01*
X42250505Y-35577558D01*
X42313751Y-35623508D01*
X42397006Y-35683996D01*
X42502484Y-35737740D01*
X42558360Y-35766211D01*
X42558363Y-35766212D01*
X42644476Y-35794191D01*
X42730591Y-35822171D01*
X42813429Y-35835291D01*
X42909449Y-35850500D01*
X42909454Y-35850500D01*
X43090551Y-35850500D01*
X43177259Y-35836765D01*
X43269409Y-35822171D01*
X43441639Y-35766211D01*
X43602994Y-35683996D01*
X43749501Y-35577553D01*
X43877553Y-35449501D01*
X43983996Y-35302994D01*
X44066211Y-35141639D01*
X44122171Y-34969409D01*
X44136765Y-34877259D01*
X44150500Y-34790551D01*
X44150500Y-34609448D01*
X44127650Y-34465185D01*
X44122171Y-34430591D01*
X44066211Y-34258361D01*
X44066211Y-34258360D01*
X44030056Y-34187403D01*
X43983996Y-34097006D01*
X43943195Y-34040848D01*
X43877558Y-33950505D01*
X43877554Y-33950500D01*
X43749499Y-33822445D01*
X43749494Y-33822441D01*
X43602997Y-33716006D01*
X43602996Y-33716005D01*
X43602994Y-33716004D01*
X43551300Y-33689664D01*
X43441639Y-33633788D01*
X43441636Y-33633787D01*
X43269410Y-33577829D01*
X43109321Y-33552473D01*
X43046186Y-33522544D01*
X43009255Y-33463232D01*
X43010253Y-33393370D01*
X43048863Y-33335137D01*
X43109321Y-33307527D01*
X43191989Y-33294433D01*
X43269409Y-33282171D01*
X43441639Y-33226211D01*
X43602994Y-33143996D01*
X43749501Y-33037553D01*
X43877553Y-32909501D01*
X43983996Y-32762994D01*
X44066211Y-32601639D01*
X44122171Y-32429409D01*
X44144896Y-32285931D01*
X44150500Y-32250551D01*
X44150500Y-32069448D01*
X44132045Y-31952931D01*
X44122171Y-31890591D01*
X44068206Y-31724500D01*
X44066212Y-31718363D01*
X44066211Y-31718360D01*
X44030056Y-31647403D01*
X43983996Y-31557006D01*
X43907156Y-31451244D01*
X43877558Y-31410505D01*
X43877554Y-31410500D01*
X43749499Y-31282445D01*
X43749494Y-31282441D01*
X43602997Y-31176006D01*
X43602996Y-31176005D01*
X43602994Y-31176004D01*
X43551300Y-31149664D01*
X43441639Y-31093788D01*
X43441636Y-31093787D01*
X43269410Y-31037829D01*
X43109321Y-31012473D01*
X43046186Y-30982544D01*
X43009255Y-30923232D01*
X43010253Y-30853370D01*
X43048863Y-30795137D01*
X43109321Y-30767527D01*
X43186667Y-30755276D01*
X43269409Y-30742171D01*
X43441639Y-30686211D01*
X43602994Y-30603996D01*
X43749501Y-30497553D01*
X43877553Y-30369501D01*
X43983996Y-30222994D01*
X44066211Y-30061639D01*
X44111213Y-29923134D01*
X44150648Y-29865460D01*
X44215006Y-29838261D01*
X44283853Y-29850175D01*
X44316824Y-29873772D01*
X48447581Y-34004529D01*
X48481066Y-34065852D01*
X48483900Y-34092210D01*
X48483900Y-35688592D01*
X48464215Y-35755631D01*
X48447581Y-35776273D01*
X48404126Y-35819727D01*
X48404123Y-35819731D01*
X48332938Y-35926266D01*
X48332933Y-35926275D01*
X48283899Y-36044655D01*
X48283897Y-36044661D01*
X48258900Y-36170328D01*
X48258900Y-36170331D01*
X48258900Y-36298469D01*
X48258900Y-36298471D01*
X48258899Y-36298471D01*
X48283897Y-36424138D01*
X48283899Y-36424144D01*
X48332933Y-36542524D01*
X48332938Y-36542533D01*
X48404123Y-36649068D01*
X48404126Y-36649072D01*
X48494727Y-36739673D01*
X48494731Y-36739676D01*
X48601266Y-36810861D01*
X48601272Y-36810864D01*
X48601273Y-36810865D01*
X48719656Y-36859901D01*
X48719660Y-36859901D01*
X48719661Y-36859902D01*
X48845328Y-36884900D01*
X48845331Y-36884900D01*
X48973471Y-36884900D01*
X49058015Y-36868082D01*
X49099144Y-36859901D01*
X49217527Y-36810865D01*
X49324069Y-36739676D01*
X49414676Y-36649069D01*
X49485865Y-36542527D01*
X49534901Y-36424144D01*
X49559900Y-36298469D01*
X49559900Y-36170331D01*
X49559900Y-36170328D01*
X49534902Y-36044661D01*
X49534901Y-36044660D01*
X49534901Y-36044656D01*
X49496974Y-35953092D01*
X49485866Y-35926275D01*
X49485861Y-35926266D01*
X49414676Y-35819731D01*
X49414673Y-35819727D01*
X49371219Y-35776273D01*
X49337734Y-35714950D01*
X49334900Y-35688592D01*
X49334900Y-33808584D01*
X49334900Y-33808582D01*
X49305903Y-33700363D01*
X49249885Y-33603337D01*
X49170663Y-33524115D01*
X43764482Y-28117934D01*
X43730997Y-28056611D01*
X43735981Y-27986919D01*
X43764482Y-27942572D01*
X43819191Y-27887863D01*
X43877553Y-27829501D01*
X43983996Y-27682994D01*
X44066211Y-27521639D01*
X44122171Y-27349409D01*
X44141376Y-27228155D01*
X44150500Y-27170549D01*
X44150882Y-27165696D01*
X44152205Y-27165800D01*
X44170185Y-27104571D01*
X44222989Y-27058816D01*
X44292147Y-27048872D01*
X44355703Y-27077897D01*
X44362181Y-27083929D01*
X46385655Y-29107403D01*
X46419140Y-29168726D01*
X46415905Y-29233402D01*
X46377829Y-29350589D01*
X46349500Y-29529448D01*
X46349500Y-29710551D01*
X46377829Y-29889410D01*
X46433787Y-30061636D01*
X46433788Y-30061639D01*
X46516006Y-30222997D01*
X46622441Y-30369494D01*
X46622445Y-30369499D01*
X46750500Y-30497554D01*
X46750505Y-30497558D01*
X46854986Y-30573467D01*
X46897006Y-30603996D01*
X46994785Y-30653817D01*
X47058360Y-30686211D01*
X47058363Y-30686212D01*
X47144476Y-30714191D01*
X47230591Y-30742171D01*
X47313314Y-30755273D01*
X47409449Y-30770500D01*
X47409454Y-30770500D01*
X47590551Y-30770500D01*
X47677259Y-30756765D01*
X47769409Y-30742171D01*
X47941639Y-30686211D01*
X48102994Y-30603996D01*
X48249501Y-30497553D01*
X48377553Y-30369501D01*
X48483996Y-30222994D01*
X48566211Y-30061639D01*
X48622171Y-29889409D01*
X48636765Y-29797259D01*
X48650500Y-29710551D01*
X48650500Y-29529448D01*
X48629581Y-29397375D01*
X48622171Y-29350591D01*
X48584095Y-29233402D01*
X48566212Y-29178363D01*
X48566211Y-29178360D01*
X48530056Y-29107403D01*
X48483996Y-29017006D01*
X48429787Y-28942393D01*
X48377558Y-28870505D01*
X48377554Y-28870500D01*
X48249499Y-28742445D01*
X48249494Y-28742441D01*
X48102997Y-28636006D01*
X48102996Y-28636005D01*
X48102994Y-28636004D01*
X48049821Y-28608911D01*
X47941639Y-28553788D01*
X47941636Y-28553787D01*
X47769410Y-28497829D01*
X47609321Y-28472473D01*
X47546186Y-28442544D01*
X47509255Y-28383232D01*
X47510253Y-28313370D01*
X47548863Y-28255137D01*
X47609321Y-28227527D01*
X47679425Y-28216422D01*
X47769409Y-28202171D01*
X47941639Y-28146211D01*
X48102994Y-28063996D01*
X48249501Y-27957553D01*
X48377553Y-27829501D01*
X48483996Y-27682994D01*
X48566211Y-27521639D01*
X48622171Y-27349409D01*
X48641376Y-27228155D01*
X48650500Y-27170551D01*
X48650500Y-26989448D01*
X48633164Y-26880000D01*
X48622171Y-26810591D01*
X48584095Y-26693402D01*
X48566212Y-26638363D01*
X48566211Y-26638360D01*
X48502908Y-26514123D01*
X48483996Y-26477006D01*
X48440753Y-26417487D01*
X48377558Y-26330505D01*
X48377554Y-26330500D01*
X48249499Y-26202445D01*
X48249494Y-26202441D01*
X48102997Y-26096006D01*
X48102996Y-26096005D01*
X48102994Y-26096004D01*
X48051300Y-26069664D01*
X47941639Y-26013788D01*
X47941636Y-26013787D01*
X47838387Y-25980240D01*
X47780711Y-25940803D01*
X47753513Y-25876444D01*
X47765428Y-25807598D01*
X47812672Y-25756122D01*
X47838387Y-25744378D01*
X47979835Y-25698418D01*
X48155143Y-25609095D01*
X48231079Y-25553922D01*
X48231080Y-25553922D01*
X47685177Y-25008019D01*
X47692993Y-25005925D01*
X47807007Y-24940099D01*
X47900099Y-24847007D01*
X47965925Y-24732993D01*
X47968019Y-24725177D01*
X48513921Y-25271080D01*
X48513922Y-25271079D01*
X48569095Y-25195143D01*
X48658418Y-25019835D01*
X48719221Y-24832705D01*
X48750000Y-24638382D01*
X48750000Y-24441617D01*
X48719221Y-24247294D01*
X48658418Y-24060164D01*
X48569095Y-23884856D01*
X48513922Y-23808919D01*
X48513922Y-23808918D01*
X47968018Y-24354821D01*
X47965925Y-24347007D01*
X47900099Y-24232993D01*
X47807007Y-24139901D01*
X47692993Y-24074075D01*
X47685177Y-24071980D01*
X48231080Y-23526077D01*
X48231079Y-23526076D01*
X48155143Y-23470904D01*
X47986514Y-23384984D01*
X47935718Y-23337010D01*
X47918923Y-23269189D01*
X47941460Y-23203054D01*
X47996175Y-23159602D01*
X48042807Y-23150499D01*
X48394864Y-23150499D01*
X48394879Y-23150497D01*
X48394882Y-23150497D01*
X48419987Y-23147586D01*
X48419988Y-23147585D01*
X48419991Y-23147585D01*
X48522765Y-23102206D01*
X48602206Y-23022765D01*
X48647585Y-22919991D01*
X48650500Y-22894865D01*
X48650499Y-21568182D01*
X50903800Y-21568182D01*
X50903800Y-44193282D01*
X50903800Y-44305318D01*
X50932797Y-44413537D01*
X50988815Y-44510563D01*
X50988817Y-44510565D01*
X54123216Y-47644964D01*
X54156701Y-47706287D01*
X54151717Y-47775979D01*
X54146020Y-47788939D01*
X54096761Y-47885615D01*
X54096757Y-47885624D01*
X54018911Y-48125214D01*
X53979501Y-48374038D01*
X53979501Y-48625961D01*
X54018911Y-48874785D01*
X54096757Y-49114375D01*
X54096758Y-49114378D01*
X54211133Y-49338847D01*
X54359202Y-49542648D01*
X54359206Y-49542653D01*
X54537346Y-49720793D01*
X54537351Y-49720797D01*
X54660395Y-49810193D01*
X54741156Y-49868869D01*
X54887890Y-49943634D01*
X54965621Y-49983241D01*
X54965624Y-49983242D01*
X55085419Y-50022165D01*
X55205216Y-50061089D01*
X55454038Y-50100499D01*
X55454039Y-50100499D01*
X55705961Y-50100499D01*
X55705962Y-50100499D01*
X55954784Y-50061089D01*
X56194378Y-49983241D01*
X56418844Y-49868869D01*
X56622655Y-49720792D01*
X56800792Y-49542655D01*
X56948869Y-49338844D01*
X57063241Y-49114378D01*
X57141089Y-48874784D01*
X57180499Y-48625962D01*
X57180499Y-48374038D01*
X57141089Y-48125216D01*
X57063241Y-47885622D01*
X57063241Y-47885621D01*
X57013978Y-47788939D01*
X56948869Y-47661156D01*
X56929951Y-47635118D01*
X56800797Y-47457351D01*
X56800793Y-47457346D01*
X56622653Y-47279206D01*
X56622648Y-47279202D01*
X56418847Y-47131133D01*
X56418846Y-47131132D01*
X56418844Y-47131131D01*
X56316367Y-47078916D01*
X56194378Y-47016758D01*
X56194375Y-47016757D01*
X55954785Y-46938911D01*
X55830373Y-46919206D01*
X55705962Y-46899501D01*
X55454038Y-46899501D01*
X55371097Y-46912637D01*
X55205214Y-46938911D01*
X54965624Y-47016757D01*
X54965615Y-47016761D01*
X54868939Y-47066020D01*
X54800270Y-47078916D01*
X54735530Y-47052639D01*
X54724964Y-47043216D01*
X51791119Y-44109371D01*
X51757634Y-44048048D01*
X51754800Y-44021690D01*
X51754800Y-40495910D01*
X51774485Y-40428871D01*
X51827289Y-40383116D01*
X51896447Y-40373172D01*
X51960003Y-40402197D01*
X51966481Y-40408229D01*
X59203216Y-47644964D01*
X59236701Y-47706287D01*
X59231717Y-47775979D01*
X59226020Y-47788939D01*
X59176761Y-47885615D01*
X59176757Y-47885624D01*
X59098911Y-48125214D01*
X59059501Y-48374038D01*
X59059501Y-48625961D01*
X59098911Y-48874785D01*
X59176757Y-49114375D01*
X59176758Y-49114378D01*
X59291133Y-49338847D01*
X59439202Y-49542648D01*
X59439206Y-49542653D01*
X59617346Y-49720793D01*
X59617351Y-49720797D01*
X59740395Y-49810193D01*
X59821156Y-49868869D01*
X59967890Y-49943634D01*
X60045621Y-49983241D01*
X60045624Y-49983242D01*
X60165419Y-50022165D01*
X60285216Y-50061089D01*
X60534038Y-50100499D01*
X60534039Y-50100499D01*
X60785961Y-50100499D01*
X60785962Y-50100499D01*
X61034784Y-50061089D01*
X61274378Y-49983241D01*
X61498844Y-49868869D01*
X61702655Y-49720792D01*
X61880792Y-49542655D01*
X62028869Y-49338844D01*
X62143241Y-49114378D01*
X62221089Y-48874784D01*
X62260499Y-48625962D01*
X62260499Y-48374038D01*
X62221089Y-48125216D01*
X62143241Y-47885622D01*
X62143241Y-47885621D01*
X62093978Y-47788939D01*
X62028869Y-47661156D01*
X62009951Y-47635118D01*
X61880797Y-47457351D01*
X61880793Y-47457346D01*
X61702653Y-47279206D01*
X61702648Y-47279202D01*
X61498847Y-47131133D01*
X61498846Y-47131132D01*
X61498844Y-47131131D01*
X61396367Y-47078916D01*
X61274378Y-47016758D01*
X61274375Y-47016757D01*
X61034785Y-46938911D01*
X60910373Y-46919206D01*
X60785962Y-46899501D01*
X60534038Y-46899501D01*
X60451097Y-46912637D01*
X60285214Y-46938911D01*
X60045624Y-47016757D01*
X60045615Y-47016761D01*
X59948939Y-47066020D01*
X59880270Y-47078916D01*
X59815530Y-47052639D01*
X59804964Y-47043216D01*
X52472819Y-39711071D01*
X52439334Y-39649748D01*
X52436500Y-39623390D01*
X52436500Y-36158895D01*
X56239399Y-36158895D01*
X56266318Y-36294222D01*
X56266321Y-36294232D01*
X56319121Y-36421704D01*
X56319128Y-36421717D01*
X56395785Y-36536441D01*
X56395788Y-36536445D01*
X56493354Y-36634011D01*
X56493358Y-36634014D01*
X56608082Y-36710671D01*
X56608095Y-36710678D01*
X56705307Y-36750944D01*
X56735572Y-36763480D01*
X56735576Y-36763480D01*
X56735577Y-36763481D01*
X56870904Y-36790400D01*
X56870907Y-36790400D01*
X57008895Y-36790400D01*
X57099941Y-36772289D01*
X57144228Y-36763480D01*
X57271711Y-36710675D01*
X57386442Y-36634014D01*
X57386445Y-36634011D01*
X57393738Y-36626719D01*
X57455061Y-36593234D01*
X57481419Y-36590400D01*
X61484324Y-36590400D01*
X61551363Y-36610085D01*
X61572005Y-36626719D01*
X62028105Y-37082819D01*
X62061590Y-37144142D01*
X62056606Y-37213834D01*
X62014734Y-37269767D01*
X61949270Y-37294184D01*
X61940424Y-37294500D01*
X61823929Y-37294500D01*
X61698261Y-37319497D01*
X61698255Y-37319499D01*
X61579875Y-37368533D01*
X61579866Y-37368538D01*
X61473331Y-37439723D01*
X61473327Y-37439726D01*
X61382726Y-37530327D01*
X61382723Y-37530331D01*
X61311538Y-37636866D01*
X61311533Y-37636875D01*
X61262499Y-37755255D01*
X61262497Y-37755261D01*
X61237500Y-37880928D01*
X61237500Y-37880931D01*
X61237500Y-38009069D01*
X61237500Y-38009071D01*
X61237499Y-38009071D01*
X61262497Y-38134738D01*
X61262499Y-38134744D01*
X61311533Y-38253124D01*
X61311538Y-38253133D01*
X61382723Y-38359668D01*
X61382726Y-38359672D01*
X61426180Y-38403125D01*
X61459666Y-38464448D01*
X61462500Y-38490807D01*
X61462500Y-39527482D01*
X61462500Y-39639518D01*
X61491497Y-39747737D01*
X61547515Y-39844763D01*
X61547517Y-39844765D01*
X64813181Y-43110429D01*
X64846666Y-43171752D01*
X64849500Y-43198110D01*
X64849500Y-43259569D01*
X64849500Y-43259571D01*
X64849499Y-43259571D01*
X64874497Y-43385238D01*
X64874499Y-43385244D01*
X64923533Y-43503624D01*
X64923538Y-43503633D01*
X64994723Y-43610168D01*
X64994726Y-43610172D01*
X65085327Y-43700773D01*
X65085331Y-43700776D01*
X65191866Y-43771961D01*
X65191872Y-43771964D01*
X65191873Y-43771965D01*
X65310256Y-43821001D01*
X65310260Y-43821001D01*
X65310261Y-43821002D01*
X65435928Y-43846000D01*
X65435931Y-43846000D01*
X65564071Y-43846000D01*
X65657464Y-43827422D01*
X65689744Y-43821001D01*
X65808127Y-43771965D01*
X65914669Y-43700776D01*
X66005276Y-43610169D01*
X66076465Y-43503627D01*
X66125501Y-43385244D01*
X66133682Y-43344115D01*
X66150500Y-43259571D01*
X66150500Y-43131428D01*
X66125502Y-43005761D01*
X66125501Y-43005760D01*
X66125501Y-43005756D01*
X66085690Y-42909644D01*
X66076466Y-42887375D01*
X66076461Y-42887366D01*
X66005276Y-42780831D01*
X66005273Y-42780827D01*
X65914672Y-42690226D01*
X65914668Y-42690223D01*
X65808133Y-42619038D01*
X65808124Y-42619033D01*
X65689744Y-42569999D01*
X65689738Y-42569997D01*
X65564071Y-42545000D01*
X65564069Y-42545000D01*
X65502610Y-42545000D01*
X65435571Y-42525315D01*
X65414929Y-42508681D01*
X62349819Y-39443571D01*
X62316334Y-39382248D01*
X62313500Y-39355890D01*
X62313500Y-38490807D01*
X62333185Y-38423768D01*
X62349820Y-38403125D01*
X62393273Y-38359672D01*
X62393276Y-38359669D01*
X62464465Y-38253127D01*
X62513501Y-38134744D01*
X62527560Y-38064069D01*
X62538500Y-38009071D01*
X62538500Y-37892575D01*
X62558185Y-37825536D01*
X62610989Y-37779781D01*
X62680147Y-37769837D01*
X62743703Y-37798862D01*
X62750181Y-37804894D01*
X62974324Y-38029037D01*
X63007809Y-38090360D01*
X63008260Y-38092526D01*
X63027597Y-38189738D01*
X63027599Y-38189744D01*
X63076633Y-38308124D01*
X63076638Y-38308133D01*
X63147823Y-38414668D01*
X63147826Y-38414672D01*
X63238427Y-38505273D01*
X63238431Y-38505276D01*
X63344966Y-38576461D01*
X63344972Y-38576464D01*
X63344973Y-38576465D01*
X63463356Y-38625501D01*
X63463360Y-38625501D01*
X63463361Y-38625502D01*
X63589028Y-38650500D01*
X63589031Y-38650500D01*
X63717171Y-38650500D01*
X63801715Y-38633682D01*
X63842844Y-38625501D01*
X63961227Y-38576465D01*
X64067769Y-38505276D01*
X64158376Y-38414669D01*
X64229565Y-38308127D01*
X64278601Y-38189744D01*
X64286782Y-38148615D01*
X64303600Y-38064071D01*
X64303600Y-37935928D01*
X64278602Y-37810261D01*
X64278601Y-37810260D01*
X64278601Y-37810256D01*
X64229565Y-37691873D01*
X64229564Y-37691872D01*
X64229561Y-37691866D01*
X64158376Y-37585331D01*
X64158373Y-37585327D01*
X64067772Y-37494726D01*
X64067768Y-37494723D01*
X63961233Y-37423538D01*
X63961224Y-37423533D01*
X63842844Y-37374499D01*
X63842838Y-37374497D01*
X63745626Y-37355160D01*
X63683715Y-37322775D01*
X63682137Y-37321224D01*
X62873361Y-36512448D01*
X62050314Y-35689400D01*
X61993250Y-35656454D01*
X61936187Y-35623508D01*
X61846795Y-35599556D01*
X61808892Y-35589400D01*
X61808891Y-35589400D01*
X57481419Y-35589400D01*
X57414380Y-35569715D01*
X57393738Y-35553081D01*
X57386445Y-35545788D01*
X57386441Y-35545785D01*
X57271717Y-35469128D01*
X57271704Y-35469121D01*
X57144232Y-35416321D01*
X57144222Y-35416318D01*
X57008895Y-35389400D01*
X57008893Y-35389400D01*
X56870907Y-35389400D01*
X56870905Y-35389400D01*
X56735577Y-35416318D01*
X56735567Y-35416321D01*
X56608095Y-35469121D01*
X56608082Y-35469128D01*
X56493358Y-35545785D01*
X56493354Y-35545788D01*
X56395788Y-35643354D01*
X56395785Y-35643358D01*
X56319128Y-35758082D01*
X56319121Y-35758095D01*
X56266321Y-35885567D01*
X56266318Y-35885577D01*
X56239400Y-36020904D01*
X56239400Y-36020907D01*
X56239400Y-36158893D01*
X56239400Y-36158895D01*
X56239399Y-36158895D01*
X52436500Y-36158895D01*
X52436500Y-27175258D01*
X64914500Y-27175258D01*
X64914500Y-27404741D01*
X64929891Y-27521639D01*
X64944452Y-27632238D01*
X64977783Y-27756632D01*
X65003842Y-27853887D01*
X65091650Y-28065876D01*
X65091657Y-28065890D01*
X65131749Y-28135331D01*
X65202257Y-28257456D01*
X65206392Y-28264617D01*
X65346081Y-28446661D01*
X65346089Y-28446670D01*
X65508330Y-28608911D01*
X65508338Y-28608918D01*
X65508339Y-28608919D01*
X65557030Y-28646281D01*
X65690382Y-28748607D01*
X65690385Y-28748608D01*
X65690388Y-28748611D01*
X65889112Y-28863344D01*
X65889117Y-28863346D01*
X65889123Y-28863349D01*
X65980480Y-28901190D01*
X66101113Y-28951158D01*
X66322762Y-29010548D01*
X66550266Y-29040500D01*
X66550273Y-29040500D01*
X66779727Y-29040500D01*
X66779734Y-29040500D01*
X67007238Y-29010548D01*
X67228887Y-28951158D01*
X67440888Y-28863344D01*
X67639612Y-28748611D01*
X67821661Y-28608919D01*
X67821665Y-28608914D01*
X67821670Y-28608911D01*
X67983911Y-28446670D01*
X67983914Y-28446665D01*
X67983919Y-28446661D01*
X68123611Y-28264612D01*
X68238344Y-28065888D01*
X68326158Y-27853887D01*
X68385548Y-27632238D01*
X68415500Y-27404734D01*
X68415500Y-27175266D01*
X68385548Y-26947762D01*
X68326158Y-26726113D01*
X68238344Y-26514112D01*
X68123611Y-26315388D01*
X68123608Y-26315385D01*
X68123607Y-26315382D01*
X67983918Y-26133338D01*
X67983911Y-26133330D01*
X67821670Y-25971089D01*
X67821661Y-25971081D01*
X67639617Y-25831392D01*
X67440890Y-25716657D01*
X67440876Y-25716650D01*
X67228887Y-25628842D01*
X67155189Y-25609095D01*
X67007238Y-25569452D01*
X66969215Y-25564446D01*
X66779741Y-25539500D01*
X66779734Y-25539500D01*
X66550266Y-25539500D01*
X66550258Y-25539500D01*
X66333715Y-25568009D01*
X66322762Y-25569452D01*
X66229076Y-25594554D01*
X66101112Y-25628842D01*
X65889123Y-25716650D01*
X65889109Y-25716657D01*
X65690382Y-25831392D01*
X65508338Y-25971081D01*
X65346081Y-26133338D01*
X65206392Y-26315382D01*
X65091657Y-26514109D01*
X65091650Y-26514123D01*
X65003842Y-26726112D01*
X64944453Y-26947759D01*
X64944451Y-26947770D01*
X64914500Y-27175258D01*
X52436500Y-27175258D01*
X52436500Y-22464507D01*
X52456185Y-22397468D01*
X52472820Y-22376825D01*
X52516273Y-22333372D01*
X52516276Y-22333369D01*
X52587465Y-22226827D01*
X52636501Y-22108444D01*
X52656845Y-22006171D01*
X52661500Y-21982771D01*
X52661500Y-21854628D01*
X52649259Y-21793092D01*
X52655486Y-21723501D01*
X52698348Y-21668323D01*
X52764238Y-21645078D01*
X52770876Y-21644900D01*
X53752079Y-21644900D01*
X53819118Y-21664585D01*
X53852926Y-21697795D01*
X53852964Y-21697765D01*
X53853248Y-21698111D01*
X53855180Y-21700010D01*
X53856824Y-21702469D01*
X53856825Y-21702470D01*
X53856828Y-21702474D01*
X53947427Y-21793073D01*
X53947431Y-21793076D01*
X54053966Y-21864261D01*
X54053972Y-21864264D01*
X54053973Y-21864265D01*
X54172356Y-21913301D01*
X54172360Y-21913301D01*
X54172361Y-21913302D01*
X54298028Y-21938300D01*
X54298031Y-21938300D01*
X54426171Y-21938300D01*
X54510715Y-21921482D01*
X54551844Y-21913301D01*
X54670227Y-21864265D01*
X54776769Y-21793076D01*
X54867376Y-21702469D01*
X54938565Y-21595927D01*
X54987601Y-21477544D01*
X54995782Y-21436415D01*
X55012600Y-21351871D01*
X55012600Y-21223728D01*
X54987602Y-21098061D01*
X54987601Y-21098060D01*
X54987601Y-21098056D01*
X54938565Y-20979673D01*
X54938564Y-20979672D01*
X54938561Y-20979666D01*
X54867376Y-20873131D01*
X54867373Y-20873127D01*
X54776772Y-20782526D01*
X54776768Y-20782523D01*
X54670233Y-20711338D01*
X54670224Y-20711333D01*
X54551844Y-20662299D01*
X54551838Y-20662297D01*
X54426171Y-20637300D01*
X54426169Y-20637300D01*
X54298031Y-20637300D01*
X54298029Y-20637300D01*
X54172361Y-20662297D01*
X54172355Y-20662299D01*
X54053975Y-20711333D01*
X54053966Y-20711338D01*
X53961681Y-20773002D01*
X53895003Y-20793880D01*
X53892790Y-20793900D01*
X52010600Y-20793900D01*
X51943561Y-20774215D01*
X51897806Y-20721411D01*
X51886600Y-20669900D01*
X51886600Y-16362358D01*
X60750000Y-16362358D01*
X60750000Y-16637641D01*
X60785930Y-16910565D01*
X60857180Y-17176471D01*
X60962520Y-17430787D01*
X60962527Y-17430802D01*
X61100166Y-17669200D01*
X61229459Y-17837697D01*
X62159941Y-16907216D01*
X62228599Y-17009970D01*
X62340030Y-17121401D01*
X62442783Y-17190058D01*
X61512301Y-18120539D01*
X61680803Y-18249836D01*
X61919197Y-18387472D01*
X61919212Y-18387479D01*
X62141581Y-18479586D01*
X62195985Y-18523426D01*
X62218050Y-18589720D01*
X62200771Y-18657420D01*
X62149634Y-18705031D01*
X62141583Y-18708708D01*
X62074113Y-18736655D01*
X62074109Y-18736657D01*
X61875382Y-18851392D01*
X61693338Y-18991081D01*
X61531081Y-19153338D01*
X61391392Y-19335382D01*
X61276657Y-19534109D01*
X61276650Y-19534123D01*
X61188842Y-19746112D01*
X61129453Y-19967759D01*
X61129451Y-19967770D01*
X61099500Y-20195258D01*
X61099500Y-20424741D01*
X61124446Y-20614215D01*
X61129452Y-20652238D01*
X61177033Y-20829815D01*
X61188842Y-20873887D01*
X61276650Y-21085876D01*
X61276657Y-21085890D01*
X61300937Y-21127944D01*
X61369283Y-21246324D01*
X61391392Y-21284617D01*
X61531081Y-21466661D01*
X61531089Y-21466670D01*
X61693330Y-21628911D01*
X61693338Y-21628918D01*
X61693339Y-21628919D01*
X61714166Y-21644900D01*
X61875382Y-21768607D01*
X61875385Y-21768608D01*
X61875388Y-21768611D01*
X62074112Y-21883344D01*
X62074117Y-21883346D01*
X62074123Y-21883349D01*
X62188774Y-21930839D01*
X62284127Y-21970335D01*
X62338531Y-22014176D01*
X62360596Y-22080470D01*
X62343317Y-22148169D01*
X62292180Y-22195780D01*
X62268769Y-22204670D01*
X62205581Y-22221602D01*
X62205579Y-22221602D01*
X62205578Y-22221603D01*
X62205571Y-22221605D01*
X61963309Y-22321953D01*
X61963299Y-22321958D01*
X61736196Y-22453075D01*
X61528148Y-22612718D01*
X61342718Y-22798148D01*
X61183075Y-23006196D01*
X61051958Y-23233299D01*
X61051953Y-23233309D01*
X60951605Y-23475571D01*
X60951602Y-23475581D01*
X60912262Y-23622403D01*
X60883730Y-23728885D01*
X60849500Y-23988872D01*
X60849500Y-24251127D01*
X60872578Y-24426412D01*
X60883730Y-24511116D01*
X60951602Y-24764418D01*
X60951605Y-24764428D01*
X61051953Y-25006690D01*
X61051958Y-25006700D01*
X61183075Y-25233803D01*
X61342718Y-25441851D01*
X61342726Y-25441860D01*
X61528140Y-25627274D01*
X61528148Y-25627281D01*
X61736196Y-25786924D01*
X61963299Y-25918041D01*
X61963309Y-25918046D01*
X62194449Y-26013787D01*
X62205581Y-26018398D01*
X62458884Y-26086270D01*
X62718880Y-26120500D01*
X62718887Y-26120500D01*
X62981113Y-26120500D01*
X62981120Y-26120500D01*
X63241116Y-26086270D01*
X63494419Y-26018398D01*
X63703931Y-25931615D01*
X63736690Y-25918046D01*
X63736691Y-25918045D01*
X63736697Y-25918043D01*
X63963803Y-25786924D01*
X64171851Y-25627282D01*
X64171855Y-25627277D01*
X64171860Y-25627274D01*
X64357274Y-25441860D01*
X64357277Y-25441855D01*
X64357282Y-25441851D01*
X64516924Y-25233803D01*
X64648043Y-25006697D01*
X64748398Y-24764419D01*
X64816270Y-24511116D01*
X64850500Y-24251120D01*
X64850500Y-24016530D01*
X70059500Y-24016530D01*
X70059500Y-24223469D01*
X70099868Y-24426412D01*
X70099870Y-24426420D01*
X70176562Y-24611571D01*
X70179059Y-24617598D01*
X70203216Y-24653752D01*
X70294024Y-24789657D01*
X70440342Y-24935975D01*
X70440345Y-24935977D01*
X70612402Y-25050941D01*
X70803580Y-25130130D01*
X71006530Y-25170499D01*
X71006534Y-25170500D01*
X71006535Y-25170500D01*
X71213466Y-25170500D01*
X71213467Y-25170499D01*
X71416420Y-25130130D01*
X71607598Y-25050941D01*
X71779655Y-24935977D01*
X71925977Y-24789655D01*
X72040941Y-24617598D01*
X72120130Y-24426420D01*
X72160500Y-24223465D01*
X72160500Y-24016535D01*
X72120130Y-23813580D01*
X72040941Y-23622402D01*
X71925977Y-23450345D01*
X71925975Y-23450342D01*
X71779657Y-23304024D01*
X71628543Y-23203054D01*
X71607598Y-23189059D01*
X71514506Y-23150499D01*
X71416420Y-23109870D01*
X71416412Y-23109868D01*
X71213469Y-23069500D01*
X71213465Y-23069500D01*
X71006535Y-23069500D01*
X71006530Y-23069500D01*
X70803587Y-23109868D01*
X70803579Y-23109870D01*
X70612403Y-23189058D01*
X70440342Y-23304024D01*
X70294024Y-23450342D01*
X70179058Y-23622403D01*
X70099870Y-23813579D01*
X70099868Y-23813587D01*
X70059500Y-24016530D01*
X64850500Y-24016530D01*
X64850500Y-23988880D01*
X64816270Y-23728884D01*
X64748398Y-23475581D01*
X64737944Y-23450342D01*
X64648046Y-23233309D01*
X64648041Y-23233299D01*
X64516924Y-23006196D01*
X64357281Y-22798148D01*
X64357274Y-22798140D01*
X64171860Y-22612726D01*
X64171851Y-22612718D01*
X63963803Y-22453075D01*
X63736700Y-22321958D01*
X63736690Y-22321953D01*
X63494428Y-22221605D01*
X63494421Y-22221603D01*
X63494422Y-22221603D01*
X63494419Y-22221602D01*
X63431228Y-22204670D01*
X63371570Y-22168306D01*
X63341041Y-22105459D01*
X63349336Y-22036083D01*
X63393821Y-21982205D01*
X63415865Y-21970338D01*
X63625888Y-21883344D01*
X63824612Y-21768611D01*
X64006661Y-21628919D01*
X64006665Y-21628914D01*
X64006670Y-21628911D01*
X64168911Y-21466670D01*
X64168914Y-21466665D01*
X64168919Y-21466661D01*
X64308611Y-21284612D01*
X64423344Y-21085888D01*
X64511158Y-20873887D01*
X64570548Y-20652238D01*
X64600500Y-20424734D01*
X64600500Y-20195266D01*
X64600499Y-20195258D01*
X64914500Y-20195258D01*
X64914500Y-20424741D01*
X64939446Y-20614215D01*
X64944452Y-20652238D01*
X64992033Y-20829815D01*
X65003842Y-20873887D01*
X65091650Y-21085876D01*
X65091657Y-21085890D01*
X65115937Y-21127944D01*
X65184283Y-21246324D01*
X65206392Y-21284617D01*
X65346081Y-21466661D01*
X65346089Y-21466670D01*
X65508330Y-21628911D01*
X65508338Y-21628918D01*
X65508339Y-21628919D01*
X65529166Y-21644900D01*
X65690382Y-21768607D01*
X65690385Y-21768608D01*
X65690388Y-21768611D01*
X65889112Y-21883344D01*
X65889117Y-21883346D01*
X65889123Y-21883349D01*
X65918898Y-21895682D01*
X66101113Y-21971158D01*
X66322762Y-22030548D01*
X66550266Y-22060500D01*
X66550273Y-22060500D01*
X66779727Y-22060500D01*
X66779734Y-22060500D01*
X67007238Y-22030548D01*
X67228887Y-21971158D01*
X67440888Y-21883344D01*
X67639612Y-21768611D01*
X67821661Y-21628919D01*
X67821665Y-21628914D01*
X67821670Y-21628911D01*
X67983911Y-21466670D01*
X67983914Y-21466665D01*
X67983919Y-21466661D01*
X68123611Y-21284612D01*
X68238344Y-21085888D01*
X68326158Y-20873887D01*
X68385548Y-20652238D01*
X68415500Y-20424734D01*
X68415500Y-20195266D01*
X68385548Y-19967762D01*
X68326158Y-19746113D01*
X68269999Y-19610533D01*
X68238349Y-19534123D01*
X68238346Y-19534117D01*
X68238344Y-19534112D01*
X68123611Y-19335388D01*
X68123608Y-19335385D01*
X68123607Y-19335382D01*
X67983918Y-19153338D01*
X67983911Y-19153330D01*
X67821670Y-18991089D01*
X67821661Y-18991081D01*
X67639617Y-18851392D01*
X67440890Y-18736657D01*
X67440876Y-18736650D01*
X67228887Y-18648842D01*
X67196052Y-18640044D01*
X67007238Y-18589452D01*
X66969215Y-18584446D01*
X66779741Y-18559500D01*
X66779734Y-18559500D01*
X66550266Y-18559500D01*
X66550258Y-18559500D01*
X66333715Y-18588009D01*
X66322762Y-18589452D01*
X66229076Y-18614554D01*
X66101112Y-18648842D01*
X65889123Y-18736650D01*
X65889109Y-18736657D01*
X65690382Y-18851392D01*
X65508338Y-18991081D01*
X65346081Y-19153338D01*
X65206392Y-19335382D01*
X65091657Y-19534109D01*
X65091650Y-19534123D01*
X65003842Y-19746112D01*
X64944453Y-19967759D01*
X64944451Y-19967770D01*
X64914500Y-20195258D01*
X64600499Y-20195258D01*
X64570548Y-19967762D01*
X64511158Y-19746113D01*
X64454999Y-19610533D01*
X64423349Y-19534123D01*
X64423346Y-19534117D01*
X64423344Y-19534112D01*
X64308611Y-19335388D01*
X64308608Y-19335385D01*
X64308607Y-19335382D01*
X64168918Y-19153338D01*
X64168911Y-19153330D01*
X64006670Y-18991089D01*
X64006661Y-18991081D01*
X63824617Y-18851392D01*
X63625890Y-18736657D01*
X63625881Y-18736652D01*
X63558417Y-18708708D01*
X63504014Y-18664867D01*
X63481949Y-18598572D01*
X63499228Y-18530873D01*
X63550366Y-18483263D01*
X63558418Y-18479586D01*
X63780787Y-18387479D01*
X63780802Y-18387472D01*
X64019195Y-18249836D01*
X64187697Y-18120539D01*
X63257216Y-17190058D01*
X63359970Y-17121401D01*
X63471401Y-17009970D01*
X63540058Y-16907216D01*
X64470539Y-17837697D01*
X64599836Y-17669195D01*
X64737472Y-17430802D01*
X64737479Y-17430787D01*
X64842819Y-17176471D01*
X64914069Y-16910565D01*
X64950000Y-16637641D01*
X64950000Y-16396530D01*
X75139500Y-16396530D01*
X75139500Y-16603469D01*
X75179868Y-16806412D01*
X75179870Y-16806420D01*
X75259058Y-16997596D01*
X75374024Y-17169657D01*
X75520342Y-17315975D01*
X75520345Y-17315977D01*
X75692402Y-17430941D01*
X75883580Y-17510130D01*
X76086530Y-17550499D01*
X76086534Y-17550500D01*
X76086535Y-17550500D01*
X76293466Y-17550500D01*
X76293467Y-17550499D01*
X76496420Y-17510130D01*
X76687598Y-17430941D01*
X76859655Y-17315977D01*
X77005977Y-17169655D01*
X77120941Y-16997598D01*
X77200130Y-16806420D01*
X77240500Y-16603465D01*
X77240500Y-16396535D01*
X77200130Y-16193580D01*
X77120941Y-16002402D01*
X77005977Y-15830345D01*
X77005975Y-15830342D01*
X76859657Y-15684024D01*
X76773626Y-15626541D01*
X76687598Y-15569059D01*
X76496420Y-15489870D01*
X76496412Y-15489868D01*
X76293469Y-15449500D01*
X76293465Y-15449500D01*
X76086535Y-15449500D01*
X76086530Y-15449500D01*
X75883587Y-15489868D01*
X75883579Y-15489870D01*
X75692403Y-15569058D01*
X75520342Y-15684024D01*
X75374024Y-15830342D01*
X75259058Y-16002403D01*
X75179870Y-16193579D01*
X75179868Y-16193587D01*
X75139500Y-16396530D01*
X64950000Y-16396530D01*
X64950000Y-16362358D01*
X64914069Y-16089434D01*
X64842819Y-15823528D01*
X64737479Y-15569212D01*
X64737472Y-15569197D01*
X64599836Y-15330803D01*
X64470539Y-15162301D01*
X63540058Y-16092782D01*
X63471401Y-15990030D01*
X63359970Y-15878599D01*
X63257216Y-15809941D01*
X64187697Y-14879459D01*
X64187697Y-14879458D01*
X64019200Y-14750166D01*
X63780802Y-14612527D01*
X63780787Y-14612520D01*
X63526471Y-14507180D01*
X63260565Y-14435930D01*
X62987642Y-14400000D01*
X62712358Y-14400000D01*
X62439434Y-14435930D01*
X62173528Y-14507180D01*
X61919212Y-14612520D01*
X61919197Y-14612527D01*
X61680799Y-14750166D01*
X61512301Y-14879458D01*
X61512301Y-14879459D01*
X62442783Y-15809941D01*
X62340030Y-15878599D01*
X62228599Y-15990030D01*
X62159941Y-16092783D01*
X61229459Y-15162301D01*
X61229458Y-15162301D01*
X61100166Y-15330799D01*
X60962527Y-15569197D01*
X60962520Y-15569212D01*
X60857180Y-15823528D01*
X60785930Y-16089434D01*
X60750000Y-16362358D01*
X51886600Y-16362358D01*
X51886600Y-12706070D01*
X51906285Y-12639031D01*
X51959089Y-12593276D01*
X51986401Y-12584454D01*
X52018844Y-12578001D01*
X52137227Y-12528965D01*
X52243769Y-12457776D01*
X52334376Y-12367169D01*
X52405565Y-12260627D01*
X52454601Y-12142244D01*
X52462782Y-12101115D01*
X52479600Y-12016571D01*
X52479600Y-11945258D01*
X71269500Y-11945258D01*
X71269500Y-12174741D01*
X71293164Y-12354475D01*
X71299452Y-12402238D01*
X71339481Y-12551629D01*
X71358842Y-12623887D01*
X71446650Y-12835876D01*
X71446657Y-12835890D01*
X71561392Y-13034617D01*
X71701081Y-13216661D01*
X71701089Y-13216670D01*
X71863330Y-13378911D01*
X71863338Y-13378918D01*
X72045382Y-13518607D01*
X72045385Y-13518608D01*
X72045388Y-13518611D01*
X72244112Y-13633344D01*
X72244117Y-13633346D01*
X72244123Y-13633349D01*
X72335480Y-13671190D01*
X72456113Y-13721158D01*
X72677762Y-13780548D01*
X72905266Y-13810500D01*
X72905273Y-13810500D01*
X73134727Y-13810500D01*
X73134734Y-13810500D01*
X73362238Y-13780548D01*
X73583887Y-13721158D01*
X73795888Y-13633344D01*
X73994612Y-13518611D01*
X74176661Y-13378919D01*
X74176665Y-13378914D01*
X74176670Y-13378911D01*
X74338911Y-13216670D01*
X74338914Y-13216665D01*
X74338919Y-13216661D01*
X74478611Y-13034612D01*
X74593344Y-12835888D01*
X74681158Y-12623887D01*
X74740548Y-12402238D01*
X74770500Y-12174734D01*
X74770500Y-11945266D01*
X74740548Y-11717762D01*
X74681158Y-11496113D01*
X74617270Y-11341875D01*
X74593349Y-11284123D01*
X74593346Y-11284117D01*
X74593344Y-11284112D01*
X74478611Y-11085388D01*
X74478608Y-11085385D01*
X74478607Y-11085382D01*
X74377764Y-10953962D01*
X74338919Y-10903339D01*
X74338918Y-10903338D01*
X74338911Y-10903330D01*
X74176670Y-10741089D01*
X74176661Y-10741081D01*
X73994617Y-10601392D01*
X73931937Y-10565204D01*
X73795888Y-10486656D01*
X73795876Y-10486650D01*
X73583887Y-10398842D01*
X73362238Y-10339452D01*
X73324215Y-10334446D01*
X73134741Y-10309500D01*
X73134734Y-10309500D01*
X72905266Y-10309500D01*
X72905258Y-10309500D01*
X72688715Y-10338009D01*
X72677762Y-10339452D01*
X72584076Y-10364554D01*
X72456112Y-10398842D01*
X72244123Y-10486650D01*
X72244109Y-10486657D01*
X72045382Y-10601392D01*
X71863338Y-10741081D01*
X71701081Y-10903338D01*
X71561392Y-11085382D01*
X71446657Y-11284109D01*
X71446650Y-11284123D01*
X71358842Y-11496112D01*
X71299453Y-11717759D01*
X71299451Y-11717770D01*
X71269500Y-11945258D01*
X52479600Y-11945258D01*
X52479600Y-11888428D01*
X52454602Y-11762761D01*
X52454601Y-11762760D01*
X52454601Y-11762756D01*
X52405565Y-11644373D01*
X52405564Y-11644372D01*
X52405561Y-11644366D01*
X52334376Y-11537831D01*
X52334373Y-11537827D01*
X52243772Y-11447226D01*
X52243768Y-11447223D01*
X52137233Y-11376038D01*
X52137224Y-11376033D01*
X52018844Y-11326999D01*
X52018838Y-11326997D01*
X51893171Y-11302000D01*
X51893169Y-11302000D01*
X51765031Y-11302000D01*
X51765029Y-11302000D01*
X51639361Y-11326997D01*
X51639355Y-11326999D01*
X51520975Y-11376033D01*
X51520966Y-11376038D01*
X51414431Y-11447223D01*
X51414427Y-11447226D01*
X51323826Y-11537827D01*
X51323823Y-11537831D01*
X51252638Y-11644366D01*
X51252633Y-11644375D01*
X51203599Y-11762755D01*
X51203597Y-11762761D01*
X51178600Y-11888428D01*
X51178600Y-11949890D01*
X51158915Y-12016929D01*
X51142281Y-12037571D01*
X51120617Y-12059234D01*
X51120613Y-12059240D01*
X51064598Y-12156260D01*
X51064597Y-12156263D01*
X51035600Y-12264482D01*
X51035600Y-20890382D01*
X51035600Y-21002418D01*
X51061228Y-21098061D01*
X51064597Y-21110636D01*
X51064599Y-21110641D01*
X51081633Y-21140146D01*
X51098104Y-21208046D01*
X51075251Y-21274073D01*
X51061927Y-21289825D01*
X50988814Y-21362938D01*
X50988813Y-21362940D01*
X50932798Y-21459960D01*
X50932797Y-21459963D01*
X50903800Y-21568182D01*
X48650499Y-21568182D01*
X48650499Y-21105136D01*
X48649678Y-21098055D01*
X48647586Y-21080012D01*
X48647585Y-21080010D01*
X48647585Y-21080009D01*
X48602206Y-20977235D01*
X48522765Y-20897794D01*
X48515796Y-20894717D01*
X48419992Y-20852415D01*
X48394868Y-20849500D01*
X48394865Y-20849500D01*
X48375975Y-20849500D01*
X48308936Y-20829815D01*
X48263181Y-20777011D01*
X48253237Y-20707853D01*
X48282262Y-20644297D01*
X48288294Y-20637819D01*
X48608313Y-20317800D01*
X49298699Y-19627415D01*
X49308445Y-19610536D01*
X49364592Y-19513286D01*
X49398700Y-19385992D01*
X49398700Y-11175718D01*
X49418385Y-11108679D01*
X49435023Y-11088033D01*
X49437674Y-11085382D01*
X49442314Y-11080742D01*
X49518975Y-10966011D01*
X49571780Y-10838528D01*
X49598700Y-10703193D01*
X49598700Y-10565207D01*
X49598700Y-10565204D01*
X49571781Y-10429877D01*
X49571780Y-10429876D01*
X49571780Y-10429872D01*
X49558927Y-10398842D01*
X49518978Y-10302395D01*
X49518971Y-10302382D01*
X49442314Y-10187658D01*
X49442311Y-10187654D01*
X49344745Y-10090088D01*
X49344741Y-10090085D01*
X49230017Y-10013428D01*
X49230004Y-10013421D01*
X49102532Y-9960621D01*
X49102522Y-9960618D01*
X48967195Y-9933700D01*
X48967193Y-9933700D01*
X48829207Y-9933700D01*
X48829205Y-9933700D01*
X48693877Y-9960618D01*
X48693867Y-9960621D01*
X48566395Y-10013421D01*
X48566382Y-10013428D01*
X48451658Y-10090085D01*
X48451654Y-10090088D01*
X48354088Y-10187654D01*
X48354085Y-10187658D01*
X48277428Y-10302382D01*
X48277421Y-10302395D01*
X48224621Y-10429867D01*
X48224618Y-10429877D01*
X48197700Y-10565204D01*
X48197700Y-10565207D01*
X48197700Y-10703193D01*
X48197700Y-10703195D01*
X48197699Y-10703195D01*
X48224618Y-10838522D01*
X48224621Y-10838532D01*
X48277421Y-10966004D01*
X48277428Y-10966017D01*
X48354085Y-11080741D01*
X48361377Y-11088033D01*
X48394865Y-11149355D01*
X48397700Y-11175718D01*
X48397700Y-19061424D01*
X48378015Y-19128463D01*
X48361381Y-19149105D01*
X47099502Y-20410983D01*
X47099500Y-20410986D01*
X47033608Y-20525112D01*
X46999500Y-20652408D01*
X46999500Y-20725500D01*
X46979815Y-20792539D01*
X46927011Y-20838294D01*
X46875500Y-20849500D01*
X46605143Y-20849500D01*
X46605117Y-20849502D01*
X46580012Y-20852413D01*
X46580008Y-20852415D01*
X46477235Y-20897793D01*
X46397794Y-20977234D01*
X46352415Y-21080006D01*
X46352415Y-21080008D01*
X46349500Y-21105131D01*
X46349500Y-22894856D01*
X46349502Y-22894882D01*
X46352413Y-22919987D01*
X46352415Y-22919991D01*
X46397793Y-23022764D01*
X46397794Y-23022765D01*
X46477235Y-23102206D01*
X46580009Y-23147585D01*
X46605135Y-23150500D01*
X46957191Y-23150499D01*
X47024228Y-23170183D01*
X47069983Y-23222987D01*
X47079927Y-23292146D01*
X47050902Y-23355701D01*
X47013484Y-23384984D01*
X46844855Y-23470905D01*
X46844846Y-23470911D01*
X46768919Y-23526075D01*
X46768918Y-23526076D01*
X47314823Y-24071980D01*
X47307007Y-24074075D01*
X47192993Y-24139901D01*
X47099901Y-24232993D01*
X47034075Y-24347007D01*
X47031980Y-24354822D01*
X46486076Y-23808918D01*
X46486075Y-23808919D01*
X46430911Y-23884846D01*
X46430905Y-23884855D01*
X46341581Y-24060164D01*
X46280778Y-24247294D01*
X46250000Y-24441617D01*
X46250000Y-24638382D01*
X46280778Y-24832705D01*
X46326365Y-24973006D01*
X46328360Y-25042847D01*
X46292280Y-25102680D01*
X46229579Y-25133508D01*
X46160165Y-25125543D01*
X46120753Y-25099005D01*
X45711819Y-24690071D01*
X45678334Y-24628748D01*
X45675500Y-24602390D01*
X45675500Y-17216284D01*
X45675500Y-17216282D01*
X45646503Y-17108063D01*
X45590485Y-17011037D01*
X45511263Y-16931815D01*
X43302019Y-14722571D01*
X43268534Y-14661248D01*
X43265700Y-14634890D01*
X43265700Y-14247410D01*
X43285385Y-14180371D01*
X43338189Y-14134616D01*
X43407347Y-14124672D01*
X43470903Y-14153697D01*
X43477381Y-14159729D01*
X43987881Y-14670229D01*
X44021366Y-14731552D01*
X44024200Y-14757910D01*
X44024200Y-14819369D01*
X44024200Y-14819371D01*
X44024199Y-14819371D01*
X44049197Y-14945038D01*
X44049199Y-14945044D01*
X44098233Y-15063424D01*
X44098238Y-15063433D01*
X44169423Y-15169968D01*
X44169426Y-15169972D01*
X44260027Y-15260573D01*
X44260031Y-15260576D01*
X44366566Y-15331761D01*
X44366572Y-15331764D01*
X44366573Y-15331765D01*
X44484956Y-15380801D01*
X44484960Y-15380801D01*
X44484961Y-15380802D01*
X44610628Y-15405800D01*
X44610631Y-15405800D01*
X44738771Y-15405800D01*
X44823315Y-15388982D01*
X44864444Y-15380801D01*
X44982827Y-15331765D01*
X45089369Y-15260576D01*
X45179976Y-15169969D01*
X45251165Y-15063427D01*
X45300201Y-14945044D01*
X45325200Y-14819369D01*
X45325200Y-14691231D01*
X45325200Y-14691228D01*
X45300202Y-14565561D01*
X45300201Y-14565560D01*
X45300201Y-14565556D01*
X45251165Y-14447173D01*
X45251164Y-14447172D01*
X45251161Y-14447166D01*
X45179976Y-14340631D01*
X45179973Y-14340627D01*
X45089372Y-14250026D01*
X45089368Y-14250023D01*
X44982833Y-14178838D01*
X44982824Y-14178833D01*
X44864444Y-14129799D01*
X44864438Y-14129797D01*
X44738771Y-14104800D01*
X44738769Y-14104800D01*
X44677310Y-14104800D01*
X44610271Y-14085115D01*
X44589629Y-14068481D01*
X43776819Y-13255671D01*
X43743334Y-13194348D01*
X43740500Y-13167990D01*
X43740500Y-11251255D01*
X43760185Y-11184216D01*
X43812989Y-11138461D01*
X43882147Y-11128517D01*
X43888692Y-11129638D01*
X43949329Y-11141700D01*
X43949331Y-11141700D01*
X44077471Y-11141700D01*
X44164661Y-11124356D01*
X44203144Y-11116701D01*
X44321527Y-11067665D01*
X44428069Y-10996476D01*
X44518676Y-10905869D01*
X44589865Y-10799327D01*
X44638901Y-10680944D01*
X44654726Y-10601389D01*
X44663900Y-10555271D01*
X44663900Y-10427128D01*
X44638902Y-10301461D01*
X44638901Y-10301460D01*
X44638901Y-10301456D01*
X44600974Y-10209892D01*
X44589866Y-10183075D01*
X44589861Y-10183066D01*
X44518676Y-10076531D01*
X44518673Y-10076527D01*
X44475219Y-10033073D01*
X44441734Y-9971750D01*
X44438900Y-9945392D01*
X44438900Y-7631384D01*
X44438900Y-7631382D01*
X44409903Y-7523163D01*
X44353885Y-7426137D01*
X44274663Y-7346915D01*
X40446763Y-3519015D01*
X40349737Y-3462997D01*
X40241518Y-3434000D01*
X34537918Y-3434000D01*
X34425881Y-3434000D01*
X34362820Y-3450897D01*
X34362819Y-3450896D01*
X34317667Y-3462995D01*
X34317660Y-3462998D01*
X34220640Y-3519013D01*
X34220634Y-3519017D01*
X34141413Y-3598239D01*
X32063596Y-5676055D01*
X32063595Y-5676055D01*
X32063596Y-5676056D01*
X32001814Y-5737838D01*
X32001813Y-5737840D01*
X31945798Y-5834860D01*
X31945797Y-5834863D01*
X31916800Y-5943082D01*
X31916800Y-13465990D01*
X31897115Y-13533029D01*
X31880481Y-13553671D01*
X30178571Y-15255581D01*
X30117248Y-15289066D01*
X30090890Y-15291900D01*
X29165910Y-15291900D01*
X29098871Y-15272215D01*
X29078229Y-15255581D01*
X27264219Y-13441571D01*
X27230734Y-13380248D01*
X27227900Y-13353890D01*
X27227900Y-13292428D01*
X27202902Y-13166761D01*
X27202901Y-13166760D01*
X27202901Y-13166756D01*
X27153865Y-13048373D01*
X27153864Y-13048372D01*
X27153861Y-13048366D01*
X27082676Y-12941831D01*
X27082673Y-12941827D01*
X26992072Y-12851226D01*
X26992068Y-12851223D01*
X26885533Y-12780038D01*
X26885524Y-12780033D01*
X26767144Y-12730999D01*
X26767138Y-12730997D01*
X26641471Y-12706000D01*
X26641469Y-12706000D01*
X26513331Y-12706000D01*
X26513329Y-12706000D01*
X26387661Y-12730997D01*
X26387655Y-12730999D01*
X26269275Y-12780033D01*
X26269266Y-12780038D01*
X26162731Y-12851223D01*
X26162727Y-12851226D01*
X26072124Y-12941829D01*
X26061319Y-12958001D01*
X26007706Y-13002805D01*
X25938381Y-13011511D01*
X25875354Y-12981355D01*
X25870537Y-12976789D01*
X25641419Y-12747671D01*
X25607934Y-12686348D01*
X25605100Y-12659990D01*
X25605100Y-12598528D01*
X25580102Y-12472861D01*
X25580101Y-12472860D01*
X25580101Y-12472856D01*
X25536324Y-12367169D01*
X25531066Y-12354475D01*
X25531061Y-12354466D01*
X25459876Y-12247931D01*
X25459873Y-12247927D01*
X25369272Y-12157326D01*
X25369268Y-12157323D01*
X25262733Y-12086138D01*
X25262724Y-12086133D01*
X25144344Y-12037099D01*
X25144338Y-12037097D01*
X25018671Y-12012100D01*
X25018669Y-12012100D01*
X24890531Y-12012100D01*
X24890529Y-12012100D01*
X24764861Y-12037097D01*
X24764855Y-12037099D01*
X24646475Y-12086133D01*
X24646466Y-12086138D01*
X24539931Y-12157323D01*
X24539927Y-12157326D01*
X24449326Y-12247927D01*
X24415729Y-12298209D01*
X24362116Y-12343013D01*
X24292791Y-12351720D01*
X24229764Y-12321565D01*
X24224946Y-12316998D01*
X23955131Y-12047183D01*
X23921646Y-11985860D01*
X23926630Y-11916168D01*
X23928251Y-11912049D01*
X23938035Y-11888428D01*
X23958201Y-11839744D01*
X23973515Y-11762756D01*
X23983200Y-11714071D01*
X23983200Y-11585928D01*
X23958202Y-11460261D01*
X23958201Y-11460260D01*
X23958201Y-11460256D01*
X23909165Y-11341873D01*
X23909164Y-11341872D01*
X23909161Y-11341866D01*
X23837976Y-11235331D01*
X23837973Y-11235327D01*
X23747372Y-11144726D01*
X23747368Y-11144723D01*
X23640833Y-11073538D01*
X23640824Y-11073533D01*
X23522444Y-11024499D01*
X23522438Y-11024497D01*
X23396771Y-10999500D01*
X23396769Y-10999500D01*
X23268631Y-10999500D01*
X23268629Y-10999500D01*
X23192592Y-11014625D01*
X23123000Y-11008398D01*
X23067823Y-10965535D01*
X23044578Y-10899646D01*
X23044400Y-10893008D01*
X23044400Y-8513031D01*
X23064085Y-8445992D01*
X23099509Y-8409929D01*
X23196269Y-8345276D01*
X23286873Y-8254672D01*
X23286876Y-8254669D01*
X23358065Y-8148127D01*
X23407101Y-8029744D01*
X23432100Y-7904069D01*
X23432100Y-7775931D01*
X23432100Y-7775928D01*
X23407102Y-7650261D01*
X23407101Y-7650260D01*
X23407101Y-7650256D01*
X23358065Y-7531873D01*
X23358064Y-7531872D01*
X23358061Y-7531866D01*
X23286876Y-7425331D01*
X23286873Y-7425327D01*
X23196272Y-7334726D01*
X23196268Y-7334723D01*
X23089733Y-7263538D01*
X23089728Y-7263536D01*
X23089727Y-7263535D01*
X23057891Y-7250348D01*
X23027468Y-7237746D01*
X22973065Y-7193904D01*
X22951001Y-7127610D01*
X22968281Y-7059911D01*
X22987242Y-7035503D01*
X23038073Y-6984672D01*
X23038076Y-6984669D01*
X23109265Y-6878127D01*
X23158301Y-6759744D01*
X23183300Y-6634069D01*
X23183300Y-6505931D01*
X23183300Y-6505928D01*
X23158302Y-6380261D01*
X23158301Y-6380260D01*
X23158301Y-6380256D01*
X23109265Y-6261873D01*
X23109264Y-6261872D01*
X23109261Y-6261866D01*
X23038076Y-6155331D01*
X23038073Y-6155327D01*
X22947472Y-6064726D01*
X22947468Y-6064723D01*
X22840933Y-5993538D01*
X22840924Y-5993533D01*
X22722544Y-5944499D01*
X22722538Y-5944497D01*
X22596871Y-5919500D01*
X22596869Y-5919500D01*
X22468731Y-5919500D01*
X22468729Y-5919500D01*
X22343061Y-5944497D01*
X22343055Y-5944499D01*
X22224675Y-5993533D01*
X22224666Y-5993538D01*
X22118131Y-6064723D01*
X22118127Y-6064726D01*
X22075681Y-6107173D01*
X22014358Y-6140658D01*
X21944666Y-6135674D01*
X21888733Y-6093802D01*
X21864316Y-6028338D01*
X21864000Y-6019492D01*
X21864000Y-5168209D01*
X21883685Y-5101170D01*
X21900319Y-5080528D01*
X22446628Y-4534219D01*
X22507951Y-4500734D01*
X22534309Y-4497900D01*
X22595771Y-4497900D01*
X22680315Y-4481082D01*
X22721444Y-4472901D01*
X22839827Y-4423865D01*
X22946369Y-4352676D01*
X23036976Y-4262069D01*
X23108165Y-4155527D01*
X23157201Y-4037144D01*
X23165382Y-3996015D01*
X23182200Y-3911471D01*
X23182200Y-3783328D01*
X23157202Y-3657661D01*
X23157201Y-3657660D01*
X23157201Y-3657656D01*
X23108165Y-3539273D01*
X23108164Y-3539272D01*
X23108161Y-3539266D01*
X23036976Y-3432731D01*
X23036973Y-3432727D01*
X22982957Y-3378711D01*
X74649500Y-3378711D01*
X74649500Y-3621288D01*
X74681161Y-3861785D01*
X74743947Y-4096104D01*
X74812871Y-4262500D01*
X74836776Y-4320212D01*
X74958064Y-4530289D01*
X74958066Y-4530292D01*
X74958067Y-4530293D01*
X75105733Y-4722736D01*
X75105739Y-4722743D01*
X75277256Y-4894260D01*
X75277262Y-4894265D01*
X75469711Y-5041936D01*
X75679788Y-5163224D01*
X75903900Y-5256054D01*
X76138211Y-5318838D01*
X76318586Y-5342584D01*
X76378711Y-5350500D01*
X76378712Y-5350500D01*
X76621289Y-5350500D01*
X76669388Y-5344167D01*
X76861789Y-5318838D01*
X77096100Y-5256054D01*
X77320212Y-5163224D01*
X77530289Y-5041936D01*
X77722738Y-4894265D01*
X77894265Y-4722738D01*
X78041936Y-4530289D01*
X78163224Y-4320212D01*
X78256054Y-4096100D01*
X78318838Y-3861789D01*
X78350500Y-3621288D01*
X78350500Y-3378712D01*
X78318838Y-3138211D01*
X78256054Y-2903900D01*
X78163224Y-2679788D01*
X78041936Y-2469711D01*
X77913843Y-2302777D01*
X77894266Y-2277263D01*
X77894260Y-2277256D01*
X77722743Y-2105739D01*
X77722736Y-2105733D01*
X77530293Y-1958067D01*
X77530292Y-1958066D01*
X77530289Y-1958064D01*
X77320212Y-1836776D01*
X77312354Y-1833521D01*
X77096104Y-1743947D01*
X76861785Y-1681161D01*
X76621289Y-1649500D01*
X76621288Y-1649500D01*
X76378712Y-1649500D01*
X76378711Y-1649500D01*
X76138214Y-1681161D01*
X75903895Y-1743947D01*
X75679794Y-1836773D01*
X75679785Y-1836777D01*
X75469706Y-1958067D01*
X75277263Y-2105733D01*
X75277256Y-2105739D01*
X75105739Y-2277256D01*
X75105733Y-2277263D01*
X74958067Y-2469706D01*
X74836777Y-2679785D01*
X74836773Y-2679794D01*
X74743947Y-2903895D01*
X74681161Y-3138214D01*
X74649500Y-3378711D01*
X22982957Y-3378711D01*
X22946372Y-3342126D01*
X22946368Y-3342123D01*
X22839833Y-3270938D01*
X22839824Y-3270933D01*
X22721444Y-3221899D01*
X22721438Y-3221897D01*
X22595771Y-3196900D01*
X22595769Y-3196900D01*
X22467631Y-3196900D01*
X22467629Y-3196900D01*
X22341961Y-3221897D01*
X22341955Y-3221899D01*
X22223575Y-3270933D01*
X22223566Y-3270938D01*
X22117031Y-3342123D01*
X22117027Y-3342126D01*
X22026426Y-3432727D01*
X22026423Y-3432731D01*
X21955238Y-3539266D01*
X21955233Y-3539275D01*
X21906199Y-3657655D01*
X21906197Y-3657661D01*
X21881200Y-3783328D01*
X21881200Y-3844790D01*
X21861515Y-3911829D01*
X21844881Y-3932471D01*
X21501481Y-4275871D01*
X21440158Y-4309356D01*
X21370466Y-4304372D01*
X21314533Y-4262500D01*
X21290116Y-4197036D01*
X21289800Y-4188190D01*
X21289800Y-3388810D01*
X21289800Y-3388808D01*
X21255692Y-3261514D01*
X21189800Y-3147386D01*
X21096614Y-3054200D01*
X20578519Y-2536105D01*
X20545034Y-2474782D01*
X20542200Y-2448424D01*
X20542200Y-2438104D01*
X20515281Y-2302777D01*
X20515280Y-2302776D01*
X20515280Y-2302772D01*
X20504714Y-2277263D01*
X20462478Y-2175295D01*
X20462471Y-2175282D01*
X20385814Y-2060558D01*
X20385811Y-2060554D01*
X20288245Y-1962988D01*
X20288241Y-1962985D01*
X20173517Y-1886328D01*
X20173504Y-1886321D01*
X20046032Y-1833521D01*
X20046022Y-1833518D01*
X19910695Y-1806600D01*
X19910693Y-1806600D01*
X19772707Y-1806600D01*
X19772705Y-1806600D01*
X19637377Y-1833518D01*
X19637367Y-1833521D01*
X19509895Y-1886321D01*
X19509882Y-1886328D01*
X19395158Y-1962985D01*
X19395154Y-1962988D01*
X19297588Y-2060554D01*
X19297585Y-2060558D01*
X19220928Y-2175282D01*
X19220921Y-2175295D01*
X19168121Y-2302767D01*
X19168118Y-2302777D01*
X19141200Y-2438104D01*
X19141200Y-2438107D01*
X19141200Y-2576093D01*
X19141200Y-2576095D01*
X19141199Y-2576095D01*
X19168118Y-2711422D01*
X19168121Y-2711432D01*
X19220921Y-2838904D01*
X19220928Y-2838917D01*
X19297585Y-2953641D01*
X19297588Y-2953645D01*
X19395154Y-3051211D01*
X19395158Y-3051214D01*
X19509882Y-3127871D01*
X19509895Y-3127878D01*
X19637367Y-3180678D01*
X19637372Y-3180680D01*
X19637376Y-3180680D01*
X19637377Y-3180681D01*
X19772704Y-3207600D01*
X19772707Y-3207600D01*
X19783024Y-3207600D01*
X19850063Y-3227285D01*
X19870705Y-3243919D01*
X20252481Y-3625694D01*
X20285966Y-3687017D01*
X20288800Y-3713375D01*
X20288800Y-15979632D01*
X20269115Y-16046671D01*
X20216311Y-16092426D01*
X20147153Y-16102370D01*
X20140608Y-16101249D01*
X20031271Y-16079500D01*
X20031269Y-16079500D01*
X19903131Y-16079500D01*
X19903129Y-16079500D01*
X19777461Y-16104497D01*
X19777455Y-16104499D01*
X19659075Y-16153533D01*
X19659066Y-16153538D01*
X19552531Y-16224723D01*
X19552527Y-16224726D01*
X19461926Y-16315327D01*
X19461923Y-16315331D01*
X19390738Y-16421866D01*
X19390733Y-16421875D01*
X19341699Y-16540255D01*
X19341697Y-16540261D01*
X19316700Y-16665928D01*
X19316700Y-16727389D01*
X19297015Y-16794428D01*
X19280381Y-16815070D01*
X18209785Y-17885665D01*
X18148462Y-17919150D01*
X18078770Y-17914166D01*
X18053214Y-17901087D01*
X18012431Y-17873837D01*
X18012424Y-17873833D01*
X17894044Y-17824799D01*
X17894038Y-17824797D01*
X17768371Y-17799800D01*
X17768369Y-17799800D01*
X17640231Y-17799800D01*
X17640229Y-17799800D01*
X17514561Y-17824797D01*
X17514555Y-17824799D01*
X17396175Y-17873833D01*
X17396166Y-17873838D01*
X17289631Y-17945023D01*
X17289627Y-17945026D01*
X17199026Y-18035627D01*
X17199023Y-18035631D01*
X17127838Y-18142166D01*
X17127833Y-18142175D01*
X17078799Y-18260555D01*
X17078797Y-18260561D01*
X17053800Y-18386228D01*
X17053800Y-18386231D01*
X17053800Y-18514369D01*
X17053800Y-18514371D01*
X17053799Y-18514371D01*
X17078797Y-18640038D01*
X17078799Y-18640044D01*
X17127833Y-18758424D01*
X17127838Y-18758433D01*
X17199023Y-18864968D01*
X17199026Y-18864972D01*
X17242480Y-18908425D01*
X17275966Y-18969748D01*
X17278800Y-18996107D01*
X17278800Y-26346790D01*
X17259115Y-26413829D01*
X17242481Y-26434471D01*
X13257181Y-30419771D01*
X13195858Y-30453256D01*
X13126166Y-30448272D01*
X13070233Y-30406400D01*
X13045816Y-30340936D01*
X13045500Y-30332090D01*
X13045500Y-29009432D01*
X13065185Y-28942393D01*
X13066398Y-28940541D01*
X13121461Y-28858133D01*
X13121461Y-28858132D01*
X13121465Y-28858127D01*
X13170501Y-28739744D01*
X13188771Y-28647897D01*
X13195500Y-28614071D01*
X13195500Y-28485928D01*
X13170502Y-28360261D01*
X13170501Y-28360260D01*
X13170501Y-28360256D01*
X13121465Y-28241873D01*
X13121464Y-28241872D01*
X13121461Y-28241866D01*
X13050276Y-28135331D01*
X13050273Y-28135327D01*
X13006819Y-28091873D01*
X12973334Y-28030550D01*
X12970500Y-28004192D01*
X12970500Y-10001484D01*
X12970500Y-10001482D01*
X12941503Y-9893263D01*
X12885485Y-9796237D01*
X12806263Y-9717015D01*
X10377219Y-7287971D01*
X10343734Y-7226648D01*
X10340900Y-7200290D01*
X10340900Y-7138828D01*
X10315902Y-7013161D01*
X10315901Y-7013160D01*
X10315901Y-7013156D01*
X10266865Y-6894773D01*
X10266864Y-6894772D01*
X10266861Y-6894766D01*
X10195676Y-6788231D01*
X10195673Y-6788227D01*
X10105072Y-6697626D01*
X10105068Y-6697623D01*
X9998533Y-6626438D01*
X9998524Y-6626433D01*
X9880144Y-6577399D01*
X9880138Y-6577397D01*
X9754471Y-6552400D01*
X9754469Y-6552400D01*
X9626331Y-6552400D01*
X9626329Y-6552400D01*
X9500661Y-6577397D01*
X9500655Y-6577399D01*
X9382275Y-6626433D01*
X9382266Y-6626438D01*
X9275731Y-6697623D01*
X9275727Y-6697626D01*
X9185126Y-6788227D01*
X9185123Y-6788231D01*
X9113938Y-6894766D01*
X9113933Y-6894775D01*
X9064899Y-7013155D01*
X9064897Y-7013161D01*
X9039900Y-7138828D01*
X9039900Y-7138831D01*
X9039900Y-7266969D01*
X9039900Y-7266971D01*
X9039899Y-7266971D01*
X9064897Y-7392638D01*
X9064899Y-7392644D01*
X9113933Y-7511024D01*
X9113938Y-7511033D01*
X9185123Y-7617568D01*
X9185126Y-7617572D01*
X9275727Y-7708173D01*
X9275731Y-7708176D01*
X9382266Y-7779361D01*
X9382272Y-7779364D01*
X9382273Y-7779365D01*
X9500656Y-7828401D01*
X9500660Y-7828401D01*
X9500661Y-7828402D01*
X9626328Y-7853400D01*
X9626331Y-7853400D01*
X9687790Y-7853400D01*
X9754829Y-7873085D01*
X9775471Y-7889719D01*
X12083181Y-10197429D01*
X12116666Y-10258752D01*
X12119500Y-10285110D01*
X12119500Y-26926565D01*
X12099815Y-26993604D01*
X12047011Y-27039359D01*
X11977853Y-27049303D01*
X11926610Y-27029668D01*
X11874631Y-26994937D01*
X11874624Y-26994933D01*
X11756244Y-26945899D01*
X11756238Y-26945897D01*
X11630571Y-26920900D01*
X11630569Y-26920900D01*
X11502431Y-26920900D01*
X11502429Y-26920900D01*
X11376761Y-26945897D01*
X11376755Y-26945899D01*
X11258375Y-26994933D01*
X11258366Y-26994938D01*
X11151831Y-27066123D01*
X11151827Y-27066126D01*
X11061226Y-27156727D01*
X11061223Y-27156731D01*
X10990038Y-27263266D01*
X10990033Y-27263275D01*
X10940999Y-27381655D01*
X10940997Y-27381661D01*
X10916000Y-27507328D01*
X10916000Y-27568790D01*
X10896315Y-27635829D01*
X10879681Y-27656471D01*
X9517471Y-29018681D01*
X9456148Y-29052166D01*
X9429790Y-29055000D01*
X9368329Y-29055000D01*
X9242661Y-29079997D01*
X9242655Y-29079999D01*
X9124275Y-29129033D01*
X9124266Y-29129038D01*
X9017731Y-29200223D01*
X9017727Y-29200226D01*
X8927126Y-29290827D01*
X8927123Y-29290831D01*
X8855938Y-29397366D01*
X8855933Y-29397375D01*
X8806899Y-29515755D01*
X8806897Y-29515761D01*
X8781900Y-29641428D01*
X8781900Y-29641431D01*
X8781900Y-29769569D01*
X8781900Y-29769571D01*
X8781899Y-29769571D01*
X8806897Y-29895238D01*
X8806899Y-29895244D01*
X8855933Y-30013624D01*
X8855938Y-30013633D01*
X8927123Y-30120168D01*
X8927126Y-30120172D01*
X9017727Y-30210773D01*
X9017731Y-30210776D01*
X9124266Y-30281961D01*
X9124272Y-30281964D01*
X9124273Y-30281965D01*
X9242656Y-30331001D01*
X9242660Y-30331001D01*
X9242661Y-30331002D01*
X9368328Y-30356000D01*
X9368331Y-30356000D01*
X9496471Y-30356000D01*
X9616669Y-30332090D01*
X9622144Y-30331001D01*
X9740527Y-30281965D01*
X9847069Y-30210776D01*
X9937676Y-30120169D01*
X10008865Y-30013627D01*
X10057901Y-29895244D01*
X10077159Y-29798431D01*
X10082900Y-29769571D01*
X10082900Y-29708110D01*
X10102585Y-29641071D01*
X10119219Y-29620429D01*
X11481429Y-28258219D01*
X11542752Y-28224734D01*
X11550805Y-28223259D01*
X11559910Y-28221900D01*
X11630569Y-28221900D01*
X11756244Y-28196901D01*
X11772491Y-28190171D01*
X11787560Y-28187922D01*
X11807675Y-28190704D01*
X11827871Y-28188531D01*
X11841583Y-28195393D01*
X11856771Y-28197494D01*
X11872191Y-28210711D01*
X11890353Y-28219801D01*
X11898178Y-28232986D01*
X11909819Y-28242965D01*
X11915644Y-28262419D01*
X11926011Y-28279887D01*
X11925464Y-28295211D01*
X11929863Y-28309898D01*
X11924246Y-28329413D01*
X11923523Y-28349712D01*
X11920431Y-28358003D01*
X11919502Y-28360245D01*
X11919497Y-28360261D01*
X11894500Y-28485928D01*
X11894500Y-28485931D01*
X11894500Y-28614069D01*
X11894500Y-28614071D01*
X11894499Y-28614071D01*
X11919497Y-28739738D01*
X11919499Y-28739744D01*
X11968533Y-28858124D01*
X11968538Y-28858133D01*
X12023602Y-28940541D01*
X12044480Y-29007218D01*
X12044500Y-29009432D01*
X12044500Y-31830193D01*
X12024815Y-31897232D01*
X11972011Y-31942987D01*
X11902853Y-31952931D01*
X11839297Y-31923906D01*
X11832819Y-31917874D01*
X11759671Y-31844726D01*
X11759667Y-31844723D01*
X11653132Y-31773538D01*
X11653123Y-31773533D01*
X11534743Y-31724499D01*
X11534737Y-31724497D01*
X11409070Y-31699500D01*
X11409068Y-31699500D01*
X11280930Y-31699500D01*
X11280928Y-31699500D01*
X11155260Y-31724497D01*
X11155250Y-31724500D01*
X11035175Y-31774237D01*
X10965706Y-31781706D01*
X10950126Y-31777839D01*
X5397858Y-30011208D01*
X5339943Y-29972123D01*
X5324806Y-29946991D01*
X5324334Y-29947244D01*
X5321467Y-29941882D01*
X5321464Y-29941873D01*
X5311238Y-29926569D01*
X5250278Y-29835335D01*
X5250272Y-29835327D01*
X5159671Y-29744726D01*
X5159667Y-29744723D01*
X5053132Y-29673538D01*
X5053123Y-29673533D01*
X4934743Y-29624499D01*
X4934737Y-29624497D01*
X4809070Y-29599500D01*
X4809068Y-29599500D01*
X4680930Y-29599500D01*
X4680928Y-29599500D01*
X4555260Y-29624497D01*
X4555254Y-29624499D01*
X4436874Y-29673533D01*
X4436865Y-29673538D01*
X4330330Y-29744723D01*
X4330326Y-29744726D01*
X4239725Y-29835327D01*
X4239722Y-29835331D01*
X4168537Y-29941866D01*
X4168532Y-29941875D01*
X4119498Y-30060255D01*
X4119496Y-30060261D01*
X4094499Y-30185928D01*
X4094499Y-30185931D01*
X4094499Y-30314069D01*
X4094499Y-30314071D01*
X4094498Y-30314071D01*
X500000Y-30314071D01*
X500000Y-26480000D01*
X872150Y-26480000D01*
X1525735Y-26480000D01*
X1509940Y-26495795D01*
X1470444Y-26564204D01*
X1450000Y-26640504D01*
X1450000Y-26719496D01*
X1470444Y-26795796D01*
X1509940Y-26864205D01*
X1525735Y-26880000D01*
X872150Y-26880000D01*
X884584Y-26942512D01*
X884586Y-26942520D01*
X952428Y-27106307D01*
X952433Y-27106316D01*
X1050923Y-27253716D01*
X1050926Y-27253720D01*
X1176279Y-27379073D01*
X1176283Y-27379076D01*
X1323683Y-27477566D01*
X1323692Y-27477571D01*
X1487479Y-27545413D01*
X1487487Y-27545415D01*
X1661353Y-27579999D01*
X1661357Y-27580000D01*
X1850000Y-27580000D01*
X1850000Y-26980000D01*
X2250000Y-26980000D01*
X2250000Y-27580000D01*
X2438643Y-27580000D01*
X2438646Y-27579999D01*
X2612512Y-27545415D01*
X2612520Y-27545413D01*
X2776307Y-27477571D01*
X2776316Y-27477566D01*
X2923716Y-27379076D01*
X2923720Y-27379073D01*
X3049073Y-27253720D01*
X3049076Y-27253716D01*
X3147566Y-27106316D01*
X3147571Y-27106307D01*
X3215413Y-26942520D01*
X3215415Y-26942512D01*
X3227850Y-26880000D01*
X2574265Y-26880000D01*
X2590060Y-26864205D01*
X2629556Y-26795796D01*
X2650000Y-26719496D01*
X2650000Y-26640504D01*
X2629556Y-26564204D01*
X2590060Y-26495795D01*
X2574265Y-26480000D01*
X3227850Y-26480000D01*
X4802150Y-26480000D01*
X5455735Y-26480000D01*
X5439940Y-26495795D01*
X5400444Y-26564204D01*
X5380000Y-26640504D01*
X5380000Y-26719496D01*
X5400444Y-26795796D01*
X5439940Y-26864205D01*
X5455735Y-26880000D01*
X4802150Y-26880000D01*
X4814584Y-26942512D01*
X4814586Y-26942520D01*
X4882428Y-27106307D01*
X4882433Y-27106316D01*
X4980923Y-27253716D01*
X4980926Y-27253720D01*
X5106279Y-27379073D01*
X5106283Y-27379076D01*
X5253683Y-27477566D01*
X5253691Y-27477570D01*
X5269517Y-27484125D01*
X5323922Y-27527964D01*
X5345990Y-27594257D01*
X5328713Y-27661957D01*
X5309751Y-27686369D01*
X5239485Y-27756635D01*
X5163719Y-27887863D01*
X5137178Y-27986919D01*
X5124500Y-28034234D01*
X5124500Y-28185766D01*
X5144109Y-28258950D01*
X5163719Y-28332136D01*
X5193220Y-28383232D01*
X5239485Y-28463365D01*
X5346635Y-28570515D01*
X5477865Y-28646281D01*
X5624234Y-28685500D01*
X5624236Y-28685500D01*
X5775764Y-28685500D01*
X5775766Y-28685500D01*
X5922135Y-28646281D01*
X6053365Y-28570515D01*
X6160515Y-28463365D01*
X6236281Y-28332135D01*
X6275500Y-28185766D01*
X6275500Y-28034234D01*
X6236281Y-27887865D01*
X6160515Y-27756635D01*
X6066319Y-27662439D01*
X6032834Y-27601116D01*
X6030000Y-27574758D01*
X6030000Y-26980000D01*
X6430000Y-26980000D01*
X6430000Y-27580000D01*
X6868643Y-27580000D01*
X6868646Y-27579999D01*
X7042512Y-27545415D01*
X7042520Y-27545413D01*
X7206307Y-27477571D01*
X7206316Y-27477566D01*
X7353716Y-27379076D01*
X7353720Y-27379073D01*
X7479073Y-27253720D01*
X7479076Y-27253716D01*
X7577566Y-27106316D01*
X7577571Y-27106307D01*
X7645413Y-26942520D01*
X7645415Y-26942512D01*
X7657850Y-26880000D01*
X7004265Y-26880000D01*
X7020060Y-26864205D01*
X7059556Y-26795796D01*
X7080000Y-26719496D01*
X7080000Y-26640504D01*
X7059556Y-26564204D01*
X7020060Y-26495795D01*
X7004265Y-26480000D01*
X7657850Y-26480000D01*
X7645415Y-26417487D01*
X7645413Y-26417479D01*
X7577571Y-26253692D01*
X7577566Y-26253683D01*
X7479076Y-26106283D01*
X7479073Y-26106279D01*
X7353720Y-25980926D01*
X7353716Y-25980923D01*
X7206316Y-25882433D01*
X7206307Y-25882428D01*
X7042520Y-25814586D01*
X7042512Y-25814584D01*
X6868646Y-25780000D01*
X6430000Y-25780000D01*
X6430000Y-26380000D01*
X6030000Y-26380000D01*
X6030000Y-25780000D01*
X5591353Y-25780000D01*
X5417487Y-25814584D01*
X5417479Y-25814586D01*
X5253692Y-25882428D01*
X5253683Y-25882433D01*
X5106283Y-25980923D01*
X5106279Y-25980926D01*
X4980926Y-26106279D01*
X4980923Y-26106283D01*
X4882433Y-26253683D01*
X4882428Y-26253692D01*
X4814586Y-26417479D01*
X4814584Y-26417487D01*
X4802150Y-26480000D01*
X3227850Y-26480000D01*
X3215415Y-26417487D01*
X3215413Y-26417479D01*
X3147571Y-26253692D01*
X3147566Y-26253683D01*
X3049076Y-26106283D01*
X3049073Y-26106279D01*
X2923720Y-25980926D01*
X2923716Y-25980923D01*
X2776316Y-25882433D01*
X2776307Y-25882428D01*
X2612520Y-25814586D01*
X2612512Y-25814584D01*
X2438646Y-25780000D01*
X2250000Y-25780000D01*
X2250000Y-26380000D01*
X1850000Y-26380000D01*
X1850000Y-25780000D01*
X1661353Y-25780000D01*
X1487487Y-25814584D01*
X1487479Y-25814586D01*
X1323692Y-25882428D01*
X1323683Y-25882433D01*
X1176283Y-25980923D01*
X1176279Y-25980926D01*
X1050926Y-26106279D01*
X1050923Y-26106283D01*
X952433Y-26253683D01*
X952428Y-26253692D01*
X884586Y-26417479D01*
X884584Y-26417487D01*
X872150Y-26480000D01*
X500000Y-26480000D01*
X500000Y-3378711D01*
X1649500Y-3378711D01*
X1649500Y-3621288D01*
X1681161Y-3861785D01*
X1743947Y-4096104D01*
X1812871Y-4262500D01*
X1836776Y-4320212D01*
X1958064Y-4530289D01*
X1958066Y-4530292D01*
X1958067Y-4530293D01*
X2105733Y-4722736D01*
X2105739Y-4722743D01*
X2277256Y-4894260D01*
X2277262Y-4894265D01*
X2469711Y-5041936D01*
X2679788Y-5163224D01*
X2903900Y-5256054D01*
X3138211Y-5318838D01*
X3318586Y-5342584D01*
X3378711Y-5350500D01*
X3378712Y-5350500D01*
X3621289Y-5350500D01*
X3669388Y-5344167D01*
X3861789Y-5318838D01*
X4096100Y-5256054D01*
X4320212Y-5163224D01*
X4530289Y-5041936D01*
X4722738Y-4894265D01*
X4894265Y-4722738D01*
X5041936Y-4530289D01*
X5163224Y-4320212D01*
X5256054Y-4096100D01*
X5318838Y-3861789D01*
X5350500Y-3621288D01*
X5350500Y-3378712D01*
X5318838Y-3138211D01*
X5256054Y-2903900D01*
X5163224Y-2679788D01*
X5041936Y-2469711D01*
X4913843Y-2302777D01*
X4894266Y-2277263D01*
X4894260Y-2277256D01*
X4722743Y-2105739D01*
X4722736Y-2105733D01*
X4530293Y-1958067D01*
X4530292Y-1958066D01*
X4530289Y-1958064D01*
X4320212Y-1836776D01*
X4312354Y-1833521D01*
X4096104Y-1743947D01*
X3861785Y-1681161D01*
X3621289Y-1649500D01*
X3621288Y-1649500D01*
X3378712Y-1649500D01*
X3378711Y-1649500D01*
X3138214Y-1681161D01*
X2903895Y-1743947D01*
X2679794Y-1836773D01*
X2679785Y-1836777D01*
X2469706Y-1958067D01*
X2277263Y-2105733D01*
X2277256Y-2105739D01*
X2105739Y-2277256D01*
X2105733Y-2277263D01*
X1958067Y-2469706D01*
X1836777Y-2679785D01*
X1836773Y-2679794D01*
X1743947Y-2903895D01*
X1681161Y-3138214D01*
X1649500Y-3378711D01*
X500000Y-3378711D01*
X500000Y-1620975D01*
X502183Y-1610804D01*
X501167Y-1604003D01*
X510924Y-1570085D01*
X549360Y-1484683D01*
X549364Y-1484674D01*
X556312Y-1471434D01*
X685975Y-1256946D01*
X694462Y-1244650D01*
X849033Y-1047354D01*
X858948Y-1036163D01*
X1036162Y-858949D01*
X1047353Y-849034D01*
X1244649Y-694462D01*
X1256944Y-685975D01*
X1471438Y-556310D01*
X1484667Y-549367D01*
X1570085Y-510923D01*
X1620975Y-500000D01*
X78379024Y-500000D01*
X78389194Y-502183D01*
G37*
G04 #@! TD.AperFunction*
M02*
