%TF.GenerationSoftware,KiCad,Pcbnew,10.0.4*%
%TF.CreationDate,2026-09-02T14:56:08+01:00*%
%TF.ProjectId,pl60c_dmx,706c3630-635f-4646-9d78-2e6b69636164,rev?*%
%TF.SameCoordinates,Original*%
%TF.FileFunction,Drillmap*%
%TF.FilePolarity,Positive*%
%FSLAX45Y45*%
G04 Gerber Fmt 4.5, Leading zero omitted, Abs format (unit mm)*
G04 Created by KiCad (PCBNEW 10.0.4) date 2026-09-02 14:56:08*
%MOMM*%
%LPD*%
G01*
G04 APERTURE LIST*
%ADD10C,0.100000*%
%ADD11C,0.200000*%
%ADD12C,0.160000*%
%ADD13C,0.320000*%
G04 APERTURE END LIST*
D10*
X0Y-250000D02*
G75*
G02*
X250000Y0I250000J0D01*
G01*
X0Y-5150000D02*
X0Y-250000D01*
X250000Y0D02*
X7750000Y0D01*
X250000Y-5400000D02*
G75*
G02*
X0Y-5150000I0J250000D01*
G01*
X7750000Y0D02*
G75*
G02*
X8000000Y-250000I0J-250000D01*
G01*
X7750000Y-5400000D02*
X250000Y-5400000D01*
X8000000Y-250000D02*
X8000000Y-5150000D01*
X8000000Y-5150000D02*
G75*
G02*
X7750000Y-5400000I-250000J0D01*
G01*
D11*
D10*
X537500Y-2778500D02*
X602500Y-2843500D01*
X602500Y-2778500D02*
X537500Y-2843500D01*
X537500Y-3356500D02*
X602500Y-3421500D01*
X602500Y-3356500D02*
X537500Y-3421500D01*
D12*
X7191000Y-2412000D02*
G75*
G02*
X7031000Y-2412000I-80000J0D01*
G01*
X7031000Y-2412000D02*
G75*
G02*
X7191000Y-2412000I80000J0D01*
G01*
X7699000Y-1650000D02*
G75*
G02*
X7539000Y-1650000I-80000J0D01*
G01*
X7539000Y-1650000D02*
G75*
G02*
X7699000Y-1650000I80000J0D01*
G01*
D13*
X350000Y-190000D02*
X350000Y-510000D01*
X190000Y-350000D02*
X510000Y-350000D01*
X350000Y-4890000D02*
X350000Y-5210000D01*
X190000Y-5050000D02*
X510000Y-5050000D01*
X7650000Y-190000D02*
X7650000Y-510000D01*
X7490000Y-350000D02*
X7810000Y-350000D01*
X7650000Y-4890000D02*
X7650000Y-5210000D01*
X7490000Y-5050000D02*
X7810000Y-5050000D01*
D11*
X255777Y-5716484D02*
X255777Y-5516484D01*
X255777Y-5516484D02*
X303396Y-5516484D01*
X303396Y-5516484D02*
X331967Y-5526008D01*
X331967Y-5526008D02*
X351015Y-5545055D01*
X351015Y-5545055D02*
X360539Y-5564103D01*
X360539Y-5564103D02*
X370062Y-5602198D01*
X370062Y-5602198D02*
X370062Y-5630769D01*
X370062Y-5630769D02*
X360539Y-5668865D01*
X360539Y-5668865D02*
X351015Y-5687912D01*
X351015Y-5687912D02*
X331967Y-5706960D01*
X331967Y-5706960D02*
X303396Y-5716484D01*
X303396Y-5716484D02*
X255777Y-5716484D01*
X455777Y-5716484D02*
X455777Y-5583150D01*
X455777Y-5621246D02*
X465301Y-5602198D01*
X465301Y-5602198D02*
X474824Y-5592674D01*
X474824Y-5592674D02*
X493872Y-5583150D01*
X493872Y-5583150D02*
X512920Y-5583150D01*
X579586Y-5716484D02*
X579586Y-5583150D01*
X579586Y-5516484D02*
X570063Y-5526008D01*
X570063Y-5526008D02*
X579586Y-5535531D01*
X579586Y-5535531D02*
X589110Y-5526008D01*
X589110Y-5526008D02*
X579586Y-5516484D01*
X579586Y-5516484D02*
X579586Y-5535531D01*
X703396Y-5716484D02*
X684348Y-5706960D01*
X684348Y-5706960D02*
X674824Y-5687912D01*
X674824Y-5687912D02*
X674824Y-5516484D01*
X808158Y-5716484D02*
X789110Y-5706960D01*
X789110Y-5706960D02*
X779586Y-5687912D01*
X779586Y-5687912D02*
X779586Y-5516484D01*
X1036729Y-5716484D02*
X1036729Y-5516484D01*
X1036729Y-5516484D02*
X1103396Y-5659341D01*
X1103396Y-5659341D02*
X1170063Y-5516484D01*
X1170063Y-5516484D02*
X1170063Y-5716484D01*
X1351015Y-5716484D02*
X1351015Y-5611722D01*
X1351015Y-5611722D02*
X1341491Y-5592674D01*
X1341491Y-5592674D02*
X1322444Y-5583150D01*
X1322444Y-5583150D02*
X1284348Y-5583150D01*
X1284348Y-5583150D02*
X1265301Y-5592674D01*
X1351015Y-5706960D02*
X1331967Y-5716484D01*
X1331967Y-5716484D02*
X1284348Y-5716484D01*
X1284348Y-5716484D02*
X1265301Y-5706960D01*
X1265301Y-5706960D02*
X1255777Y-5687912D01*
X1255777Y-5687912D02*
X1255777Y-5668865D01*
X1255777Y-5668865D02*
X1265301Y-5649817D01*
X1265301Y-5649817D02*
X1284348Y-5640293D01*
X1284348Y-5640293D02*
X1331967Y-5640293D01*
X1331967Y-5640293D02*
X1351015Y-5630769D01*
X1446253Y-5583150D02*
X1446253Y-5783150D01*
X1446253Y-5592674D02*
X1465301Y-5583150D01*
X1465301Y-5583150D02*
X1503396Y-5583150D01*
X1503396Y-5583150D02*
X1522443Y-5592674D01*
X1522443Y-5592674D02*
X1531967Y-5602198D01*
X1531967Y-5602198D02*
X1541491Y-5621246D01*
X1541491Y-5621246D02*
X1541491Y-5678388D01*
X1541491Y-5678388D02*
X1531967Y-5697436D01*
X1531967Y-5697436D02*
X1522443Y-5706960D01*
X1522443Y-5706960D02*
X1503396Y-5716484D01*
X1503396Y-5716484D02*
X1465301Y-5716484D01*
X1465301Y-5716484D02*
X1446253Y-5706960D01*
X1627205Y-5697436D02*
X1636729Y-5706960D01*
X1636729Y-5706960D02*
X1627205Y-5716484D01*
X1627205Y-5716484D02*
X1617682Y-5706960D01*
X1617682Y-5706960D02*
X1627205Y-5697436D01*
X1627205Y-5697436D02*
X1627205Y-5716484D01*
X1627205Y-5592674D02*
X1636729Y-5602198D01*
X1636729Y-5602198D02*
X1627205Y-5611722D01*
X1627205Y-5611722D02*
X1617682Y-5602198D01*
X1617682Y-5602198D02*
X1627205Y-5592674D01*
X1627205Y-5592674D02*
X1627205Y-5611722D01*
D10*
X-70000Y-6012500D02*
X-5000Y-6077500D01*
X-5000Y-6012500D02*
X-70000Y-6077500D01*
D11*
X293872Y-5936484D02*
X312920Y-5936484D01*
X312920Y-5936484D02*
X331967Y-5946008D01*
X331967Y-5946008D02*
X341491Y-5955531D01*
X341491Y-5955531D02*
X351015Y-5974579D01*
X351015Y-5974579D02*
X360539Y-6012674D01*
X360539Y-6012674D02*
X360539Y-6060293D01*
X360539Y-6060293D02*
X351015Y-6098388D01*
X351015Y-6098388D02*
X341491Y-6117436D01*
X341491Y-6117436D02*
X331967Y-6126960D01*
X331967Y-6126960D02*
X312920Y-6136484D01*
X312920Y-6136484D02*
X293872Y-6136484D01*
X293872Y-6136484D02*
X274824Y-6126960D01*
X274824Y-6126960D02*
X265301Y-6117436D01*
X265301Y-6117436D02*
X255777Y-6098388D01*
X255777Y-6098388D02*
X246253Y-6060293D01*
X246253Y-6060293D02*
X246253Y-6012674D01*
X246253Y-6012674D02*
X255777Y-5974579D01*
X255777Y-5974579D02*
X265301Y-5955531D01*
X265301Y-5955531D02*
X274824Y-5946008D01*
X274824Y-5946008D02*
X293872Y-5936484D01*
X446253Y-6117436D02*
X455777Y-6126960D01*
X455777Y-6126960D02*
X446253Y-6136484D01*
X446253Y-6136484D02*
X436729Y-6126960D01*
X436729Y-6126960D02*
X446253Y-6117436D01*
X446253Y-6117436D02*
X446253Y-6136484D01*
X627205Y-5936484D02*
X589110Y-5936484D01*
X589110Y-5936484D02*
X570063Y-5946008D01*
X570063Y-5946008D02*
X560539Y-5955531D01*
X560539Y-5955531D02*
X541491Y-5984103D01*
X541491Y-5984103D02*
X531967Y-6022198D01*
X531967Y-6022198D02*
X531967Y-6098388D01*
X531967Y-6098388D02*
X541491Y-6117436D01*
X541491Y-6117436D02*
X551015Y-6126960D01*
X551015Y-6126960D02*
X570063Y-6136484D01*
X570063Y-6136484D02*
X608158Y-6136484D01*
X608158Y-6136484D02*
X627205Y-6126960D01*
X627205Y-6126960D02*
X636729Y-6117436D01*
X636729Y-6117436D02*
X646253Y-6098388D01*
X646253Y-6098388D02*
X646253Y-6050769D01*
X646253Y-6050769D02*
X636729Y-6031722D01*
X636729Y-6031722D02*
X627205Y-6022198D01*
X627205Y-6022198D02*
X608158Y-6012674D01*
X608158Y-6012674D02*
X570063Y-6012674D01*
X570063Y-6012674D02*
X551015Y-6022198D01*
X551015Y-6022198D02*
X541491Y-6031722D01*
X541491Y-6031722D02*
X531967Y-6050769D01*
X827205Y-5936484D02*
X731967Y-5936484D01*
X731967Y-5936484D02*
X722443Y-6031722D01*
X722443Y-6031722D02*
X731967Y-6022198D01*
X731967Y-6022198D02*
X751015Y-6012674D01*
X751015Y-6012674D02*
X798634Y-6012674D01*
X798634Y-6012674D02*
X817682Y-6022198D01*
X817682Y-6022198D02*
X827205Y-6031722D01*
X827205Y-6031722D02*
X836729Y-6050769D01*
X836729Y-6050769D02*
X836729Y-6098388D01*
X836729Y-6098388D02*
X827205Y-6117436D01*
X827205Y-6117436D02*
X817682Y-6126960D01*
X817682Y-6126960D02*
X798634Y-6136484D01*
X798634Y-6136484D02*
X751015Y-6136484D01*
X751015Y-6136484D02*
X731967Y-6126960D01*
X731967Y-6126960D02*
X722443Y-6117436D01*
X960539Y-5936484D02*
X979586Y-5936484D01*
X979586Y-5936484D02*
X998634Y-5946008D01*
X998634Y-5946008D02*
X1008158Y-5955531D01*
X1008158Y-5955531D02*
X1017682Y-5974579D01*
X1017682Y-5974579D02*
X1027205Y-6012674D01*
X1027205Y-6012674D02*
X1027205Y-6060293D01*
X1027205Y-6060293D02*
X1017682Y-6098388D01*
X1017682Y-6098388D02*
X1008158Y-6117436D01*
X1008158Y-6117436D02*
X998634Y-6126960D01*
X998634Y-6126960D02*
X979586Y-6136484D01*
X979586Y-6136484D02*
X960539Y-6136484D01*
X960539Y-6136484D02*
X941491Y-6126960D01*
X941491Y-6126960D02*
X931967Y-6117436D01*
X931967Y-6117436D02*
X922443Y-6098388D01*
X922443Y-6098388D02*
X912920Y-6060293D01*
X912920Y-6060293D02*
X912920Y-6012674D01*
X912920Y-6012674D02*
X922443Y-5974579D01*
X922443Y-5974579D02*
X931967Y-5955531D01*
X931967Y-5955531D02*
X941491Y-5946008D01*
X941491Y-5946008D02*
X960539Y-5936484D01*
X1112920Y-6136484D02*
X1112920Y-6003150D01*
X1112920Y-6022198D02*
X1122444Y-6012674D01*
X1122444Y-6012674D02*
X1141491Y-6003150D01*
X1141491Y-6003150D02*
X1170063Y-6003150D01*
X1170063Y-6003150D02*
X1189110Y-6012674D01*
X1189110Y-6012674D02*
X1198634Y-6031722D01*
X1198634Y-6031722D02*
X1198634Y-6136484D01*
X1198634Y-6031722D02*
X1208158Y-6012674D01*
X1208158Y-6012674D02*
X1227205Y-6003150D01*
X1227205Y-6003150D02*
X1255777Y-6003150D01*
X1255777Y-6003150D02*
X1274825Y-6012674D01*
X1274825Y-6012674D02*
X1284348Y-6031722D01*
X1284348Y-6031722D02*
X1284348Y-6136484D01*
X1379586Y-6136484D02*
X1379586Y-6003150D01*
X1379586Y-6022198D02*
X1389110Y-6012674D01*
X1389110Y-6012674D02*
X1408158Y-6003150D01*
X1408158Y-6003150D02*
X1436729Y-6003150D01*
X1436729Y-6003150D02*
X1455777Y-6012674D01*
X1455777Y-6012674D02*
X1465301Y-6031722D01*
X1465301Y-6031722D02*
X1465301Y-6136484D01*
X1465301Y-6031722D02*
X1474824Y-6012674D01*
X1474824Y-6012674D02*
X1493872Y-6003150D01*
X1493872Y-6003150D02*
X1522443Y-6003150D01*
X1522443Y-6003150D02*
X1541491Y-6012674D01*
X1541491Y-6012674D02*
X1551015Y-6031722D01*
X1551015Y-6031722D02*
X1551015Y-6136484D01*
X1941491Y-5926960D02*
X1770063Y-6184103D01*
X2198634Y-5936484D02*
X2217682Y-5936484D01*
X2217682Y-5936484D02*
X2236729Y-5946008D01*
X2236729Y-5946008D02*
X2246253Y-5955531D01*
X2246253Y-5955531D02*
X2255777Y-5974579D01*
X2255777Y-5974579D02*
X2265301Y-6012674D01*
X2265301Y-6012674D02*
X2265301Y-6060293D01*
X2265301Y-6060293D02*
X2255777Y-6098388D01*
X2255777Y-6098388D02*
X2246253Y-6117436D01*
X2246253Y-6117436D02*
X2236729Y-6126960D01*
X2236729Y-6126960D02*
X2217682Y-6136484D01*
X2217682Y-6136484D02*
X2198634Y-6136484D01*
X2198634Y-6136484D02*
X2179587Y-6126960D01*
X2179587Y-6126960D02*
X2170063Y-6117436D01*
X2170063Y-6117436D02*
X2160539Y-6098388D01*
X2160539Y-6098388D02*
X2151015Y-6060293D01*
X2151015Y-6060293D02*
X2151015Y-6012674D01*
X2151015Y-6012674D02*
X2160539Y-5974579D01*
X2160539Y-5974579D02*
X2170063Y-5955531D01*
X2170063Y-5955531D02*
X2179587Y-5946008D01*
X2179587Y-5946008D02*
X2198634Y-5936484D01*
X2351015Y-6117436D02*
X2360539Y-6126960D01*
X2360539Y-6126960D02*
X2351015Y-6136484D01*
X2351015Y-6136484D02*
X2341491Y-6126960D01*
X2341491Y-6126960D02*
X2351015Y-6117436D01*
X2351015Y-6117436D02*
X2351015Y-6136484D01*
X2484348Y-5936484D02*
X2503396Y-5936484D01*
X2503396Y-5936484D02*
X2522444Y-5946008D01*
X2522444Y-5946008D02*
X2531968Y-5955531D01*
X2531968Y-5955531D02*
X2541491Y-5974579D01*
X2541491Y-5974579D02*
X2551015Y-6012674D01*
X2551015Y-6012674D02*
X2551015Y-6060293D01*
X2551015Y-6060293D02*
X2541491Y-6098388D01*
X2541491Y-6098388D02*
X2531968Y-6117436D01*
X2531968Y-6117436D02*
X2522444Y-6126960D01*
X2522444Y-6126960D02*
X2503396Y-6136484D01*
X2503396Y-6136484D02*
X2484348Y-6136484D01*
X2484348Y-6136484D02*
X2465301Y-6126960D01*
X2465301Y-6126960D02*
X2455777Y-6117436D01*
X2455777Y-6117436D02*
X2446253Y-6098388D01*
X2446253Y-6098388D02*
X2436729Y-6060293D01*
X2436729Y-6060293D02*
X2436729Y-6012674D01*
X2436729Y-6012674D02*
X2446253Y-5974579D01*
X2446253Y-5974579D02*
X2455777Y-5955531D01*
X2455777Y-5955531D02*
X2465301Y-5946008D01*
X2465301Y-5946008D02*
X2484348Y-5936484D01*
X2627206Y-5955531D02*
X2636729Y-5946008D01*
X2636729Y-5946008D02*
X2655777Y-5936484D01*
X2655777Y-5936484D02*
X2703396Y-5936484D01*
X2703396Y-5936484D02*
X2722444Y-5946008D01*
X2722444Y-5946008D02*
X2731968Y-5955531D01*
X2731968Y-5955531D02*
X2741491Y-5974579D01*
X2741491Y-5974579D02*
X2741491Y-5993627D01*
X2741491Y-5993627D02*
X2731968Y-6022198D01*
X2731968Y-6022198D02*
X2617682Y-6136484D01*
X2617682Y-6136484D02*
X2741491Y-6136484D01*
X2922444Y-5936484D02*
X2827206Y-5936484D01*
X2827206Y-5936484D02*
X2817682Y-6031722D01*
X2817682Y-6031722D02*
X2827206Y-6022198D01*
X2827206Y-6022198D02*
X2846253Y-6012674D01*
X2846253Y-6012674D02*
X2893872Y-6012674D01*
X2893872Y-6012674D02*
X2912920Y-6022198D01*
X2912920Y-6022198D02*
X2922444Y-6031722D01*
X2922444Y-6031722D02*
X2931967Y-6050769D01*
X2931967Y-6050769D02*
X2931967Y-6098388D01*
X2931967Y-6098388D02*
X2922444Y-6117436D01*
X2922444Y-6117436D02*
X2912920Y-6126960D01*
X2912920Y-6126960D02*
X2893872Y-6136484D01*
X2893872Y-6136484D02*
X2846253Y-6136484D01*
X2846253Y-6136484D02*
X2827206Y-6126960D01*
X2827206Y-6126960D02*
X2817682Y-6117436D01*
X3103396Y-5936484D02*
X3065301Y-5936484D01*
X3065301Y-5936484D02*
X3046253Y-5946008D01*
X3046253Y-5946008D02*
X3036729Y-5955531D01*
X3036729Y-5955531D02*
X3017682Y-5984103D01*
X3017682Y-5984103D02*
X3008158Y-6022198D01*
X3008158Y-6022198D02*
X3008158Y-6098388D01*
X3008158Y-6098388D02*
X3017682Y-6117436D01*
X3017682Y-6117436D02*
X3027206Y-6126960D01*
X3027206Y-6126960D02*
X3046253Y-6136484D01*
X3046253Y-6136484D02*
X3084348Y-6136484D01*
X3084348Y-6136484D02*
X3103396Y-6126960D01*
X3103396Y-6126960D02*
X3112920Y-6117436D01*
X3112920Y-6117436D02*
X3122444Y-6098388D01*
X3122444Y-6098388D02*
X3122444Y-6050769D01*
X3122444Y-6050769D02*
X3112920Y-6031722D01*
X3112920Y-6031722D02*
X3103396Y-6022198D01*
X3103396Y-6022198D02*
X3084348Y-6012674D01*
X3084348Y-6012674D02*
X3046253Y-6012674D01*
X3046253Y-6012674D02*
X3027206Y-6022198D01*
X3027206Y-6022198D02*
X3017682Y-6031722D01*
X3017682Y-6031722D02*
X3008158Y-6050769D01*
X3198634Y-5936484D02*
X3198634Y-5974579D01*
X3274825Y-5936484D02*
X3274825Y-5974579D01*
X3570063Y-6212674D02*
X3560539Y-6203150D01*
X3560539Y-6203150D02*
X3541491Y-6174579D01*
X3541491Y-6174579D02*
X3531968Y-6155531D01*
X3531968Y-6155531D02*
X3522444Y-6126960D01*
X3522444Y-6126960D02*
X3512920Y-6079341D01*
X3512920Y-6079341D02*
X3512920Y-6041246D01*
X3512920Y-6041246D02*
X3522444Y-5993627D01*
X3522444Y-5993627D02*
X3531968Y-5965055D01*
X3531968Y-5965055D02*
X3541491Y-5946008D01*
X3541491Y-5946008D02*
X3560539Y-5917436D01*
X3560539Y-5917436D02*
X3570063Y-5907912D01*
X3636729Y-5955531D02*
X3646253Y-5946008D01*
X3646253Y-5946008D02*
X3665301Y-5936484D01*
X3665301Y-5936484D02*
X3712920Y-5936484D01*
X3712920Y-5936484D02*
X3731968Y-5946008D01*
X3731968Y-5946008D02*
X3741491Y-5955531D01*
X3741491Y-5955531D02*
X3751015Y-5974579D01*
X3751015Y-5974579D02*
X3751015Y-5993627D01*
X3751015Y-5993627D02*
X3741491Y-6022198D01*
X3741491Y-6022198D02*
X3627206Y-6136484D01*
X3627206Y-6136484D02*
X3751015Y-6136484D01*
X3989110Y-6136484D02*
X3989110Y-5936484D01*
X4074825Y-6136484D02*
X4074825Y-6031722D01*
X4074825Y-6031722D02*
X4065301Y-6012674D01*
X4065301Y-6012674D02*
X4046253Y-6003150D01*
X4046253Y-6003150D02*
X4017682Y-6003150D01*
X4017682Y-6003150D02*
X3998634Y-6012674D01*
X3998634Y-6012674D02*
X3989110Y-6022198D01*
X4198634Y-6136484D02*
X4179587Y-6126960D01*
X4179587Y-6126960D02*
X4170063Y-6117436D01*
X4170063Y-6117436D02*
X4160539Y-6098388D01*
X4160539Y-6098388D02*
X4160539Y-6041246D01*
X4160539Y-6041246D02*
X4170063Y-6022198D01*
X4170063Y-6022198D02*
X4179587Y-6012674D01*
X4179587Y-6012674D02*
X4198634Y-6003150D01*
X4198634Y-6003150D02*
X4227206Y-6003150D01*
X4227206Y-6003150D02*
X4246253Y-6012674D01*
X4246253Y-6012674D02*
X4255777Y-6022198D01*
X4255777Y-6022198D02*
X4265301Y-6041246D01*
X4265301Y-6041246D02*
X4265301Y-6098388D01*
X4265301Y-6098388D02*
X4255777Y-6117436D01*
X4255777Y-6117436D02*
X4246253Y-6126960D01*
X4246253Y-6126960D02*
X4227206Y-6136484D01*
X4227206Y-6136484D02*
X4198634Y-6136484D01*
X4379587Y-6136484D02*
X4360539Y-6126960D01*
X4360539Y-6126960D02*
X4351015Y-6107912D01*
X4351015Y-6107912D02*
X4351015Y-5936484D01*
X4531968Y-6126960D02*
X4512920Y-6136484D01*
X4512920Y-6136484D02*
X4474825Y-6136484D01*
X4474825Y-6136484D02*
X4455777Y-6126960D01*
X4455777Y-6126960D02*
X4446253Y-6107912D01*
X4446253Y-6107912D02*
X4446253Y-6031722D01*
X4446253Y-6031722D02*
X4455777Y-6012674D01*
X4455777Y-6012674D02*
X4474825Y-6003150D01*
X4474825Y-6003150D02*
X4512920Y-6003150D01*
X4512920Y-6003150D02*
X4531968Y-6012674D01*
X4531968Y-6012674D02*
X4541492Y-6031722D01*
X4541492Y-6031722D02*
X4541492Y-6050769D01*
X4541492Y-6050769D02*
X4446253Y-6069817D01*
X4617682Y-6126960D02*
X4636730Y-6136484D01*
X4636730Y-6136484D02*
X4674825Y-6136484D01*
X4674825Y-6136484D02*
X4693873Y-6126960D01*
X4693873Y-6126960D02*
X4703396Y-6107912D01*
X4703396Y-6107912D02*
X4703396Y-6098388D01*
X4703396Y-6098388D02*
X4693873Y-6079341D01*
X4693873Y-6079341D02*
X4674825Y-6069817D01*
X4674825Y-6069817D02*
X4646253Y-6069817D01*
X4646253Y-6069817D02*
X4627206Y-6060293D01*
X4627206Y-6060293D02*
X4617682Y-6041246D01*
X4617682Y-6041246D02*
X4617682Y-6031722D01*
X4617682Y-6031722D02*
X4627206Y-6012674D01*
X4627206Y-6012674D02*
X4646253Y-6003150D01*
X4646253Y-6003150D02*
X4674825Y-6003150D01*
X4674825Y-6003150D02*
X4693873Y-6012674D01*
X4770063Y-6212674D02*
X4779587Y-6203150D01*
X4779587Y-6203150D02*
X4798634Y-6174579D01*
X4798634Y-6174579D02*
X4808158Y-6155531D01*
X4808158Y-6155531D02*
X4817682Y-6126960D01*
X4817682Y-6126960D02*
X4827206Y-6079341D01*
X4827206Y-6079341D02*
X4827206Y-6041246D01*
X4827206Y-6041246D02*
X4817682Y-5993627D01*
X4817682Y-5993627D02*
X4808158Y-5965055D01*
X4808158Y-5965055D02*
X4798634Y-5946008D01*
X4798634Y-5946008D02*
X4779587Y-5917436D01*
X4779587Y-5917436D02*
X4770063Y-5907912D01*
X5131968Y-6212674D02*
X5122444Y-6203150D01*
X5122444Y-6203150D02*
X5103396Y-6174579D01*
X5103396Y-6174579D02*
X5093873Y-6155531D01*
X5093873Y-6155531D02*
X5084349Y-6126960D01*
X5084349Y-6126960D02*
X5074825Y-6079341D01*
X5074825Y-6079341D02*
X5074825Y-6041246D01*
X5074825Y-6041246D02*
X5084349Y-5993627D01*
X5084349Y-5993627D02*
X5093873Y-5965055D01*
X5093873Y-5965055D02*
X5103396Y-5946008D01*
X5103396Y-5946008D02*
X5122444Y-5917436D01*
X5122444Y-5917436D02*
X5131968Y-5907912D01*
X5208158Y-6003150D02*
X5208158Y-6136484D01*
X5208158Y-6022198D02*
X5217682Y-6012674D01*
X5217682Y-6012674D02*
X5236730Y-6003150D01*
X5236730Y-6003150D02*
X5265301Y-6003150D01*
X5265301Y-6003150D02*
X5284349Y-6012674D01*
X5284349Y-6012674D02*
X5293873Y-6031722D01*
X5293873Y-6031722D02*
X5293873Y-6136484D01*
X5417682Y-6136484D02*
X5398634Y-6126960D01*
X5398634Y-6126960D02*
X5389111Y-6117436D01*
X5389111Y-6117436D02*
X5379587Y-6098388D01*
X5379587Y-6098388D02*
X5379587Y-6041246D01*
X5379587Y-6041246D02*
X5389111Y-6022198D01*
X5389111Y-6022198D02*
X5398634Y-6012674D01*
X5398634Y-6012674D02*
X5417682Y-6003150D01*
X5417682Y-6003150D02*
X5446254Y-6003150D01*
X5446254Y-6003150D02*
X5465301Y-6012674D01*
X5465301Y-6012674D02*
X5474825Y-6022198D01*
X5474825Y-6022198D02*
X5484349Y-6041246D01*
X5484349Y-6041246D02*
X5484349Y-6098388D01*
X5484349Y-6098388D02*
X5474825Y-6117436D01*
X5474825Y-6117436D02*
X5465301Y-6126960D01*
X5465301Y-6126960D02*
X5446254Y-6136484D01*
X5446254Y-6136484D02*
X5417682Y-6136484D01*
X5541492Y-6003150D02*
X5617682Y-6003150D01*
X5570063Y-5936484D02*
X5570063Y-6107912D01*
X5570063Y-6107912D02*
X5579587Y-6126960D01*
X5579587Y-6126960D02*
X5598634Y-6136484D01*
X5598634Y-6136484D02*
X5617682Y-6136484D01*
X5836730Y-6003150D02*
X5836730Y-6203150D01*
X5836730Y-6012674D02*
X5855777Y-6003150D01*
X5855777Y-6003150D02*
X5893873Y-6003150D01*
X5893873Y-6003150D02*
X5912920Y-6012674D01*
X5912920Y-6012674D02*
X5922444Y-6022198D01*
X5922444Y-6022198D02*
X5931968Y-6041246D01*
X5931968Y-6041246D02*
X5931968Y-6098388D01*
X5931968Y-6098388D02*
X5922444Y-6117436D01*
X5922444Y-6117436D02*
X5912920Y-6126960D01*
X5912920Y-6126960D02*
X5893873Y-6136484D01*
X5893873Y-6136484D02*
X5855777Y-6136484D01*
X5855777Y-6136484D02*
X5836730Y-6126960D01*
X6046253Y-6136484D02*
X6027206Y-6126960D01*
X6027206Y-6126960D02*
X6017682Y-6107912D01*
X6017682Y-6107912D02*
X6017682Y-5936484D01*
X6208158Y-6136484D02*
X6208158Y-6031722D01*
X6208158Y-6031722D02*
X6198634Y-6012674D01*
X6198634Y-6012674D02*
X6179587Y-6003150D01*
X6179587Y-6003150D02*
X6141492Y-6003150D01*
X6141492Y-6003150D02*
X6122444Y-6012674D01*
X6208158Y-6126960D02*
X6189111Y-6136484D01*
X6189111Y-6136484D02*
X6141492Y-6136484D01*
X6141492Y-6136484D02*
X6122444Y-6126960D01*
X6122444Y-6126960D02*
X6112920Y-6107912D01*
X6112920Y-6107912D02*
X6112920Y-6088865D01*
X6112920Y-6088865D02*
X6122444Y-6069817D01*
X6122444Y-6069817D02*
X6141492Y-6060293D01*
X6141492Y-6060293D02*
X6189111Y-6060293D01*
X6189111Y-6060293D02*
X6208158Y-6050769D01*
X6274825Y-6003150D02*
X6351015Y-6003150D01*
X6303396Y-5936484D02*
X6303396Y-6107912D01*
X6303396Y-6107912D02*
X6312920Y-6126960D01*
X6312920Y-6126960D02*
X6331968Y-6136484D01*
X6331968Y-6136484D02*
X6351015Y-6136484D01*
X6493873Y-6126960D02*
X6474825Y-6136484D01*
X6474825Y-6136484D02*
X6436730Y-6136484D01*
X6436730Y-6136484D02*
X6417682Y-6126960D01*
X6417682Y-6126960D02*
X6408158Y-6107912D01*
X6408158Y-6107912D02*
X6408158Y-6031722D01*
X6408158Y-6031722D02*
X6417682Y-6012674D01*
X6417682Y-6012674D02*
X6436730Y-6003150D01*
X6436730Y-6003150D02*
X6474825Y-6003150D01*
X6474825Y-6003150D02*
X6493873Y-6012674D01*
X6493873Y-6012674D02*
X6503396Y-6031722D01*
X6503396Y-6031722D02*
X6503396Y-6050769D01*
X6503396Y-6050769D02*
X6408158Y-6069817D01*
X6674825Y-6136484D02*
X6674825Y-5936484D01*
X6674825Y-6126960D02*
X6655777Y-6136484D01*
X6655777Y-6136484D02*
X6617682Y-6136484D01*
X6617682Y-6136484D02*
X6598634Y-6126960D01*
X6598634Y-6126960D02*
X6589111Y-6117436D01*
X6589111Y-6117436D02*
X6579587Y-6098388D01*
X6579587Y-6098388D02*
X6579587Y-6041246D01*
X6579587Y-6041246D02*
X6589111Y-6022198D01*
X6589111Y-6022198D02*
X6598634Y-6012674D01*
X6598634Y-6012674D02*
X6617682Y-6003150D01*
X6617682Y-6003150D02*
X6655777Y-6003150D01*
X6655777Y-6003150D02*
X6674825Y-6012674D01*
X6751015Y-6212674D02*
X6760539Y-6203150D01*
X6760539Y-6203150D02*
X6779587Y-6174579D01*
X6779587Y-6174579D02*
X6789111Y-6155531D01*
X6789111Y-6155531D02*
X6798634Y-6126960D01*
X6798634Y-6126960D02*
X6808158Y-6079341D01*
X6808158Y-6079341D02*
X6808158Y-6041246D01*
X6808158Y-6041246D02*
X6798634Y-5993627D01*
X6798634Y-5993627D02*
X6789111Y-5965055D01*
X6789111Y-5965055D02*
X6779587Y-5946008D01*
X6779587Y-5946008D02*
X6760539Y-5917436D01*
X6760539Y-5917436D02*
X6751015Y-5907912D01*
D12*
X-5000Y-6309000D02*
G75*
G02*
X-165000Y-6309000I-80000J0D01*
G01*
X-165000Y-6309000D02*
G75*
G02*
X-5000Y-6309000I80000J0D01*
G01*
D11*
X360539Y-6400484D02*
X246253Y-6400484D01*
X303396Y-6400484D02*
X303396Y-6200484D01*
X303396Y-6200484D02*
X284348Y-6229055D01*
X284348Y-6229055D02*
X265301Y-6248103D01*
X265301Y-6248103D02*
X246253Y-6257627D01*
X446253Y-6381436D02*
X455777Y-6390960D01*
X455777Y-6390960D02*
X446253Y-6400484D01*
X446253Y-6400484D02*
X436729Y-6390960D01*
X436729Y-6390960D02*
X446253Y-6381436D01*
X446253Y-6381436D02*
X446253Y-6400484D01*
X627205Y-6200484D02*
X589110Y-6200484D01*
X589110Y-6200484D02*
X570063Y-6210008D01*
X570063Y-6210008D02*
X560539Y-6219531D01*
X560539Y-6219531D02*
X541491Y-6248103D01*
X541491Y-6248103D02*
X531967Y-6286198D01*
X531967Y-6286198D02*
X531967Y-6362388D01*
X531967Y-6362388D02*
X541491Y-6381436D01*
X541491Y-6381436D02*
X551015Y-6390960D01*
X551015Y-6390960D02*
X570063Y-6400484D01*
X570063Y-6400484D02*
X608158Y-6400484D01*
X608158Y-6400484D02*
X627205Y-6390960D01*
X627205Y-6390960D02*
X636729Y-6381436D01*
X636729Y-6381436D02*
X646253Y-6362388D01*
X646253Y-6362388D02*
X646253Y-6314769D01*
X646253Y-6314769D02*
X636729Y-6295722D01*
X636729Y-6295722D02*
X627205Y-6286198D01*
X627205Y-6286198D02*
X608158Y-6276674D01*
X608158Y-6276674D02*
X570063Y-6276674D01*
X570063Y-6276674D02*
X551015Y-6286198D01*
X551015Y-6286198D02*
X541491Y-6295722D01*
X541491Y-6295722D02*
X531967Y-6314769D01*
X770062Y-6200484D02*
X789110Y-6200484D01*
X789110Y-6200484D02*
X808158Y-6210008D01*
X808158Y-6210008D02*
X817682Y-6219531D01*
X817682Y-6219531D02*
X827205Y-6238579D01*
X827205Y-6238579D02*
X836729Y-6276674D01*
X836729Y-6276674D02*
X836729Y-6324293D01*
X836729Y-6324293D02*
X827205Y-6362388D01*
X827205Y-6362388D02*
X817682Y-6381436D01*
X817682Y-6381436D02*
X808158Y-6390960D01*
X808158Y-6390960D02*
X789110Y-6400484D01*
X789110Y-6400484D02*
X770062Y-6400484D01*
X770062Y-6400484D02*
X751015Y-6390960D01*
X751015Y-6390960D02*
X741491Y-6381436D01*
X741491Y-6381436D02*
X731967Y-6362388D01*
X731967Y-6362388D02*
X722443Y-6324293D01*
X722443Y-6324293D02*
X722443Y-6276674D01*
X722443Y-6276674D02*
X731967Y-6238579D01*
X731967Y-6238579D02*
X741491Y-6219531D01*
X741491Y-6219531D02*
X751015Y-6210008D01*
X751015Y-6210008D02*
X770062Y-6200484D01*
X960539Y-6200484D02*
X979586Y-6200484D01*
X979586Y-6200484D02*
X998634Y-6210008D01*
X998634Y-6210008D02*
X1008158Y-6219531D01*
X1008158Y-6219531D02*
X1017682Y-6238579D01*
X1017682Y-6238579D02*
X1027205Y-6276674D01*
X1027205Y-6276674D02*
X1027205Y-6324293D01*
X1027205Y-6324293D02*
X1017682Y-6362388D01*
X1017682Y-6362388D02*
X1008158Y-6381436D01*
X1008158Y-6381436D02*
X998634Y-6390960D01*
X998634Y-6390960D02*
X979586Y-6400484D01*
X979586Y-6400484D02*
X960539Y-6400484D01*
X960539Y-6400484D02*
X941491Y-6390960D01*
X941491Y-6390960D02*
X931967Y-6381436D01*
X931967Y-6381436D02*
X922443Y-6362388D01*
X922443Y-6362388D02*
X912920Y-6324293D01*
X912920Y-6324293D02*
X912920Y-6276674D01*
X912920Y-6276674D02*
X922443Y-6238579D01*
X922443Y-6238579D02*
X931967Y-6219531D01*
X931967Y-6219531D02*
X941491Y-6210008D01*
X941491Y-6210008D02*
X960539Y-6200484D01*
X1112920Y-6400484D02*
X1112920Y-6267150D01*
X1112920Y-6286198D02*
X1122444Y-6276674D01*
X1122444Y-6276674D02*
X1141491Y-6267150D01*
X1141491Y-6267150D02*
X1170063Y-6267150D01*
X1170063Y-6267150D02*
X1189110Y-6276674D01*
X1189110Y-6276674D02*
X1198634Y-6295722D01*
X1198634Y-6295722D02*
X1198634Y-6400484D01*
X1198634Y-6295722D02*
X1208158Y-6276674D01*
X1208158Y-6276674D02*
X1227205Y-6267150D01*
X1227205Y-6267150D02*
X1255777Y-6267150D01*
X1255777Y-6267150D02*
X1274825Y-6276674D01*
X1274825Y-6276674D02*
X1284348Y-6295722D01*
X1284348Y-6295722D02*
X1284348Y-6400484D01*
X1379586Y-6400484D02*
X1379586Y-6267150D01*
X1379586Y-6286198D02*
X1389110Y-6276674D01*
X1389110Y-6276674D02*
X1408158Y-6267150D01*
X1408158Y-6267150D02*
X1436729Y-6267150D01*
X1436729Y-6267150D02*
X1455777Y-6276674D01*
X1455777Y-6276674D02*
X1465301Y-6295722D01*
X1465301Y-6295722D02*
X1465301Y-6400484D01*
X1465301Y-6295722D02*
X1474824Y-6276674D01*
X1474824Y-6276674D02*
X1493872Y-6267150D01*
X1493872Y-6267150D02*
X1522443Y-6267150D01*
X1522443Y-6267150D02*
X1541491Y-6276674D01*
X1541491Y-6276674D02*
X1551015Y-6295722D01*
X1551015Y-6295722D02*
X1551015Y-6400484D01*
X1941491Y-6190960D02*
X1770063Y-6448103D01*
X2198634Y-6200484D02*
X2217682Y-6200484D01*
X2217682Y-6200484D02*
X2236729Y-6210008D01*
X2236729Y-6210008D02*
X2246253Y-6219531D01*
X2246253Y-6219531D02*
X2255777Y-6238579D01*
X2255777Y-6238579D02*
X2265301Y-6276674D01*
X2265301Y-6276674D02*
X2265301Y-6324293D01*
X2265301Y-6324293D02*
X2255777Y-6362388D01*
X2255777Y-6362388D02*
X2246253Y-6381436D01*
X2246253Y-6381436D02*
X2236729Y-6390960D01*
X2236729Y-6390960D02*
X2217682Y-6400484D01*
X2217682Y-6400484D02*
X2198634Y-6400484D01*
X2198634Y-6400484D02*
X2179587Y-6390960D01*
X2179587Y-6390960D02*
X2170063Y-6381436D01*
X2170063Y-6381436D02*
X2160539Y-6362388D01*
X2160539Y-6362388D02*
X2151015Y-6324293D01*
X2151015Y-6324293D02*
X2151015Y-6276674D01*
X2151015Y-6276674D02*
X2160539Y-6238579D01*
X2160539Y-6238579D02*
X2170063Y-6219531D01*
X2170063Y-6219531D02*
X2179587Y-6210008D01*
X2179587Y-6210008D02*
X2198634Y-6200484D01*
X2351015Y-6381436D02*
X2360539Y-6390960D01*
X2360539Y-6390960D02*
X2351015Y-6400484D01*
X2351015Y-6400484D02*
X2341491Y-6390960D01*
X2341491Y-6390960D02*
X2351015Y-6381436D01*
X2351015Y-6381436D02*
X2351015Y-6400484D01*
X2484348Y-6200484D02*
X2503396Y-6200484D01*
X2503396Y-6200484D02*
X2522444Y-6210008D01*
X2522444Y-6210008D02*
X2531968Y-6219531D01*
X2531968Y-6219531D02*
X2541491Y-6238579D01*
X2541491Y-6238579D02*
X2551015Y-6276674D01*
X2551015Y-6276674D02*
X2551015Y-6324293D01*
X2551015Y-6324293D02*
X2541491Y-6362388D01*
X2541491Y-6362388D02*
X2531968Y-6381436D01*
X2531968Y-6381436D02*
X2522444Y-6390960D01*
X2522444Y-6390960D02*
X2503396Y-6400484D01*
X2503396Y-6400484D02*
X2484348Y-6400484D01*
X2484348Y-6400484D02*
X2465301Y-6390960D01*
X2465301Y-6390960D02*
X2455777Y-6381436D01*
X2455777Y-6381436D02*
X2446253Y-6362388D01*
X2446253Y-6362388D02*
X2436729Y-6324293D01*
X2436729Y-6324293D02*
X2436729Y-6276674D01*
X2436729Y-6276674D02*
X2446253Y-6238579D01*
X2446253Y-6238579D02*
X2455777Y-6219531D01*
X2455777Y-6219531D02*
X2465301Y-6210008D01*
X2465301Y-6210008D02*
X2484348Y-6200484D01*
X2722444Y-6200484D02*
X2684348Y-6200484D01*
X2684348Y-6200484D02*
X2665301Y-6210008D01*
X2665301Y-6210008D02*
X2655777Y-6219531D01*
X2655777Y-6219531D02*
X2636729Y-6248103D01*
X2636729Y-6248103D02*
X2627206Y-6286198D01*
X2627206Y-6286198D02*
X2627206Y-6362388D01*
X2627206Y-6362388D02*
X2636729Y-6381436D01*
X2636729Y-6381436D02*
X2646253Y-6390960D01*
X2646253Y-6390960D02*
X2665301Y-6400484D01*
X2665301Y-6400484D02*
X2703396Y-6400484D01*
X2703396Y-6400484D02*
X2722444Y-6390960D01*
X2722444Y-6390960D02*
X2731968Y-6381436D01*
X2731968Y-6381436D02*
X2741491Y-6362388D01*
X2741491Y-6362388D02*
X2741491Y-6314769D01*
X2741491Y-6314769D02*
X2731968Y-6295722D01*
X2731968Y-6295722D02*
X2722444Y-6286198D01*
X2722444Y-6286198D02*
X2703396Y-6276674D01*
X2703396Y-6276674D02*
X2665301Y-6276674D01*
X2665301Y-6276674D02*
X2646253Y-6286198D01*
X2646253Y-6286198D02*
X2636729Y-6295722D01*
X2636729Y-6295722D02*
X2627206Y-6314769D01*
X2808158Y-6200484D02*
X2931967Y-6200484D01*
X2931967Y-6200484D02*
X2865301Y-6276674D01*
X2865301Y-6276674D02*
X2893872Y-6276674D01*
X2893872Y-6276674D02*
X2912920Y-6286198D01*
X2912920Y-6286198D02*
X2922444Y-6295722D01*
X2922444Y-6295722D02*
X2931967Y-6314769D01*
X2931967Y-6314769D02*
X2931967Y-6362388D01*
X2931967Y-6362388D02*
X2922444Y-6381436D01*
X2922444Y-6381436D02*
X2912920Y-6390960D01*
X2912920Y-6390960D02*
X2893872Y-6400484D01*
X2893872Y-6400484D02*
X2836729Y-6400484D01*
X2836729Y-6400484D02*
X2817682Y-6390960D01*
X2817682Y-6390960D02*
X2808158Y-6381436D01*
X3055777Y-6200484D02*
X3074825Y-6200484D01*
X3074825Y-6200484D02*
X3093872Y-6210008D01*
X3093872Y-6210008D02*
X3103396Y-6219531D01*
X3103396Y-6219531D02*
X3112920Y-6238579D01*
X3112920Y-6238579D02*
X3122444Y-6276674D01*
X3122444Y-6276674D02*
X3122444Y-6324293D01*
X3122444Y-6324293D02*
X3112920Y-6362388D01*
X3112920Y-6362388D02*
X3103396Y-6381436D01*
X3103396Y-6381436D02*
X3093872Y-6390960D01*
X3093872Y-6390960D02*
X3074825Y-6400484D01*
X3074825Y-6400484D02*
X3055777Y-6400484D01*
X3055777Y-6400484D02*
X3036729Y-6390960D01*
X3036729Y-6390960D02*
X3027206Y-6381436D01*
X3027206Y-6381436D02*
X3017682Y-6362388D01*
X3017682Y-6362388D02*
X3008158Y-6324293D01*
X3008158Y-6324293D02*
X3008158Y-6276674D01*
X3008158Y-6276674D02*
X3017682Y-6238579D01*
X3017682Y-6238579D02*
X3027206Y-6219531D01*
X3027206Y-6219531D02*
X3036729Y-6210008D01*
X3036729Y-6210008D02*
X3055777Y-6200484D01*
X3198634Y-6200484D02*
X3198634Y-6238579D01*
X3274825Y-6200484D02*
X3274825Y-6238579D01*
X3570063Y-6476674D02*
X3560539Y-6467150D01*
X3560539Y-6467150D02*
X3541491Y-6438579D01*
X3541491Y-6438579D02*
X3531968Y-6419531D01*
X3531968Y-6419531D02*
X3522444Y-6390960D01*
X3522444Y-6390960D02*
X3512920Y-6343341D01*
X3512920Y-6343341D02*
X3512920Y-6305246D01*
X3512920Y-6305246D02*
X3522444Y-6257627D01*
X3522444Y-6257627D02*
X3531968Y-6229055D01*
X3531968Y-6229055D02*
X3541491Y-6210008D01*
X3541491Y-6210008D02*
X3560539Y-6181436D01*
X3560539Y-6181436D02*
X3570063Y-6171912D01*
X3636729Y-6219531D02*
X3646253Y-6210008D01*
X3646253Y-6210008D02*
X3665301Y-6200484D01*
X3665301Y-6200484D02*
X3712920Y-6200484D01*
X3712920Y-6200484D02*
X3731968Y-6210008D01*
X3731968Y-6210008D02*
X3741491Y-6219531D01*
X3741491Y-6219531D02*
X3751015Y-6238579D01*
X3751015Y-6238579D02*
X3751015Y-6257627D01*
X3751015Y-6257627D02*
X3741491Y-6286198D01*
X3741491Y-6286198D02*
X3627206Y-6400484D01*
X3627206Y-6400484D02*
X3751015Y-6400484D01*
X3989110Y-6400484D02*
X3989110Y-6200484D01*
X4074825Y-6400484D02*
X4074825Y-6295722D01*
X4074825Y-6295722D02*
X4065301Y-6276674D01*
X4065301Y-6276674D02*
X4046253Y-6267150D01*
X4046253Y-6267150D02*
X4017682Y-6267150D01*
X4017682Y-6267150D02*
X3998634Y-6276674D01*
X3998634Y-6276674D02*
X3989110Y-6286198D01*
X4198634Y-6400484D02*
X4179587Y-6390960D01*
X4179587Y-6390960D02*
X4170063Y-6381436D01*
X4170063Y-6381436D02*
X4160539Y-6362388D01*
X4160539Y-6362388D02*
X4160539Y-6305246D01*
X4160539Y-6305246D02*
X4170063Y-6286198D01*
X4170063Y-6286198D02*
X4179587Y-6276674D01*
X4179587Y-6276674D02*
X4198634Y-6267150D01*
X4198634Y-6267150D02*
X4227206Y-6267150D01*
X4227206Y-6267150D02*
X4246253Y-6276674D01*
X4246253Y-6276674D02*
X4255777Y-6286198D01*
X4255777Y-6286198D02*
X4265301Y-6305246D01*
X4265301Y-6305246D02*
X4265301Y-6362388D01*
X4265301Y-6362388D02*
X4255777Y-6381436D01*
X4255777Y-6381436D02*
X4246253Y-6390960D01*
X4246253Y-6390960D02*
X4227206Y-6400484D01*
X4227206Y-6400484D02*
X4198634Y-6400484D01*
X4379587Y-6400484D02*
X4360539Y-6390960D01*
X4360539Y-6390960D02*
X4351015Y-6371912D01*
X4351015Y-6371912D02*
X4351015Y-6200484D01*
X4531968Y-6390960D02*
X4512920Y-6400484D01*
X4512920Y-6400484D02*
X4474825Y-6400484D01*
X4474825Y-6400484D02*
X4455777Y-6390960D01*
X4455777Y-6390960D02*
X4446253Y-6371912D01*
X4446253Y-6371912D02*
X4446253Y-6295722D01*
X4446253Y-6295722D02*
X4455777Y-6276674D01*
X4455777Y-6276674D02*
X4474825Y-6267150D01*
X4474825Y-6267150D02*
X4512920Y-6267150D01*
X4512920Y-6267150D02*
X4531968Y-6276674D01*
X4531968Y-6276674D02*
X4541492Y-6295722D01*
X4541492Y-6295722D02*
X4541492Y-6314769D01*
X4541492Y-6314769D02*
X4446253Y-6333817D01*
X4617682Y-6390960D02*
X4636730Y-6400484D01*
X4636730Y-6400484D02*
X4674825Y-6400484D01*
X4674825Y-6400484D02*
X4693873Y-6390960D01*
X4693873Y-6390960D02*
X4703396Y-6371912D01*
X4703396Y-6371912D02*
X4703396Y-6362388D01*
X4703396Y-6362388D02*
X4693873Y-6343341D01*
X4693873Y-6343341D02*
X4674825Y-6333817D01*
X4674825Y-6333817D02*
X4646253Y-6333817D01*
X4646253Y-6333817D02*
X4627206Y-6324293D01*
X4627206Y-6324293D02*
X4617682Y-6305246D01*
X4617682Y-6305246D02*
X4617682Y-6295722D01*
X4617682Y-6295722D02*
X4627206Y-6276674D01*
X4627206Y-6276674D02*
X4646253Y-6267150D01*
X4646253Y-6267150D02*
X4674825Y-6267150D01*
X4674825Y-6267150D02*
X4693873Y-6276674D01*
X4770063Y-6476674D02*
X4779587Y-6467150D01*
X4779587Y-6467150D02*
X4798634Y-6438579D01*
X4798634Y-6438579D02*
X4808158Y-6419531D01*
X4808158Y-6419531D02*
X4817682Y-6390960D01*
X4817682Y-6390960D02*
X4827206Y-6343341D01*
X4827206Y-6343341D02*
X4827206Y-6305246D01*
X4827206Y-6305246D02*
X4817682Y-6257627D01*
X4817682Y-6257627D02*
X4808158Y-6229055D01*
X4808158Y-6229055D02*
X4798634Y-6210008D01*
X4798634Y-6210008D02*
X4779587Y-6181436D01*
X4779587Y-6181436D02*
X4770063Y-6171912D01*
X5131968Y-6476674D02*
X5122444Y-6467150D01*
X5122444Y-6467150D02*
X5103396Y-6438579D01*
X5103396Y-6438579D02*
X5093873Y-6419531D01*
X5093873Y-6419531D02*
X5084349Y-6390960D01*
X5084349Y-6390960D02*
X5074825Y-6343341D01*
X5074825Y-6343341D02*
X5074825Y-6305246D01*
X5074825Y-6305246D02*
X5084349Y-6257627D01*
X5084349Y-6257627D02*
X5093873Y-6229055D01*
X5093873Y-6229055D02*
X5103396Y-6210008D01*
X5103396Y-6210008D02*
X5122444Y-6181436D01*
X5122444Y-6181436D02*
X5131968Y-6171912D01*
X5208158Y-6267150D02*
X5208158Y-6400484D01*
X5208158Y-6286198D02*
X5217682Y-6276674D01*
X5217682Y-6276674D02*
X5236730Y-6267150D01*
X5236730Y-6267150D02*
X5265301Y-6267150D01*
X5265301Y-6267150D02*
X5284349Y-6276674D01*
X5284349Y-6276674D02*
X5293873Y-6295722D01*
X5293873Y-6295722D02*
X5293873Y-6400484D01*
X5417682Y-6400484D02*
X5398634Y-6390960D01*
X5398634Y-6390960D02*
X5389111Y-6381436D01*
X5389111Y-6381436D02*
X5379587Y-6362388D01*
X5379587Y-6362388D02*
X5379587Y-6305246D01*
X5379587Y-6305246D02*
X5389111Y-6286198D01*
X5389111Y-6286198D02*
X5398634Y-6276674D01*
X5398634Y-6276674D02*
X5417682Y-6267150D01*
X5417682Y-6267150D02*
X5446254Y-6267150D01*
X5446254Y-6267150D02*
X5465301Y-6276674D01*
X5465301Y-6276674D02*
X5474825Y-6286198D01*
X5474825Y-6286198D02*
X5484349Y-6305246D01*
X5484349Y-6305246D02*
X5484349Y-6362388D01*
X5484349Y-6362388D02*
X5474825Y-6381436D01*
X5474825Y-6381436D02*
X5465301Y-6390960D01*
X5465301Y-6390960D02*
X5446254Y-6400484D01*
X5446254Y-6400484D02*
X5417682Y-6400484D01*
X5541492Y-6267150D02*
X5617682Y-6267150D01*
X5570063Y-6200484D02*
X5570063Y-6371912D01*
X5570063Y-6371912D02*
X5579587Y-6390960D01*
X5579587Y-6390960D02*
X5598634Y-6400484D01*
X5598634Y-6400484D02*
X5617682Y-6400484D01*
X5836730Y-6267150D02*
X5836730Y-6467150D01*
X5836730Y-6276674D02*
X5855777Y-6267150D01*
X5855777Y-6267150D02*
X5893873Y-6267150D01*
X5893873Y-6267150D02*
X5912920Y-6276674D01*
X5912920Y-6276674D02*
X5922444Y-6286198D01*
X5922444Y-6286198D02*
X5931968Y-6305246D01*
X5931968Y-6305246D02*
X5931968Y-6362388D01*
X5931968Y-6362388D02*
X5922444Y-6381436D01*
X5922444Y-6381436D02*
X5912920Y-6390960D01*
X5912920Y-6390960D02*
X5893873Y-6400484D01*
X5893873Y-6400484D02*
X5855777Y-6400484D01*
X5855777Y-6400484D02*
X5836730Y-6390960D01*
X6046253Y-6400484D02*
X6027206Y-6390960D01*
X6027206Y-6390960D02*
X6017682Y-6371912D01*
X6017682Y-6371912D02*
X6017682Y-6200484D01*
X6208158Y-6400484D02*
X6208158Y-6295722D01*
X6208158Y-6295722D02*
X6198634Y-6276674D01*
X6198634Y-6276674D02*
X6179587Y-6267150D01*
X6179587Y-6267150D02*
X6141492Y-6267150D01*
X6141492Y-6267150D02*
X6122444Y-6276674D01*
X6208158Y-6390960D02*
X6189111Y-6400484D01*
X6189111Y-6400484D02*
X6141492Y-6400484D01*
X6141492Y-6400484D02*
X6122444Y-6390960D01*
X6122444Y-6390960D02*
X6112920Y-6371912D01*
X6112920Y-6371912D02*
X6112920Y-6352865D01*
X6112920Y-6352865D02*
X6122444Y-6333817D01*
X6122444Y-6333817D02*
X6141492Y-6324293D01*
X6141492Y-6324293D02*
X6189111Y-6324293D01*
X6189111Y-6324293D02*
X6208158Y-6314769D01*
X6274825Y-6267150D02*
X6351015Y-6267150D01*
X6303396Y-6200484D02*
X6303396Y-6371912D01*
X6303396Y-6371912D02*
X6312920Y-6390960D01*
X6312920Y-6390960D02*
X6331968Y-6400484D01*
X6331968Y-6400484D02*
X6351015Y-6400484D01*
X6493873Y-6390960D02*
X6474825Y-6400484D01*
X6474825Y-6400484D02*
X6436730Y-6400484D01*
X6436730Y-6400484D02*
X6417682Y-6390960D01*
X6417682Y-6390960D02*
X6408158Y-6371912D01*
X6408158Y-6371912D02*
X6408158Y-6295722D01*
X6408158Y-6295722D02*
X6417682Y-6276674D01*
X6417682Y-6276674D02*
X6436730Y-6267150D01*
X6436730Y-6267150D02*
X6474825Y-6267150D01*
X6474825Y-6267150D02*
X6493873Y-6276674D01*
X6493873Y-6276674D02*
X6503396Y-6295722D01*
X6503396Y-6295722D02*
X6503396Y-6314769D01*
X6503396Y-6314769D02*
X6408158Y-6333817D01*
X6674825Y-6400484D02*
X6674825Y-6200484D01*
X6674825Y-6390960D02*
X6655777Y-6400484D01*
X6655777Y-6400484D02*
X6617682Y-6400484D01*
X6617682Y-6400484D02*
X6598634Y-6390960D01*
X6598634Y-6390960D02*
X6589111Y-6381436D01*
X6589111Y-6381436D02*
X6579587Y-6362388D01*
X6579587Y-6362388D02*
X6579587Y-6305246D01*
X6579587Y-6305246D02*
X6589111Y-6286198D01*
X6589111Y-6286198D02*
X6598634Y-6276674D01*
X6598634Y-6276674D02*
X6617682Y-6267150D01*
X6617682Y-6267150D02*
X6655777Y-6267150D01*
X6655777Y-6267150D02*
X6674825Y-6276674D01*
X6751015Y-6476674D02*
X6760539Y-6467150D01*
X6760539Y-6467150D02*
X6779587Y-6438579D01*
X6779587Y-6438579D02*
X6789111Y-6419531D01*
X6789111Y-6419531D02*
X6798634Y-6390960D01*
X6798634Y-6390960D02*
X6808158Y-6343341D01*
X6808158Y-6343341D02*
X6808158Y-6305246D01*
X6808158Y-6305246D02*
X6798634Y-6257627D01*
X6798634Y-6257627D02*
X6789111Y-6229055D01*
X6789111Y-6229055D02*
X6779587Y-6210008D01*
X6779587Y-6210008D02*
X6760539Y-6181436D01*
X6760539Y-6181436D02*
X6751015Y-6171912D01*
X-105000Y-6489000D02*
X-105000Y-6689000D01*
X-205000Y-6589000D02*
X-5000Y-6589000D01*
X236729Y-6480484D02*
X360539Y-6480484D01*
X360539Y-6480484D02*
X293872Y-6556674D01*
X293872Y-6556674D02*
X322444Y-6556674D01*
X322444Y-6556674D02*
X341491Y-6566198D01*
X341491Y-6566198D02*
X351015Y-6575722D01*
X351015Y-6575722D02*
X360539Y-6594769D01*
X360539Y-6594769D02*
X360539Y-6642388D01*
X360539Y-6642388D02*
X351015Y-6661436D01*
X351015Y-6661436D02*
X341491Y-6670960D01*
X341491Y-6670960D02*
X322444Y-6680484D01*
X322444Y-6680484D02*
X265301Y-6680484D01*
X265301Y-6680484D02*
X246253Y-6670960D01*
X246253Y-6670960D02*
X236729Y-6661436D01*
X446253Y-6661436D02*
X455777Y-6670960D01*
X455777Y-6670960D02*
X446253Y-6680484D01*
X446253Y-6680484D02*
X436729Y-6670960D01*
X436729Y-6670960D02*
X446253Y-6661436D01*
X446253Y-6661436D02*
X446253Y-6680484D01*
X531967Y-6499531D02*
X541491Y-6490008D01*
X541491Y-6490008D02*
X560539Y-6480484D01*
X560539Y-6480484D02*
X608158Y-6480484D01*
X608158Y-6480484D02*
X627205Y-6490008D01*
X627205Y-6490008D02*
X636729Y-6499531D01*
X636729Y-6499531D02*
X646253Y-6518579D01*
X646253Y-6518579D02*
X646253Y-6537627D01*
X646253Y-6537627D02*
X636729Y-6566198D01*
X636729Y-6566198D02*
X522443Y-6680484D01*
X522443Y-6680484D02*
X646253Y-6680484D01*
X770062Y-6480484D02*
X789110Y-6480484D01*
X789110Y-6480484D02*
X808158Y-6490008D01*
X808158Y-6490008D02*
X817682Y-6499531D01*
X817682Y-6499531D02*
X827205Y-6518579D01*
X827205Y-6518579D02*
X836729Y-6556674D01*
X836729Y-6556674D02*
X836729Y-6604293D01*
X836729Y-6604293D02*
X827205Y-6642388D01*
X827205Y-6642388D02*
X817682Y-6661436D01*
X817682Y-6661436D02*
X808158Y-6670960D01*
X808158Y-6670960D02*
X789110Y-6680484D01*
X789110Y-6680484D02*
X770062Y-6680484D01*
X770062Y-6680484D02*
X751015Y-6670960D01*
X751015Y-6670960D02*
X741491Y-6661436D01*
X741491Y-6661436D02*
X731967Y-6642388D01*
X731967Y-6642388D02*
X722443Y-6604293D01*
X722443Y-6604293D02*
X722443Y-6556674D01*
X722443Y-6556674D02*
X731967Y-6518579D01*
X731967Y-6518579D02*
X741491Y-6499531D01*
X741491Y-6499531D02*
X751015Y-6490008D01*
X751015Y-6490008D02*
X770062Y-6480484D01*
X960539Y-6480484D02*
X979586Y-6480484D01*
X979586Y-6480484D02*
X998634Y-6490008D01*
X998634Y-6490008D02*
X1008158Y-6499531D01*
X1008158Y-6499531D02*
X1017682Y-6518579D01*
X1017682Y-6518579D02*
X1027205Y-6556674D01*
X1027205Y-6556674D02*
X1027205Y-6604293D01*
X1027205Y-6604293D02*
X1017682Y-6642388D01*
X1017682Y-6642388D02*
X1008158Y-6661436D01*
X1008158Y-6661436D02*
X998634Y-6670960D01*
X998634Y-6670960D02*
X979586Y-6680484D01*
X979586Y-6680484D02*
X960539Y-6680484D01*
X960539Y-6680484D02*
X941491Y-6670960D01*
X941491Y-6670960D02*
X931967Y-6661436D01*
X931967Y-6661436D02*
X922443Y-6642388D01*
X922443Y-6642388D02*
X912920Y-6604293D01*
X912920Y-6604293D02*
X912920Y-6556674D01*
X912920Y-6556674D02*
X922443Y-6518579D01*
X922443Y-6518579D02*
X931967Y-6499531D01*
X931967Y-6499531D02*
X941491Y-6490008D01*
X941491Y-6490008D02*
X960539Y-6480484D01*
X1112920Y-6680484D02*
X1112920Y-6547150D01*
X1112920Y-6566198D02*
X1122444Y-6556674D01*
X1122444Y-6556674D02*
X1141491Y-6547150D01*
X1141491Y-6547150D02*
X1170063Y-6547150D01*
X1170063Y-6547150D02*
X1189110Y-6556674D01*
X1189110Y-6556674D02*
X1198634Y-6575722D01*
X1198634Y-6575722D02*
X1198634Y-6680484D01*
X1198634Y-6575722D02*
X1208158Y-6556674D01*
X1208158Y-6556674D02*
X1227205Y-6547150D01*
X1227205Y-6547150D02*
X1255777Y-6547150D01*
X1255777Y-6547150D02*
X1274825Y-6556674D01*
X1274825Y-6556674D02*
X1284348Y-6575722D01*
X1284348Y-6575722D02*
X1284348Y-6680484D01*
X1379586Y-6680484D02*
X1379586Y-6547150D01*
X1379586Y-6566198D02*
X1389110Y-6556674D01*
X1389110Y-6556674D02*
X1408158Y-6547150D01*
X1408158Y-6547150D02*
X1436729Y-6547150D01*
X1436729Y-6547150D02*
X1455777Y-6556674D01*
X1455777Y-6556674D02*
X1465301Y-6575722D01*
X1465301Y-6575722D02*
X1465301Y-6680484D01*
X1465301Y-6575722D02*
X1474824Y-6556674D01*
X1474824Y-6556674D02*
X1493872Y-6547150D01*
X1493872Y-6547150D02*
X1522443Y-6547150D01*
X1522443Y-6547150D02*
X1541491Y-6556674D01*
X1541491Y-6556674D02*
X1551015Y-6575722D01*
X1551015Y-6575722D02*
X1551015Y-6680484D01*
X1941491Y-6470960D02*
X1770063Y-6728103D01*
X2198634Y-6480484D02*
X2217682Y-6480484D01*
X2217682Y-6480484D02*
X2236729Y-6490008D01*
X2236729Y-6490008D02*
X2246253Y-6499531D01*
X2246253Y-6499531D02*
X2255777Y-6518579D01*
X2255777Y-6518579D02*
X2265301Y-6556674D01*
X2265301Y-6556674D02*
X2265301Y-6604293D01*
X2265301Y-6604293D02*
X2255777Y-6642388D01*
X2255777Y-6642388D02*
X2246253Y-6661436D01*
X2246253Y-6661436D02*
X2236729Y-6670960D01*
X2236729Y-6670960D02*
X2217682Y-6680484D01*
X2217682Y-6680484D02*
X2198634Y-6680484D01*
X2198634Y-6680484D02*
X2179587Y-6670960D01*
X2179587Y-6670960D02*
X2170063Y-6661436D01*
X2170063Y-6661436D02*
X2160539Y-6642388D01*
X2160539Y-6642388D02*
X2151015Y-6604293D01*
X2151015Y-6604293D02*
X2151015Y-6556674D01*
X2151015Y-6556674D02*
X2160539Y-6518579D01*
X2160539Y-6518579D02*
X2170063Y-6499531D01*
X2170063Y-6499531D02*
X2179587Y-6490008D01*
X2179587Y-6490008D02*
X2198634Y-6480484D01*
X2351015Y-6661436D02*
X2360539Y-6670960D01*
X2360539Y-6670960D02*
X2351015Y-6680484D01*
X2351015Y-6680484D02*
X2341491Y-6670960D01*
X2341491Y-6670960D02*
X2351015Y-6661436D01*
X2351015Y-6661436D02*
X2351015Y-6680484D01*
X2551015Y-6680484D02*
X2436729Y-6680484D01*
X2493872Y-6680484D02*
X2493872Y-6480484D01*
X2493872Y-6480484D02*
X2474825Y-6509055D01*
X2474825Y-6509055D02*
X2455777Y-6528103D01*
X2455777Y-6528103D02*
X2436729Y-6537627D01*
X2627206Y-6499531D02*
X2636729Y-6490008D01*
X2636729Y-6490008D02*
X2655777Y-6480484D01*
X2655777Y-6480484D02*
X2703396Y-6480484D01*
X2703396Y-6480484D02*
X2722444Y-6490008D01*
X2722444Y-6490008D02*
X2731968Y-6499531D01*
X2731968Y-6499531D02*
X2741491Y-6518579D01*
X2741491Y-6518579D02*
X2741491Y-6537627D01*
X2741491Y-6537627D02*
X2731968Y-6566198D01*
X2731968Y-6566198D02*
X2617682Y-6680484D01*
X2617682Y-6680484D02*
X2741491Y-6680484D01*
X2912920Y-6480484D02*
X2874825Y-6480484D01*
X2874825Y-6480484D02*
X2855777Y-6490008D01*
X2855777Y-6490008D02*
X2846253Y-6499531D01*
X2846253Y-6499531D02*
X2827206Y-6528103D01*
X2827206Y-6528103D02*
X2817682Y-6566198D01*
X2817682Y-6566198D02*
X2817682Y-6642388D01*
X2817682Y-6642388D02*
X2827206Y-6661436D01*
X2827206Y-6661436D02*
X2836729Y-6670960D01*
X2836729Y-6670960D02*
X2855777Y-6680484D01*
X2855777Y-6680484D02*
X2893872Y-6680484D01*
X2893872Y-6680484D02*
X2912920Y-6670960D01*
X2912920Y-6670960D02*
X2922444Y-6661436D01*
X2922444Y-6661436D02*
X2931967Y-6642388D01*
X2931967Y-6642388D02*
X2931967Y-6594769D01*
X2931967Y-6594769D02*
X2922444Y-6575722D01*
X2922444Y-6575722D02*
X2912920Y-6566198D01*
X2912920Y-6566198D02*
X2893872Y-6556674D01*
X2893872Y-6556674D02*
X2855777Y-6556674D01*
X2855777Y-6556674D02*
X2836729Y-6566198D01*
X2836729Y-6566198D02*
X2827206Y-6575722D01*
X2827206Y-6575722D02*
X2817682Y-6594769D01*
X3055777Y-6480484D02*
X3074825Y-6480484D01*
X3074825Y-6480484D02*
X3093872Y-6490008D01*
X3093872Y-6490008D02*
X3103396Y-6499531D01*
X3103396Y-6499531D02*
X3112920Y-6518579D01*
X3112920Y-6518579D02*
X3122444Y-6556674D01*
X3122444Y-6556674D02*
X3122444Y-6604293D01*
X3122444Y-6604293D02*
X3112920Y-6642388D01*
X3112920Y-6642388D02*
X3103396Y-6661436D01*
X3103396Y-6661436D02*
X3093872Y-6670960D01*
X3093872Y-6670960D02*
X3074825Y-6680484D01*
X3074825Y-6680484D02*
X3055777Y-6680484D01*
X3055777Y-6680484D02*
X3036729Y-6670960D01*
X3036729Y-6670960D02*
X3027206Y-6661436D01*
X3027206Y-6661436D02*
X3017682Y-6642388D01*
X3017682Y-6642388D02*
X3008158Y-6604293D01*
X3008158Y-6604293D02*
X3008158Y-6556674D01*
X3008158Y-6556674D02*
X3017682Y-6518579D01*
X3017682Y-6518579D02*
X3027206Y-6499531D01*
X3027206Y-6499531D02*
X3036729Y-6490008D01*
X3036729Y-6490008D02*
X3055777Y-6480484D01*
X3198634Y-6480484D02*
X3198634Y-6518579D01*
X3274825Y-6480484D02*
X3274825Y-6518579D01*
X3570063Y-6756674D02*
X3560539Y-6747150D01*
X3560539Y-6747150D02*
X3541491Y-6718579D01*
X3541491Y-6718579D02*
X3531968Y-6699531D01*
X3531968Y-6699531D02*
X3522444Y-6670960D01*
X3522444Y-6670960D02*
X3512920Y-6623341D01*
X3512920Y-6623341D02*
X3512920Y-6585246D01*
X3512920Y-6585246D02*
X3522444Y-6537627D01*
X3522444Y-6537627D02*
X3531968Y-6509055D01*
X3531968Y-6509055D02*
X3541491Y-6490008D01*
X3541491Y-6490008D02*
X3560539Y-6461436D01*
X3560539Y-6461436D02*
X3570063Y-6451912D01*
X3731968Y-6547150D02*
X3731968Y-6680484D01*
X3684348Y-6470960D02*
X3636729Y-6613817D01*
X3636729Y-6613817D02*
X3760539Y-6613817D01*
X3989110Y-6680484D02*
X3989110Y-6480484D01*
X4074825Y-6680484D02*
X4074825Y-6575722D01*
X4074825Y-6575722D02*
X4065301Y-6556674D01*
X4065301Y-6556674D02*
X4046253Y-6547150D01*
X4046253Y-6547150D02*
X4017682Y-6547150D01*
X4017682Y-6547150D02*
X3998634Y-6556674D01*
X3998634Y-6556674D02*
X3989110Y-6566198D01*
X4198634Y-6680484D02*
X4179587Y-6670960D01*
X4179587Y-6670960D02*
X4170063Y-6661436D01*
X4170063Y-6661436D02*
X4160539Y-6642388D01*
X4160539Y-6642388D02*
X4160539Y-6585246D01*
X4160539Y-6585246D02*
X4170063Y-6566198D01*
X4170063Y-6566198D02*
X4179587Y-6556674D01*
X4179587Y-6556674D02*
X4198634Y-6547150D01*
X4198634Y-6547150D02*
X4227206Y-6547150D01*
X4227206Y-6547150D02*
X4246253Y-6556674D01*
X4246253Y-6556674D02*
X4255777Y-6566198D01*
X4255777Y-6566198D02*
X4265301Y-6585246D01*
X4265301Y-6585246D02*
X4265301Y-6642388D01*
X4265301Y-6642388D02*
X4255777Y-6661436D01*
X4255777Y-6661436D02*
X4246253Y-6670960D01*
X4246253Y-6670960D02*
X4227206Y-6680484D01*
X4227206Y-6680484D02*
X4198634Y-6680484D01*
X4379587Y-6680484D02*
X4360539Y-6670960D01*
X4360539Y-6670960D02*
X4351015Y-6651912D01*
X4351015Y-6651912D02*
X4351015Y-6480484D01*
X4531968Y-6670960D02*
X4512920Y-6680484D01*
X4512920Y-6680484D02*
X4474825Y-6680484D01*
X4474825Y-6680484D02*
X4455777Y-6670960D01*
X4455777Y-6670960D02*
X4446253Y-6651912D01*
X4446253Y-6651912D02*
X4446253Y-6575722D01*
X4446253Y-6575722D02*
X4455777Y-6556674D01*
X4455777Y-6556674D02*
X4474825Y-6547150D01*
X4474825Y-6547150D02*
X4512920Y-6547150D01*
X4512920Y-6547150D02*
X4531968Y-6556674D01*
X4531968Y-6556674D02*
X4541492Y-6575722D01*
X4541492Y-6575722D02*
X4541492Y-6594769D01*
X4541492Y-6594769D02*
X4446253Y-6613817D01*
X4617682Y-6670960D02*
X4636730Y-6680484D01*
X4636730Y-6680484D02*
X4674825Y-6680484D01*
X4674825Y-6680484D02*
X4693873Y-6670960D01*
X4693873Y-6670960D02*
X4703396Y-6651912D01*
X4703396Y-6651912D02*
X4703396Y-6642388D01*
X4703396Y-6642388D02*
X4693873Y-6623341D01*
X4693873Y-6623341D02*
X4674825Y-6613817D01*
X4674825Y-6613817D02*
X4646253Y-6613817D01*
X4646253Y-6613817D02*
X4627206Y-6604293D01*
X4627206Y-6604293D02*
X4617682Y-6585246D01*
X4617682Y-6585246D02*
X4617682Y-6575722D01*
X4617682Y-6575722D02*
X4627206Y-6556674D01*
X4627206Y-6556674D02*
X4646253Y-6547150D01*
X4646253Y-6547150D02*
X4674825Y-6547150D01*
X4674825Y-6547150D02*
X4693873Y-6556674D01*
X4770063Y-6756674D02*
X4779587Y-6747150D01*
X4779587Y-6747150D02*
X4798634Y-6718579D01*
X4798634Y-6718579D02*
X4808158Y-6699531D01*
X4808158Y-6699531D02*
X4817682Y-6670960D01*
X4817682Y-6670960D02*
X4827206Y-6623341D01*
X4827206Y-6623341D02*
X4827206Y-6585246D01*
X4827206Y-6585246D02*
X4817682Y-6537627D01*
X4817682Y-6537627D02*
X4808158Y-6509055D01*
X4808158Y-6509055D02*
X4798634Y-6490008D01*
X4798634Y-6490008D02*
X4779587Y-6461436D01*
X4779587Y-6461436D02*
X4770063Y-6451912D01*
X5131968Y-6756674D02*
X5122444Y-6747150D01*
X5122444Y-6747150D02*
X5103396Y-6718579D01*
X5103396Y-6718579D02*
X5093873Y-6699531D01*
X5093873Y-6699531D02*
X5084349Y-6670960D01*
X5084349Y-6670960D02*
X5074825Y-6623341D01*
X5074825Y-6623341D02*
X5074825Y-6585246D01*
X5074825Y-6585246D02*
X5084349Y-6537627D01*
X5084349Y-6537627D02*
X5093873Y-6509055D01*
X5093873Y-6509055D02*
X5103396Y-6490008D01*
X5103396Y-6490008D02*
X5122444Y-6461436D01*
X5122444Y-6461436D02*
X5131968Y-6451912D01*
X5208158Y-6547150D02*
X5208158Y-6680484D01*
X5208158Y-6566198D02*
X5217682Y-6556674D01*
X5217682Y-6556674D02*
X5236730Y-6547150D01*
X5236730Y-6547150D02*
X5265301Y-6547150D01*
X5265301Y-6547150D02*
X5284349Y-6556674D01*
X5284349Y-6556674D02*
X5293873Y-6575722D01*
X5293873Y-6575722D02*
X5293873Y-6680484D01*
X5417682Y-6680484D02*
X5398634Y-6670960D01*
X5398634Y-6670960D02*
X5389111Y-6661436D01*
X5389111Y-6661436D02*
X5379587Y-6642388D01*
X5379587Y-6642388D02*
X5379587Y-6585246D01*
X5379587Y-6585246D02*
X5389111Y-6566198D01*
X5389111Y-6566198D02*
X5398634Y-6556674D01*
X5398634Y-6556674D02*
X5417682Y-6547150D01*
X5417682Y-6547150D02*
X5446254Y-6547150D01*
X5446254Y-6547150D02*
X5465301Y-6556674D01*
X5465301Y-6556674D02*
X5474825Y-6566198D01*
X5474825Y-6566198D02*
X5484349Y-6585246D01*
X5484349Y-6585246D02*
X5484349Y-6642388D01*
X5484349Y-6642388D02*
X5474825Y-6661436D01*
X5474825Y-6661436D02*
X5465301Y-6670960D01*
X5465301Y-6670960D02*
X5446254Y-6680484D01*
X5446254Y-6680484D02*
X5417682Y-6680484D01*
X5541492Y-6547150D02*
X5617682Y-6547150D01*
X5570063Y-6480484D02*
X5570063Y-6651912D01*
X5570063Y-6651912D02*
X5579587Y-6670960D01*
X5579587Y-6670960D02*
X5598634Y-6680484D01*
X5598634Y-6680484D02*
X5617682Y-6680484D01*
X5836730Y-6547150D02*
X5836730Y-6747150D01*
X5836730Y-6556674D02*
X5855777Y-6547150D01*
X5855777Y-6547150D02*
X5893873Y-6547150D01*
X5893873Y-6547150D02*
X5912920Y-6556674D01*
X5912920Y-6556674D02*
X5922444Y-6566198D01*
X5922444Y-6566198D02*
X5931968Y-6585246D01*
X5931968Y-6585246D02*
X5931968Y-6642388D01*
X5931968Y-6642388D02*
X5922444Y-6661436D01*
X5922444Y-6661436D02*
X5912920Y-6670960D01*
X5912920Y-6670960D02*
X5893873Y-6680484D01*
X5893873Y-6680484D02*
X5855777Y-6680484D01*
X5855777Y-6680484D02*
X5836730Y-6670960D01*
X6046253Y-6680484D02*
X6027206Y-6670960D01*
X6027206Y-6670960D02*
X6017682Y-6651912D01*
X6017682Y-6651912D02*
X6017682Y-6480484D01*
X6208158Y-6680484D02*
X6208158Y-6575722D01*
X6208158Y-6575722D02*
X6198634Y-6556674D01*
X6198634Y-6556674D02*
X6179587Y-6547150D01*
X6179587Y-6547150D02*
X6141492Y-6547150D01*
X6141492Y-6547150D02*
X6122444Y-6556674D01*
X6208158Y-6670960D02*
X6189111Y-6680484D01*
X6189111Y-6680484D02*
X6141492Y-6680484D01*
X6141492Y-6680484D02*
X6122444Y-6670960D01*
X6122444Y-6670960D02*
X6112920Y-6651912D01*
X6112920Y-6651912D02*
X6112920Y-6632865D01*
X6112920Y-6632865D02*
X6122444Y-6613817D01*
X6122444Y-6613817D02*
X6141492Y-6604293D01*
X6141492Y-6604293D02*
X6189111Y-6604293D01*
X6189111Y-6604293D02*
X6208158Y-6594769D01*
X6274825Y-6547150D02*
X6351015Y-6547150D01*
X6303396Y-6480484D02*
X6303396Y-6651912D01*
X6303396Y-6651912D02*
X6312920Y-6670960D01*
X6312920Y-6670960D02*
X6331968Y-6680484D01*
X6331968Y-6680484D02*
X6351015Y-6680484D01*
X6493873Y-6670960D02*
X6474825Y-6680484D01*
X6474825Y-6680484D02*
X6436730Y-6680484D01*
X6436730Y-6680484D02*
X6417682Y-6670960D01*
X6417682Y-6670960D02*
X6408158Y-6651912D01*
X6408158Y-6651912D02*
X6408158Y-6575722D01*
X6408158Y-6575722D02*
X6417682Y-6556674D01*
X6417682Y-6556674D02*
X6436730Y-6547150D01*
X6436730Y-6547150D02*
X6474825Y-6547150D01*
X6474825Y-6547150D02*
X6493873Y-6556674D01*
X6493873Y-6556674D02*
X6503396Y-6575722D01*
X6503396Y-6575722D02*
X6503396Y-6594769D01*
X6503396Y-6594769D02*
X6408158Y-6613817D01*
X6674825Y-6680484D02*
X6674825Y-6480484D01*
X6674825Y-6670960D02*
X6655777Y-6680484D01*
X6655777Y-6680484D02*
X6617682Y-6680484D01*
X6617682Y-6680484D02*
X6598634Y-6670960D01*
X6598634Y-6670960D02*
X6589111Y-6661436D01*
X6589111Y-6661436D02*
X6579587Y-6642388D01*
X6579587Y-6642388D02*
X6579587Y-6585246D01*
X6579587Y-6585246D02*
X6589111Y-6566198D01*
X6589111Y-6566198D02*
X6598634Y-6556674D01*
X6598634Y-6556674D02*
X6617682Y-6547150D01*
X6617682Y-6547150D02*
X6655777Y-6547150D01*
X6655777Y-6547150D02*
X6674825Y-6556674D01*
X6751015Y-6756674D02*
X6760539Y-6747150D01*
X6760539Y-6747150D02*
X6779587Y-6718579D01*
X6779587Y-6718579D02*
X6789111Y-6699531D01*
X6789111Y-6699531D02*
X6798634Y-6670960D01*
X6798634Y-6670960D02*
X6808158Y-6623341D01*
X6808158Y-6623341D02*
X6808158Y-6585246D01*
X6808158Y-6585246D02*
X6798634Y-6537627D01*
X6798634Y-6537627D02*
X6789111Y-6509055D01*
X6789111Y-6509055D02*
X6779587Y-6490008D01*
X6779587Y-6490008D02*
X6760539Y-6461436D01*
X6760539Y-6461436D02*
X6751015Y-6451912D01*
M02*
