G04 #@! TF.GenerationSoftware,KiCad,Pcbnew,10.0.4*
G04 #@! TF.CreationDate,2026-09-02T14:26:12+01:00*
G04 #@! TF.ProjectId,pl60c_dmx,706c3630-635f-4646-9d78-2e6b69636164,rev?*
G04 #@! TF.SameCoordinates,Original*
G04 #@! TF.FileFunction,Soldermask,Top*
G04 #@! TF.FilePolarity,Negative*
%FSLAX46Y46*%
G04 Gerber Fmt 4.6, Leading zero omitted, Abs format (unit mm)*
G04 Created by KiCad (PCBNEW 10.0.4) date 2026-09-02 14:26:12*
%MOMM*%
%LPD*%
G01*
G04 APERTURE LIST*
G04 Aperture macros list*
%AMRoundRect*
0 Rectangle with rounded corners*
0 $1 Rounding radius*
0 $2 $3 $4 $5 $6 $7 $8 $9 X,Y pos of 4 corners*
0 Add a 4 corners polygon primitive as box body*
4,1,4,$2,$3,$4,$5,$6,$7,$8,$9,$2,$3,0*
0 Add four circle primitives for the rounded corners*
1,1,$1+$1,$2,$3*
1,1,$1+$1,$4,$5*
1,1,$1+$1,$6,$7*
1,1,$1+$1,$8,$9*
0 Add four rect primitives between the rounded corners*
20,1,$1+$1,$2,$3,$4,$5,0*
20,1,$1+$1,$4,$5,$6,$7,0*
20,1,$1+$1,$6,$7,$8,$9,0*
20,1,$1+$1,$8,$9,$2,$3,0*%
G04 Aperture macros list end*
%ADD10RoundRect,0.250000X-0.250000X-0.475000X0.250000X-0.475000X0.250000X0.475000X-0.250000X0.475000X0*%
%ADD11RoundRect,0.225000X-0.225000X-0.250000X0.225000X-0.250000X0.225000X0.250000X-0.225000X0.250000X0*%
%ADD12R,1.700000X1.700000*%
%ADD13C,1.700000*%
%ADD14RoundRect,0.090000X-0.660000X-0.360000X0.660000X-0.360000X0.660000X0.360000X-0.660000X0.360000X0*%
%ADD15C,1.600000*%
%ADD16C,3.400000*%
%ADD17C,2.900000*%
%ADD18RoundRect,0.225000X0.250000X-0.225000X0.250000X0.225000X-0.250000X0.225000X-0.250000X-0.225000X0*%
%ADD19RoundRect,0.250000X-1.049999X-1.049999X1.049999X-1.049999X1.049999X1.049999X-1.049999X1.049999X0*%
%ADD20C,2.599999*%
%ADD21RoundRect,0.200000X-0.200000X-0.275000X0.200000X-0.275000X0.200000X0.275000X-0.200000X0.275000X0*%
%ADD22C,0.650000*%
%ADD23RoundRect,0.150000X-0.575000X0.150000X-0.575000X-0.150000X0.575000X-0.150000X0.575000X0.150000X0*%
%ADD24RoundRect,0.075000X-0.650000X0.075000X-0.650000X-0.075000X0.650000X-0.075000X0.650000X0.075000X0*%
%ADD25O,2.100000X1.000000*%
%ADD26O,1.600000X1.000000*%
%ADD27RoundRect,0.375000X-0.625000X-0.375000X0.625000X-0.375000X0.625000X0.375000X-0.625000X0.375000X0*%
%ADD28RoundRect,0.500000X-0.500000X-1.400000X0.500000X-1.400000X0.500000X1.400000X-0.500000X1.400000X0*%
%ADD29RoundRect,0.150000X-0.587500X-0.150000X0.587500X-0.150000X0.587500X0.150000X-0.587500X0.150000X0*%
%ADD30R,2.500000X2.500000*%
%ADD31R,1.500000X0.900000*%
%ADD32R,0.900000X1.500000*%
%ADD33C,0.600000*%
%ADD34R,3.900000X3.900000*%
%ADD35RoundRect,0.250000X-0.375000X-0.625000X0.375000X-0.625000X0.375000X0.625000X-0.375000X0.625000X0*%
%ADD36RoundRect,0.150000X-0.825000X-0.150000X0.825000X-0.150000X0.825000X0.150000X-0.825000X0.150000X0*%
%ADD37C,3.200000*%
%ADD38R,1.800000X1.100000*%
%ADD39RoundRect,0.225000X-0.225000X-0.375000X0.225000X-0.375000X0.225000X0.375000X-0.225000X0.375000X0*%
%ADD40RoundRect,0.150000X0.150000X-0.512500X0.150000X0.512500X-0.150000X0.512500X-0.150000X-0.512500X0*%
%ADD41RoundRect,0.200000X0.275000X-0.200000X0.275000X0.200000X-0.275000X0.200000X-0.275000X-0.200000X0*%
G04 APERTURE END LIST*
D10*
X16550000Y-3500000D03*
X18450000Y-3500000D03*
D11*
X47225000Y-7000000D03*
X48775000Y-7000000D03*
D12*
X43000000Y-22000000D03*
D13*
X43000000Y-24540000D03*
X43000000Y-27080000D03*
X43000000Y-29620000D03*
X43000000Y-32160000D03*
X43000000Y-34700000D03*
D14*
X41050000Y-46850000D03*
X41050000Y-50150000D03*
X45950000Y-50150000D03*
X45950000Y-46850000D03*
D11*
X13225000Y-21000000D03*
X14775000Y-21000000D03*
D15*
X71110000Y-24120000D03*
X76190000Y-16500000D03*
D16*
X62850000Y-16500000D03*
D17*
X66665000Y-20310000D03*
X62850000Y-20310000D03*
X66665000Y-27290000D03*
D16*
X62850000Y-24120000D03*
D17*
X73020000Y-12060000D03*
D12*
X47500000Y-22000000D03*
D13*
X47500000Y-24540000D03*
X47500000Y-27080000D03*
X47500000Y-29620000D03*
D18*
X18000000Y-7775000D03*
X18000000Y-6225000D03*
D19*
X50500000Y-48500000D03*
D20*
X55580000Y-48500000D03*
X60660000Y-48500000D03*
D21*
X43175000Y-17000000D03*
X44825000Y-17000000D03*
D11*
X38225000Y-43500000D03*
X39775000Y-43500000D03*
D22*
X5700000Y-28110000D03*
X5700000Y-33890000D03*
D23*
X7145000Y-27750000D03*
X7145000Y-28550000D03*
D24*
X7145000Y-29750000D03*
X7145000Y-30750000D03*
X7145000Y-31250000D03*
X7145000Y-32250000D03*
D23*
X7145000Y-33450000D03*
X7145000Y-34250000D03*
X7145000Y-34250000D03*
X7145000Y-33450000D03*
D24*
X7145000Y-32750000D03*
X7145000Y-31750000D03*
X7145000Y-30250000D03*
X7145000Y-29250000D03*
D23*
X7145000Y-28550000D03*
X7145000Y-27750000D03*
D25*
X6230000Y-26680000D03*
D26*
X2050000Y-26680000D03*
D25*
X6230000Y-35320000D03*
D26*
X2050000Y-35320000D03*
D21*
X53175000Y-24000000D03*
X54825000Y-24000000D03*
X9675000Y-42500000D03*
X11325000Y-42500000D03*
X33675000Y-42500000D03*
X35325000Y-42500000D03*
D10*
X14050000Y-42500000D03*
X15950000Y-42500000D03*
D27*
X8850000Y-12700000D03*
X8850000Y-15000000D03*
D28*
X15150000Y-15000000D03*
D27*
X8850000Y-17300000D03*
D29*
X54062500Y-36050000D03*
X54062500Y-37950000D03*
X55937500Y-37000000D03*
D30*
X65500000Y-38000000D03*
X65500000Y-45000000D03*
X72500000Y-45000000D03*
X72500000Y-38000000D03*
D31*
X21250000Y-1490000D03*
X21250000Y-2760000D03*
X21250000Y-4030000D03*
X21250000Y-5300000D03*
X21250000Y-6570000D03*
X21250000Y-7840000D03*
X21250000Y-9110000D03*
X21250000Y-10380000D03*
X21250000Y-11650000D03*
X21250000Y-12920000D03*
X21250000Y-14190000D03*
X21250000Y-15460000D03*
X21250000Y-16730000D03*
X21250000Y-18000000D03*
D32*
X23015000Y-19250000D03*
X24285000Y-19250000D03*
X25555000Y-19250000D03*
X26825000Y-19250000D03*
X28095000Y-19250000D03*
X29365000Y-19250000D03*
X30635000Y-19250000D03*
X31905000Y-19250000D03*
X33175000Y-19250000D03*
X34445000Y-19250000D03*
X35715000Y-19250000D03*
X36985000Y-19250000D03*
D31*
X38750000Y-18000000D03*
X38750000Y-16730000D03*
X38750000Y-15460000D03*
X38750000Y-14190000D03*
X38750000Y-12920000D03*
X38750000Y-11650000D03*
X38750000Y-10380000D03*
X38750000Y-9110000D03*
X38750000Y-7840000D03*
X38750000Y-6570000D03*
X38750000Y-5300000D03*
X38750000Y-4030000D03*
X38750000Y-2760000D03*
X38750000Y-1490000D03*
D33*
X27100000Y-8510000D03*
X27100000Y-9910000D03*
X27800000Y-7810000D03*
X27800000Y-9210000D03*
X27800000Y-10610000D03*
X28500000Y-8510000D03*
D34*
X28500000Y-9210000D03*
D33*
X28500000Y-9910000D03*
X29200000Y-7810000D03*
X29200000Y-9210000D03*
X29200000Y-10610000D03*
X29900000Y-8510000D03*
X29900000Y-9910000D03*
D29*
X53062500Y-19050000D03*
X53062500Y-20950000D03*
X54937500Y-20000000D03*
D35*
X10600000Y-6000000D03*
X13400000Y-6000000D03*
D36*
X45525000Y-10095000D03*
X45525000Y-11365000D03*
X45525000Y-12635000D03*
X45525000Y-13905000D03*
X50475000Y-13905000D03*
X50475000Y-12635000D03*
X50475000Y-11365000D03*
X50475000Y-10095000D03*
D37*
X76500000Y-50500000D03*
D38*
X31400000Y-46150000D03*
X37600000Y-46150000D03*
X31400000Y-49850000D03*
X37600000Y-49850000D03*
X9400000Y-46150000D03*
X15600000Y-46150000D03*
X9400000Y-49850000D03*
X15600000Y-49850000D03*
D21*
X22675000Y-42500000D03*
X24325000Y-42500000D03*
D37*
X3500000Y-3500000D03*
D10*
X8050000Y-21000000D03*
X9950000Y-21000000D03*
D39*
X57850000Y-37000000D03*
X61150000Y-37000000D03*
D40*
X15550000Y-32137500D03*
X16500000Y-32137500D03*
X17450000Y-32137500D03*
X17450000Y-29862500D03*
X16500000Y-29862500D03*
X15550000Y-29862500D03*
D21*
X49675000Y-37000000D03*
X51325000Y-37000000D03*
D41*
X14000000Y-36825000D03*
X14000000Y-35175000D03*
D37*
X76500000Y-3500000D03*
D21*
X42675000Y-43500000D03*
X44325000Y-43500000D03*
D10*
X11050000Y-9500000D03*
X12950000Y-9500000D03*
D41*
X14000000Y-26825000D03*
X14000000Y-25175000D03*
D37*
X3500000Y-50500000D03*
D38*
X20400000Y-46150000D03*
X26600000Y-46150000D03*
X20400000Y-49850000D03*
X26600000Y-49850000D03*
M02*
