M48
; DRILL file KiCad 10.0.4 date 2026-09-02T14:46:23
; FORMAT={-:-/ absolute / metric / decimal}
; #@! TF.CreationDate,2026-09-02T14:46:23+01:00
; #@! TF.GenerationSoftware,Kicad,Pcbnew,10.0.4
; #@! TF.FileFunction,Plated,1,2,PTH
FMAT,2
METRIC
; #@! TA.AperFunction,Plated,PTH,ViaDrill
T1C0.300
; #@! TA.AperFunction,Plated,PTH,ComponentDrill
T2C0.300
; #@! TA.AperFunction,Plated,PTH,ViaDrill
T3C0.350
; #@! TA.AperFunction,Plated,PTH,ViaDrill
T4C0.400
; #@! TA.AperFunction,Plated,PTH,ComponentDrill
T5C0.600
; #@! TA.AperFunction,Plated,PTH,ComponentDrill
T6C1.000
; #@! TA.AperFunction,Plated,PTH,ComponentDrill
T7C1.200
; #@! TA.AperFunction,Plated,PTH,ComponentDrill
T8C1.400
; #@! TA.AperFunction,Plated,PTH,ComponentDrill
T9C1.600
%
G90
G05
T1
X9.434Y-29.705
X9.69Y-7.203
X10.974Y-33.036
X12.314Y-26.825
X12.961Y-36.825
X14.72Y-31.306
X16.756Y-41.442
X18.303Y-32.137
X19.948Y-4.952
X19.967Y-16.73
X20.193Y-18.92
X22.533Y-6.57
X22.536Y-7.84
X22.966Y-14.19
X22.966Y-15.335
X23.758Y-12.663
X25.404Y-11.394
X25.94Y-42.5
X27.063Y-20.544
X28.095Y-20.564
X29.03Y-26.166
X33.58Y-46.15
X37.314Y-25.225
X39.807Y-18.928
X40.033Y-5.3
X40.033Y-6.57
X41.094Y-10.491
X43.175Y-14.603
X46.358Y-14.738
X48.87Y-36.195
X51.854Y-11.961
X52.215Y-21.798
X54.761Y-21.266
T2
X27.1Y-8.51
X27.1Y-9.91
X27.8Y-7.81
X27.8Y-9.21
X27.8Y-10.61
X28.5Y-8.51
X28.5Y-9.91
X29.2Y-7.81
X29.2Y-9.21
X29.2Y-10.61
X29.9Y-8.51
X29.9Y-9.91
T3
X4.745Y-30.25
X5.0Y-10.0
X5.0Y-15.0
X5.0Y-25.0
X5.0Y-40.0
X5.0Y-45.0
X7.1Y-12.7
X7.75Y-49.85
X10.0Y-25.0
X10.0Y-50.0
X11.2Y-21.0
X11.545Y-32.35
X12.545Y-27.85
X12.545Y-34.15
X14.0Y-24.025
X14.0Y-34.025
X14.2Y-9.5
X15.0Y-10.0
X15.0Y-50.0
X15.975Y-21.0
X16.5Y-33.55
X17.2Y-42.5
X17.25Y-49.85
X18.0Y-5.025
X18.75Y-49.85
X19.7Y-3.5
X20.0Y-25.0
X20.0Y-35.0
X20.0Y-40.0
X20.0Y-50.0
X25.0Y-5.0
X25.0Y-15.0
X25.0Y-25.0
X25.0Y-30.0
X25.0Y-35.0
X25.0Y-50.0
X28.25Y-49.85
X29.75Y-49.85
X30.0Y-15.0
X30.0Y-25.0
X30.0Y-30.0
X30.0Y-35.0
X30.0Y-40.0
X35.0Y-5.0
X35.0Y-10.0
X35.0Y-15.0
X35.0Y-25.0
X35.0Y-30.0
X35.0Y-35.0
X35.0Y-50.0
X39.25Y-49.85
X40.0Y-40.0
X40.975Y-43.5
X41.485Y-49.05
X45.0Y-40.0
X45.975Y-17.0
X49.975Y-7.0
X50.0Y-5.0
X50.0Y-45.0
X52.2Y-13.905
X54.062Y-39.0
X55.0Y-5.0
X55.0Y-10.0
X55.0Y-15.0
X55.0Y-30.0
X56.425Y-20.0
X60.0Y-5.0
X60.0Y-10.0
X60.0Y-15.0
X60.0Y-30.0
X65.0Y-5.0
X65.0Y-10.0
X65.0Y-15.0
X65.0Y-50.0
X70.0Y-5.0
X70.0Y-50.0
X75.0Y-20.0
X75.0Y-25.0
X75.0Y-30.0
T4
X7.145Y-36.404
X10.048Y-10.502
X10.487Y-17.3
X16.073Y-24.099
X19.854Y-2.534
X21.622Y-42.244
X34.58Y-41.597
X44.98Y-36.195
X45.374Y-47.95
X49.375Y-9.149
X49.477Y-39.44
T6
X43.0Y-22.0
X43.0Y-24.54
X43.0Y-27.08
X43.0Y-29.62
X43.0Y-32.16
X43.0Y-34.7
X47.5Y-22.0
X47.5Y-24.54
X47.5Y-27.08
X47.5Y-29.62
T7
X62.85Y-20.31
X66.665Y-20.31
X66.665Y-27.29
X73.02Y-12.06
T8
X50.5Y-48.5
X55.58Y-48.5
X60.66Y-48.5
T9
X62.85Y-16.5
X62.85Y-24.12
T5
X2.35Y-26.68G85X1.75Y-26.68
G05
X2.35Y-35.32G85X1.75Y-35.32
G05
X6.78Y-26.68G85X5.68Y-26.68
G05
X6.78Y-35.32G85X5.68Y-35.32
G05
M30
