M48
; DRILL file KiCad 10.0.4 date 2026-09-02T13:27:16
; FORMAT={-:-/ absolute / metric / decimal}
; #@! TF.CreationDate,2026-09-02T13:27:16+01:00
; #@! TF.GenerationSoftware,Kicad,Pcbnew,10.0.4
; #@! TF.FileFunction,Plated,1,2,PTH
FMAT,2
METRIC
; #@! TA.AperFunction,Plated,PTH,ComponentDrill
T1C0.300
; #@! TA.AperFunction,Plated,PTH,ViaDrill
T2C0.350
; #@! TA.AperFunction,Plated,PTH,ViaDrill
T3C0.400
; #@! TA.AperFunction,Plated,PTH,ComponentDrill
T4C0.600
; #@! TA.AperFunction,Plated,PTH,ComponentDrill
T5C1.000
; #@! TA.AperFunction,Plated,PTH,ComponentDrill
T6C1.200
; #@! TA.AperFunction,Plated,PTH,ComponentDrill
T7C1.400
; #@! TA.AperFunction,Plated,PTH,ComponentDrill
T8C1.600
%
G90
G05
T1
X27.1Y-8.51
X27.1Y-9.91
X27.8Y-7.81
X27.8Y-9.21
X27.8Y-10.61
X28.5Y-8.51
X28.5Y-9.91
X29.2Y-7.81
X29.2Y-9.21
X29.2Y-10.61
X29.9Y-8.51
X29.9Y-9.91
T2
X4.745Y-30.25
X5.174Y-32.844
X9.432Y-29.705
X11.345Y-32.35
X11.566Y-27.571
X11.654Y-7.054
X12.545Y-28.55
X12.545Y-33.45
X12.952Y-36.561
X14.504Y-30.898
X15.569Y-41.092
X18.29Y-29.862
X19.967Y-16.73
X20.193Y-18.92
X22.532Y-3.847
X22.533Y-6.57
X22.533Y-7.84
X22.533Y-15.46
X24.231Y-11.65
X25.874Y-42.5
X27.063Y-20.544
X31.29Y-20.539
X33.58Y-46.15
X35.715Y-20.536
X35.797Y-14.19
X37.463Y-12.92
X37.979Y-19.343
X40.063Y-10.603
X41.042Y-5.557
X41.307Y-6.827
X41.895Y-42.72
X43.177Y-14.599
X43.936Y-15.089
X48.909Y-36.234
X52.928Y-11.864
T3
X5.0Y-10.0
X5.0Y-15.0
X5.0Y-25.0
X5.0Y-40.0
X5.0Y-45.0
X7.1Y-12.7
X7.75Y-49.85
X10.0Y-25.0
X10.0Y-50.0
X11.2Y-21.0
X14.0Y-24.025
X14.0Y-34.025
X14.2Y-9.5
X15.0Y-10.0
X15.0Y-50.0
X15.975Y-21.0
X16.5Y-33.55
X17.2Y-42.5
X17.25Y-49.85
X18.0Y-5.025
X18.75Y-49.85
X19.7Y-3.5
X19.842Y-2.509
X20.0Y-25.0
X20.0Y-35.0
X20.0Y-40.0
X20.0Y-50.0
X25.0Y-5.0
X25.0Y-15.0
X25.0Y-25.0
X25.0Y-30.0
X25.0Y-35.0
X25.0Y-50.0
X28.25Y-49.85
X29.75Y-49.85
X30.0Y-15.0
X30.0Y-25.0
X30.0Y-30.0
X30.0Y-35.0
X30.0Y-40.0
X35.0Y-5.0
X35.0Y-10.0
X35.0Y-15.0
X35.0Y-25.0
X35.0Y-30.0
X35.0Y-35.0
X35.0Y-50.0
X39.25Y-49.85
X40.0Y-40.0
X40.975Y-43.5
X41.517Y-45.111
X45.0Y-40.0
X45.0Y-50.0
X45.975Y-17.0
X47.45Y-50.15
X48.898Y-10.634
X49.975Y-7.0
X50.0Y-5.0
X50.0Y-45.0
X52.2Y-13.905
X54.062Y-35.0
X55.0Y-5.0
X55.0Y-10.0
X55.0Y-15.0
X55.0Y-30.0
X56.425Y-20.0
X56.94Y-36.09
X60.0Y-5.0
X60.0Y-10.0
X60.0Y-15.0
X60.0Y-30.0
X62.033Y-37.807
X65.0Y-5.0
X65.0Y-10.0
X65.0Y-15.0
X65.0Y-50.0
X70.0Y-5.0
X70.0Y-50.0
X75.0Y-20.0
X75.0Y-25.0
X75.0Y-30.0
T5
X43.0Y-22.0
X43.0Y-24.54
X43.0Y-27.08
X43.0Y-29.62
X43.0Y-32.16
X43.0Y-34.7
X47.5Y-22.0
X47.5Y-24.54
X47.5Y-27.08
X47.5Y-29.62
T6
X62.85Y-20.31
X66.665Y-20.31
X66.665Y-27.29
X73.02Y-12.06
T7
X50.5Y-48.5
X55.58Y-48.5
X60.66Y-48.5
T8
X62.85Y-16.5
X62.85Y-24.12
T4
X2.35Y-26.68G85X1.75Y-26.68
G05
X2.35Y-35.32G85X1.75Y-35.32
G05
X6.78Y-26.68G85X5.68Y-26.68
G05
X6.78Y-35.32G85X5.68Y-35.32
G05
M30
