G04 #@! TF.GenerationSoftware,KiCad,Pcbnew,10.0.4*
G04 #@! TF.CreationDate,2026-09-02T13:20:21+01:00*
G04 #@! TF.ProjectId,pl60c_dmx,706c3630-635f-4646-9d78-2e6b69636164,rev?*
G04 #@! TF.SameCoordinates,Original*
G04 #@! TF.FileFunction,Copper,L2,Bot*
G04 #@! TF.FilePolarity,Positive*
%FSLAX46Y46*%
G04 Gerber Fmt 4.6, Leading zero omitted, Abs format (unit mm)*
G04 Created by KiCad (PCBNEW 10.0.4) date 2026-09-02 13:20:21*
%MOMM*%
%LPD*%
G01*
G04 APERTURE LIST*
G04 Aperture macros list*
%AMRoundRect*
0 Rectangle with rounded corners*
0 $1 Rounding radius*
0 $2 $3 $4 $5 $6 $7 $8 $9 X,Y pos of 4 corners*
0 Add a 4 corners polygon primitive as box body*
4,1,4,$2,$3,$4,$5,$6,$7,$8,$9,$2,$3,0*
0 Add four circle primitives for the rounded corners*
1,1,$1+$1,$2,$3*
1,1,$1+$1,$4,$5*
1,1,$1+$1,$6,$7*
1,1,$1+$1,$8,$9*
0 Add four rect primitives between the rounded corners*
20,1,$1+$1,$2,$3,$4,$5,0*
20,1,$1+$1,$4,$5,$6,$7,0*
20,1,$1+$1,$6,$7,$8,$9,0*
20,1,$1+$1,$8,$9,$2,$3,0*%
G04 Aperture macros list end*
G04 #@! TA.AperFunction,ComponentPad*
%ADD10RoundRect,0.250000X-1.049999X-1.049999X1.049999X-1.049999X1.049999X1.049999X-1.049999X1.049999X0*%
G04 #@! TD*
G04 #@! TA.AperFunction,ComponentPad*
%ADD11C,2.599999*%
G04 #@! TD*
G04 #@! TA.AperFunction,ComponentPad*
%ADD12C,3.400000*%
G04 #@! TD*
G04 #@! TA.AperFunction,ComponentPad*
%ADD13C,2.900000*%
G04 #@! TD*
G04 #@! TA.AperFunction,HeatsinkPad*
%ADD14C,0.600000*%
G04 #@! TD*
G04 #@! TA.AperFunction,ComponentPad*
%ADD15R,1.700000X1.700000*%
G04 #@! TD*
G04 #@! TA.AperFunction,ComponentPad*
%ADD16C,1.700000*%
G04 #@! TD*
G04 #@! TA.AperFunction,ComponentPad*
%ADD17O,2.100000X1.000000*%
G04 #@! TD*
G04 #@! TA.AperFunction,ComponentPad*
%ADD18O,1.600000X1.000000*%
G04 #@! TD*
G04 #@! TA.AperFunction,ViaPad*
%ADD19C,0.700000*%
G04 #@! TD*
G04 #@! TA.AperFunction,ViaPad*
%ADD20C,0.800000*%
G04 #@! TD*
G04 #@! TA.AperFunction,Conductor*
%ADD21C,0.400000*%
G04 #@! TD*
G04 #@! TA.AperFunction,Conductor*
%ADD22C,0.250000*%
G04 #@! TD*
G04 APERTURE END LIST*
D10*
X50500000Y-48500000D03*
D11*
X55580000Y-48500000D03*
X60660000Y-48500000D03*
D12*
X62850000Y-16500000D03*
D13*
X66665000Y-20310000D03*
X62850000Y-20310000D03*
X66665000Y-27290000D03*
D12*
X62850000Y-24120000D03*
D13*
X73020000Y-12060000D03*
D14*
X27100000Y-8510000D03*
X27100000Y-9910000D03*
X27800000Y-7810000D03*
X27800000Y-9210000D03*
X27800000Y-10610000D03*
X28500000Y-8510000D03*
X28500000Y-9910000D03*
X29200000Y-7810000D03*
X29200000Y-9210000D03*
X29200000Y-10610000D03*
X29900000Y-8510000D03*
X29900000Y-9910000D03*
D15*
X43000000Y-22000000D03*
D16*
X43000000Y-24540000D03*
X43000000Y-27080000D03*
X43000000Y-29620000D03*
X43000000Y-32160000D03*
X43000000Y-34700000D03*
D15*
X47500000Y-22000000D03*
D16*
X47500000Y-24540000D03*
X47500000Y-27080000D03*
X47500000Y-29620000D03*
D17*
X6230000Y-26680000D03*
D18*
X2050000Y-26680000D03*
D17*
X6230000Y-35320000D03*
D18*
X2050000Y-35320000D03*
D19*
X62032600Y-37806800D03*
D20*
X56939900Y-36089900D03*
D19*
X22651900Y-7840000D03*
X48514400Y-36234400D03*
X52011000Y-21918700D03*
X51829100Y-11952500D03*
X54362100Y-21287800D03*
D20*
X48898200Y-10634200D03*
X48358600Y-35008500D03*
D19*
X33580000Y-46150000D03*
X22532800Y-6570000D03*
X20000000Y-50000000D03*
X30000000Y-35000000D03*
X7100000Y-12700000D03*
X65000000Y-5000000D03*
X5000000Y-10000000D03*
X35000000Y-35000000D03*
X65000000Y-15000000D03*
X11200000Y-21000000D03*
X20000000Y-25000000D03*
X5000000Y-45000000D03*
X25000000Y-25000000D03*
X35000000Y-15000000D03*
X45975000Y-17000000D03*
X15000000Y-50000000D03*
X17200000Y-42500000D03*
X70000000Y-50000000D03*
X55000000Y-10000000D03*
X60000000Y-15000000D03*
X75000000Y-30000000D03*
X60000000Y-5000000D03*
X10000000Y-25000000D03*
X10000000Y-50000000D03*
X75000000Y-20000000D03*
X35000000Y-30000000D03*
X52200000Y-13905000D03*
X75000000Y-25000000D03*
X55000000Y-5000000D03*
X19700000Y-3500000D03*
X45000000Y-40000000D03*
X55000000Y-30000000D03*
X30000000Y-40000000D03*
X60000000Y-30000000D03*
X17250000Y-49850000D03*
X25000000Y-30000000D03*
X65000000Y-10000000D03*
X60000000Y-10000000D03*
X25000000Y-50000000D03*
X54062500Y-35000000D03*
X15000000Y-10000000D03*
X35000000Y-10000000D03*
X15975000Y-21000000D03*
X50000000Y-45000000D03*
X5000000Y-25000000D03*
X5000000Y-15000000D03*
X40000000Y-40000000D03*
X18000000Y-5025000D03*
X35000000Y-5000000D03*
X40975000Y-43500000D03*
X39250000Y-49850000D03*
X25000000Y-15000000D03*
X20000000Y-40000000D03*
X30000000Y-30000000D03*
X56425000Y-20000000D03*
X28250000Y-49850000D03*
X18750000Y-49850000D03*
X14200000Y-9500000D03*
X50000000Y-5000000D03*
X25000000Y-5000000D03*
X35000000Y-50000000D03*
X70000000Y-5000000D03*
X30000000Y-15000000D03*
X45000000Y-50000000D03*
X7750000Y-49850000D03*
X5000000Y-40000000D03*
X20000000Y-35000000D03*
X65000000Y-50000000D03*
X16500000Y-33550000D03*
X47450000Y-50150000D03*
X14000000Y-24025000D03*
X35000000Y-25000000D03*
X49975000Y-7000000D03*
X30000000Y-25000000D03*
X14000000Y-34025000D03*
X55000000Y-15000000D03*
X29750000Y-49850000D03*
X25000000Y-35000000D03*
X22531700Y-3847400D03*
X15591500Y-38932900D03*
X13237100Y-36062100D03*
X5179300Y-32844200D03*
X22531700Y-11650000D03*
X40034800Y-17053700D03*
X44676300Y-14753700D03*
X24830900Y-12662600D03*
X35790700Y-13932600D03*
X44013400Y-10491200D03*
X22532800Y-15460000D03*
X14503700Y-31261500D03*
X19967200Y-16730000D03*
X18290100Y-29862500D03*
X20193300Y-18920000D03*
X11344999Y-32350000D03*
X4744999Y-30250000D03*
X25789700Y-20541400D03*
X27062600Y-20544300D03*
X31289700Y-20539200D03*
X35715000Y-20535800D03*
X41894900Y-42719900D03*
X25267500Y-42500000D03*
X27411600Y-17942600D03*
X40032800Y-6570000D03*
X40032800Y-5300000D03*
X12545000Y-28550000D03*
X9690400Y-7202900D03*
X12545000Y-33450000D03*
X12563400Y-27602900D03*
X10445000Y-29750000D03*
D21*
X58656800Y-37806800D02*
X56939900Y-36089900D01*
X62032600Y-37806800D02*
X58656800Y-37806800D01*
D22*
X44395400Y-26772600D02*
X44395400Y-28149000D01*
X44395400Y-28149000D02*
X45753100Y-29506700D01*
X45753100Y-33473100D02*
X48514400Y-36234400D01*
X22651900Y-7840000D02*
X24117500Y-9305600D01*
X42574300Y-25835000D02*
X43457800Y-25835000D01*
X24117500Y-12946800D02*
X27356100Y-16185400D01*
X40119700Y-16185400D02*
X40734800Y-16800500D01*
X43457800Y-25835000D02*
X44395400Y-26772600D01*
X40734800Y-16800500D02*
X40734800Y-23995500D01*
X24117500Y-9305600D02*
X24117500Y-12946800D01*
X40734800Y-23995500D02*
X42574300Y-25835000D01*
X45753100Y-29506700D02*
X45753100Y-33473100D01*
X27356100Y-16185400D02*
X40119700Y-16185400D01*
X52011000Y-21918700D02*
X52011000Y-39851000D01*
X52011000Y-39851000D02*
X60660000Y-48500000D01*
X53005800Y-19931400D02*
X54362100Y-21287800D01*
X51352700Y-44272700D02*
X51352700Y-21584500D01*
X55580000Y-48500000D02*
X51352700Y-44272700D01*
X52962000Y-13085400D02*
X52962000Y-19887700D01*
X52962000Y-19887700D02*
X53005800Y-19931400D01*
X51829100Y-11952500D02*
X52962000Y-13085400D01*
X51352700Y-21584500D02*
X53005800Y-19931400D01*
D21*
X48791400Y-23291400D02*
X47500000Y-22000000D01*
X48791400Y-34575700D02*
X48791400Y-23291400D01*
X48358600Y-35008500D02*
X48791400Y-34575700D01*
X47500000Y-20718300D02*
X48898200Y-19320100D01*
X48898200Y-19320100D02*
X48898200Y-10634200D01*
X47500000Y-22000000D02*
X47500000Y-20718300D01*
D22*
X33580000Y-46150000D02*
X27983500Y-46150000D01*
X21869000Y-7233800D02*
X22532800Y-6570000D01*
X27983500Y-46150000D02*
X21869000Y-40035500D01*
X21869000Y-40035500D02*
X21869000Y-7233800D01*
D21*
X29900000Y-8510000D02*
X29200000Y-7810000D01*
X35000000Y-5000000D02*
X35000000Y-10000000D01*
X45975000Y-23015000D02*
X45975000Y-17000000D01*
X17652000Y-42500000D02*
X20000000Y-40152000D01*
X30000000Y-15000000D02*
X29200000Y-14200000D01*
X40975000Y-48125000D02*
X39250000Y-49850000D01*
X55000000Y-5000000D02*
X55000000Y-10000000D01*
X7100000Y-12700000D02*
X5000000Y-14800000D01*
X4748300Y-25251700D02*
X4748300Y-26680000D01*
X28500000Y-9910000D02*
X27800000Y-9210000D01*
X55000000Y-30000000D02*
X56425000Y-28575000D01*
X7750000Y-49850000D02*
X5000000Y-47100000D01*
X11200000Y-21000000D02*
X10000000Y-22200000D01*
X4748300Y-39748300D02*
X4748300Y-35320000D01*
X42850000Y-50000000D02*
X40975000Y-48125000D01*
X55000000Y-18575000D02*
X55000000Y-15000000D01*
X55000000Y-15000000D02*
X55000000Y-10000000D01*
X45000000Y-50000000D02*
X42850000Y-50000000D01*
X14200000Y-9500000D02*
X15000000Y-9500000D01*
X19700000Y-3500000D02*
X19525000Y-3500000D01*
X15000000Y-9500000D02*
X15000000Y-10000000D01*
X20000000Y-40000000D02*
X20000000Y-35000000D01*
X27800000Y-10610000D02*
X27100000Y-9910000D01*
X56425000Y-20000000D02*
X55000000Y-18575000D01*
X10000000Y-22200000D02*
X10000000Y-25000000D01*
X6230000Y-35320000D02*
X4748300Y-35320000D01*
X5000000Y-14800000D02*
X5000000Y-15000000D01*
X35000000Y-35000000D02*
X35000000Y-30000000D01*
X5000000Y-40000000D02*
X5000000Y-45000000D01*
X5000000Y-15000000D02*
X5000000Y-25000000D01*
X5000000Y-47100000D02*
X5000000Y-45000000D01*
X47500000Y-24540000D02*
X45975000Y-23015000D01*
X54062500Y-35000000D02*
X55000000Y-34062500D01*
X14000000Y-22975000D02*
X15975000Y-21000000D01*
X18000000Y-5025000D02*
X15000000Y-8025000D01*
X17200000Y-42500000D02*
X17652000Y-42500000D01*
X29200000Y-14200000D02*
X29200000Y-10610000D01*
X19525000Y-3500000D02*
X18000000Y-5025000D01*
X25000000Y-30000000D02*
X25000000Y-25000000D01*
X49975000Y-7000000D02*
X45975000Y-11000000D01*
X25000000Y-5000000D02*
X27100000Y-7100000D01*
X27100000Y-7100000D02*
X27100000Y-7810000D01*
X25000000Y-5000000D02*
X21200000Y-5000000D01*
X40000000Y-40000000D02*
X40000000Y-42525000D01*
X14475000Y-33550000D02*
X14000000Y-34025000D01*
X35000000Y-30000000D02*
X35000000Y-25000000D01*
X16500000Y-33550000D02*
X14475000Y-33550000D01*
X29200000Y-9210000D02*
X29900000Y-8510000D01*
X29900000Y-9910000D02*
X29200000Y-9210000D01*
X56425000Y-28575000D02*
X56425000Y-20000000D01*
X6230000Y-26680000D02*
X4748300Y-26680000D01*
X14000000Y-24025000D02*
X14000000Y-22975000D01*
X40000000Y-42525000D02*
X40975000Y-43500000D01*
X29200000Y-10610000D02*
X29900000Y-9910000D01*
X5000000Y-25000000D02*
X4748300Y-25251700D01*
X27800000Y-9210000D02*
X27100000Y-8510000D01*
X27800000Y-10610000D02*
X28500000Y-9910000D01*
X27100000Y-7810000D02*
X27100000Y-8510000D01*
X29200000Y-7810000D02*
X28500000Y-8510000D01*
X45975000Y-11000000D02*
X45975000Y-17000000D01*
X30000000Y-25000000D02*
X30000000Y-30000000D01*
X35000000Y-10000000D02*
X35000000Y-15000000D01*
X21200000Y-5000000D02*
X19700000Y-3500000D01*
X40975000Y-43500000D02*
X40975000Y-48125000D01*
X27800000Y-7810000D02*
X27100000Y-7810000D01*
X15000000Y-8025000D02*
X15000000Y-9500000D01*
X5000000Y-40000000D02*
X4748300Y-39748300D01*
X55000000Y-34062500D02*
X55000000Y-30000000D01*
X20000000Y-40152000D02*
X20000000Y-40000000D01*
D22*
X18425100Y-32537400D02*
X20887400Y-30075100D01*
X20887400Y-16716600D02*
X15412000Y-11241200D01*
X13485400Y-9798200D02*
X13485400Y-7703900D01*
X14928400Y-11241200D02*
X13485400Y-9798200D01*
X15591500Y-38932900D02*
X18425100Y-36099300D01*
X20391600Y-1707300D02*
X22531700Y-3847400D01*
X15412000Y-11241200D02*
X14928400Y-11241200D01*
X20887400Y-30075100D02*
X20887400Y-16716600D01*
X18425100Y-36099300D02*
X18425100Y-32537400D01*
X19482000Y-1707300D02*
X20391600Y-1707300D01*
X13485400Y-7703900D02*
X19482000Y-1707300D01*
X10019200Y-32844200D02*
X13237100Y-36062100D01*
X5179300Y-32844200D02*
X10019200Y-32844200D01*
X40034800Y-17053700D02*
X39604700Y-16623600D01*
X25596400Y-16623600D02*
X22531700Y-13558900D01*
X39604700Y-16623600D02*
X25596400Y-16623600D01*
X22531700Y-13558900D02*
X22531700Y-11650000D01*
X40457500Y-4133600D02*
X34848000Y-4133600D01*
X44676300Y-14753700D02*
X44676300Y-8352400D01*
X44676300Y-8352400D02*
X40457500Y-4133600D01*
X34848000Y-4133600D02*
X30757100Y-8224500D01*
X30301600Y-15747400D02*
X27915700Y-15747400D01*
X30757100Y-15291900D02*
X30301600Y-15747400D01*
X30757100Y-8224500D02*
X30757100Y-15291900D01*
X27915700Y-15747400D02*
X24830900Y-12662600D01*
X44013400Y-10491200D02*
X44013400Y-8300200D01*
X35790700Y-8599500D02*
X35790700Y-13932600D01*
X39775100Y-4615100D02*
X35790700Y-8599500D01*
X40328300Y-4615100D02*
X39775100Y-4615100D01*
X44013400Y-8300200D02*
X40328300Y-4615100D01*
X24341500Y-17268700D02*
X33419600Y-17268700D01*
X39887100Y-23736200D02*
X39887100Y-23967100D01*
X39887100Y-23967100D02*
X43000000Y-27080000D01*
X22532800Y-15460000D02*
X24341500Y-17268700D01*
X33419600Y-17268700D02*
X39887100Y-23736200D01*
X18290100Y-29862500D02*
X18290100Y-18407100D01*
X18290100Y-29862500D02*
X15902700Y-29862500D01*
X18290100Y-18407100D02*
X19967200Y-16730000D01*
X15902700Y-29862500D02*
X14503700Y-31261500D01*
X12794700Y-34129000D02*
X12287300Y-34129000D01*
X12287300Y-34129000D02*
X11345000Y-33186700D01*
X14386100Y-32537600D02*
X12794700Y-34129000D01*
X20193300Y-18920000D02*
X19064600Y-20048700D01*
X11345000Y-33186700D02*
X11345000Y-32350000D01*
X16549600Y-32537600D02*
X14386100Y-32537600D01*
X19064600Y-20048700D02*
X19064600Y-30022600D01*
X4744999Y-30250000D02*
X11344999Y-32350000D01*
X19064600Y-30022600D02*
X16549600Y-32537600D01*
X25789700Y-20541400D02*
X26973700Y-19357400D01*
X32737400Y-19357400D02*
X43000000Y-29620000D01*
X26973700Y-19357400D02*
X32737400Y-19357400D01*
X27062600Y-20544300D02*
X27754500Y-19852400D01*
X43000000Y-31302700D02*
X43000000Y-32160000D01*
X31549700Y-19852400D02*
X43000000Y-31302700D01*
X27754500Y-19852400D02*
X31549700Y-19852400D01*
X38422400Y-27407600D02*
X31554000Y-20539200D01*
X38422400Y-30122400D02*
X38422400Y-27407600D01*
X31554000Y-20539200D02*
X31289700Y-20539200D01*
X43000000Y-34700000D02*
X38422400Y-30122400D01*
X42561900Y-28350000D02*
X43379800Y-28350000D01*
X43379800Y-28350000D02*
X44180400Y-29150600D01*
X35715000Y-20535800D02*
X35715000Y-21503100D01*
X44180400Y-40434400D02*
X41894900Y-42719900D01*
X44180400Y-29150600D02*
X44180400Y-40434400D01*
X35715000Y-21503100D02*
X42561900Y-28350000D01*
X24271000Y-41503500D02*
X25267500Y-42500000D01*
X27411600Y-17942600D02*
X24271000Y-21083200D01*
X24271000Y-21083200D02*
X24271000Y-41503500D01*
X40032800Y-6570000D02*
X40032800Y-13683700D01*
X44838100Y-18489000D02*
X44838100Y-26958100D01*
X44838100Y-26958100D02*
X47500000Y-29620000D01*
X40032800Y-13683700D02*
X44838100Y-18489000D01*
X40032800Y-5300000D02*
X42796800Y-8064000D01*
X42796800Y-15228700D02*
X45269800Y-17701700D01*
X45269800Y-17701700D02*
X45269800Y-24849800D01*
X45269800Y-24849800D02*
X47500000Y-27080000D01*
X42796800Y-8064000D02*
X42796800Y-15228700D01*
X13286000Y-10798500D02*
X13286000Y-27809000D01*
D21*
X12545000Y-28550000D02*
X12545000Y-33450000D01*
D22*
X13286000Y-27809000D02*
X12545000Y-28550000D01*
X9690400Y-7202900D02*
X13286000Y-10798500D01*
X10445000Y-29750000D02*
X10445000Y-29721300D01*
X10445000Y-29721300D02*
X12563400Y-27602900D01*
G04 #@! TA.AperFunction,Conductor*
G36*
X13916703Y-10831697D02*
G01*
X13923181Y-10837729D01*
X14667137Y-11581685D01*
X14764163Y-11637703D01*
X14872381Y-11666700D01*
X14872382Y-11666700D01*
X15184390Y-11666700D01*
X15251429Y-11686385D01*
X15272071Y-11703019D01*
X19590306Y-16021254D01*
X19623791Y-16082577D01*
X19618807Y-16152269D01*
X19576935Y-16208202D01*
X19571520Y-16212035D01*
X19552528Y-16224725D01*
X19461926Y-16315327D01*
X19461923Y-16315331D01*
X19390738Y-16421866D01*
X19390733Y-16421875D01*
X19341699Y-16540255D01*
X19341697Y-16540261D01*
X19316700Y-16665928D01*
X19316700Y-16727390D01*
X19297015Y-16794429D01*
X19280381Y-16815071D01*
X17949617Y-18145834D01*
X17949613Y-18145840D01*
X17893598Y-18242860D01*
X17893597Y-18242863D01*
X17864600Y-18351082D01*
X17864600Y-29313000D01*
X17844915Y-29380039D01*
X17792111Y-29425794D01*
X17740600Y-29437000D01*
X15846682Y-29437000D01*
X15738463Y-29465997D01*
X15738460Y-29465998D01*
X15641440Y-29522013D01*
X15641434Y-29522017D01*
X14588771Y-30574681D01*
X14527448Y-30608166D01*
X14501090Y-30611000D01*
X14439629Y-30611000D01*
X14313961Y-30635997D01*
X14313955Y-30635999D01*
X14195575Y-30685033D01*
X14195566Y-30685038D01*
X14089031Y-30756223D01*
X14089027Y-30756226D01*
X13998426Y-30846827D01*
X13998423Y-30846831D01*
X13927238Y-30953366D01*
X13927233Y-30953375D01*
X13878199Y-31071755D01*
X13878197Y-31071761D01*
X13853200Y-31197428D01*
X13853200Y-31197431D01*
X13853200Y-31325569D01*
X13853200Y-31325571D01*
X13853199Y-31325571D01*
X13878197Y-31451238D01*
X13878199Y-31451244D01*
X13927233Y-31569624D01*
X13927238Y-31569633D01*
X13998423Y-31676168D01*
X13998426Y-31676172D01*
X14089027Y-31766773D01*
X14089031Y-31766776D01*
X14195566Y-31837961D01*
X14195579Y-31837968D01*
X14269850Y-31868731D01*
X14312781Y-31886514D01*
X14367185Y-31930354D01*
X14389250Y-31996649D01*
X14371971Y-32064348D01*
X14320834Y-32111959D01*
X14297423Y-32120850D01*
X14222601Y-32140899D01*
X14222600Y-32140898D01*
X14221864Y-32141096D01*
X14221862Y-32141097D01*
X14124840Y-32197113D01*
X14124834Y-32197117D01*
X13257181Y-33064770D01*
X13195858Y-33098255D01*
X13126166Y-33093271D01*
X13070233Y-33051399D01*
X13045816Y-32985935D01*
X13045500Y-32977089D01*
X13045500Y-29009432D01*
X13065185Y-28942393D01*
X13066398Y-28940541D01*
X13121461Y-28858133D01*
X13121461Y-28858132D01*
X13121465Y-28858127D01*
X13170501Y-28739744D01*
X13187861Y-28652472D01*
X13195500Y-28614071D01*
X13195500Y-28552608D01*
X13215185Y-28485569D01*
X13231815Y-28464931D01*
X13537053Y-28159692D01*
X13537058Y-28159689D01*
X13547261Y-28149485D01*
X13547263Y-28149485D01*
X13626485Y-28070263D01*
X13682503Y-27973237D01*
X13711500Y-27865019D01*
X13711500Y-27752982D01*
X13711500Y-10925410D01*
X13731185Y-10858371D01*
X13783989Y-10812616D01*
X13853147Y-10802672D01*
X13916703Y-10831697D01*
G37*
G04 #@! TD.AperFunction*
G04 #@! TA.AperFunction,Conductor*
G36*
X44013921Y-25271080D02*
G01*
X44013922Y-25271079D01*
X44069095Y-25195143D01*
X44158418Y-25019835D01*
X44170669Y-24982133D01*
X44210106Y-24924458D01*
X44274465Y-24897259D01*
X44343311Y-24909173D01*
X44394787Y-24956417D01*
X44412600Y-25020451D01*
X44412600Y-25888690D01*
X44392915Y-25955729D01*
X44340111Y-26001484D01*
X44270953Y-26011428D01*
X44207397Y-25982403D01*
X44200919Y-25976371D01*
X43719065Y-25494517D01*
X43719063Y-25494515D01*
X43667578Y-25464790D01*
X43621071Y-25437939D01*
X43595390Y-25418233D01*
X43185176Y-25008019D01*
X43192993Y-25005925D01*
X43307007Y-24940099D01*
X43400099Y-24847007D01*
X43465925Y-24732993D01*
X43468019Y-24725177D01*
X44013921Y-25271080D01*
G37*
G04 #@! TD.AperFunction*
G04 #@! TA.AperFunction,Conductor*
G36*
X38997029Y-4578785D02*
G01*
X39042784Y-4631589D01*
X39052728Y-4700747D01*
X39023703Y-4764303D01*
X39017671Y-4770781D01*
X35450217Y-8338234D01*
X35450213Y-8338240D01*
X35394198Y-8435260D01*
X35394197Y-8435263D01*
X35365200Y-8543482D01*
X35365200Y-13386792D01*
X35345515Y-13453831D01*
X35328881Y-13474473D01*
X35285426Y-13517927D01*
X35285423Y-13517931D01*
X35214238Y-13624466D01*
X35214233Y-13624475D01*
X35165199Y-13742855D01*
X35165197Y-13742861D01*
X35140200Y-13868528D01*
X35140200Y-13868531D01*
X35140200Y-13996669D01*
X35140200Y-13996671D01*
X35140199Y-13996671D01*
X35165197Y-14122338D01*
X35165199Y-14122344D01*
X35214233Y-14240724D01*
X35214238Y-14240733D01*
X35285423Y-14347268D01*
X35285426Y-14347272D01*
X35376027Y-14437873D01*
X35376031Y-14437876D01*
X35482566Y-14509061D01*
X35482572Y-14509064D01*
X35482573Y-14509065D01*
X35600956Y-14558101D01*
X35600960Y-14558101D01*
X35600961Y-14558102D01*
X35726628Y-14583100D01*
X35726631Y-14583100D01*
X35854771Y-14583100D01*
X35939315Y-14566282D01*
X35980444Y-14558101D01*
X36098827Y-14509065D01*
X36205369Y-14437876D01*
X36295976Y-14347269D01*
X36367165Y-14240727D01*
X36416201Y-14122344D01*
X36441200Y-13996669D01*
X36441200Y-13868531D01*
X36441200Y-13868528D01*
X36416202Y-13742861D01*
X36416201Y-13742860D01*
X36416201Y-13742856D01*
X36367165Y-13624473D01*
X36367164Y-13624472D01*
X36367161Y-13624466D01*
X36295976Y-13517931D01*
X36295973Y-13517927D01*
X36252519Y-13474473D01*
X36219034Y-13413150D01*
X36216200Y-13386792D01*
X36216200Y-8827109D01*
X36235885Y-8760070D01*
X36252514Y-8739433D01*
X39320451Y-5671495D01*
X39381772Y-5638012D01*
X39451464Y-5642996D01*
X39507397Y-5684868D01*
X39511232Y-5690287D01*
X39527523Y-5714668D01*
X39527526Y-5714672D01*
X39618127Y-5805273D01*
X39618131Y-5805276D01*
X39657973Y-5831898D01*
X39702778Y-5885510D01*
X39711485Y-5954835D01*
X39681330Y-6017863D01*
X39657973Y-6038102D01*
X39618131Y-6064723D01*
X39618127Y-6064726D01*
X39527526Y-6155327D01*
X39527523Y-6155331D01*
X39456338Y-6261866D01*
X39456333Y-6261875D01*
X39407299Y-6380255D01*
X39407297Y-6380261D01*
X39382300Y-6505928D01*
X39382300Y-6505931D01*
X39382300Y-6634069D01*
X39382300Y-6634071D01*
X39382299Y-6634071D01*
X39407297Y-6759738D01*
X39407299Y-6759744D01*
X39456333Y-6878124D01*
X39456338Y-6878133D01*
X39527523Y-6984668D01*
X39527526Y-6984672D01*
X39570980Y-7028125D01*
X39604466Y-7089448D01*
X39607300Y-7115807D01*
X39607300Y-13627682D01*
X39607300Y-13739718D01*
X39636297Y-13847937D01*
X39692315Y-13944963D01*
X39692317Y-13944965D01*
X44376281Y-18628929D01*
X44409766Y-18690252D01*
X44412600Y-18716610D01*
X44412600Y-24059548D01*
X44392915Y-24126587D01*
X44340111Y-24172342D01*
X44270953Y-24182286D01*
X44207397Y-24153261D01*
X44170669Y-24097867D01*
X44158417Y-24060162D01*
X44069095Y-23884856D01*
X44013922Y-23808919D01*
X44013922Y-23808918D01*
X43468018Y-24354821D01*
X43465925Y-24347007D01*
X43400099Y-24232993D01*
X43307007Y-24139901D01*
X43192993Y-24074075D01*
X43185177Y-24071980D01*
X43731080Y-23526077D01*
X43731079Y-23526076D01*
X43655143Y-23470904D01*
X43486514Y-23384984D01*
X43435718Y-23337010D01*
X43418923Y-23269189D01*
X43441460Y-23203054D01*
X43496175Y-23159602D01*
X43542807Y-23150499D01*
X43894864Y-23150499D01*
X43894879Y-23150497D01*
X43894882Y-23150497D01*
X43919987Y-23147586D01*
X43919988Y-23147585D01*
X43919991Y-23147585D01*
X44022765Y-23102206D01*
X44102206Y-23022765D01*
X44147585Y-22919991D01*
X44150500Y-22894865D01*
X44150499Y-21105136D01*
X44149678Y-21098055D01*
X44147586Y-21080012D01*
X44147585Y-21080010D01*
X44147585Y-21080009D01*
X44102206Y-20977235D01*
X44022765Y-20897794D01*
X43968621Y-20873887D01*
X43919992Y-20852415D01*
X43894865Y-20849500D01*
X42105143Y-20849500D01*
X42105117Y-20849502D01*
X42080012Y-20852413D01*
X42080008Y-20852415D01*
X41977235Y-20897793D01*
X41897794Y-20977234D01*
X41852415Y-21080006D01*
X41852415Y-21080008D01*
X41849500Y-21105131D01*
X41849500Y-22894856D01*
X41849502Y-22894882D01*
X41852413Y-22919987D01*
X41852415Y-22919991D01*
X41897793Y-23022764D01*
X41897794Y-23022765D01*
X41977235Y-23102206D01*
X42080009Y-23147585D01*
X42105135Y-23150500D01*
X42457191Y-23150499D01*
X42524228Y-23170183D01*
X42569983Y-23222987D01*
X42579927Y-23292146D01*
X42550902Y-23355701D01*
X42513484Y-23384984D01*
X42344855Y-23470905D01*
X42344846Y-23470911D01*
X42268919Y-23526075D01*
X42268918Y-23526076D01*
X42814823Y-24071980D01*
X42807007Y-24074075D01*
X42692993Y-24139901D01*
X42599901Y-24232993D01*
X42534075Y-24347007D01*
X42531980Y-24354822D01*
X41986076Y-23808918D01*
X41986075Y-23808919D01*
X41930911Y-23884846D01*
X41930905Y-23884855D01*
X41841581Y-24060162D01*
X41796115Y-24200093D01*
X41756677Y-24257768D01*
X41692318Y-24284966D01*
X41623472Y-24273051D01*
X41590503Y-24249455D01*
X41196619Y-23855571D01*
X41163134Y-23794248D01*
X41160300Y-23767890D01*
X41160300Y-16744484D01*
X41160300Y-16744482D01*
X41131303Y-16636263D01*
X41075285Y-16539237D01*
X40996063Y-16460015D01*
X40380963Y-15844915D01*
X40316279Y-15807569D01*
X40283939Y-15788898D01*
X40283938Y-15788897D01*
X40283937Y-15788897D01*
X40175718Y-15759900D01*
X40175717Y-15759900D01*
X31190210Y-15759900D01*
X31123171Y-15740215D01*
X31077416Y-15687411D01*
X31067472Y-15618253D01*
X31093834Y-15560527D01*
X31092638Y-15559609D01*
X31097576Y-15553171D01*
X31097585Y-15553163D01*
X31153603Y-15456137D01*
X31157784Y-15440530D01*
X31166793Y-15406914D01*
X31174218Y-15379200D01*
X31182600Y-15347919D01*
X31182600Y-15235882D01*
X31182600Y-8452109D01*
X31202285Y-8385070D01*
X31218919Y-8364428D01*
X34987928Y-4595419D01*
X35049251Y-4561934D01*
X35075609Y-4559100D01*
X38929990Y-4559100D01*
X38997029Y-4578785D01*
G37*
G04 #@! TD.AperFunction*
G04 #@! TA.AperFunction,Conductor*
G36*
X22434729Y-8459099D02*
G01*
X22436147Y-8458896D01*
X22456132Y-8464381D01*
X22456329Y-8463733D01*
X22462151Y-8465499D01*
X22462156Y-8465501D01*
X22462160Y-8465501D01*
X22462161Y-8465502D01*
X22587828Y-8490500D01*
X22587831Y-8490500D01*
X22649290Y-8490500D01*
X22716329Y-8510185D01*
X22736971Y-8526819D01*
X23655681Y-9445529D01*
X23689166Y-9506852D01*
X23692000Y-9533210D01*
X23692000Y-12890782D01*
X23692000Y-13002818D01*
X23720997Y-13111037D01*
X23777015Y-13208063D01*
X23777017Y-13208065D01*
X26555371Y-15986419D01*
X26588856Y-16047742D01*
X26583872Y-16117434D01*
X26542000Y-16173367D01*
X26476536Y-16197784D01*
X26467690Y-16198100D01*
X25824009Y-16198100D01*
X25756970Y-16178415D01*
X25736328Y-16161781D01*
X22993519Y-13418971D01*
X22960034Y-13357648D01*
X22957200Y-13331290D01*
X22957200Y-12195807D01*
X22976885Y-12128768D01*
X22993520Y-12108125D01*
X23036973Y-12064672D01*
X23036976Y-12064669D01*
X23108165Y-11958127D01*
X23157201Y-11839744D01*
X23172515Y-11762756D01*
X23182200Y-11714071D01*
X23182200Y-11585928D01*
X23157202Y-11460261D01*
X23157201Y-11460260D01*
X23157201Y-11460256D01*
X23108165Y-11341873D01*
X23108164Y-11341872D01*
X23108161Y-11341866D01*
X23036976Y-11235331D01*
X23036973Y-11235327D01*
X22946372Y-11144726D01*
X22946368Y-11144723D01*
X22839833Y-11073538D01*
X22839824Y-11073533D01*
X22721444Y-11024499D01*
X22721438Y-11024497D01*
X22595771Y-10999500D01*
X22595769Y-10999500D01*
X22467631Y-10999500D01*
X22442691Y-11004461D01*
X22373099Y-10998233D01*
X22317922Y-10955369D01*
X22294678Y-10889479D01*
X22294500Y-10882843D01*
X22294500Y-8581634D01*
X22303746Y-8550143D01*
X22311875Y-8518332D01*
X22313543Y-8516779D01*
X22314185Y-8514595D01*
X22338976Y-8493112D01*
X22363025Y-8470735D01*
X22365268Y-8470330D01*
X22366989Y-8468840D01*
X22399473Y-8464169D01*
X22431788Y-8458348D01*
X22434729Y-8459099D01*
G37*
G04 #@! TD.AperFunction*
G04 #@! TA.AperFunction,Conductor*
G36*
X78429912Y-510923D02*
G01*
X78515331Y-549367D01*
X78528566Y-556314D01*
X78743045Y-685970D01*
X78755356Y-694468D01*
X78952636Y-849027D01*
X78963844Y-858957D01*
X79141042Y-1036155D01*
X79150972Y-1047363D01*
X79305527Y-1244637D01*
X79314031Y-1256957D01*
X79416587Y-1426606D01*
X79443681Y-1471425D01*
X79450638Y-1484682D01*
X79489075Y-1570085D01*
X79500000Y-1620975D01*
X79500000Y-52379021D01*
X79489075Y-52429913D01*
X79450636Y-52515320D01*
X79443678Y-52528578D01*
X79314032Y-52743039D01*
X79305525Y-52755363D01*
X79150970Y-52952636D01*
X79141041Y-52963843D01*
X78963843Y-53141041D01*
X78952636Y-53150970D01*
X78755363Y-53305525D01*
X78743039Y-53314032D01*
X78528578Y-53443678D01*
X78515320Y-53450636D01*
X78429913Y-53489075D01*
X78379021Y-53500000D01*
X1620976Y-53500000D01*
X1570087Y-53489076D01*
X1484675Y-53450635D01*
X1471425Y-53443681D01*
X1256960Y-53314033D01*
X1244637Y-53305527D01*
X1244634Y-53305525D01*
X1047363Y-53150972D01*
X1036155Y-53141042D01*
X858957Y-52963844D01*
X849027Y-52952636D01*
X694468Y-52755356D01*
X685966Y-52743038D01*
X556321Y-52528577D01*
X549362Y-52515319D01*
X510924Y-52429913D01*
X500000Y-52379022D01*
X500000Y-50378711D01*
X1649500Y-50378711D01*
X1649500Y-50621288D01*
X1681161Y-50861785D01*
X1743947Y-51096104D01*
X1836773Y-51320205D01*
X1836776Y-51320212D01*
X1958064Y-51530289D01*
X1958066Y-51530292D01*
X1958067Y-51530293D01*
X2105733Y-51722736D01*
X2105739Y-51722743D01*
X2277256Y-51894260D01*
X2277262Y-51894265D01*
X2469711Y-52041936D01*
X2679788Y-52163224D01*
X2903900Y-52256054D01*
X3138211Y-52318838D01*
X3318586Y-52342584D01*
X3378711Y-52350500D01*
X3378712Y-52350500D01*
X3621289Y-52350500D01*
X3669388Y-52344167D01*
X3861789Y-52318838D01*
X4096100Y-52256054D01*
X4320212Y-52163224D01*
X4530289Y-52041936D01*
X4722738Y-51894265D01*
X4894265Y-51722738D01*
X5041936Y-51530289D01*
X5163224Y-51320212D01*
X5256054Y-51096100D01*
X5318838Y-50861789D01*
X5350500Y-50621288D01*
X5350500Y-50378712D01*
X5350500Y-50378711D01*
X74649500Y-50378711D01*
X74649500Y-50621288D01*
X74681161Y-50861785D01*
X74743947Y-51096104D01*
X74836773Y-51320205D01*
X74836776Y-51320212D01*
X74958064Y-51530289D01*
X74958066Y-51530292D01*
X74958067Y-51530293D01*
X75105733Y-51722736D01*
X75105739Y-51722743D01*
X75277256Y-51894260D01*
X75277262Y-51894265D01*
X75469711Y-52041936D01*
X75679788Y-52163224D01*
X75903900Y-52256054D01*
X76138211Y-52318838D01*
X76318586Y-52342584D01*
X76378711Y-52350500D01*
X76378712Y-52350500D01*
X76621289Y-52350500D01*
X76669388Y-52344167D01*
X76861789Y-52318838D01*
X77096100Y-52256054D01*
X77320212Y-52163224D01*
X77530289Y-52041936D01*
X77722738Y-51894265D01*
X77894265Y-51722738D01*
X78041936Y-51530289D01*
X78163224Y-51320212D01*
X78256054Y-51096100D01*
X78318838Y-50861789D01*
X78350500Y-50621288D01*
X78350500Y-50378712D01*
X78318838Y-50138211D01*
X78256054Y-49903900D01*
X78163224Y-49679788D01*
X78041936Y-49469711D01*
X77941521Y-49338847D01*
X77894266Y-49277263D01*
X77894260Y-49277256D01*
X77722743Y-49105739D01*
X77722736Y-49105733D01*
X77530293Y-48958067D01*
X77530292Y-48958066D01*
X77530289Y-48958064D01*
X77320212Y-48836776D01*
X77320205Y-48836773D01*
X77096104Y-48743947D01*
X76861785Y-48681161D01*
X76621289Y-48649500D01*
X76621288Y-48649500D01*
X76378712Y-48649500D01*
X76378711Y-48649500D01*
X76138214Y-48681161D01*
X75903895Y-48743947D01*
X75679794Y-48836773D01*
X75679785Y-48836777D01*
X75613954Y-48874785D01*
X75490219Y-48946224D01*
X75469706Y-48958067D01*
X75277263Y-49105733D01*
X75277256Y-49105739D01*
X75105739Y-49277256D01*
X75105733Y-49277263D01*
X74958067Y-49469706D01*
X74836777Y-49679785D01*
X74836773Y-49679794D01*
X74743947Y-49903895D01*
X74681161Y-50138214D01*
X74649500Y-50378711D01*
X5350500Y-50378711D01*
X5318838Y-50138211D01*
X5256054Y-49903900D01*
X5163224Y-49679788D01*
X5041936Y-49469711D01*
X4941521Y-49338847D01*
X4894266Y-49277263D01*
X4894260Y-49277256D01*
X4722743Y-49105739D01*
X4722736Y-49105733D01*
X4530293Y-48958067D01*
X4530292Y-48958066D01*
X4530289Y-48958064D01*
X4320212Y-48836776D01*
X4320205Y-48836773D01*
X4142582Y-48763199D01*
X4142580Y-48763198D01*
X4096107Y-48743948D01*
X3932092Y-48700000D01*
X3861789Y-48681162D01*
X3861788Y-48681161D01*
X3861785Y-48681161D01*
X3621289Y-48649500D01*
X3621288Y-48649500D01*
X3378712Y-48649500D01*
X3378711Y-48649500D01*
X3138214Y-48681161D01*
X2903895Y-48743947D01*
X2679794Y-48836773D01*
X2679785Y-48836777D01*
X2613954Y-48874785D01*
X2490219Y-48946224D01*
X2469706Y-48958067D01*
X2277263Y-49105733D01*
X2277256Y-49105739D01*
X2105739Y-49277256D01*
X2105733Y-49277263D01*
X1958067Y-49469706D01*
X1836777Y-49679785D01*
X1836773Y-49679794D01*
X1743947Y-49903895D01*
X1681161Y-50138214D01*
X1649500Y-50378711D01*
X500000Y-50378711D01*
X500000Y-47384350D01*
X48800000Y-47384350D01*
X48800000Y-48300000D01*
X49826069Y-48300000D01*
X49800000Y-48431056D01*
X49800000Y-48568944D01*
X49826069Y-48700000D01*
X48800000Y-48700000D01*
X48800000Y-49615649D01*
X48802899Y-49652489D01*
X48802900Y-49652495D01*
X48848716Y-49810193D01*
X48848717Y-49810196D01*
X48932314Y-49951552D01*
X48932321Y-49951561D01*
X49048438Y-50067678D01*
X49048447Y-50067685D01*
X49189803Y-50151282D01*
X49189806Y-50151283D01*
X49347504Y-50197099D01*
X49347510Y-50197100D01*
X49384350Y-50199999D01*
X49384366Y-50200000D01*
X50300000Y-50200000D01*
X50300000Y-49173930D01*
X50431056Y-49200000D01*
X50568944Y-49200000D01*
X50700000Y-49173930D01*
X50700000Y-50200000D01*
X51615634Y-50200000D01*
X51615649Y-50199999D01*
X51652489Y-50197100D01*
X51652495Y-50197099D01*
X51810193Y-50151283D01*
X51810196Y-50151282D01*
X51951552Y-50067685D01*
X51951561Y-50067678D01*
X52067678Y-49951561D01*
X52067685Y-49951552D01*
X52151282Y-49810196D01*
X52151283Y-49810193D01*
X52197099Y-49652495D01*
X52197100Y-49652489D01*
X52199999Y-49615649D01*
X52200000Y-49615634D01*
X52200000Y-48700000D01*
X51173931Y-48700000D01*
X51200000Y-48568944D01*
X51200000Y-48431056D01*
X51173931Y-48300000D01*
X52200000Y-48300000D01*
X52200000Y-47384365D01*
X52199999Y-47384350D01*
X52197100Y-47347510D01*
X52197099Y-47347504D01*
X52151283Y-47189806D01*
X52151282Y-47189803D01*
X52067685Y-47048447D01*
X52067678Y-47048438D01*
X51951561Y-46932321D01*
X51951552Y-46932314D01*
X51810196Y-46848717D01*
X51810193Y-46848716D01*
X51652495Y-46802900D01*
X51652489Y-46802899D01*
X51615649Y-46800000D01*
X50700000Y-46800000D01*
X50700000Y-47826069D01*
X50568944Y-47800000D01*
X50431056Y-47800000D01*
X50300000Y-47826069D01*
X50300000Y-46800000D01*
X49384350Y-46800000D01*
X49347510Y-46802899D01*
X49347504Y-46802900D01*
X49189806Y-46848716D01*
X49189803Y-46848717D01*
X49048447Y-46932314D01*
X49048438Y-46932321D01*
X48932321Y-47048438D01*
X48932314Y-47048447D01*
X48848717Y-47189803D01*
X48848716Y-47189806D01*
X48802900Y-47347504D01*
X48802899Y-47347510D01*
X48800000Y-47384350D01*
X500000Y-47384350D01*
X500000Y-35120000D01*
X872150Y-35120000D01*
X1525735Y-35120000D01*
X1509940Y-35135795D01*
X1470444Y-35204204D01*
X1450000Y-35280504D01*
X1450000Y-35359496D01*
X1470444Y-35435796D01*
X1509940Y-35504205D01*
X1525735Y-35520000D01*
X872150Y-35520000D01*
X884584Y-35582512D01*
X884586Y-35582520D01*
X952428Y-35746307D01*
X952433Y-35746316D01*
X1050923Y-35893716D01*
X1050926Y-35893720D01*
X1176279Y-36019073D01*
X1176283Y-36019076D01*
X1323683Y-36117566D01*
X1323692Y-36117571D01*
X1487479Y-36185413D01*
X1487487Y-36185415D01*
X1661353Y-36219999D01*
X1661357Y-36220000D01*
X1850000Y-36220000D01*
X1850000Y-35620000D01*
X2250000Y-35620000D01*
X2250000Y-36220000D01*
X2438643Y-36220000D01*
X2438646Y-36219999D01*
X2612512Y-36185415D01*
X2612520Y-36185413D01*
X2776307Y-36117571D01*
X2776316Y-36117566D01*
X2923716Y-36019076D01*
X2923720Y-36019073D01*
X3049073Y-35893720D01*
X3049076Y-35893716D01*
X3147566Y-35746316D01*
X3147571Y-35746307D01*
X3215413Y-35582520D01*
X3215415Y-35582512D01*
X3227850Y-35520000D01*
X2574265Y-35520000D01*
X2590060Y-35504205D01*
X2629556Y-35435796D01*
X2650000Y-35359496D01*
X2650000Y-35280504D01*
X2629556Y-35204204D01*
X2590060Y-35135795D01*
X2574265Y-35120000D01*
X3227850Y-35120000D01*
X3215415Y-35057487D01*
X3215413Y-35057479D01*
X3147571Y-34893692D01*
X3147566Y-34893683D01*
X3049076Y-34746283D01*
X3049073Y-34746279D01*
X2923720Y-34620926D01*
X2923716Y-34620923D01*
X2776316Y-34522433D01*
X2776307Y-34522428D01*
X2612520Y-34454586D01*
X2612512Y-34454584D01*
X2438646Y-34420000D01*
X2250000Y-34420000D01*
X2250000Y-35020000D01*
X1850000Y-35020000D01*
X1850000Y-34420000D01*
X1661353Y-34420000D01*
X1487487Y-34454584D01*
X1487479Y-34454586D01*
X1323692Y-34522428D01*
X1323683Y-34522433D01*
X1176283Y-34620923D01*
X1176279Y-34620926D01*
X1050926Y-34746279D01*
X1050923Y-34746283D01*
X952433Y-34893683D01*
X952428Y-34893692D01*
X884586Y-35057479D01*
X884584Y-35057487D01*
X872150Y-35120000D01*
X500000Y-35120000D01*
X500000Y-30314071D01*
X4094498Y-30314071D01*
X4119496Y-30439738D01*
X4119498Y-30439744D01*
X4168532Y-30558124D01*
X4168537Y-30558133D01*
X4239722Y-30664668D01*
X4239725Y-30664672D01*
X4330326Y-30755273D01*
X4330330Y-30755276D01*
X4436865Y-30826461D01*
X4436871Y-30826464D01*
X4436872Y-30826465D01*
X4555255Y-30875501D01*
X4555259Y-30875501D01*
X4555260Y-30875502D01*
X4680927Y-30900500D01*
X4680930Y-30900500D01*
X4809070Y-30900500D01*
X4893614Y-30883682D01*
X4934743Y-30875501D01*
X5053126Y-30826465D01*
X5053126Y-30826464D01*
X5054823Y-30825762D01*
X5124293Y-30818293D01*
X5139867Y-30822158D01*
X9079822Y-32075781D01*
X9396484Y-32176537D01*
X9454399Y-32215622D01*
X9481990Y-32279813D01*
X9470496Y-32348731D01*
X9423568Y-32400494D01*
X9358887Y-32418700D01*
X5725107Y-32418700D01*
X5658068Y-32399015D01*
X5637425Y-32382380D01*
X5593972Y-32338926D01*
X5593968Y-32338923D01*
X5487433Y-32267738D01*
X5487424Y-32267733D01*
X5369044Y-32218699D01*
X5369038Y-32218697D01*
X5243371Y-32193700D01*
X5243369Y-32193700D01*
X5115231Y-32193700D01*
X5115229Y-32193700D01*
X4989561Y-32218697D01*
X4989555Y-32218699D01*
X4871175Y-32267733D01*
X4871166Y-32267738D01*
X4764631Y-32338923D01*
X4764627Y-32338926D01*
X4674026Y-32429527D01*
X4674023Y-32429531D01*
X4602838Y-32536066D01*
X4602833Y-32536075D01*
X4553799Y-32654455D01*
X4553797Y-32654461D01*
X4528800Y-32780128D01*
X4528800Y-32780131D01*
X4528800Y-32908269D01*
X4528800Y-32908271D01*
X4528799Y-32908271D01*
X4553797Y-33033938D01*
X4553799Y-33033944D01*
X4602833Y-33152324D01*
X4602838Y-33152333D01*
X4674023Y-33258868D01*
X4674026Y-33258872D01*
X4764627Y-33349473D01*
X4764631Y-33349476D01*
X4871166Y-33420661D01*
X4871172Y-33420664D01*
X4871173Y-33420665D01*
X4989556Y-33469701D01*
X5078684Y-33487430D01*
X5140595Y-33519815D01*
X5175169Y-33580530D01*
X5171430Y-33650300D01*
X5166809Y-33660341D01*
X5166831Y-33660351D01*
X5163720Y-33667862D01*
X5163720Y-33667863D01*
X5163719Y-33667865D01*
X5151413Y-33713792D01*
X5124500Y-33814234D01*
X5124500Y-33965765D01*
X5163719Y-34112136D01*
X5201602Y-34177750D01*
X5239485Y-34243365D01*
X5239487Y-34243367D01*
X5309750Y-34313630D01*
X5343235Y-34374953D01*
X5338251Y-34444645D01*
X5296379Y-34500578D01*
X5269522Y-34515872D01*
X5253692Y-34522428D01*
X5253683Y-34522433D01*
X5106283Y-34620923D01*
X5106279Y-34620926D01*
X4980926Y-34746279D01*
X4980923Y-34746283D01*
X4882433Y-34893683D01*
X4882428Y-34893692D01*
X4814586Y-35057479D01*
X4814584Y-35057487D01*
X4802150Y-35120000D01*
X5455735Y-35120000D01*
X5439940Y-35135795D01*
X5400444Y-35204204D01*
X5380000Y-35280504D01*
X5380000Y-35359496D01*
X5400444Y-35435796D01*
X5439940Y-35504205D01*
X5455735Y-35520000D01*
X4802150Y-35520000D01*
X4814584Y-35582512D01*
X4814586Y-35582520D01*
X4882428Y-35746307D01*
X4882433Y-35746316D01*
X4980923Y-35893716D01*
X4980926Y-35893720D01*
X5106279Y-36019073D01*
X5106283Y-36019076D01*
X5253683Y-36117566D01*
X5253692Y-36117571D01*
X5417479Y-36185413D01*
X5417487Y-36185415D01*
X5591353Y-36219999D01*
X5591357Y-36220000D01*
X6030000Y-36220000D01*
X6030000Y-35620000D01*
X6430000Y-35620000D01*
X6430000Y-36220000D01*
X6868643Y-36220000D01*
X6868646Y-36219999D01*
X7042512Y-36185415D01*
X7042520Y-36185413D01*
X7206307Y-36117571D01*
X7206316Y-36117566D01*
X7353716Y-36019076D01*
X7353720Y-36019073D01*
X7479073Y-35893720D01*
X7479076Y-35893716D01*
X7577566Y-35746316D01*
X7577571Y-35746307D01*
X7645413Y-35582520D01*
X7645415Y-35582512D01*
X7657850Y-35520000D01*
X7004265Y-35520000D01*
X7020060Y-35504205D01*
X7059556Y-35435796D01*
X7080000Y-35359496D01*
X7080000Y-35280504D01*
X7059556Y-35204204D01*
X7020060Y-35135795D01*
X7004265Y-35120000D01*
X7657850Y-35120000D01*
X7645415Y-35057487D01*
X7645413Y-35057479D01*
X7577571Y-34893692D01*
X7577566Y-34893683D01*
X7479076Y-34746283D01*
X7479073Y-34746279D01*
X7353720Y-34620926D01*
X7353716Y-34620923D01*
X7206316Y-34522433D01*
X7206307Y-34522428D01*
X7042520Y-34454586D01*
X7042512Y-34454584D01*
X6868646Y-34420000D01*
X6430000Y-34420000D01*
X6430000Y-35020000D01*
X6030000Y-35020000D01*
X6030000Y-34425242D01*
X6038644Y-34395801D01*
X6045168Y-34365815D01*
X6048922Y-34360799D01*
X6049685Y-34358203D01*
X6066319Y-34337561D01*
X6122923Y-34280957D01*
X6130863Y-34273017D01*
X6160515Y-34243365D01*
X6236281Y-34112135D01*
X6275500Y-33965766D01*
X6275500Y-33814234D01*
X6236281Y-33667865D01*
X6160515Y-33536635D01*
X6105261Y-33481381D01*
X6071776Y-33420058D01*
X6076760Y-33350366D01*
X6118632Y-33294433D01*
X6184096Y-33270016D01*
X6192942Y-33269700D01*
X9791590Y-33269700D01*
X9858629Y-33289385D01*
X9879271Y-33306019D01*
X12550281Y-35977029D01*
X12583766Y-36038352D01*
X12586600Y-36064710D01*
X12586600Y-36126169D01*
X12586600Y-36126171D01*
X12586599Y-36126171D01*
X12611597Y-36251838D01*
X12611599Y-36251844D01*
X12660633Y-36370224D01*
X12660638Y-36370233D01*
X12731823Y-36476768D01*
X12731826Y-36476772D01*
X12822427Y-36567373D01*
X12822431Y-36567376D01*
X12928966Y-36638561D01*
X12928972Y-36638564D01*
X12928973Y-36638565D01*
X13047356Y-36687601D01*
X13047360Y-36687601D01*
X13047361Y-36687602D01*
X13173028Y-36712600D01*
X13173031Y-36712600D01*
X13301171Y-36712600D01*
X13385715Y-36695782D01*
X13426844Y-36687601D01*
X13545227Y-36638565D01*
X13651769Y-36567376D01*
X13742376Y-36476769D01*
X13813565Y-36370227D01*
X13862601Y-36251844D01*
X13875815Y-36185413D01*
X13887600Y-36126171D01*
X13887600Y-35998028D01*
X13862602Y-35872361D01*
X13862601Y-35872360D01*
X13862601Y-35872356D01*
X13818633Y-35766209D01*
X13813566Y-35753975D01*
X13813561Y-35753966D01*
X13742376Y-35647431D01*
X13742373Y-35647427D01*
X13651772Y-35556826D01*
X13651768Y-35556823D01*
X13545233Y-35485638D01*
X13545224Y-35485633D01*
X13426844Y-35436599D01*
X13426838Y-35436597D01*
X13301171Y-35411600D01*
X13301169Y-35411600D01*
X13239710Y-35411600D01*
X13172671Y-35391915D01*
X13152029Y-35375281D01*
X12542929Y-34766181D01*
X12509444Y-34704858D01*
X12514428Y-34635166D01*
X12556300Y-34579233D01*
X12621764Y-34554816D01*
X12630610Y-34554500D01*
X12850716Y-34554500D01*
X12850718Y-34554500D01*
X12958937Y-34525503D01*
X13055963Y-34469485D01*
X14526029Y-32999419D01*
X14587352Y-32965934D01*
X14613710Y-32963100D01*
X16605616Y-32963100D01*
X16605618Y-32963100D01*
X16713837Y-32934103D01*
X16810863Y-32878085D01*
X19405085Y-30283863D01*
X19461103Y-30186837D01*
X19490100Y-30078618D01*
X19490100Y-29966582D01*
X19490100Y-20276310D01*
X19509785Y-20209271D01*
X19526419Y-20188629D01*
X20108229Y-19606819D01*
X20130158Y-19594844D01*
X20149798Y-19579393D01*
X20163183Y-19576811D01*
X20169552Y-19573334D01*
X20184096Y-19571064D01*
X20189989Y-19570500D01*
X20257369Y-19570500D01*
X20319855Y-19558070D01*
X20326086Y-19557474D01*
X20354491Y-19562942D01*
X20383299Y-19565520D01*
X20388378Y-19569465D01*
X20394696Y-19570682D01*
X20415634Y-19590637D01*
X20438477Y-19608382D01*
X20440617Y-19614448D01*
X20445273Y-19618886D01*
X20452098Y-19646991D01*
X20461722Y-19674271D01*
X20461900Y-19680910D01*
X20461900Y-29847490D01*
X20442215Y-29914529D01*
X20425581Y-29935171D01*
X18084617Y-32276134D01*
X18084613Y-32276140D01*
X18028598Y-32373160D01*
X18028597Y-32373163D01*
X17999600Y-32481382D01*
X17999600Y-35871690D01*
X17979915Y-35938729D01*
X17963281Y-35959371D01*
X15676571Y-38246081D01*
X15615248Y-38279566D01*
X15588890Y-38282400D01*
X15527429Y-38282400D01*
X15401761Y-38307397D01*
X15401755Y-38307399D01*
X15283375Y-38356433D01*
X15283366Y-38356438D01*
X15176831Y-38427623D01*
X15176827Y-38427626D01*
X15086226Y-38518227D01*
X15086223Y-38518231D01*
X15015038Y-38624766D01*
X15015033Y-38624775D01*
X14965999Y-38743155D01*
X14965997Y-38743161D01*
X14941000Y-38868828D01*
X14941000Y-38868831D01*
X14941000Y-38996969D01*
X14941000Y-38996971D01*
X14940999Y-38996971D01*
X14965997Y-39122638D01*
X14965999Y-39122644D01*
X15015033Y-39241024D01*
X15015038Y-39241033D01*
X15086223Y-39347568D01*
X15086226Y-39347572D01*
X15176827Y-39438173D01*
X15176831Y-39438176D01*
X15283366Y-39509361D01*
X15283372Y-39509364D01*
X15283373Y-39509365D01*
X15401756Y-39558401D01*
X15401760Y-39558401D01*
X15401761Y-39558402D01*
X15527428Y-39583400D01*
X15527431Y-39583400D01*
X15655571Y-39583400D01*
X15740115Y-39566582D01*
X15781244Y-39558401D01*
X15899627Y-39509365D01*
X16006169Y-39438176D01*
X16096776Y-39347569D01*
X16167965Y-39241027D01*
X16217001Y-39122644D01*
X16242000Y-38996969D01*
X16242000Y-38935510D01*
X16261685Y-38868471D01*
X16278319Y-38847829D01*
X17509093Y-37617055D01*
X18765585Y-36360563D01*
X18821603Y-36263537D01*
X18850600Y-36155318D01*
X18850600Y-36043281D01*
X18850600Y-32765010D01*
X18870285Y-32697971D01*
X18886919Y-32677329D01*
X21231819Y-30332429D01*
X21293142Y-30298944D01*
X21362834Y-30303928D01*
X21418767Y-30345800D01*
X21443184Y-30411264D01*
X21443500Y-30420110D01*
X21443500Y-39979482D01*
X21443500Y-40091518D01*
X21472497Y-40199737D01*
X21528515Y-40296763D01*
X27722237Y-46490485D01*
X27819263Y-46546503D01*
X27927482Y-46575500D01*
X28039519Y-46575500D01*
X33034193Y-46575500D01*
X33101232Y-46595185D01*
X33121875Y-46611820D01*
X33165327Y-46655273D01*
X33165331Y-46655276D01*
X33271866Y-46726461D01*
X33271872Y-46726464D01*
X33271873Y-46726465D01*
X33390256Y-46775501D01*
X33390260Y-46775501D01*
X33390261Y-46775502D01*
X33515928Y-46800500D01*
X33515931Y-46800500D01*
X33644071Y-46800500D01*
X33728615Y-46783682D01*
X33769744Y-46775501D01*
X33888127Y-46726465D01*
X33994669Y-46655276D01*
X34085276Y-46564669D01*
X34156465Y-46458127D01*
X34205501Y-46339744D01*
X34230500Y-46214069D01*
X34230500Y-46085931D01*
X34230500Y-46085928D01*
X34205502Y-45960261D01*
X34205501Y-45960260D01*
X34205501Y-45960256D01*
X34156465Y-45841873D01*
X34156464Y-45841872D01*
X34156461Y-45841866D01*
X34085276Y-45735331D01*
X34085273Y-45735327D01*
X33994672Y-45644726D01*
X33994668Y-45644723D01*
X33888133Y-45573538D01*
X33888124Y-45573533D01*
X33769744Y-45524499D01*
X33769738Y-45524497D01*
X33644071Y-45499500D01*
X33644069Y-45499500D01*
X33515931Y-45499500D01*
X33515929Y-45499500D01*
X33390261Y-45524497D01*
X33390255Y-45524499D01*
X33271875Y-45573533D01*
X33271866Y-45573538D01*
X33165331Y-45644723D01*
X33165327Y-45644726D01*
X33121875Y-45688180D01*
X33060552Y-45721666D01*
X33034193Y-45724500D01*
X28211110Y-45724500D01*
X28144071Y-45704815D01*
X28123429Y-45688181D01*
X25644153Y-43208905D01*
X25610668Y-43147582D01*
X25615652Y-43077890D01*
X25657524Y-43021957D01*
X25662918Y-43018138D01*
X25682169Y-43005276D01*
X25772776Y-42914669D01*
X25843965Y-42808127D01*
X25893001Y-42689744D01*
X25918000Y-42564069D01*
X25918000Y-42435931D01*
X25918000Y-42435928D01*
X25893002Y-42310261D01*
X25893001Y-42310260D01*
X25893001Y-42310256D01*
X25843965Y-42191873D01*
X25843964Y-42191872D01*
X25843961Y-42191866D01*
X25772776Y-42085331D01*
X25772773Y-42085327D01*
X25682172Y-41994726D01*
X25682168Y-41994723D01*
X25575633Y-41923538D01*
X25575624Y-41923533D01*
X25457244Y-41874499D01*
X25457238Y-41874497D01*
X25331571Y-41849500D01*
X25331569Y-41849500D01*
X25270110Y-41849500D01*
X25203071Y-41829815D01*
X25182429Y-41813181D01*
X24732819Y-41363571D01*
X24699334Y-41302248D01*
X24696500Y-41275890D01*
X24696500Y-21310809D01*
X24716185Y-21243770D01*
X24732815Y-21223132D01*
X25063611Y-20892335D01*
X25124934Y-20858851D01*
X25194626Y-20863835D01*
X25250559Y-20905707D01*
X25254394Y-20911127D01*
X25284420Y-20956064D01*
X25284426Y-20956072D01*
X25375027Y-21046673D01*
X25375031Y-21046676D01*
X25481566Y-21117861D01*
X25481575Y-21117866D01*
X25508392Y-21128974D01*
X25599956Y-21166901D01*
X25599960Y-21166901D01*
X25599961Y-21166902D01*
X25725628Y-21191900D01*
X25725631Y-21191900D01*
X25853771Y-21191900D01*
X25938315Y-21175082D01*
X25979444Y-21166901D01*
X26097827Y-21117865D01*
X26204369Y-21046676D01*
X26294976Y-20956069D01*
X26322079Y-20915505D01*
X26375690Y-20870702D01*
X26445015Y-20861993D01*
X26508043Y-20892148D01*
X26528284Y-20915507D01*
X26557325Y-20958971D01*
X26647927Y-21049573D01*
X26647931Y-21049576D01*
X26754466Y-21120761D01*
X26754472Y-21120764D01*
X26754473Y-21120765D01*
X26872856Y-21169801D01*
X26872860Y-21169801D01*
X26872861Y-21169802D01*
X26998528Y-21194800D01*
X26998531Y-21194800D01*
X27126671Y-21194800D01*
X27211215Y-21177982D01*
X27252344Y-21169801D01*
X27370727Y-21120765D01*
X27477269Y-21049576D01*
X27567876Y-20958969D01*
X27639065Y-20852427D01*
X27688101Y-20734044D01*
X27696282Y-20692915D01*
X27713100Y-20608371D01*
X27713100Y-20546909D01*
X27721744Y-20517468D01*
X27728268Y-20487482D01*
X27732022Y-20482466D01*
X27732785Y-20479870D01*
X27749419Y-20459228D01*
X27894428Y-20314219D01*
X27955751Y-20280734D01*
X27982109Y-20277900D01*
X30527337Y-20277900D01*
X30594376Y-20297585D01*
X30640131Y-20350389D01*
X30650075Y-20419547D01*
X30648954Y-20426091D01*
X30639200Y-20475126D01*
X30639200Y-20475131D01*
X30639200Y-20603269D01*
X30639200Y-20603271D01*
X30639199Y-20603271D01*
X30664197Y-20728938D01*
X30664199Y-20728944D01*
X30713233Y-20847324D01*
X30713238Y-20847333D01*
X30784423Y-20953868D01*
X30784426Y-20953872D01*
X30875027Y-21044473D01*
X30875031Y-21044476D01*
X30981566Y-21115661D01*
X30981575Y-21115666D01*
X30993876Y-21120761D01*
X31099956Y-21164701D01*
X31099960Y-21164701D01*
X31099961Y-21164702D01*
X31225628Y-21189700D01*
X31225631Y-21189700D01*
X31353771Y-21189700D01*
X31479434Y-21164703D01*
X31479434Y-21164702D01*
X31479444Y-21164701D01*
X31479453Y-21164697D01*
X31483740Y-21163397D01*
X31553607Y-21162768D01*
X31607426Y-21194374D01*
X37960581Y-27547529D01*
X37994066Y-27608852D01*
X37996900Y-27635210D01*
X37996900Y-30066382D01*
X37996900Y-30178418D01*
X38025897Y-30286637D01*
X38081915Y-30383663D01*
X38081917Y-30383665D01*
X41885655Y-34187403D01*
X41919140Y-34248726D01*
X41915905Y-34313402D01*
X41877829Y-34430589D01*
X41849500Y-34609448D01*
X41849500Y-34790551D01*
X41877829Y-34969410D01*
X41933787Y-35141636D01*
X41933788Y-35141639D01*
X42016006Y-35302997D01*
X42122441Y-35449494D01*
X42122445Y-35449499D01*
X42250500Y-35577554D01*
X42250505Y-35577558D01*
X42335235Y-35639117D01*
X42397006Y-35683996D01*
X42451653Y-35711840D01*
X42558360Y-35766211D01*
X42558363Y-35766212D01*
X42644476Y-35794191D01*
X42730591Y-35822171D01*
X42813429Y-35835291D01*
X42909449Y-35850500D01*
X42909454Y-35850500D01*
X43090551Y-35850500D01*
X43177259Y-35836765D01*
X43269409Y-35822171D01*
X43441639Y-35766211D01*
X43574605Y-35698460D01*
X43643273Y-35685564D01*
X43708014Y-35711840D01*
X43748271Y-35768946D01*
X43754900Y-35808945D01*
X43754900Y-40206790D01*
X43735215Y-40273829D01*
X43718581Y-40294471D01*
X41979971Y-42033081D01*
X41918648Y-42066566D01*
X41892290Y-42069400D01*
X41830829Y-42069400D01*
X41705161Y-42094397D01*
X41705155Y-42094399D01*
X41586775Y-42143433D01*
X41586766Y-42143438D01*
X41480231Y-42214623D01*
X41480227Y-42214626D01*
X41389626Y-42305227D01*
X41389623Y-42305231D01*
X41318438Y-42411766D01*
X41318433Y-42411775D01*
X41269399Y-42530155D01*
X41269397Y-42530161D01*
X41244400Y-42655828D01*
X41244400Y-42655831D01*
X41244400Y-42783969D01*
X41244400Y-42783971D01*
X41244399Y-42783971D01*
X41269397Y-42909638D01*
X41269399Y-42909644D01*
X41318433Y-43028024D01*
X41318438Y-43028033D01*
X41389623Y-43134568D01*
X41389626Y-43134572D01*
X41480227Y-43225173D01*
X41480231Y-43225176D01*
X41586766Y-43296361D01*
X41586772Y-43296364D01*
X41586773Y-43296365D01*
X41705156Y-43345401D01*
X41705160Y-43345401D01*
X41705161Y-43345402D01*
X41830828Y-43370400D01*
X41830831Y-43370400D01*
X41958971Y-43370400D01*
X42043515Y-43353582D01*
X42084644Y-43345401D01*
X42203027Y-43296365D01*
X42309569Y-43225176D01*
X42400176Y-43134569D01*
X42471365Y-43028027D01*
X42520401Y-42909644D01*
X42528582Y-42868515D01*
X42545400Y-42783971D01*
X42545400Y-42722510D01*
X42565085Y-42655471D01*
X42581719Y-42634829D01*
X43403367Y-41813181D01*
X44520885Y-40695663D01*
X44576903Y-40598637D01*
X44605900Y-40490418D01*
X44605900Y-40378382D01*
X44605900Y-29260610D01*
X44625585Y-29193571D01*
X44678389Y-29147816D01*
X44747547Y-29137872D01*
X44811103Y-29166897D01*
X44817581Y-29172929D01*
X45291281Y-29646629D01*
X45324766Y-29707952D01*
X45327600Y-29734310D01*
X45327600Y-33417082D01*
X45327600Y-33529118D01*
X45356597Y-33637337D01*
X45412615Y-33734363D01*
X45412617Y-33734365D01*
X47827581Y-36149329D01*
X47861066Y-36210652D01*
X47863900Y-36237010D01*
X47863900Y-36298469D01*
X47863900Y-36298471D01*
X47863899Y-36298471D01*
X47888897Y-36424138D01*
X47888899Y-36424144D01*
X47937933Y-36542524D01*
X47937938Y-36542533D01*
X48009123Y-36649068D01*
X48009126Y-36649072D01*
X48099727Y-36739673D01*
X48099731Y-36739676D01*
X48206266Y-36810861D01*
X48206272Y-36810864D01*
X48206273Y-36810865D01*
X48324656Y-36859901D01*
X48324660Y-36859901D01*
X48324661Y-36859902D01*
X48450328Y-36884900D01*
X48450331Y-36884900D01*
X48578471Y-36884900D01*
X48663015Y-36868082D01*
X48704144Y-36859901D01*
X48822527Y-36810865D01*
X48929069Y-36739676D01*
X49019676Y-36649069D01*
X49090865Y-36542527D01*
X49139901Y-36424144D01*
X49152548Y-36360565D01*
X49164900Y-36298471D01*
X49164900Y-36170328D01*
X49139902Y-36044661D01*
X49139901Y-36044660D01*
X49139901Y-36044656D01*
X49101974Y-35953092D01*
X49090866Y-35926275D01*
X49090861Y-35926266D01*
X49019676Y-35819731D01*
X49019673Y-35819727D01*
X48929071Y-35729125D01*
X48900674Y-35710151D01*
X48874600Y-35692729D01*
X48829795Y-35639117D01*
X48821088Y-35569793D01*
X48851242Y-35506765D01*
X48855811Y-35501945D01*
X48902711Y-35455045D01*
X48902714Y-35455042D01*
X48979375Y-35340311D01*
X49032180Y-35212828D01*
X49040989Y-35168541D01*
X49059100Y-35077495D01*
X49059100Y-35067176D01*
X49078785Y-35000137D01*
X49095419Y-34979495D01*
X49105505Y-34969409D01*
X49191900Y-34883014D01*
X49257792Y-34768886D01*
X49291900Y-34641592D01*
X49291900Y-34509807D01*
X49291900Y-23225508D01*
X49257792Y-23098214D01*
X49191900Y-22984086D01*
X49098714Y-22890900D01*
X48686818Y-22479004D01*
X48653333Y-22417681D01*
X48650499Y-22391323D01*
X48650499Y-21528482D01*
X50927200Y-21528482D01*
X50927200Y-44216682D01*
X50927200Y-44328718D01*
X50956197Y-44436937D01*
X51012215Y-44533963D01*
X51012217Y-44533965D01*
X54123216Y-47644964D01*
X54156701Y-47706287D01*
X54151717Y-47775979D01*
X54146020Y-47788939D01*
X54096761Y-47885615D01*
X54096757Y-47885624D01*
X54018911Y-48125214D01*
X53979501Y-48374038D01*
X53979501Y-48625961D01*
X54018911Y-48874785D01*
X54096757Y-49114375D01*
X54096758Y-49114378D01*
X54211133Y-49338847D01*
X54359202Y-49542648D01*
X54359206Y-49542653D01*
X54537346Y-49720793D01*
X54537351Y-49720797D01*
X54660395Y-49810193D01*
X54741156Y-49868869D01*
X54887890Y-49943634D01*
X54965621Y-49983241D01*
X54965624Y-49983242D01*
X55085419Y-50022165D01*
X55205216Y-50061089D01*
X55454038Y-50100499D01*
X55454039Y-50100499D01*
X55705961Y-50100499D01*
X55705962Y-50100499D01*
X55954784Y-50061089D01*
X56194378Y-49983241D01*
X56418844Y-49868869D01*
X56622655Y-49720792D01*
X56800792Y-49542655D01*
X56948869Y-49338844D01*
X57063241Y-49114378D01*
X57141089Y-48874784D01*
X57180499Y-48625962D01*
X57180499Y-48374038D01*
X57141089Y-48125216D01*
X57063241Y-47885622D01*
X57063241Y-47885621D01*
X57013978Y-47788939D01*
X56948869Y-47661156D01*
X56929951Y-47635118D01*
X56800797Y-47457351D01*
X56800793Y-47457346D01*
X56622653Y-47279206D01*
X56622648Y-47279202D01*
X56418847Y-47131133D01*
X56418846Y-47131132D01*
X56418844Y-47131131D01*
X56316367Y-47078916D01*
X56194378Y-47016758D01*
X56194375Y-47016757D01*
X55954785Y-46938911D01*
X55830373Y-46919206D01*
X55705962Y-46899501D01*
X55454038Y-46899501D01*
X55371097Y-46912637D01*
X55205214Y-46938911D01*
X54965624Y-47016757D01*
X54965615Y-47016761D01*
X54868939Y-47066020D01*
X54800270Y-47078916D01*
X54735530Y-47052639D01*
X54724964Y-47043216D01*
X51814519Y-44132771D01*
X51781034Y-44071448D01*
X51778200Y-44045090D01*
X51778200Y-40519310D01*
X51797885Y-40452271D01*
X51850689Y-40406516D01*
X51919847Y-40396572D01*
X51983403Y-40425597D01*
X51989881Y-40431629D01*
X59203216Y-47644964D01*
X59236701Y-47706287D01*
X59231717Y-47775979D01*
X59226020Y-47788939D01*
X59176761Y-47885615D01*
X59176757Y-47885624D01*
X59098911Y-48125214D01*
X59059501Y-48374038D01*
X59059501Y-48625961D01*
X59098911Y-48874785D01*
X59176757Y-49114375D01*
X59176758Y-49114378D01*
X59291133Y-49338847D01*
X59439202Y-49542648D01*
X59439206Y-49542653D01*
X59617346Y-49720793D01*
X59617351Y-49720797D01*
X59740395Y-49810193D01*
X59821156Y-49868869D01*
X59967890Y-49943634D01*
X60045621Y-49983241D01*
X60045624Y-49983242D01*
X60165419Y-50022165D01*
X60285216Y-50061089D01*
X60534038Y-50100499D01*
X60534039Y-50100499D01*
X60785961Y-50100499D01*
X60785962Y-50100499D01*
X61034784Y-50061089D01*
X61274378Y-49983241D01*
X61498844Y-49868869D01*
X61702655Y-49720792D01*
X61880792Y-49542655D01*
X62028869Y-49338844D01*
X62143241Y-49114378D01*
X62221089Y-48874784D01*
X62260499Y-48625962D01*
X62260499Y-48374038D01*
X62221089Y-48125216D01*
X62143241Y-47885622D01*
X62143241Y-47885621D01*
X62093978Y-47788939D01*
X62028869Y-47661156D01*
X62009951Y-47635118D01*
X61880797Y-47457351D01*
X61880793Y-47457346D01*
X61702653Y-47279206D01*
X61702648Y-47279202D01*
X61498847Y-47131133D01*
X61498846Y-47131132D01*
X61498844Y-47131131D01*
X61396367Y-47078916D01*
X61274378Y-47016758D01*
X61274375Y-47016757D01*
X61034785Y-46938911D01*
X60910373Y-46919206D01*
X60785962Y-46899501D01*
X60534038Y-46899501D01*
X60451097Y-46912637D01*
X60285214Y-46938911D01*
X60045624Y-47016757D01*
X60045615Y-47016761D01*
X59948939Y-47066020D01*
X59880270Y-47078916D01*
X59815530Y-47052639D01*
X59804964Y-47043216D01*
X52472819Y-39711071D01*
X52439334Y-39649748D01*
X52436500Y-39623390D01*
X52436500Y-36158895D01*
X56239399Y-36158895D01*
X56266318Y-36294222D01*
X56266321Y-36294232D01*
X56319121Y-36421704D01*
X56319128Y-36421717D01*
X56395785Y-36536441D01*
X56395788Y-36536445D01*
X56493354Y-36634011D01*
X56493358Y-36634014D01*
X56608082Y-36710671D01*
X56608095Y-36710678D01*
X56735567Y-36763478D01*
X56735572Y-36763480D01*
X56735576Y-36763480D01*
X56735577Y-36763481D01*
X56870904Y-36790400D01*
X56870907Y-36790400D01*
X56881224Y-36790400D01*
X56948263Y-36810085D01*
X56968905Y-36826719D01*
X58251959Y-38109772D01*
X58251969Y-38109783D01*
X58256299Y-38114113D01*
X58256300Y-38114114D01*
X58349486Y-38207300D01*
X58463614Y-38273192D01*
X58590907Y-38307300D01*
X58590908Y-38307300D01*
X61573168Y-38307300D01*
X61640207Y-38326985D01*
X61642059Y-38328198D01*
X61724466Y-38383261D01*
X61724472Y-38383264D01*
X61724473Y-38383265D01*
X61842856Y-38432301D01*
X61842860Y-38432301D01*
X61842861Y-38432302D01*
X61968528Y-38457300D01*
X61968531Y-38457300D01*
X62096671Y-38457300D01*
X62181215Y-38440482D01*
X62222344Y-38432301D01*
X62340727Y-38383265D01*
X62447269Y-38312076D01*
X62537876Y-38221469D01*
X62609065Y-38114927D01*
X62658101Y-37996544D01*
X62683100Y-37870869D01*
X62683100Y-37742731D01*
X62683100Y-37742728D01*
X62658102Y-37617061D01*
X62658101Y-37617060D01*
X62658101Y-37617056D01*
X62609065Y-37498673D01*
X62609064Y-37498672D01*
X62609061Y-37498666D01*
X62537876Y-37392131D01*
X62537873Y-37392127D01*
X62447272Y-37301526D01*
X62447268Y-37301523D01*
X62340733Y-37230338D01*
X62340724Y-37230333D01*
X62222344Y-37181299D01*
X62222338Y-37181297D01*
X62096671Y-37156300D01*
X62096669Y-37156300D01*
X61968531Y-37156300D01*
X61968529Y-37156300D01*
X61842861Y-37181297D01*
X61842855Y-37181299D01*
X61724475Y-37230333D01*
X61724466Y-37230338D01*
X61642059Y-37285402D01*
X61575382Y-37306280D01*
X61573168Y-37306300D01*
X58915475Y-37306300D01*
X58848436Y-37286615D01*
X58827794Y-37269981D01*
X57676719Y-36118905D01*
X57643234Y-36057582D01*
X57640400Y-36031224D01*
X57640400Y-36020904D01*
X57613481Y-35885577D01*
X57613480Y-35885576D01*
X57613480Y-35885572D01*
X57586208Y-35819731D01*
X57560678Y-35758095D01*
X57560671Y-35758082D01*
X57484014Y-35643358D01*
X57484011Y-35643354D01*
X57386445Y-35545788D01*
X57386441Y-35545785D01*
X57271717Y-35469128D01*
X57271704Y-35469121D01*
X57144232Y-35416321D01*
X57144222Y-35416318D01*
X57008895Y-35389400D01*
X57008893Y-35389400D01*
X56870907Y-35389400D01*
X56870905Y-35389400D01*
X56735577Y-35416318D01*
X56735567Y-35416321D01*
X56608095Y-35469121D01*
X56608082Y-35469128D01*
X56493358Y-35545785D01*
X56493354Y-35545788D01*
X56395788Y-35643354D01*
X56395785Y-35643358D01*
X56319128Y-35758082D01*
X56319121Y-35758095D01*
X56266321Y-35885567D01*
X56266318Y-35885577D01*
X56239400Y-36020904D01*
X56239400Y-36020907D01*
X56239400Y-36158893D01*
X56239400Y-36158895D01*
X56239399Y-36158895D01*
X52436500Y-36158895D01*
X52436500Y-27175258D01*
X64914500Y-27175258D01*
X64914500Y-27404741D01*
X64936748Y-27573719D01*
X64944452Y-27632238D01*
X64970437Y-27729216D01*
X65003842Y-27853887D01*
X65091650Y-28065876D01*
X65091657Y-28065890D01*
X65094182Y-28070263D01*
X65202257Y-28257456D01*
X65206392Y-28264617D01*
X65346081Y-28446661D01*
X65346089Y-28446670D01*
X65508330Y-28608911D01*
X65508338Y-28608918D01*
X65508339Y-28608919D01*
X65557030Y-28646281D01*
X65690382Y-28748607D01*
X65690385Y-28748608D01*
X65690388Y-28748611D01*
X65889112Y-28863344D01*
X65889117Y-28863346D01*
X65889123Y-28863349D01*
X65951864Y-28889337D01*
X66101113Y-28951158D01*
X66322762Y-29010548D01*
X66550266Y-29040500D01*
X66550273Y-29040500D01*
X66779727Y-29040500D01*
X66779734Y-29040500D01*
X67007238Y-29010548D01*
X67228887Y-28951158D01*
X67440888Y-28863344D01*
X67639612Y-28748611D01*
X67821661Y-28608919D01*
X67821665Y-28608914D01*
X67821670Y-28608911D01*
X67983911Y-28446670D01*
X67983914Y-28446665D01*
X67983919Y-28446661D01*
X68123611Y-28264612D01*
X68238344Y-28065888D01*
X68326158Y-27853887D01*
X68385548Y-27632238D01*
X68415500Y-27404734D01*
X68415500Y-27175266D01*
X68385548Y-26947762D01*
X68326158Y-26726113D01*
X68238344Y-26514112D01*
X68123611Y-26315388D01*
X68123608Y-26315385D01*
X68123607Y-26315382D01*
X67983918Y-26133338D01*
X67983911Y-26133330D01*
X67821670Y-25971089D01*
X67821661Y-25971081D01*
X67639617Y-25831392D01*
X67440890Y-25716657D01*
X67440876Y-25716650D01*
X67228887Y-25628842D01*
X67223035Y-25627274D01*
X67007238Y-25569452D01*
X66969215Y-25564446D01*
X66779741Y-25539500D01*
X66779734Y-25539500D01*
X66550266Y-25539500D01*
X66550258Y-25539500D01*
X66333715Y-25568009D01*
X66322762Y-25569452D01*
X66229076Y-25594554D01*
X66101112Y-25628842D01*
X65889123Y-25716650D01*
X65889109Y-25716657D01*
X65690382Y-25831392D01*
X65508338Y-25971081D01*
X65346081Y-26133338D01*
X65206392Y-26315382D01*
X65091657Y-26514109D01*
X65091650Y-26514123D01*
X65003842Y-26726112D01*
X64944453Y-26947759D01*
X64944451Y-26947770D01*
X64914500Y-27175258D01*
X52436500Y-27175258D01*
X52436500Y-22464507D01*
X52456185Y-22397468D01*
X52472820Y-22376825D01*
X52516273Y-22333372D01*
X52516276Y-22333369D01*
X52587465Y-22226827D01*
X52636501Y-22108444D01*
X52661500Y-21982769D01*
X52661500Y-21854631D01*
X52661500Y-21854628D01*
X52636502Y-21728961D01*
X52636501Y-21728960D01*
X52636501Y-21728956D01*
X52587465Y-21610573D01*
X52587464Y-21610572D01*
X52587461Y-21610566D01*
X52516276Y-21504031D01*
X52516273Y-21504027D01*
X52425669Y-21413423D01*
X52371374Y-21377145D01*
X52326569Y-21323533D01*
X52317862Y-21254208D01*
X52348016Y-21191181D01*
X52352565Y-21186381D01*
X52918106Y-20620840D01*
X52979427Y-20587357D01*
X53049119Y-20592341D01*
X53093469Y-20620845D01*
X53406625Y-20934024D01*
X53667382Y-21194800D01*
X53675284Y-21202702D01*
X53708767Y-21264026D01*
X53711600Y-21290380D01*
X53711600Y-21351869D01*
X53711600Y-21351871D01*
X53711599Y-21351871D01*
X53736597Y-21477538D01*
X53736599Y-21477544D01*
X53785633Y-21595924D01*
X53785638Y-21595933D01*
X53856823Y-21702468D01*
X53856826Y-21702472D01*
X53947427Y-21793073D01*
X53947431Y-21793076D01*
X54053966Y-21864261D01*
X54053972Y-21864264D01*
X54053973Y-21864265D01*
X54172356Y-21913301D01*
X54172360Y-21913301D01*
X54172361Y-21913302D01*
X54298028Y-21938300D01*
X54298031Y-21938300D01*
X54426171Y-21938300D01*
X54510715Y-21921482D01*
X54551844Y-21913301D01*
X54670227Y-21864265D01*
X54776769Y-21793076D01*
X54867376Y-21702469D01*
X54938565Y-21595927D01*
X54987601Y-21477544D01*
X55012600Y-21351869D01*
X55012600Y-21223731D01*
X55012600Y-21223728D01*
X54987602Y-21098061D01*
X54987601Y-21098060D01*
X54987601Y-21098056D01*
X54938565Y-20979673D01*
X54938564Y-20979672D01*
X54938561Y-20979666D01*
X54867376Y-20873131D01*
X54867373Y-20873127D01*
X54776772Y-20782526D01*
X54776768Y-20782523D01*
X54670233Y-20711338D01*
X54670224Y-20711333D01*
X54551844Y-20662299D01*
X54551838Y-20662297D01*
X54426171Y-20637300D01*
X54426169Y-20637300D01*
X54364740Y-20637300D01*
X54297701Y-20617615D01*
X54277055Y-20600978D01*
X53423815Y-19747674D01*
X53390333Y-19686350D01*
X53387500Y-19659996D01*
X53387500Y-16362358D01*
X60750000Y-16362358D01*
X60750000Y-16637641D01*
X60785930Y-16910565D01*
X60857180Y-17176471D01*
X60962520Y-17430787D01*
X60962527Y-17430802D01*
X61100166Y-17669200D01*
X61229459Y-17837697D01*
X62159941Y-16907216D01*
X62228599Y-17009970D01*
X62340030Y-17121401D01*
X62442783Y-17190058D01*
X61512301Y-18120539D01*
X61680803Y-18249836D01*
X61919197Y-18387472D01*
X61919212Y-18387479D01*
X62141581Y-18479586D01*
X62195985Y-18523426D01*
X62218050Y-18589720D01*
X62200771Y-18657420D01*
X62149634Y-18705031D01*
X62141583Y-18708708D01*
X62074113Y-18736655D01*
X62074109Y-18736657D01*
X61875382Y-18851392D01*
X61693338Y-18991081D01*
X61531081Y-19153338D01*
X61391392Y-19335382D01*
X61276657Y-19534109D01*
X61276650Y-19534123D01*
X61188842Y-19746112D01*
X61129453Y-19967759D01*
X61129451Y-19967770D01*
X61099500Y-20195258D01*
X61099500Y-20424741D01*
X61115585Y-20546909D01*
X61129452Y-20652238D01*
X61183816Y-20855131D01*
X61188842Y-20873887D01*
X61276650Y-21085876D01*
X61276657Y-21085890D01*
X61336592Y-21189700D01*
X61386122Y-21275490D01*
X61391392Y-21284617D01*
X61531081Y-21466661D01*
X61531089Y-21466670D01*
X61693330Y-21628911D01*
X61693338Y-21628918D01*
X61875382Y-21768607D01*
X61875385Y-21768608D01*
X61875388Y-21768611D01*
X62074112Y-21883344D01*
X62074117Y-21883346D01*
X62074123Y-21883349D01*
X62188774Y-21930839D01*
X62284127Y-21970335D01*
X62338531Y-22014176D01*
X62360596Y-22080470D01*
X62343317Y-22148169D01*
X62292180Y-22195780D01*
X62268769Y-22204670D01*
X62205581Y-22221602D01*
X62205579Y-22221602D01*
X62205578Y-22221603D01*
X62205571Y-22221605D01*
X61963309Y-22321953D01*
X61963299Y-22321958D01*
X61736196Y-22453075D01*
X61528148Y-22612718D01*
X61342718Y-22798148D01*
X61183075Y-23006196D01*
X61051958Y-23233299D01*
X61051953Y-23233309D01*
X60951605Y-23475571D01*
X60951602Y-23475581D01*
X60912262Y-23622403D01*
X60883730Y-23728885D01*
X60849500Y-23988872D01*
X60849500Y-24251127D01*
X60872578Y-24426412D01*
X60883730Y-24511116D01*
X60951602Y-24764418D01*
X60951605Y-24764428D01*
X61051953Y-25006690D01*
X61051958Y-25006700D01*
X61183075Y-25233803D01*
X61342718Y-25441851D01*
X61342726Y-25441860D01*
X61528140Y-25627274D01*
X61528148Y-25627281D01*
X61528149Y-25627282D01*
X61534188Y-25631916D01*
X61736196Y-25786924D01*
X61963299Y-25918041D01*
X61963309Y-25918046D01*
X62164747Y-26001484D01*
X62205581Y-26018398D01*
X62458884Y-26086270D01*
X62718880Y-26120500D01*
X62718887Y-26120500D01*
X62981113Y-26120500D01*
X62981120Y-26120500D01*
X63241116Y-26086270D01*
X63494419Y-26018398D01*
X63681750Y-25940803D01*
X63736690Y-25918046D01*
X63736691Y-25918045D01*
X63736697Y-25918043D01*
X63963803Y-25786924D01*
X64171851Y-25627282D01*
X64171855Y-25627277D01*
X64171860Y-25627274D01*
X64357274Y-25441860D01*
X64357277Y-25441855D01*
X64357282Y-25441851D01*
X64516924Y-25233803D01*
X64648043Y-25006697D01*
X64748398Y-24764419D01*
X64816270Y-24511116D01*
X64850500Y-24251120D01*
X64850500Y-24016530D01*
X70059500Y-24016530D01*
X70059500Y-24223469D01*
X70099868Y-24426412D01*
X70099870Y-24426420D01*
X70169176Y-24593740D01*
X70179059Y-24617598D01*
X70199739Y-24648548D01*
X70294024Y-24789657D01*
X70440342Y-24935975D01*
X70440345Y-24935977D01*
X70612402Y-25050941D01*
X70803580Y-25130130D01*
X71006530Y-25170499D01*
X71006534Y-25170500D01*
X71006535Y-25170500D01*
X71213466Y-25170500D01*
X71213467Y-25170499D01*
X71416420Y-25130130D01*
X71607598Y-25050941D01*
X71779655Y-24935977D01*
X71925977Y-24789655D01*
X72040941Y-24617598D01*
X72120130Y-24426420D01*
X72160500Y-24223465D01*
X72160500Y-24016535D01*
X72120130Y-23813580D01*
X72040941Y-23622402D01*
X71925977Y-23450345D01*
X71925975Y-23450342D01*
X71779657Y-23304024D01*
X71628543Y-23203054D01*
X71607598Y-23189059D01*
X71514506Y-23150499D01*
X71416420Y-23109870D01*
X71416412Y-23109868D01*
X71213469Y-23069500D01*
X71213465Y-23069500D01*
X71006535Y-23069500D01*
X71006530Y-23069500D01*
X70803587Y-23109868D01*
X70803579Y-23109870D01*
X70612403Y-23189058D01*
X70440342Y-23304024D01*
X70294024Y-23450342D01*
X70179058Y-23622403D01*
X70099870Y-23813579D01*
X70099868Y-23813587D01*
X70059500Y-24016530D01*
X64850500Y-24016530D01*
X64850500Y-23988880D01*
X64816270Y-23728884D01*
X64748398Y-23475581D01*
X64737944Y-23450342D01*
X64648046Y-23233309D01*
X64648041Y-23233299D01*
X64516924Y-23006196D01*
X64357281Y-22798148D01*
X64357274Y-22798140D01*
X64171860Y-22612726D01*
X64171851Y-22612718D01*
X63963803Y-22453075D01*
X63736700Y-22321958D01*
X63736690Y-22321953D01*
X63494428Y-22221605D01*
X63494421Y-22221603D01*
X63494422Y-22221603D01*
X63494419Y-22221602D01*
X63431228Y-22204670D01*
X63371570Y-22168306D01*
X63341041Y-22105459D01*
X63349336Y-22036083D01*
X63393821Y-21982205D01*
X63415865Y-21970338D01*
X63625888Y-21883344D01*
X63824612Y-21768611D01*
X64006661Y-21628919D01*
X64006665Y-21628914D01*
X64006670Y-21628911D01*
X64168911Y-21466670D01*
X64168914Y-21466665D01*
X64168919Y-21466661D01*
X64308611Y-21284612D01*
X64423344Y-21085888D01*
X64511158Y-20873887D01*
X64570548Y-20652238D01*
X64600500Y-20424734D01*
X64600500Y-20195266D01*
X64600499Y-20195258D01*
X64914500Y-20195258D01*
X64914500Y-20424741D01*
X64930585Y-20546909D01*
X64944452Y-20652238D01*
X64998816Y-20855131D01*
X65003842Y-20873887D01*
X65091650Y-21085876D01*
X65091657Y-21085890D01*
X65151592Y-21189700D01*
X65201122Y-21275490D01*
X65206392Y-21284617D01*
X65346081Y-21466661D01*
X65346089Y-21466670D01*
X65508330Y-21628911D01*
X65508338Y-21628918D01*
X65690382Y-21768607D01*
X65690385Y-21768608D01*
X65690388Y-21768611D01*
X65889112Y-21883344D01*
X65889117Y-21883346D01*
X65889123Y-21883349D01*
X65961432Y-21913300D01*
X66101113Y-21971158D01*
X66322762Y-22030548D01*
X66550266Y-22060500D01*
X66550273Y-22060500D01*
X66779727Y-22060500D01*
X66779734Y-22060500D01*
X67007238Y-22030548D01*
X67228887Y-21971158D01*
X67440888Y-21883344D01*
X67639612Y-21768611D01*
X67821661Y-21628919D01*
X67821665Y-21628914D01*
X67821670Y-21628911D01*
X67983911Y-21466670D01*
X67983914Y-21466665D01*
X67983919Y-21466661D01*
X68123611Y-21284612D01*
X68238344Y-21085888D01*
X68326158Y-20873887D01*
X68385548Y-20652238D01*
X68415500Y-20424734D01*
X68415500Y-20195266D01*
X68385548Y-19967762D01*
X68326158Y-19746113D01*
X68256031Y-19576811D01*
X68238349Y-19534123D01*
X68238346Y-19534117D01*
X68238344Y-19534112D01*
X68123611Y-19335388D01*
X68123608Y-19335385D01*
X68123607Y-19335382D01*
X67983918Y-19153338D01*
X67983911Y-19153330D01*
X67821670Y-18991089D01*
X67821661Y-18991081D01*
X67639617Y-18851392D01*
X67440890Y-18736657D01*
X67440876Y-18736650D01*
X67228887Y-18648842D01*
X67176145Y-18634710D01*
X67007238Y-18589452D01*
X66969215Y-18584446D01*
X66779741Y-18559500D01*
X66779734Y-18559500D01*
X66550266Y-18559500D01*
X66550258Y-18559500D01*
X66333715Y-18588009D01*
X66322762Y-18589452D01*
X66239111Y-18611866D01*
X66101112Y-18648842D01*
X65889123Y-18736650D01*
X65889109Y-18736657D01*
X65690382Y-18851392D01*
X65508338Y-18991081D01*
X65346081Y-19153338D01*
X65206392Y-19335382D01*
X65091657Y-19534109D01*
X65091650Y-19534123D01*
X65003842Y-19746112D01*
X64944453Y-19967759D01*
X64944451Y-19967770D01*
X64914500Y-20195258D01*
X64600499Y-20195258D01*
X64570548Y-19967762D01*
X64511158Y-19746113D01*
X64441031Y-19576811D01*
X64423349Y-19534123D01*
X64423346Y-19534117D01*
X64423344Y-19534112D01*
X64308611Y-19335388D01*
X64308608Y-19335385D01*
X64308607Y-19335382D01*
X64168918Y-19153338D01*
X64168911Y-19153330D01*
X64006670Y-18991089D01*
X64006661Y-18991081D01*
X63824617Y-18851392D01*
X63625890Y-18736657D01*
X63625881Y-18736652D01*
X63558417Y-18708708D01*
X63504014Y-18664867D01*
X63481949Y-18598572D01*
X63499228Y-18530873D01*
X63550366Y-18483263D01*
X63558418Y-18479586D01*
X63780787Y-18387479D01*
X63780802Y-18387472D01*
X64019195Y-18249836D01*
X64187697Y-18120539D01*
X63257216Y-17190058D01*
X63359970Y-17121401D01*
X63471401Y-17009970D01*
X63540058Y-16907216D01*
X64470539Y-17837697D01*
X64599836Y-17669195D01*
X64737472Y-17430802D01*
X64737479Y-17430787D01*
X64842819Y-17176471D01*
X64914069Y-16910565D01*
X64950000Y-16637641D01*
X64950000Y-16396530D01*
X75139500Y-16396530D01*
X75139500Y-16603469D01*
X75179868Y-16806412D01*
X75179870Y-16806420D01*
X75223008Y-16910565D01*
X75259059Y-16997598D01*
X75306624Y-17068785D01*
X75374024Y-17169657D01*
X75520342Y-17315975D01*
X75520345Y-17315977D01*
X75692402Y-17430941D01*
X75883580Y-17510130D01*
X76086530Y-17550499D01*
X76086534Y-17550500D01*
X76086535Y-17550500D01*
X76293466Y-17550500D01*
X76293467Y-17550499D01*
X76496420Y-17510130D01*
X76687598Y-17430941D01*
X76859655Y-17315977D01*
X77005977Y-17169655D01*
X77120941Y-16997598D01*
X77200130Y-16806420D01*
X77240500Y-16603465D01*
X77240500Y-16396535D01*
X77200130Y-16193580D01*
X77120941Y-16002402D01*
X77005977Y-15830345D01*
X77005975Y-15830342D01*
X76859657Y-15684024D01*
X76773626Y-15626541D01*
X76687598Y-15569059D01*
X76649212Y-15553159D01*
X76496420Y-15489870D01*
X76496412Y-15489868D01*
X76293469Y-15449500D01*
X76293465Y-15449500D01*
X76086535Y-15449500D01*
X76086530Y-15449500D01*
X75883587Y-15489868D01*
X75883579Y-15489870D01*
X75692403Y-15569058D01*
X75520342Y-15684024D01*
X75374024Y-15830342D01*
X75259058Y-16002403D01*
X75179870Y-16193579D01*
X75179868Y-16193587D01*
X75139500Y-16396530D01*
X64950000Y-16396530D01*
X64950000Y-16362358D01*
X64914069Y-16089434D01*
X64842819Y-15823528D01*
X64737479Y-15569212D01*
X64737472Y-15569197D01*
X64599836Y-15330803D01*
X64470539Y-15162301D01*
X63540058Y-16092782D01*
X63471401Y-15990030D01*
X63359970Y-15878599D01*
X63257216Y-15809941D01*
X64187697Y-14879459D01*
X64187697Y-14879458D01*
X64019200Y-14750166D01*
X63780802Y-14612527D01*
X63780787Y-14612520D01*
X63526471Y-14507180D01*
X63260565Y-14435930D01*
X62987642Y-14400000D01*
X62712358Y-14400000D01*
X62439434Y-14435930D01*
X62173528Y-14507180D01*
X61919212Y-14612520D01*
X61919197Y-14612527D01*
X61680799Y-14750166D01*
X61512301Y-14879458D01*
X61512301Y-14879459D01*
X62442783Y-15809941D01*
X62340030Y-15878599D01*
X62228599Y-15990030D01*
X62159941Y-16092783D01*
X61229459Y-15162301D01*
X61229458Y-15162301D01*
X61100166Y-15330799D01*
X60962527Y-15569197D01*
X60962520Y-15569212D01*
X60857180Y-15823528D01*
X60785930Y-16089434D01*
X60750000Y-16362358D01*
X53387500Y-16362358D01*
X53387500Y-13029384D01*
X53387500Y-13029382D01*
X53358503Y-12921163D01*
X53302485Y-12824137D01*
X53223263Y-12744915D01*
X52515919Y-12037571D01*
X52501215Y-12010643D01*
X52484623Y-11984825D01*
X52483731Y-11978624D01*
X52482434Y-11976248D01*
X52479600Y-11949890D01*
X52479600Y-11945258D01*
X71269500Y-11945258D01*
X71269500Y-12174741D01*
X71293164Y-12354475D01*
X71299452Y-12402238D01*
X71318374Y-12472855D01*
X71358842Y-12623887D01*
X71446650Y-12835876D01*
X71446656Y-12835888D01*
X71558369Y-13029382D01*
X71561392Y-13034617D01*
X71701081Y-13216661D01*
X71701089Y-13216670D01*
X71863330Y-13378911D01*
X71863338Y-13378918D01*
X72045382Y-13518607D01*
X72045385Y-13518608D01*
X72045388Y-13518611D01*
X72244112Y-13633344D01*
X72244117Y-13633346D01*
X72244123Y-13633349D01*
X72335480Y-13671190D01*
X72456113Y-13721158D01*
X72677762Y-13780548D01*
X72905266Y-13810500D01*
X72905273Y-13810500D01*
X73134727Y-13810500D01*
X73134734Y-13810500D01*
X73362238Y-13780548D01*
X73583887Y-13721158D01*
X73795888Y-13633344D01*
X73994612Y-13518611D01*
X74176661Y-13378919D01*
X74176665Y-13378914D01*
X74176670Y-13378911D01*
X74338911Y-13216670D01*
X74338914Y-13216665D01*
X74338919Y-13216661D01*
X74478611Y-13034612D01*
X74593344Y-12835888D01*
X74681158Y-12623887D01*
X74740548Y-12402238D01*
X74770500Y-12174734D01*
X74770500Y-11945266D01*
X74740548Y-11717762D01*
X74681158Y-11496113D01*
X74617270Y-11341875D01*
X74593349Y-11284123D01*
X74593346Y-11284117D01*
X74593344Y-11284112D01*
X74478611Y-11085388D01*
X74478608Y-11085385D01*
X74478607Y-11085382D01*
X74355855Y-10925410D01*
X74338919Y-10903339D01*
X74338918Y-10903338D01*
X74338911Y-10903330D01*
X74176670Y-10741089D01*
X74176661Y-10741081D01*
X73994617Y-10601392D01*
X73931937Y-10565204D01*
X73795888Y-10486656D01*
X73795876Y-10486650D01*
X73583887Y-10398842D01*
X73362238Y-10339452D01*
X73324215Y-10334446D01*
X73134741Y-10309500D01*
X73134734Y-10309500D01*
X72905266Y-10309500D01*
X72905258Y-10309500D01*
X72688715Y-10338009D01*
X72677762Y-10339452D01*
X72584076Y-10364554D01*
X72456112Y-10398842D01*
X72244123Y-10486650D01*
X72244109Y-10486657D01*
X72045382Y-10601392D01*
X71863338Y-10741081D01*
X71701081Y-10903338D01*
X71561392Y-11085382D01*
X71446657Y-11284109D01*
X71446650Y-11284123D01*
X71358842Y-11496112D01*
X71299453Y-11717759D01*
X71299451Y-11717770D01*
X71269500Y-11945258D01*
X52479600Y-11945258D01*
X52479600Y-11888428D01*
X52454602Y-11762761D01*
X52454601Y-11762760D01*
X52454601Y-11762756D01*
X52405565Y-11644373D01*
X52405564Y-11644372D01*
X52405561Y-11644366D01*
X52334376Y-11537831D01*
X52334373Y-11537827D01*
X52243772Y-11447226D01*
X52243768Y-11447223D01*
X52137233Y-11376038D01*
X52137224Y-11376033D01*
X52018844Y-11326999D01*
X52018838Y-11326997D01*
X51893171Y-11302000D01*
X51893169Y-11302000D01*
X51765031Y-11302000D01*
X51765029Y-11302000D01*
X51639361Y-11326997D01*
X51639355Y-11326999D01*
X51520975Y-11376033D01*
X51520966Y-11376038D01*
X51414431Y-11447223D01*
X51414427Y-11447226D01*
X51323826Y-11537827D01*
X51323823Y-11537831D01*
X51252638Y-11644366D01*
X51252633Y-11644375D01*
X51203599Y-11762755D01*
X51203597Y-11762761D01*
X51178600Y-11888428D01*
X51178600Y-11888431D01*
X51178600Y-12016569D01*
X51178600Y-12016571D01*
X51178599Y-12016571D01*
X51203597Y-12142238D01*
X51203599Y-12142244D01*
X51252633Y-12260624D01*
X51252638Y-12260633D01*
X51323823Y-12367168D01*
X51323826Y-12367172D01*
X51414427Y-12457773D01*
X51414431Y-12457776D01*
X51520966Y-12528961D01*
X51520972Y-12528964D01*
X51520973Y-12528965D01*
X51639356Y-12578001D01*
X51639360Y-12578001D01*
X51639361Y-12578002D01*
X51765028Y-12603000D01*
X51765031Y-12603000D01*
X51826490Y-12603000D01*
X51893529Y-12622685D01*
X51914171Y-12639319D01*
X52500181Y-13225329D01*
X52533666Y-13286652D01*
X52536500Y-13313010D01*
X52536500Y-19747590D01*
X52516815Y-19814629D01*
X52500181Y-19835271D01*
X51012217Y-21323234D01*
X51012213Y-21323240D01*
X50956198Y-21420260D01*
X50956197Y-21420263D01*
X50927200Y-21528482D01*
X48650499Y-21528482D01*
X48650499Y-21105143D01*
X48650499Y-21105136D01*
X48649678Y-21098055D01*
X48647586Y-21080012D01*
X48647585Y-21080010D01*
X48647585Y-21080009D01*
X48602206Y-20977235D01*
X48522765Y-20897794D01*
X48468621Y-20873887D01*
X48419992Y-20852415D01*
X48394868Y-20849500D01*
X48394865Y-20849500D01*
X48375975Y-20849500D01*
X48308936Y-20829815D01*
X48263181Y-20777011D01*
X48253237Y-20707853D01*
X48282262Y-20644297D01*
X48288294Y-20637819D01*
X48649803Y-20276310D01*
X49298699Y-19627415D01*
X49308445Y-19610536D01*
X49364592Y-19513286D01*
X49378263Y-19462264D01*
X49398700Y-19385993D01*
X49398700Y-19254208D01*
X49398700Y-11175718D01*
X49418385Y-11108679D01*
X49435023Y-11088033D01*
X49437674Y-11085382D01*
X49442314Y-11080742D01*
X49518975Y-10966011D01*
X49571780Y-10838528D01*
X49598700Y-10703193D01*
X49598700Y-10565207D01*
X49598700Y-10565204D01*
X49571781Y-10429877D01*
X49571780Y-10429876D01*
X49571780Y-10429872D01*
X49558927Y-10398842D01*
X49518978Y-10302395D01*
X49518971Y-10302382D01*
X49442314Y-10187658D01*
X49442311Y-10187654D01*
X49344745Y-10090088D01*
X49344741Y-10090085D01*
X49230017Y-10013428D01*
X49230004Y-10013421D01*
X49102532Y-9960621D01*
X49102522Y-9960618D01*
X48967195Y-9933700D01*
X48967193Y-9933700D01*
X48829207Y-9933700D01*
X48829205Y-9933700D01*
X48693877Y-9960618D01*
X48693867Y-9960621D01*
X48566395Y-10013421D01*
X48566382Y-10013428D01*
X48451658Y-10090085D01*
X48451654Y-10090088D01*
X48354088Y-10187654D01*
X48354085Y-10187658D01*
X48277428Y-10302382D01*
X48277421Y-10302395D01*
X48224621Y-10429867D01*
X48224618Y-10429877D01*
X48197700Y-10565204D01*
X48197700Y-10565207D01*
X48197700Y-10703193D01*
X48197700Y-10703195D01*
X48197699Y-10703195D01*
X48224618Y-10838522D01*
X48224621Y-10838532D01*
X48277421Y-10966004D01*
X48277428Y-10966017D01*
X48354085Y-11080741D01*
X48361377Y-11088033D01*
X48394865Y-11149355D01*
X48397700Y-11175718D01*
X48397700Y-19061424D01*
X48378015Y-19128463D01*
X48361381Y-19149105D01*
X47099502Y-20410983D01*
X47099500Y-20410986D01*
X47033608Y-20525112D01*
X46999500Y-20652408D01*
X46999500Y-20725500D01*
X46979815Y-20792539D01*
X46927011Y-20838294D01*
X46875500Y-20849500D01*
X46605143Y-20849500D01*
X46605117Y-20849502D01*
X46580012Y-20852413D01*
X46580008Y-20852415D01*
X46477235Y-20897793D01*
X46397794Y-20977234D01*
X46352415Y-21080006D01*
X46352415Y-21080008D01*
X46349500Y-21105131D01*
X46349500Y-22894856D01*
X46349502Y-22894882D01*
X46352413Y-22919987D01*
X46352415Y-22919991D01*
X46397793Y-23022764D01*
X46397794Y-23022765D01*
X46477235Y-23102206D01*
X46580009Y-23147585D01*
X46605135Y-23150500D01*
X46957191Y-23150499D01*
X47024228Y-23170183D01*
X47069983Y-23222987D01*
X47079927Y-23292146D01*
X47050902Y-23355701D01*
X47013484Y-23384984D01*
X46844855Y-23470905D01*
X46844846Y-23470911D01*
X46768919Y-23526075D01*
X46768918Y-23526076D01*
X47314822Y-24071980D01*
X47307007Y-24074075D01*
X47192993Y-24139901D01*
X47099901Y-24232993D01*
X47034075Y-24347007D01*
X47031980Y-24354822D01*
X46486076Y-23808918D01*
X46486075Y-23808919D01*
X46430911Y-23884846D01*
X46430905Y-23884855D01*
X46341581Y-24060164D01*
X46280778Y-24247294D01*
X46250000Y-24441617D01*
X46250000Y-24638382D01*
X46280778Y-24832705D01*
X46326365Y-24973006D01*
X46328360Y-25042847D01*
X46292280Y-25102680D01*
X46229579Y-25133508D01*
X46160165Y-25125543D01*
X46120753Y-25099005D01*
X45731619Y-24709871D01*
X45698134Y-24648548D01*
X45695300Y-24622190D01*
X45695300Y-17645684D01*
X45695300Y-17645682D01*
X45666303Y-17537463D01*
X45610285Y-17440437D01*
X45531063Y-17361215D01*
X43258619Y-15088771D01*
X43225134Y-15027448D01*
X43222300Y-15001090D01*
X43222300Y-10886877D01*
X43241985Y-10819838D01*
X43294789Y-10774083D01*
X43363947Y-10764139D01*
X43427503Y-10793164D01*
X43449402Y-10817986D01*
X43508123Y-10905868D01*
X43508126Y-10905872D01*
X43598727Y-10996473D01*
X43598731Y-10996476D01*
X43705266Y-11067661D01*
X43705275Y-11067666D01*
X43732092Y-11078774D01*
X43823656Y-11116701D01*
X43823660Y-11116701D01*
X43823661Y-11116702D01*
X43949328Y-11141700D01*
X43949331Y-11141700D01*
X44077468Y-11141700D01*
X44077469Y-11141700D01*
X44102608Y-11136699D01*
X44172197Y-11142925D01*
X44227375Y-11185786D01*
X44250622Y-11251675D01*
X44250800Y-11258316D01*
X44250800Y-14207892D01*
X44231115Y-14274931D01*
X44214481Y-14295573D01*
X44171026Y-14339027D01*
X44171023Y-14339031D01*
X44099838Y-14445566D01*
X44099833Y-14445575D01*
X44050799Y-14563955D01*
X44050797Y-14563961D01*
X44025800Y-14689628D01*
X44025800Y-14689631D01*
X44025800Y-14817769D01*
X44025800Y-14817771D01*
X44025799Y-14817771D01*
X44050797Y-14943438D01*
X44050799Y-14943444D01*
X44099833Y-15061824D01*
X44099838Y-15061833D01*
X44171023Y-15168368D01*
X44171026Y-15168372D01*
X44261627Y-15258973D01*
X44261631Y-15258976D01*
X44368166Y-15330161D01*
X44368175Y-15330166D01*
X44369713Y-15330803D01*
X44486556Y-15379201D01*
X44486560Y-15379201D01*
X44486561Y-15379202D01*
X44612228Y-15404200D01*
X44612231Y-15404200D01*
X44740371Y-15404200D01*
X44824915Y-15387382D01*
X44866044Y-15379201D01*
X44984427Y-15330165D01*
X45090969Y-15258976D01*
X45181576Y-15168369D01*
X45252765Y-15061827D01*
X45301801Y-14943444D01*
X45314529Y-14879458D01*
X45326800Y-14817771D01*
X45326800Y-14689628D01*
X45301802Y-14563961D01*
X45301801Y-14563960D01*
X45301801Y-14563956D01*
X45252765Y-14445573D01*
X45252764Y-14445572D01*
X45252761Y-14445566D01*
X45181576Y-14339031D01*
X45181573Y-14339027D01*
X45138119Y-14295573D01*
X45104634Y-14234250D01*
X45101800Y-14207892D01*
X45101800Y-8296383D01*
X45101800Y-8296382D01*
X45097549Y-8280518D01*
X45072803Y-8188163D01*
X45016785Y-8091137D01*
X40718763Y-3793115D01*
X40621737Y-3737097D01*
X40513518Y-3708100D01*
X34904018Y-3708100D01*
X34791981Y-3708100D01*
X34683763Y-3737097D01*
X34683761Y-3737098D01*
X34683760Y-3737098D01*
X34586740Y-3793113D01*
X34586734Y-3793117D01*
X34529842Y-3850010D01*
X34507515Y-3872337D01*
X34507513Y-3872339D01*
X32494342Y-5885510D01*
X30478396Y-7901455D01*
X30478395Y-7901455D01*
X30478396Y-7901456D01*
X30416614Y-7963238D01*
X30416613Y-7963240D01*
X30360598Y-8060260D01*
X30360597Y-8060263D01*
X30331600Y-8168482D01*
X30331600Y-15064290D01*
X30322955Y-15093730D01*
X30316432Y-15123717D01*
X30312677Y-15128732D01*
X30311915Y-15131329D01*
X30295281Y-15151971D01*
X30161671Y-15285581D01*
X30100348Y-15319066D01*
X30073990Y-15321900D01*
X28143310Y-15321900D01*
X28076271Y-15302215D01*
X28055629Y-15285581D01*
X25517719Y-12747671D01*
X25484234Y-12686348D01*
X25481400Y-12659990D01*
X25481400Y-12598528D01*
X25456402Y-12472861D01*
X25456401Y-12472860D01*
X25456401Y-12472856D01*
X25412624Y-12367169D01*
X25407366Y-12354475D01*
X25407361Y-12354466D01*
X25336176Y-12247931D01*
X25336173Y-12247927D01*
X25245572Y-12157326D01*
X25245568Y-12157323D01*
X25139033Y-12086138D01*
X25139024Y-12086133D01*
X25020644Y-12037099D01*
X25020638Y-12037097D01*
X24894971Y-12012100D01*
X24894969Y-12012100D01*
X24766831Y-12012100D01*
X24766826Y-12012100D01*
X24691191Y-12027145D01*
X24621600Y-12020918D01*
X24566422Y-11978055D01*
X24543178Y-11912165D01*
X24543000Y-11905528D01*
X24543000Y-9249584D01*
X24543000Y-9249582D01*
X24514003Y-9141363D01*
X24457985Y-9044337D01*
X24378763Y-8965115D01*
X23338719Y-7925071D01*
X23305234Y-7863748D01*
X23302400Y-7837390D01*
X23302400Y-7775928D01*
X23277402Y-7650261D01*
X23277401Y-7650260D01*
X23277401Y-7650256D01*
X23231592Y-7539663D01*
X23228366Y-7531875D01*
X23228361Y-7531866D01*
X23157176Y-7425331D01*
X23157173Y-7425327D01*
X23066569Y-7334723D01*
X22965276Y-7267042D01*
X22920471Y-7213430D01*
X22911764Y-7144105D01*
X22941918Y-7081078D01*
X22946486Y-7076258D01*
X22947465Y-7075278D01*
X22947469Y-7075276D01*
X23038076Y-6984669D01*
X23109265Y-6878127D01*
X23158301Y-6759744D01*
X23172109Y-6690328D01*
X23183300Y-6634071D01*
X23183300Y-6505928D01*
X23158302Y-6380261D01*
X23158301Y-6380260D01*
X23158301Y-6380256D01*
X23109265Y-6261873D01*
X23109264Y-6261872D01*
X23109261Y-6261866D01*
X23038076Y-6155331D01*
X23038073Y-6155327D01*
X22947472Y-6064726D01*
X22947468Y-6064723D01*
X22840933Y-5993538D01*
X22840924Y-5993533D01*
X22722544Y-5944499D01*
X22722538Y-5944497D01*
X22596871Y-5919500D01*
X22596869Y-5919500D01*
X22468731Y-5919500D01*
X22468729Y-5919500D01*
X22343061Y-5944497D01*
X22343055Y-5944499D01*
X22224675Y-5993533D01*
X22224666Y-5993538D01*
X22118131Y-6064723D01*
X22118127Y-6064726D01*
X22027526Y-6155327D01*
X22027523Y-6155331D01*
X21956338Y-6261866D01*
X21956333Y-6261875D01*
X21907299Y-6380255D01*
X21907297Y-6380261D01*
X21882300Y-6505928D01*
X21882300Y-6567390D01*
X21862615Y-6634429D01*
X21845981Y-6655071D01*
X21528517Y-6972534D01*
X21528513Y-6972540D01*
X21472498Y-7069560D01*
X21472497Y-7069563D01*
X21443500Y-7177782D01*
X21443500Y-16371590D01*
X21423815Y-16438629D01*
X21371011Y-16484384D01*
X21301853Y-16494328D01*
X21238297Y-16465303D01*
X21231819Y-16459271D01*
X15673265Y-10900717D01*
X15673263Y-10900715D01*
X15576237Y-10844697D01*
X15468018Y-10815700D01*
X15468017Y-10815700D01*
X15156010Y-10815700D01*
X15088971Y-10796015D01*
X15068329Y-10779381D01*
X13947219Y-9658271D01*
X13913734Y-9596948D01*
X13910900Y-9570590D01*
X13910900Y-7931510D01*
X13930585Y-7864471D01*
X13947219Y-7843829D01*
X19621929Y-2169119D01*
X19683252Y-2135634D01*
X19709610Y-2132800D01*
X20163990Y-2132800D01*
X20231029Y-2152485D01*
X20251671Y-2169119D01*
X21844881Y-3762329D01*
X21878366Y-3823652D01*
X21881200Y-3850010D01*
X21881200Y-3911469D01*
X21881200Y-3911471D01*
X21881199Y-3911471D01*
X21906197Y-4037138D01*
X21906199Y-4037144D01*
X21955233Y-4155524D01*
X21955238Y-4155533D01*
X22026423Y-4262068D01*
X22026426Y-4262072D01*
X22117027Y-4352673D01*
X22117031Y-4352676D01*
X22223566Y-4423861D01*
X22223572Y-4423864D01*
X22223573Y-4423865D01*
X22341956Y-4472901D01*
X22341960Y-4472901D01*
X22341961Y-4472902D01*
X22467628Y-4497900D01*
X22467631Y-4497900D01*
X22595771Y-4497900D01*
X22680315Y-4481082D01*
X22721444Y-4472901D01*
X22839827Y-4423865D01*
X22946369Y-4352676D01*
X23036976Y-4262069D01*
X23108165Y-4155527D01*
X23157201Y-4037144D01*
X23182200Y-3911469D01*
X23182200Y-3783331D01*
X23182200Y-3783328D01*
X23157202Y-3657661D01*
X23157201Y-3657660D01*
X23157201Y-3657656D01*
X23108165Y-3539273D01*
X23108164Y-3539272D01*
X23108161Y-3539266D01*
X23044201Y-3443544D01*
X23044200Y-3443542D01*
X23036977Y-3432732D01*
X23036973Y-3432727D01*
X22982957Y-3378711D01*
X74649500Y-3378711D01*
X74649500Y-3621288D01*
X74681161Y-3861785D01*
X74743947Y-4096104D01*
X74836773Y-4320205D01*
X74836776Y-4320212D01*
X74958064Y-4530289D01*
X74958066Y-4530292D01*
X74958067Y-4530293D01*
X75105733Y-4722736D01*
X75105739Y-4722743D01*
X75277256Y-4894260D01*
X75277262Y-4894265D01*
X75469711Y-5041936D01*
X75679788Y-5163224D01*
X75903900Y-5256054D01*
X76138211Y-5318838D01*
X76318586Y-5342584D01*
X76378711Y-5350500D01*
X76378712Y-5350500D01*
X76621289Y-5350500D01*
X76669388Y-5344167D01*
X76861789Y-5318838D01*
X77096100Y-5256054D01*
X77320212Y-5163224D01*
X77530289Y-5041936D01*
X77722738Y-4894265D01*
X77894265Y-4722738D01*
X78041936Y-4530289D01*
X78163224Y-4320212D01*
X78256054Y-4096100D01*
X78318838Y-3861789D01*
X78350500Y-3621288D01*
X78350500Y-3378712D01*
X78318838Y-3138211D01*
X78256054Y-2903900D01*
X78163224Y-2679788D01*
X78041936Y-2469711D01*
X77894265Y-2277262D01*
X77894260Y-2277256D01*
X77722743Y-2105739D01*
X77722736Y-2105733D01*
X77530293Y-1958067D01*
X77530292Y-1958066D01*
X77530289Y-1958064D01*
X77320212Y-1836776D01*
X77320205Y-1836773D01*
X77096104Y-1743947D01*
X76861785Y-1681161D01*
X76621289Y-1649500D01*
X76621288Y-1649500D01*
X76378712Y-1649500D01*
X76378711Y-1649500D01*
X76138214Y-1681161D01*
X75903895Y-1743947D01*
X75679794Y-1836773D01*
X75679785Y-1836777D01*
X75469706Y-1958067D01*
X75277263Y-2105733D01*
X75277256Y-2105739D01*
X75105739Y-2277256D01*
X75105733Y-2277263D01*
X74958067Y-2469706D01*
X74836777Y-2679785D01*
X74836773Y-2679794D01*
X74743947Y-2903895D01*
X74681161Y-3138214D01*
X74649500Y-3378711D01*
X22982957Y-3378711D01*
X22946372Y-3342126D01*
X22946368Y-3342123D01*
X22839833Y-3270938D01*
X22839824Y-3270933D01*
X22721444Y-3221899D01*
X22721438Y-3221897D01*
X22595771Y-3196900D01*
X22595769Y-3196900D01*
X22534310Y-3196900D01*
X22467271Y-3177215D01*
X22446629Y-3160581D01*
X20652865Y-1366817D01*
X20652863Y-1366815D01*
X20555837Y-1310797D01*
X20447618Y-1281800D01*
X19538018Y-1281800D01*
X19425982Y-1281800D01*
X19317763Y-1310797D01*
X19317760Y-1310798D01*
X19220740Y-1366813D01*
X19220734Y-1366817D01*
X13144917Y-7442634D01*
X13144913Y-7442640D01*
X13088898Y-7539660D01*
X13088897Y-7539663D01*
X13059900Y-7647882D01*
X13059900Y-9671290D01*
X13040215Y-9738329D01*
X12987411Y-9784084D01*
X12918253Y-9794028D01*
X12854697Y-9765003D01*
X12848219Y-9758971D01*
X10377219Y-7287971D01*
X10343734Y-7226648D01*
X10340900Y-7200290D01*
X10340900Y-7138828D01*
X10315902Y-7013161D01*
X10315901Y-7013160D01*
X10315901Y-7013156D01*
X10266865Y-6894773D01*
X10266864Y-6894772D01*
X10266861Y-6894766D01*
X10195676Y-6788231D01*
X10195673Y-6788227D01*
X10105072Y-6697626D01*
X10105068Y-6697623D01*
X9998533Y-6626438D01*
X9998524Y-6626433D01*
X9880144Y-6577399D01*
X9880138Y-6577397D01*
X9754471Y-6552400D01*
X9754469Y-6552400D01*
X9626331Y-6552400D01*
X9626329Y-6552400D01*
X9500661Y-6577397D01*
X9500655Y-6577399D01*
X9382275Y-6626433D01*
X9382266Y-6626438D01*
X9275731Y-6697623D01*
X9275727Y-6697626D01*
X9185126Y-6788227D01*
X9185123Y-6788231D01*
X9113938Y-6894766D01*
X9113933Y-6894775D01*
X9064899Y-7013155D01*
X9064897Y-7013161D01*
X9039900Y-7138828D01*
X9039900Y-7138831D01*
X9039900Y-7266969D01*
X9039900Y-7266971D01*
X9039899Y-7266971D01*
X9064897Y-7392638D01*
X9064899Y-7392644D01*
X9113933Y-7511024D01*
X9113938Y-7511033D01*
X9185123Y-7617568D01*
X9185126Y-7617572D01*
X9275727Y-7708173D01*
X9275731Y-7708176D01*
X9382266Y-7779361D01*
X9382272Y-7779364D01*
X9382273Y-7779365D01*
X9500656Y-7828401D01*
X9500660Y-7828401D01*
X9500661Y-7828402D01*
X9626328Y-7853400D01*
X9626331Y-7853400D01*
X9687790Y-7853400D01*
X9754829Y-7873085D01*
X9775471Y-7889719D01*
X12824181Y-10938428D01*
X12857666Y-10999751D01*
X12860500Y-11026109D01*
X12860500Y-26847658D01*
X12840815Y-26914697D01*
X12788011Y-26960452D01*
X12718853Y-26970396D01*
X12712309Y-26969275D01*
X12627473Y-26952400D01*
X12627469Y-26952400D01*
X12499331Y-26952400D01*
X12499329Y-26952400D01*
X12373661Y-26977397D01*
X12373655Y-26977399D01*
X12255275Y-27026433D01*
X12255266Y-27026438D01*
X12148731Y-27097623D01*
X12148727Y-27097626D01*
X12058126Y-27188227D01*
X12058123Y-27188231D01*
X11986938Y-27294766D01*
X11986933Y-27294775D01*
X11937899Y-27413155D01*
X11937897Y-27413161D01*
X11912900Y-27538828D01*
X11912900Y-27600290D01*
X11893215Y-27667329D01*
X11876581Y-27687971D01*
X10501371Y-29063181D01*
X10440048Y-29096666D01*
X10413690Y-29099500D01*
X10380929Y-29099500D01*
X10255261Y-29124497D01*
X10255255Y-29124499D01*
X10136875Y-29173533D01*
X10136866Y-29173538D01*
X10030331Y-29244723D01*
X10030327Y-29244726D01*
X9939726Y-29335327D01*
X9939723Y-29335331D01*
X9868538Y-29441866D01*
X9868533Y-29441875D01*
X9819499Y-29560255D01*
X9819497Y-29560261D01*
X9794500Y-29685928D01*
X9794500Y-29685931D01*
X9794500Y-29814069D01*
X9794500Y-29814071D01*
X9794499Y-29814071D01*
X9819497Y-29939738D01*
X9819499Y-29939744D01*
X9868533Y-30058124D01*
X9868538Y-30058133D01*
X9939723Y-30164668D01*
X9939726Y-30164672D01*
X10030327Y-30255273D01*
X10030331Y-30255276D01*
X10136866Y-30326461D01*
X10136872Y-30326464D01*
X10136873Y-30326465D01*
X10255256Y-30375501D01*
X10255260Y-30375501D01*
X10255261Y-30375502D01*
X10380928Y-30400500D01*
X10380931Y-30400500D01*
X10509071Y-30400500D01*
X10593732Y-30383659D01*
X10634744Y-30375501D01*
X10753127Y-30326465D01*
X10859669Y-30255276D01*
X10950276Y-30164669D01*
X11021465Y-30058127D01*
X11070501Y-29939744D01*
X11091271Y-29835331D01*
X11095500Y-29814071D01*
X11095500Y-29723909D01*
X11115185Y-29656870D01*
X11131819Y-29636228D01*
X11832819Y-28935228D01*
X11894142Y-28901743D01*
X11963834Y-28906727D01*
X12019767Y-28948599D01*
X12044184Y-29014063D01*
X12044500Y-29022909D01*
X12044500Y-31830193D01*
X12024815Y-31897232D01*
X11972011Y-31942987D01*
X11902853Y-31952931D01*
X11839297Y-31923906D01*
X11832819Y-31917874D01*
X11759671Y-31844726D01*
X11759667Y-31844723D01*
X11653132Y-31773538D01*
X11653123Y-31773533D01*
X11534743Y-31724499D01*
X11534737Y-31724497D01*
X11409070Y-31699500D01*
X11409068Y-31699500D01*
X11280930Y-31699500D01*
X11280928Y-31699500D01*
X11155260Y-31724497D01*
X11155250Y-31724500D01*
X11035175Y-31774237D01*
X10965706Y-31781706D01*
X10950126Y-31777839D01*
X5397858Y-30011208D01*
X5339943Y-29972123D01*
X5324806Y-29946991D01*
X5324334Y-29947244D01*
X5321467Y-29941882D01*
X5321464Y-29941873D01*
X5320041Y-29939744D01*
X5250278Y-29835335D01*
X5250272Y-29835327D01*
X5159671Y-29744726D01*
X5159667Y-29744723D01*
X5053132Y-29673538D01*
X5053123Y-29673533D01*
X4934743Y-29624499D01*
X4934737Y-29624497D01*
X4809070Y-29599500D01*
X4809068Y-29599500D01*
X4680930Y-29599500D01*
X4680928Y-29599500D01*
X4555260Y-29624497D01*
X4555254Y-29624499D01*
X4436874Y-29673533D01*
X4436865Y-29673538D01*
X4330330Y-29744723D01*
X4330326Y-29744726D01*
X4239725Y-29835327D01*
X4239722Y-29835331D01*
X4168537Y-29941866D01*
X4168532Y-29941875D01*
X4119498Y-30060255D01*
X4119496Y-30060261D01*
X4094499Y-30185928D01*
X4094499Y-30185931D01*
X4094499Y-30314069D01*
X4094499Y-30314071D01*
X4094498Y-30314071D01*
X500000Y-30314071D01*
X500000Y-26480000D01*
X872150Y-26480000D01*
X1525735Y-26480000D01*
X1509940Y-26495795D01*
X1470444Y-26564204D01*
X1450000Y-26640504D01*
X1450000Y-26719496D01*
X1470444Y-26795796D01*
X1509940Y-26864205D01*
X1525735Y-26880000D01*
X872150Y-26880000D01*
X884584Y-26942512D01*
X884586Y-26942520D01*
X952428Y-27106307D01*
X952433Y-27106316D01*
X1050923Y-27253716D01*
X1050926Y-27253720D01*
X1176279Y-27379073D01*
X1176283Y-27379076D01*
X1323683Y-27477566D01*
X1323692Y-27477571D01*
X1487479Y-27545413D01*
X1487487Y-27545415D01*
X1661353Y-27579999D01*
X1661357Y-27580000D01*
X1850000Y-27580000D01*
X1850000Y-26980000D01*
X2250000Y-26980000D01*
X2250000Y-27580000D01*
X2438643Y-27580000D01*
X2438646Y-27579999D01*
X2612512Y-27545415D01*
X2612520Y-27545413D01*
X2776307Y-27477571D01*
X2776316Y-27477566D01*
X2923716Y-27379076D01*
X2923720Y-27379073D01*
X3049073Y-27253720D01*
X3049076Y-27253716D01*
X3147566Y-27106316D01*
X3147571Y-27106307D01*
X3215413Y-26942520D01*
X3215415Y-26942512D01*
X3227850Y-26880000D01*
X2574265Y-26880000D01*
X2590060Y-26864205D01*
X2629556Y-26795796D01*
X2650000Y-26719496D01*
X2650000Y-26640504D01*
X2629556Y-26564204D01*
X2590060Y-26495795D01*
X2574265Y-26480000D01*
X3227850Y-26480000D01*
X4802150Y-26480000D01*
X5455735Y-26480000D01*
X5439940Y-26495795D01*
X5400444Y-26564204D01*
X5380000Y-26640504D01*
X5380000Y-26719496D01*
X5400444Y-26795796D01*
X5439940Y-26864205D01*
X5455735Y-26880000D01*
X4802150Y-26880000D01*
X4814584Y-26942512D01*
X4814586Y-26942520D01*
X4882428Y-27106307D01*
X4882433Y-27106316D01*
X4980923Y-27253716D01*
X4980926Y-27253720D01*
X5106279Y-27379073D01*
X5106283Y-27379076D01*
X5253683Y-27477566D01*
X5253691Y-27477570D01*
X5269517Y-27484125D01*
X5323922Y-27527964D01*
X5345990Y-27594257D01*
X5328713Y-27661957D01*
X5309751Y-27686369D01*
X5239485Y-27756635D01*
X5163719Y-27887863D01*
X5137780Y-27984671D01*
X5124500Y-28034234D01*
X5124500Y-28185766D01*
X5135690Y-28227527D01*
X5163719Y-28332136D01*
X5193220Y-28383232D01*
X5239485Y-28463365D01*
X5346635Y-28570515D01*
X5422076Y-28614071D01*
X5471364Y-28642528D01*
X5477865Y-28646281D01*
X5624234Y-28685500D01*
X5624236Y-28685500D01*
X5775764Y-28685500D01*
X5775766Y-28685500D01*
X5922135Y-28646281D01*
X6053365Y-28570515D01*
X6160515Y-28463365D01*
X6236281Y-28332135D01*
X6275500Y-28185766D01*
X6275500Y-28034234D01*
X6236281Y-27887865D01*
X6160515Y-27756635D01*
X6066319Y-27662439D01*
X6032834Y-27601116D01*
X6030000Y-27574758D01*
X6030000Y-26980000D01*
X6430000Y-26980000D01*
X6430000Y-27580000D01*
X6868643Y-27580000D01*
X6868646Y-27579999D01*
X7042512Y-27545415D01*
X7042520Y-27545413D01*
X7206307Y-27477571D01*
X7206316Y-27477566D01*
X7353716Y-27379076D01*
X7353720Y-27379073D01*
X7479073Y-27253720D01*
X7479076Y-27253716D01*
X7577566Y-27106316D01*
X7577571Y-27106307D01*
X7645413Y-26942520D01*
X7645415Y-26942512D01*
X7657850Y-26880000D01*
X7004265Y-26880000D01*
X7020060Y-26864205D01*
X7059556Y-26795796D01*
X7080000Y-26719496D01*
X7080000Y-26640504D01*
X7059556Y-26564204D01*
X7020060Y-26495795D01*
X7004265Y-26480000D01*
X7657850Y-26480000D01*
X7645415Y-26417487D01*
X7645413Y-26417479D01*
X7577571Y-26253692D01*
X7577566Y-26253683D01*
X7479076Y-26106283D01*
X7479073Y-26106279D01*
X7353720Y-25980926D01*
X7353716Y-25980923D01*
X7206316Y-25882433D01*
X7206307Y-25882428D01*
X7042520Y-25814586D01*
X7042512Y-25814584D01*
X6868646Y-25780000D01*
X6430000Y-25780000D01*
X6430000Y-26380000D01*
X6030000Y-26380000D01*
X6030000Y-25780000D01*
X5591353Y-25780000D01*
X5417487Y-25814584D01*
X5417479Y-25814586D01*
X5253692Y-25882428D01*
X5253683Y-25882433D01*
X5106283Y-25980923D01*
X5106279Y-25980926D01*
X4980926Y-26106279D01*
X4980923Y-26106283D01*
X4882433Y-26253683D01*
X4882428Y-26253692D01*
X4814586Y-26417479D01*
X4814584Y-26417487D01*
X4802150Y-26480000D01*
X3227850Y-26480000D01*
X3215415Y-26417487D01*
X3215413Y-26417479D01*
X3147571Y-26253692D01*
X3147566Y-26253683D01*
X3049076Y-26106283D01*
X3049073Y-26106279D01*
X2923720Y-25980926D01*
X2923716Y-25980923D01*
X2776316Y-25882433D01*
X2776307Y-25882428D01*
X2612520Y-25814586D01*
X2612512Y-25814584D01*
X2438646Y-25780000D01*
X2250000Y-25780000D01*
X2250000Y-26380000D01*
X1850000Y-26380000D01*
X1850000Y-25780000D01*
X1661353Y-25780000D01*
X1487487Y-25814584D01*
X1487479Y-25814586D01*
X1323692Y-25882428D01*
X1323683Y-25882433D01*
X1176283Y-25980923D01*
X1176279Y-25980926D01*
X1050926Y-26106279D01*
X1050923Y-26106283D01*
X952433Y-26253683D01*
X952428Y-26253692D01*
X884586Y-26417479D01*
X884584Y-26417487D01*
X872150Y-26480000D01*
X500000Y-26480000D01*
X500000Y-3378711D01*
X1649500Y-3378711D01*
X1649500Y-3621288D01*
X1681161Y-3861785D01*
X1743947Y-4096104D01*
X1836773Y-4320205D01*
X1836776Y-4320212D01*
X1958064Y-4530289D01*
X1958066Y-4530292D01*
X1958067Y-4530293D01*
X2105733Y-4722736D01*
X2105739Y-4722743D01*
X2277256Y-4894260D01*
X2277262Y-4894265D01*
X2469711Y-5041936D01*
X2679788Y-5163224D01*
X2903900Y-5256054D01*
X3138211Y-5318838D01*
X3318586Y-5342584D01*
X3378711Y-5350500D01*
X3378712Y-5350500D01*
X3621289Y-5350500D01*
X3669388Y-5344167D01*
X3861789Y-5318838D01*
X4096100Y-5256054D01*
X4320212Y-5163224D01*
X4530289Y-5041936D01*
X4722738Y-4894265D01*
X4894265Y-4722738D01*
X5041936Y-4530289D01*
X5163224Y-4320212D01*
X5256054Y-4096100D01*
X5318838Y-3861789D01*
X5350500Y-3621288D01*
X5350500Y-3378712D01*
X5318838Y-3138211D01*
X5256054Y-2903900D01*
X5163224Y-2679788D01*
X5041936Y-2469711D01*
X4894265Y-2277262D01*
X4894260Y-2277256D01*
X4722743Y-2105739D01*
X4722736Y-2105733D01*
X4530293Y-1958067D01*
X4530292Y-1958066D01*
X4530289Y-1958064D01*
X4320212Y-1836776D01*
X4320205Y-1836773D01*
X4096104Y-1743947D01*
X3861785Y-1681161D01*
X3621289Y-1649500D01*
X3621288Y-1649500D01*
X3378712Y-1649500D01*
X3378711Y-1649500D01*
X3138214Y-1681161D01*
X2903895Y-1743947D01*
X2679794Y-1836773D01*
X2679785Y-1836777D01*
X2469706Y-1958067D01*
X2277263Y-2105733D01*
X2277256Y-2105739D01*
X2105739Y-2277256D01*
X2105733Y-2277263D01*
X1958067Y-2469706D01*
X1836777Y-2679785D01*
X1836773Y-2679794D01*
X1743947Y-2903895D01*
X1681161Y-3138214D01*
X1649500Y-3378711D01*
X500000Y-3378711D01*
X500000Y-1620975D01*
X502183Y-1610804D01*
X501167Y-1604003D01*
X510924Y-1570085D01*
X549360Y-1484683D01*
X549364Y-1484674D01*
X556312Y-1471434D01*
X685975Y-1256946D01*
X694462Y-1244650D01*
X849033Y-1047354D01*
X858948Y-1036163D01*
X1036162Y-858949D01*
X1047353Y-849034D01*
X1244649Y-694462D01*
X1256944Y-685975D01*
X1471438Y-556310D01*
X1484667Y-549367D01*
X1570085Y-510923D01*
X1620975Y-500000D01*
X78379024Y-500000D01*
X78429912Y-510923D01*
G37*
G04 #@! TD.AperFunction*
M02*
