G04 #@! TF.GenerationSoftware,KiCad,Pcbnew,10.0.4*
G04 #@! TF.CreationDate,2026-09-02T14:46:23+01:00*
G04 #@! TF.ProjectId,pl60c_dmx,706c3630-635f-4646-9d78-2e6b69636164,rev?*
G04 #@! TF.SameCoordinates,Original*
G04 #@! TF.FileFunction,Legend,Top*
G04 #@! TF.FilePolarity,Positive*
%FSLAX46Y46*%
G04 Gerber Fmt 4.6, Leading zero omitted, Abs format (unit mm)*
G04 Created by KiCad (PCBNEW 10.0.4) date 2026-09-02 14:46:23*
%MOMM*%
%LPD*%
G01*
G04 APERTURE LIST*
G04 Aperture macros list*
%AMRoundRect*
0 Rectangle with rounded corners*
0 $1 Rounding radius*
0 $2 $3 $4 $5 $6 $7 $8 $9 X,Y pos of 4 corners*
0 Add a 4 corners polygon primitive as box body*
4,1,4,$2,$3,$4,$5,$6,$7,$8,$9,$2,$3,0*
0 Add four circle primitives for the rounded corners*
1,1,$1+$1,$2,$3*
1,1,$1+$1,$4,$5*
1,1,$1+$1,$6,$7*
1,1,$1+$1,$8,$9*
0 Add four rect primitives between the rounded corners*
20,1,$1+$1,$2,$3,$4,$5,0*
20,1,$1+$1,$4,$5,$6,$7,0*
20,1,$1+$1,$6,$7,$8,$9,0*
20,1,$1+$1,$8,$9,$2,$3,0*%
G04 Aperture macros list end*
%ADD10C,0.120000*%
%ADD11C,0.150000*%
%ADD12C,0.180000*%
%ADD13R,1.800000X1.100000*%
%ADD14RoundRect,0.200000X0.275000X-0.200000X0.275000X0.200000X-0.275000X0.200000X-0.275000X-0.200000X0*%
%ADD15RoundRect,0.200000X-0.200000X-0.275000X0.200000X-0.275000X0.200000X0.275000X-0.200000X0.275000X0*%
%ADD16C,3.200000*%
%ADD17RoundRect,0.225000X-0.225000X-0.250000X0.225000X-0.250000X0.225000X0.250000X-0.225000X0.250000X0*%
%ADD18R,1.700000X1.700000*%
%ADD19C,1.700000*%
%ADD20RoundRect,0.250000X-0.250000X-0.475000X0.250000X-0.475000X0.250000X0.475000X-0.250000X0.475000X0*%
%ADD21R,0.700000X0.700000*%
%ADD22RoundRect,0.250000X-1.049999X-1.049999X1.049999X-1.049999X1.049999X1.049999X-1.049999X1.049999X0*%
%ADD23C,2.599999*%
%ADD24C,1.600000*%
%ADD25C,3.400000*%
%ADD26C,2.900000*%
%ADD27RoundRect,0.150000X-0.587500X-0.150000X0.587500X-0.150000X0.587500X0.150000X-0.587500X0.150000X0*%
%ADD28R,1.500000X0.900000*%
%ADD29R,0.900000X1.500000*%
%ADD30C,0.600000*%
%ADD31R,3.900000X3.900000*%
%ADD32RoundRect,0.225000X0.250000X-0.225000X0.250000X0.225000X-0.250000X0.225000X-0.250000X-0.225000X0*%
%ADD33RoundRect,0.225000X-0.225000X-0.375000X0.225000X-0.375000X0.225000X0.375000X-0.225000X0.375000X0*%
%ADD34RoundRect,0.375000X-0.625000X-0.375000X0.625000X-0.375000X0.625000X0.375000X-0.625000X0.375000X0*%
%ADD35RoundRect,0.500000X-0.500000X-1.400000X0.500000X-1.400000X0.500000X1.400000X-0.500000X1.400000X0*%
%ADD36RoundRect,0.250000X-0.312500X-0.625000X0.312500X-0.625000X0.312500X0.625000X-0.312500X0.625000X0*%
%ADD37R,2.500000X2.500000*%
%ADD38RoundRect,0.150000X-0.825000X-0.150000X0.825000X-0.150000X0.825000X0.150000X-0.825000X0.150000X0*%
%ADD39C,0.650000*%
%ADD40RoundRect,0.150000X-0.575000X0.150000X-0.575000X-0.150000X0.575000X-0.150000X0.575000X0.150000X0*%
%ADD41RoundRect,0.075000X-0.650000X0.075000X-0.650000X-0.075000X0.650000X-0.075000X0.650000X0.075000X0*%
%ADD42O,2.100000X1.000000*%
%ADD43O,1.600000X1.000000*%
%ADD44RoundRect,0.250000X-0.375000X-0.625000X0.375000X-0.625000X0.375000X0.625000X-0.375000X0.625000X0*%
%ADD45RoundRect,0.150000X0.150000X-0.512500X0.150000X0.512500X-0.150000X0.512500X-0.150000X-0.512500X0*%
G04 APERTURE END LIST*
D10*
X9066667Y-22363855D02*
X9066667Y-23011474D01*
X9066667Y-23011474D02*
X9104762Y-23087664D01*
X9104762Y-23087664D02*
X9142857Y-23125760D01*
X9142857Y-23125760D02*
X9219048Y-23163855D01*
X9219048Y-23163855D02*
X9371429Y-23163855D01*
X9371429Y-23163855D02*
X9447619Y-23125760D01*
X9447619Y-23125760D02*
X9485714Y-23087664D01*
X9485714Y-23087664D02*
X9523810Y-23011474D01*
X9523810Y-23011474D02*
X9523810Y-22363855D01*
X9866666Y-23125760D02*
X9980952Y-23163855D01*
X9980952Y-23163855D02*
X10171428Y-23163855D01*
X10171428Y-23163855D02*
X10247619Y-23125760D01*
X10247619Y-23125760D02*
X10285714Y-23087664D01*
X10285714Y-23087664D02*
X10323809Y-23011474D01*
X10323809Y-23011474D02*
X10323809Y-22935283D01*
X10323809Y-22935283D02*
X10285714Y-22859093D01*
X10285714Y-22859093D02*
X10247619Y-22820998D01*
X10247619Y-22820998D02*
X10171428Y-22782902D01*
X10171428Y-22782902D02*
X10019047Y-22744807D01*
X10019047Y-22744807D02*
X9942857Y-22706712D01*
X9942857Y-22706712D02*
X9904762Y-22668617D01*
X9904762Y-22668617D02*
X9866666Y-22592426D01*
X9866666Y-22592426D02*
X9866666Y-22516236D01*
X9866666Y-22516236D02*
X9904762Y-22440045D01*
X9904762Y-22440045D02*
X9942857Y-22401950D01*
X9942857Y-22401950D02*
X10019047Y-22363855D01*
X10019047Y-22363855D02*
X10209524Y-22363855D01*
X10209524Y-22363855D02*
X10323809Y-22401950D01*
X10933333Y-22744807D02*
X11047619Y-22782902D01*
X11047619Y-22782902D02*
X11085714Y-22820998D01*
X11085714Y-22820998D02*
X11123810Y-22897188D01*
X11123810Y-22897188D02*
X11123810Y-23011474D01*
X11123810Y-23011474D02*
X11085714Y-23087664D01*
X11085714Y-23087664D02*
X11047619Y-23125760D01*
X11047619Y-23125760D02*
X10971429Y-23163855D01*
X10971429Y-23163855D02*
X10666667Y-23163855D01*
X10666667Y-23163855D02*
X10666667Y-22363855D01*
X10666667Y-22363855D02*
X10933333Y-22363855D01*
X10933333Y-22363855D02*
X11009524Y-22401950D01*
X11009524Y-22401950D02*
X11047619Y-22440045D01*
X11047619Y-22440045D02*
X11085714Y-22516236D01*
X11085714Y-22516236D02*
X11085714Y-22592426D01*
X11085714Y-22592426D02*
X11047619Y-22668617D01*
X11047619Y-22668617D02*
X11009524Y-22706712D01*
X11009524Y-22706712D02*
X10933333Y-22744807D01*
X10933333Y-22744807D02*
X10666667Y-22744807D01*
X11466667Y-22859093D02*
X12076191Y-22859093D01*
X12914286Y-23087664D02*
X12876190Y-23125760D01*
X12876190Y-23125760D02*
X12761905Y-23163855D01*
X12761905Y-23163855D02*
X12685714Y-23163855D01*
X12685714Y-23163855D02*
X12571428Y-23125760D01*
X12571428Y-23125760D02*
X12495238Y-23049569D01*
X12495238Y-23049569D02*
X12457143Y-22973379D01*
X12457143Y-22973379D02*
X12419047Y-22820998D01*
X12419047Y-22820998D02*
X12419047Y-22706712D01*
X12419047Y-22706712D02*
X12457143Y-22554331D01*
X12457143Y-22554331D02*
X12495238Y-22478140D01*
X12495238Y-22478140D02*
X12571428Y-22401950D01*
X12571428Y-22401950D02*
X12685714Y-22363855D01*
X12685714Y-22363855D02*
X12761905Y-22363855D01*
X12761905Y-22363855D02*
X12876190Y-22401950D01*
X12876190Y-22401950D02*
X12914286Y-22440045D01*
X14247619Y-22363855D02*
X13866667Y-22363855D01*
X13866667Y-22363855D02*
X13828571Y-22744807D01*
X13828571Y-22744807D02*
X13866667Y-22706712D01*
X13866667Y-22706712D02*
X13942857Y-22668617D01*
X13942857Y-22668617D02*
X14133333Y-22668617D01*
X14133333Y-22668617D02*
X14209524Y-22706712D01*
X14209524Y-22706712D02*
X14247619Y-22744807D01*
X14247619Y-22744807D02*
X14285714Y-22820998D01*
X14285714Y-22820998D02*
X14285714Y-23011474D01*
X14285714Y-23011474D02*
X14247619Y-23087664D01*
X14247619Y-23087664D02*
X14209524Y-23125760D01*
X14209524Y-23125760D02*
X14133333Y-23163855D01*
X14133333Y-23163855D02*
X13942857Y-23163855D01*
X13942857Y-23163855D02*
X13866667Y-23125760D01*
X13866667Y-23125760D02*
X13828571Y-23087664D01*
X14514286Y-22363855D02*
X14780953Y-23163855D01*
X14780953Y-23163855D02*
X15047619Y-22363855D01*
X11338095Y-52663855D02*
X11071428Y-52282902D01*
X10880952Y-52663855D02*
X10880952Y-51863855D01*
X10880952Y-51863855D02*
X11185714Y-51863855D01*
X11185714Y-51863855D02*
X11261904Y-51901950D01*
X11261904Y-51901950D02*
X11299999Y-51940045D01*
X11299999Y-51940045D02*
X11338095Y-52016236D01*
X11338095Y-52016236D02*
X11338095Y-52130521D01*
X11338095Y-52130521D02*
X11299999Y-52206712D01*
X11299999Y-52206712D02*
X11261904Y-52244807D01*
X11261904Y-52244807D02*
X11185714Y-52282902D01*
X11185714Y-52282902D02*
X10880952Y-52282902D01*
X11680952Y-52244807D02*
X11947618Y-52244807D01*
X12061904Y-52663855D02*
X11680952Y-52663855D01*
X11680952Y-52663855D02*
X11680952Y-51863855D01*
X11680952Y-51863855D02*
X12061904Y-51863855D01*
X12366666Y-52625760D02*
X12480952Y-52663855D01*
X12480952Y-52663855D02*
X12671428Y-52663855D01*
X12671428Y-52663855D02*
X12747619Y-52625760D01*
X12747619Y-52625760D02*
X12785714Y-52587664D01*
X12785714Y-52587664D02*
X12823809Y-52511474D01*
X12823809Y-52511474D02*
X12823809Y-52435283D01*
X12823809Y-52435283D02*
X12785714Y-52359093D01*
X12785714Y-52359093D02*
X12747619Y-52320998D01*
X12747619Y-52320998D02*
X12671428Y-52282902D01*
X12671428Y-52282902D02*
X12519047Y-52244807D01*
X12519047Y-52244807D02*
X12442857Y-52206712D01*
X12442857Y-52206712D02*
X12404762Y-52168617D01*
X12404762Y-52168617D02*
X12366666Y-52092426D01*
X12366666Y-52092426D02*
X12366666Y-52016236D01*
X12366666Y-52016236D02*
X12404762Y-51940045D01*
X12404762Y-51940045D02*
X12442857Y-51901950D01*
X12442857Y-51901950D02*
X12519047Y-51863855D01*
X12519047Y-51863855D02*
X12709524Y-51863855D01*
X12709524Y-51863855D02*
X12823809Y-51901950D01*
X13166667Y-52244807D02*
X13433333Y-52244807D01*
X13547619Y-52663855D02*
X13166667Y-52663855D01*
X13166667Y-52663855D02*
X13166667Y-51863855D01*
X13166667Y-51863855D02*
X13547619Y-51863855D01*
X13776191Y-51863855D02*
X14233334Y-51863855D01*
X14004762Y-52663855D02*
X14004762Y-51863855D01*
X22414285Y-52244807D02*
X22528571Y-52282902D01*
X22528571Y-52282902D02*
X22566666Y-52320998D01*
X22566666Y-52320998D02*
X22604762Y-52397188D01*
X22604762Y-52397188D02*
X22604762Y-52511474D01*
X22604762Y-52511474D02*
X22566666Y-52587664D01*
X22566666Y-52587664D02*
X22528571Y-52625760D01*
X22528571Y-52625760D02*
X22452381Y-52663855D01*
X22452381Y-52663855D02*
X22147619Y-52663855D01*
X22147619Y-52663855D02*
X22147619Y-51863855D01*
X22147619Y-51863855D02*
X22414285Y-51863855D01*
X22414285Y-51863855D02*
X22490476Y-51901950D01*
X22490476Y-51901950D02*
X22528571Y-51940045D01*
X22528571Y-51940045D02*
X22566666Y-52016236D01*
X22566666Y-52016236D02*
X22566666Y-52092426D01*
X22566666Y-52092426D02*
X22528571Y-52168617D01*
X22528571Y-52168617D02*
X22490476Y-52206712D01*
X22490476Y-52206712D02*
X22414285Y-52244807D01*
X22414285Y-52244807D02*
X22147619Y-52244807D01*
X23100000Y-51863855D02*
X23252381Y-51863855D01*
X23252381Y-51863855D02*
X23328571Y-51901950D01*
X23328571Y-51901950D02*
X23404762Y-51978140D01*
X23404762Y-51978140D02*
X23442857Y-52130521D01*
X23442857Y-52130521D02*
X23442857Y-52397188D01*
X23442857Y-52397188D02*
X23404762Y-52549569D01*
X23404762Y-52549569D02*
X23328571Y-52625760D01*
X23328571Y-52625760D02*
X23252381Y-52663855D01*
X23252381Y-52663855D02*
X23100000Y-52663855D01*
X23100000Y-52663855D02*
X23023809Y-52625760D01*
X23023809Y-52625760D02*
X22947619Y-52549569D01*
X22947619Y-52549569D02*
X22909523Y-52397188D01*
X22909523Y-52397188D02*
X22909523Y-52130521D01*
X22909523Y-52130521D02*
X22947619Y-51978140D01*
X22947619Y-51978140D02*
X23023809Y-51901950D01*
X23023809Y-51901950D02*
X23100000Y-51863855D01*
X23938095Y-51863855D02*
X24090476Y-51863855D01*
X24090476Y-51863855D02*
X24166666Y-51901950D01*
X24166666Y-51901950D02*
X24242857Y-51978140D01*
X24242857Y-51978140D02*
X24280952Y-52130521D01*
X24280952Y-52130521D02*
X24280952Y-52397188D01*
X24280952Y-52397188D02*
X24242857Y-52549569D01*
X24242857Y-52549569D02*
X24166666Y-52625760D01*
X24166666Y-52625760D02*
X24090476Y-52663855D01*
X24090476Y-52663855D02*
X23938095Y-52663855D01*
X23938095Y-52663855D02*
X23861904Y-52625760D01*
X23861904Y-52625760D02*
X23785714Y-52549569D01*
X23785714Y-52549569D02*
X23747618Y-52397188D01*
X23747618Y-52397188D02*
X23747618Y-52130521D01*
X23747618Y-52130521D02*
X23785714Y-51978140D01*
X23785714Y-51978140D02*
X23861904Y-51901950D01*
X23861904Y-51901950D02*
X23938095Y-51863855D01*
X24509523Y-51863855D02*
X24966666Y-51863855D01*
X24738094Y-52663855D02*
X24738094Y-51863855D01*
X24476188Y-32363855D02*
X24476188Y-31944807D01*
X24476188Y-31944807D02*
X24438093Y-31868617D01*
X24438093Y-31868617D02*
X24361902Y-31830521D01*
X24361902Y-31830521D02*
X24209521Y-31830521D01*
X24209521Y-31830521D02*
X24133331Y-31868617D01*
X24476188Y-32325760D02*
X24399997Y-32363855D01*
X24399997Y-32363855D02*
X24209521Y-32363855D01*
X24209521Y-32363855D02*
X24133331Y-32325760D01*
X24133331Y-32325760D02*
X24095235Y-32249569D01*
X24095235Y-32249569D02*
X24095235Y-32173379D01*
X24095235Y-32173379D02*
X24133331Y-32097188D01*
X24133331Y-32097188D02*
X24209521Y-32059093D01*
X24209521Y-32059093D02*
X24399997Y-32059093D01*
X24399997Y-32059093D02*
X24476188Y-32020998D01*
X24857141Y-32363855D02*
X24857141Y-31830521D01*
X24857141Y-31906712D02*
X24895236Y-31868617D01*
X24895236Y-31868617D02*
X24971426Y-31830521D01*
X24971426Y-31830521D02*
X25085712Y-31830521D01*
X25085712Y-31830521D02*
X25161903Y-31868617D01*
X25161903Y-31868617D02*
X25199998Y-31944807D01*
X25199998Y-31944807D02*
X25199998Y-32363855D01*
X25199998Y-31944807D02*
X25238093Y-31868617D01*
X25238093Y-31868617D02*
X25314284Y-31830521D01*
X25314284Y-31830521D02*
X25428569Y-31830521D01*
X25428569Y-31830521D02*
X25504760Y-31868617D01*
X25504760Y-31868617D02*
X25542855Y-31944807D01*
X25542855Y-31944807D02*
X25542855Y-32363855D01*
X26038093Y-32363855D02*
X25961903Y-32325760D01*
X25961903Y-32325760D02*
X25923808Y-32287664D01*
X25923808Y-32287664D02*
X25885712Y-32211474D01*
X25885712Y-32211474D02*
X25885712Y-31982902D01*
X25885712Y-31982902D02*
X25923808Y-31906712D01*
X25923808Y-31906712D02*
X25961903Y-31868617D01*
X25961903Y-31868617D02*
X26038093Y-31830521D01*
X26038093Y-31830521D02*
X26152379Y-31830521D01*
X26152379Y-31830521D02*
X26228570Y-31868617D01*
X26228570Y-31868617D02*
X26266665Y-31906712D01*
X26266665Y-31906712D02*
X26304760Y-31982902D01*
X26304760Y-31982902D02*
X26304760Y-32211474D01*
X26304760Y-32211474D02*
X26266665Y-32287664D01*
X26266665Y-32287664D02*
X26228570Y-32325760D01*
X26228570Y-32325760D02*
X26152379Y-32363855D01*
X26152379Y-32363855D02*
X26038093Y-32363855D01*
X26990475Y-32363855D02*
X26990475Y-31563855D01*
X26990475Y-32325760D02*
X26914284Y-32363855D01*
X26914284Y-32363855D02*
X26761903Y-32363855D01*
X26761903Y-32363855D02*
X26685713Y-32325760D01*
X26685713Y-32325760D02*
X26647618Y-32287664D01*
X26647618Y-32287664D02*
X26609522Y-32211474D01*
X26609522Y-32211474D02*
X26609522Y-31982902D01*
X26609522Y-31982902D02*
X26647618Y-31906712D01*
X26647618Y-31906712D02*
X26685713Y-31868617D01*
X26685713Y-31868617D02*
X26761903Y-31830521D01*
X26761903Y-31830521D02*
X26914284Y-31830521D01*
X26914284Y-31830521D02*
X26990475Y-31868617D01*
X27485713Y-32363855D02*
X27409523Y-32325760D01*
X27409523Y-32325760D02*
X27371428Y-32287664D01*
X27371428Y-32287664D02*
X27333332Y-32211474D01*
X27333332Y-32211474D02*
X27333332Y-31982902D01*
X27333332Y-31982902D02*
X27371428Y-31906712D01*
X27371428Y-31906712D02*
X27409523Y-31868617D01*
X27409523Y-31868617D02*
X27485713Y-31830521D01*
X27485713Y-31830521D02*
X27599999Y-31830521D01*
X27599999Y-31830521D02*
X27676190Y-31868617D01*
X27676190Y-31868617D02*
X27714285Y-31906712D01*
X27714285Y-31906712D02*
X27752380Y-31982902D01*
X27752380Y-31982902D02*
X27752380Y-32211474D01*
X27752380Y-32211474D02*
X27714285Y-32287664D01*
X27714285Y-32287664D02*
X27676190Y-32325760D01*
X27676190Y-32325760D02*
X27599999Y-32363855D01*
X27599999Y-32363855D02*
X27485713Y-32363855D01*
X29047619Y-32363855D02*
X29047619Y-31563855D01*
X29047619Y-32325760D02*
X28971428Y-32363855D01*
X28971428Y-32363855D02*
X28819047Y-32363855D01*
X28819047Y-32363855D02*
X28742857Y-32325760D01*
X28742857Y-32325760D02*
X28704762Y-32287664D01*
X28704762Y-32287664D02*
X28666666Y-32211474D01*
X28666666Y-32211474D02*
X28666666Y-31982902D01*
X28666666Y-31982902D02*
X28704762Y-31906712D01*
X28704762Y-31906712D02*
X28742857Y-31868617D01*
X28742857Y-31868617D02*
X28819047Y-31830521D01*
X28819047Y-31830521D02*
X28971428Y-31830521D01*
X28971428Y-31830521D02*
X29047619Y-31868617D01*
X29733334Y-32325760D02*
X29657143Y-32363855D01*
X29657143Y-32363855D02*
X29504762Y-32363855D01*
X29504762Y-32363855D02*
X29428572Y-32325760D01*
X29428572Y-32325760D02*
X29390476Y-32249569D01*
X29390476Y-32249569D02*
X29390476Y-31944807D01*
X29390476Y-31944807D02*
X29428572Y-31868617D01*
X29428572Y-31868617D02*
X29504762Y-31830521D01*
X29504762Y-31830521D02*
X29657143Y-31830521D01*
X29657143Y-31830521D02*
X29733334Y-31868617D01*
X29733334Y-31868617D02*
X29771429Y-31944807D01*
X29771429Y-31944807D02*
X29771429Y-32020998D01*
X29771429Y-32020998D02*
X29390476Y-32097188D01*
X30076190Y-32325760D02*
X30152381Y-32363855D01*
X30152381Y-32363855D02*
X30304762Y-32363855D01*
X30304762Y-32363855D02*
X30380952Y-32325760D01*
X30380952Y-32325760D02*
X30419048Y-32249569D01*
X30419048Y-32249569D02*
X30419048Y-32211474D01*
X30419048Y-32211474D02*
X30380952Y-32135283D01*
X30380952Y-32135283D02*
X30304762Y-32097188D01*
X30304762Y-32097188D02*
X30190476Y-32097188D01*
X30190476Y-32097188D02*
X30114286Y-32059093D01*
X30114286Y-32059093D02*
X30076190Y-31982902D01*
X30076190Y-31982902D02*
X30076190Y-31944807D01*
X30076190Y-31944807D02*
X30114286Y-31868617D01*
X30114286Y-31868617D02*
X30190476Y-31830521D01*
X30190476Y-31830521D02*
X30304762Y-31830521D01*
X30304762Y-31830521D02*
X30380952Y-31868617D01*
X30761905Y-32363855D02*
X30761905Y-31830521D01*
X30761905Y-31563855D02*
X30723809Y-31601950D01*
X30723809Y-31601950D02*
X30761905Y-31640045D01*
X30761905Y-31640045D02*
X30800000Y-31601950D01*
X30800000Y-31601950D02*
X30761905Y-31563855D01*
X30761905Y-31563855D02*
X30761905Y-31640045D01*
X31485714Y-31830521D02*
X31485714Y-32478140D01*
X31485714Y-32478140D02*
X31447619Y-32554331D01*
X31447619Y-32554331D02*
X31409523Y-32592426D01*
X31409523Y-32592426D02*
X31333333Y-32630521D01*
X31333333Y-32630521D02*
X31219047Y-32630521D01*
X31219047Y-32630521D02*
X31142857Y-32592426D01*
X31485714Y-32325760D02*
X31409523Y-32363855D01*
X31409523Y-32363855D02*
X31257142Y-32363855D01*
X31257142Y-32363855D02*
X31180952Y-32325760D01*
X31180952Y-32325760D02*
X31142857Y-32287664D01*
X31142857Y-32287664D02*
X31104761Y-32211474D01*
X31104761Y-32211474D02*
X31104761Y-31982902D01*
X31104761Y-31982902D02*
X31142857Y-31906712D01*
X31142857Y-31906712D02*
X31180952Y-31868617D01*
X31180952Y-31868617D02*
X31257142Y-31830521D01*
X31257142Y-31830521D02*
X31409523Y-31830521D01*
X31409523Y-31830521D02*
X31485714Y-31868617D01*
X31866667Y-31830521D02*
X31866667Y-32363855D01*
X31866667Y-31906712D02*
X31904762Y-31868617D01*
X31904762Y-31868617D02*
X31980952Y-31830521D01*
X31980952Y-31830521D02*
X32095238Y-31830521D01*
X32095238Y-31830521D02*
X32171429Y-31868617D01*
X32171429Y-31868617D02*
X32209524Y-31944807D01*
X32209524Y-31944807D02*
X32209524Y-32363855D01*
X33161905Y-31640045D02*
X33200001Y-31601950D01*
X33200001Y-31601950D02*
X33276191Y-31563855D01*
X33276191Y-31563855D02*
X33466667Y-31563855D01*
X33466667Y-31563855D02*
X33542858Y-31601950D01*
X33542858Y-31601950D02*
X33580953Y-31640045D01*
X33580953Y-31640045D02*
X33619048Y-31716236D01*
X33619048Y-31716236D02*
X33619048Y-31792426D01*
X33619048Y-31792426D02*
X33580953Y-31906712D01*
X33580953Y-31906712D02*
X33123810Y-32363855D01*
X33123810Y-32363855D02*
X33619048Y-32363855D01*
X34114287Y-31563855D02*
X34190477Y-31563855D01*
X34190477Y-31563855D02*
X34266668Y-31601950D01*
X34266668Y-31601950D02*
X34304763Y-31640045D01*
X34304763Y-31640045D02*
X34342858Y-31716236D01*
X34342858Y-31716236D02*
X34380953Y-31868617D01*
X34380953Y-31868617D02*
X34380953Y-32059093D01*
X34380953Y-32059093D02*
X34342858Y-32211474D01*
X34342858Y-32211474D02*
X34304763Y-32287664D01*
X34304763Y-32287664D02*
X34266668Y-32325760D01*
X34266668Y-32325760D02*
X34190477Y-32363855D01*
X34190477Y-32363855D02*
X34114287Y-32363855D01*
X34114287Y-32363855D02*
X34038096Y-32325760D01*
X34038096Y-32325760D02*
X34000001Y-32287664D01*
X34000001Y-32287664D02*
X33961906Y-32211474D01*
X33961906Y-32211474D02*
X33923810Y-32059093D01*
X33923810Y-32059093D02*
X33923810Y-31868617D01*
X33923810Y-31868617D02*
X33961906Y-31716236D01*
X33961906Y-31716236D02*
X34000001Y-31640045D01*
X34000001Y-31640045D02*
X34038096Y-31601950D01*
X34038096Y-31601950D02*
X34114287Y-31563855D01*
X34685715Y-31640045D02*
X34723811Y-31601950D01*
X34723811Y-31601950D02*
X34800001Y-31563855D01*
X34800001Y-31563855D02*
X34990477Y-31563855D01*
X34990477Y-31563855D02*
X35066668Y-31601950D01*
X35066668Y-31601950D02*
X35104763Y-31640045D01*
X35104763Y-31640045D02*
X35142858Y-31716236D01*
X35142858Y-31716236D02*
X35142858Y-31792426D01*
X35142858Y-31792426D02*
X35104763Y-31906712D01*
X35104763Y-31906712D02*
X34647620Y-32363855D01*
X34647620Y-32363855D02*
X35142858Y-32363855D01*
X35828573Y-31563855D02*
X35676192Y-31563855D01*
X35676192Y-31563855D02*
X35600001Y-31601950D01*
X35600001Y-31601950D02*
X35561906Y-31640045D01*
X35561906Y-31640045D02*
X35485716Y-31754331D01*
X35485716Y-31754331D02*
X35447620Y-31906712D01*
X35447620Y-31906712D02*
X35447620Y-32211474D01*
X35447620Y-32211474D02*
X35485716Y-32287664D01*
X35485716Y-32287664D02*
X35523811Y-32325760D01*
X35523811Y-32325760D02*
X35600001Y-32363855D01*
X35600001Y-32363855D02*
X35752382Y-32363855D01*
X35752382Y-32363855D02*
X35828573Y-32325760D01*
X35828573Y-32325760D02*
X35866668Y-32287664D01*
X35866668Y-32287664D02*
X35904763Y-32211474D01*
X35904763Y-32211474D02*
X35904763Y-32020998D01*
X35904763Y-32020998D02*
X35866668Y-31944807D01*
X35866668Y-31944807D02*
X35828573Y-31906712D01*
X35828573Y-31906712D02*
X35752382Y-31868617D01*
X35752382Y-31868617D02*
X35600001Y-31868617D01*
X35600001Y-31868617D02*
X35523811Y-31906712D01*
X35523811Y-31906712D02*
X35485716Y-31944807D01*
X35485716Y-31944807D02*
X35447620Y-32020998D01*
X33128571Y-51863855D02*
X33128571Y-52511474D01*
X33128571Y-52511474D02*
X33166666Y-52587664D01*
X33166666Y-52587664D02*
X33204761Y-52625760D01*
X33204761Y-52625760D02*
X33280952Y-52663855D01*
X33280952Y-52663855D02*
X33433333Y-52663855D01*
X33433333Y-52663855D02*
X33509523Y-52625760D01*
X33509523Y-52625760D02*
X33547618Y-52587664D01*
X33547618Y-52587664D02*
X33585714Y-52511474D01*
X33585714Y-52511474D02*
X33585714Y-51863855D01*
X33928570Y-52625760D02*
X34042856Y-52663855D01*
X34042856Y-52663855D02*
X34233332Y-52663855D01*
X34233332Y-52663855D02*
X34309523Y-52625760D01*
X34309523Y-52625760D02*
X34347618Y-52587664D01*
X34347618Y-52587664D02*
X34385713Y-52511474D01*
X34385713Y-52511474D02*
X34385713Y-52435283D01*
X34385713Y-52435283D02*
X34347618Y-52359093D01*
X34347618Y-52359093D02*
X34309523Y-52320998D01*
X34309523Y-52320998D02*
X34233332Y-52282902D01*
X34233332Y-52282902D02*
X34080951Y-52244807D01*
X34080951Y-52244807D02*
X34004761Y-52206712D01*
X34004761Y-52206712D02*
X33966666Y-52168617D01*
X33966666Y-52168617D02*
X33928570Y-52092426D01*
X33928570Y-52092426D02*
X33928570Y-52016236D01*
X33928570Y-52016236D02*
X33966666Y-51940045D01*
X33966666Y-51940045D02*
X34004761Y-51901950D01*
X34004761Y-51901950D02*
X34080951Y-51863855D01*
X34080951Y-51863855D02*
X34271428Y-51863855D01*
X34271428Y-51863855D02*
X34385713Y-51901950D01*
X34728571Y-52244807D02*
X34995237Y-52244807D01*
X35109523Y-52663855D02*
X34728571Y-52663855D01*
X34728571Y-52663855D02*
X34728571Y-51863855D01*
X34728571Y-51863855D02*
X35109523Y-51863855D01*
X35909524Y-52663855D02*
X35642857Y-52282902D01*
X35452381Y-52663855D02*
X35452381Y-51863855D01*
X35452381Y-51863855D02*
X35757143Y-51863855D01*
X35757143Y-51863855D02*
X35833333Y-51901950D01*
X35833333Y-51901950D02*
X35871428Y-51940045D01*
X35871428Y-51940045D02*
X35909524Y-52016236D01*
X35909524Y-52016236D02*
X35909524Y-52130521D01*
X35909524Y-52130521D02*
X35871428Y-52206712D01*
X35871428Y-52206712D02*
X35833333Y-52244807D01*
X35833333Y-52244807D02*
X35757143Y-52282902D01*
X35757143Y-52282902D02*
X35452381Y-52282902D01*
X51980952Y-41601950D02*
X51904762Y-41563855D01*
X51904762Y-41563855D02*
X51790476Y-41563855D01*
X51790476Y-41563855D02*
X51676190Y-41601950D01*
X51676190Y-41601950D02*
X51600000Y-41678140D01*
X51600000Y-41678140D02*
X51561905Y-41754331D01*
X51561905Y-41754331D02*
X51523809Y-41906712D01*
X51523809Y-41906712D02*
X51523809Y-42020998D01*
X51523809Y-42020998D02*
X51561905Y-42173379D01*
X51561905Y-42173379D02*
X51600000Y-42249569D01*
X51600000Y-42249569D02*
X51676190Y-42325760D01*
X51676190Y-42325760D02*
X51790476Y-42363855D01*
X51790476Y-42363855D02*
X51866667Y-42363855D01*
X51866667Y-42363855D02*
X51980952Y-42325760D01*
X51980952Y-42325760D02*
X52019048Y-42287664D01*
X52019048Y-42287664D02*
X52019048Y-42020998D01*
X52019048Y-42020998D02*
X51866667Y-42020998D01*
X52361905Y-42363855D02*
X52361905Y-41563855D01*
X52361905Y-41563855D02*
X52819048Y-42363855D01*
X52819048Y-42363855D02*
X52819048Y-41563855D01*
X53200000Y-42363855D02*
X53200000Y-41563855D01*
X53200000Y-41563855D02*
X53390476Y-41563855D01*
X53390476Y-41563855D02*
X53504762Y-41601950D01*
X53504762Y-41601950D02*
X53580952Y-41678140D01*
X53580952Y-41678140D02*
X53619047Y-41754331D01*
X53619047Y-41754331D02*
X53657143Y-41906712D01*
X53657143Y-41906712D02*
X53657143Y-42020998D01*
X53657143Y-42020998D02*
X53619047Y-42173379D01*
X53619047Y-42173379D02*
X53580952Y-42249569D01*
X53580952Y-42249569D02*
X53504762Y-42325760D01*
X53504762Y-42325760D02*
X53390476Y-42363855D01*
X53390476Y-42363855D02*
X53200000Y-42363855D01*
X55219048Y-42363855D02*
X55219048Y-41563855D01*
X55219048Y-41563855D02*
X55409524Y-41563855D01*
X55409524Y-41563855D02*
X55523810Y-41601950D01*
X55523810Y-41601950D02*
X55600000Y-41678140D01*
X55600000Y-41678140D02*
X55638095Y-41754331D01*
X55638095Y-41754331D02*
X55676191Y-41906712D01*
X55676191Y-41906712D02*
X55676191Y-42020998D01*
X55676191Y-42020998D02*
X55638095Y-42173379D01*
X55638095Y-42173379D02*
X55600000Y-42249569D01*
X55600000Y-42249569D02*
X55523810Y-42325760D01*
X55523810Y-42325760D02*
X55409524Y-42363855D01*
X55409524Y-42363855D02*
X55219048Y-42363855D01*
X56019048Y-42059093D02*
X56628572Y-42059093D01*
X58228572Y-42363855D02*
X58228572Y-41563855D01*
X58228572Y-41563855D02*
X58419048Y-41563855D01*
X58419048Y-41563855D02*
X58533334Y-41601950D01*
X58533334Y-41601950D02*
X58609524Y-41678140D01*
X58609524Y-41678140D02*
X58647619Y-41754331D01*
X58647619Y-41754331D02*
X58685715Y-41906712D01*
X58685715Y-41906712D02*
X58685715Y-42020998D01*
X58685715Y-42020998D02*
X58647619Y-42173379D01*
X58647619Y-42173379D02*
X58609524Y-42249569D01*
X58609524Y-42249569D02*
X58533334Y-42325760D01*
X58533334Y-42325760D02*
X58419048Y-42363855D01*
X58419048Y-42363855D02*
X58228572Y-42363855D01*
X59028572Y-42059093D02*
X59638096Y-42059093D01*
X59333334Y-42363855D02*
X59333334Y-41754331D01*
X63361904Y-35163855D02*
X62904761Y-35163855D01*
X63133333Y-35163855D02*
X63133333Y-34363855D01*
X63133333Y-34363855D02*
X63057142Y-34478140D01*
X63057142Y-34478140D02*
X62980952Y-34554331D01*
X62980952Y-34554331D02*
X62904761Y-34592426D01*
X63704762Y-34744807D02*
X64314286Y-34744807D01*
X64314286Y-34973379D02*
X63704762Y-34973379D01*
X65114285Y-34401950D02*
X65038095Y-34363855D01*
X65038095Y-34363855D02*
X64923809Y-34363855D01*
X64923809Y-34363855D02*
X64809523Y-34401950D01*
X64809523Y-34401950D02*
X64733333Y-34478140D01*
X64733333Y-34478140D02*
X64695238Y-34554331D01*
X64695238Y-34554331D02*
X64657142Y-34706712D01*
X64657142Y-34706712D02*
X64657142Y-34820998D01*
X64657142Y-34820998D02*
X64695238Y-34973379D01*
X64695238Y-34973379D02*
X64733333Y-35049569D01*
X64733333Y-35049569D02*
X64809523Y-35125760D01*
X64809523Y-35125760D02*
X64923809Y-35163855D01*
X64923809Y-35163855D02*
X65000000Y-35163855D01*
X65000000Y-35163855D02*
X65114285Y-35125760D01*
X65114285Y-35125760D02*
X65152381Y-35087664D01*
X65152381Y-35087664D02*
X65152381Y-34820998D01*
X65152381Y-34820998D02*
X65000000Y-34820998D01*
X65495238Y-35163855D02*
X65495238Y-34363855D01*
X65495238Y-34363855D02*
X65952381Y-35163855D01*
X65952381Y-35163855D02*
X65952381Y-34363855D01*
X66333333Y-35163855D02*
X66333333Y-34363855D01*
X66333333Y-34363855D02*
X66523809Y-34363855D01*
X66523809Y-34363855D02*
X66638095Y-34401950D01*
X66638095Y-34401950D02*
X66714285Y-34478140D01*
X66714285Y-34478140D02*
X66752380Y-34554331D01*
X66752380Y-34554331D02*
X66790476Y-34706712D01*
X66790476Y-34706712D02*
X66790476Y-34820998D01*
X66790476Y-34820998D02*
X66752380Y-34973379D01*
X66752380Y-34973379D02*
X66714285Y-35049569D01*
X66714285Y-35049569D02*
X66638095Y-35125760D01*
X66638095Y-35125760D02*
X66523809Y-35163855D01*
X66523809Y-35163855D02*
X66333333Y-35163855D01*
X67704761Y-34440045D02*
X67742857Y-34401950D01*
X67742857Y-34401950D02*
X67819047Y-34363855D01*
X67819047Y-34363855D02*
X68009523Y-34363855D01*
X68009523Y-34363855D02*
X68085714Y-34401950D01*
X68085714Y-34401950D02*
X68123809Y-34440045D01*
X68123809Y-34440045D02*
X68161904Y-34516236D01*
X68161904Y-34516236D02*
X68161904Y-34592426D01*
X68161904Y-34592426D02*
X68123809Y-34706712D01*
X68123809Y-34706712D02*
X67666666Y-35163855D01*
X67666666Y-35163855D02*
X68161904Y-35163855D01*
X68504762Y-34744807D02*
X69114286Y-34744807D01*
X69114286Y-34973379D02*
X68504762Y-34973379D01*
X69495238Y-35163855D02*
X69495238Y-34363855D01*
X69495238Y-34363855D02*
X69685714Y-34363855D01*
X69685714Y-34363855D02*
X69800000Y-34401950D01*
X69800000Y-34401950D02*
X69876190Y-34478140D01*
X69876190Y-34478140D02*
X69914285Y-34554331D01*
X69914285Y-34554331D02*
X69952381Y-34706712D01*
X69952381Y-34706712D02*
X69952381Y-34820998D01*
X69952381Y-34820998D02*
X69914285Y-34973379D01*
X69914285Y-34973379D02*
X69876190Y-35049569D01*
X69876190Y-35049569D02*
X69800000Y-35125760D01*
X69800000Y-35125760D02*
X69685714Y-35163855D01*
X69685714Y-35163855D02*
X69495238Y-35163855D01*
X70295238Y-34859093D02*
X70904762Y-34859093D01*
X71819047Y-34363855D02*
X72314285Y-34363855D01*
X72314285Y-34363855D02*
X72047619Y-34668617D01*
X72047619Y-34668617D02*
X72161904Y-34668617D01*
X72161904Y-34668617D02*
X72238095Y-34706712D01*
X72238095Y-34706712D02*
X72276190Y-34744807D01*
X72276190Y-34744807D02*
X72314285Y-34820998D01*
X72314285Y-34820998D02*
X72314285Y-35011474D01*
X72314285Y-35011474D02*
X72276190Y-35087664D01*
X72276190Y-35087664D02*
X72238095Y-35125760D01*
X72238095Y-35125760D02*
X72161904Y-35163855D01*
X72161904Y-35163855D02*
X71933333Y-35163855D01*
X71933333Y-35163855D02*
X71857142Y-35125760D01*
X71857142Y-35125760D02*
X71819047Y-35087664D01*
X72657143Y-34744807D02*
X73266667Y-34744807D01*
X73266667Y-34973379D02*
X72657143Y-34973379D01*
X73647619Y-35163855D02*
X73647619Y-34363855D01*
X73647619Y-34363855D02*
X73838095Y-34363855D01*
X73838095Y-34363855D02*
X73952381Y-34401950D01*
X73952381Y-34401950D02*
X74028571Y-34478140D01*
X74028571Y-34478140D02*
X74066666Y-34554331D01*
X74066666Y-34554331D02*
X74104762Y-34706712D01*
X74104762Y-34706712D02*
X74104762Y-34820998D01*
X74104762Y-34820998D02*
X74066666Y-34973379D01*
X74066666Y-34973379D02*
X74028571Y-35049569D01*
X74028571Y-35049569D02*
X73952381Y-35125760D01*
X73952381Y-35125760D02*
X73838095Y-35163855D01*
X73838095Y-35163855D02*
X73647619Y-35163855D01*
X74447619Y-34859093D02*
X75057143Y-34859093D01*
X74752381Y-35163855D02*
X74752381Y-34554331D01*
D11*
X19928570Y-30454819D02*
X19928570Y-29454819D01*
X19928570Y-29454819D02*
X20309522Y-29454819D01*
X20309522Y-29454819D02*
X20404760Y-29502438D01*
X20404760Y-29502438D02*
X20452379Y-29550057D01*
X20452379Y-29550057D02*
X20499998Y-29645295D01*
X20499998Y-29645295D02*
X20499998Y-29788152D01*
X20499998Y-29788152D02*
X20452379Y-29883390D01*
X20452379Y-29883390D02*
X20404760Y-29931009D01*
X20404760Y-29931009D02*
X20309522Y-29978628D01*
X20309522Y-29978628D02*
X19928570Y-29978628D01*
X21404760Y-30454819D02*
X20928570Y-30454819D01*
X20928570Y-30454819D02*
X20928570Y-29454819D01*
X22166665Y-29454819D02*
X21976189Y-29454819D01*
X21976189Y-29454819D02*
X21880951Y-29502438D01*
X21880951Y-29502438D02*
X21833332Y-29550057D01*
X21833332Y-29550057D02*
X21738094Y-29692914D01*
X21738094Y-29692914D02*
X21690475Y-29883390D01*
X21690475Y-29883390D02*
X21690475Y-30264342D01*
X21690475Y-30264342D02*
X21738094Y-30359580D01*
X21738094Y-30359580D02*
X21785713Y-30407200D01*
X21785713Y-30407200D02*
X21880951Y-30454819D01*
X21880951Y-30454819D02*
X22071427Y-30454819D01*
X22071427Y-30454819D02*
X22166665Y-30407200D01*
X22166665Y-30407200D02*
X22214284Y-30359580D01*
X22214284Y-30359580D02*
X22261903Y-30264342D01*
X22261903Y-30264342D02*
X22261903Y-30026247D01*
X22261903Y-30026247D02*
X22214284Y-29931009D01*
X22214284Y-29931009D02*
X22166665Y-29883390D01*
X22166665Y-29883390D02*
X22071427Y-29835771D01*
X22071427Y-29835771D02*
X21880951Y-29835771D01*
X21880951Y-29835771D02*
X21785713Y-29883390D01*
X21785713Y-29883390D02*
X21738094Y-29931009D01*
X21738094Y-29931009D02*
X21690475Y-30026247D01*
X22880951Y-29454819D02*
X22976189Y-29454819D01*
X22976189Y-29454819D02*
X23071427Y-29502438D01*
X23071427Y-29502438D02*
X23119046Y-29550057D01*
X23119046Y-29550057D02*
X23166665Y-29645295D01*
X23166665Y-29645295D02*
X23214284Y-29835771D01*
X23214284Y-29835771D02*
X23214284Y-30073866D01*
X23214284Y-30073866D02*
X23166665Y-30264342D01*
X23166665Y-30264342D02*
X23119046Y-30359580D01*
X23119046Y-30359580D02*
X23071427Y-30407200D01*
X23071427Y-30407200D02*
X22976189Y-30454819D01*
X22976189Y-30454819D02*
X22880951Y-30454819D01*
X22880951Y-30454819D02*
X22785713Y-30407200D01*
X22785713Y-30407200D02*
X22738094Y-30359580D01*
X22738094Y-30359580D02*
X22690475Y-30264342D01*
X22690475Y-30264342D02*
X22642856Y-30073866D01*
X22642856Y-30073866D02*
X22642856Y-29835771D01*
X22642856Y-29835771D02*
X22690475Y-29645295D01*
X22690475Y-29645295D02*
X22738094Y-29550057D01*
X22738094Y-29550057D02*
X22785713Y-29502438D01*
X22785713Y-29502438D02*
X22880951Y-29454819D01*
X24214284Y-30359580D02*
X24166665Y-30407200D01*
X24166665Y-30407200D02*
X24023808Y-30454819D01*
X24023808Y-30454819D02*
X23928570Y-30454819D01*
X23928570Y-30454819D02*
X23785713Y-30407200D01*
X23785713Y-30407200D02*
X23690475Y-30311961D01*
X23690475Y-30311961D02*
X23642856Y-30216723D01*
X23642856Y-30216723D02*
X23595237Y-30026247D01*
X23595237Y-30026247D02*
X23595237Y-29883390D01*
X23595237Y-29883390D02*
X23642856Y-29692914D01*
X23642856Y-29692914D02*
X23690475Y-29597676D01*
X23690475Y-29597676D02*
X23785713Y-29502438D01*
X23785713Y-29502438D02*
X23928570Y-29454819D01*
X23928570Y-29454819D02*
X24023808Y-29454819D01*
X24023808Y-29454819D02*
X24166665Y-29502438D01*
X24166665Y-29502438D02*
X24214284Y-29550057D01*
X25404761Y-30454819D02*
X25404761Y-29454819D01*
X25404761Y-29454819D02*
X25642856Y-29454819D01*
X25642856Y-29454819D02*
X25785713Y-29502438D01*
X25785713Y-29502438D02*
X25880951Y-29597676D01*
X25880951Y-29597676D02*
X25928570Y-29692914D01*
X25928570Y-29692914D02*
X25976189Y-29883390D01*
X25976189Y-29883390D02*
X25976189Y-30026247D01*
X25976189Y-30026247D02*
X25928570Y-30216723D01*
X25928570Y-30216723D02*
X25880951Y-30311961D01*
X25880951Y-30311961D02*
X25785713Y-30407200D01*
X25785713Y-30407200D02*
X25642856Y-30454819D01*
X25642856Y-30454819D02*
X25404761Y-30454819D01*
X26404761Y-30454819D02*
X26404761Y-29454819D01*
X26404761Y-29454819D02*
X26738094Y-30169104D01*
X26738094Y-30169104D02*
X27071427Y-29454819D01*
X27071427Y-29454819D02*
X27071427Y-30454819D01*
X27452380Y-29454819D02*
X28119046Y-30454819D01*
X28119046Y-29454819D02*
X27452380Y-30454819D01*
X29166666Y-29788152D02*
X29357142Y-30454819D01*
X29357142Y-30454819D02*
X29547618Y-29978628D01*
X29547618Y-29978628D02*
X29738094Y-30454819D01*
X29738094Y-30454819D02*
X29928570Y-29788152D01*
X30738094Y-30454819D02*
X30738094Y-29931009D01*
X30738094Y-29931009D02*
X30690475Y-29835771D01*
X30690475Y-29835771D02*
X30595237Y-29788152D01*
X30595237Y-29788152D02*
X30404761Y-29788152D01*
X30404761Y-29788152D02*
X30309523Y-29835771D01*
X30738094Y-30407200D02*
X30642856Y-30454819D01*
X30642856Y-30454819D02*
X30404761Y-30454819D01*
X30404761Y-30454819D02*
X30309523Y-30407200D01*
X30309523Y-30407200D02*
X30261904Y-30311961D01*
X30261904Y-30311961D02*
X30261904Y-30216723D01*
X30261904Y-30216723D02*
X30309523Y-30121485D01*
X30309523Y-30121485D02*
X30404761Y-30073866D01*
X30404761Y-30073866D02*
X30642856Y-30073866D01*
X30642856Y-30073866D02*
X30738094Y-30026247D01*
X31214285Y-30454819D02*
X31214285Y-29454819D01*
X31309523Y-30073866D02*
X31595237Y-30454819D01*
X31595237Y-29788152D02*
X31214285Y-30169104D01*
X32404761Y-30407200D02*
X32309523Y-30454819D01*
X32309523Y-30454819D02*
X32119047Y-30454819D01*
X32119047Y-30454819D02*
X32023809Y-30407200D01*
X32023809Y-30407200D02*
X31976190Y-30311961D01*
X31976190Y-30311961D02*
X31976190Y-29931009D01*
X31976190Y-29931009D02*
X32023809Y-29835771D01*
X32023809Y-29835771D02*
X32119047Y-29788152D01*
X32119047Y-29788152D02*
X32309523Y-29788152D01*
X32309523Y-29788152D02*
X32404761Y-29835771D01*
X32404761Y-29835771D02*
X32452380Y-29931009D01*
X32452380Y-29931009D02*
X32452380Y-30026247D01*
X32452380Y-30026247D02*
X31976190Y-30121485D01*
X32880952Y-30073866D02*
X33642857Y-30073866D01*
X34547618Y-29788152D02*
X34547618Y-30454819D01*
X34119047Y-29788152D02*
X34119047Y-30311961D01*
X34119047Y-30311961D02*
X34166666Y-30407200D01*
X34166666Y-30407200D02*
X34261904Y-30454819D01*
X34261904Y-30454819D02*
X34404761Y-30454819D01*
X34404761Y-30454819D02*
X34499999Y-30407200D01*
X34499999Y-30407200D02*
X34547618Y-30359580D01*
X35023809Y-29788152D02*
X35023809Y-30788152D01*
X35023809Y-29835771D02*
X35119047Y-29788152D01*
X35119047Y-29788152D02*
X35309523Y-29788152D01*
X35309523Y-29788152D02*
X35404761Y-29835771D01*
X35404761Y-29835771D02*
X35452380Y-29883390D01*
X35452380Y-29883390D02*
X35499999Y-29978628D01*
X35499999Y-29978628D02*
X35499999Y-30264342D01*
X35499999Y-30264342D02*
X35452380Y-30359580D01*
X35452380Y-30359580D02*
X35404761Y-30407200D01*
X35404761Y-30407200D02*
X35309523Y-30454819D01*
X35309523Y-30454819D02*
X35119047Y-30454819D01*
X35119047Y-30454819D02*
X35023809Y-30407200D01*
X36690476Y-30454819D02*
X36690476Y-29788152D01*
X36690476Y-29978628D02*
X36738095Y-29883390D01*
X36738095Y-29883390D02*
X36785714Y-29835771D01*
X36785714Y-29835771D02*
X36880952Y-29788152D01*
X36880952Y-29788152D02*
X36976190Y-29788152D01*
X37690476Y-30407200D02*
X37595238Y-30454819D01*
X37595238Y-30454819D02*
X37404762Y-30454819D01*
X37404762Y-30454819D02*
X37309524Y-30407200D01*
X37309524Y-30407200D02*
X37261905Y-30311961D01*
X37261905Y-30311961D02*
X37261905Y-29931009D01*
X37261905Y-29931009D02*
X37309524Y-29835771D01*
X37309524Y-29835771D02*
X37404762Y-29788152D01*
X37404762Y-29788152D02*
X37595238Y-29788152D01*
X37595238Y-29788152D02*
X37690476Y-29835771D01*
X37690476Y-29835771D02*
X37738095Y-29931009D01*
X37738095Y-29931009D02*
X37738095Y-30026247D01*
X37738095Y-30026247D02*
X37261905Y-30121485D01*
X38071429Y-29788152D02*
X38309524Y-30454819D01*
X38309524Y-30454819D02*
X38547619Y-29788152D01*
X39642858Y-30169104D02*
X40119048Y-30169104D01*
X39547620Y-30454819D02*
X39880953Y-29454819D01*
X39880953Y-29454819D02*
X40214286Y-30454819D01*
D12*
X62257142Y-6045782D02*
X62257142Y-4845782D01*
X62257142Y-4845782D02*
X62542856Y-4845782D01*
X62542856Y-4845782D02*
X62714285Y-4902925D01*
X62714285Y-4902925D02*
X62828570Y-5017211D01*
X62828570Y-5017211D02*
X62885713Y-5131497D01*
X62885713Y-5131497D02*
X62942856Y-5360068D01*
X62942856Y-5360068D02*
X62942856Y-5531497D01*
X62942856Y-5531497D02*
X62885713Y-5760068D01*
X62885713Y-5760068D02*
X62828570Y-5874354D01*
X62828570Y-5874354D02*
X62714285Y-5988640D01*
X62714285Y-5988640D02*
X62542856Y-6045782D01*
X62542856Y-6045782D02*
X62257142Y-6045782D01*
X63457142Y-6045782D02*
X63457142Y-4845782D01*
X63457142Y-4845782D02*
X63857142Y-5702925D01*
X63857142Y-5702925D02*
X64257142Y-4845782D01*
X64257142Y-4845782D02*
X64257142Y-6045782D01*
X64714285Y-4845782D02*
X65514285Y-6045782D01*
X65514285Y-4845782D02*
X64714285Y-6045782D01*
X67114285Y-4845782D02*
X67342857Y-4845782D01*
X67342857Y-4845782D02*
X67457142Y-4902925D01*
X67457142Y-4902925D02*
X67571428Y-5017211D01*
X67571428Y-5017211D02*
X67628571Y-5245782D01*
X67628571Y-5245782D02*
X67628571Y-5645782D01*
X67628571Y-5645782D02*
X67571428Y-5874354D01*
X67571428Y-5874354D02*
X67457142Y-5988640D01*
X67457142Y-5988640D02*
X67342857Y-6045782D01*
X67342857Y-6045782D02*
X67114285Y-6045782D01*
X67114285Y-6045782D02*
X67000000Y-5988640D01*
X67000000Y-5988640D02*
X66885714Y-5874354D01*
X66885714Y-5874354D02*
X66828571Y-5645782D01*
X66828571Y-5645782D02*
X66828571Y-5245782D01*
X66828571Y-5245782D02*
X66885714Y-5017211D01*
X66885714Y-5017211D02*
X67000000Y-4902925D01*
X67000000Y-4902925D02*
X67114285Y-4845782D01*
X68142857Y-4845782D02*
X68142857Y-5817211D01*
X68142857Y-5817211D02*
X68200000Y-5931497D01*
X68200000Y-5931497D02*
X68257143Y-5988640D01*
X68257143Y-5988640D02*
X68371428Y-6045782D01*
X68371428Y-6045782D02*
X68600000Y-6045782D01*
X68600000Y-6045782D02*
X68714285Y-5988640D01*
X68714285Y-5988640D02*
X68771428Y-5931497D01*
X68771428Y-5931497D02*
X68828571Y-5817211D01*
X68828571Y-5817211D02*
X68828571Y-4845782D01*
X69228571Y-4845782D02*
X69914286Y-4845782D01*
X69571428Y-6045782D02*
X69571428Y-4845782D01*
D10*
X22433332Y-44725760D02*
X22547618Y-44763855D01*
X22547618Y-44763855D02*
X22738094Y-44763855D01*
X22738094Y-44763855D02*
X22814285Y-44725760D01*
X22814285Y-44725760D02*
X22852380Y-44687664D01*
X22852380Y-44687664D02*
X22890475Y-44611474D01*
X22890475Y-44611474D02*
X22890475Y-44535283D01*
X22890475Y-44535283D02*
X22852380Y-44459093D01*
X22852380Y-44459093D02*
X22814285Y-44420998D01*
X22814285Y-44420998D02*
X22738094Y-44382902D01*
X22738094Y-44382902D02*
X22585713Y-44344807D01*
X22585713Y-44344807D02*
X22509523Y-44306712D01*
X22509523Y-44306712D02*
X22471428Y-44268617D01*
X22471428Y-44268617D02*
X22433332Y-44192426D01*
X22433332Y-44192426D02*
X22433332Y-44116236D01*
X22433332Y-44116236D02*
X22471428Y-44040045D01*
X22471428Y-44040045D02*
X22509523Y-44001950D01*
X22509523Y-44001950D02*
X22585713Y-43963855D01*
X22585713Y-43963855D02*
X22776190Y-43963855D01*
X22776190Y-43963855D02*
X22890475Y-44001950D01*
X23157142Y-43963855D02*
X23347618Y-44763855D01*
X23347618Y-44763855D02*
X23499999Y-44192426D01*
X23499999Y-44192426D02*
X23652380Y-44763855D01*
X23652380Y-44763855D02*
X23842857Y-43963855D01*
X24109523Y-44040045D02*
X24147619Y-44001950D01*
X24147619Y-44001950D02*
X24223809Y-43963855D01*
X24223809Y-43963855D02*
X24414285Y-43963855D01*
X24414285Y-43963855D02*
X24490476Y-44001950D01*
X24490476Y-44001950D02*
X24528571Y-44040045D01*
X24528571Y-44040045D02*
X24566666Y-44116236D01*
X24566666Y-44116236D02*
X24566666Y-44192426D01*
X24566666Y-44192426D02*
X24528571Y-44306712D01*
X24528571Y-44306712D02*
X24071428Y-44763855D01*
X24071428Y-44763855D02*
X24566666Y-44763855D01*
X12933855Y-36133332D02*
X12552902Y-36399999D01*
X12933855Y-36590475D02*
X12133855Y-36590475D01*
X12133855Y-36590475D02*
X12133855Y-36285713D01*
X12133855Y-36285713D02*
X12171950Y-36209523D01*
X12171950Y-36209523D02*
X12210045Y-36171428D01*
X12210045Y-36171428D02*
X12286236Y-36133332D01*
X12286236Y-36133332D02*
X12400521Y-36133332D01*
X12400521Y-36133332D02*
X12476712Y-36171428D01*
X12476712Y-36171428D02*
X12514807Y-36209523D01*
X12514807Y-36209523D02*
X12552902Y-36285713D01*
X12552902Y-36285713D02*
X12552902Y-36590475D01*
X12210045Y-35828571D02*
X12171950Y-35790475D01*
X12171950Y-35790475D02*
X12133855Y-35714285D01*
X12133855Y-35714285D02*
X12133855Y-35523809D01*
X12133855Y-35523809D02*
X12171950Y-35447618D01*
X12171950Y-35447618D02*
X12210045Y-35409523D01*
X12210045Y-35409523D02*
X12286236Y-35371428D01*
X12286236Y-35371428D02*
X12362426Y-35371428D01*
X12362426Y-35371428D02*
X12476712Y-35409523D01*
X12476712Y-35409523D02*
X12933855Y-35866666D01*
X12933855Y-35866666D02*
X12933855Y-35371428D01*
X43366667Y-42433855D02*
X43100000Y-42052902D01*
X42909524Y-42433855D02*
X42909524Y-41633855D01*
X42909524Y-41633855D02*
X43214286Y-41633855D01*
X43214286Y-41633855D02*
X43290476Y-41671950D01*
X43290476Y-41671950D02*
X43328571Y-41710045D01*
X43328571Y-41710045D02*
X43366667Y-41786236D01*
X43366667Y-41786236D02*
X43366667Y-41900521D01*
X43366667Y-41900521D02*
X43328571Y-41976712D01*
X43328571Y-41976712D02*
X43290476Y-42014807D01*
X43290476Y-42014807D02*
X43214286Y-42052902D01*
X43214286Y-42052902D02*
X42909524Y-42052902D01*
X43823809Y-41976712D02*
X43747619Y-41938617D01*
X43747619Y-41938617D02*
X43709524Y-41900521D01*
X43709524Y-41900521D02*
X43671428Y-41824331D01*
X43671428Y-41824331D02*
X43671428Y-41786236D01*
X43671428Y-41786236D02*
X43709524Y-41710045D01*
X43709524Y-41710045D02*
X43747619Y-41671950D01*
X43747619Y-41671950D02*
X43823809Y-41633855D01*
X43823809Y-41633855D02*
X43976190Y-41633855D01*
X43976190Y-41633855D02*
X44052381Y-41671950D01*
X44052381Y-41671950D02*
X44090476Y-41710045D01*
X44090476Y-41710045D02*
X44128571Y-41786236D01*
X44128571Y-41786236D02*
X44128571Y-41824331D01*
X44128571Y-41824331D02*
X44090476Y-41900521D01*
X44090476Y-41900521D02*
X44052381Y-41938617D01*
X44052381Y-41938617D02*
X43976190Y-41976712D01*
X43976190Y-41976712D02*
X43823809Y-41976712D01*
X43823809Y-41976712D02*
X43747619Y-42014807D01*
X43747619Y-42014807D02*
X43709524Y-42052902D01*
X43709524Y-42052902D02*
X43671428Y-42129093D01*
X43671428Y-42129093D02*
X43671428Y-42281474D01*
X43671428Y-42281474D02*
X43709524Y-42357664D01*
X43709524Y-42357664D02*
X43747619Y-42395760D01*
X43747619Y-42395760D02*
X43823809Y-42433855D01*
X43823809Y-42433855D02*
X43976190Y-42433855D01*
X43976190Y-42433855D02*
X44052381Y-42395760D01*
X44052381Y-42395760D02*
X44090476Y-42357664D01*
X44090476Y-42357664D02*
X44128571Y-42281474D01*
X44128571Y-42281474D02*
X44128571Y-42129093D01*
X44128571Y-42129093D02*
X44090476Y-42052902D01*
X44090476Y-42052902D02*
X44052381Y-42014807D01*
X44052381Y-42014807D02*
X43976190Y-41976712D01*
X2890476Y286144D02*
X2890476Y1086144D01*
X2890476Y705192D02*
X3347619Y705192D01*
X3347619Y286144D02*
X3347619Y1086144D01*
X4147618Y286144D02*
X3690475Y286144D01*
X3919047Y286144D02*
X3919047Y1086144D01*
X3919047Y1086144D02*
X3842856Y971859D01*
X3842856Y971859D02*
X3766666Y895668D01*
X3766666Y895668D02*
X3690475Y857573D01*
X23366667Y-41433855D02*
X23100000Y-41052902D01*
X22909524Y-41433855D02*
X22909524Y-40633855D01*
X22909524Y-40633855D02*
X23214286Y-40633855D01*
X23214286Y-40633855D02*
X23290476Y-40671950D01*
X23290476Y-40671950D02*
X23328571Y-40710045D01*
X23328571Y-40710045D02*
X23366667Y-40786236D01*
X23366667Y-40786236D02*
X23366667Y-40900521D01*
X23366667Y-40900521D02*
X23328571Y-40976712D01*
X23328571Y-40976712D02*
X23290476Y-41014807D01*
X23290476Y-41014807D02*
X23214286Y-41052902D01*
X23214286Y-41052902D02*
X22909524Y-41052902D01*
X24052381Y-40900521D02*
X24052381Y-41433855D01*
X23861905Y-40595760D02*
X23671428Y-41167188D01*
X23671428Y-41167188D02*
X24166667Y-41167188D01*
X13866667Y-19857664D02*
X13828571Y-19895760D01*
X13828571Y-19895760D02*
X13714286Y-19933855D01*
X13714286Y-19933855D02*
X13638095Y-19933855D01*
X13638095Y-19933855D02*
X13523809Y-19895760D01*
X13523809Y-19895760D02*
X13447619Y-19819569D01*
X13447619Y-19819569D02*
X13409524Y-19743379D01*
X13409524Y-19743379D02*
X13371428Y-19590998D01*
X13371428Y-19590998D02*
X13371428Y-19476712D01*
X13371428Y-19476712D02*
X13409524Y-19324331D01*
X13409524Y-19324331D02*
X13447619Y-19248140D01*
X13447619Y-19248140D02*
X13523809Y-19171950D01*
X13523809Y-19171950D02*
X13638095Y-19133855D01*
X13638095Y-19133855D02*
X13714286Y-19133855D01*
X13714286Y-19133855D02*
X13828571Y-19171950D01*
X13828571Y-19171950D02*
X13866667Y-19210045D01*
X14133333Y-19133855D02*
X14628571Y-19133855D01*
X14628571Y-19133855D02*
X14361905Y-19438617D01*
X14361905Y-19438617D02*
X14476190Y-19438617D01*
X14476190Y-19438617D02*
X14552381Y-19476712D01*
X14552381Y-19476712D02*
X14590476Y-19514807D01*
X14590476Y-19514807D02*
X14628571Y-19590998D01*
X14628571Y-19590998D02*
X14628571Y-19781474D01*
X14628571Y-19781474D02*
X14590476Y-19857664D01*
X14590476Y-19857664D02*
X14552381Y-19895760D01*
X14552381Y-19895760D02*
X14476190Y-19933855D01*
X14476190Y-19933855D02*
X14247619Y-19933855D01*
X14247619Y-19933855D02*
X14171428Y-19895760D01*
X14171428Y-19895760D02*
X14133333Y-19857664D01*
X47233333Y-19183855D02*
X47233333Y-19755283D01*
X47233333Y-19755283D02*
X47195238Y-19869569D01*
X47195238Y-19869569D02*
X47119047Y-19945760D01*
X47119047Y-19945760D02*
X47004762Y-19983855D01*
X47004762Y-19983855D02*
X46928571Y-19983855D01*
X47995238Y-19183855D02*
X47614286Y-19183855D01*
X47614286Y-19183855D02*
X47576190Y-19564807D01*
X47576190Y-19564807D02*
X47614286Y-19526712D01*
X47614286Y-19526712D02*
X47690476Y-19488617D01*
X47690476Y-19488617D02*
X47880952Y-19488617D01*
X47880952Y-19488617D02*
X47957143Y-19526712D01*
X47957143Y-19526712D02*
X47995238Y-19564807D01*
X47995238Y-19564807D02*
X48033333Y-19640998D01*
X48033333Y-19640998D02*
X48033333Y-19831474D01*
X48033333Y-19831474D02*
X47995238Y-19907664D01*
X47995238Y-19907664D02*
X47957143Y-19945760D01*
X47957143Y-19945760D02*
X47880952Y-19983855D01*
X47880952Y-19983855D02*
X47690476Y-19983855D01*
X47690476Y-19983855D02*
X47614286Y-19945760D01*
X47614286Y-19945760D02*
X47576190Y-19907664D01*
X33433332Y-44725760D02*
X33547618Y-44763855D01*
X33547618Y-44763855D02*
X33738094Y-44763855D01*
X33738094Y-44763855D02*
X33814285Y-44725760D01*
X33814285Y-44725760D02*
X33852380Y-44687664D01*
X33852380Y-44687664D02*
X33890475Y-44611474D01*
X33890475Y-44611474D02*
X33890475Y-44535283D01*
X33890475Y-44535283D02*
X33852380Y-44459093D01*
X33852380Y-44459093D02*
X33814285Y-44420998D01*
X33814285Y-44420998D02*
X33738094Y-44382902D01*
X33738094Y-44382902D02*
X33585713Y-44344807D01*
X33585713Y-44344807D02*
X33509523Y-44306712D01*
X33509523Y-44306712D02*
X33471428Y-44268617D01*
X33471428Y-44268617D02*
X33433332Y-44192426D01*
X33433332Y-44192426D02*
X33433332Y-44116236D01*
X33433332Y-44116236D02*
X33471428Y-44040045D01*
X33471428Y-44040045D02*
X33509523Y-44001950D01*
X33509523Y-44001950D02*
X33585713Y-43963855D01*
X33585713Y-43963855D02*
X33776190Y-43963855D01*
X33776190Y-43963855D02*
X33890475Y-44001950D01*
X34157142Y-43963855D02*
X34347618Y-44763855D01*
X34347618Y-44763855D02*
X34499999Y-44192426D01*
X34499999Y-44192426D02*
X34652380Y-44763855D01*
X34652380Y-44763855D02*
X34842857Y-43963855D01*
X35071428Y-43963855D02*
X35566666Y-43963855D01*
X35566666Y-43963855D02*
X35300000Y-44268617D01*
X35300000Y-44268617D02*
X35414285Y-44268617D01*
X35414285Y-44268617D02*
X35490476Y-44306712D01*
X35490476Y-44306712D02*
X35528571Y-44344807D01*
X35528571Y-44344807D02*
X35566666Y-44420998D01*
X35566666Y-44420998D02*
X35566666Y-44611474D01*
X35566666Y-44611474D02*
X35528571Y-44687664D01*
X35528571Y-44687664D02*
X35490476Y-44725760D01*
X35490476Y-44725760D02*
X35414285Y-44763855D01*
X35414285Y-44763855D02*
X35185714Y-44763855D01*
X35185714Y-44763855D02*
X35109523Y-44725760D01*
X35109523Y-44725760D02*
X35071428Y-44687664D01*
X34366667Y-41433855D02*
X34100000Y-41052902D01*
X33909524Y-41433855D02*
X33909524Y-40633855D01*
X33909524Y-40633855D02*
X34214286Y-40633855D01*
X34214286Y-40633855D02*
X34290476Y-40671950D01*
X34290476Y-40671950D02*
X34328571Y-40710045D01*
X34328571Y-40710045D02*
X34366667Y-40786236D01*
X34366667Y-40786236D02*
X34366667Y-40900521D01*
X34366667Y-40900521D02*
X34328571Y-40976712D01*
X34328571Y-40976712D02*
X34290476Y-41014807D01*
X34290476Y-41014807D02*
X34214286Y-41052902D01*
X34214286Y-41052902D02*
X33909524Y-41052902D01*
X35090476Y-40633855D02*
X34709524Y-40633855D01*
X34709524Y-40633855D02*
X34671428Y-41014807D01*
X34671428Y-41014807D02*
X34709524Y-40976712D01*
X34709524Y-40976712D02*
X34785714Y-40938617D01*
X34785714Y-40938617D02*
X34976190Y-40938617D01*
X34976190Y-40938617D02*
X35052381Y-40976712D01*
X35052381Y-40976712D02*
X35090476Y-41014807D01*
X35090476Y-41014807D02*
X35128571Y-41090998D01*
X35128571Y-41090998D02*
X35128571Y-41281474D01*
X35128571Y-41281474D02*
X35090476Y-41357664D01*
X35090476Y-41357664D02*
X35052381Y-41395760D01*
X35052381Y-41395760D02*
X34976190Y-41433855D01*
X34976190Y-41433855D02*
X34785714Y-41433855D01*
X34785714Y-41433855D02*
X34709524Y-41395760D01*
X34709524Y-41395760D02*
X34671428Y-41357664D01*
X8866667Y-19607664D02*
X8828571Y-19645760D01*
X8828571Y-19645760D02*
X8714286Y-19683855D01*
X8714286Y-19683855D02*
X8638095Y-19683855D01*
X8638095Y-19683855D02*
X8523809Y-19645760D01*
X8523809Y-19645760D02*
X8447619Y-19569569D01*
X8447619Y-19569569D02*
X8409524Y-19493379D01*
X8409524Y-19493379D02*
X8371428Y-19340998D01*
X8371428Y-19340998D02*
X8371428Y-19226712D01*
X8371428Y-19226712D02*
X8409524Y-19074331D01*
X8409524Y-19074331D02*
X8447619Y-18998140D01*
X8447619Y-18998140D02*
X8523809Y-18921950D01*
X8523809Y-18921950D02*
X8638095Y-18883855D01*
X8638095Y-18883855D02*
X8714286Y-18883855D01*
X8714286Y-18883855D02*
X8828571Y-18921950D01*
X8828571Y-18921950D02*
X8866667Y-18960045D01*
X9171428Y-18960045D02*
X9209524Y-18921950D01*
X9209524Y-18921950D02*
X9285714Y-18883855D01*
X9285714Y-18883855D02*
X9476190Y-18883855D01*
X9476190Y-18883855D02*
X9552381Y-18921950D01*
X9552381Y-18921950D02*
X9590476Y-18960045D01*
X9590476Y-18960045D02*
X9628571Y-19036236D01*
X9628571Y-19036236D02*
X9628571Y-19112426D01*
X9628571Y-19112426D02*
X9590476Y-19226712D01*
X9590476Y-19226712D02*
X9133333Y-19683855D01*
X9133333Y-19683855D02*
X9628571Y-19683855D01*
X42909524Y-46863855D02*
X42909524Y-46063855D01*
X42909524Y-46063855D02*
X43100000Y-46063855D01*
X43100000Y-46063855D02*
X43214286Y-46101950D01*
X43214286Y-46101950D02*
X43290476Y-46178140D01*
X43290476Y-46178140D02*
X43328571Y-46254331D01*
X43328571Y-46254331D02*
X43366667Y-46406712D01*
X43366667Y-46406712D02*
X43366667Y-46520998D01*
X43366667Y-46520998D02*
X43328571Y-46673379D01*
X43328571Y-46673379D02*
X43290476Y-46749569D01*
X43290476Y-46749569D02*
X43214286Y-46825760D01*
X43214286Y-46825760D02*
X43100000Y-46863855D01*
X43100000Y-46863855D02*
X42909524Y-46863855D01*
X43671428Y-46140045D02*
X43709524Y-46101950D01*
X43709524Y-46101950D02*
X43785714Y-46063855D01*
X43785714Y-46063855D02*
X43976190Y-46063855D01*
X43976190Y-46063855D02*
X44052381Y-46101950D01*
X44052381Y-46101950D02*
X44090476Y-46140045D01*
X44090476Y-46140045D02*
X44128571Y-46216236D01*
X44128571Y-46216236D02*
X44128571Y-46292426D01*
X44128571Y-46292426D02*
X44090476Y-46406712D01*
X44090476Y-46406712D02*
X43633333Y-46863855D01*
X43633333Y-46863855D02*
X44128571Y-46863855D01*
X55313333Y-41743855D02*
X55313333Y-42315283D01*
X55313333Y-42315283D02*
X55275238Y-42429569D01*
X55275238Y-42429569D02*
X55199047Y-42505760D01*
X55199047Y-42505760D02*
X55084762Y-42543855D01*
X55084762Y-42543855D02*
X55008571Y-42543855D01*
X55618095Y-41743855D02*
X56113333Y-41743855D01*
X56113333Y-41743855D02*
X55846667Y-42048617D01*
X55846667Y-42048617D02*
X55960952Y-42048617D01*
X55960952Y-42048617D02*
X56037143Y-42086712D01*
X56037143Y-42086712D02*
X56075238Y-42124807D01*
X56075238Y-42124807D02*
X56113333Y-42200998D01*
X56113333Y-42200998D02*
X56113333Y-42391474D01*
X56113333Y-42391474D02*
X56075238Y-42467664D01*
X56075238Y-42467664D02*
X56037143Y-42505760D01*
X56037143Y-42505760D02*
X55960952Y-42543855D01*
X55960952Y-42543855D02*
X55732381Y-42543855D01*
X55732381Y-42543855D02*
X55656190Y-42505760D01*
X55656190Y-42505760D02*
X55618095Y-42467664D01*
X71333333Y-6063855D02*
X71333333Y-6635283D01*
X71333333Y-6635283D02*
X71295238Y-6749569D01*
X71295238Y-6749569D02*
X71219047Y-6825760D01*
X71219047Y-6825760D02*
X71104762Y-6863855D01*
X71104762Y-6863855D02*
X71028571Y-6863855D01*
X71676190Y-6140045D02*
X71714286Y-6101950D01*
X71714286Y-6101950D02*
X71790476Y-6063855D01*
X71790476Y-6063855D02*
X71980952Y-6063855D01*
X71980952Y-6063855D02*
X72057143Y-6101950D01*
X72057143Y-6101950D02*
X72095238Y-6140045D01*
X72095238Y-6140045D02*
X72133333Y-6216236D01*
X72133333Y-6216236D02*
X72133333Y-6292426D01*
X72133333Y-6292426D02*
X72095238Y-6406712D01*
X72095238Y-6406712D02*
X71638095Y-6863855D01*
X71638095Y-6863855D02*
X72133333Y-6863855D01*
X10366667Y-41433855D02*
X10100000Y-41052902D01*
X9909524Y-41433855D02*
X9909524Y-40633855D01*
X9909524Y-40633855D02*
X10214286Y-40633855D01*
X10214286Y-40633855D02*
X10290476Y-40671950D01*
X10290476Y-40671950D02*
X10328571Y-40710045D01*
X10328571Y-40710045D02*
X10366667Y-40786236D01*
X10366667Y-40786236D02*
X10366667Y-40900521D01*
X10366667Y-40900521D02*
X10328571Y-40976712D01*
X10328571Y-40976712D02*
X10290476Y-41014807D01*
X10290476Y-41014807D02*
X10214286Y-41052902D01*
X10214286Y-41052902D02*
X9909524Y-41052902D01*
X10633333Y-40633855D02*
X11128571Y-40633855D01*
X11128571Y-40633855D02*
X10861905Y-40938617D01*
X10861905Y-40938617D02*
X10976190Y-40938617D01*
X10976190Y-40938617D02*
X11052381Y-40976712D01*
X11052381Y-40976712D02*
X11090476Y-41014807D01*
X11090476Y-41014807D02*
X11128571Y-41090998D01*
X11128571Y-41090998D02*
X11128571Y-41281474D01*
X11128571Y-41281474D02*
X11090476Y-41357664D01*
X11090476Y-41357664D02*
X11052381Y-41395760D01*
X11052381Y-41395760D02*
X10976190Y-41433855D01*
X10976190Y-41433855D02*
X10747619Y-41433855D01*
X10747619Y-41433855D02*
X10671428Y-41395760D01*
X10671428Y-41395760D02*
X10633333Y-41357664D01*
X53409524Y-17963855D02*
X53409524Y-17163855D01*
X53409524Y-17163855D02*
X53600000Y-17163855D01*
X53600000Y-17163855D02*
X53714286Y-17201950D01*
X53714286Y-17201950D02*
X53790476Y-17278140D01*
X53790476Y-17278140D02*
X53828571Y-17354331D01*
X53828571Y-17354331D02*
X53866667Y-17506712D01*
X53866667Y-17506712D02*
X53866667Y-17620998D01*
X53866667Y-17620998D02*
X53828571Y-17773379D01*
X53828571Y-17773379D02*
X53790476Y-17849569D01*
X53790476Y-17849569D02*
X53714286Y-17925760D01*
X53714286Y-17925760D02*
X53600000Y-17963855D01*
X53600000Y-17963855D02*
X53409524Y-17963855D01*
X54628571Y-17963855D02*
X54171428Y-17963855D01*
X54400000Y-17963855D02*
X54400000Y-17163855D01*
X54400000Y-17163855D02*
X54323809Y-17278140D01*
X54323809Y-17278140D02*
X54247619Y-17354331D01*
X54247619Y-17354331D02*
X54171428Y-17392426D01*
X54923809Y-35040045D02*
X54847619Y-35001950D01*
X54847619Y-35001950D02*
X54771428Y-34925760D01*
X54771428Y-34925760D02*
X54657142Y-34811474D01*
X54657142Y-34811474D02*
X54580952Y-34773379D01*
X54580952Y-34773379D02*
X54504761Y-34773379D01*
X54542857Y-34963855D02*
X54466666Y-34925760D01*
X54466666Y-34925760D02*
X54390476Y-34849569D01*
X54390476Y-34849569D02*
X54352380Y-34697188D01*
X54352380Y-34697188D02*
X54352380Y-34430521D01*
X54352380Y-34430521D02*
X54390476Y-34278140D01*
X54390476Y-34278140D02*
X54466666Y-34201950D01*
X54466666Y-34201950D02*
X54542857Y-34163855D01*
X54542857Y-34163855D02*
X54695238Y-34163855D01*
X54695238Y-34163855D02*
X54771428Y-34201950D01*
X54771428Y-34201950D02*
X54847619Y-34278140D01*
X54847619Y-34278140D02*
X54885714Y-34430521D01*
X54885714Y-34430521D02*
X54885714Y-34697188D01*
X54885714Y-34697188D02*
X54847619Y-34849569D01*
X54847619Y-34849569D02*
X54771428Y-34925760D01*
X54771428Y-34925760D02*
X54695238Y-34963855D01*
X54695238Y-34963855D02*
X54542857Y-34963855D01*
X55647618Y-34963855D02*
X55190475Y-34963855D01*
X55419047Y-34963855D02*
X55419047Y-34163855D01*
X55419047Y-34163855D02*
X55342856Y-34278140D01*
X55342856Y-34278140D02*
X55266666Y-34354331D01*
X55266666Y-34354331D02*
X55190475Y-34392426D01*
X43866667Y-15933855D02*
X43600000Y-15552902D01*
X43409524Y-15933855D02*
X43409524Y-15133855D01*
X43409524Y-15133855D02*
X43714286Y-15133855D01*
X43714286Y-15133855D02*
X43790476Y-15171950D01*
X43790476Y-15171950D02*
X43828571Y-15210045D01*
X43828571Y-15210045D02*
X43866667Y-15286236D01*
X43866667Y-15286236D02*
X43866667Y-15400521D01*
X43866667Y-15400521D02*
X43828571Y-15476712D01*
X43828571Y-15476712D02*
X43790476Y-15514807D01*
X43790476Y-15514807D02*
X43714286Y-15552902D01*
X43714286Y-15552902D02*
X43409524Y-15552902D01*
X44133333Y-15133855D02*
X44666667Y-15133855D01*
X44666667Y-15133855D02*
X44323809Y-15933855D01*
X19063855Y-18759523D02*
X19711474Y-18759523D01*
X19711474Y-18759523D02*
X19787664Y-18721428D01*
X19787664Y-18721428D02*
X19825760Y-18683333D01*
X19825760Y-18683333D02*
X19863855Y-18607142D01*
X19863855Y-18607142D02*
X19863855Y-18454761D01*
X19863855Y-18454761D02*
X19825760Y-18378571D01*
X19825760Y-18378571D02*
X19787664Y-18340476D01*
X19787664Y-18340476D02*
X19711474Y-18302380D01*
X19711474Y-18302380D02*
X19063855Y-18302380D01*
X19863855Y-17502381D02*
X19863855Y-17959524D01*
X19863855Y-17730952D02*
X19063855Y-17730952D01*
X19063855Y-17730952D02*
X19178140Y-17807143D01*
X19178140Y-17807143D02*
X19254331Y-17883333D01*
X19254331Y-17883333D02*
X19292426Y-17959524D01*
X53866667Y-22933855D02*
X53600000Y-22552902D01*
X53409524Y-22933855D02*
X53409524Y-22133855D01*
X53409524Y-22133855D02*
X53714286Y-22133855D01*
X53714286Y-22133855D02*
X53790476Y-22171950D01*
X53790476Y-22171950D02*
X53828571Y-22210045D01*
X53828571Y-22210045D02*
X53866667Y-22286236D01*
X53866667Y-22286236D02*
X53866667Y-22400521D01*
X53866667Y-22400521D02*
X53828571Y-22476712D01*
X53828571Y-22476712D02*
X53790476Y-22514807D01*
X53790476Y-22514807D02*
X53714286Y-22552902D01*
X53714286Y-22552902D02*
X53409524Y-22552902D01*
X54552381Y-22133855D02*
X54400000Y-22133855D01*
X54400000Y-22133855D02*
X54323809Y-22171950D01*
X54323809Y-22171950D02*
X54285714Y-22210045D01*
X54285714Y-22210045D02*
X54209524Y-22324331D01*
X54209524Y-22324331D02*
X54171428Y-22476712D01*
X54171428Y-22476712D02*
X54171428Y-22781474D01*
X54171428Y-22781474D02*
X54209524Y-22857664D01*
X54209524Y-22857664D02*
X54247619Y-22895760D01*
X54247619Y-22895760D02*
X54323809Y-22933855D01*
X54323809Y-22933855D02*
X54476190Y-22933855D01*
X54476190Y-22933855D02*
X54552381Y-22895760D01*
X54552381Y-22895760D02*
X54590476Y-22857664D01*
X54590476Y-22857664D02*
X54628571Y-22781474D01*
X54628571Y-22781474D02*
X54628571Y-22590998D01*
X54628571Y-22590998D02*
X54590476Y-22514807D01*
X54590476Y-22514807D02*
X54552381Y-22476712D01*
X54552381Y-22476712D02*
X54476190Y-22438617D01*
X54476190Y-22438617D02*
X54323809Y-22438617D01*
X54323809Y-22438617D02*
X54247619Y-22476712D01*
X54247619Y-22476712D02*
X54209524Y-22514807D01*
X54209524Y-22514807D02*
X54171428Y-22590998D01*
X11433332Y-44725760D02*
X11547618Y-44763855D01*
X11547618Y-44763855D02*
X11738094Y-44763855D01*
X11738094Y-44763855D02*
X11814285Y-44725760D01*
X11814285Y-44725760D02*
X11852380Y-44687664D01*
X11852380Y-44687664D02*
X11890475Y-44611474D01*
X11890475Y-44611474D02*
X11890475Y-44535283D01*
X11890475Y-44535283D02*
X11852380Y-44459093D01*
X11852380Y-44459093D02*
X11814285Y-44420998D01*
X11814285Y-44420998D02*
X11738094Y-44382902D01*
X11738094Y-44382902D02*
X11585713Y-44344807D01*
X11585713Y-44344807D02*
X11509523Y-44306712D01*
X11509523Y-44306712D02*
X11471428Y-44268617D01*
X11471428Y-44268617D02*
X11433332Y-44192426D01*
X11433332Y-44192426D02*
X11433332Y-44116236D01*
X11433332Y-44116236D02*
X11471428Y-44040045D01*
X11471428Y-44040045D02*
X11509523Y-44001950D01*
X11509523Y-44001950D02*
X11585713Y-43963855D01*
X11585713Y-43963855D02*
X11776190Y-43963855D01*
X11776190Y-43963855D02*
X11890475Y-44001950D01*
X12157142Y-43963855D02*
X12347618Y-44763855D01*
X12347618Y-44763855D02*
X12499999Y-44192426D01*
X12499999Y-44192426D02*
X12652380Y-44763855D01*
X12652380Y-44763855D02*
X12842857Y-43963855D01*
X13566666Y-44763855D02*
X13109523Y-44763855D01*
X13338095Y-44763855D02*
X13338095Y-43963855D01*
X13338095Y-43963855D02*
X13261904Y-44078140D01*
X13261904Y-44078140D02*
X13185714Y-44154331D01*
X13185714Y-44154331D02*
X13109523Y-44192426D01*
X42733333Y-19183855D02*
X42733333Y-19755283D01*
X42733333Y-19755283D02*
X42695238Y-19869569D01*
X42695238Y-19869569D02*
X42619047Y-19945760D01*
X42619047Y-19945760D02*
X42504762Y-19983855D01*
X42504762Y-19983855D02*
X42428571Y-19983855D01*
X43457143Y-19450521D02*
X43457143Y-19983855D01*
X43266667Y-19145760D02*
X43076190Y-19717188D01*
X43076190Y-19717188D02*
X43571429Y-19717188D01*
X16857664Y-7133332D02*
X16895760Y-7171428D01*
X16895760Y-7171428D02*
X16933855Y-7285713D01*
X16933855Y-7285713D02*
X16933855Y-7361904D01*
X16933855Y-7361904D02*
X16895760Y-7476190D01*
X16895760Y-7476190D02*
X16819569Y-7552380D01*
X16819569Y-7552380D02*
X16743379Y-7590475D01*
X16743379Y-7590475D02*
X16590998Y-7628571D01*
X16590998Y-7628571D02*
X16476712Y-7628571D01*
X16476712Y-7628571D02*
X16324331Y-7590475D01*
X16324331Y-7590475D02*
X16248140Y-7552380D01*
X16248140Y-7552380D02*
X16171950Y-7476190D01*
X16171950Y-7476190D02*
X16133855Y-7361904D01*
X16133855Y-7361904D02*
X16133855Y-7285713D01*
X16133855Y-7285713D02*
X16171950Y-7171428D01*
X16171950Y-7171428D02*
X16210045Y-7133332D01*
X16133855Y-6409523D02*
X16133855Y-6790475D01*
X16133855Y-6790475D02*
X16514807Y-6828571D01*
X16514807Y-6828571D02*
X16476712Y-6790475D01*
X16476712Y-6790475D02*
X16438617Y-6714285D01*
X16438617Y-6714285D02*
X16438617Y-6523809D01*
X16438617Y-6523809D02*
X16476712Y-6447618D01*
X16476712Y-6447618D02*
X16514807Y-6409523D01*
X16514807Y-6409523D02*
X16590998Y-6371428D01*
X16590998Y-6371428D02*
X16781474Y-6371428D01*
X16781474Y-6371428D02*
X16857664Y-6409523D01*
X16857664Y-6409523D02*
X16895760Y-6447618D01*
X16895760Y-6447618D02*
X16933855Y-6523809D01*
X16933855Y-6523809D02*
X16933855Y-6714285D01*
X16933855Y-6714285D02*
X16895760Y-6790475D01*
X16895760Y-6790475D02*
X16857664Y-6828571D01*
X58909524Y-35363855D02*
X58909524Y-34563855D01*
X58909524Y-34563855D02*
X59100000Y-34563855D01*
X59100000Y-34563855D02*
X59214286Y-34601950D01*
X59214286Y-34601950D02*
X59290476Y-34678140D01*
X59290476Y-34678140D02*
X59328571Y-34754331D01*
X59328571Y-34754331D02*
X59366667Y-34906712D01*
X59366667Y-34906712D02*
X59366667Y-35020998D01*
X59366667Y-35020998D02*
X59328571Y-35173379D01*
X59328571Y-35173379D02*
X59290476Y-35249569D01*
X59290476Y-35249569D02*
X59214286Y-35325760D01*
X59214286Y-35325760D02*
X59100000Y-35363855D01*
X59100000Y-35363855D02*
X58909524Y-35363855D01*
X59633333Y-34563855D02*
X60128571Y-34563855D01*
X60128571Y-34563855D02*
X59861905Y-34868617D01*
X59861905Y-34868617D02*
X59976190Y-34868617D01*
X59976190Y-34868617D02*
X60052381Y-34906712D01*
X60052381Y-34906712D02*
X60090476Y-34944807D01*
X60090476Y-34944807D02*
X60128571Y-35020998D01*
X60128571Y-35020998D02*
X60128571Y-35211474D01*
X60128571Y-35211474D02*
X60090476Y-35287664D01*
X60090476Y-35287664D02*
X60052381Y-35325760D01*
X60052381Y-35325760D02*
X59976190Y-35363855D01*
X59976190Y-35363855D02*
X59747619Y-35363855D01*
X59747619Y-35363855D02*
X59671428Y-35325760D01*
X59671428Y-35325760D02*
X59633333Y-35287664D01*
X38866667Y-42357664D02*
X38828571Y-42395760D01*
X38828571Y-42395760D02*
X38714286Y-42433855D01*
X38714286Y-42433855D02*
X38638095Y-42433855D01*
X38638095Y-42433855D02*
X38523809Y-42395760D01*
X38523809Y-42395760D02*
X38447619Y-42319569D01*
X38447619Y-42319569D02*
X38409524Y-42243379D01*
X38409524Y-42243379D02*
X38371428Y-42090998D01*
X38371428Y-42090998D02*
X38371428Y-41976712D01*
X38371428Y-41976712D02*
X38409524Y-41824331D01*
X38409524Y-41824331D02*
X38447619Y-41748140D01*
X38447619Y-41748140D02*
X38523809Y-41671950D01*
X38523809Y-41671950D02*
X38638095Y-41633855D01*
X38638095Y-41633855D02*
X38714286Y-41633855D01*
X38714286Y-41633855D02*
X38828571Y-41671950D01*
X38828571Y-41671950D02*
X38866667Y-41710045D01*
X39323809Y-41976712D02*
X39247619Y-41938617D01*
X39247619Y-41938617D02*
X39209524Y-41900521D01*
X39209524Y-41900521D02*
X39171428Y-41824331D01*
X39171428Y-41824331D02*
X39171428Y-41786236D01*
X39171428Y-41786236D02*
X39209524Y-41710045D01*
X39209524Y-41710045D02*
X39247619Y-41671950D01*
X39247619Y-41671950D02*
X39323809Y-41633855D01*
X39323809Y-41633855D02*
X39476190Y-41633855D01*
X39476190Y-41633855D02*
X39552381Y-41671950D01*
X39552381Y-41671950D02*
X39590476Y-41710045D01*
X39590476Y-41710045D02*
X39628571Y-41786236D01*
X39628571Y-41786236D02*
X39628571Y-41824331D01*
X39628571Y-41824331D02*
X39590476Y-41900521D01*
X39590476Y-41900521D02*
X39552381Y-41938617D01*
X39552381Y-41938617D02*
X39476190Y-41976712D01*
X39476190Y-41976712D02*
X39323809Y-41976712D01*
X39323809Y-41976712D02*
X39247619Y-42014807D01*
X39247619Y-42014807D02*
X39209524Y-42052902D01*
X39209524Y-42052902D02*
X39171428Y-42129093D01*
X39171428Y-42129093D02*
X39171428Y-42281474D01*
X39171428Y-42281474D02*
X39209524Y-42357664D01*
X39209524Y-42357664D02*
X39247619Y-42395760D01*
X39247619Y-42395760D02*
X39323809Y-42433855D01*
X39323809Y-42433855D02*
X39476190Y-42433855D01*
X39476190Y-42433855D02*
X39552381Y-42395760D01*
X39552381Y-42395760D02*
X39590476Y-42357664D01*
X39590476Y-42357664D02*
X39628571Y-42281474D01*
X39628571Y-42281474D02*
X39628571Y-42129093D01*
X39628571Y-42129093D02*
X39590476Y-42052902D01*
X39590476Y-42052902D02*
X39552381Y-42014807D01*
X39552381Y-42014807D02*
X39476190Y-41976712D01*
X2890476Y-46713855D02*
X2890476Y-45913855D01*
X2890476Y-46294807D02*
X3347619Y-46294807D01*
X3347619Y-46713855D02*
X3347619Y-45913855D01*
X3652380Y-45913855D02*
X4147618Y-45913855D01*
X4147618Y-45913855D02*
X3880952Y-46218617D01*
X3880952Y-46218617D02*
X3995237Y-46218617D01*
X3995237Y-46218617D02*
X4071428Y-46256712D01*
X4071428Y-46256712D02*
X4109523Y-46294807D01*
X4109523Y-46294807D02*
X4147618Y-46370998D01*
X4147618Y-46370998D02*
X4147618Y-46561474D01*
X4147618Y-46561474D02*
X4109523Y-46637664D01*
X4109523Y-46637664D02*
X4071428Y-46675760D01*
X4071428Y-46675760D02*
X3995237Y-46713855D01*
X3995237Y-46713855D02*
X3766666Y-46713855D01*
X3766666Y-46713855D02*
X3690475Y-46675760D01*
X3690475Y-46675760D02*
X3652380Y-46637664D01*
X50366667Y-35933855D02*
X50100000Y-35552902D01*
X49909524Y-35933855D02*
X49909524Y-35133855D01*
X49909524Y-35133855D02*
X50214286Y-35133855D01*
X50214286Y-35133855D02*
X50290476Y-35171950D01*
X50290476Y-35171950D02*
X50328571Y-35210045D01*
X50328571Y-35210045D02*
X50366667Y-35286236D01*
X50366667Y-35286236D02*
X50366667Y-35400521D01*
X50366667Y-35400521D02*
X50328571Y-35476712D01*
X50328571Y-35476712D02*
X50290476Y-35514807D01*
X50290476Y-35514807D02*
X50214286Y-35552902D01*
X50214286Y-35552902D02*
X49909524Y-35552902D01*
X50747619Y-35933855D02*
X50900000Y-35933855D01*
X50900000Y-35933855D02*
X50976190Y-35895760D01*
X50976190Y-35895760D02*
X51014286Y-35857664D01*
X51014286Y-35857664D02*
X51090476Y-35743379D01*
X51090476Y-35743379D02*
X51128571Y-35590998D01*
X51128571Y-35590998D02*
X51128571Y-35286236D01*
X51128571Y-35286236D02*
X51090476Y-35210045D01*
X51090476Y-35210045D02*
X51052381Y-35171950D01*
X51052381Y-35171950D02*
X50976190Y-35133855D01*
X50976190Y-35133855D02*
X50823809Y-35133855D01*
X50823809Y-35133855D02*
X50747619Y-35171950D01*
X50747619Y-35171950D02*
X50709524Y-35210045D01*
X50709524Y-35210045D02*
X50671428Y-35286236D01*
X50671428Y-35286236D02*
X50671428Y-35476712D01*
X50671428Y-35476712D02*
X50709524Y-35552902D01*
X50709524Y-35552902D02*
X50747619Y-35590998D01*
X50747619Y-35590998D02*
X50823809Y-35629093D01*
X50823809Y-35629093D02*
X50976190Y-35629093D01*
X50976190Y-35629093D02*
X51052381Y-35590998D01*
X51052381Y-35590998D02*
X51090476Y-35552902D01*
X51090476Y-35552902D02*
X51128571Y-35476712D01*
X5163855Y-15609523D02*
X5811474Y-15609523D01*
X5811474Y-15609523D02*
X5887664Y-15571428D01*
X5887664Y-15571428D02*
X5925760Y-15533333D01*
X5925760Y-15533333D02*
X5963855Y-15457142D01*
X5963855Y-15457142D02*
X5963855Y-15304761D01*
X5963855Y-15304761D02*
X5925760Y-15228571D01*
X5925760Y-15228571D02*
X5887664Y-15190476D01*
X5887664Y-15190476D02*
X5811474Y-15152380D01*
X5811474Y-15152380D02*
X5163855Y-15152380D01*
X5240045Y-14809524D02*
X5201950Y-14771428D01*
X5201950Y-14771428D02*
X5163855Y-14695238D01*
X5163855Y-14695238D02*
X5163855Y-14504762D01*
X5163855Y-14504762D02*
X5201950Y-14428571D01*
X5201950Y-14428571D02*
X5240045Y-14390476D01*
X5240045Y-14390476D02*
X5316236Y-14352381D01*
X5316236Y-14352381D02*
X5392426Y-14352381D01*
X5392426Y-14352381D02*
X5506712Y-14390476D01*
X5506712Y-14390476D02*
X5963855Y-14847619D01*
X5963855Y-14847619D02*
X5963855Y-14352381D01*
X17366667Y-2107664D02*
X17328571Y-2145760D01*
X17328571Y-2145760D02*
X17214286Y-2183855D01*
X17214286Y-2183855D02*
X17138095Y-2183855D01*
X17138095Y-2183855D02*
X17023809Y-2145760D01*
X17023809Y-2145760D02*
X16947619Y-2069569D01*
X16947619Y-2069569D02*
X16909524Y-1993379D01*
X16909524Y-1993379D02*
X16871428Y-1840998D01*
X16871428Y-1840998D02*
X16871428Y-1726712D01*
X16871428Y-1726712D02*
X16909524Y-1574331D01*
X16909524Y-1574331D02*
X16947619Y-1498140D01*
X16947619Y-1498140D02*
X17023809Y-1421950D01*
X17023809Y-1421950D02*
X17138095Y-1383855D01*
X17138095Y-1383855D02*
X17214286Y-1383855D01*
X17214286Y-1383855D02*
X17328571Y-1421950D01*
X17328571Y-1421950D02*
X17366667Y-1460045D01*
X18052381Y-1650521D02*
X18052381Y-2183855D01*
X17861905Y-1345760D02*
X17671428Y-1917188D01*
X17671428Y-1917188D02*
X18166667Y-1917188D01*
X51485714Y-39033855D02*
X51219047Y-38652902D01*
X51028571Y-39033855D02*
X51028571Y-38233855D01*
X51028571Y-38233855D02*
X51333333Y-38233855D01*
X51333333Y-38233855D02*
X51409523Y-38271950D01*
X51409523Y-38271950D02*
X51447618Y-38310045D01*
X51447618Y-38310045D02*
X51485714Y-38386236D01*
X51485714Y-38386236D02*
X51485714Y-38500521D01*
X51485714Y-38500521D02*
X51447618Y-38576712D01*
X51447618Y-38576712D02*
X51409523Y-38614807D01*
X51409523Y-38614807D02*
X51333333Y-38652902D01*
X51333333Y-38652902D02*
X51028571Y-38652902D01*
X52247618Y-39033855D02*
X51790475Y-39033855D01*
X52019047Y-39033855D02*
X52019047Y-38233855D01*
X52019047Y-38233855D02*
X51942856Y-38348140D01*
X51942856Y-38348140D02*
X51866666Y-38424331D01*
X51866666Y-38424331D02*
X51790475Y-38462426D01*
X52742857Y-38233855D02*
X52819047Y-38233855D01*
X52819047Y-38233855D02*
X52895238Y-38271950D01*
X52895238Y-38271950D02*
X52933333Y-38310045D01*
X52933333Y-38310045D02*
X52971428Y-38386236D01*
X52971428Y-38386236D02*
X53009523Y-38538617D01*
X53009523Y-38538617D02*
X53009523Y-38729093D01*
X53009523Y-38729093D02*
X52971428Y-38881474D01*
X52971428Y-38881474D02*
X52933333Y-38957664D01*
X52933333Y-38957664D02*
X52895238Y-38995760D01*
X52895238Y-38995760D02*
X52819047Y-39033855D01*
X52819047Y-39033855D02*
X52742857Y-39033855D01*
X52742857Y-39033855D02*
X52666666Y-38995760D01*
X52666666Y-38995760D02*
X52628571Y-38957664D01*
X52628571Y-38957664D02*
X52590476Y-38881474D01*
X52590476Y-38881474D02*
X52552380Y-38729093D01*
X52552380Y-38729093D02*
X52552380Y-38538617D01*
X52552380Y-38538617D02*
X52590476Y-38386236D01*
X52590476Y-38386236D02*
X52628571Y-38310045D01*
X52628571Y-38310045D02*
X52666666Y-38271950D01*
X52666666Y-38271950D02*
X52742857Y-38233855D01*
X68295237Y-47544807D02*
X68409523Y-47582902D01*
X68409523Y-47582902D02*
X68447618Y-47620998D01*
X68447618Y-47620998D02*
X68485714Y-47697188D01*
X68485714Y-47697188D02*
X68485714Y-47811474D01*
X68485714Y-47811474D02*
X68447618Y-47887664D01*
X68447618Y-47887664D02*
X68409523Y-47925760D01*
X68409523Y-47925760D02*
X68333333Y-47963855D01*
X68333333Y-47963855D02*
X68028571Y-47963855D01*
X68028571Y-47963855D02*
X68028571Y-47163855D01*
X68028571Y-47163855D02*
X68295237Y-47163855D01*
X68295237Y-47163855D02*
X68371428Y-47201950D01*
X68371428Y-47201950D02*
X68409523Y-47240045D01*
X68409523Y-47240045D02*
X68447618Y-47316236D01*
X68447618Y-47316236D02*
X68447618Y-47392426D01*
X68447618Y-47392426D02*
X68409523Y-47468617D01*
X68409523Y-47468617D02*
X68371428Y-47506712D01*
X68371428Y-47506712D02*
X68295237Y-47544807D01*
X68295237Y-47544807D02*
X68028571Y-47544807D01*
X68752380Y-47163855D02*
X69285714Y-47163855D01*
X69285714Y-47163855D02*
X68752380Y-47963855D01*
X68752380Y-47963855D02*
X69285714Y-47963855D01*
X70009523Y-47963855D02*
X69552380Y-47963855D01*
X69780952Y-47963855D02*
X69780952Y-47163855D01*
X69780952Y-47163855D02*
X69704761Y-47278140D01*
X69704761Y-47278140D02*
X69628571Y-47354331D01*
X69628571Y-47354331D02*
X69552380Y-47392426D01*
D11*
X63973866Y-40280951D02*
X63973866Y-39519047D01*
X64354819Y-39899999D02*
X63592914Y-39899999D01*
D10*
X11866667Y-8107664D02*
X11828571Y-8145760D01*
X11828571Y-8145760D02*
X11714286Y-8183855D01*
X11714286Y-8183855D02*
X11638095Y-8183855D01*
X11638095Y-8183855D02*
X11523809Y-8145760D01*
X11523809Y-8145760D02*
X11447619Y-8069569D01*
X11447619Y-8069569D02*
X11409524Y-7993379D01*
X11409524Y-7993379D02*
X11371428Y-7840998D01*
X11371428Y-7840998D02*
X11371428Y-7726712D01*
X11371428Y-7726712D02*
X11409524Y-7574331D01*
X11409524Y-7574331D02*
X11447619Y-7498140D01*
X11447619Y-7498140D02*
X11523809Y-7421950D01*
X11523809Y-7421950D02*
X11638095Y-7383855D01*
X11638095Y-7383855D02*
X11714286Y-7383855D01*
X11714286Y-7383855D02*
X11828571Y-7421950D01*
X11828571Y-7421950D02*
X11866667Y-7460045D01*
X12628571Y-8183855D02*
X12171428Y-8183855D01*
X12400000Y-8183855D02*
X12400000Y-7383855D01*
X12400000Y-7383855D02*
X12323809Y-7498140D01*
X12323809Y-7498140D02*
X12247619Y-7574331D01*
X12247619Y-7574331D02*
X12171428Y-7612426D01*
X12933855Y-26133332D02*
X12552902Y-26399999D01*
X12933855Y-26590475D02*
X12133855Y-26590475D01*
X12133855Y-26590475D02*
X12133855Y-26285713D01*
X12133855Y-26285713D02*
X12171950Y-26209523D01*
X12171950Y-26209523D02*
X12210045Y-26171428D01*
X12210045Y-26171428D02*
X12286236Y-26133332D01*
X12286236Y-26133332D02*
X12400521Y-26133332D01*
X12400521Y-26133332D02*
X12476712Y-26171428D01*
X12476712Y-26171428D02*
X12514807Y-26209523D01*
X12514807Y-26209523D02*
X12552902Y-26285713D01*
X12552902Y-26285713D02*
X12552902Y-26590475D01*
X12933855Y-25371428D02*
X12933855Y-25828571D01*
X12933855Y-25599999D02*
X12133855Y-25599999D01*
X12133855Y-25599999D02*
X12248140Y-25676190D01*
X12248140Y-25676190D02*
X12324331Y-25752380D01*
X12324331Y-25752380D02*
X12362426Y-25828571D01*
X14866667Y-41107664D02*
X14828571Y-41145760D01*
X14828571Y-41145760D02*
X14714286Y-41183855D01*
X14714286Y-41183855D02*
X14638095Y-41183855D01*
X14638095Y-41183855D02*
X14523809Y-41145760D01*
X14523809Y-41145760D02*
X14447619Y-41069569D01*
X14447619Y-41069569D02*
X14409524Y-40993379D01*
X14409524Y-40993379D02*
X14371428Y-40840998D01*
X14371428Y-40840998D02*
X14371428Y-40726712D01*
X14371428Y-40726712D02*
X14409524Y-40574331D01*
X14409524Y-40574331D02*
X14447619Y-40498140D01*
X14447619Y-40498140D02*
X14523809Y-40421950D01*
X14523809Y-40421950D02*
X14638095Y-40383855D01*
X14638095Y-40383855D02*
X14714286Y-40383855D01*
X14714286Y-40383855D02*
X14828571Y-40421950D01*
X14828571Y-40421950D02*
X14866667Y-40460045D01*
X15552381Y-40383855D02*
X15400000Y-40383855D01*
X15400000Y-40383855D02*
X15323809Y-40421950D01*
X15323809Y-40421950D02*
X15285714Y-40460045D01*
X15285714Y-40460045D02*
X15209524Y-40574331D01*
X15209524Y-40574331D02*
X15171428Y-40726712D01*
X15171428Y-40726712D02*
X15171428Y-41031474D01*
X15171428Y-41031474D02*
X15209524Y-41107664D01*
X15209524Y-41107664D02*
X15247619Y-41145760D01*
X15247619Y-41145760D02*
X15323809Y-41183855D01*
X15323809Y-41183855D02*
X15476190Y-41183855D01*
X15476190Y-41183855D02*
X15552381Y-41145760D01*
X15552381Y-41145760D02*
X15590476Y-41107664D01*
X15590476Y-41107664D02*
X15628571Y-41031474D01*
X15628571Y-41031474D02*
X15628571Y-40840998D01*
X15628571Y-40840998D02*
X15590476Y-40764807D01*
X15590476Y-40764807D02*
X15552381Y-40726712D01*
X15552381Y-40726712D02*
X15476190Y-40688617D01*
X15476190Y-40688617D02*
X15323809Y-40688617D01*
X15323809Y-40688617D02*
X15247619Y-40726712D01*
X15247619Y-40726712D02*
X15209524Y-40764807D01*
X15209524Y-40764807D02*
X15171428Y-40840998D01*
X75890476Y-46713855D02*
X75890476Y-45913855D01*
X75890476Y-46294807D02*
X76347619Y-46294807D01*
X76347619Y-46713855D02*
X76347619Y-45913855D01*
X77071428Y-46180521D02*
X77071428Y-46713855D01*
X76880952Y-45875760D02*
X76690475Y-46447188D01*
X76690475Y-46447188D02*
X77185714Y-46447188D01*
X47390476Y-8163855D02*
X47390476Y-8811474D01*
X47390476Y-8811474D02*
X47428571Y-8887664D01*
X47428571Y-8887664D02*
X47466666Y-8925760D01*
X47466666Y-8925760D02*
X47542857Y-8963855D01*
X47542857Y-8963855D02*
X47695238Y-8963855D01*
X47695238Y-8963855D02*
X47771428Y-8925760D01*
X47771428Y-8925760D02*
X47809523Y-8887664D01*
X47809523Y-8887664D02*
X47847619Y-8811474D01*
X47847619Y-8811474D02*
X47847619Y-8163855D01*
X48152380Y-8163855D02*
X48647618Y-8163855D01*
X48647618Y-8163855D02*
X48380952Y-8468617D01*
X48380952Y-8468617D02*
X48495237Y-8468617D01*
X48495237Y-8468617D02*
X48571428Y-8506712D01*
X48571428Y-8506712D02*
X48609523Y-8544807D01*
X48609523Y-8544807D02*
X48647618Y-8620998D01*
X48647618Y-8620998D02*
X48647618Y-8811474D01*
X48647618Y-8811474D02*
X48609523Y-8887664D01*
X48609523Y-8887664D02*
X48571428Y-8925760D01*
X48571428Y-8925760D02*
X48495237Y-8963855D01*
X48495237Y-8963855D02*
X48266666Y-8963855D01*
X48266666Y-8963855D02*
X48190475Y-8925760D01*
X48190475Y-8925760D02*
X48152380Y-8887664D01*
X47866667Y-5857664D02*
X47828571Y-5895760D01*
X47828571Y-5895760D02*
X47714286Y-5933855D01*
X47714286Y-5933855D02*
X47638095Y-5933855D01*
X47638095Y-5933855D02*
X47523809Y-5895760D01*
X47523809Y-5895760D02*
X47447619Y-5819569D01*
X47447619Y-5819569D02*
X47409524Y-5743379D01*
X47409524Y-5743379D02*
X47371428Y-5590998D01*
X47371428Y-5590998D02*
X47371428Y-5476712D01*
X47371428Y-5476712D02*
X47409524Y-5324331D01*
X47409524Y-5324331D02*
X47447619Y-5248140D01*
X47447619Y-5248140D02*
X47523809Y-5171950D01*
X47523809Y-5171950D02*
X47638095Y-5133855D01*
X47638095Y-5133855D02*
X47714286Y-5133855D01*
X47714286Y-5133855D02*
X47828571Y-5171950D01*
X47828571Y-5171950D02*
X47866667Y-5210045D01*
X48133333Y-5133855D02*
X48666667Y-5133855D01*
X48666667Y-5133855D02*
X48323809Y-5933855D01*
X8308855Y-31266666D02*
X8880283Y-31266666D01*
X8880283Y-31266666D02*
X8994569Y-31304761D01*
X8994569Y-31304761D02*
X9070760Y-31380952D01*
X9070760Y-31380952D02*
X9108855Y-31495237D01*
X9108855Y-31495237D02*
X9108855Y-31571428D01*
X9108855Y-30466666D02*
X9108855Y-30923809D01*
X9108855Y-30695237D02*
X8308855Y-30695237D01*
X8308855Y-30695237D02*
X8423140Y-30771428D01*
X8423140Y-30771428D02*
X8499331Y-30847618D01*
X8499331Y-30847618D02*
X8537426Y-30923809D01*
X11733333Y-4114807D02*
X11466667Y-4114807D01*
X11466667Y-4533855D02*
X11466667Y-3733855D01*
X11466667Y-3733855D02*
X11847619Y-3733855D01*
X12571428Y-4533855D02*
X12114285Y-4533855D01*
X12342857Y-4533855D02*
X12342857Y-3733855D01*
X12342857Y-3733855D02*
X12266666Y-3848140D01*
X12266666Y-3848140D02*
X12190476Y-3924331D01*
X12190476Y-3924331D02*
X12114285Y-3962426D01*
X13663855Y-31609523D02*
X14311474Y-31609523D01*
X14311474Y-31609523D02*
X14387664Y-31571428D01*
X14387664Y-31571428D02*
X14425760Y-31533333D01*
X14425760Y-31533333D02*
X14463855Y-31457142D01*
X14463855Y-31457142D02*
X14463855Y-31304761D01*
X14463855Y-31304761D02*
X14425760Y-31228571D01*
X14425760Y-31228571D02*
X14387664Y-31190476D01*
X14387664Y-31190476D02*
X14311474Y-31152380D01*
X14311474Y-31152380D02*
X13663855Y-31152380D01*
X13930521Y-30428571D02*
X14463855Y-30428571D01*
X13625760Y-30619047D02*
X14197188Y-30809524D01*
X14197188Y-30809524D02*
X14197188Y-30314285D01*
X75890476Y286144D02*
X75890476Y1086144D01*
X75890476Y705192D02*
X76347619Y705192D01*
X76347619Y286144D02*
X76347619Y1086144D01*
X76690475Y1009954D02*
X76728571Y1048049D01*
X76728571Y1048049D02*
X76804761Y1086144D01*
X76804761Y1086144D02*
X76995237Y1086144D01*
X76995237Y1086144D02*
X77071428Y1048049D01*
X77071428Y1048049D02*
X77109523Y1009954D01*
X77109523Y1009954D02*
X77147618Y933763D01*
X77147618Y933763D02*
X77147618Y857573D01*
X77147618Y857573D02*
X77109523Y743287D01*
X77109523Y743287D02*
X76652380Y286144D01*
X76652380Y286144D02*
X77147618Y286144D01*
X20780000Y-49040000D02*
X20780000Y-46960000D01*
X22050000Y-45280000D02*
X21560000Y-45770000D01*
X22050000Y-45280000D02*
X24950000Y-45280000D01*
X22050000Y-50720000D02*
X21560000Y-50230000D01*
X22050000Y-50720000D02*
X24950000Y-50720000D01*
X24950000Y-45280000D02*
X25440000Y-45770000D01*
X24950000Y-50720000D02*
X25440000Y-50230000D01*
X26220000Y-49040000D02*
X26220000Y-46960000D01*
X13477500Y-36237258D02*
X13477500Y-35762742D01*
X14522500Y-36237258D02*
X14522500Y-35762742D01*
X43262742Y-42977500D02*
X43737258Y-42977500D01*
X43262742Y-44022500D02*
X43737258Y-44022500D01*
X23262742Y-41977500D02*
X23737258Y-41977500D01*
X23262742Y-43022500D02*
X23737258Y-43022500D01*
X13859420Y-20490000D02*
X14140580Y-20490000D01*
X13859420Y-21510000D02*
X14140580Y-21510000D01*
X46120000Y-20620000D02*
X47500000Y-20620000D01*
X46120000Y-22000000D02*
X46120000Y-20620000D01*
X46120000Y-23270000D02*
X46120000Y-31000000D01*
X46120000Y-23270000D02*
X48880000Y-23270000D01*
X46120000Y-31000000D02*
X48880000Y-31000000D01*
X48880000Y-23270000D02*
X48880000Y-31000000D01*
X31780000Y-49040000D02*
X31780000Y-46960000D01*
X33050000Y-45280000D02*
X32560000Y-45770000D01*
X33050000Y-45280000D02*
X35950000Y-45280000D01*
X33050000Y-50720000D02*
X32560000Y-50230000D01*
X33050000Y-50720000D02*
X35950000Y-50720000D01*
X35950000Y-45280000D02*
X36440000Y-45770000D01*
X35950000Y-50720000D02*
X36440000Y-50230000D01*
X37220000Y-49040000D02*
X37220000Y-46960000D01*
X34262742Y-41977500D02*
X34737258Y-41977500D01*
X34262742Y-43022500D02*
X34737258Y-43022500D01*
X8738748Y-20265000D02*
X9261252Y-20265000D01*
X8738748Y-21735000D02*
X9261252Y-21735000D01*
X41900000Y-49650000D02*
X41900000Y-47650000D01*
X41900000Y-49650000D02*
X45100000Y-49650000D01*
X42200000Y-47350000D02*
X41900000Y-47650000D01*
X42200000Y-47350000D02*
X45100000Y-47350000D01*
X45100000Y-47350000D02*
X45100000Y-49650000D01*
X47840000Y-43180000D02*
X63320000Y-43180000D01*
X47840000Y-46200000D02*
X63320000Y-46200000D01*
X47840000Y-51100000D02*
X63320000Y-51100000D01*
X47840000Y-52600000D02*
X63320000Y-52600000D01*
X47840000Y-53220000D02*
X47840000Y-43180000D01*
X50200000Y-53220000D02*
X47840000Y-53220000D01*
X63320000Y-43180000D02*
X63320000Y-53220000D01*
X63320000Y-53220000D02*
X50800000Y-53220000D01*
X50500000Y-53220000D02*
X50940000Y-53830000D01*
X50060000Y-53830000D01*
X50500000Y-53220000D01*
G36*
X50940000Y-53830000D02*
G01*
X50060000Y-53830000D01*
X50500000Y-53220000D01*
X50940000Y-53830000D01*
G37*
X60380000Y-11390000D02*
X60380000Y-29230000D01*
X67880000Y-11390000D02*
X60380000Y-11390000D01*
X67880000Y-11390000D02*
X67880000Y-9340000D01*
X67880000Y-29230000D02*
X60380000Y-29230000D01*
X67880000Y-29230000D02*
X67880000Y-31280000D01*
X73380000Y-9340000D02*
X67880000Y-9340000D01*
X73380000Y-9340000D02*
X73380000Y-7690000D01*
X73380000Y-31280000D02*
X67880000Y-31280000D01*
X73380000Y-33230000D02*
X73380000Y-31280000D01*
X80120000Y-7690000D02*
X73380000Y-7690000D01*
X80120000Y-7690000D02*
X80120000Y-9190000D01*
X80120000Y-9190000D02*
X82820000Y-9190000D01*
X80120000Y-31430000D02*
X80120000Y-33230000D01*
X80120000Y-31430000D02*
X82820000Y-31430000D01*
X80120000Y-33230000D02*
X73380000Y-33230000D01*
X82820000Y-9190000D02*
X82820000Y-31430000D01*
X10262742Y-41977500D02*
X10737258Y-41977500D01*
X10262742Y-43022500D02*
X10737258Y-43022500D01*
X53240000Y-18440000D02*
X54760000Y-18440000D01*
X53240000Y-18490000D02*
X53240000Y-18440000D01*
X53240000Y-20390000D02*
X53240000Y-19610000D01*
X53240000Y-21560000D02*
X53240000Y-21510000D01*
X54760000Y-18440000D02*
X54760000Y-19440000D01*
X54760000Y-20560000D02*
X54760000Y-21560000D01*
X54760000Y-21560000D02*
X53240000Y-21560000D01*
X52700000Y-19620000D02*
X52940000Y-19950000D01*
X52460000Y-19950000D01*
X52700000Y-19620000D01*
G36*
X52940000Y-19950000D02*
G01*
X52460000Y-19950000D01*
X52700000Y-19620000D01*
X52940000Y-19950000D01*
G37*
X54240000Y-35440000D02*
X55760000Y-35440000D01*
X54240000Y-35490000D02*
X54240000Y-35440000D01*
X54240000Y-37390000D02*
X54240000Y-36610000D01*
X54240000Y-38560000D02*
X54240000Y-38510000D01*
X55760000Y-35440000D02*
X55760000Y-36440000D01*
X55760000Y-37560000D02*
X55760000Y-38560000D01*
X55760000Y-38560000D02*
X54240000Y-38560000D01*
X53700000Y-36620000D02*
X53940000Y-36950000D01*
X53460000Y-36950000D01*
X53700000Y-36620000D01*
G36*
X53940000Y-36950000D02*
G01*
X53460000Y-36950000D01*
X53700000Y-36620000D01*
X53940000Y-36950000D01*
G37*
X43762742Y-16477500D02*
X44237258Y-16477500D01*
X43762742Y-17522500D02*
X44237258Y-17522500D01*
X20800000Y6150000D02*
X20800000Y-50000D01*
X20800000Y6150000D02*
X39200000Y6150000D01*
X20800000Y-18700000D02*
X20800000Y-19700000D01*
X20800000Y-19700000D02*
X22300000Y-19700000D01*
X39200000Y6150000D02*
X39200000Y-50000D01*
X39200000Y-19700000D02*
X37700000Y-19700000D01*
X39200000Y-19700000D02*
X39200000Y-18700000D01*
X20800000Y-725000D02*
X20300000Y-725000D01*
X20800000Y-225000D01*
X20800000Y-725000D01*
G36*
X20800000Y-725000D02*
G01*
X20300000Y-725000D01*
X20800000Y-225000D01*
X20800000Y-725000D01*
G37*
X53762742Y-23477500D02*
X54237258Y-23477500D01*
X53762742Y-24522500D02*
X54237258Y-24522500D01*
X9780000Y-49040000D02*
X9780000Y-46960000D01*
X11050000Y-45280000D02*
X10560000Y-45770000D01*
X11050000Y-45280000D02*
X13950000Y-45280000D01*
X11050000Y-50720000D02*
X10560000Y-50230000D01*
X11050000Y-50720000D02*
X13950000Y-50720000D01*
X13950000Y-45280000D02*
X14440000Y-45770000D01*
X13950000Y-50720000D02*
X14440000Y-50230000D01*
X15220000Y-49040000D02*
X15220000Y-46960000D01*
X41620000Y-20620000D02*
X43000000Y-20620000D01*
X41620000Y-22000000D02*
X41620000Y-20620000D01*
X41620000Y-23270000D02*
X41620000Y-36080000D01*
X41620000Y-23270000D02*
X44380000Y-23270000D01*
X41620000Y-36080000D02*
X44380000Y-36080000D01*
X44380000Y-23270000D02*
X44380000Y-36080000D01*
X17490000Y-7140580D02*
X17490000Y-6859420D01*
X18510000Y-7140580D02*
X18510000Y-6859420D01*
X57140000Y-36000000D02*
X57140000Y-38000000D01*
X57140000Y-36000000D02*
X61150000Y-36000000D01*
X57140000Y-38000000D02*
X61150000Y-38000000D01*
X38859420Y-42990000D02*
X39140580Y-42990000D01*
X38859420Y-44010000D02*
X39140580Y-44010000D01*
X50262742Y-36477500D02*
X50737258Y-36477500D01*
X50262742Y-37522500D02*
X50737258Y-37522500D01*
X10150000Y-11590000D02*
X13910000Y-11590000D01*
X10150000Y-18410000D02*
X13910000Y-18410000D01*
X13910000Y-11590000D02*
X13910000Y-12850000D01*
X13910000Y-18410000D02*
X13910000Y-17150000D01*
X8870000Y-11690000D02*
X8630000Y-11360000D01*
X9110000Y-11360000D01*
X8870000Y-11690000D01*
G36*
X8870000Y-11690000D02*
G01*
X8630000Y-11360000D01*
X9110000Y-11360000D01*
X8870000Y-11690000D01*
G37*
X17238748Y-2765000D02*
X17761252Y-2765000D01*
X17238748Y-4235000D02*
X17761252Y-4235000D01*
X51272936Y-39590000D02*
X52727064Y-39590000D01*
X51272936Y-41410000D02*
X52727064Y-41410000D01*
X63950000Y-36450000D02*
X64950000Y-36450000D01*
X63950000Y-37450000D02*
X63950000Y-36450000D01*
X64650000Y-39500000D02*
X64650000Y-43500000D01*
X67000000Y-45850000D02*
X71000000Y-45850000D01*
X71000000Y-37150000D02*
X67000000Y-37150000D01*
X73350000Y-43500000D02*
X73350000Y-39500000D01*
X11738748Y-8765000D02*
X12261252Y-8765000D01*
X11738748Y-10235000D02*
X12261252Y-10235000D01*
X13477500Y-26237258D02*
X13477500Y-25762742D01*
X14522500Y-26237258D02*
X14522500Y-25762742D01*
X14738748Y-41765000D02*
X15261252Y-41765000D01*
X14738748Y-43235000D02*
X15261252Y-43235000D01*
X45940000Y-9440000D02*
X50060000Y-9440000D01*
X45940000Y-9535000D02*
X45940000Y-9440000D01*
X45940000Y-14560000D02*
X45940000Y-14465000D01*
X50060000Y-9440000D02*
X50060000Y-9535000D01*
X50060000Y-14465000D02*
X50060000Y-14560000D01*
X50060000Y-14560000D02*
X45940000Y-14560000D01*
X45400000Y-9530000D02*
X45160000Y-9200000D01*
X45640000Y-9200000D01*
X45400000Y-9530000D01*
G36*
X45400000Y-9530000D02*
G01*
X45160000Y-9200000D01*
X45640000Y-9200000D01*
X45400000Y-9530000D01*
G37*
X47859420Y-6490000D02*
X48140580Y-6490000D01*
X47859420Y-7510000D02*
X48140580Y-7510000D01*
X-800000Y-26300000D02*
X-800000Y-35700000D01*
X1100000Y-26300000D02*
X-800000Y-26300000D01*
X1100000Y-35700000D02*
X-800000Y-35700000D01*
X5000000Y-26300000D02*
X3000000Y-26300000D01*
X5000000Y-35700000D02*
X3000000Y-35700000D01*
X11397936Y-5090000D02*
X12602064Y-5090000D01*
X11397936Y-6910000D02*
X12602064Y-6910000D01*
X14940000Y-30090000D02*
X14990000Y-30090000D01*
X14940000Y-31910000D02*
X14940000Y-30090000D01*
X14990000Y-31910000D02*
X14940000Y-31910000D01*
X18010000Y-30090000D02*
X18060000Y-30090000D01*
X18060000Y-30090000D02*
X18060000Y-31910000D01*
X18060000Y-31910000D02*
X18010000Y-31910000D01*
X14990000Y-32450000D02*
X14660000Y-32690000D01*
X14660000Y-32210000D01*
X14990000Y-32450000D01*
G36*
X14990000Y-32450000D02*
G01*
X14660000Y-32690000D01*
X14660000Y-32210000D01*
X14990000Y-32450000D01*
G37*
%LPC*%
D13*
X20400000Y-46150000D03*
X26600000Y-46150000D03*
X20400000Y-49850000D03*
X26600000Y-49850000D03*
D14*
X14000000Y-36825000D03*
X14000000Y-35175000D03*
D15*
X42675000Y-43500000D03*
X44325000Y-43500000D03*
D16*
X3500000Y-3500000D03*
D15*
X22675000Y-42500000D03*
X24325000Y-42500000D03*
D17*
X13225000Y-21000000D03*
X14775000Y-21000000D03*
D18*
X47500000Y-22000000D03*
D19*
X47500000Y-24540000D03*
X47500000Y-27080000D03*
X47500000Y-29620000D03*
D13*
X31400000Y-46150000D03*
X37600000Y-46150000D03*
X31400000Y-49850000D03*
X37600000Y-49850000D03*
D15*
X33675000Y-42500000D03*
X35325000Y-42500000D03*
D20*
X8050000Y-21000000D03*
X9950000Y-21000000D03*
D21*
X42585000Y-47950000D03*
X42585000Y-49050000D03*
X44415000Y-49050000D03*
X44415000Y-47950000D03*
D22*
X50500000Y-48500000D03*
D23*
X55580000Y-48500000D03*
X60660000Y-48500000D03*
D24*
X71110000Y-24120000D03*
X76190000Y-16500000D03*
D25*
X62850000Y-16500000D03*
D26*
X66665000Y-20310000D03*
X62850000Y-20310000D03*
X66665000Y-27290000D03*
D25*
X62850000Y-24120000D03*
D26*
X73020000Y-12060000D03*
D15*
X9675000Y-42500000D03*
X11325000Y-42500000D03*
D27*
X53062500Y-19050000D03*
X53062500Y-20950000D03*
X54937500Y-20000000D03*
X54062500Y-36050000D03*
X54062500Y-37950000D03*
X55937500Y-37000000D03*
D15*
X43175000Y-17000000D03*
X44825000Y-17000000D03*
D28*
X21250000Y-1490000D03*
X21250000Y-2760000D03*
X21250000Y-4030000D03*
X21250000Y-5300000D03*
X21250000Y-6570000D03*
X21250000Y-7840000D03*
X21250000Y-9110000D03*
X21250000Y-10380000D03*
X21250000Y-11650000D03*
X21250000Y-12920000D03*
X21250000Y-14190000D03*
X21250000Y-15460000D03*
X21250000Y-16730000D03*
X21250000Y-18000000D03*
D29*
X23015000Y-19250000D03*
X24285000Y-19250000D03*
X25555000Y-19250000D03*
X26825000Y-19250000D03*
X28095000Y-19250000D03*
X29365000Y-19250000D03*
X30635000Y-19250000D03*
X31905000Y-19250000D03*
X33175000Y-19250000D03*
X34445000Y-19250000D03*
X35715000Y-19250000D03*
X36985000Y-19250000D03*
D28*
X38750000Y-18000000D03*
X38750000Y-16730000D03*
X38750000Y-15460000D03*
X38750000Y-14190000D03*
X38750000Y-12920000D03*
X38750000Y-11650000D03*
X38750000Y-10380000D03*
X38750000Y-9110000D03*
X38750000Y-7840000D03*
X38750000Y-6570000D03*
X38750000Y-5300000D03*
X38750000Y-4030000D03*
X38750000Y-2760000D03*
X38750000Y-1490000D03*
D30*
X27100000Y-8510000D03*
X27100000Y-9910000D03*
X27800000Y-7810000D03*
X27800000Y-9210000D03*
X27800000Y-10610000D03*
X28500000Y-8510000D03*
D31*
X28500000Y-9210000D03*
D30*
X28500000Y-9910000D03*
X29200000Y-7810000D03*
X29200000Y-9210000D03*
X29200000Y-10610000D03*
X29900000Y-8510000D03*
X29900000Y-9910000D03*
D15*
X53175000Y-24000000D03*
X54825000Y-24000000D03*
D13*
X9400000Y-46150000D03*
X15600000Y-46150000D03*
X9400000Y-49850000D03*
X15600000Y-49850000D03*
D18*
X43000000Y-22000000D03*
D19*
X43000000Y-24540000D03*
X43000000Y-27080000D03*
X43000000Y-29620000D03*
X43000000Y-32160000D03*
X43000000Y-34700000D03*
D32*
X18000000Y-7775000D03*
X18000000Y-6225000D03*
D33*
X57850000Y-37000000D03*
X61150000Y-37000000D03*
D17*
X38225000Y-43500000D03*
X39775000Y-43500000D03*
D16*
X3500000Y-50500000D03*
D15*
X49675000Y-37000000D03*
X51325000Y-37000000D03*
D34*
X8850000Y-12700000D03*
X8850000Y-15000000D03*
D35*
X15150000Y-15000000D03*
D34*
X8850000Y-17300000D03*
D20*
X16550000Y-3500000D03*
X18450000Y-3500000D03*
D36*
X50537500Y-40500000D03*
X53462500Y-40500000D03*
D37*
X65500000Y-38000000D03*
X65500000Y-45000000D03*
X72500000Y-45000000D03*
X72500000Y-38000000D03*
D20*
X11050000Y-9500000D03*
X12950000Y-9500000D03*
D14*
X14000000Y-26825000D03*
X14000000Y-25175000D03*
D20*
X14050000Y-42500000D03*
X15950000Y-42500000D03*
D16*
X76500000Y-50500000D03*
D38*
X45525000Y-10095000D03*
X45525000Y-11365000D03*
X45525000Y-12635000D03*
X45525000Y-13905000D03*
X50475000Y-13905000D03*
X50475000Y-12635000D03*
X50475000Y-11365000D03*
X50475000Y-10095000D03*
D17*
X47225000Y-7000000D03*
X48775000Y-7000000D03*
D39*
X5700000Y-28110000D03*
X5700000Y-33890000D03*
D40*
X7145000Y-27750000D03*
X7145000Y-28550000D03*
D41*
X7145000Y-29750000D03*
X7145000Y-30750000D03*
X7145000Y-31250000D03*
X7145000Y-32250000D03*
D40*
X7145000Y-33450000D03*
X7145000Y-34250000D03*
X7145000Y-34250000D03*
X7145000Y-33450000D03*
D41*
X7145000Y-32750000D03*
X7145000Y-31750000D03*
X7145000Y-30250000D03*
X7145000Y-29250000D03*
D40*
X7145000Y-28550000D03*
X7145000Y-27750000D03*
D42*
X6230000Y-26680000D03*
D43*
X2050000Y-26680000D03*
D42*
X6230000Y-35320000D03*
D43*
X2050000Y-35320000D03*
D44*
X10600000Y-6000000D03*
X13400000Y-6000000D03*
D45*
X15550000Y-32137500D03*
X16500000Y-32137500D03*
X17450000Y-32137500D03*
X17450000Y-29862500D03*
X16500000Y-29862500D03*
X15550000Y-29862500D03*
D16*
X76500000Y-3500000D03*
%LPD*%
M02*
