G04 #@! TF.GenerationSoftware,KiCad,Pcbnew,10.0.4*
G04 #@! TF.CreationDate,2026-09-02T14:52:57+01:00*
G04 #@! TF.ProjectId,pl60c_dmx_mini,706c3630-635f-4646-9d78-5f6d696e692e,rev?*
G04 #@! TF.SameCoordinates,Original*
G04 #@! TF.FileFunction,Copper,L3,Inr*
G04 #@! TF.FilePolarity,Positive*
%FSLAX46Y46*%
G04 Gerber Fmt 4.6, Leading zero omitted, Abs format (unit mm)*
G04 Created by KiCad (PCBNEW 10.0.4) date 2026-09-02 14:52:57*
%MOMM*%
%LPD*%
G01*
G04 APERTURE LIST*
G04 #@! TA.AperFunction,ComponentPad*
%ADD10C,3.400000*%
G04 #@! TD*
G04 #@! TA.AperFunction,ComponentPad*
%ADD11C,2.900000*%
G04 #@! TD*
G04 #@! TA.AperFunction,ComponentPad*
%ADD12O,1.000000X2.100000*%
G04 #@! TD*
G04 #@! TA.AperFunction,ComponentPad*
%ADD13O,1.000000X1.600000*%
G04 #@! TD*
G04 #@! TA.AperFunction,ViaPad*
%ADD14C,0.700000*%
G04 #@! TD*
G04 #@! TA.AperFunction,ViaPad*
%ADD15C,0.600000*%
G04 #@! TD*
G04 #@! TA.AperFunction,ViaPad*
%ADD16C,0.800000*%
G04 #@! TD*
G04 #@! TA.AperFunction,Conductor*
%ADD17C,0.250000*%
G04 #@! TD*
G04 #@! TA.AperFunction,Conductor*
%ADD18C,0.400000*%
G04 #@! TD*
G04 APERTURE END LIST*
D10*
X21350000Y-10300000D03*
D11*
X25165000Y-14110000D03*
X21350000Y-14110000D03*
X25165000Y-21090000D03*
D10*
X21350000Y-17920000D03*
D11*
X31520000Y-5860000D03*
D12*
X2080000Y-22770000D03*
D13*
X2080000Y-26950000D03*
D12*
X10720000Y-22770000D03*
D13*
X10720000Y-26950000D03*
D14*
X10800700Y-10875000D03*
X8412400Y-17444300D03*
X12887400Y-20038400D03*
X1950000Y-7800000D03*
X9450000Y-12500000D03*
X5010000Y-12000000D03*
X9450000Y-6700000D03*
X3850000Y-27000000D03*
X1950000Y-8650000D03*
X10580100Y-8980100D03*
X14800000Y-1350000D03*
X2655300Y-11044700D03*
X9910000Y-25680000D03*
D15*
X9450000Y-11150000D03*
X6150000Y-11150000D03*
X7800000Y-7850000D03*
D14*
X2900000Y-6100000D03*
X18200000Y-16975000D03*
X18800000Y-26000000D03*
X19460000Y-25300000D03*
X16810000Y-15870000D03*
X2019000Y-12419000D03*
X4800000Y-7850000D03*
X25000000Y-5000000D03*
X3000000Y-13025000D03*
X7800000Y-5550000D03*
D15*
X6150000Y-9500000D03*
D14*
X1806900Y-6256900D03*
X18750000Y-4915000D03*
X1630200Y-16280200D03*
X1950000Y-14600000D03*
X30000000Y-10000000D03*
X6150000Y-6700000D03*
X7800000Y-12500000D03*
X1500000Y-11490000D03*
X13295000Y-4150000D03*
X1850000Y-17650000D03*
D15*
X6150000Y-7850000D03*
D14*
X2500000Y-6950000D03*
X15275000Y-26525000D03*
X1630200Y-10330200D03*
X3910000Y-25680000D03*
D15*
X9450000Y-9500000D03*
D14*
X9375000Y-17625000D03*
X31200000Y-27000000D03*
X4400000Y-1350000D03*
X7800000Y-6700000D03*
X3550000Y-1350000D03*
X18800000Y-21900000D03*
D15*
X9450000Y-7850000D03*
X7800000Y-9500000D03*
D14*
X1950000Y-3550000D03*
D15*
X7800000Y-11150000D03*
D14*
X25000000Y-10000000D03*
X6150000Y-12500000D03*
X11682500Y-11120800D03*
X17328600Y-2177400D03*
D16*
X16146300Y-24398700D03*
X18486000Y-3815200D03*
X3788800Y-17520500D03*
D14*
X15761100Y-8880900D03*
X18942600Y-16443100D03*
X13786300Y-19055000D03*
X8068400Y-25199900D03*
X9549999Y-18655000D03*
X3250000Y-18655000D03*
X5151600Y-23112400D03*
X1472800Y-28109300D03*
X5650000Y-24255000D03*
X10304000Y-13728800D03*
X7750000Y-19655000D03*
X13236900Y-13790500D03*
X4956000Y-24971100D03*
X7660300Y-24024100D03*
X8150000Y-23140400D03*
X14531000Y-22599600D03*
X12471000Y-8661000D03*
X5178600Y-15539900D03*
X3979700Y-7400500D03*
X7721000Y-1556000D03*
D15*
X32843300Y-24337500D03*
D14*
X36523000Y-24187500D03*
X15757800Y-13805200D03*
D15*
X13768000Y-10812200D03*
D14*
X15734000Y-10608600D03*
X8886400Y-13200400D03*
X11224700Y-3494200D03*
X4639300Y-10661100D03*
X1131800Y-1547700D03*
X13247800Y-15400000D03*
X5863700Y-4500000D03*
X8051900Y-3583300D03*
X7805500Y-14638400D03*
D17*
X14443100Y-19377000D02*
X13781700Y-20038400D01*
X10969600Y-15526700D02*
X10330000Y-15526700D01*
X10330000Y-15526700D02*
X8412400Y-17444300D01*
X10969600Y-15526700D02*
X10969600Y-11043900D01*
X10969600Y-15526700D02*
X13362100Y-17919200D01*
X10969600Y-11043900D02*
X10800700Y-10875000D01*
X14443100Y-18722500D02*
X14443100Y-19377000D01*
X13639800Y-17919200D02*
X14443100Y-18722500D01*
X13362100Y-17919200D02*
X13639800Y-17919200D01*
X13781700Y-20038400D02*
X12887400Y-20038400D01*
X17328600Y-2177400D02*
X11813200Y-7692800D01*
X11813200Y-10990100D02*
X11682500Y-11120800D01*
X11813200Y-7692800D02*
X11813200Y-10990100D01*
D18*
X14998200Y-16453900D02*
X14998200Y-7303000D01*
X16146300Y-24398700D02*
X16146300Y-17602000D01*
X14998200Y-7303000D02*
X18486000Y-3815200D01*
X16146300Y-17602000D02*
X14998200Y-16453900D01*
D17*
X15761100Y-8880900D02*
X18942600Y-12062400D01*
X18942600Y-14110000D02*
X21350000Y-14110000D01*
X18942600Y-12062400D02*
X18942600Y-14110000D01*
X18942600Y-14110000D02*
X18942600Y-16443100D01*
X7003600Y-22408600D02*
X7003600Y-24296100D01*
X13386300Y-18655000D02*
X13786300Y-19055000D01*
X7907400Y-25199900D02*
X8068400Y-25199900D01*
X7003600Y-24296100D02*
X7907400Y-25199900D01*
X3250000Y-18655000D02*
X7003600Y-22408600D01*
X9550000Y-18655000D02*
X13386300Y-18655000D01*
X2887800Y-27583000D02*
X2887800Y-25376200D01*
X2887800Y-25376200D02*
X5151600Y-23112400D01*
X2361600Y-28109200D02*
X2887800Y-27583000D01*
X1472800Y-28109300D02*
X1472800Y-28109200D01*
X1472800Y-28109200D02*
X2361600Y-28109200D01*
X4520400Y-15194600D02*
X4851800Y-14863200D01*
X4520400Y-16425400D02*
X4520400Y-15194600D01*
X8721100Y-15311700D02*
X10304000Y-13728800D01*
X7750000Y-19655000D02*
X4520400Y-16425400D01*
X6711200Y-15311700D02*
X8721100Y-15311700D01*
X6262700Y-14863200D02*
X6711200Y-15311700D01*
X4851800Y-14863200D02*
X6262700Y-14863200D01*
X13992800Y-16903600D02*
X13763800Y-16903600D01*
X12570200Y-15710000D02*
X12570200Y-14457200D01*
X13879700Y-24209500D02*
X15327900Y-22761300D01*
X12570200Y-14457200D02*
X13236900Y-13790500D01*
X7660300Y-24024100D02*
X7845700Y-24209500D01*
X15327900Y-22761300D02*
X15327900Y-18238700D01*
X15327900Y-18238700D02*
X13992800Y-16903600D01*
X7845700Y-24209500D02*
X13879700Y-24209500D01*
X13763800Y-16903600D02*
X12570200Y-15710000D01*
X10996900Y-21358200D02*
X13289600Y-21358200D01*
X12093300Y-15918500D02*
X13662300Y-17487500D01*
X5178600Y-15539900D02*
X10996900Y-21358200D01*
X14876300Y-18472500D02*
X14876300Y-22254300D01*
X13891300Y-17487500D02*
X14876300Y-18472500D01*
X12471000Y-13638300D02*
X12093300Y-14016000D01*
X13662300Y-17487500D02*
X13891300Y-17487500D01*
X14876300Y-22254300D02*
X14531000Y-22599600D01*
X13289600Y-21358200D02*
X14531000Y-22599600D01*
X12471000Y-8661000D02*
X12471000Y-13638300D01*
X12093300Y-14016000D02*
X12093300Y-15918500D01*
X3979700Y-7400500D02*
X3979700Y-5297300D01*
X3979700Y-5297300D02*
X7721000Y-1556000D01*
X10144000Y-12805400D02*
X9749000Y-13200400D01*
X10144000Y-10603000D02*
X10144000Y-12805400D01*
X11251500Y-9495500D02*
X10144000Y-10603000D01*
X11251500Y-3521000D02*
X11251500Y-9495500D01*
X9749000Y-13200400D02*
X8886400Y-13200400D01*
X11224700Y-3494200D02*
X11251500Y-3521000D01*
X1131800Y-1547700D02*
X1131800Y-8764900D01*
X1131800Y-8764900D02*
X2387000Y-10020100D01*
X3998300Y-10020100D02*
X4639300Y-10661100D01*
X2387000Y-10020100D02*
X3998300Y-10020100D01*
X18010500Y-1837700D02*
X17689300Y-1516500D01*
X13247800Y-15400000D02*
X14447600Y-14200200D01*
X14447600Y-14200200D02*
X14447600Y-6187800D01*
X7797900Y-2565800D02*
X5863700Y-4500000D01*
X15365100Y-2565800D02*
X7797900Y-2565800D01*
X14447600Y-6187800D02*
X18010500Y-2624900D01*
X17689300Y-1516500D02*
X16414400Y-1516500D01*
X18010500Y-2624900D02*
X18010500Y-1837700D01*
X16414400Y-1516500D02*
X15365100Y-2565800D01*
X7119900Y-13952800D02*
X7805500Y-14638400D01*
X7119900Y-4515300D02*
X7119900Y-13952800D01*
X8051900Y-3583300D02*
X7119900Y-4515300D01*
G04 #@! TA.AperFunction,Conductor*
G36*
X13129029Y-21803385D02*
G01*
X13149671Y-21820019D01*
X13844181Y-22514529D01*
X13877666Y-22575852D01*
X13880500Y-22602210D01*
X13880500Y-22663669D01*
X13880500Y-22663671D01*
X13880499Y-22663671D01*
X13905497Y-22789338D01*
X13905499Y-22789344D01*
X13954533Y-22907724D01*
X13954538Y-22907733D01*
X14025723Y-23014268D01*
X14025726Y-23014272D01*
X14116327Y-23104873D01*
X14116331Y-23104876D01*
X14150302Y-23127575D01*
X14195107Y-23181187D01*
X14203814Y-23250512D01*
X14173660Y-23313539D01*
X14169092Y-23318358D01*
X13739771Y-23747681D01*
X13678448Y-23781166D01*
X13652090Y-23784000D01*
X11687537Y-23784000D01*
X11620498Y-23764315D01*
X11574743Y-23711511D01*
X11564799Y-23642353D01*
X11572976Y-23612547D01*
X11585413Y-23582520D01*
X11585415Y-23582512D01*
X11619999Y-23408646D01*
X11620000Y-23408643D01*
X11620000Y-22970000D01*
X11020000Y-22970000D01*
X11020000Y-22570000D01*
X11620000Y-22570000D01*
X11620000Y-22131357D01*
X11619999Y-22131353D01*
X11585415Y-21957487D01*
X11585412Y-21957475D01*
X11584450Y-21955152D01*
X11584308Y-21953837D01*
X11583646Y-21951653D01*
X11584060Y-21951527D01*
X11576981Y-21885683D01*
X11608257Y-21823204D01*
X11668346Y-21787552D01*
X11699011Y-21783700D01*
X13061990Y-21783700D01*
X13129029Y-21803385D01*
G37*
G04 #@! TD.AperFunction*
G04 #@! TA.AperFunction,Conductor*
G36*
X4609262Y-17134559D02*
G01*
X4657785Y-17164533D01*
X7063181Y-19569929D01*
X7096666Y-19631252D01*
X7099500Y-19657610D01*
X7099500Y-19719069D01*
X7099500Y-19719071D01*
X7099499Y-19719071D01*
X7124497Y-19844738D01*
X7124499Y-19844744D01*
X7173533Y-19963124D01*
X7173538Y-19963133D01*
X7244723Y-20069668D01*
X7244726Y-20069672D01*
X7335327Y-20160273D01*
X7335331Y-20160276D01*
X7441866Y-20231461D01*
X7441872Y-20231464D01*
X7441873Y-20231465D01*
X7560256Y-20280501D01*
X7560260Y-20280501D01*
X7560261Y-20280502D01*
X7685928Y-20305500D01*
X7685931Y-20305500D01*
X7814071Y-20305500D01*
X7898615Y-20288682D01*
X7939744Y-20280501D01*
X8058127Y-20231465D01*
X8164669Y-20160276D01*
X8255276Y-20069669D01*
X8326465Y-19963127D01*
X8375501Y-19844744D01*
X8398271Y-19730275D01*
X8400500Y-19719071D01*
X8400500Y-19662910D01*
X8420185Y-19595871D01*
X8472989Y-19550116D01*
X8542147Y-19540172D01*
X8605703Y-19569197D01*
X8612181Y-19575229D01*
X10286175Y-21249223D01*
X10319660Y-21310546D01*
X10314676Y-21380238D01*
X10272804Y-21436171D01*
X10267385Y-21440006D01*
X10146283Y-21520923D01*
X10146279Y-21520926D01*
X10020926Y-21646279D01*
X10020923Y-21646283D01*
X9922433Y-21793683D01*
X9922428Y-21793692D01*
X9854586Y-21957479D01*
X9854584Y-21957487D01*
X9820000Y-22131353D01*
X9820000Y-22570000D01*
X10420000Y-22570000D01*
X10420000Y-22970000D01*
X9825242Y-22970000D01*
X9758203Y-22950315D01*
X9737561Y-22933681D01*
X9643367Y-22839487D01*
X9643365Y-22839485D01*
X9556519Y-22789344D01*
X9512136Y-22763719D01*
X9438950Y-22744109D01*
X9365766Y-22724500D01*
X9214234Y-22724500D01*
X9067863Y-22763719D01*
X8936635Y-22839485D01*
X8936631Y-22839488D01*
X8920374Y-22855745D01*
X8859050Y-22889229D01*
X8789359Y-22884243D01*
X8733426Y-22842370D01*
X8729593Y-22836953D01*
X8655276Y-22725731D01*
X8655273Y-22725727D01*
X8564672Y-22635126D01*
X8564668Y-22635123D01*
X8458133Y-22563938D01*
X8458124Y-22563933D01*
X8339744Y-22514899D01*
X8339738Y-22514897D01*
X8214071Y-22489900D01*
X8214069Y-22489900D01*
X8085931Y-22489900D01*
X8085929Y-22489900D01*
X7960261Y-22514897D01*
X7960255Y-22514899D01*
X7841875Y-22563933D01*
X7841866Y-22563938D01*
X7735331Y-22635123D01*
X7735327Y-22635126D01*
X7640781Y-22729673D01*
X7579458Y-22763158D01*
X7509766Y-22758174D01*
X7453833Y-22716302D01*
X7429416Y-22650838D01*
X7429100Y-22641992D01*
X7429100Y-22352584D01*
X7429100Y-22352582D01*
X7400103Y-22244363D01*
X7344085Y-22147337D01*
X7264863Y-22068115D01*
X3936819Y-18740071D01*
X3903334Y-18678748D01*
X3900500Y-18652390D01*
X3900500Y-18590928D01*
X3875502Y-18465261D01*
X3875501Y-18465260D01*
X3875501Y-18465256D01*
X3838500Y-18375929D01*
X3831032Y-18306463D01*
X3862307Y-18243984D01*
X3922395Y-18208331D01*
X3928871Y-18206862D01*
X3954622Y-18201739D01*
X3993128Y-18194080D01*
X4091724Y-18153240D01*
X4120604Y-18141278D01*
X4120604Y-18141277D01*
X4120611Y-18141275D01*
X4235342Y-18064614D01*
X4332914Y-17967042D01*
X4409575Y-17852311D01*
X4462380Y-17724828D01*
X4480438Y-17634044D01*
X4489300Y-17589495D01*
X4489300Y-17451504D01*
X4462381Y-17316177D01*
X4462380Y-17316176D01*
X4462380Y-17316172D01*
X4455542Y-17299665D01*
X4448074Y-17230198D01*
X4479348Y-17167719D01*
X4539437Y-17132066D01*
X4609262Y-17134559D01*
G37*
G04 #@! TD.AperFunction*
G04 #@! TA.AperFunction,Conductor*
G36*
X10809029Y-15971885D02*
G01*
X10829671Y-15988519D01*
X12858971Y-18017819D01*
X12892456Y-18079142D01*
X12887472Y-18148834D01*
X12845600Y-18204767D01*
X12780136Y-18229184D01*
X12771290Y-18229500D01*
X10095806Y-18229500D01*
X10028767Y-18209815D01*
X10008124Y-18193180D01*
X9964671Y-18149726D01*
X9964667Y-18149723D01*
X9858132Y-18078538D01*
X9858123Y-18078533D01*
X9739743Y-18029499D01*
X9739737Y-18029497D01*
X9614070Y-18004500D01*
X9614068Y-18004500D01*
X9485930Y-18004500D01*
X9485928Y-18004500D01*
X9360260Y-18029497D01*
X9360254Y-18029499D01*
X9241874Y-18078533D01*
X9241865Y-18078538D01*
X9135330Y-18149723D01*
X9135326Y-18149726D01*
X9044725Y-18240327D01*
X9044722Y-18240331D01*
X8973537Y-18346866D01*
X8973532Y-18346876D01*
X8931432Y-18448514D01*
X8887590Y-18502918D01*
X8821296Y-18524982D01*
X8753597Y-18507702D01*
X8729190Y-18488742D01*
X8522717Y-18282269D01*
X8489232Y-18220946D01*
X8494216Y-18151254D01*
X8536088Y-18095321D01*
X8586207Y-18072971D01*
X8602144Y-18069801D01*
X8720527Y-18020765D01*
X8827069Y-17949576D01*
X8917676Y-17858969D01*
X8988865Y-17752427D01*
X9037901Y-17634044D01*
X9058819Y-17528885D01*
X9062900Y-17508371D01*
X9062900Y-17446910D01*
X9082585Y-17379871D01*
X9099219Y-17359229D01*
X10469929Y-15988519D01*
X10496856Y-15973815D01*
X10522675Y-15957223D01*
X10528875Y-15956331D01*
X10531252Y-15955034D01*
X10557610Y-15952200D01*
X10741990Y-15952200D01*
X10809029Y-15971885D01*
G37*
G04 #@! TD.AperFunction*
G04 #@! TA.AperFunction,Conductor*
G36*
X10613429Y-3010985D02*
G01*
X10659184Y-3063789D01*
X10669128Y-3132947D01*
X10650877Y-3180574D01*
X10651108Y-3180698D01*
X10650125Y-3182536D01*
X10649491Y-3184192D01*
X10648239Y-3186065D01*
X10648233Y-3186075D01*
X10599199Y-3304455D01*
X10599197Y-3304461D01*
X10574200Y-3430128D01*
X10574200Y-3430131D01*
X10574200Y-3558269D01*
X10574200Y-3558271D01*
X10574199Y-3558271D01*
X10599197Y-3683938D01*
X10599199Y-3683944D01*
X10648233Y-3802324D01*
X10648238Y-3802333D01*
X10719422Y-3908867D01*
X10719423Y-3908868D01*
X10719424Y-3908869D01*
X10789682Y-3979127D01*
X10823166Y-4040448D01*
X10826000Y-4066807D01*
X10826000Y-9267890D01*
X10806315Y-9334929D01*
X10789681Y-9355571D01*
X9803517Y-10341734D01*
X9803513Y-10341740D01*
X9747498Y-10438760D01*
X9747497Y-10438763D01*
X9718500Y-10546982D01*
X9718500Y-12577790D01*
X9709855Y-12607230D01*
X9703332Y-12637217D01*
X9699577Y-12642232D01*
X9698815Y-12644829D01*
X9682181Y-12665471D01*
X9609071Y-12738581D01*
X9547748Y-12772066D01*
X9521390Y-12774900D01*
X9432207Y-12774900D01*
X9365168Y-12755215D01*
X9344525Y-12738580D01*
X9301072Y-12695126D01*
X9301068Y-12695123D01*
X9194533Y-12623938D01*
X9194524Y-12623933D01*
X9076144Y-12574899D01*
X9076138Y-12574897D01*
X8950471Y-12549900D01*
X8950469Y-12549900D01*
X8822331Y-12549900D01*
X8822329Y-12549900D01*
X8696661Y-12574897D01*
X8696655Y-12574899D01*
X8578275Y-12623933D01*
X8578266Y-12623938D01*
X8471731Y-12695123D01*
X8471727Y-12695126D01*
X8381126Y-12785727D01*
X8381123Y-12785731D01*
X8309938Y-12892266D01*
X8309933Y-12892275D01*
X8260899Y-13010655D01*
X8260897Y-13010661D01*
X8235900Y-13136328D01*
X8235900Y-13136331D01*
X8235900Y-13264469D01*
X8235900Y-13264471D01*
X8235899Y-13264471D01*
X8260897Y-13390138D01*
X8260899Y-13390144D01*
X8309933Y-13508524D01*
X8309938Y-13508533D01*
X8381123Y-13615068D01*
X8381126Y-13615072D01*
X8471727Y-13705673D01*
X8471731Y-13705676D01*
X8578266Y-13776861D01*
X8578275Y-13776866D01*
X8605092Y-13787974D01*
X8696656Y-13825901D01*
X8696660Y-13825901D01*
X8696661Y-13825902D01*
X8822328Y-13850900D01*
X8822331Y-13850900D01*
X8950471Y-13850900D01*
X9049992Y-13831103D01*
X9076144Y-13825901D01*
X9194527Y-13776865D01*
X9301069Y-13705676D01*
X9344525Y-13662220D01*
X9371453Y-13647515D01*
X9397272Y-13630923D01*
X9403471Y-13630031D01*
X9405848Y-13628734D01*
X9432207Y-13625900D01*
X9505790Y-13625900D01*
X9572829Y-13645585D01*
X9618584Y-13698389D01*
X9628528Y-13767547D01*
X9599503Y-13831103D01*
X9593471Y-13837581D01*
X8667681Y-14763371D01*
X8606358Y-14796856D01*
X8536666Y-14791872D01*
X8480733Y-14750000D01*
X8456316Y-14684536D01*
X8456000Y-14675690D01*
X8456000Y-14574328D01*
X8431002Y-14448661D01*
X8431001Y-14448660D01*
X8431001Y-14448656D01*
X8381965Y-14330273D01*
X8381964Y-14330272D01*
X8381961Y-14330266D01*
X8310776Y-14223731D01*
X8310773Y-14223727D01*
X8220172Y-14133126D01*
X8220168Y-14133123D01*
X8113633Y-14061938D01*
X8113624Y-14061933D01*
X7995244Y-14012899D01*
X7995238Y-14012897D01*
X7869571Y-13987900D01*
X7869569Y-13987900D01*
X7808110Y-13987900D01*
X7778669Y-13979255D01*
X7748683Y-13972732D01*
X7743667Y-13968977D01*
X7741071Y-13968215D01*
X7720429Y-13951581D01*
X7581719Y-13812871D01*
X7548234Y-13751548D01*
X7545400Y-13725190D01*
X7545400Y-4742910D01*
X7565085Y-4675871D01*
X7581719Y-4655229D01*
X7966829Y-4270119D01*
X8028152Y-4236634D01*
X8054510Y-4233800D01*
X8115971Y-4233800D01*
X8200515Y-4216982D01*
X8241644Y-4208801D01*
X8360027Y-4159765D01*
X8466569Y-4088576D01*
X8557176Y-3997969D01*
X8628365Y-3891427D01*
X8677401Y-3773044D01*
X8696566Y-3676700D01*
X8702400Y-3647371D01*
X8702400Y-3519228D01*
X8677402Y-3393561D01*
X8677401Y-3393560D01*
X8677401Y-3393556D01*
X8628365Y-3275173D01*
X8628364Y-3275172D01*
X8628361Y-3275166D01*
X8567573Y-3184191D01*
X8546695Y-3117514D01*
X8565179Y-3050133D01*
X8617158Y-3003443D01*
X8670675Y-2991300D01*
X10546390Y-2991300D01*
X10613429Y-3010985D01*
G37*
G04 #@! TD.AperFunction*
G04 #@! TA.AperFunction,Conductor*
G36*
X16597433Y-2037727D02*
G01*
X16653367Y-2079599D01*
X16677784Y-2145063D01*
X16678100Y-2153909D01*
X16678100Y-2174790D01*
X16658415Y-2241829D01*
X16641781Y-2262471D01*
X11888681Y-7015571D01*
X11827358Y-7049056D01*
X11757666Y-7044072D01*
X11701733Y-7002200D01*
X11677316Y-6936736D01*
X11677000Y-6927890D01*
X11677000Y-4013207D01*
X11696685Y-3946168D01*
X11713321Y-3925524D01*
X11729974Y-3908871D01*
X11729976Y-3908869D01*
X11801165Y-3802327D01*
X11850201Y-3683944D01*
X11860523Y-3632052D01*
X11875200Y-3558271D01*
X11875200Y-3430128D01*
X11850202Y-3304461D01*
X11850201Y-3304460D01*
X11850201Y-3304456D01*
X11801165Y-3186073D01*
X11801160Y-3186065D01*
X11799909Y-3184192D01*
X11799554Y-3183060D01*
X11798292Y-3180698D01*
X11798739Y-3180458D01*
X11779030Y-3117515D01*
X11797514Y-3050135D01*
X11849492Y-3003444D01*
X11903010Y-2991300D01*
X15421116Y-2991300D01*
X15421118Y-2991300D01*
X15529337Y-2962303D01*
X15626363Y-2906285D01*
X16466419Y-2066227D01*
X16527742Y-2032743D01*
X16597433Y-2037727D01*
G37*
G04 #@! TD.AperFunction*
G04 #@! TA.AperFunction,Conductor*
G36*
X37943039Y-519685D02*
G01*
X37988794Y-572489D01*
X38000000Y-624000D01*
X38000000Y-28376000D01*
X37980315Y-28443039D01*
X37927511Y-28488794D01*
X37876000Y-28500000D01*
X2871910Y-28500000D01*
X2804871Y-28480315D01*
X2759116Y-28427511D01*
X2749172Y-28358353D01*
X2778197Y-28294797D01*
X2784229Y-28288319D01*
X2957137Y-28115411D01*
X3228285Y-27844263D01*
X3284303Y-27747237D01*
X3313300Y-27639019D01*
X3313300Y-27526982D01*
X3313300Y-26561353D01*
X9820000Y-26561353D01*
X9820000Y-26750000D01*
X10420000Y-26750000D01*
X10420000Y-27150000D01*
X9820000Y-27150000D01*
X9820000Y-27338646D01*
X9854584Y-27512512D01*
X9854586Y-27512520D01*
X9922428Y-27676307D01*
X9922433Y-27676316D01*
X10020923Y-27823716D01*
X10020926Y-27823720D01*
X10146279Y-27949073D01*
X10146283Y-27949076D01*
X10293683Y-28047566D01*
X10293696Y-28047573D01*
X10457474Y-28115411D01*
X10457482Y-28115413D01*
X10520000Y-28127848D01*
X10520000Y-27474265D01*
X10535795Y-27490060D01*
X10604204Y-27529556D01*
X10680504Y-27550000D01*
X10759496Y-27550000D01*
X10835796Y-27529556D01*
X10904205Y-27490060D01*
X10920000Y-27474265D01*
X10920000Y-28127847D01*
X10982517Y-28115413D01*
X10982525Y-28115411D01*
X11146303Y-28047573D01*
X11146316Y-28047566D01*
X11293716Y-27949076D01*
X11293720Y-27949073D01*
X11419073Y-27823720D01*
X11419076Y-27823716D01*
X11517566Y-27676316D01*
X11517571Y-27676307D01*
X11585413Y-27512520D01*
X11585415Y-27512512D01*
X11619999Y-27338646D01*
X11620000Y-27338643D01*
X11620000Y-27150000D01*
X11020000Y-27150000D01*
X11020000Y-26750000D01*
X11620000Y-26750000D01*
X11620000Y-26561357D01*
X11619999Y-26561353D01*
X11585415Y-26387487D01*
X11585413Y-26387479D01*
X11517571Y-26223692D01*
X11517566Y-26223683D01*
X11419076Y-26076283D01*
X11419073Y-26076279D01*
X11293720Y-25950926D01*
X11293716Y-25950923D01*
X11146316Y-25852433D01*
X11146307Y-25852428D01*
X10982520Y-25784586D01*
X10982512Y-25784584D01*
X10920000Y-25772149D01*
X10920000Y-26425735D01*
X10904205Y-26409940D01*
X10835796Y-26370444D01*
X10759496Y-26350000D01*
X10680504Y-26350000D01*
X10604204Y-26370444D01*
X10535795Y-26409940D01*
X10520000Y-26425735D01*
X10520000Y-25772149D01*
X10457487Y-25784584D01*
X10457479Y-25784586D01*
X10293692Y-25852428D01*
X10293683Y-25852433D01*
X10146283Y-25950923D01*
X10146279Y-25950926D01*
X10020926Y-26076279D01*
X10020923Y-26076283D01*
X9922433Y-26223683D01*
X9922428Y-26223692D01*
X9854586Y-26387479D01*
X9854584Y-26387487D01*
X9820000Y-26561353D01*
X3313300Y-26561353D01*
X3313300Y-25603810D01*
X3332985Y-25536771D01*
X3349619Y-25516129D01*
X3704910Y-25160838D01*
X4102563Y-24763184D01*
X4163884Y-24729701D01*
X4233575Y-24734685D01*
X4289509Y-24776557D01*
X4313926Y-24842021D01*
X4311859Y-24875058D01*
X4305500Y-24907026D01*
X4305500Y-24907031D01*
X4305500Y-25035169D01*
X4305500Y-25035171D01*
X4305499Y-25035171D01*
X4330497Y-25160838D01*
X4330499Y-25160844D01*
X4379533Y-25279224D01*
X4379538Y-25279233D01*
X4450723Y-25385768D01*
X4450726Y-25385772D01*
X4541327Y-25476373D01*
X4541331Y-25476376D01*
X4647866Y-25547561D01*
X4647875Y-25547566D01*
X4674692Y-25558674D01*
X4766256Y-25596601D01*
X4766260Y-25596601D01*
X4766261Y-25596602D01*
X4891928Y-25621600D01*
X4891931Y-25621600D01*
X5020071Y-25621600D01*
X5109503Y-25603810D01*
X5145744Y-25596601D01*
X5264127Y-25547565D01*
X5370669Y-25476376D01*
X5461276Y-25385769D01*
X5532465Y-25279227D01*
X5581501Y-25160844D01*
X5599118Y-25072280D01*
X5606500Y-25035171D01*
X5606500Y-25028481D01*
X5626185Y-24961442D01*
X5678989Y-24915687D01*
X5708313Y-24907790D01*
X5708094Y-24906689D01*
X5801105Y-24888186D01*
X5839744Y-24880501D01*
X5958127Y-24831465D01*
X6064669Y-24760276D01*
X6155276Y-24669669D01*
X6226465Y-24563127D01*
X6275501Y-24444744D01*
X6298385Y-24329702D01*
X6300500Y-24319071D01*
X6300500Y-24190928D01*
X6275502Y-24065261D01*
X6275501Y-24065260D01*
X6275501Y-24065256D01*
X6228654Y-23952158D01*
X6226466Y-23946875D01*
X6226461Y-23946866D01*
X6155276Y-23840331D01*
X6155273Y-23840327D01*
X6064672Y-23749726D01*
X6064668Y-23749723D01*
X5958133Y-23678538D01*
X5958124Y-23678533D01*
X5839744Y-23629499D01*
X5839740Y-23629498D01*
X5799928Y-23621578D01*
X5738018Y-23589191D01*
X5703445Y-23528475D01*
X5707186Y-23458705D01*
X5721020Y-23431069D01*
X5728065Y-23420527D01*
X5777101Y-23302144D01*
X5792776Y-23223344D01*
X5802100Y-23176471D01*
X5802100Y-23048328D01*
X5777102Y-22922661D01*
X5777101Y-22922660D01*
X5777101Y-22922656D01*
X5730664Y-22810548D01*
X5728066Y-22804275D01*
X5728061Y-22804266D01*
X5656876Y-22697731D01*
X5656873Y-22697727D01*
X5566272Y-22607126D01*
X5566268Y-22607123D01*
X5459733Y-22535938D01*
X5459724Y-22535933D01*
X5341344Y-22486899D01*
X5341338Y-22486897D01*
X5215671Y-22461900D01*
X5215669Y-22461900D01*
X5087531Y-22461900D01*
X5087529Y-22461900D01*
X4961861Y-22486897D01*
X4961855Y-22486899D01*
X4843475Y-22535933D01*
X4843466Y-22535938D01*
X4736931Y-22607123D01*
X4736927Y-22607126D01*
X4646326Y-22697727D01*
X4646323Y-22697731D01*
X4575138Y-22804266D01*
X4575133Y-22804275D01*
X4526099Y-22922655D01*
X4526097Y-22922661D01*
X4501100Y-23048328D01*
X4501100Y-23109790D01*
X4492455Y-23139230D01*
X4485932Y-23169217D01*
X4482177Y-23174232D01*
X4481415Y-23176829D01*
X4464781Y-23197471D01*
X4297181Y-23365071D01*
X4235858Y-23398556D01*
X4166166Y-23393572D01*
X4110233Y-23351700D01*
X4085816Y-23286236D01*
X4085500Y-23277390D01*
X4085500Y-23224236D01*
X4085500Y-23224234D01*
X4046281Y-23077865D01*
X3970515Y-22946635D01*
X3863365Y-22839485D01*
X3776519Y-22789344D01*
X3732136Y-22763719D01*
X3658950Y-22744109D01*
X3585766Y-22724500D01*
X3434234Y-22724500D01*
X3287863Y-22763719D01*
X3156635Y-22839485D01*
X3156632Y-22839487D01*
X3062439Y-22933681D01*
X3001116Y-22967166D01*
X2974758Y-22970000D01*
X2380000Y-22970000D01*
X2380000Y-22570000D01*
X2980000Y-22570000D01*
X2980000Y-22131357D01*
X2979999Y-22131353D01*
X2945415Y-21957487D01*
X2945413Y-21957479D01*
X2877571Y-21793692D01*
X2877566Y-21793683D01*
X2779076Y-21646283D01*
X2779073Y-21646279D01*
X2653720Y-21520926D01*
X2653716Y-21520923D01*
X2506316Y-21422433D01*
X2506307Y-21422428D01*
X2342520Y-21354586D01*
X2342512Y-21354584D01*
X2280000Y-21342149D01*
X2280000Y-21995735D01*
X2264205Y-21979940D01*
X2195796Y-21940444D01*
X2119496Y-21920000D01*
X2040504Y-21920000D01*
X1964204Y-21940444D01*
X1895795Y-21979940D01*
X1880000Y-21995735D01*
X1880000Y-21342149D01*
X1817487Y-21354584D01*
X1817479Y-21354586D01*
X1653692Y-21422428D01*
X1653683Y-21422433D01*
X1506283Y-21520923D01*
X1506279Y-21520926D01*
X1380926Y-21646279D01*
X1380923Y-21646283D01*
X1282433Y-21793683D01*
X1282428Y-21793692D01*
X1214586Y-21957479D01*
X1214584Y-21957487D01*
X1180000Y-22131353D01*
X1180000Y-22570000D01*
X1780000Y-22570000D01*
X1780000Y-22970000D01*
X1180000Y-22970000D01*
X1180000Y-23408646D01*
X1214584Y-23582512D01*
X1214586Y-23582520D01*
X1282428Y-23746307D01*
X1282433Y-23746316D01*
X1380923Y-23893716D01*
X1380926Y-23893720D01*
X1506279Y-24019073D01*
X1506283Y-24019076D01*
X1653683Y-24117566D01*
X1653696Y-24117573D01*
X1817474Y-24185411D01*
X1817482Y-24185413D01*
X1880000Y-24197848D01*
X1880000Y-23544265D01*
X1895795Y-23560060D01*
X1964204Y-23599556D01*
X2040504Y-23620000D01*
X2119496Y-23620000D01*
X2195796Y-23599556D01*
X2264205Y-23560060D01*
X2280000Y-23544265D01*
X2280000Y-24197847D01*
X2342517Y-24185413D01*
X2342525Y-24185411D01*
X2506303Y-24117573D01*
X2506316Y-24117566D01*
X2653716Y-24019076D01*
X2653720Y-24019073D01*
X2779073Y-23893720D01*
X2779076Y-23893716D01*
X2877566Y-23746316D01*
X2877569Y-23746310D01*
X2884124Y-23730484D01*
X2927962Y-23676078D01*
X2994255Y-23654009D01*
X3061955Y-23671285D01*
X3086369Y-23690249D01*
X3156635Y-23760515D01*
X3287865Y-23836281D01*
X3434234Y-23875500D01*
X3434236Y-23875500D01*
X3487390Y-23875500D01*
X3554429Y-23895185D01*
X3600184Y-23947989D01*
X3610128Y-24017147D01*
X3581103Y-24080703D01*
X3575071Y-24087181D01*
X2547317Y-25114934D01*
X2547313Y-25114940D01*
X2491298Y-25211960D01*
X2491297Y-25211963D01*
X2462300Y-25320182D01*
X2462300Y-25657317D01*
X2442615Y-25724356D01*
X2389811Y-25770111D01*
X2320653Y-25780055D01*
X2314109Y-25778934D01*
X2280000Y-25772149D01*
X2280000Y-26425735D01*
X2264205Y-26409940D01*
X2195796Y-26370444D01*
X2119496Y-26350000D01*
X2040504Y-26350000D01*
X1964204Y-26370444D01*
X1895795Y-26409940D01*
X1880000Y-26425735D01*
X1880000Y-25772149D01*
X1817487Y-25784584D01*
X1817479Y-25784586D01*
X1653692Y-25852428D01*
X1653683Y-25852433D01*
X1506283Y-25950923D01*
X1506279Y-25950926D01*
X1380926Y-26076279D01*
X1380923Y-26076283D01*
X1282433Y-26223683D01*
X1282428Y-26223692D01*
X1214586Y-26387479D01*
X1214584Y-26387487D01*
X1180000Y-26561353D01*
X1180000Y-26750000D01*
X1780000Y-26750000D01*
X1780000Y-27150000D01*
X1180000Y-27150000D01*
X1180000Y-27338640D01*
X1196133Y-27419752D01*
X1189904Y-27489344D01*
X1147041Y-27544521D01*
X1143406Y-27547044D01*
X1058131Y-27604023D01*
X1058127Y-27604026D01*
X967526Y-27694627D01*
X967523Y-27694631D01*
X896338Y-27801166D01*
X896333Y-27801175D01*
X847299Y-27919555D01*
X847297Y-27919561D01*
X822300Y-28045228D01*
X822300Y-28045231D01*
X822300Y-28173369D01*
X822300Y-28173371D01*
X822299Y-28173371D01*
X847297Y-28299038D01*
X847299Y-28299044D01*
X859520Y-28328547D01*
X866989Y-28398016D01*
X835714Y-28460495D01*
X775626Y-28496148D01*
X744959Y-28500000D01*
X624000Y-28500000D01*
X556961Y-28480315D01*
X511206Y-28427511D01*
X500000Y-28376000D01*
X500000Y-18719071D01*
X2599499Y-18719071D01*
X2624497Y-18844738D01*
X2624499Y-18844744D01*
X2673533Y-18963124D01*
X2673538Y-18963133D01*
X2744723Y-19069668D01*
X2744726Y-19069672D01*
X2835327Y-19160273D01*
X2835331Y-19160276D01*
X2941866Y-19231461D01*
X2941872Y-19231464D01*
X2941873Y-19231465D01*
X3060256Y-19280501D01*
X3060260Y-19280501D01*
X3060261Y-19280502D01*
X3185928Y-19305500D01*
X3185931Y-19305500D01*
X3247390Y-19305500D01*
X3314429Y-19325185D01*
X3335071Y-19341819D01*
X6541781Y-22548529D01*
X6575266Y-22609852D01*
X6578100Y-22636210D01*
X6578100Y-24240082D01*
X6578100Y-24352118D01*
X6607097Y-24460337D01*
X6663115Y-24557363D01*
X7043752Y-24938000D01*
X7403265Y-25297512D01*
X7436750Y-25358835D01*
X7437201Y-25361002D01*
X7442896Y-25389637D01*
X7442898Y-25389642D01*
X7491933Y-25508024D01*
X7491938Y-25508033D01*
X7563123Y-25614568D01*
X7563126Y-25614572D01*
X7653727Y-25705173D01*
X7653731Y-25705176D01*
X7760266Y-25776361D01*
X7760272Y-25776364D01*
X7760273Y-25776365D01*
X7878656Y-25825401D01*
X7878660Y-25825401D01*
X7878661Y-25825402D01*
X8004328Y-25850400D01*
X8004331Y-25850400D01*
X8132471Y-25850400D01*
X8217015Y-25833582D01*
X8258144Y-25825401D01*
X8376527Y-25776365D01*
X8483069Y-25705176D01*
X8573676Y-25614569D01*
X8644865Y-25508027D01*
X8693901Y-25389644D01*
X8718900Y-25263969D01*
X8718900Y-25135831D01*
X8718900Y-25135828D01*
X8693902Y-25010161D01*
X8693901Y-25010160D01*
X8693901Y-25010156D01*
X8654771Y-24915687D01*
X8644866Y-24891775D01*
X8644861Y-24891766D01*
X8602181Y-24827891D01*
X8581303Y-24761213D01*
X8599788Y-24693833D01*
X8651766Y-24647143D01*
X8705283Y-24635000D01*
X13935716Y-24635000D01*
X13935718Y-24635000D01*
X14043937Y-24606003D01*
X14140963Y-24549985D01*
X15434119Y-23256829D01*
X15495442Y-23223344D01*
X15565134Y-23228328D01*
X15621067Y-23270200D01*
X15645484Y-23335664D01*
X15645800Y-23344510D01*
X15645800Y-23857181D01*
X15626115Y-23924220D01*
X15609481Y-23944862D01*
X15602188Y-23952154D01*
X15602185Y-23952158D01*
X15525528Y-24066882D01*
X15525521Y-24066895D01*
X15472721Y-24194367D01*
X15472718Y-24194377D01*
X15445800Y-24329704D01*
X15445800Y-24329707D01*
X15445800Y-24467693D01*
X15445800Y-24467695D01*
X15445799Y-24467695D01*
X15472718Y-24603022D01*
X15472721Y-24603032D01*
X15525521Y-24730504D01*
X15525528Y-24730517D01*
X15602185Y-24845241D01*
X15602188Y-24845245D01*
X15699754Y-24942811D01*
X15699758Y-24942814D01*
X15814482Y-25019471D01*
X15814495Y-25019478D01*
X15941967Y-25072278D01*
X15941972Y-25072280D01*
X15941976Y-25072280D01*
X15941977Y-25072281D01*
X16077304Y-25099200D01*
X16077307Y-25099200D01*
X16215295Y-25099200D01*
X16306341Y-25081089D01*
X16350628Y-25072280D01*
X16478111Y-25019475D01*
X16592842Y-24942814D01*
X16690414Y-24845242D01*
X16767075Y-24730511D01*
X16819880Y-24603028D01*
X16830432Y-24549982D01*
X16846800Y-24467695D01*
X16846800Y-24329704D01*
X16846799Y-24329702D01*
X16835821Y-24274507D01*
X16832625Y-24258443D01*
X32242800Y-24258443D01*
X32242800Y-24416557D01*
X32282074Y-24563127D01*
X32283723Y-24569283D01*
X32283726Y-24569290D01*
X32362775Y-24706209D01*
X32362779Y-24706214D01*
X32362780Y-24706216D01*
X32474584Y-24818020D01*
X32474586Y-24818021D01*
X32474590Y-24818024D01*
X32611509Y-24897073D01*
X32611516Y-24897077D01*
X32764243Y-24938000D01*
X32764245Y-24938000D01*
X32922355Y-24938000D01*
X32922357Y-24938000D01*
X33075084Y-24897077D01*
X33212016Y-24818020D01*
X33323820Y-24706216D01*
X33402877Y-24569284D01*
X33443800Y-24416557D01*
X33443800Y-24258443D01*
X33441959Y-24251571D01*
X35872499Y-24251571D01*
X35897497Y-24377238D01*
X35897499Y-24377244D01*
X35946533Y-24495624D01*
X35946538Y-24495633D01*
X36017723Y-24602168D01*
X36017726Y-24602172D01*
X36108327Y-24692773D01*
X36108331Y-24692776D01*
X36214866Y-24763961D01*
X36214872Y-24763964D01*
X36214873Y-24763965D01*
X36333256Y-24813001D01*
X36333260Y-24813001D01*
X36333261Y-24813002D01*
X36458928Y-24838000D01*
X36458931Y-24838000D01*
X36587071Y-24838000D01*
X36687512Y-24818020D01*
X36712744Y-24813001D01*
X36831127Y-24763965D01*
X36937669Y-24692776D01*
X37028276Y-24602169D01*
X37099465Y-24495627D01*
X37148501Y-24377244D01*
X37160073Y-24319069D01*
X37173500Y-24251571D01*
X37173500Y-24123428D01*
X37148502Y-23997761D01*
X37148501Y-23997760D01*
X37148501Y-23997756D01*
X37099465Y-23879373D01*
X37099464Y-23879372D01*
X37099461Y-23879366D01*
X37028276Y-23772831D01*
X37028273Y-23772827D01*
X36937672Y-23682226D01*
X36937668Y-23682223D01*
X36831133Y-23611038D01*
X36831124Y-23611033D01*
X36712744Y-23561999D01*
X36712738Y-23561997D01*
X36587071Y-23537000D01*
X36587069Y-23537000D01*
X36458931Y-23537000D01*
X36458929Y-23537000D01*
X36333261Y-23561997D01*
X36333255Y-23561999D01*
X36214875Y-23611033D01*
X36214866Y-23611038D01*
X36108331Y-23682223D01*
X36108327Y-23682226D01*
X36017726Y-23772827D01*
X36017723Y-23772831D01*
X35946538Y-23879366D01*
X35946533Y-23879375D01*
X35897499Y-23997755D01*
X35897497Y-23997761D01*
X35872500Y-24123428D01*
X35872500Y-24123431D01*
X35872500Y-24251569D01*
X35872500Y-24251571D01*
X35872499Y-24251571D01*
X33441959Y-24251571D01*
X33402877Y-24105716D01*
X33380464Y-24066895D01*
X33323824Y-23968790D01*
X33323818Y-23968782D01*
X33212017Y-23856981D01*
X33212009Y-23856975D01*
X33075090Y-23777926D01*
X33075086Y-23777924D01*
X33075084Y-23777923D01*
X32922357Y-23737000D01*
X32764243Y-23737000D01*
X32611516Y-23777923D01*
X32611509Y-23777926D01*
X32474590Y-23856975D01*
X32474582Y-23856981D01*
X32362781Y-23968782D01*
X32362775Y-23968790D01*
X32283726Y-24105709D01*
X32283723Y-24105716D01*
X32242800Y-24258443D01*
X16832625Y-24258443D01*
X16819881Y-24194377D01*
X16819880Y-24194376D01*
X16819880Y-24194372D01*
X16818455Y-24190931D01*
X16767078Y-24066895D01*
X16767071Y-24066882D01*
X16690414Y-23952158D01*
X16690411Y-23952154D01*
X16683119Y-23944862D01*
X16649634Y-23883539D01*
X16646800Y-23857181D01*
X16646800Y-20975258D01*
X23414500Y-20975258D01*
X23414500Y-21204741D01*
X23432591Y-21342149D01*
X23444452Y-21432238D01*
X23468215Y-21520923D01*
X23503842Y-21653887D01*
X23591650Y-21865876D01*
X23591657Y-21865890D01*
X23706392Y-22064617D01*
X23846081Y-22246661D01*
X23846089Y-22246670D01*
X24008330Y-22408911D01*
X24008338Y-22408918D01*
X24190382Y-22548607D01*
X24190385Y-22548608D01*
X24190388Y-22548611D01*
X24389112Y-22663344D01*
X24389117Y-22663346D01*
X24389123Y-22663349D01*
X24472120Y-22697727D01*
X24601113Y-22751158D01*
X24822762Y-22810548D01*
X25050266Y-22840500D01*
X25050273Y-22840500D01*
X25279727Y-22840500D01*
X25279734Y-22840500D01*
X25507238Y-22810548D01*
X25728887Y-22751158D01*
X25940888Y-22663344D01*
X26139612Y-22548611D01*
X26321661Y-22408919D01*
X26321665Y-22408914D01*
X26321670Y-22408911D01*
X26483911Y-22246670D01*
X26483914Y-22246665D01*
X26483919Y-22246661D01*
X26623611Y-22064612D01*
X26738344Y-21865888D01*
X26826158Y-21653887D01*
X26885548Y-21432238D01*
X26915500Y-21204734D01*
X26915500Y-20975266D01*
X26885548Y-20747762D01*
X26826158Y-20526113D01*
X26765173Y-20378882D01*
X26738349Y-20314123D01*
X26738346Y-20314117D01*
X26738344Y-20314112D01*
X26623611Y-20115388D01*
X26623608Y-20115385D01*
X26623607Y-20115382D01*
X26483918Y-19933338D01*
X26483911Y-19933330D01*
X26321670Y-19771089D01*
X26321661Y-19771081D01*
X26139617Y-19631392D01*
X25940890Y-19516657D01*
X25940876Y-19516650D01*
X25728887Y-19428842D01*
X25669386Y-19412899D01*
X25507238Y-19369452D01*
X25459196Y-19363127D01*
X25279741Y-19339500D01*
X25279734Y-19339500D01*
X25050266Y-19339500D01*
X25050258Y-19339500D01*
X24833715Y-19368009D01*
X24822762Y-19369452D01*
X24729076Y-19394554D01*
X24601112Y-19428842D01*
X24389123Y-19516650D01*
X24389109Y-19516657D01*
X24190382Y-19631392D01*
X24008338Y-19771081D01*
X23846081Y-19933338D01*
X23706392Y-20115382D01*
X23591657Y-20314109D01*
X23591650Y-20314123D01*
X23503842Y-20526112D01*
X23444453Y-20747759D01*
X23444451Y-20747770D01*
X23414500Y-20975258D01*
X16646800Y-20975258D01*
X16646800Y-17536110D01*
X16646800Y-17536108D01*
X16612692Y-17408814D01*
X16546800Y-17294686D01*
X16453614Y-17201500D01*
X15535019Y-16282905D01*
X15501534Y-16221582D01*
X15498700Y-16195224D01*
X15498700Y-14568000D01*
X15518385Y-14500961D01*
X15571189Y-14455206D01*
X15640347Y-14445262D01*
X15646893Y-14446383D01*
X15693730Y-14455700D01*
X15693731Y-14455700D01*
X15821871Y-14455700D01*
X15906415Y-14438882D01*
X15947544Y-14430701D01*
X16065927Y-14381665D01*
X16172469Y-14310476D01*
X16263076Y-14219869D01*
X16334265Y-14113327D01*
X16383301Y-13994944D01*
X16408300Y-13869269D01*
X16408300Y-13741131D01*
X16408300Y-13741128D01*
X16383302Y-13615461D01*
X16383301Y-13615460D01*
X16383301Y-13615456D01*
X16339012Y-13508533D01*
X16334266Y-13497075D01*
X16334261Y-13497066D01*
X16263076Y-13390531D01*
X16263073Y-13390527D01*
X16172472Y-13299926D01*
X16172468Y-13299923D01*
X16065933Y-13228738D01*
X16065924Y-13228733D01*
X15947544Y-13179699D01*
X15947538Y-13179697D01*
X15821871Y-13154700D01*
X15821869Y-13154700D01*
X15693731Y-13154700D01*
X15646890Y-13164017D01*
X15577299Y-13157789D01*
X15522122Y-13114925D01*
X15498878Y-13049035D01*
X15498700Y-13042399D01*
X15498700Y-11376134D01*
X15518385Y-11309095D01*
X15571189Y-11263340D01*
X15640347Y-11253396D01*
X15646874Y-11254513D01*
X15669931Y-11259100D01*
X15798071Y-11259100D01*
X15882615Y-11242282D01*
X15923744Y-11234101D01*
X16042127Y-11185065D01*
X16148669Y-11113876D01*
X16239276Y-11023269D01*
X16310465Y-10916727D01*
X16359501Y-10798344D01*
X16372471Y-10733143D01*
X16384500Y-10672671D01*
X16384500Y-10544528D01*
X16359502Y-10418862D01*
X16359501Y-10418856D01*
X16359197Y-10418123D01*
X16359153Y-10417710D01*
X16357733Y-10413029D01*
X16358620Y-10412759D01*
X16351725Y-10348658D01*
X16382995Y-10286177D01*
X16443081Y-10250520D01*
X16512907Y-10253009D01*
X16561437Y-10282985D01*
X18480781Y-12202329D01*
X18514266Y-12263652D01*
X18517100Y-12290010D01*
X18517100Y-15897292D01*
X18497415Y-15964331D01*
X18480781Y-15984973D01*
X18437326Y-16028427D01*
X18437323Y-16028431D01*
X18366138Y-16134966D01*
X18366133Y-16134975D01*
X18317099Y-16253355D01*
X18317097Y-16253361D01*
X18292100Y-16379028D01*
X18292100Y-16379031D01*
X18292100Y-16507169D01*
X18292100Y-16507171D01*
X18292099Y-16507171D01*
X18317097Y-16632838D01*
X18317099Y-16632844D01*
X18366133Y-16751224D01*
X18366138Y-16751233D01*
X18437323Y-16857768D01*
X18437326Y-16857772D01*
X18527927Y-16948373D01*
X18527931Y-16948376D01*
X18634466Y-17019561D01*
X18634472Y-17019564D01*
X18634473Y-17019565D01*
X18752856Y-17068601D01*
X18752860Y-17068601D01*
X18752861Y-17068602D01*
X18878528Y-17093600D01*
X18878531Y-17093600D01*
X19006671Y-17093600D01*
X19105433Y-17073954D01*
X19132344Y-17068601D01*
X19250727Y-17019565D01*
X19335219Y-16963108D01*
X19401894Y-16942232D01*
X19469274Y-16960716D01*
X19515964Y-17012694D01*
X19527141Y-17081664D01*
X19518669Y-17113664D01*
X19451607Y-17275565D01*
X19451602Y-17275581D01*
X19389227Y-17508371D01*
X19383730Y-17528885D01*
X19349500Y-17788872D01*
X19349500Y-18051127D01*
X19371866Y-18221000D01*
X19383730Y-18311116D01*
X19425033Y-18465261D01*
X19451602Y-18564418D01*
X19451605Y-18564428D01*
X19551953Y-18806690D01*
X19551958Y-18806700D01*
X19683075Y-19033803D01*
X19842718Y-19241851D01*
X19842726Y-19241860D01*
X20028140Y-19427274D01*
X20028148Y-19427281D01*
X20236196Y-19586924D01*
X20463299Y-19718041D01*
X20463309Y-19718046D01*
X20705571Y-19818394D01*
X20705581Y-19818398D01*
X20958884Y-19886270D01*
X21218880Y-19920500D01*
X21218887Y-19920500D01*
X21481113Y-19920500D01*
X21481120Y-19920500D01*
X21741116Y-19886270D01*
X21994419Y-19818398D01*
X22171340Y-19745114D01*
X22236690Y-19718046D01*
X22236691Y-19718045D01*
X22236697Y-19718043D01*
X22463803Y-19586924D01*
X22671851Y-19427282D01*
X22671855Y-19427277D01*
X22671860Y-19427274D01*
X22857274Y-19241860D01*
X22857277Y-19241855D01*
X22857282Y-19241851D01*
X23016924Y-19033803D01*
X23148043Y-18806697D01*
X23248398Y-18564419D01*
X23316270Y-18311116D01*
X23350500Y-18051120D01*
X23350500Y-17816530D01*
X28559500Y-17816530D01*
X28559500Y-18023469D01*
X28599868Y-18226412D01*
X28599870Y-18226420D01*
X28679058Y-18417596D01*
X28794024Y-18589657D01*
X28940342Y-18735975D01*
X28940345Y-18735977D01*
X29112402Y-18850941D01*
X29303580Y-18930130D01*
X29506530Y-18970499D01*
X29506534Y-18970500D01*
X29506535Y-18970500D01*
X29713466Y-18970500D01*
X29713467Y-18970499D01*
X29916420Y-18930130D01*
X30107598Y-18850941D01*
X30279655Y-18735977D01*
X30425977Y-18589655D01*
X30540941Y-18417598D01*
X30620130Y-18226420D01*
X30660500Y-18023465D01*
X30660500Y-17816535D01*
X30620130Y-17613580D01*
X30540941Y-17422402D01*
X30425977Y-17250345D01*
X30425975Y-17250342D01*
X30279657Y-17104024D01*
X30153248Y-17019561D01*
X30107598Y-16989059D01*
X30077000Y-16976385D01*
X29916420Y-16909870D01*
X29916412Y-16909868D01*
X29713469Y-16869500D01*
X29713465Y-16869500D01*
X29506535Y-16869500D01*
X29506530Y-16869500D01*
X29303587Y-16909868D01*
X29303579Y-16909870D01*
X29112403Y-16989058D01*
X28940342Y-17104024D01*
X28794024Y-17250342D01*
X28679058Y-17422403D01*
X28599870Y-17613579D01*
X28599868Y-17613587D01*
X28559500Y-17816530D01*
X23350500Y-17816530D01*
X23350500Y-17788880D01*
X23316270Y-17528884D01*
X23248398Y-17275581D01*
X23248394Y-17275571D01*
X23148046Y-17033309D01*
X23148041Y-17033299D01*
X23016924Y-16806196D01*
X22883900Y-16632838D01*
X22857282Y-16598149D01*
X22857281Y-16598148D01*
X22857274Y-16598140D01*
X22671860Y-16412726D01*
X22671851Y-16412718D01*
X22463803Y-16253075D01*
X22236700Y-16121958D01*
X22236690Y-16121953D01*
X21994428Y-16021605D01*
X21994421Y-16021603D01*
X21994422Y-16021603D01*
X21994419Y-16021602D01*
X21931228Y-16004670D01*
X21871570Y-15968306D01*
X21841041Y-15905459D01*
X21849336Y-15836083D01*
X21893821Y-15782205D01*
X21915865Y-15770338D01*
X22125888Y-15683344D01*
X22324612Y-15568611D01*
X22506661Y-15428919D01*
X22506665Y-15428914D01*
X22506670Y-15428911D01*
X22668911Y-15266670D01*
X22668914Y-15266665D01*
X22668919Y-15266661D01*
X22808611Y-15084612D01*
X22923344Y-14885888D01*
X23011158Y-14673887D01*
X23070548Y-14452238D01*
X23100500Y-14224734D01*
X23100500Y-13995266D01*
X23100499Y-13995258D01*
X23414500Y-13995258D01*
X23414500Y-14224741D01*
X23434849Y-14379300D01*
X23444452Y-14452238D01*
X23482024Y-14592461D01*
X23503842Y-14673887D01*
X23591650Y-14885876D01*
X23591657Y-14885890D01*
X23706392Y-15084617D01*
X23846081Y-15266661D01*
X23846089Y-15266670D01*
X24008330Y-15428911D01*
X24008338Y-15428918D01*
X24008339Y-15428919D01*
X24032520Y-15447474D01*
X24190382Y-15568607D01*
X24190385Y-15568608D01*
X24190388Y-15568611D01*
X24389112Y-15683344D01*
X24389117Y-15683346D01*
X24389123Y-15683349D01*
X24480480Y-15721190D01*
X24601113Y-15771158D01*
X24822762Y-15830548D01*
X25050266Y-15860500D01*
X25050273Y-15860500D01*
X25279727Y-15860500D01*
X25279734Y-15860500D01*
X25507238Y-15830548D01*
X25728887Y-15771158D01*
X25940888Y-15683344D01*
X26139612Y-15568611D01*
X26321661Y-15428919D01*
X26321665Y-15428914D01*
X26321670Y-15428911D01*
X26483911Y-15266670D01*
X26483914Y-15266665D01*
X26483919Y-15266661D01*
X26623611Y-15084612D01*
X26738344Y-14885888D01*
X26826158Y-14673887D01*
X26885548Y-14452238D01*
X26915500Y-14224734D01*
X26915500Y-13995266D01*
X26885548Y-13767762D01*
X26826158Y-13546113D01*
X26761551Y-13390138D01*
X26738349Y-13334123D01*
X26738346Y-13334117D01*
X26738344Y-13334112D01*
X26623611Y-13135388D01*
X26623608Y-13135385D01*
X26623607Y-13135382D01*
X26496425Y-12969637D01*
X26483919Y-12953339D01*
X26483918Y-12953338D01*
X26483911Y-12953330D01*
X26321670Y-12791089D01*
X26321661Y-12791081D01*
X26139617Y-12651392D01*
X26123751Y-12642232D01*
X26007124Y-12574897D01*
X25940890Y-12536657D01*
X25940876Y-12536650D01*
X25728887Y-12448842D01*
X25507238Y-12389452D01*
X25469215Y-12384446D01*
X25279741Y-12359500D01*
X25279734Y-12359500D01*
X25050266Y-12359500D01*
X25050258Y-12359500D01*
X24833715Y-12388009D01*
X24822762Y-12389452D01*
X24729076Y-12414554D01*
X24601112Y-12448842D01*
X24389123Y-12536650D01*
X24389109Y-12536657D01*
X24190382Y-12651392D01*
X24008338Y-12791081D01*
X23846081Y-12953338D01*
X23706392Y-13135382D01*
X23591657Y-13334109D01*
X23591650Y-13334123D01*
X23503842Y-13546112D01*
X23485365Y-13615072D01*
X23448797Y-13751548D01*
X23444453Y-13767759D01*
X23444451Y-13767770D01*
X23414500Y-13995258D01*
X23100499Y-13995258D01*
X23070548Y-13767762D01*
X23011158Y-13546113D01*
X22946551Y-13390138D01*
X22923349Y-13334123D01*
X22923346Y-13334117D01*
X22923344Y-13334112D01*
X22808611Y-13135388D01*
X22808608Y-13135385D01*
X22808607Y-13135382D01*
X22681425Y-12969637D01*
X22668919Y-12953339D01*
X22668918Y-12953338D01*
X22668911Y-12953330D01*
X22506670Y-12791089D01*
X22506661Y-12791081D01*
X22324617Y-12651392D01*
X22308751Y-12642232D01*
X22192124Y-12574897D01*
X22125890Y-12536657D01*
X22125881Y-12536652D01*
X22058417Y-12508708D01*
X22004014Y-12464867D01*
X21981949Y-12398572D01*
X21999228Y-12330873D01*
X22050366Y-12283263D01*
X22058418Y-12279586D01*
X22280787Y-12187479D01*
X22280802Y-12187472D01*
X22519195Y-12049836D01*
X22687697Y-11920539D01*
X21757216Y-10990058D01*
X21859970Y-10921401D01*
X21971401Y-10809970D01*
X22040058Y-10707216D01*
X22970539Y-11637697D01*
X23099836Y-11469195D01*
X23237472Y-11230802D01*
X23237479Y-11230787D01*
X23342819Y-10976471D01*
X23414069Y-10710565D01*
X23450000Y-10437641D01*
X23450000Y-10196530D01*
X33639500Y-10196530D01*
X33639500Y-10403469D01*
X33679868Y-10606412D01*
X33679870Y-10606420D01*
X33729058Y-10725171D01*
X33759059Y-10797598D01*
X33767326Y-10809970D01*
X33874024Y-10969657D01*
X34020342Y-11115975D01*
X34020345Y-11115977D01*
X34192402Y-11230941D01*
X34383580Y-11310130D01*
X34586530Y-11350499D01*
X34586534Y-11350500D01*
X34586535Y-11350500D01*
X34793466Y-11350500D01*
X34793467Y-11350499D01*
X34996420Y-11310130D01*
X35187598Y-11230941D01*
X35359655Y-11115977D01*
X35505977Y-10969655D01*
X35620941Y-10797598D01*
X35700130Y-10606420D01*
X35740500Y-10403465D01*
X35740500Y-10196535D01*
X35700130Y-9993580D01*
X35620941Y-9802402D01*
X35505977Y-9630345D01*
X35505975Y-9630342D01*
X35359657Y-9484024D01*
X35273626Y-9426541D01*
X35187598Y-9369059D01*
X35155035Y-9355571D01*
X34996420Y-9289870D01*
X34996412Y-9289868D01*
X34793469Y-9249500D01*
X34793465Y-9249500D01*
X34586535Y-9249500D01*
X34586530Y-9249500D01*
X34383587Y-9289868D01*
X34383579Y-9289870D01*
X34192403Y-9369058D01*
X34020342Y-9484024D01*
X33874024Y-9630342D01*
X33759058Y-9802403D01*
X33679870Y-9993579D01*
X33679868Y-9993587D01*
X33639500Y-10196530D01*
X23450000Y-10196530D01*
X23450000Y-10162358D01*
X23414069Y-9889434D01*
X23342819Y-9623528D01*
X23237479Y-9369212D01*
X23237472Y-9369197D01*
X23099836Y-9130803D01*
X22970539Y-8962301D01*
X22040058Y-9892782D01*
X21971401Y-9790030D01*
X21859970Y-9678599D01*
X21757216Y-9609941D01*
X22687697Y-8679459D01*
X22687697Y-8679458D01*
X22519200Y-8550166D01*
X22280802Y-8412527D01*
X22280787Y-8412520D01*
X22026471Y-8307180D01*
X21760565Y-8235930D01*
X21487642Y-8200000D01*
X21212358Y-8200000D01*
X20939434Y-8235930D01*
X20673528Y-8307180D01*
X20419212Y-8412520D01*
X20419197Y-8412527D01*
X20180799Y-8550166D01*
X20012301Y-8679458D01*
X20012301Y-8679459D01*
X20942783Y-9609941D01*
X20840030Y-9678599D01*
X20728599Y-9790030D01*
X20659941Y-9892783D01*
X19729459Y-8962301D01*
X19729458Y-8962301D01*
X19600166Y-9130799D01*
X19462527Y-9369197D01*
X19462520Y-9369212D01*
X19357180Y-9623528D01*
X19285930Y-9889434D01*
X19250000Y-10162358D01*
X19250000Y-10437641D01*
X19285930Y-10710565D01*
X19357180Y-10976471D01*
X19462520Y-11230787D01*
X19462527Y-11230802D01*
X19600166Y-11469200D01*
X19729459Y-11637697D01*
X20659941Y-10707216D01*
X20728599Y-10809970D01*
X20840030Y-10921401D01*
X20942783Y-10990058D01*
X20012301Y-11920539D01*
X20180803Y-12049836D01*
X20419197Y-12187472D01*
X20419212Y-12187479D01*
X20641581Y-12279586D01*
X20695985Y-12323426D01*
X20718050Y-12389720D01*
X20700771Y-12457420D01*
X20649634Y-12505031D01*
X20641583Y-12508708D01*
X20574113Y-12536655D01*
X20574109Y-12536657D01*
X20375382Y-12651392D01*
X20193338Y-12791081D01*
X20031081Y-12953338D01*
X19891392Y-13135382D01*
X19776657Y-13334109D01*
X19776652Y-13334118D01*
X19688845Y-13546103D01*
X19688843Y-13546110D01*
X19676388Y-13592594D01*
X19661893Y-13616373D01*
X19650326Y-13641703D01*
X19643960Y-13645793D01*
X19640023Y-13652254D01*
X19614975Y-13664421D01*
X19591548Y-13679477D01*
X19580800Y-13681022D01*
X19577176Y-13682783D01*
X19556613Y-13684500D01*
X19492100Y-13684500D01*
X19425061Y-13664815D01*
X19379306Y-13612011D01*
X19368100Y-13560500D01*
X19368100Y-12006384D01*
X19368100Y-12006382D01*
X19339103Y-11898163D01*
X19283085Y-11801137D01*
X19203863Y-11721915D01*
X16447919Y-8965971D01*
X16436117Y-8944357D01*
X16420772Y-8925093D01*
X16418070Y-8911307D01*
X16414434Y-8904648D01*
X16412237Y-8890846D01*
X16411600Y-8884587D01*
X16411600Y-8816831D01*
X16397476Y-8745829D01*
X16397476Y-8745824D01*
X16386602Y-8691160D01*
X16386601Y-8691158D01*
X16386601Y-8691156D01*
X16337565Y-8572773D01*
X16337564Y-8572772D01*
X16337561Y-8572766D01*
X16266376Y-8466231D01*
X16266373Y-8466227D01*
X16175772Y-8375626D01*
X16175768Y-8375623D01*
X16069233Y-8304438D01*
X16069224Y-8304433D01*
X15950844Y-8255399D01*
X15950838Y-8255397D01*
X15825171Y-8230400D01*
X15825169Y-8230400D01*
X15697031Y-8230400D01*
X15697029Y-8230400D01*
X15646892Y-8240373D01*
X15577300Y-8234146D01*
X15522123Y-8191283D01*
X15498878Y-8125394D01*
X15498700Y-8118756D01*
X15498700Y-7561676D01*
X15518385Y-7494637D01*
X15535019Y-7473995D01*
X17263756Y-5745258D01*
X29769500Y-5745258D01*
X29769500Y-5974741D01*
X29781879Y-6068761D01*
X29799452Y-6202238D01*
X29824931Y-6297328D01*
X29858842Y-6423887D01*
X29946650Y-6635876D01*
X29946657Y-6635890D01*
X30061392Y-6834617D01*
X30201081Y-7016661D01*
X30201089Y-7016670D01*
X30363330Y-7178911D01*
X30363338Y-7178918D01*
X30545382Y-7318607D01*
X30545385Y-7318608D01*
X30545388Y-7318611D01*
X30744112Y-7433344D01*
X30744117Y-7433346D01*
X30744123Y-7433349D01*
X30819500Y-7464571D01*
X30956113Y-7521158D01*
X31177762Y-7580548D01*
X31405266Y-7610500D01*
X31405273Y-7610500D01*
X31634727Y-7610500D01*
X31634734Y-7610500D01*
X31862238Y-7580548D01*
X32083887Y-7521158D01*
X32295888Y-7433344D01*
X32494612Y-7318611D01*
X32676661Y-7178919D01*
X32676665Y-7178914D01*
X32676670Y-7178911D01*
X32838911Y-7016670D01*
X32838914Y-7016665D01*
X32838919Y-7016661D01*
X32978611Y-6834612D01*
X33093344Y-6635888D01*
X33181158Y-6423887D01*
X33240548Y-6202238D01*
X33270500Y-5974734D01*
X33270500Y-5745266D01*
X33240548Y-5517762D01*
X33181158Y-5296113D01*
X33113619Y-5133060D01*
X33093349Y-5084123D01*
X33093346Y-5084117D01*
X33093344Y-5084112D01*
X32978611Y-4885388D01*
X32978608Y-4885385D01*
X32978607Y-4885382D01*
X32838918Y-4703338D01*
X32838911Y-4703330D01*
X32676670Y-4541089D01*
X32676661Y-4541081D01*
X32494617Y-4401392D01*
X32295890Y-4286657D01*
X32295876Y-4286650D01*
X32083887Y-4198842D01*
X31862238Y-4139452D01*
X31824215Y-4134446D01*
X31634741Y-4109500D01*
X31634734Y-4109500D01*
X31405266Y-4109500D01*
X31405258Y-4109500D01*
X31188715Y-4138009D01*
X31177762Y-4139452D01*
X31149529Y-4147017D01*
X30956112Y-4198842D01*
X30744123Y-4286650D01*
X30744109Y-4286657D01*
X30545382Y-4401392D01*
X30363338Y-4541081D01*
X30201081Y-4703338D01*
X30061392Y-4885382D01*
X29946657Y-5084109D01*
X29946650Y-5084123D01*
X29858842Y-5296112D01*
X29799453Y-5517759D01*
X29799451Y-5517770D01*
X29769500Y-5745258D01*
X17263756Y-5745258D01*
X18456995Y-4552019D01*
X18518318Y-4518534D01*
X18544676Y-4515700D01*
X18554995Y-4515700D01*
X18646041Y-4497589D01*
X18690328Y-4488780D01*
X18817811Y-4435975D01*
X18932542Y-4359314D01*
X19030114Y-4261742D01*
X19106775Y-4147011D01*
X19109907Y-4139451D01*
X19118740Y-4118124D01*
X19159580Y-4019528D01*
X19186500Y-3884193D01*
X19186500Y-3746207D01*
X19186500Y-3746204D01*
X19159581Y-3610877D01*
X19159580Y-3610876D01*
X19159580Y-3610872D01*
X19137791Y-3558269D01*
X19106778Y-3483395D01*
X19106771Y-3483382D01*
X19030114Y-3368658D01*
X19030111Y-3368654D01*
X18932545Y-3271088D01*
X18932541Y-3271085D01*
X18817817Y-3194428D01*
X18817804Y-3194421D01*
X18690332Y-3141621D01*
X18690322Y-3141618D01*
X18554995Y-3114700D01*
X18554993Y-3114700D01*
X18421810Y-3114700D01*
X18354771Y-3095015D01*
X18309016Y-3042211D01*
X18299072Y-2973053D01*
X18328097Y-2909497D01*
X18334129Y-2903019D01*
X18350985Y-2886163D01*
X18407003Y-2789137D01*
X18436000Y-2680918D01*
X18436000Y-2568881D01*
X18436000Y-1781682D01*
X18422121Y-1729886D01*
X18422121Y-1729885D01*
X18422121Y-1729884D01*
X18407004Y-1673465D01*
X18407003Y-1673464D01*
X18407003Y-1673463D01*
X18371384Y-1611769D01*
X18350985Y-1576437D01*
X18271763Y-1497215D01*
X17950563Y-1176015D01*
X17853537Y-1119997D01*
X17745318Y-1091000D01*
X16470418Y-1091000D01*
X16358381Y-1091000D01*
X16250163Y-1119997D01*
X16250161Y-1119998D01*
X16250160Y-1119998D01*
X16153140Y-1176013D01*
X16153134Y-1176017D01*
X15225171Y-2103981D01*
X15163848Y-2137466D01*
X15137490Y-2140300D01*
X8344920Y-2140300D01*
X8277881Y-2120615D01*
X8232126Y-2067811D01*
X8222182Y-1998653D01*
X8241818Y-1947409D01*
X8297461Y-1864133D01*
X8297461Y-1864132D01*
X8297465Y-1864127D01*
X8346501Y-1745744D01*
X8371500Y-1620069D01*
X8371500Y-1491931D01*
X8371500Y-1491928D01*
X8346502Y-1366261D01*
X8346501Y-1366260D01*
X8346501Y-1366256D01*
X8297465Y-1247873D01*
X8297464Y-1247872D01*
X8297461Y-1247866D01*
X8226276Y-1141331D01*
X8226273Y-1141327D01*
X8135672Y-1050726D01*
X8135668Y-1050723D01*
X8029133Y-979538D01*
X8029124Y-979533D01*
X7910744Y-930499D01*
X7910738Y-930497D01*
X7785071Y-905500D01*
X7785069Y-905500D01*
X7656931Y-905500D01*
X7656929Y-905500D01*
X7531261Y-930497D01*
X7531255Y-930499D01*
X7412875Y-979533D01*
X7412866Y-979538D01*
X7306331Y-1050723D01*
X7306327Y-1050726D01*
X7215726Y-1141327D01*
X7215723Y-1141331D01*
X7144538Y-1247866D01*
X7144533Y-1247875D01*
X7095499Y-1366255D01*
X7095497Y-1366261D01*
X7070500Y-1491928D01*
X7070500Y-1553389D01*
X7050815Y-1620428D01*
X7034181Y-1641070D01*
X3718437Y-4956815D01*
X3639217Y-5036034D01*
X3639213Y-5036040D01*
X3583198Y-5133060D01*
X3583197Y-5133063D01*
X3554200Y-5241282D01*
X3554200Y-6854692D01*
X3534515Y-6921731D01*
X3517881Y-6942373D01*
X3474426Y-6985827D01*
X3474423Y-6985831D01*
X3403238Y-7092366D01*
X3403233Y-7092375D01*
X3354199Y-7210755D01*
X3354197Y-7210761D01*
X3329200Y-7336428D01*
X3329200Y-7336431D01*
X3329200Y-7464569D01*
X3329200Y-7464571D01*
X3329199Y-7464571D01*
X3354197Y-7590238D01*
X3354199Y-7590244D01*
X3403233Y-7708624D01*
X3403238Y-7708633D01*
X3474423Y-7815168D01*
X3474426Y-7815172D01*
X3565027Y-7905773D01*
X3565031Y-7905776D01*
X3671566Y-7976961D01*
X3671572Y-7976964D01*
X3671573Y-7976965D01*
X3789956Y-8026001D01*
X3789960Y-8026001D01*
X3789961Y-8026002D01*
X3915628Y-8051000D01*
X3915631Y-8051000D01*
X4043771Y-8051000D01*
X4128315Y-8034182D01*
X4169444Y-8026001D01*
X4287827Y-7976965D01*
X4394369Y-7905776D01*
X4484976Y-7815169D01*
X4556165Y-7708627D01*
X4605201Y-7590244D01*
X4613382Y-7549115D01*
X4630200Y-7464571D01*
X4630200Y-7336428D01*
X4605202Y-7210761D01*
X4605201Y-7210760D01*
X4605201Y-7210756D01*
X4556165Y-7092373D01*
X4556164Y-7092372D01*
X4556161Y-7092366D01*
X4484976Y-6985831D01*
X4484973Y-6985827D01*
X4441519Y-6942373D01*
X4408034Y-6881050D01*
X4405200Y-6854692D01*
X4405200Y-5524909D01*
X4424885Y-5457870D01*
X4441515Y-5437232D01*
X5093631Y-4785115D01*
X5154954Y-4751631D01*
X5224646Y-4756615D01*
X5280579Y-4798487D01*
X5284414Y-4803906D01*
X5358423Y-4914668D01*
X5358426Y-4914672D01*
X5449027Y-5005273D01*
X5449031Y-5005276D01*
X5555566Y-5076461D01*
X5555572Y-5076464D01*
X5555573Y-5076465D01*
X5673956Y-5125501D01*
X5673960Y-5125501D01*
X5673961Y-5125502D01*
X5799628Y-5150500D01*
X5799631Y-5150500D01*
X5927771Y-5150500D01*
X6015443Y-5133060D01*
X6053444Y-5125501D01*
X6171827Y-5076465D01*
X6278369Y-5005276D01*
X6368976Y-4914669D01*
X6440165Y-4808127D01*
X6440166Y-4808124D01*
X6440168Y-4808121D01*
X6455839Y-4770287D01*
X6499679Y-4715883D01*
X6565973Y-4693818D01*
X6633673Y-4711097D01*
X6681283Y-4762233D01*
X6694400Y-4817739D01*
X6694400Y-13896782D01*
X6694400Y-14008818D01*
X6723397Y-14117037D01*
X6779415Y-14214063D01*
X6779417Y-14214065D01*
X7118681Y-14553329D01*
X7131161Y-14576185D01*
X7146900Y-14596930D01*
X7149137Y-14609105D01*
X7152166Y-14614652D01*
X7154625Y-14631368D01*
X7155000Y-14636176D01*
X7155000Y-14702469D01*
X7163505Y-14745226D01*
X7164077Y-14752558D01*
X7158326Y-14779836D01*
X7155842Y-14807599D01*
X7151218Y-14813550D01*
X7149664Y-14820925D01*
X7130082Y-14840760D01*
X7112980Y-14862777D01*
X7105871Y-14865284D01*
X7100578Y-14870647D01*
X7073380Y-14876746D01*
X7047090Y-14886022D01*
X7040452Y-14886200D01*
X6938810Y-14886200D01*
X6871771Y-14866515D01*
X6851129Y-14849881D01*
X6523965Y-14522717D01*
X6523963Y-14522715D01*
X6426937Y-14466697D01*
X6318718Y-14437700D01*
X4907818Y-14437700D01*
X4795781Y-14437700D01*
X4707096Y-14461463D01*
X4707095Y-14461462D01*
X4687565Y-14466696D01*
X4687560Y-14466698D01*
X4590540Y-14522713D01*
X4590538Y-14522714D01*
X4518384Y-14594868D01*
X4518383Y-14594867D01*
X4241695Y-14871555D01*
X4241696Y-14871556D01*
X4179914Y-14933338D01*
X4179913Y-14933340D01*
X4123898Y-15030360D01*
X4123897Y-15030363D01*
X4094900Y-15138582D01*
X4094900Y-16369382D01*
X4094900Y-16481418D01*
X4116791Y-16563115D01*
X4123897Y-16589636D01*
X4123898Y-16589639D01*
X4177584Y-16682626D01*
X4194057Y-16750526D01*
X4171204Y-16816553D01*
X4116283Y-16859744D01*
X4046730Y-16866385D01*
X4022746Y-16859188D01*
X4015517Y-16856194D01*
X3993128Y-16846920D01*
X3993126Y-16846919D01*
X3993122Y-16846918D01*
X3857795Y-16820000D01*
X3857793Y-16820000D01*
X3719807Y-16820000D01*
X3719805Y-16820000D01*
X3584477Y-16846918D01*
X3584467Y-16846921D01*
X3456995Y-16899721D01*
X3456982Y-16899728D01*
X3342258Y-16976385D01*
X3342254Y-16976388D01*
X3244688Y-17073954D01*
X3244685Y-17073958D01*
X3168028Y-17188682D01*
X3168021Y-17188695D01*
X3115221Y-17316167D01*
X3115218Y-17316177D01*
X3088300Y-17451504D01*
X3088300Y-17451507D01*
X3088300Y-17589493D01*
X3088300Y-17589495D01*
X3088299Y-17589495D01*
X3115218Y-17724822D01*
X3115221Y-17724832D01*
X3169806Y-17856614D01*
X3177275Y-17926084D01*
X3145999Y-17988563D01*
X3085910Y-18024214D01*
X3079438Y-18025683D01*
X3060260Y-18029497D01*
X3060255Y-18029499D01*
X2941875Y-18078533D01*
X2941866Y-18078538D01*
X2835331Y-18149723D01*
X2835327Y-18149726D01*
X2744726Y-18240327D01*
X2744723Y-18240331D01*
X2673538Y-18346866D01*
X2673533Y-18346875D01*
X2624499Y-18465255D01*
X2624497Y-18465261D01*
X2599500Y-18590928D01*
X2599500Y-18590931D01*
X2599500Y-18719069D01*
X2599500Y-18719071D01*
X2599499Y-18719071D01*
X500000Y-18719071D01*
X500000Y-8984364D01*
X519685Y-8917325D01*
X572489Y-8871570D01*
X641647Y-8861626D01*
X705203Y-8890651D01*
X731387Y-8922364D01*
X735296Y-8929135D01*
X735297Y-8929137D01*
X791315Y-9026163D01*
X2046515Y-10281363D01*
X2125737Y-10360585D01*
X2222763Y-10416603D01*
X2330982Y-10445600D01*
X3770690Y-10445600D01*
X3800130Y-10454244D01*
X3830117Y-10460768D01*
X3835132Y-10464522D01*
X3837729Y-10465285D01*
X3858371Y-10481919D01*
X3952481Y-10576029D01*
X3985966Y-10637352D01*
X3988800Y-10663710D01*
X3988800Y-10725169D01*
X3988800Y-10725171D01*
X3988799Y-10725171D01*
X4013797Y-10850838D01*
X4013799Y-10850844D01*
X4062833Y-10969224D01*
X4062838Y-10969233D01*
X4134023Y-11075768D01*
X4134026Y-11075772D01*
X4224627Y-11166373D01*
X4224631Y-11166376D01*
X4331166Y-11237561D01*
X4331172Y-11237564D01*
X4331173Y-11237565D01*
X4449556Y-11286601D01*
X4449560Y-11286601D01*
X4449561Y-11286602D01*
X4575228Y-11311600D01*
X4575231Y-11311600D01*
X4703371Y-11311600D01*
X4798262Y-11292724D01*
X4829044Y-11286601D01*
X4947427Y-11237565D01*
X5053969Y-11166376D01*
X5144576Y-11075769D01*
X5215765Y-10969227D01*
X5264801Y-10850844D01*
X5289800Y-10725169D01*
X5289800Y-10597031D01*
X5289800Y-10597028D01*
X5264802Y-10471361D01*
X5264801Y-10471360D01*
X5264801Y-10471356D01*
X5222704Y-10369724D01*
X5215766Y-10352975D01*
X5215761Y-10352966D01*
X5144576Y-10246431D01*
X5144573Y-10246427D01*
X5053972Y-10155826D01*
X5053968Y-10155823D01*
X4947433Y-10084638D01*
X4947424Y-10084633D01*
X4829044Y-10035599D01*
X4829038Y-10035597D01*
X4703371Y-10010600D01*
X4703369Y-10010600D01*
X4641910Y-10010600D01*
X4574871Y-9990915D01*
X4554229Y-9974281D01*
X4259565Y-9679617D01*
X4259563Y-9679615D01*
X4162537Y-9623597D01*
X4054318Y-9594600D01*
X4054317Y-9594600D01*
X2614610Y-9594600D01*
X2547571Y-9574915D01*
X2526929Y-9558281D01*
X1593619Y-8624971D01*
X1560134Y-8563648D01*
X1557300Y-8537290D01*
X1557300Y-2093507D01*
X1576985Y-2026468D01*
X1593620Y-2005825D01*
X1637073Y-1962372D01*
X1637076Y-1962369D01*
X1708265Y-1855827D01*
X1757301Y-1737444D01*
X1782300Y-1611769D01*
X1782300Y-1483631D01*
X1782300Y-1483628D01*
X1757302Y-1357961D01*
X1757301Y-1357960D01*
X1757301Y-1357956D01*
X1708265Y-1239573D01*
X1708264Y-1239572D01*
X1708261Y-1239566D01*
X1637076Y-1133031D01*
X1637073Y-1133027D01*
X1546472Y-1042426D01*
X1546468Y-1042423D01*
X1439933Y-971238D01*
X1439924Y-971233D01*
X1321544Y-922199D01*
X1321538Y-922197D01*
X1195871Y-897200D01*
X1195869Y-897200D01*
X1067731Y-897200D01*
X1067729Y-897200D01*
X942061Y-922197D01*
X942055Y-922199D01*
X823675Y-971233D01*
X823666Y-971238D01*
X717131Y-1042423D01*
X717127Y-1042426D01*
X711681Y-1047873D01*
X650358Y-1081358D01*
X580666Y-1076374D01*
X524733Y-1034502D01*
X500316Y-969038D01*
X500000Y-960192D01*
X500000Y-624000D01*
X519685Y-556961D01*
X572489Y-511206D01*
X624000Y-500000D01*
X37876000Y-500000D01*
X37943039Y-519685D01*
G37*
G04 #@! TD.AperFunction*
M02*
