G04 #@! TF.GenerationSoftware,KiCad,Pcbnew,10.0.4*
G04 #@! TF.CreationDate,2026-09-02T14:26:12+01:00*
G04 #@! TF.ProjectId,pl60c_dmx_mini,706c3630-635f-4646-9d78-5f6d696e692e,rev?*
G04 #@! TF.SameCoordinates,Original*
G04 #@! TF.FileFunction,Copper,L1,Top*
G04 #@! TF.FilePolarity,Positive*
%FSLAX46Y46*%
G04 Gerber Fmt 4.6, Leading zero omitted, Abs format (unit mm)*
G04 Created by KiCad (PCBNEW 10.0.4) date 2026-09-02 14:26:12*
%MOMM*%
%LPD*%
G01*
G04 APERTURE LIST*
G04 Aperture macros list*
%AMRoundRect*
0 Rectangle with rounded corners*
0 $1 Rounding radius*
0 $2 $3 $4 $5 $6 $7 $8 $9 X,Y pos of 4 corners*
0 Add a 4 corners polygon primitive as box body*
4,1,4,$2,$3,$4,$5,$6,$7,$8,$9,$2,$3,0*
0 Add four circle primitives for the rounded corners*
1,1,$1+$1,$2,$3*
1,1,$1+$1,$4,$5*
1,1,$1+$1,$6,$7*
1,1,$1+$1,$8,$9*
0 Add four rect primitives between the rounded corners*
20,1,$1+$1,$2,$3,$4,$5,0*
20,1,$1+$1,$4,$5,$6,$7,0*
20,1,$1+$1,$6,$7,$8,$9,0*
20,1,$1+$1,$8,$9,$2,$3,0*%
%AMOutline5P*
0 Free polygon, 5 corners , with rotation*
0 The origin of the aperture is its center*
0 number of corners: always 5*
0 $1 to $10 corner X, Y*
0 $11 Rotation angle, in degrees counterclockwise*
0 create outline with 5 corners*
4,1,5,$1,$2,$3,$4,$5,$6,$7,$8,$9,$10,$1,$2,$11*%
%AMOutline6P*
0 Free polygon, 6 corners , with rotation*
0 The origin of the aperture is its center*
0 number of corners: always 6*
0 $1 to $12 corner X, Y*
0 $13 Rotation angle, in degrees counterclockwise*
0 create outline with 6 corners*
4,1,6,$1,$2,$3,$4,$5,$6,$7,$8,$9,$10,$11,$12,$1,$2,$13*%
%AMOutline7P*
0 Free polygon, 7 corners , with rotation*
0 The origin of the aperture is its center*
0 number of corners: always 7*
0 $1 to $14 corner X, Y*
0 $15 Rotation angle, in degrees counterclockwise*
0 create outline with 7 corners*
4,1,7,$1,$2,$3,$4,$5,$6,$7,$8,$9,$10,$11,$12,$13,$14,$1,$2,$15*%
%AMOutline8P*
0 Free polygon, 8 corners , with rotation*
0 The origin of the aperture is its center*
0 number of corners: always 8*
0 $1 to $16 corner X, Y*
0 $17 Rotation angle, in degrees counterclockwise*
0 create outline with 8 corners*
4,1,8,$1,$2,$3,$4,$5,$6,$7,$8,$9,$10,$11,$12,$13,$14,$15,$16,$1,$2,$17*%
G04 Aperture macros list end*
G04 #@! TA.AperFunction,ComponentPad*
%ADD10C,3.400000*%
G04 #@! TD*
G04 #@! TA.AperFunction,ComponentPad*
%ADD11C,2.900000*%
G04 #@! TD*
G04 #@! TA.AperFunction,SMDPad,CuDef*
%ADD12RoundRect,0.150000X-0.150000X-0.575000X0.150000X-0.575000X0.150000X0.575000X-0.150000X0.575000X0*%
G04 #@! TD*
G04 #@! TA.AperFunction,SMDPad,CuDef*
%ADD13RoundRect,0.075000X-0.075000X-0.650000X0.075000X-0.650000X0.075000X0.650000X-0.075000X0.650000X0*%
G04 #@! TD*
G04 #@! TA.AperFunction,ComponentPad*
%ADD14O,1.000000X2.100000*%
G04 #@! TD*
G04 #@! TA.AperFunction,ComponentPad*
%ADD15O,1.000000X1.600000*%
G04 #@! TD*
G04 #@! TA.AperFunction,SMDPad,CuDef*
%ADD16R,0.700000X0.700000*%
G04 #@! TD*
G04 #@! TA.AperFunction,SMDPad,CuDef*
%ADD17R,0.400000X0.800000*%
G04 #@! TD*
G04 #@! TA.AperFunction,SMDPad,CuDef*
%ADD18R,0.800000X0.400000*%
G04 #@! TD*
G04 #@! TA.AperFunction,HeatsinkPad*
%ADD19Outline5P,-0.600000X0.204000X-0.204000X0.600000X0.600000X0.600000X0.600000X-0.600000X-0.600000X-0.600000X90.000000*%
G04 #@! TD*
G04 #@! TA.AperFunction,HeatsinkPad*
%ADD20R,1.200000X1.200000*%
G04 #@! TD*
G04 #@! TA.AperFunction,SMDPad,CuDef*
%ADD21R,0.800000X0.800000*%
G04 #@! TD*
G04 #@! TA.AperFunction,SMDPad,CuDef*
%ADD22RoundRect,0.250000X-0.275000X-0.750000X0.275000X-0.750000X0.275000X0.750000X-0.275000X0.750000X0*%
G04 #@! TD*
G04 #@! TA.AperFunction,ViaPad*
%ADD23C,0.700000*%
G04 #@! TD*
G04 #@! TA.AperFunction,ViaPad*
%ADD24C,0.600000*%
G04 #@! TD*
G04 #@! TA.AperFunction,ViaPad*
%ADD25C,0.800000*%
G04 #@! TD*
G04 #@! TA.AperFunction,Conductor*
%ADD26C,0.300000*%
G04 #@! TD*
G04 #@! TA.AperFunction,Conductor*
%ADD27C,0.400000*%
G04 #@! TD*
G04 #@! TA.AperFunction,Conductor*
%ADD28C,0.250000*%
G04 #@! TD*
G04 #@! TA.AperFunction,Conductor*
%ADD29C,0.187400*%
G04 #@! TD*
G04 APERTURE END LIST*
D10*
X21350000Y-10300000D03*
D11*
X25165000Y-14110000D03*
X21350000Y-14110000D03*
X25165000Y-21090000D03*
D10*
X21350000Y-17920000D03*
D11*
X31520000Y-5860000D03*
D12*
X3150000Y-21855000D03*
X3950000Y-21855000D03*
D13*
X5150000Y-21855000D03*
X6150000Y-21855000D03*
X6650000Y-21855000D03*
X7650000Y-21855000D03*
D12*
X8850000Y-21855000D03*
X9650000Y-21855000D03*
X9650000Y-21855000D03*
X8850000Y-21855000D03*
D13*
X8150000Y-21855000D03*
X7150000Y-21855000D03*
X5650000Y-21855000D03*
X4650000Y-21855000D03*
D12*
X3950000Y-21855000D03*
X3150000Y-21855000D03*
D14*
X2080000Y-22770000D03*
D15*
X2080000Y-26950000D03*
D14*
X10720000Y-22770000D03*
D15*
X10720000Y-26950000D03*
D16*
X16550000Y-4915000D03*
X17650000Y-4915000D03*
X17650000Y-3085000D03*
X16550000Y-3085000D03*
D17*
X1850000Y-16500000D03*
X2700000Y-16500000D03*
X3550000Y-16500000D03*
X4400000Y-16500000D03*
X5250000Y-16500000D03*
X6100000Y-16500000D03*
X6950000Y-16500000D03*
X7800000Y-16500000D03*
X8650000Y-16500000D03*
X9500000Y-16500000D03*
X10350000Y-16500000D03*
X11200000Y-16500000D03*
X12050000Y-16500000D03*
X12900000Y-16500000D03*
X13750000Y-16500000D03*
D18*
X14800000Y-15450000D03*
X14800000Y-14600000D03*
X14800000Y-13750000D03*
X14800000Y-12900000D03*
X14800000Y-12050000D03*
X14800000Y-11200000D03*
X14800000Y-10350000D03*
X14800000Y-9500000D03*
X14800000Y-8650000D03*
X14800000Y-7800000D03*
X14800000Y-6950000D03*
X14800000Y-6100000D03*
X14800000Y-5250000D03*
X14800000Y-4400000D03*
X14800000Y-3550000D03*
D17*
X13750000Y-2500000D03*
X12900000Y-2500000D03*
X12050000Y-2500000D03*
X11200000Y-2500000D03*
X10350000Y-2500000D03*
X9500000Y-2500000D03*
X8650000Y-2500000D03*
X7800000Y-2500000D03*
X6950000Y-2500000D03*
X6100000Y-2500000D03*
X5250000Y-2500000D03*
X4400000Y-2500000D03*
X3550000Y-2500000D03*
X2700000Y-2500000D03*
X1850000Y-2500000D03*
D18*
X800000Y-3550000D03*
X800000Y-4400000D03*
X800000Y-5250000D03*
X800000Y-6100000D03*
X800000Y-6950000D03*
X800000Y-7800000D03*
X800000Y-8650000D03*
X800000Y-9500000D03*
X800000Y-10350000D03*
X800000Y-11200000D03*
X800000Y-12050000D03*
X800000Y-12900000D03*
X800000Y-13750000D03*
X800000Y-14600000D03*
X800000Y-15450000D03*
D19*
X6150000Y-11150000D03*
D20*
X7800000Y-11150000D03*
X9450000Y-11150000D03*
X6150000Y-9500000D03*
X7800000Y-9500000D03*
X9450000Y-9500000D03*
X6150000Y-7850000D03*
X7800000Y-7850000D03*
X9450000Y-7850000D03*
D21*
X800000Y-16500000D03*
X14800000Y-16500000D03*
X14800000Y-2500000D03*
X800000Y-2500000D03*
D22*
X13075000Y-21900000D03*
X17525000Y-21900000D03*
X13075000Y-26000000D03*
X17525000Y-26000000D03*
D23*
X1630200Y-8630200D03*
X7800000Y-6700000D03*
X7800000Y-12500000D03*
X9450000Y-6700000D03*
X3400000Y-6100000D03*
X5010000Y-12000000D03*
X2062500Y-6000000D03*
X25000000Y-5000000D03*
D24*
X7800000Y-9500000D03*
D23*
X1630200Y-14580200D03*
X13295000Y-4150000D03*
X2900000Y-5250000D03*
X4400000Y-1350000D03*
X15950000Y-16500000D03*
X2019000Y-10719000D03*
X15275000Y-26525000D03*
X1630200Y-16280200D03*
X9450000Y-12500000D03*
X1850000Y-17650000D03*
D24*
X9450000Y-9500000D03*
D23*
X2500000Y-4400000D03*
X2700000Y-17650000D03*
X3550000Y-1350000D03*
X6150000Y-12500000D03*
X14800000Y-1350000D03*
X1950000Y-6950000D03*
X10580100Y-8980100D03*
X18800000Y-26000000D03*
D24*
X9450000Y-11150000D03*
D23*
X31200000Y-27000000D03*
X1630200Y-12030200D03*
D24*
X6150000Y-7850000D03*
D23*
X1630200Y-4380200D03*
X2500000Y-12900000D03*
X9375000Y-17625000D03*
X3850000Y-27000000D03*
X11010000Y-13500000D03*
D24*
X6150000Y-9500000D03*
D23*
X2500000Y-16500000D03*
X18750000Y-4915000D03*
D24*
X7800000Y-7850000D03*
D23*
X5019900Y-8980100D03*
X19460000Y-25300000D03*
X25000000Y-10000000D03*
X1630200Y-12880200D03*
X9910000Y-25680000D03*
X3910000Y-25680000D03*
X18800000Y-21900000D03*
X30000000Y-10000000D03*
X1806900Y-9656900D03*
D24*
X9450000Y-7850000D03*
D23*
X17900000Y-16975000D03*
X5010000Y-8000000D03*
X7800000Y-5550000D03*
X6150000Y-6700000D03*
D24*
X6150000Y-11150000D03*
X7800000Y-11150000D03*
D23*
X3250000Y-18655000D03*
X8474700Y-24717300D03*
X9549999Y-18655000D03*
X3677300Y-24602500D03*
X7750000Y-19655000D03*
X13867600Y-8908600D03*
X5650000Y-24255000D03*
X4633100Y-25151400D03*
X10737900Y-6934800D03*
X7571900Y-24609100D03*
X7727000Y-23627600D03*
X12115300Y-14302200D03*
X16290600Y-9790700D03*
D25*
X3020000Y-7064800D03*
D24*
X3659600Y-17391300D03*
D25*
X18486000Y-3815200D03*
X16147900Y-24398700D03*
D23*
X10260100Y-14579900D03*
X14238000Y-26334900D03*
X12469400Y-8661000D03*
X12231300Y-20354000D03*
D24*
X12509700Y-12534200D03*
D23*
X10577400Y-20242500D03*
X8303400Y-1541500D03*
D24*
X32843300Y-24337500D03*
D23*
X36523000Y-24187500D03*
D24*
X13423100Y-14500000D03*
D23*
X13295000Y-10734600D03*
X15735600Y-10608600D03*
X11172600Y-5343800D03*
X10877500Y-11147100D03*
X3814500Y-4849300D03*
D25*
X6735900Y-13616600D03*
X7912700Y-4454100D03*
D26*
X7800000Y-11150000D02*
X7800000Y-12500000D01*
X800000Y-6100000D02*
X3400000Y-6100000D01*
X2700000Y-16500000D02*
X2700000Y-17650000D01*
X800000Y-7800000D02*
X1630200Y-8630200D01*
D27*
X2633300Y-21338300D02*
X3150000Y-21855000D01*
X800000Y-14600000D02*
X1581700Y-14600000D01*
D26*
X17525000Y-21900000D02*
X18800000Y-21900000D01*
X9450000Y-9500000D02*
X9450000Y-6700000D01*
D27*
X1601500Y-14580200D02*
X1581700Y-14600000D01*
D26*
X14800000Y-2500000D02*
X14800000Y-1350000D01*
X1850000Y-16500000D02*
X1850000Y-17650000D01*
X3550000Y-2500000D02*
X3550000Y-1350000D01*
X800000Y-6950000D02*
X1950000Y-6950000D01*
D27*
X2080000Y-21338300D02*
X2633300Y-21338300D01*
D26*
X9450000Y-11150000D02*
X9450000Y-12500000D01*
X800000Y-12050000D02*
X1630200Y-12880200D01*
X4400000Y-2500000D02*
X4400000Y-1350000D01*
X800000Y-8650000D02*
X1806900Y-9656900D01*
X6150000Y-11150000D02*
X6150000Y-12500000D01*
X800000Y-13750000D02*
X1630200Y-14580200D01*
X800000Y-12900000D02*
X2500000Y-12900000D01*
D27*
X10166700Y-21338300D02*
X9650000Y-21855000D01*
D26*
X17525000Y-26000000D02*
X18800000Y-26000000D01*
X17650000Y-4915000D02*
X18750000Y-4915000D01*
D27*
X10720000Y-22770000D02*
X10720000Y-21338300D01*
D26*
X6150000Y-9500000D02*
X6150000Y-6700000D01*
D27*
X10720000Y-21338300D02*
X10166700Y-21338300D01*
X1630200Y-14580200D02*
X1601500Y-14580200D01*
D26*
X6150000Y-7850000D02*
X5019900Y-8980100D01*
X800000Y-3550000D02*
X1630200Y-4380200D01*
D27*
X800000Y-3550000D02*
X800000Y-2500000D01*
D26*
X14800000Y-16500000D02*
X15950000Y-16500000D01*
X800000Y-16500000D02*
X2500000Y-16500000D01*
X800000Y-4400000D02*
X2500000Y-4400000D01*
X9450000Y-7850000D02*
X10580100Y-8980100D01*
X800000Y-15450000D02*
X1630200Y-16280200D01*
X800000Y-11200000D02*
X1630200Y-12030200D01*
D27*
X2080000Y-22770000D02*
X2080000Y-21338300D01*
D26*
X7800000Y-7850000D02*
X7800000Y-5550000D01*
X800000Y-9500000D02*
X2019000Y-10719000D01*
X7800000Y-9500000D02*
X7800000Y-6700000D01*
X800000Y-5250000D02*
X2900000Y-5250000D01*
X8850000Y-21855000D02*
X8850000Y-20855000D01*
X8850000Y-20855000D02*
X9549999Y-18655000D01*
X3950000Y-21855000D02*
X3950000Y-20855000D01*
X3950000Y-20855000D02*
X3250000Y-18655000D01*
D28*
X5150000Y-23129800D02*
X3677300Y-24602500D01*
X5150000Y-21855000D02*
X5150000Y-23129800D01*
D29*
X14124600Y-8650000D02*
X13867600Y-8907000D01*
D28*
X7150000Y-20255000D02*
X7750000Y-19655000D01*
D29*
X13867600Y-8907000D02*
X13867600Y-8908600D01*
X14800000Y-8650000D02*
X14124600Y-8650000D01*
D28*
X7150000Y-21855000D02*
X7150000Y-20255000D01*
X6150000Y-21855000D02*
X6150000Y-23755000D01*
X6150000Y-23755000D02*
X5650000Y-24255000D01*
X5650000Y-21855000D02*
X5650000Y-19955000D01*
X13596700Y-9626900D02*
X14673100Y-9626900D01*
X6650000Y-21855000D02*
X6650000Y-23687200D01*
X10737900Y-6934800D02*
X11673800Y-6934800D01*
X6650000Y-21855000D02*
X6650000Y-19455000D01*
X11673800Y-6934800D02*
X13209300Y-8470300D01*
X5650000Y-19955000D02*
X6650000Y-19955000D01*
X14673100Y-9626900D02*
X14800000Y-9500000D01*
X13209300Y-9239500D02*
X13596700Y-9626900D01*
X13209300Y-8470300D02*
X13209300Y-9239500D01*
X6650000Y-23687200D02*
X7571900Y-24609100D01*
X7727000Y-23627600D02*
X8150000Y-23204600D01*
X8150000Y-23204600D02*
X8150000Y-21855000D01*
X16290600Y-9790700D02*
X19427100Y-6654200D01*
X19427100Y-6654200D02*
X19427100Y-3712400D01*
X18799700Y-3085000D02*
X17650000Y-3085000D01*
X19427100Y-3712400D02*
X18799700Y-3085000D01*
D27*
X3550000Y-16500000D02*
X3550000Y-17281700D01*
X16550000Y-3445400D02*
X16550000Y-3085000D01*
X16919800Y-3815200D02*
X16550000Y-3445400D01*
X3659600Y-17391300D02*
X3550000Y-17281700D01*
D26*
X18486000Y-3815200D02*
X16919800Y-3815200D01*
D28*
X10258900Y-14578700D02*
X5614600Y-14578700D01*
X10258900Y-12758900D02*
X12469400Y-10548400D01*
X10258900Y-14578700D02*
X10260100Y-14579900D01*
X12469400Y-10548400D02*
X12469400Y-8661000D01*
X14238000Y-23063000D02*
X13075000Y-21900000D01*
X14238000Y-26334900D02*
X14238000Y-23063000D01*
X4400000Y-16500000D02*
X4400000Y-15793300D01*
X10258900Y-14578700D02*
X10258900Y-12758900D01*
X5614600Y-14578700D02*
X4400000Y-15793300D01*
X8650000Y-16500000D02*
X8650000Y-15793300D01*
X12231300Y-20354000D02*
X12231300Y-25156300D01*
X12231300Y-25156300D02*
X13075000Y-26000000D01*
X12509700Y-12966600D02*
X12509700Y-12534200D01*
X8650000Y-15793300D02*
X9975500Y-15793300D01*
X10916800Y-14559500D02*
X12509700Y-12966600D01*
X9975500Y-15793300D02*
X10916800Y-14852000D01*
X10916800Y-14852000D02*
X10916800Y-14559500D01*
X10577400Y-20242500D02*
X10577400Y-17856200D01*
X9500000Y-16778800D02*
X9500000Y-16500000D01*
X10577400Y-17856200D02*
X9500000Y-16778800D01*
X11200000Y-17450000D02*
X11200000Y-16500000D01*
X32843300Y-24337500D02*
X18087500Y-24337500D01*
X18087500Y-24337500D02*
X11200000Y-17450000D01*
X17678300Y-17679800D02*
X12523100Y-17679800D01*
X36523000Y-24187500D02*
X35621100Y-23285600D01*
X12523100Y-17679800D02*
X12050000Y-17206700D01*
X12050000Y-16500000D02*
X12050000Y-17206700D01*
X35621100Y-23285600D02*
X23284100Y-23285600D01*
X23284100Y-23285600D02*
X17678300Y-17679800D01*
D29*
X13423100Y-12394800D02*
X13779800Y-12394800D01*
X13779800Y-12394800D02*
X14124600Y-12050000D01*
X14800000Y-12050000D02*
X14124600Y-12050000D01*
D28*
X13423100Y-14500000D02*
X13423100Y-12394800D01*
D29*
X13779800Y-10855200D02*
X14124600Y-11200000D01*
X14800000Y-11200000D02*
X14124600Y-11200000D01*
X13295000Y-10855200D02*
X13779800Y-10855200D01*
D28*
X13295000Y-10734600D02*
X13295000Y-10855200D01*
D29*
X15475400Y-10350000D02*
X15734000Y-10608600D01*
X15734000Y-10608600D02*
X15735600Y-10608600D01*
X14800000Y-10350000D02*
X15475400Y-10350000D01*
D28*
X11172600Y-5343800D02*
X13023100Y-3493300D01*
X13023100Y-3493300D02*
X14036600Y-3493300D01*
X14800000Y-3550000D02*
X14093300Y-3550000D01*
X14036600Y-3493300D02*
X14093300Y-3550000D01*
X3814500Y-4849300D02*
X3814500Y-4725700D01*
X2295500Y-3206700D02*
X1850000Y-3206700D01*
X1850000Y-2500000D02*
X1850000Y-3206700D01*
X3814500Y-4725700D02*
X2295500Y-3206700D01*
G04 #@! TA.AperFunction,Conductor*
G36*
X17517729Y-18124985D02*
G01*
X17538371Y-18141619D01*
X22943615Y-23546863D01*
X23022837Y-23626085D01*
X23113683Y-23678535D01*
X23117286Y-23680615D01*
X23165499Y-23731183D01*
X23178720Y-23799790D01*
X23152751Y-23864654D01*
X23095836Y-23905181D01*
X23055282Y-23912000D01*
X18315110Y-23912000D01*
X18248071Y-23892315D01*
X18227429Y-23875681D01*
X17854209Y-23502461D01*
X17820724Y-23441138D01*
X17825708Y-23371446D01*
X17867580Y-23315513D01*
X17907296Y-23295703D01*
X18060197Y-23251281D01*
X18201552Y-23167685D01*
X18201561Y-23167678D01*
X18317678Y-23051561D01*
X18317685Y-23051552D01*
X18401282Y-22910196D01*
X18401283Y-22910193D01*
X18447099Y-22752495D01*
X18447100Y-22752489D01*
X18449999Y-22715649D01*
X18450000Y-22715634D01*
X18450000Y-22100000D01*
X16588731Y-22100000D01*
X16552232Y-22119930D01*
X16482540Y-22114946D01*
X16438193Y-22086445D01*
X15436098Y-21084350D01*
X16600000Y-21084350D01*
X16600000Y-21700000D01*
X17325000Y-21700000D01*
X17725000Y-21700000D01*
X18450000Y-21700000D01*
X18450000Y-21084365D01*
X18449999Y-21084350D01*
X18447100Y-21047510D01*
X18447099Y-21047504D01*
X18401283Y-20889806D01*
X18401282Y-20889803D01*
X18317685Y-20748447D01*
X18317678Y-20748438D01*
X18201561Y-20632321D01*
X18201552Y-20632314D01*
X18060196Y-20548717D01*
X18060193Y-20548716D01*
X17902495Y-20502900D01*
X17902489Y-20502899D01*
X17865649Y-20500000D01*
X17725000Y-20500000D01*
X17725000Y-21700000D01*
X17325000Y-21700000D01*
X17325000Y-20500000D01*
X17184350Y-20500000D01*
X17147510Y-20502899D01*
X17147504Y-20502900D01*
X16989806Y-20548716D01*
X16989803Y-20548717D01*
X16848447Y-20632314D01*
X16848438Y-20632321D01*
X16732321Y-20748438D01*
X16732314Y-20748447D01*
X16648717Y-20889803D01*
X16648716Y-20889806D01*
X16602900Y-21047504D01*
X16602899Y-21047510D01*
X16600000Y-21084350D01*
X15436098Y-21084350D01*
X12668729Y-18316981D01*
X12635244Y-18255658D01*
X12640228Y-18185966D01*
X12682100Y-18130033D01*
X12747564Y-18105616D01*
X12756410Y-18105300D01*
X17450690Y-18105300D01*
X17517729Y-18124985D01*
G37*
G04 #@! TD.AperFunction*
G04 #@! TA.AperFunction,Conductor*
G36*
X11208103Y-18060297D02*
G01*
X11214581Y-18066329D01*
X13542603Y-20394351D01*
X13576088Y-20455674D01*
X13571104Y-20525366D01*
X13529232Y-20581299D01*
X13463768Y-20605716D01*
X13440140Y-20605148D01*
X13414410Y-20602058D01*
X13393102Y-20599500D01*
X13393098Y-20599500D01*
X12996806Y-20599500D01*
X12929767Y-20579815D01*
X12884012Y-20527011D01*
X12874068Y-20457853D01*
X12875189Y-20451309D01*
X12881799Y-20418073D01*
X12881800Y-20418071D01*
X12881800Y-20289928D01*
X12856802Y-20164261D01*
X12856801Y-20164260D01*
X12856801Y-20164256D01*
X12807765Y-20045873D01*
X12807764Y-20045872D01*
X12807761Y-20045866D01*
X12736576Y-19939331D01*
X12736573Y-19939327D01*
X12645972Y-19848726D01*
X12645968Y-19848723D01*
X12539433Y-19777538D01*
X12539424Y-19777533D01*
X12421044Y-19728499D01*
X12421038Y-19728497D01*
X12295371Y-19703500D01*
X12295369Y-19703500D01*
X12167231Y-19703500D01*
X12167229Y-19703500D01*
X12041561Y-19728497D01*
X12041555Y-19728499D01*
X11923175Y-19777533D01*
X11923166Y-19777538D01*
X11816631Y-19848723D01*
X11816627Y-19848726D01*
X11726026Y-19939327D01*
X11726023Y-19939331D01*
X11654838Y-20045866D01*
X11654833Y-20045875D01*
X11605799Y-20164255D01*
X11605797Y-20164261D01*
X11580800Y-20289928D01*
X11580800Y-20289931D01*
X11580800Y-20418069D01*
X11580800Y-20418071D01*
X11580799Y-20418071D01*
X11605797Y-20543738D01*
X11605799Y-20543744D01*
X11654833Y-20662124D01*
X11654838Y-20662133D01*
X11726023Y-20768668D01*
X11726026Y-20768672D01*
X11769480Y-20812125D01*
X11802966Y-20873448D01*
X11805800Y-20899807D01*
X11805800Y-21866148D01*
X11786115Y-21933187D01*
X11733311Y-21978942D01*
X11664153Y-21988886D01*
X11600597Y-21959861D01*
X11567239Y-21913601D01*
X11517571Y-21793692D01*
X11517566Y-21793683D01*
X11419076Y-21646283D01*
X11419073Y-21646279D01*
X11293720Y-21520926D01*
X11293716Y-21520923D01*
X11146316Y-21422433D01*
X11146307Y-21422428D01*
X10982520Y-21354586D01*
X10982512Y-21354584D01*
X10920000Y-21342149D01*
X10920000Y-21995735D01*
X10904205Y-21979940D01*
X10835796Y-21940444D01*
X10759496Y-21920000D01*
X10680504Y-21920000D01*
X10604204Y-21940444D01*
X10535795Y-21979940D01*
X10520000Y-21995735D01*
X10520000Y-21342149D01*
X10519999Y-21342149D01*
X10497645Y-21346596D01*
X10492489Y-21346134D01*
X10487724Y-21348155D01*
X10458049Y-21343053D01*
X10428053Y-21340369D01*
X10423964Y-21337192D01*
X10418865Y-21336316D01*
X10396658Y-21315980D01*
X10372876Y-21297505D01*
X10370124Y-21291681D01*
X10367337Y-21289129D01*
X10363089Y-21276795D01*
X10353563Y-21256634D01*
X10294073Y-21031318D01*
X10294839Y-21003394D01*
X10292328Y-20975566D01*
X10295785Y-20968942D01*
X10295991Y-20961475D01*
X10311734Y-20938396D01*
X10324665Y-20913630D01*
X10331154Y-20909927D01*
X10335365Y-20903756D01*
X10361087Y-20892852D01*
X10385354Y-20879009D01*
X10394121Y-20878849D01*
X10399694Y-20876487D01*
X10411580Y-20878530D01*
X10438154Y-20878046D01*
X10485355Y-20887435D01*
X10513330Y-20893000D01*
X10513331Y-20893000D01*
X10641471Y-20893000D01*
X10744114Y-20872582D01*
X10767144Y-20868001D01*
X10885527Y-20818965D01*
X10992069Y-20747776D01*
X11082676Y-20657169D01*
X11153865Y-20550627D01*
X11202901Y-20432244D01*
X11220888Y-20341819D01*
X11227900Y-20306571D01*
X11227900Y-20178428D01*
X11202902Y-20052761D01*
X11202901Y-20052760D01*
X11202901Y-20052756D01*
X11153865Y-19934373D01*
X11153864Y-19934372D01*
X11153861Y-19934366D01*
X11082676Y-19827831D01*
X11082673Y-19827827D01*
X11039219Y-19784373D01*
X11005734Y-19723050D01*
X11002900Y-19696692D01*
X11002900Y-18154010D01*
X11022585Y-18086971D01*
X11075389Y-18041216D01*
X11144547Y-18031272D01*
X11208103Y-18060297D01*
G37*
G04 #@! TD.AperFunction*
G04 #@! TA.AperFunction,Conductor*
G36*
X10093068Y-19161664D02*
G01*
X10139758Y-19213644D01*
X10151900Y-19267159D01*
X10151900Y-19696692D01*
X10132215Y-19763731D01*
X10115581Y-19784373D01*
X10072126Y-19827827D01*
X10072123Y-19827831D01*
X10000938Y-19934366D01*
X10000933Y-19934375D01*
X9951899Y-20052755D01*
X9951897Y-20052761D01*
X9926900Y-20178428D01*
X9926900Y-20178431D01*
X9926900Y-20306569D01*
X9926900Y-20306571D01*
X9926899Y-20306571D01*
X9951897Y-20432238D01*
X9951899Y-20432244D01*
X10000937Y-20550633D01*
X10001998Y-20552618D01*
X10002238Y-20553775D01*
X10003266Y-20556255D01*
X10002795Y-20556449D01*
X10016234Y-20621022D01*
X9991229Y-20686264D01*
X9934920Y-20727629D01*
X9877850Y-20734177D01*
X9850000Y-20730832D01*
X9850000Y-21731000D01*
X9847449Y-21739685D01*
X9848738Y-21748647D01*
X9837759Y-21772687D01*
X9830315Y-21798039D01*
X9823474Y-21803966D01*
X9819713Y-21812203D01*
X9797478Y-21826492D01*
X9777511Y-21843794D01*
X9766996Y-21846081D01*
X9760935Y-21849977D01*
X9726000Y-21855000D01*
X9574500Y-21855000D01*
X9507461Y-21835315D01*
X9461706Y-21782511D01*
X9450500Y-21731000D01*
X9450500Y-21225723D01*
X9450365Y-21222838D01*
X9450385Y-21222837D01*
X9450000Y-21214602D01*
X9450000Y-20730832D01*
X9441899Y-20723646D01*
X9404811Y-20664432D01*
X9405625Y-20594567D01*
X9405933Y-20593577D01*
X9821093Y-19288788D01*
X9834522Y-19268889D01*
X9844107Y-19246871D01*
X9857502Y-19234838D01*
X9860176Y-19230877D01*
X9870340Y-19223303D01*
X9959011Y-19164055D01*
X10025688Y-19143179D01*
X10093068Y-19161664D01*
G37*
G04 #@! TD.AperFunction*
G04 #@! TA.AperFunction,Conductor*
G36*
X9089770Y-17142763D02*
G01*
X9094190Y-17142185D01*
X9103618Y-17144953D01*
X9111601Y-17146216D01*
X9125556Y-17150527D01*
X9127235Y-17152206D01*
X9230009Y-17197585D01*
X9255135Y-17200500D01*
X9287308Y-17200499D01*
X9305191Y-17206024D01*
X9356270Y-17236818D01*
X9997501Y-17878049D01*
X10030986Y-17939372D01*
X10026002Y-18009064D01*
X9984130Y-18064997D01*
X9918666Y-18089414D01*
X9862368Y-18080291D01*
X9739747Y-18029500D01*
X9739737Y-18029497D01*
X9614070Y-18004500D01*
X9614068Y-18004500D01*
X9485930Y-18004500D01*
X9485928Y-18004500D01*
X9360260Y-18029497D01*
X9360254Y-18029499D01*
X9241874Y-18078533D01*
X9241865Y-18078538D01*
X9135330Y-18149723D01*
X9135326Y-18149726D01*
X9044725Y-18240327D01*
X9044722Y-18240331D01*
X8973537Y-18346866D01*
X8973532Y-18346875D01*
X8924498Y-18465255D01*
X8924496Y-18465261D01*
X8899499Y-18590928D01*
X8899499Y-18590931D01*
X8899499Y-18719069D01*
X8899499Y-18719071D01*
X8899498Y-18719071D01*
X8924496Y-18844738D01*
X8924499Y-18844748D01*
X8959398Y-18929002D01*
X8966867Y-18998471D01*
X8963000Y-19014051D01*
X8439551Y-20659178D01*
X8439550Y-20659180D01*
X8435480Y-20671968D01*
X8430201Y-20681114D01*
X8417558Y-20728291D01*
X8416689Y-20731025D01*
X8416684Y-20731043D01*
X8411741Y-20746581D01*
X8372659Y-20804498D01*
X8308469Y-20832092D01*
X8275702Y-20831695D01*
X8275032Y-20831597D01*
X8260636Y-20829500D01*
X8039364Y-20829500D01*
X7976802Y-20838614D01*
X7966374Y-20840134D01*
X7958699Y-20843886D01*
X7954457Y-20845960D01*
X7885584Y-20857717D01*
X7882215Y-20857276D01*
X7862991Y-20854489D01*
X7833625Y-20840134D01*
X7760636Y-20829500D01*
X7690561Y-20829500D01*
X7681715Y-20828218D01*
X7657750Y-20817240D01*
X7632461Y-20809815D01*
X7626486Y-20802920D01*
X7618192Y-20799121D01*
X7603965Y-20776929D01*
X7586706Y-20757011D01*
X7584399Y-20746408D01*
X7580484Y-20740301D01*
X7580497Y-20728470D01*
X7575500Y-20705500D01*
X7575500Y-20482610D01*
X7595185Y-20415571D01*
X7611819Y-20394929D01*
X7664929Y-20341819D01*
X7726252Y-20308334D01*
X7752610Y-20305500D01*
X7814071Y-20305500D01*
X7898615Y-20288682D01*
X7939744Y-20280501D01*
X8058127Y-20231465D01*
X8164669Y-20160276D01*
X8255276Y-20069669D01*
X8326465Y-19963127D01*
X8375501Y-19844744D01*
X8387510Y-19784373D01*
X8400500Y-19719071D01*
X8400500Y-19590928D01*
X8375502Y-19465261D01*
X8375501Y-19465260D01*
X8375501Y-19465256D01*
X8326465Y-19346873D01*
X8326464Y-19346872D01*
X8326461Y-19346866D01*
X8255276Y-19240331D01*
X8255273Y-19240327D01*
X8164672Y-19149726D01*
X8164668Y-19149723D01*
X8058133Y-19078538D01*
X8058124Y-19078533D01*
X7939744Y-19029499D01*
X7939738Y-19029497D01*
X7814071Y-19004500D01*
X7814069Y-19004500D01*
X7685931Y-19004500D01*
X7685929Y-19004500D01*
X7560261Y-19029497D01*
X7560255Y-19029499D01*
X7441875Y-19078533D01*
X7441866Y-19078538D01*
X7335331Y-19149723D01*
X7335327Y-19149726D01*
X7244726Y-19240327D01*
X7244722Y-19240332D01*
X7233548Y-19257055D01*
X7179934Y-19301858D01*
X7110609Y-19310564D01*
X7047582Y-19280407D01*
X7023061Y-19250161D01*
X6990485Y-19193737D01*
X6911263Y-19114515D01*
X6833593Y-19069672D01*
X6814239Y-19058498D01*
X6814238Y-19058497D01*
X6814237Y-19058497D01*
X6706018Y-19029500D01*
X6593982Y-19029500D01*
X6485763Y-19058497D01*
X6485760Y-19058498D01*
X6388740Y-19114513D01*
X6388734Y-19114517D01*
X6309517Y-19193734D01*
X6309513Y-19193740D01*
X6253498Y-19290760D01*
X6253497Y-19290763D01*
X6224500Y-19398982D01*
X6224500Y-19405500D01*
X6204815Y-19472539D01*
X6152011Y-19518294D01*
X6100500Y-19529500D01*
X5593982Y-19529500D01*
X5485763Y-19558497D01*
X5485760Y-19558498D01*
X5388740Y-19614513D01*
X5388734Y-19614517D01*
X5309517Y-19693734D01*
X5309513Y-19693740D01*
X5253498Y-19790760D01*
X5253497Y-19790763D01*
X5224500Y-19898982D01*
X5224500Y-20705500D01*
X5204815Y-20772539D01*
X5152011Y-20818294D01*
X5118285Y-20828218D01*
X5109439Y-20829500D01*
X5039364Y-20829500D01*
X4966375Y-20840134D01*
X4937008Y-20854489D01*
X4917785Y-20857276D01*
X4901649Y-20854974D01*
X4885584Y-20857717D01*
X4852241Y-20847927D01*
X4848616Y-20847410D01*
X4847657Y-20846581D01*
X4845543Y-20845960D01*
X4833625Y-20840134D01*
X4760636Y-20829500D01*
X4539364Y-20829500D01*
X4535683Y-20830036D01*
X4524295Y-20831695D01*
X4490925Y-20826960D01*
X4457455Y-20822912D01*
X4456432Y-20822065D01*
X4455118Y-20821879D01*
X4429610Y-20799858D01*
X4403637Y-20778354D01*
X4402873Y-20776776D01*
X4402230Y-20776221D01*
X4388259Y-20746586D01*
X4388257Y-20746581D01*
X4383314Y-20731043D01*
X4381708Y-20725560D01*
X4369799Y-20681114D01*
X4366688Y-20673604D01*
X4366798Y-20673558D01*
X4360447Y-20659178D01*
X3836996Y-19014050D01*
X3835429Y-18944200D01*
X3840592Y-18929021D01*
X3875501Y-18844744D01*
X3900500Y-18719069D01*
X3900500Y-18590931D01*
X3900500Y-18590928D01*
X3875502Y-18465261D01*
X3875501Y-18465260D01*
X3875501Y-18465256D01*
X3826465Y-18346873D01*
X3826464Y-18346872D01*
X3826461Y-18346866D01*
X3755276Y-18240331D01*
X3755273Y-18240327D01*
X3707622Y-18192676D01*
X3674137Y-18131353D01*
X3679121Y-18061661D01*
X3720993Y-18005728D01*
X3763205Y-17985222D01*
X3891384Y-17950877D01*
X4028316Y-17871820D01*
X4140120Y-17760016D01*
X4219177Y-17623084D01*
X4260100Y-17470357D01*
X4260100Y-17324499D01*
X4279785Y-17257460D01*
X4332589Y-17211705D01*
X4384100Y-17200499D01*
X4644856Y-17200499D01*
X4644864Y-17200499D01*
X4644879Y-17200497D01*
X4644882Y-17200497D01*
X4669987Y-17197586D01*
X4669987Y-17197585D01*
X4669991Y-17197585D01*
X4772765Y-17152206D01*
X4772766Y-17152204D01*
X4774912Y-17151257D01*
X4844190Y-17142185D01*
X4875085Y-17151257D01*
X4944284Y-17181811D01*
X4980009Y-17197585D01*
X5005135Y-17200500D01*
X5494864Y-17200499D01*
X5494879Y-17200497D01*
X5494882Y-17200497D01*
X5519987Y-17197586D01*
X5519987Y-17197585D01*
X5519991Y-17197585D01*
X5622765Y-17152206D01*
X5622766Y-17152204D01*
X5624912Y-17151257D01*
X5694190Y-17142185D01*
X5725085Y-17151257D01*
X5794284Y-17181811D01*
X5830009Y-17197585D01*
X5855135Y-17200500D01*
X6344864Y-17200499D01*
X6344879Y-17200497D01*
X6344882Y-17200497D01*
X6369987Y-17197586D01*
X6369987Y-17197585D01*
X6369991Y-17197585D01*
X6472765Y-17152206D01*
X6472766Y-17152204D01*
X6474912Y-17151257D01*
X6544190Y-17142185D01*
X6575085Y-17151257D01*
X6644284Y-17181811D01*
X6680009Y-17197585D01*
X6705135Y-17200500D01*
X7194864Y-17200499D01*
X7194879Y-17200497D01*
X7194882Y-17200497D01*
X7219987Y-17197586D01*
X7219987Y-17197585D01*
X7219991Y-17197585D01*
X7322765Y-17152206D01*
X7322766Y-17152204D01*
X7324912Y-17151257D01*
X7394190Y-17142185D01*
X7425085Y-17151257D01*
X7494284Y-17181811D01*
X7530009Y-17197585D01*
X7555135Y-17200500D01*
X8044864Y-17200499D01*
X8044879Y-17200497D01*
X8044882Y-17200497D01*
X8069987Y-17197586D01*
X8069987Y-17197585D01*
X8069991Y-17197585D01*
X8172765Y-17152206D01*
X8172766Y-17152204D01*
X8174912Y-17151257D01*
X8244190Y-17142185D01*
X8275085Y-17151257D01*
X8344284Y-17181811D01*
X8380009Y-17197585D01*
X8405135Y-17200500D01*
X8894864Y-17200499D01*
X8894879Y-17200497D01*
X8894882Y-17200497D01*
X8919987Y-17197586D01*
X8919987Y-17197585D01*
X8919991Y-17197585D01*
X9022765Y-17152206D01*
X9022766Y-17152204D01*
X9024912Y-17151257D01*
X9051199Y-17147814D01*
X9076740Y-17140703D01*
X9089770Y-17142763D01*
G37*
G04 #@! TD.AperFunction*
G04 #@! TA.AperFunction,Conductor*
G36*
X12685946Y-11036114D02*
G01*
X12741879Y-11077986D01*
X12745714Y-11083405D01*
X12789723Y-11149268D01*
X12789726Y-11149272D01*
X12880327Y-11239873D01*
X12880331Y-11239876D01*
X12986866Y-11311061D01*
X12986875Y-11311066D01*
X13005185Y-11318650D01*
X13105256Y-11360101D01*
X13105260Y-11360101D01*
X13105261Y-11360102D01*
X13230928Y-11385100D01*
X13230931Y-11385100D01*
X13359071Y-11385100D01*
X13443615Y-11368282D01*
X13484744Y-11360101D01*
X13579654Y-11320787D01*
X13599528Y-11318650D01*
X13618258Y-11311665D01*
X13633554Y-11314992D01*
X13649120Y-11313319D01*
X13666997Y-11322267D01*
X13686531Y-11326517D01*
X13708817Y-11343200D01*
X13711599Y-11344593D01*
X13714785Y-11347668D01*
X13804820Y-11437703D01*
X13804830Y-11437714D01*
X13809160Y-11442044D01*
X13809161Y-11442045D01*
X13882555Y-11515439D01*
X13882557Y-11515440D01*
X13882561Y-11515443D01*
X13886322Y-11517615D01*
X13888860Y-11520277D01*
X13889006Y-11520389D01*
X13888988Y-11520411D01*
X13934536Y-11568183D01*
X13947757Y-11636791D01*
X13921787Y-11701655D01*
X13886322Y-11732385D01*
X13882561Y-11734556D01*
X13882553Y-11734562D01*
X13662789Y-11954327D01*
X13601466Y-11987812D01*
X13543015Y-11986421D01*
X13535594Y-11984432D01*
X13479118Y-11969300D01*
X13367082Y-11969300D01*
X13258863Y-11998297D01*
X13258860Y-11998298D01*
X13161840Y-12054313D01*
X13161834Y-12054317D01*
X13108125Y-12108027D01*
X13046802Y-12141512D01*
X12977110Y-12136528D01*
X12932763Y-12108027D01*
X12878417Y-12053681D01*
X12878409Y-12053675D01*
X12741490Y-11974626D01*
X12741486Y-11974624D01*
X12741484Y-11974623D01*
X12588757Y-11933700D01*
X12430643Y-11933700D01*
X12277916Y-11974623D01*
X12277909Y-11974626D01*
X12140990Y-12053675D01*
X12140982Y-12053681D01*
X12029181Y-12165482D01*
X12029175Y-12165490D01*
X11950126Y-12302409D01*
X11950123Y-12302416D01*
X11909200Y-12455143D01*
X11909200Y-12613257D01*
X11949851Y-12764967D01*
X11950123Y-12765983D01*
X11950124Y-12765986D01*
X11960543Y-12784032D01*
X11977016Y-12851932D01*
X11954163Y-12917959D01*
X11940837Y-12933713D01*
X10896081Y-13978470D01*
X10834758Y-14011955D01*
X10765066Y-14006971D01*
X10709133Y-13965099D01*
X10684716Y-13899635D01*
X10684400Y-13890789D01*
X10684400Y-12986509D01*
X10704085Y-12919470D01*
X10720714Y-12898833D01*
X12554933Y-11064613D01*
X12616254Y-11031130D01*
X12685946Y-11036114D01*
G37*
G04 #@! TD.AperFunction*
G04 #@! TA.AperFunction,Conductor*
G36*
X37943039Y-519685D02*
G01*
X37988794Y-572489D01*
X38000000Y-624000D01*
X38000000Y-28376000D01*
X37980315Y-28443039D01*
X37927511Y-28488794D01*
X37876000Y-28500000D01*
X624000Y-28500000D01*
X556961Y-28480315D01*
X511206Y-28427511D01*
X500000Y-28376000D01*
X500000Y-26561353D01*
X1180000Y-26561353D01*
X1180000Y-26750000D01*
X1780000Y-26750000D01*
X1780000Y-27150000D01*
X1180000Y-27150000D01*
X1180000Y-27338646D01*
X1214584Y-27512512D01*
X1214586Y-27512520D01*
X1282428Y-27676307D01*
X1282433Y-27676316D01*
X1380923Y-27823716D01*
X1380926Y-27823720D01*
X1506279Y-27949073D01*
X1506283Y-27949076D01*
X1653683Y-28047566D01*
X1653696Y-28047573D01*
X1817474Y-28115411D01*
X1817482Y-28115413D01*
X1880000Y-28127848D01*
X1880000Y-27474265D01*
X1895795Y-27490060D01*
X1964204Y-27529556D01*
X2040504Y-27550000D01*
X2119496Y-27550000D01*
X2195796Y-27529556D01*
X2264205Y-27490060D01*
X2280000Y-27474265D01*
X2280000Y-28127847D01*
X2342517Y-28115413D01*
X2342525Y-28115411D01*
X2506303Y-28047573D01*
X2506316Y-28047566D01*
X2653716Y-27949076D01*
X2653720Y-27949073D01*
X2779073Y-27823720D01*
X2779076Y-27823716D01*
X2877566Y-27676316D01*
X2877571Y-27676307D01*
X2945413Y-27512520D01*
X2945415Y-27512512D01*
X2979999Y-27338646D01*
X2980000Y-27338643D01*
X2980000Y-27150000D01*
X2380000Y-27150000D01*
X2380000Y-26750000D01*
X2980000Y-26750000D01*
X2980000Y-26561357D01*
X2979999Y-26561353D01*
X9820000Y-26561353D01*
X9820000Y-26750000D01*
X10420000Y-26750000D01*
X10420000Y-27150000D01*
X9820000Y-27150000D01*
X9820000Y-27338646D01*
X9854584Y-27512512D01*
X9854586Y-27512520D01*
X9922428Y-27676307D01*
X9922433Y-27676316D01*
X10020923Y-27823716D01*
X10020926Y-27823720D01*
X10146279Y-27949073D01*
X10146283Y-27949076D01*
X10293683Y-28047566D01*
X10293696Y-28047573D01*
X10457474Y-28115411D01*
X10457482Y-28115413D01*
X10520000Y-28127848D01*
X10520000Y-27474265D01*
X10535795Y-27490060D01*
X10604204Y-27529556D01*
X10680504Y-27550000D01*
X10759496Y-27550000D01*
X10835796Y-27529556D01*
X10904205Y-27490060D01*
X10920000Y-27474265D01*
X10920000Y-28127847D01*
X10982517Y-28115413D01*
X10982525Y-28115411D01*
X11146303Y-28047573D01*
X11146316Y-28047566D01*
X11293716Y-27949076D01*
X11293720Y-27949073D01*
X11419073Y-27823720D01*
X11419076Y-27823716D01*
X11517566Y-27676316D01*
X11517571Y-27676307D01*
X11585413Y-27512520D01*
X11585415Y-27512512D01*
X11619999Y-27338646D01*
X11620000Y-27338643D01*
X11620000Y-27150000D01*
X11020000Y-27150000D01*
X11020000Y-26750000D01*
X11620000Y-26750000D01*
X11620000Y-26561357D01*
X11619999Y-26561353D01*
X11585415Y-26387487D01*
X11585413Y-26387479D01*
X11517571Y-26223692D01*
X11517566Y-26223683D01*
X11419076Y-26076283D01*
X11419073Y-26076279D01*
X11293720Y-25950926D01*
X11293716Y-25950923D01*
X11146316Y-25852433D01*
X11146307Y-25852428D01*
X10982520Y-25784586D01*
X10982512Y-25784584D01*
X10920000Y-25772149D01*
X10920000Y-26425735D01*
X10904205Y-26409940D01*
X10835796Y-26370444D01*
X10759496Y-26350000D01*
X10680504Y-26350000D01*
X10604204Y-26370444D01*
X10535795Y-26409940D01*
X10520000Y-26425735D01*
X10520000Y-25772149D01*
X10457487Y-25784584D01*
X10457479Y-25784586D01*
X10293692Y-25852428D01*
X10293683Y-25852433D01*
X10146283Y-25950923D01*
X10146279Y-25950926D01*
X10020926Y-26076279D01*
X10020923Y-26076283D01*
X9922433Y-26223683D01*
X9922428Y-26223692D01*
X9854586Y-26387479D01*
X9854584Y-26387487D01*
X9820000Y-26561353D01*
X2979999Y-26561353D01*
X2945415Y-26387487D01*
X2945413Y-26387479D01*
X2877571Y-26223692D01*
X2877566Y-26223683D01*
X2779076Y-26076283D01*
X2779073Y-26076279D01*
X2653720Y-25950926D01*
X2653716Y-25950923D01*
X2506316Y-25852433D01*
X2506307Y-25852428D01*
X2342520Y-25784586D01*
X2342512Y-25784584D01*
X2280000Y-25772149D01*
X2280000Y-26425735D01*
X2264205Y-26409940D01*
X2195796Y-26370444D01*
X2119496Y-26350000D01*
X2040504Y-26350000D01*
X1964204Y-26370444D01*
X1895795Y-26409940D01*
X1880000Y-26425735D01*
X1880000Y-25772149D01*
X1817487Y-25784584D01*
X1817479Y-25784586D01*
X1653692Y-25852428D01*
X1653683Y-25852433D01*
X1506283Y-25950923D01*
X1506279Y-25950926D01*
X1380926Y-26076279D01*
X1380923Y-26076283D01*
X1282433Y-26223683D01*
X1282428Y-26223692D01*
X1214586Y-26387479D01*
X1214584Y-26387487D01*
X1180000Y-26561353D01*
X500000Y-26561353D01*
X500000Y-22131353D01*
X1180000Y-22131353D01*
X1180000Y-22570000D01*
X1780000Y-22570000D01*
X1780000Y-22970000D01*
X1180000Y-22970000D01*
X1180000Y-23408646D01*
X1214584Y-23582512D01*
X1214586Y-23582520D01*
X1282428Y-23746307D01*
X1282433Y-23746316D01*
X1380923Y-23893716D01*
X1380926Y-23893720D01*
X1506279Y-24019073D01*
X1506283Y-24019076D01*
X1653683Y-24117566D01*
X1653696Y-24117573D01*
X1817474Y-24185411D01*
X1817482Y-24185413D01*
X1880000Y-24197848D01*
X1880000Y-23544265D01*
X1895795Y-23560060D01*
X1964204Y-23599556D01*
X2040504Y-23620000D01*
X2119496Y-23620000D01*
X2195796Y-23599556D01*
X2264205Y-23560060D01*
X2280000Y-23544265D01*
X2280000Y-24197847D01*
X2342517Y-24185413D01*
X2342525Y-24185411D01*
X2506303Y-24117573D01*
X2506316Y-24117566D01*
X2653716Y-24019076D01*
X2653720Y-24019073D01*
X2779073Y-23893720D01*
X2779076Y-23893716D01*
X2877566Y-23746316D01*
X2877569Y-23746310D01*
X2884124Y-23730484D01*
X2927962Y-23676078D01*
X2994255Y-23654009D01*
X3061955Y-23671285D01*
X3086369Y-23690249D01*
X3156635Y-23760515D01*
X3287863Y-23836280D01*
X3287865Y-23836281D01*
X3295369Y-23839389D01*
X3294475Y-23841545D01*
X3343906Y-23871671D01*
X3374440Y-23934516D01*
X3366150Y-24003892D01*
X3321668Y-24057773D01*
X3321050Y-24058188D01*
X3262633Y-24097221D01*
X3262627Y-24097226D01*
X3172026Y-24187827D01*
X3172023Y-24187831D01*
X3100838Y-24294366D01*
X3100833Y-24294375D01*
X3051799Y-24412755D01*
X3051797Y-24412761D01*
X3026800Y-24538428D01*
X3026800Y-24538431D01*
X3026800Y-24666569D01*
X3026800Y-24666571D01*
X3026799Y-24666571D01*
X3051797Y-24792238D01*
X3051799Y-24792244D01*
X3100833Y-24910624D01*
X3100838Y-24910633D01*
X3172023Y-25017168D01*
X3172026Y-25017172D01*
X3262627Y-25107773D01*
X3262631Y-25107776D01*
X3369166Y-25178961D01*
X3369175Y-25178966D01*
X3385107Y-25185565D01*
X3487556Y-25228001D01*
X3487560Y-25228001D01*
X3487561Y-25228002D01*
X3613228Y-25253000D01*
X3613231Y-25253000D01*
X3741371Y-25253000D01*
X3858982Y-25229605D01*
X3928574Y-25235832D01*
X3983751Y-25278695D01*
X4004791Y-25327029D01*
X4007597Y-25341139D01*
X4007599Y-25341144D01*
X4056633Y-25459524D01*
X4056638Y-25459533D01*
X4127823Y-25566068D01*
X4127826Y-25566072D01*
X4218427Y-25656673D01*
X4218431Y-25656676D01*
X4324966Y-25727861D01*
X4324972Y-25727864D01*
X4324973Y-25727865D01*
X4443356Y-25776901D01*
X4443360Y-25776901D01*
X4443361Y-25776902D01*
X4569028Y-25801900D01*
X4569031Y-25801900D01*
X4697171Y-25801900D01*
X4784220Y-25784584D01*
X4822844Y-25776901D01*
X4941227Y-25727865D01*
X5047769Y-25656676D01*
X5138376Y-25566069D01*
X5209565Y-25459527D01*
X5258601Y-25341144D01*
X5274822Y-25259600D01*
X5283600Y-25215471D01*
X5283600Y-25087328D01*
X5268161Y-25009716D01*
X5274388Y-24940125D01*
X5317250Y-24884947D01*
X5383140Y-24861702D01*
X5437230Y-24870963D01*
X5460256Y-24880501D01*
X5460260Y-24880501D01*
X5460261Y-24880502D01*
X5585928Y-24905500D01*
X5585931Y-24905500D01*
X5714071Y-24905500D01*
X5830217Y-24882396D01*
X5839744Y-24880501D01*
X5958127Y-24831465D01*
X6064669Y-24760276D01*
X6155276Y-24669669D01*
X6226465Y-24563127D01*
X6275501Y-24444744D01*
X6300500Y-24319069D01*
X6300500Y-24257610D01*
X6309144Y-24228169D01*
X6315668Y-24198183D01*
X6319422Y-24193167D01*
X6320185Y-24190571D01*
X6336819Y-24169929D01*
X6346219Y-24160529D01*
X6407542Y-24127044D01*
X6477234Y-24132028D01*
X6521581Y-24160529D01*
X6885081Y-24524029D01*
X6918566Y-24585352D01*
X6921400Y-24611710D01*
X6921400Y-24673169D01*
X6921400Y-24673171D01*
X6921399Y-24673171D01*
X6946397Y-24798838D01*
X6946399Y-24798844D01*
X6995433Y-24917224D01*
X6995438Y-24917233D01*
X7066623Y-25023768D01*
X7066626Y-25023772D01*
X7157227Y-25114373D01*
X7157231Y-25114376D01*
X7263766Y-25185561D01*
X7263772Y-25185564D01*
X7263773Y-25185565D01*
X7382156Y-25234601D01*
X7382160Y-25234601D01*
X7382161Y-25234602D01*
X7507828Y-25259600D01*
X7507831Y-25259600D01*
X7635971Y-25259600D01*
X7720515Y-25242782D01*
X7761644Y-25234601D01*
X7880027Y-25185565D01*
X7881120Y-25184835D01*
X7881778Y-25184628D01*
X7885402Y-25182692D01*
X7885769Y-25183378D01*
X7947795Y-25163949D01*
X8015177Y-25182426D01*
X8037700Y-25200245D01*
X8049772Y-25212317D01*
X8060032Y-25222577D01*
X8166566Y-25293761D01*
X8166572Y-25293764D01*
X8166573Y-25293765D01*
X8284956Y-25342801D01*
X8284960Y-25342801D01*
X8284961Y-25342802D01*
X8410628Y-25367800D01*
X8410631Y-25367800D01*
X8538771Y-25367800D01*
X8623315Y-25350982D01*
X8664444Y-25342801D01*
X8782827Y-25293765D01*
X8889369Y-25222576D01*
X8979976Y-25131969D01*
X9051165Y-25025427D01*
X9100201Y-24907044D01*
X9117909Y-24818024D01*
X9125200Y-24781371D01*
X9125200Y-24653228D01*
X9100202Y-24527561D01*
X9100201Y-24527560D01*
X9100201Y-24527556D01*
X9051165Y-24409173D01*
X9051164Y-24409172D01*
X9051161Y-24409166D01*
X8979976Y-24302631D01*
X8979973Y-24302627D01*
X8889372Y-24212026D01*
X8889368Y-24212023D01*
X8782833Y-24140838D01*
X8782824Y-24140833D01*
X8664444Y-24091799D01*
X8664438Y-24091797D01*
X8538771Y-24066800D01*
X8538769Y-24066800D01*
X8434752Y-24066800D01*
X8367713Y-24047115D01*
X8321958Y-23994311D01*
X8312014Y-23925153D01*
X8320191Y-23895347D01*
X8326807Y-23879375D01*
X8352501Y-23817344D01*
X8370846Y-23725120D01*
X8377500Y-23691671D01*
X8377500Y-23630210D01*
X8384785Y-23605398D01*
X8388225Y-23579763D01*
X8395361Y-23569380D01*
X8397185Y-23563171D01*
X8407026Y-23549894D01*
X8410276Y-23546070D01*
X8411261Y-23545086D01*
X8411263Y-23545085D01*
X8490485Y-23465863D01*
X8515925Y-23421798D01*
X8523210Y-23413230D01*
X8543392Y-23399989D01*
X8560862Y-23383331D01*
X8572079Y-23381168D01*
X8581630Y-23374903D01*
X8605766Y-23374675D01*
X8629469Y-23370107D01*
X8640074Y-23374352D01*
X8651496Y-23374245D01*
X8671923Y-23387102D01*
X8694334Y-23396074D01*
X8700959Y-23405378D01*
X8710628Y-23411464D01*
X8720862Y-23433327D01*
X8734863Y-23452988D01*
X8737458Y-23461449D01*
X8753719Y-23522135D01*
X8829485Y-23653365D01*
X8936635Y-23760515D01*
X9067865Y-23836281D01*
X9214234Y-23875500D01*
X9214236Y-23875500D01*
X9365764Y-23875500D01*
X9365766Y-23875500D01*
X9512135Y-23836281D01*
X9643365Y-23760515D01*
X9713633Y-23690246D01*
X9774952Y-23656764D01*
X9844644Y-23661748D01*
X9900578Y-23703619D01*
X9915873Y-23730479D01*
X9922429Y-23746309D01*
X9922433Y-23746316D01*
X10020923Y-23893716D01*
X10020926Y-23893720D01*
X10146279Y-24019073D01*
X10146283Y-24019076D01*
X10293683Y-24117566D01*
X10293696Y-24117573D01*
X10457474Y-24185411D01*
X10457482Y-24185413D01*
X10520000Y-24197848D01*
X10520000Y-23544265D01*
X10535795Y-23560060D01*
X10604204Y-23599556D01*
X10680504Y-23620000D01*
X10759496Y-23620000D01*
X10835796Y-23599556D01*
X10904205Y-23560060D01*
X10920000Y-23544265D01*
X10920000Y-24197847D01*
X10982517Y-24185413D01*
X10982525Y-24185411D01*
X11146303Y-24117573D01*
X11146316Y-24117566D01*
X11293716Y-24019076D01*
X11293720Y-24019073D01*
X11419073Y-23893720D01*
X11419076Y-23893716D01*
X11517566Y-23746316D01*
X11517573Y-23746303D01*
X11567239Y-23626399D01*
X11611080Y-23571995D01*
X11677374Y-23549930D01*
X11745073Y-23567209D01*
X11792684Y-23618346D01*
X11805800Y-23673851D01*
X11805800Y-25100282D01*
X11805800Y-25212318D01*
X11834797Y-25320537D01*
X11890815Y-25417563D01*
X11890817Y-25417565D01*
X12213181Y-25739929D01*
X12246666Y-25801252D01*
X12249500Y-25827610D01*
X12249500Y-26793102D01*
X12252206Y-26815634D01*
X12260122Y-26881561D01*
X12260122Y-26881563D01*
X12260123Y-26881564D01*
X12277722Y-26926192D01*
X12315639Y-27022343D01*
X12407077Y-27142922D01*
X12527656Y-27234360D01*
X12527657Y-27234360D01*
X12527658Y-27234361D01*
X12668436Y-27289877D01*
X12756898Y-27300500D01*
X12756903Y-27300500D01*
X13393097Y-27300500D01*
X13393102Y-27300500D01*
X13481564Y-27289877D01*
X13622342Y-27234361D01*
X13742922Y-27142922D01*
X13834361Y-27022342D01*
X13839117Y-27010280D01*
X13882018Y-26955139D01*
X13947924Y-26931943D01*
X14001920Y-26941208D01*
X14048256Y-26960401D01*
X14048260Y-26960401D01*
X14048261Y-26960402D01*
X14173928Y-26985400D01*
X14173931Y-26985400D01*
X14302071Y-26985400D01*
X14386615Y-26968582D01*
X14427744Y-26960401D01*
X14546127Y-26911365D01*
X14652669Y-26840176D01*
X14677196Y-26815649D01*
X16600000Y-26815649D01*
X16602899Y-26852489D01*
X16602900Y-26852495D01*
X16648716Y-27010193D01*
X16648717Y-27010196D01*
X16732314Y-27151552D01*
X16732321Y-27151561D01*
X16848438Y-27267678D01*
X16848447Y-27267685D01*
X16989803Y-27351282D01*
X16989806Y-27351283D01*
X17147504Y-27397099D01*
X17147510Y-27397100D01*
X17184350Y-27399999D01*
X17184366Y-27400000D01*
X17325000Y-27400000D01*
X17725000Y-27400000D01*
X17865634Y-27400000D01*
X17865649Y-27399999D01*
X17902489Y-27397100D01*
X17902495Y-27397099D01*
X18060193Y-27351283D01*
X18060196Y-27351282D01*
X18201552Y-27267685D01*
X18201561Y-27267678D01*
X18317678Y-27151561D01*
X18317685Y-27151552D01*
X18401282Y-27010196D01*
X18401283Y-27010193D01*
X18447099Y-26852495D01*
X18447100Y-26852489D01*
X18449999Y-26815649D01*
X18450000Y-26815634D01*
X18450000Y-26200000D01*
X17725000Y-26200000D01*
X17725000Y-27400000D01*
X17325000Y-27400000D01*
X17325000Y-26200000D01*
X16600000Y-26200000D01*
X16600000Y-26815649D01*
X14677196Y-26815649D01*
X14743276Y-26749569D01*
X14814465Y-26643027D01*
X14863501Y-26524644D01*
X14888500Y-26398969D01*
X14888500Y-26270831D01*
X14888500Y-26270828D01*
X14869006Y-26172830D01*
X14869006Y-26172829D01*
X14863502Y-26145163D01*
X14863501Y-26145156D01*
X14814465Y-26026773D01*
X14814464Y-26026772D01*
X14814461Y-26026766D01*
X14743276Y-25920231D01*
X14743273Y-25920227D01*
X14699819Y-25876773D01*
X14666334Y-25815450D01*
X14663500Y-25789092D01*
X14663500Y-24467695D01*
X15447399Y-24467695D01*
X15474318Y-24603022D01*
X15474321Y-24603032D01*
X15527121Y-24730504D01*
X15527128Y-24730517D01*
X15603785Y-24845241D01*
X15603788Y-24845245D01*
X15701354Y-24942811D01*
X15701358Y-24942814D01*
X15816082Y-25019471D01*
X15816095Y-25019478D01*
X15943567Y-25072278D01*
X15943572Y-25072280D01*
X15943576Y-25072280D01*
X15943577Y-25072281D01*
X16078904Y-25099200D01*
X16078907Y-25099200D01*
X16216895Y-25099200D01*
X16307941Y-25081089D01*
X16352228Y-25072280D01*
X16430521Y-25039849D01*
X16499989Y-25032381D01*
X16562469Y-25063656D01*
X16598121Y-25123745D01*
X16601591Y-25164138D01*
X16600000Y-25184347D01*
X16600000Y-25800000D01*
X17325000Y-25800000D01*
X17325000Y-24600000D01*
X17184350Y-24600000D01*
X17147510Y-24602899D01*
X16997548Y-24646467D01*
X16927679Y-24646267D01*
X16869009Y-24608324D01*
X16840166Y-24544686D01*
X16841336Y-24503201D01*
X16848400Y-24467693D01*
X16848400Y-24329707D01*
X16848400Y-24329704D01*
X16821481Y-24194377D01*
X16821480Y-24194376D01*
X16821480Y-24194372D01*
X16816920Y-24183363D01*
X16768678Y-24066895D01*
X16768671Y-24066882D01*
X16692014Y-23952158D01*
X16692011Y-23952154D01*
X16594445Y-23854588D01*
X16594441Y-23854585D01*
X16479717Y-23777928D01*
X16479704Y-23777921D01*
X16352232Y-23725121D01*
X16352222Y-23725118D01*
X16216895Y-23698200D01*
X16216893Y-23698200D01*
X16078907Y-23698200D01*
X16078905Y-23698200D01*
X15943577Y-23725118D01*
X15943567Y-23725121D01*
X15816095Y-23777921D01*
X15816082Y-23777928D01*
X15701358Y-23854585D01*
X15701354Y-23854588D01*
X15603788Y-23952154D01*
X15603785Y-23952158D01*
X15527128Y-24066882D01*
X15527121Y-24066895D01*
X15474321Y-24194367D01*
X15474318Y-24194377D01*
X15447400Y-24329704D01*
X15447400Y-24329707D01*
X15447400Y-24467693D01*
X15447400Y-24467695D01*
X15447399Y-24467695D01*
X14663500Y-24467695D01*
X14663500Y-23006983D01*
X14663500Y-23006982D01*
X14646446Y-22943337D01*
X14634503Y-22898763D01*
X14617052Y-22868537D01*
X14578485Y-22801737D01*
X14499263Y-22722515D01*
X14499262Y-22722514D01*
X14494932Y-22718184D01*
X14494921Y-22718174D01*
X13936819Y-22160071D01*
X13903334Y-22098748D01*
X13900500Y-22072390D01*
X13900500Y-21106904D01*
X13900500Y-21106898D01*
X13894851Y-21059859D01*
X13906403Y-20990953D01*
X13953375Y-20939229D01*
X14020855Y-20921111D01*
X14087418Y-20942351D01*
X14105648Y-20957396D01*
X17688681Y-24540429D01*
X17722166Y-24601752D01*
X17725000Y-24628110D01*
X17725000Y-25800000D01*
X18450000Y-25800000D01*
X18450000Y-25184365D01*
X18449999Y-25184350D01*
X18447100Y-25147510D01*
X18447099Y-25147504D01*
X18401283Y-24989806D01*
X18401283Y-24989805D01*
X18377814Y-24950120D01*
X18360632Y-24882396D01*
X18382793Y-24816134D01*
X18437259Y-24772371D01*
X18484547Y-24763000D01*
X32368202Y-24763000D01*
X32435241Y-24782685D01*
X32455883Y-24799319D01*
X32474584Y-24818020D01*
X32474586Y-24818021D01*
X32474590Y-24818024D01*
X32590506Y-24884947D01*
X32611516Y-24897077D01*
X32764243Y-24938000D01*
X32764245Y-24938000D01*
X32922355Y-24938000D01*
X32922357Y-24938000D01*
X33075084Y-24897077D01*
X33212016Y-24818020D01*
X33323820Y-24706216D01*
X33402877Y-24569284D01*
X33443800Y-24416557D01*
X33443800Y-24258443D01*
X33402877Y-24105716D01*
X33397974Y-24097224D01*
X33323824Y-23968790D01*
X33323818Y-23968782D01*
X33277817Y-23922781D01*
X33244332Y-23861458D01*
X33249316Y-23791766D01*
X33291188Y-23735833D01*
X33356652Y-23711416D01*
X33365498Y-23711100D01*
X35393490Y-23711100D01*
X35460529Y-23730785D01*
X35481171Y-23747419D01*
X35836181Y-24102428D01*
X35869666Y-24163751D01*
X35872500Y-24190109D01*
X35872500Y-24251569D01*
X35872500Y-24251571D01*
X35872499Y-24251571D01*
X35897497Y-24377238D01*
X35897499Y-24377244D01*
X35946533Y-24495624D01*
X35946538Y-24495633D01*
X36017723Y-24602168D01*
X36017726Y-24602172D01*
X36108327Y-24692773D01*
X36108331Y-24692776D01*
X36214866Y-24763961D01*
X36214872Y-24763964D01*
X36214873Y-24763965D01*
X36333256Y-24813001D01*
X36333260Y-24813001D01*
X36333261Y-24813002D01*
X36458928Y-24838000D01*
X36458931Y-24838000D01*
X36587071Y-24838000D01*
X36687512Y-24818020D01*
X36712744Y-24813001D01*
X36831127Y-24763965D01*
X36937669Y-24692776D01*
X37028276Y-24602169D01*
X37099465Y-24495627D01*
X37148501Y-24377244D01*
X37164987Y-24294366D01*
X37173500Y-24251571D01*
X37173500Y-24123428D01*
X37148502Y-23997761D01*
X37148501Y-23997760D01*
X37148501Y-23997756D01*
X37099465Y-23879373D01*
X37099464Y-23879372D01*
X37099461Y-23879366D01*
X37028276Y-23772831D01*
X37028273Y-23772827D01*
X36937672Y-23682226D01*
X36937668Y-23682223D01*
X36831133Y-23611038D01*
X36831124Y-23611033D01*
X36712744Y-23561999D01*
X36712738Y-23561997D01*
X36587071Y-23537000D01*
X36587069Y-23537000D01*
X36525609Y-23537000D01*
X36458570Y-23517315D01*
X36437928Y-23500681D01*
X36176494Y-23239247D01*
X35882363Y-22945115D01*
X35785337Y-22889097D01*
X35677118Y-22860100D01*
X35677117Y-22860100D01*
X26062871Y-22860100D01*
X25995832Y-22840415D01*
X25950077Y-22787611D01*
X25940133Y-22718453D01*
X25969158Y-22654897D01*
X26000871Y-22628713D01*
X26011682Y-22622471D01*
X26139612Y-22548611D01*
X26321661Y-22408919D01*
X26321665Y-22408914D01*
X26321670Y-22408911D01*
X26483911Y-22246670D01*
X26483914Y-22246665D01*
X26483919Y-22246661D01*
X26623611Y-22064612D01*
X26738344Y-21865888D01*
X26826158Y-21653887D01*
X26885548Y-21432238D01*
X26915500Y-21204734D01*
X26915500Y-20975266D01*
X26885548Y-20747762D01*
X26826158Y-20526113D01*
X26738344Y-20314112D01*
X26623611Y-20115388D01*
X26623608Y-20115385D01*
X26623607Y-20115382D01*
X26483918Y-19933338D01*
X26483911Y-19933330D01*
X26321670Y-19771089D01*
X26321661Y-19771081D01*
X26139617Y-19631392D01*
X25940890Y-19516657D01*
X25940876Y-19516650D01*
X25728887Y-19428842D01*
X25641772Y-19405500D01*
X25507238Y-19369452D01*
X25469215Y-19364446D01*
X25279741Y-19339500D01*
X25279734Y-19339500D01*
X25050266Y-19339500D01*
X25050258Y-19339500D01*
X24833715Y-19368009D01*
X24822762Y-19369452D01*
X24729076Y-19394554D01*
X24601112Y-19428842D01*
X24389123Y-19516650D01*
X24389109Y-19516657D01*
X24190382Y-19631392D01*
X24008338Y-19771081D01*
X23846081Y-19933338D01*
X23706392Y-20115382D01*
X23591657Y-20314109D01*
X23591650Y-20314123D01*
X23503842Y-20526112D01*
X23489453Y-20579815D01*
X23444769Y-20746581D01*
X23444453Y-20747759D01*
X23444451Y-20747770D01*
X23414500Y-20975258D01*
X23414500Y-21204741D01*
X23432710Y-21343053D01*
X23444452Y-21432238D01*
X23444453Y-21432240D01*
X23503842Y-21653887D01*
X23591650Y-21865876D01*
X23591657Y-21865890D01*
X23706392Y-22064617D01*
X23846081Y-22246661D01*
X23846089Y-22246670D01*
X24008330Y-22408911D01*
X24008338Y-22408918D01*
X24190382Y-22548607D01*
X24190385Y-22548608D01*
X24190388Y-22548611D01*
X24308409Y-22616750D01*
X24329129Y-22628713D01*
X24377345Y-22679280D01*
X24390567Y-22747887D01*
X24364599Y-22812752D01*
X24307685Y-22853280D01*
X24267129Y-22860100D01*
X23511710Y-22860100D01*
X23444671Y-22840415D01*
X23424029Y-22823781D01*
X20640850Y-20040602D01*
X20607365Y-19979279D01*
X20612349Y-19909587D01*
X20654221Y-19853654D01*
X20719685Y-19829237D01*
X20760619Y-19833145D01*
X20958884Y-19886270D01*
X21218880Y-19920500D01*
X21218887Y-19920500D01*
X21481113Y-19920500D01*
X21481120Y-19920500D01*
X21741116Y-19886270D01*
X21994419Y-19818398D01*
X22211459Y-19728497D01*
X22236690Y-19718046D01*
X22236691Y-19718045D01*
X22236697Y-19718043D01*
X22463803Y-19586924D01*
X22671851Y-19427282D01*
X22671855Y-19427277D01*
X22671860Y-19427274D01*
X22857274Y-19241860D01*
X22857277Y-19241855D01*
X22857282Y-19241851D01*
X23016924Y-19033803D01*
X23148043Y-18806697D01*
X23248398Y-18564419D01*
X23316270Y-18311116D01*
X23350500Y-18051120D01*
X23350500Y-17816530D01*
X28559500Y-17816530D01*
X28559500Y-18023469D01*
X28599868Y-18226412D01*
X28599870Y-18226420D01*
X28679058Y-18417596D01*
X28794024Y-18589657D01*
X28940342Y-18735975D01*
X28940345Y-18735977D01*
X29112402Y-18850941D01*
X29303580Y-18930130D01*
X29498366Y-18968875D01*
X29506530Y-18970499D01*
X29506534Y-18970500D01*
X29506535Y-18970500D01*
X29713466Y-18970500D01*
X29713467Y-18970499D01*
X29916420Y-18930130D01*
X30107598Y-18850941D01*
X30279655Y-18735977D01*
X30425977Y-18589655D01*
X30540941Y-18417598D01*
X30620130Y-18226420D01*
X30660500Y-18023465D01*
X30660500Y-17816535D01*
X30620130Y-17613580D01*
X30540941Y-17422402D01*
X30425977Y-17250345D01*
X30425975Y-17250342D01*
X30279657Y-17104024D01*
X30161603Y-17025144D01*
X30107598Y-16989059D01*
X29916420Y-16909870D01*
X29916412Y-16909868D01*
X29713469Y-16869500D01*
X29713465Y-16869500D01*
X29506535Y-16869500D01*
X29506530Y-16869500D01*
X29303587Y-16909868D01*
X29303579Y-16909870D01*
X29112403Y-16989058D01*
X28940342Y-17104024D01*
X28794024Y-17250342D01*
X28679058Y-17422403D01*
X28599870Y-17613579D01*
X28599868Y-17613587D01*
X28559500Y-17816530D01*
X23350500Y-17816530D01*
X23350500Y-17788880D01*
X23316270Y-17528884D01*
X23248398Y-17275581D01*
X23248394Y-17275571D01*
X23148046Y-17033309D01*
X23148041Y-17033299D01*
X23016924Y-16806196D01*
X22857281Y-16598148D01*
X22857274Y-16598140D01*
X22671860Y-16412726D01*
X22671851Y-16412718D01*
X22463803Y-16253075D01*
X22236700Y-16121958D01*
X22236690Y-16121953D01*
X21994428Y-16021605D01*
X21994421Y-16021603D01*
X21994422Y-16021603D01*
X21994419Y-16021602D01*
X21931228Y-16004670D01*
X21871570Y-15968306D01*
X21841041Y-15905459D01*
X21849336Y-15836083D01*
X21893821Y-15782205D01*
X21915865Y-15770338D01*
X22125888Y-15683344D01*
X22324612Y-15568611D01*
X22506661Y-15428919D01*
X22506665Y-15428914D01*
X22506670Y-15428911D01*
X22668911Y-15266670D01*
X22668914Y-15266665D01*
X22668919Y-15266661D01*
X22808611Y-15084612D01*
X22923344Y-14885888D01*
X23011158Y-14673887D01*
X23070548Y-14452238D01*
X23100500Y-14224734D01*
X23100500Y-13995266D01*
X23100499Y-13995258D01*
X23414500Y-13995258D01*
X23414500Y-14224741D01*
X23431668Y-14355135D01*
X23444452Y-14452238D01*
X23478433Y-14579057D01*
X23503842Y-14673887D01*
X23591650Y-14885876D01*
X23591657Y-14885890D01*
X23706392Y-15084617D01*
X23846081Y-15266661D01*
X23846089Y-15266670D01*
X24008330Y-15428911D01*
X24008338Y-15428918D01*
X24190382Y-15568607D01*
X24190385Y-15568608D01*
X24190388Y-15568611D01*
X24389112Y-15683344D01*
X24389117Y-15683346D01*
X24389123Y-15683349D01*
X24465133Y-15714833D01*
X24601113Y-15771158D01*
X24822762Y-15830548D01*
X25050266Y-15860500D01*
X25050273Y-15860500D01*
X25279727Y-15860500D01*
X25279734Y-15860500D01*
X25507238Y-15830548D01*
X25728887Y-15771158D01*
X25940888Y-15683344D01*
X26139612Y-15568611D01*
X26321661Y-15428919D01*
X26321665Y-15428914D01*
X26321670Y-15428911D01*
X26483911Y-15266670D01*
X26483914Y-15266665D01*
X26483919Y-15266661D01*
X26623611Y-15084612D01*
X26738344Y-14885888D01*
X26826158Y-14673887D01*
X26885548Y-14452238D01*
X26915500Y-14224734D01*
X26915500Y-13995266D01*
X26885548Y-13767762D01*
X26826158Y-13546113D01*
X26757889Y-13381297D01*
X26738349Y-13334123D01*
X26738346Y-13334117D01*
X26738344Y-13334112D01*
X26623611Y-13135388D01*
X26623608Y-13135385D01*
X26623607Y-13135382D01*
X26483918Y-12953338D01*
X26483911Y-12953330D01*
X26321670Y-12791089D01*
X26321661Y-12791081D01*
X26139617Y-12651392D01*
X26073563Y-12613256D01*
X25940888Y-12536656D01*
X25940886Y-12536655D01*
X25940876Y-12536650D01*
X25728887Y-12448842D01*
X25507238Y-12389452D01*
X25469215Y-12384446D01*
X25279741Y-12359500D01*
X25279734Y-12359500D01*
X25050266Y-12359500D01*
X25050258Y-12359500D01*
X24833715Y-12388009D01*
X24822762Y-12389452D01*
X24729076Y-12414554D01*
X24601112Y-12448842D01*
X24389123Y-12536650D01*
X24389109Y-12536657D01*
X24190382Y-12651392D01*
X24008338Y-12791081D01*
X23846081Y-12953338D01*
X23706392Y-13135382D01*
X23591657Y-13334109D01*
X23591650Y-13334123D01*
X23503842Y-13546112D01*
X23444453Y-13767759D01*
X23444451Y-13767770D01*
X23414500Y-13995258D01*
X23100499Y-13995258D01*
X23070548Y-13767762D01*
X23011158Y-13546113D01*
X22942889Y-13381297D01*
X22923349Y-13334123D01*
X22923346Y-13334117D01*
X22923344Y-13334112D01*
X22808611Y-13135388D01*
X22808608Y-13135385D01*
X22808607Y-13135382D01*
X22668918Y-12953338D01*
X22668911Y-12953330D01*
X22506670Y-12791089D01*
X22506661Y-12791081D01*
X22324617Y-12651392D01*
X22258563Y-12613256D01*
X22125888Y-12536656D01*
X22125886Y-12536655D01*
X22125881Y-12536652D01*
X22058417Y-12508708D01*
X22004014Y-12464867D01*
X21981949Y-12398572D01*
X21999228Y-12330873D01*
X22050366Y-12283263D01*
X22058418Y-12279586D01*
X22280787Y-12187479D01*
X22280802Y-12187472D01*
X22519195Y-12049836D01*
X22687697Y-11920539D01*
X21757216Y-10990058D01*
X21859970Y-10921401D01*
X21971401Y-10809970D01*
X22040058Y-10707216D01*
X22970539Y-11637697D01*
X23099836Y-11469195D01*
X23237472Y-11230802D01*
X23237479Y-11230787D01*
X23342819Y-10976471D01*
X23414069Y-10710565D01*
X23450000Y-10437641D01*
X23450000Y-10196530D01*
X33639500Y-10196530D01*
X33639500Y-10403469D01*
X33679868Y-10606412D01*
X33679870Y-10606420D01*
X33723008Y-10710565D01*
X33759059Y-10797598D01*
X33767326Y-10809970D01*
X33874024Y-10969657D01*
X34020342Y-11115975D01*
X34020345Y-11115977D01*
X34192402Y-11230941D01*
X34383580Y-11310130D01*
X34586530Y-11350499D01*
X34586534Y-11350500D01*
X34586535Y-11350500D01*
X34793466Y-11350500D01*
X34793467Y-11350499D01*
X34996420Y-11310130D01*
X35187598Y-11230941D01*
X35359655Y-11115977D01*
X35505977Y-10969655D01*
X35620941Y-10797598D01*
X35700130Y-10606420D01*
X35740500Y-10403465D01*
X35740500Y-10196535D01*
X35700130Y-9993580D01*
X35620941Y-9802402D01*
X35505977Y-9630345D01*
X35505975Y-9630342D01*
X35359657Y-9484024D01*
X35198026Y-9376027D01*
X35187598Y-9369059D01*
X34996420Y-9289870D01*
X34996412Y-9289868D01*
X34793469Y-9249500D01*
X34793465Y-9249500D01*
X34586535Y-9249500D01*
X34586530Y-9249500D01*
X34383587Y-9289868D01*
X34383579Y-9289870D01*
X34192403Y-9369058D01*
X34020342Y-9484024D01*
X33874024Y-9630342D01*
X33759058Y-9802403D01*
X33679870Y-9993579D01*
X33679868Y-9993587D01*
X33639500Y-10196530D01*
X23450000Y-10196530D01*
X23450000Y-10162358D01*
X23414069Y-9889434D01*
X23342819Y-9623528D01*
X23237479Y-9369212D01*
X23237472Y-9369197D01*
X23099836Y-9130803D01*
X22970539Y-8962301D01*
X22040058Y-9892782D01*
X21971401Y-9790030D01*
X21859970Y-9678599D01*
X21757216Y-9609941D01*
X22687697Y-8679459D01*
X22687697Y-8679458D01*
X22519200Y-8550166D01*
X22280802Y-8412527D01*
X22280787Y-8412520D01*
X22026471Y-8307180D01*
X21760565Y-8235930D01*
X21487642Y-8200000D01*
X21212358Y-8200000D01*
X20939434Y-8235930D01*
X20673528Y-8307180D01*
X20419212Y-8412520D01*
X20419197Y-8412527D01*
X20180799Y-8550166D01*
X20012301Y-8679458D01*
X20012301Y-8679459D01*
X20942783Y-9609941D01*
X20840030Y-9678599D01*
X20728599Y-9790030D01*
X20659941Y-9892783D01*
X19729459Y-8962301D01*
X19729458Y-8962301D01*
X19600166Y-9130799D01*
X19462527Y-9369197D01*
X19462520Y-9369212D01*
X19357180Y-9623528D01*
X19285930Y-9889434D01*
X19250000Y-10162358D01*
X19250000Y-10437641D01*
X19285930Y-10710565D01*
X19357180Y-10976471D01*
X19462520Y-11230787D01*
X19462527Y-11230802D01*
X19600166Y-11469200D01*
X19729459Y-11637697D01*
X20659941Y-10707216D01*
X20728599Y-10809970D01*
X20840030Y-10921401D01*
X20942783Y-10990058D01*
X20012301Y-11920539D01*
X20180803Y-12049836D01*
X20419197Y-12187472D01*
X20419212Y-12187479D01*
X20641581Y-12279586D01*
X20695985Y-12323426D01*
X20718050Y-12389720D01*
X20700771Y-12457420D01*
X20649634Y-12505031D01*
X20641583Y-12508708D01*
X20574113Y-12536655D01*
X20574109Y-12536657D01*
X20375382Y-12651392D01*
X20193338Y-12791081D01*
X20031081Y-12953338D01*
X19891392Y-13135382D01*
X19776657Y-13334109D01*
X19776650Y-13334123D01*
X19688842Y-13546112D01*
X19629453Y-13767759D01*
X19629451Y-13767770D01*
X19599500Y-13995258D01*
X19599500Y-14224741D01*
X19616668Y-14355135D01*
X19629452Y-14452238D01*
X19663433Y-14579057D01*
X19688842Y-14673887D01*
X19776650Y-14885876D01*
X19776657Y-14885890D01*
X19891392Y-15084617D01*
X20031081Y-15266661D01*
X20031089Y-15266670D01*
X20193330Y-15428911D01*
X20193338Y-15428918D01*
X20375382Y-15568607D01*
X20375385Y-15568608D01*
X20375388Y-15568611D01*
X20574112Y-15683344D01*
X20574117Y-15683346D01*
X20574123Y-15683349D01*
X20678705Y-15726668D01*
X20784127Y-15770335D01*
X20838531Y-15814176D01*
X20860596Y-15880470D01*
X20843317Y-15948169D01*
X20792180Y-15995780D01*
X20768769Y-16004670D01*
X20705581Y-16021602D01*
X20705579Y-16021602D01*
X20705578Y-16021603D01*
X20705571Y-16021605D01*
X20463309Y-16121953D01*
X20463299Y-16121958D01*
X20236196Y-16253075D01*
X20028148Y-16412718D01*
X19842718Y-16598148D01*
X19683075Y-16806196D01*
X19551958Y-17033299D01*
X19551953Y-17033309D01*
X19451605Y-17275571D01*
X19451602Y-17275581D01*
X19399413Y-17470356D01*
X19383730Y-17528885D01*
X19349500Y-17788872D01*
X19349500Y-18051127D01*
X19383730Y-18311115D01*
X19436853Y-18509375D01*
X19435190Y-18579225D01*
X19396027Y-18637087D01*
X19331799Y-18664591D01*
X19262897Y-18653004D01*
X19229397Y-18629149D01*
X17939565Y-17339317D01*
X17939563Y-17339315D01*
X17842537Y-17283297D01*
X17734318Y-17254300D01*
X17734317Y-17254300D01*
X15670755Y-17254300D01*
X15603716Y-17234615D01*
X15557961Y-17181811D01*
X15548017Y-17112653D01*
X15560270Y-17074005D01*
X15585166Y-17025144D01*
X15600000Y-16931486D01*
X15600000Y-16700000D01*
X14924000Y-16700000D01*
X14915314Y-16697449D01*
X14906353Y-16698738D01*
X14882312Y-16687759D01*
X14856961Y-16680315D01*
X14851033Y-16673474D01*
X14842797Y-16669713D01*
X14828507Y-16647478D01*
X14811206Y-16627511D01*
X14808918Y-16616996D01*
X14805023Y-16610935D01*
X14800000Y-16576000D01*
X14800000Y-16424000D01*
X14819685Y-16356961D01*
X14872489Y-16311206D01*
X14924000Y-16300000D01*
X15599999Y-16300000D01*
X15599999Y-16068520D01*
X15585164Y-15974850D01*
X15585162Y-15974844D01*
X15527643Y-15861958D01*
X15527636Y-15861949D01*
X15523370Y-15857683D01*
X15489885Y-15796360D01*
X15494869Y-15726668D01*
X15497582Y-15719999D01*
X15497584Y-15719993D01*
X15497583Y-15719993D01*
X15497585Y-15719991D01*
X15500500Y-15694865D01*
X15500499Y-15205136D01*
X15500497Y-15205117D01*
X15497586Y-15180012D01*
X15497585Y-15180008D01*
X15455463Y-15084612D01*
X15452206Y-15077235D01*
X15452205Y-15077234D01*
X15451257Y-15075086D01*
X15442185Y-15005808D01*
X15451257Y-14974913D01*
X15452204Y-14972766D01*
X15452206Y-14972765D01*
X15497585Y-14869991D01*
X15500500Y-14844865D01*
X15500499Y-14355136D01*
X15500497Y-14355117D01*
X15497586Y-14330012D01*
X15497585Y-14330008D01*
X15457017Y-14238131D01*
X15452206Y-14227235D01*
X15452205Y-14227234D01*
X15451257Y-14225086D01*
X15442185Y-14155808D01*
X15451257Y-14124913D01*
X15452204Y-14122766D01*
X15452206Y-14122765D01*
X15497585Y-14019991D01*
X15500500Y-13994865D01*
X15500499Y-13505136D01*
X15500497Y-13505117D01*
X15497586Y-13480012D01*
X15497585Y-13480008D01*
X15461607Y-13398527D01*
X15452206Y-13377235D01*
X15452205Y-13377234D01*
X15451257Y-13375086D01*
X15442185Y-13305808D01*
X15451257Y-13274913D01*
X15452204Y-13272766D01*
X15452206Y-13272765D01*
X15497585Y-13169991D01*
X15500500Y-13144865D01*
X15500499Y-12655136D01*
X15500065Y-12651392D01*
X15497586Y-12630012D01*
X15497585Y-12630008D01*
X15456363Y-12536650D01*
X15452206Y-12527235D01*
X15452205Y-12527234D01*
X15451257Y-12525086D01*
X15442185Y-12455808D01*
X15451257Y-12424913D01*
X15452204Y-12422766D01*
X15452206Y-12422765D01*
X15497585Y-12319991D01*
X15500500Y-12294865D01*
X15500499Y-11805136D01*
X15500497Y-11805117D01*
X15497586Y-11780012D01*
X15497585Y-11780008D01*
X15454603Y-11682664D01*
X15452206Y-11677235D01*
X15452205Y-11677234D01*
X15451257Y-11675086D01*
X15442185Y-11605808D01*
X15451257Y-11574913D01*
X15452204Y-11572766D01*
X15452206Y-11572765D01*
X15497585Y-11469991D01*
X15500500Y-11444865D01*
X15500499Y-11376173D01*
X15520183Y-11309136D01*
X15572986Y-11263380D01*
X15642144Y-11253436D01*
X15648692Y-11254557D01*
X15671530Y-11259100D01*
X15671531Y-11259100D01*
X15799671Y-11259100D01*
X15896327Y-11239873D01*
X15925344Y-11234101D01*
X16043727Y-11185065D01*
X16150269Y-11113876D01*
X16240876Y-11023269D01*
X16312065Y-10916727D01*
X16361101Y-10798344D01*
X16378562Y-10710565D01*
X16386100Y-10672671D01*
X16386100Y-10538439D01*
X16388514Y-10538439D01*
X16399547Y-10480256D01*
X16447610Y-10429544D01*
X16474899Y-10419246D01*
X16474512Y-10417970D01*
X16480334Y-10416202D01*
X16480344Y-10416201D01*
X16598727Y-10367165D01*
X16705269Y-10295976D01*
X16795876Y-10205369D01*
X16867065Y-10098827D01*
X16916101Y-9980444D01*
X16934205Y-9889434D01*
X16941100Y-9854771D01*
X16941100Y-9793310D01*
X16960785Y-9726271D01*
X16977419Y-9705629D01*
X18043317Y-8639731D01*
X18729592Y-7953456D01*
X19767585Y-6915463D01*
X19823603Y-6818437D01*
X19852600Y-6710218D01*
X19852600Y-6598181D01*
X19852600Y-5745258D01*
X29769500Y-5745258D01*
X29769500Y-5974741D01*
X29794446Y-6164215D01*
X29799452Y-6202238D01*
X29850089Y-6391220D01*
X29858842Y-6423887D01*
X29946650Y-6635876D01*
X29946657Y-6635890D01*
X30061392Y-6834617D01*
X30201081Y-7016661D01*
X30201089Y-7016670D01*
X30363330Y-7178911D01*
X30363338Y-7178918D01*
X30363339Y-7178919D01*
X30384119Y-7194864D01*
X30545382Y-7318607D01*
X30545385Y-7318608D01*
X30545388Y-7318611D01*
X30744112Y-7433344D01*
X30744117Y-7433346D01*
X30744123Y-7433349D01*
X30760364Y-7440076D01*
X30956113Y-7521158D01*
X31177762Y-7580548D01*
X31405266Y-7610500D01*
X31405273Y-7610500D01*
X31634727Y-7610500D01*
X31634734Y-7610500D01*
X31862238Y-7580548D01*
X32083887Y-7521158D01*
X32295888Y-7433344D01*
X32494612Y-7318611D01*
X32676661Y-7178919D01*
X32676665Y-7178914D01*
X32676670Y-7178911D01*
X32838911Y-7016670D01*
X32838914Y-7016665D01*
X32838919Y-7016661D01*
X32978611Y-6834612D01*
X33093344Y-6635888D01*
X33181158Y-6423887D01*
X33240548Y-6202238D01*
X33270500Y-5974734D01*
X33270500Y-5745266D01*
X33240548Y-5517762D01*
X33181158Y-5296113D01*
X33122316Y-5154056D01*
X33093349Y-5084123D01*
X33093346Y-5084117D01*
X33093344Y-5084112D01*
X32978611Y-4885388D01*
X32978608Y-4885385D01*
X32978607Y-4885382D01*
X32877764Y-4753962D01*
X32838919Y-4703339D01*
X32838918Y-4703338D01*
X32838911Y-4703330D01*
X32676670Y-4541089D01*
X32676661Y-4541081D01*
X32494617Y-4401392D01*
X32295890Y-4286657D01*
X32295876Y-4286650D01*
X32083887Y-4198842D01*
X31862238Y-4139452D01*
X31824215Y-4134446D01*
X31634741Y-4109500D01*
X31634734Y-4109500D01*
X31405266Y-4109500D01*
X31405258Y-4109500D01*
X31188715Y-4138009D01*
X31177762Y-4139452D01*
X31119299Y-4155117D01*
X30956112Y-4198842D01*
X30744123Y-4286650D01*
X30744109Y-4286657D01*
X30545382Y-4401392D01*
X30363338Y-4541081D01*
X30201081Y-4703338D01*
X30061392Y-4885382D01*
X29946657Y-5084109D01*
X29946650Y-5084123D01*
X29858842Y-5296112D01*
X29848426Y-5334987D01*
X29805587Y-5494868D01*
X29799453Y-5517759D01*
X29799451Y-5517770D01*
X29769500Y-5745258D01*
X19852600Y-5745258D01*
X19852600Y-3656382D01*
X19823603Y-3548163D01*
X19767585Y-3451137D01*
X19688363Y-3371915D01*
X19060963Y-2744515D01*
X18963937Y-2688497D01*
X18855718Y-2659500D01*
X18855717Y-2659500D01*
X18375951Y-2659500D01*
X18308912Y-2639815D01*
X18263157Y-2587011D01*
X18262517Y-2585586D01*
X18252209Y-2562240D01*
X18252207Y-2562237D01*
X18252206Y-2562235D01*
X18172765Y-2482794D01*
X18149913Y-2472704D01*
X18069992Y-2437415D01*
X18044865Y-2434500D01*
X17255143Y-2434500D01*
X17255117Y-2434502D01*
X17230013Y-2437413D01*
X17209286Y-2446564D01*
X17150083Y-2472705D01*
X17080808Y-2481776D01*
X17049913Y-2472704D01*
X16969992Y-2437415D01*
X16944865Y-2434500D01*
X16155143Y-2434500D01*
X16155117Y-2434502D01*
X16130012Y-2437413D01*
X16130008Y-2437415D01*
X16027235Y-2482793D01*
X15947794Y-2562234D01*
X15902415Y-2665006D01*
X15902415Y-2665008D01*
X15899500Y-2690131D01*
X15899500Y-3479856D01*
X15899502Y-3479882D01*
X15902413Y-3504987D01*
X15902415Y-3504991D01*
X15947793Y-3607764D01*
X15947794Y-3607765D01*
X16027235Y-3687206D01*
X16107666Y-3722720D01*
X16145256Y-3748470D01*
X16449605Y-4052819D01*
X16483090Y-4114142D01*
X16478106Y-4183834D01*
X16436234Y-4239767D01*
X16370770Y-4264184D01*
X16361925Y-4264500D01*
X16155143Y-4264500D01*
X16155117Y-4264502D01*
X16130012Y-4267413D01*
X16130008Y-4267415D01*
X16027235Y-4312793D01*
X15947794Y-4392234D01*
X15902415Y-4495006D01*
X15902415Y-4495008D01*
X15899500Y-4520131D01*
X15899500Y-5309856D01*
X15899502Y-5309882D01*
X15902413Y-5334987D01*
X15902415Y-5334991D01*
X15947793Y-5437764D01*
X15947794Y-5437765D01*
X16027235Y-5517206D01*
X16130009Y-5562585D01*
X16155135Y-5565500D01*
X16944864Y-5565499D01*
X16965899Y-5563059D01*
X17034757Y-5574887D01*
X17053202Y-5588077D01*
X17054056Y-5586902D01*
X17061953Y-5592639D01*
X17174855Y-5650166D01*
X17268514Y-5664999D01*
X17449999Y-5664999D01*
X17850000Y-5664999D01*
X18031479Y-5664999D01*
X18125149Y-5650164D01*
X18125155Y-5650162D01*
X18238041Y-5592643D01*
X18238050Y-5592636D01*
X18327636Y-5503050D01*
X18327639Y-5503046D01*
X18385166Y-5390144D01*
X18400000Y-5296486D01*
X18400000Y-5115000D01*
X17850000Y-5115000D01*
X17850000Y-5664999D01*
X17449999Y-5664999D01*
X17450000Y-5664998D01*
X17450000Y-5039000D01*
X17469685Y-4971961D01*
X17522489Y-4926206D01*
X17574000Y-4915000D01*
X17650000Y-4915000D01*
X17650000Y-4839000D01*
X17669685Y-4771961D01*
X17722489Y-4726206D01*
X17774000Y-4715000D01*
X18399999Y-4715000D01*
X18399999Y-4639700D01*
X18419684Y-4572661D01*
X18472488Y-4526906D01*
X18523999Y-4515700D01*
X18554995Y-4515700D01*
X18659028Y-4495006D01*
X18690328Y-4488780D01*
X18817811Y-4435975D01*
X18817820Y-4435968D01*
X18819140Y-4435264D01*
X18819922Y-4435101D01*
X18823440Y-4433644D01*
X18823716Y-4434310D01*
X18887542Y-4421018D01*
X18952788Y-4446015D01*
X18994161Y-4502317D01*
X19001600Y-4544619D01*
X19001600Y-6426590D01*
X18981915Y-6493629D01*
X18965281Y-6514271D01*
X16375671Y-9103881D01*
X16314348Y-9137366D01*
X16287990Y-9140200D01*
X16226529Y-9140200D01*
X16100861Y-9165197D01*
X16100855Y-9165199D01*
X15982475Y-9214233D01*
X15982466Y-9214238D01*
X15875931Y-9285423D01*
X15875927Y-9285426D01*
X15785326Y-9376027D01*
X15785323Y-9376031D01*
X15727601Y-9462418D01*
X15673988Y-9507223D01*
X15604663Y-9515930D01*
X15541636Y-9485775D01*
X15504917Y-9426332D01*
X15500499Y-9393527D01*
X15500499Y-9255143D01*
X15500499Y-9255136D01*
X15500497Y-9255117D01*
X15497586Y-9230012D01*
X15497585Y-9230008D01*
X15456679Y-9137366D01*
X15452206Y-9127235D01*
X15452205Y-9127234D01*
X15451257Y-9125086D01*
X15442185Y-9055808D01*
X15451257Y-9024913D01*
X15452204Y-9022766D01*
X15452206Y-9022765D01*
X15497585Y-8919991D01*
X15500500Y-8894865D01*
X15500499Y-8405136D01*
X15500497Y-8405117D01*
X15497586Y-8380012D01*
X15497585Y-8380008D01*
X15454795Y-8283099D01*
X15452206Y-8277235D01*
X15452205Y-8277234D01*
X15451257Y-8275086D01*
X15442185Y-8205808D01*
X15451257Y-8174913D01*
X15452204Y-8172766D01*
X15452206Y-8172765D01*
X15497585Y-8069991D01*
X15500500Y-8044865D01*
X15500499Y-7555136D01*
X15500497Y-7555117D01*
X15497586Y-7530012D01*
X15497585Y-7530008D01*
X15457876Y-7440076D01*
X15452206Y-7427235D01*
X15452205Y-7427234D01*
X15451257Y-7425086D01*
X15442185Y-7355808D01*
X15451257Y-7324913D01*
X15452204Y-7322766D01*
X15452206Y-7322765D01*
X15497585Y-7219991D01*
X15500500Y-7194865D01*
X15500499Y-6705136D01*
X15500497Y-6705117D01*
X15497586Y-6680012D01*
X15497585Y-6680008D01*
X15459747Y-6594313D01*
X15452206Y-6577235D01*
X15452205Y-6577234D01*
X15451257Y-6575086D01*
X15442185Y-6505808D01*
X15451257Y-6474913D01*
X15452204Y-6472766D01*
X15452206Y-6472765D01*
X15497585Y-6369991D01*
X15500500Y-6344865D01*
X15500499Y-5855136D01*
X15500497Y-5855117D01*
X15497586Y-5830012D01*
X15497585Y-5830008D01*
X15460164Y-5745258D01*
X15452206Y-5727235D01*
X15452205Y-5727234D01*
X15451257Y-5725086D01*
X15442185Y-5655808D01*
X15451257Y-5624913D01*
X15452204Y-5622766D01*
X15452206Y-5622765D01*
X15497585Y-5519991D01*
X15500500Y-5494865D01*
X15500499Y-5005136D01*
X15500497Y-5005117D01*
X15497586Y-4980012D01*
X15497585Y-4980008D01*
X15455803Y-4885382D01*
X15452206Y-4877235D01*
X15452205Y-4877234D01*
X15451257Y-4875086D01*
X15442185Y-4805808D01*
X15451257Y-4774913D01*
X15452204Y-4772766D01*
X15452206Y-4772765D01*
X15497585Y-4669991D01*
X15500500Y-4644865D01*
X15500499Y-4155136D01*
X15500497Y-4155117D01*
X15497586Y-4130012D01*
X15497585Y-4130008D01*
X15458514Y-4041522D01*
X15452206Y-4027235D01*
X15452205Y-4027234D01*
X15451257Y-4025086D01*
X15442185Y-3955808D01*
X15451257Y-3924913D01*
X15452204Y-3922766D01*
X15452206Y-3922765D01*
X15497585Y-3819991D01*
X15500500Y-3794865D01*
X15500499Y-3305136D01*
X15500497Y-3305117D01*
X15497586Y-3280012D01*
X15495137Y-3271011D01*
X15496385Y-3270671D01*
X15488544Y-3210811D01*
X15518364Y-3147624D01*
X15523374Y-3142311D01*
X15527639Y-3138045D01*
X15527640Y-3138044D01*
X15585166Y-3025144D01*
X15600000Y-2931486D01*
X15600000Y-2700000D01*
X14924000Y-2700000D01*
X14856961Y-2680315D01*
X14811206Y-2627511D01*
X14800000Y-2576000D01*
X14800000Y-2500000D01*
X14724000Y-2500000D01*
X14656961Y-2480315D01*
X14611206Y-2427511D01*
X14600000Y-2376000D01*
X14600000Y-2300000D01*
X15000000Y-2300000D01*
X15599999Y-2300000D01*
X15599999Y-2068520D01*
X15585164Y-1974850D01*
X15585162Y-1974844D01*
X15527643Y-1861958D01*
X15527636Y-1861949D01*
X15438050Y-1772363D01*
X15438046Y-1772360D01*
X15325144Y-1714833D01*
X15231486Y-1700000D01*
X15000000Y-1700000D01*
X15000000Y-2300000D01*
X14600000Y-2300000D01*
X14600000Y-1700000D01*
X14368520Y-1700000D01*
X14274849Y-1714835D01*
X14274844Y-1714837D01*
X14161956Y-1772357D01*
X14161950Y-1772362D01*
X14157676Y-1776636D01*
X14096350Y-1810116D01*
X14026659Y-1805125D01*
X14020016Y-1802421D01*
X14019991Y-1802415D01*
X13994865Y-1799500D01*
X13505143Y-1799500D01*
X13505117Y-1799502D01*
X13480013Y-1802413D01*
X13375086Y-1848743D01*
X13305807Y-1857814D01*
X13274914Y-1848743D01*
X13272765Y-1847794D01*
X13169991Y-1802415D01*
X13144865Y-1799500D01*
X12655143Y-1799500D01*
X12655117Y-1799502D01*
X12630013Y-1802413D01*
X12525086Y-1848743D01*
X12455807Y-1857814D01*
X12424914Y-1848743D01*
X12422765Y-1847794D01*
X12319991Y-1802415D01*
X12294865Y-1799500D01*
X11805143Y-1799500D01*
X11805117Y-1799502D01*
X11780013Y-1802413D01*
X11675086Y-1848743D01*
X11605807Y-1857814D01*
X11574914Y-1848743D01*
X11572765Y-1847794D01*
X11469991Y-1802415D01*
X11444865Y-1799500D01*
X10955143Y-1799500D01*
X10955117Y-1799502D01*
X10930013Y-1802413D01*
X10825086Y-1848743D01*
X10755807Y-1857814D01*
X10724914Y-1848743D01*
X10722765Y-1847794D01*
X10619991Y-1802415D01*
X10594865Y-1799500D01*
X10105143Y-1799500D01*
X10105117Y-1799502D01*
X10080013Y-1802413D01*
X9975086Y-1848743D01*
X9905807Y-1857814D01*
X9874914Y-1848743D01*
X9872765Y-1847794D01*
X9769991Y-1802415D01*
X9744865Y-1799500D01*
X9255143Y-1799500D01*
X9255117Y-1799502D01*
X9230012Y-1802413D01*
X9230011Y-1802414D01*
X9125084Y-1848743D01*
X9091927Y-1853084D01*
X9058903Y-1858259D01*
X9056833Y-1857679D01*
X9055806Y-1857814D01*
X9024916Y-1848744D01*
X9022765Y-1847794D01*
X9006089Y-1840431D01*
X8952714Y-1795348D01*
X8932185Y-1728563D01*
X8934558Y-1702805D01*
X8953900Y-1605571D01*
X8953900Y-1477428D01*
X8928902Y-1351761D01*
X8928901Y-1351760D01*
X8928901Y-1351756D01*
X8879865Y-1233373D01*
X8879864Y-1233372D01*
X8879861Y-1233366D01*
X8808676Y-1126831D01*
X8808673Y-1126827D01*
X8718072Y-1036226D01*
X8718068Y-1036223D01*
X8611533Y-965038D01*
X8611524Y-965033D01*
X8493144Y-915999D01*
X8493138Y-915997D01*
X8367471Y-891000D01*
X8367469Y-891000D01*
X8239331Y-891000D01*
X8239329Y-891000D01*
X8113661Y-915997D01*
X8113655Y-915999D01*
X7995275Y-965033D01*
X7995266Y-965038D01*
X7888731Y-1036223D01*
X7888727Y-1036226D01*
X7798126Y-1126827D01*
X7798123Y-1126831D01*
X7726938Y-1233366D01*
X7726933Y-1233375D01*
X7677899Y-1351755D01*
X7677897Y-1351761D01*
X7652900Y-1477428D01*
X7652900Y-1477431D01*
X7652900Y-1605569D01*
X7652900Y-1605571D01*
X7652899Y-1605571D01*
X7662169Y-1652169D01*
X7655942Y-1721761D01*
X7613079Y-1776938D01*
X7582146Y-1793177D01*
X7564385Y-1799500D01*
X7555136Y-1799501D01*
X7530009Y-1802415D01*
X7427235Y-1847794D01*
X7426394Y-1848634D01*
X7416594Y-1852124D01*
X7386099Y-1853847D01*
X7355807Y-1857814D01*
X7349369Y-1855923D01*
X7346836Y-1856067D01*
X7343573Y-1854222D01*
X7324914Y-1848743D01*
X7322765Y-1847794D01*
X7219991Y-1802415D01*
X7194865Y-1799500D01*
X6705143Y-1799500D01*
X6705117Y-1799502D01*
X6680013Y-1802413D01*
X6575086Y-1848743D01*
X6505807Y-1857814D01*
X6474914Y-1848743D01*
X6472765Y-1847794D01*
X6369991Y-1802415D01*
X6344865Y-1799500D01*
X5855143Y-1799500D01*
X5855117Y-1799502D01*
X5830013Y-1802413D01*
X5725086Y-1848743D01*
X5655807Y-1857814D01*
X5624914Y-1848743D01*
X5622765Y-1847794D01*
X5519991Y-1802415D01*
X5494865Y-1799500D01*
X5005143Y-1799500D01*
X5005117Y-1799502D01*
X4980014Y-1802413D01*
X4971013Y-1804863D01*
X4970673Y-1803615D01*
X4910799Y-1811453D01*
X4847616Y-1781627D01*
X4842316Y-1776629D01*
X4838050Y-1772363D01*
X4838046Y-1772360D01*
X4725144Y-1714833D01*
X4631486Y-1700000D01*
X4600000Y-1700000D01*
X4600000Y-3299999D01*
X4631479Y-3299999D01*
X4725149Y-3285164D01*
X4725155Y-3285162D01*
X4838039Y-3227644D01*
X4838045Y-3227639D01*
X4842310Y-3223375D01*
X4903631Y-3189887D01*
X4973323Y-3194868D01*
X4979991Y-3197580D01*
X4980005Y-3197584D01*
X4980007Y-3197584D01*
X4980009Y-3197585D01*
X5005135Y-3200500D01*
X5494864Y-3200499D01*
X5494879Y-3200497D01*
X5494882Y-3200497D01*
X5519987Y-3197586D01*
X5519987Y-3197585D01*
X5519991Y-3197585D01*
X5622765Y-3152206D01*
X5622766Y-3152204D01*
X5624912Y-3151257D01*
X5694190Y-3142185D01*
X5725085Y-3151257D01*
X5830004Y-3197583D01*
X5830009Y-3197585D01*
X5855135Y-3200500D01*
X6344864Y-3200499D01*
X6344879Y-3200497D01*
X6344882Y-3200497D01*
X6369987Y-3197586D01*
X6369987Y-3197585D01*
X6369991Y-3197585D01*
X6472765Y-3152206D01*
X6472766Y-3152204D01*
X6474912Y-3151257D01*
X6544190Y-3142185D01*
X6575085Y-3151257D01*
X6680004Y-3197583D01*
X6680009Y-3197585D01*
X6705135Y-3200500D01*
X7194864Y-3200499D01*
X7194879Y-3200497D01*
X7194882Y-3200497D01*
X7219987Y-3197586D01*
X7219987Y-3197585D01*
X7219991Y-3197585D01*
X7322765Y-3152206D01*
X7322766Y-3152204D01*
X7324912Y-3151257D01*
X7394190Y-3142185D01*
X7425085Y-3151257D01*
X7530004Y-3197583D01*
X7530009Y-3197585D01*
X7555135Y-3200500D01*
X8044864Y-3200499D01*
X8044879Y-3200497D01*
X8044882Y-3200497D01*
X8069987Y-3197586D01*
X8069987Y-3197585D01*
X8069991Y-3197585D01*
X8172765Y-3152206D01*
X8172766Y-3152204D01*
X8174912Y-3151257D01*
X8244190Y-3142185D01*
X8275085Y-3151257D01*
X8380004Y-3197583D01*
X8380009Y-3197585D01*
X8405135Y-3200500D01*
X8894864Y-3200499D01*
X8894879Y-3200497D01*
X8894882Y-3200497D01*
X8919987Y-3197586D01*
X8919987Y-3197585D01*
X8919991Y-3197585D01*
X9022765Y-3152206D01*
X9022766Y-3152204D01*
X9024912Y-3151257D01*
X9094190Y-3142185D01*
X9125085Y-3151257D01*
X9230004Y-3197583D01*
X9230009Y-3197585D01*
X9255135Y-3200500D01*
X9744864Y-3200499D01*
X9744879Y-3200497D01*
X9744882Y-3200497D01*
X9769987Y-3197586D01*
X9769987Y-3197585D01*
X9769991Y-3197585D01*
X9872765Y-3152206D01*
X9872766Y-3152204D01*
X9874912Y-3151257D01*
X9944190Y-3142185D01*
X9975085Y-3151257D01*
X10080004Y-3197583D01*
X10080009Y-3197585D01*
X10105135Y-3200500D01*
X10594864Y-3200499D01*
X10594879Y-3200497D01*
X10594882Y-3200497D01*
X10619987Y-3197586D01*
X10619987Y-3197585D01*
X10619991Y-3197585D01*
X10722765Y-3152206D01*
X10722766Y-3152204D01*
X10724912Y-3151257D01*
X10794190Y-3142185D01*
X10825085Y-3151257D01*
X10930004Y-3197583D01*
X10930009Y-3197585D01*
X10955135Y-3200500D01*
X11444864Y-3200499D01*
X11444879Y-3200497D01*
X11444882Y-3200497D01*
X11469987Y-3197586D01*
X11469987Y-3197585D01*
X11469991Y-3197585D01*
X11572765Y-3152206D01*
X11572766Y-3152204D01*
X11574912Y-3151257D01*
X11644190Y-3142185D01*
X11675085Y-3151257D01*
X11780004Y-3197583D01*
X11780009Y-3197585D01*
X11805135Y-3200500D01*
X12294864Y-3200499D01*
X12294879Y-3200497D01*
X12294882Y-3200497D01*
X12319987Y-3197586D01*
X12319987Y-3197585D01*
X12319991Y-3197585D01*
X12422765Y-3152206D01*
X12422766Y-3152204D01*
X12424192Y-3151575D01*
X12493471Y-3142503D01*
X12556656Y-3172326D01*
X12593687Y-3231575D01*
X12592807Y-3301440D01*
X12561960Y-3352690D01*
X11257671Y-4656981D01*
X11196348Y-4690466D01*
X11169990Y-4693300D01*
X11108529Y-4693300D01*
X10982861Y-4718297D01*
X10982855Y-4718299D01*
X10864475Y-4767333D01*
X10864466Y-4767338D01*
X10757931Y-4838523D01*
X10757927Y-4838526D01*
X10667326Y-4929127D01*
X10667323Y-4929131D01*
X10596138Y-5035666D01*
X10596133Y-5035675D01*
X10547099Y-5154055D01*
X10547097Y-5154061D01*
X10522100Y-5279728D01*
X10522100Y-5279731D01*
X10522100Y-5407869D01*
X10522100Y-5407871D01*
X10522099Y-5407871D01*
X10547097Y-5533538D01*
X10547099Y-5533544D01*
X10596133Y-5651924D01*
X10596138Y-5651933D01*
X10667323Y-5758468D01*
X10667326Y-5758472D01*
X10757927Y-5849073D01*
X10757931Y-5849076D01*
X10864466Y-5920261D01*
X10864472Y-5920264D01*
X10864473Y-5920265D01*
X10982856Y-5969301D01*
X10982860Y-5969301D01*
X10982861Y-5969302D01*
X11108528Y-5994300D01*
X11108531Y-5994300D01*
X11236671Y-5994300D01*
X11335066Y-5974727D01*
X11362344Y-5969301D01*
X11480727Y-5920265D01*
X11587269Y-5849076D01*
X11677876Y-5758469D01*
X11749065Y-5651927D01*
X11798101Y-5533544D01*
X11809786Y-5474800D01*
X11823100Y-5407871D01*
X11823100Y-5346410D01*
X11842785Y-5279371D01*
X11859419Y-5258729D01*
X13163029Y-3955119D01*
X13224352Y-3921634D01*
X13250710Y-3918800D01*
X13847855Y-3918800D01*
X13888114Y-3925517D01*
X13899459Y-3929411D01*
X13929063Y-3946503D01*
X14021070Y-3971156D01*
X14025099Y-3972539D01*
X14050266Y-3990364D01*
X14076594Y-4006412D01*
X14078519Y-4010375D01*
X14082116Y-4012923D01*
X14093649Y-4041522D01*
X14107123Y-4069259D01*
X14106872Y-4074311D01*
X14108248Y-4077722D01*
X14106160Y-4088705D01*
X14104493Y-4122368D01*
X14102415Y-4130005D01*
X14099500Y-4155131D01*
X14099500Y-4644856D01*
X14099502Y-4644882D01*
X14102413Y-4669986D01*
X14102414Y-4669990D01*
X14102415Y-4669991D01*
X14147794Y-4772765D01*
X14147795Y-4772766D01*
X14148743Y-4774913D01*
X14157814Y-4844191D01*
X14148743Y-4875085D01*
X14102415Y-4980009D01*
X14099500Y-5005131D01*
X14099500Y-5494856D01*
X14099502Y-5494882D01*
X14102413Y-5519986D01*
X14102414Y-5519990D01*
X14102415Y-5519991D01*
X14147794Y-5622765D01*
X14147795Y-5622766D01*
X14148743Y-5624913D01*
X14157814Y-5694191D01*
X14148743Y-5725085D01*
X14102415Y-5830009D01*
X14099500Y-5855131D01*
X14099500Y-6344856D01*
X14099502Y-6344882D01*
X14102413Y-6369986D01*
X14102414Y-6369990D01*
X14102415Y-6369991D01*
X14147794Y-6472765D01*
X14147795Y-6472766D01*
X14148743Y-6474913D01*
X14157814Y-6544191D01*
X14148743Y-6575085D01*
X14102415Y-6680009D01*
X14099500Y-6705131D01*
X14099500Y-7194856D01*
X14099502Y-7194882D01*
X14102413Y-7219986D01*
X14102414Y-7219990D01*
X14102415Y-7219991D01*
X14147794Y-7322765D01*
X14147795Y-7322766D01*
X14148743Y-7324913D01*
X14157814Y-7394191D01*
X14148743Y-7425085D01*
X14102415Y-7530009D01*
X14099500Y-7555131D01*
X14099500Y-8044856D01*
X14099502Y-8044882D01*
X14102413Y-8069987D01*
X14102414Y-8069988D01*
X14102414Y-8069990D01*
X14102415Y-8069991D01*
X14113545Y-8095198D01*
X14122617Y-8164475D01*
X14092794Y-8227660D01*
X14033545Y-8264692D01*
X13975921Y-8266902D01*
X13931669Y-8258100D01*
X13803531Y-8258100D01*
X13803528Y-8258100D01*
X13688482Y-8280984D01*
X13618891Y-8274757D01*
X13563713Y-8231894D01*
X13556905Y-8221368D01*
X13549789Y-8209043D01*
X13549786Y-8209040D01*
X13549785Y-8209037D01*
X13470563Y-8129815D01*
X11935063Y-6594315D01*
X11838037Y-6538297D01*
X11729818Y-6509300D01*
X11729817Y-6509300D01*
X11283707Y-6509300D01*
X11216668Y-6489615D01*
X11196025Y-6472980D01*
X11152572Y-6429526D01*
X11152568Y-6429523D01*
X11046033Y-6358338D01*
X11046024Y-6358333D01*
X10927644Y-6309299D01*
X10927638Y-6309297D01*
X10801971Y-6284300D01*
X10801969Y-6284300D01*
X10673831Y-6284300D01*
X10673829Y-6284300D01*
X10548161Y-6309297D01*
X10548155Y-6309299D01*
X10429775Y-6358333D01*
X10429766Y-6358338D01*
X10323231Y-6429523D01*
X10323227Y-6429526D01*
X10232626Y-6520127D01*
X10232623Y-6520131D01*
X10161438Y-6626666D01*
X10161433Y-6626675D01*
X10112399Y-6745055D01*
X10112397Y-6745061D01*
X10087400Y-6870728D01*
X10087400Y-6870731D01*
X10087400Y-6998869D01*
X10087400Y-6998871D01*
X10087399Y-6998871D01*
X10112397Y-7124538D01*
X10112399Y-7124544D01*
X10161433Y-7242924D01*
X10161438Y-7242933D01*
X10232623Y-7349468D01*
X10232626Y-7349472D01*
X10323227Y-7440073D01*
X10323231Y-7440076D01*
X10429766Y-7511261D01*
X10429775Y-7511266D01*
X10429966Y-7511345D01*
X10548156Y-7560301D01*
X10548160Y-7560301D01*
X10548161Y-7560302D01*
X10673828Y-7585300D01*
X10673831Y-7585300D01*
X10801971Y-7585300D01*
X10886515Y-7568482D01*
X10927644Y-7560301D01*
X11046027Y-7511265D01*
X11152569Y-7440076D01*
X11196025Y-7396620D01*
X11222953Y-7381915D01*
X11248772Y-7365323D01*
X11254971Y-7364431D01*
X11257348Y-7363134D01*
X11283707Y-7360300D01*
X11446190Y-7360300D01*
X11513229Y-7379985D01*
X11533871Y-7396619D01*
X12090708Y-7953456D01*
X12124193Y-8014779D01*
X12119209Y-8084471D01*
X12077337Y-8140404D01*
X12071920Y-8144238D01*
X12054729Y-8155724D01*
X11964126Y-8246327D01*
X11964123Y-8246331D01*
X11892938Y-8352866D01*
X11892933Y-8352875D01*
X11843899Y-8471255D01*
X11843897Y-8471261D01*
X11818900Y-8596928D01*
X11818900Y-8596931D01*
X11818900Y-8725069D01*
X11818900Y-8725071D01*
X11818899Y-8725071D01*
X11843897Y-8850738D01*
X11843899Y-8850744D01*
X11892933Y-8969124D01*
X11892938Y-8969133D01*
X11964123Y-9075668D01*
X11964126Y-9075672D01*
X12007580Y-9119125D01*
X12041066Y-9180448D01*
X12043900Y-9206807D01*
X12043900Y-10320789D01*
X12024215Y-10387828D01*
X12007581Y-10408470D01*
X11610117Y-10805933D01*
X11548794Y-10839418D01*
X11479102Y-10834434D01*
X11423169Y-10792562D01*
X11419334Y-10787143D01*
X11382776Y-10732431D01*
X11382773Y-10732427D01*
X11292172Y-10641826D01*
X11292168Y-10641823D01*
X11185633Y-10570638D01*
X11185624Y-10570633D01*
X11067244Y-10521599D01*
X11067238Y-10521597D01*
X10941571Y-10496600D01*
X10941569Y-10496600D01*
X10813431Y-10496600D01*
X10813429Y-10496600D01*
X10687761Y-10521597D01*
X10687755Y-10521599D01*
X10569375Y-10570633D01*
X10569366Y-10570638D01*
X10462831Y-10641823D01*
X10462827Y-10641826D01*
X10372226Y-10732427D01*
X10372223Y-10732431D01*
X10301038Y-10838966D01*
X10301033Y-10838975D01*
X10251999Y-10957355D01*
X10251997Y-10957361D01*
X10227000Y-11083028D01*
X10227000Y-11083031D01*
X10227000Y-11211169D01*
X10227000Y-11211171D01*
X10226999Y-11211171D01*
X10251997Y-11336838D01*
X10251999Y-11336844D01*
X10301033Y-11455224D01*
X10301038Y-11455233D01*
X10372223Y-11561768D01*
X10372226Y-11561772D01*
X10462827Y-11652373D01*
X10462831Y-11652376D01*
X10517543Y-11688934D01*
X10562348Y-11742546D01*
X10571055Y-11811871D01*
X10540900Y-11874899D01*
X10536333Y-11879717D01*
X9997637Y-12418415D01*
X9918417Y-12497634D01*
X9918413Y-12497640D01*
X9862398Y-12594660D01*
X9862397Y-12594663D01*
X9833400Y-12702882D01*
X9833400Y-14029200D01*
X9813715Y-14096239D01*
X9760911Y-14141994D01*
X9709400Y-14153200D01*
X7451828Y-14153200D01*
X7384789Y-14133515D01*
X7339034Y-14080711D01*
X7329090Y-14011553D01*
X7348725Y-13960311D01*
X7356669Y-13948420D01*
X7356669Y-13948419D01*
X7356675Y-13948411D01*
X7409480Y-13820928D01*
X7428415Y-13725735D01*
X7436400Y-13685595D01*
X7436400Y-13547604D01*
X7409481Y-13412277D01*
X7409480Y-13412276D01*
X7409480Y-13412272D01*
X7396650Y-13381297D01*
X7356678Y-13284795D01*
X7356671Y-13284782D01*
X7280014Y-13170058D01*
X7280011Y-13170054D01*
X7182445Y-13072488D01*
X7182441Y-13072485D01*
X7067717Y-12995828D01*
X7067704Y-12995821D01*
X6940232Y-12943021D01*
X6940222Y-12943018D01*
X6804895Y-12916100D01*
X6804893Y-12916100D01*
X6666907Y-12916100D01*
X6666905Y-12916100D01*
X6531577Y-12943018D01*
X6531567Y-12943021D01*
X6404095Y-12995821D01*
X6404082Y-12995828D01*
X6289358Y-13072485D01*
X6289354Y-13072488D01*
X6191788Y-13170054D01*
X6191785Y-13170058D01*
X6115128Y-13284782D01*
X6115121Y-13284795D01*
X6062321Y-13412267D01*
X6062318Y-13412277D01*
X6035400Y-13547604D01*
X6035400Y-13547607D01*
X6035400Y-13685593D01*
X6035400Y-13685595D01*
X6035399Y-13685595D01*
X6062318Y-13820922D01*
X6062321Y-13820932D01*
X6115121Y-13948404D01*
X6115130Y-13948420D01*
X6123075Y-13960311D01*
X6143952Y-14026988D01*
X6125467Y-14094368D01*
X6073487Y-14141058D01*
X6019972Y-14153200D01*
X5558582Y-14153200D01*
X5450363Y-14182197D01*
X5450360Y-14182198D01*
X5353340Y-14238213D01*
X5353334Y-14238217D01*
X4059517Y-15532034D01*
X4059513Y-15532040D01*
X4003498Y-15629060D01*
X4003497Y-15629061D01*
X3979952Y-15716934D01*
X3943586Y-15776594D01*
X3880739Y-15807123D01*
X3827629Y-15804492D01*
X3819996Y-15802415D01*
X3794865Y-15799500D01*
X3305143Y-15799500D01*
X3305117Y-15799502D01*
X3280014Y-15802413D01*
X3271013Y-15804863D01*
X3270673Y-15803615D01*
X3210799Y-15811453D01*
X3147616Y-15781627D01*
X3142316Y-15776629D01*
X3138050Y-15772363D01*
X3138046Y-15772360D01*
X3025144Y-15714833D01*
X2931486Y-15700000D01*
X2900000Y-15700000D01*
X2900000Y-17299999D01*
X2935100Y-17299999D01*
X3002139Y-17319684D01*
X3047894Y-17372488D01*
X3059100Y-17423999D01*
X3059100Y-17470357D01*
X3097479Y-17613587D01*
X3100023Y-17623083D01*
X3100026Y-17623090D01*
X3179075Y-17760009D01*
X3179081Y-17760017D01*
X3220098Y-17801034D01*
X3253583Y-17862357D01*
X3248599Y-17932049D01*
X3206727Y-17987982D01*
X3156609Y-18010332D01*
X3060261Y-18029497D01*
X3060255Y-18029499D01*
X2941875Y-18078533D01*
X2941866Y-18078538D01*
X2835331Y-18149723D01*
X2835327Y-18149726D01*
X2744726Y-18240327D01*
X2744723Y-18240331D01*
X2673538Y-18346866D01*
X2673533Y-18346875D01*
X2624499Y-18465255D01*
X2624497Y-18465261D01*
X2599500Y-18590928D01*
X2599500Y-18590931D01*
X2599500Y-18719069D01*
X2599500Y-18719071D01*
X2599499Y-18719071D01*
X2624497Y-18844738D01*
X2624499Y-18844744D01*
X2673533Y-18963124D01*
X2673538Y-18963133D01*
X2744723Y-19069668D01*
X2744726Y-19069672D01*
X2835328Y-19160274D01*
X2835331Y-19160276D01*
X2929633Y-19223286D01*
X2974438Y-19276897D01*
X2978905Y-19288791D01*
X3393973Y-20593290D01*
X3395541Y-20663142D01*
X3359096Y-20722753D01*
X3358099Y-20723648D01*
X3350000Y-20730832D01*
X3350000Y-21214602D01*
X3349614Y-21222837D01*
X3349635Y-21222838D01*
X3349500Y-21225723D01*
X3349500Y-21731000D01*
X3346949Y-21739685D01*
X3348238Y-21748647D01*
X3337259Y-21772687D01*
X3329815Y-21798039D01*
X3322974Y-21803966D01*
X3319213Y-21812203D01*
X3296978Y-21826492D01*
X3277011Y-21843794D01*
X3266496Y-21846081D01*
X3260435Y-21849977D01*
X3225500Y-21855000D01*
X3074000Y-21855000D01*
X3006961Y-21835315D01*
X2961206Y-21782511D01*
X2950000Y-21731000D01*
X2950000Y-20730832D01*
X2868557Y-20740613D01*
X2868556Y-20740613D01*
X2727904Y-20796079D01*
X2607435Y-20887435D01*
X2516079Y-21007904D01*
X2460612Y-21148560D01*
X2449660Y-21239764D01*
X2422123Y-21303978D01*
X2366792Y-21342266D01*
X2280000Y-21372048D01*
X2280000Y-21995735D01*
X2264205Y-21979940D01*
X2195796Y-21940444D01*
X2119496Y-21920000D01*
X2040504Y-21920000D01*
X1964204Y-21940444D01*
X1895795Y-21979940D01*
X1880000Y-21995735D01*
X1880000Y-21342149D01*
X1817487Y-21354584D01*
X1817479Y-21354586D01*
X1653692Y-21422428D01*
X1653683Y-21422433D01*
X1506283Y-21520923D01*
X1506279Y-21520926D01*
X1380926Y-21646279D01*
X1380923Y-21646283D01*
X1282433Y-21793683D01*
X1282428Y-21793692D01*
X1214586Y-21957479D01*
X1214584Y-21957487D01*
X1180000Y-22131353D01*
X500000Y-22131353D01*
X500000Y-17423999D01*
X519685Y-17356960D01*
X572489Y-17311205D01*
X593327Y-17306671D01*
X600000Y-17299999D01*
X1000000Y-17299999D01*
X1231479Y-17299999D01*
X1325147Y-17285164D01*
X1368703Y-17262971D01*
X1437372Y-17250074D01*
X1481297Y-17262971D01*
X1524856Y-17285166D01*
X1524855Y-17285166D01*
X1618512Y-17299999D01*
X2050000Y-17299999D01*
X2081479Y-17299999D01*
X2175147Y-17285164D01*
X2218703Y-17262971D01*
X2287372Y-17250074D01*
X2331297Y-17262971D01*
X2374856Y-17285166D01*
X2374855Y-17285166D01*
X2468512Y-17299999D01*
X2500000Y-17299998D01*
X2500000Y-16700000D01*
X2050000Y-16700000D01*
X2050000Y-17299999D01*
X1618512Y-17299999D01*
X1650000Y-17299998D01*
X1650000Y-16700000D01*
X1000000Y-16700000D01*
X1000000Y-17299999D01*
X600000Y-17299999D01*
X600000Y-16300000D01*
X1000000Y-16300000D01*
X1650000Y-16300000D01*
X1650000Y-15700000D01*
X2050000Y-15700000D01*
X2050000Y-16300000D01*
X2500000Y-16300000D01*
X2500000Y-15699999D01*
X2468521Y-15700000D01*
X2374849Y-15714835D01*
X2374846Y-15714836D01*
X2331293Y-15737028D01*
X2262623Y-15749924D01*
X2218705Y-15737028D01*
X2175147Y-15714835D01*
X2175144Y-15714833D01*
X2081486Y-15700000D01*
X2050000Y-15700000D01*
X1650000Y-15700000D01*
X1600000Y-15650000D01*
X1000000Y-15650000D01*
X1000000Y-16300000D01*
X600000Y-16300000D01*
X600000Y-15250000D01*
X1000000Y-15250000D01*
X1599999Y-15250000D01*
X1599999Y-15218520D01*
X1585164Y-15124852D01*
X1562971Y-15081297D01*
X1550074Y-15012628D01*
X1562971Y-14968703D01*
X1585166Y-14925144D01*
X1600000Y-14831486D01*
X1600000Y-14800000D01*
X1000000Y-14800000D01*
X1000000Y-15250000D01*
X600000Y-15250000D01*
X600000Y-14400000D01*
X1000000Y-14400000D01*
X1599999Y-14400000D01*
X1599999Y-14368520D01*
X1585164Y-14274852D01*
X1562971Y-14231297D01*
X1550074Y-14162628D01*
X1562971Y-14118703D01*
X1585166Y-14075144D01*
X1600000Y-13981486D01*
X1600000Y-13950000D01*
X1000000Y-13950000D01*
X1000000Y-14400000D01*
X600000Y-14400000D01*
X600000Y-13550000D01*
X1000000Y-13550000D01*
X1599999Y-13550000D01*
X1599999Y-13518520D01*
X1585164Y-13424852D01*
X1562971Y-13381297D01*
X1550074Y-13312628D01*
X1562971Y-13268703D01*
X1585166Y-13225144D01*
X1600000Y-13131486D01*
X1600000Y-13100000D01*
X1000000Y-13100000D01*
X1000000Y-13550000D01*
X600000Y-13550000D01*
X600000Y-12700000D01*
X1000000Y-12700000D01*
X1599999Y-12700000D01*
X1599999Y-12668520D01*
X1585164Y-12574852D01*
X1562971Y-12531297D01*
X1550074Y-12462628D01*
X1562971Y-12418703D01*
X1585166Y-12375144D01*
X1600000Y-12281486D01*
X1600000Y-12250000D01*
X1000000Y-12250000D01*
X1000000Y-12700000D01*
X600000Y-12700000D01*
X600000Y-11850000D01*
X1000000Y-11850000D01*
X1599999Y-11850000D01*
X1599999Y-11818520D01*
X1585164Y-11724852D01*
X1562971Y-11681297D01*
X1550074Y-11612628D01*
X1562971Y-11568703D01*
X1585166Y-11525144D01*
X1600000Y-11431486D01*
X1600000Y-11400000D01*
X1000000Y-11400000D01*
X1000000Y-11850000D01*
X600000Y-11850000D01*
X600000Y-11000000D01*
X1000000Y-11000000D01*
X1599999Y-11000000D01*
X1599999Y-10968520D01*
X1585164Y-10874852D01*
X1562971Y-10831297D01*
X1550074Y-10762628D01*
X1562971Y-10718703D01*
X1585166Y-10675144D01*
X1600000Y-10581486D01*
X1600000Y-10550000D01*
X1000000Y-10550000D01*
X1000000Y-11000000D01*
X600000Y-11000000D01*
X600000Y-10150000D01*
X1000000Y-10150000D01*
X1599999Y-10150000D01*
X1599999Y-10118520D01*
X1585164Y-10024852D01*
X1562971Y-9981297D01*
X1550074Y-9912628D01*
X1562971Y-9868703D01*
X1585166Y-9825144D01*
X1600000Y-9731486D01*
X1600000Y-9700000D01*
X1000000Y-9700000D01*
X1000000Y-10150000D01*
X600000Y-10150000D01*
X600000Y-9300000D01*
X1000000Y-9300000D01*
X1599999Y-9300000D01*
X1599999Y-9268520D01*
X1585164Y-9174852D01*
X1562971Y-9131297D01*
X1550074Y-9062628D01*
X1562971Y-9018703D01*
X1585166Y-8975144D01*
X1600000Y-8881486D01*
X1600000Y-8850000D01*
X1000000Y-8850000D01*
X1000000Y-9300000D01*
X600000Y-9300000D01*
X600000Y-8450000D01*
X1000000Y-8450000D01*
X1599999Y-8450000D01*
X1599999Y-8418520D01*
X1585164Y-8324852D01*
X1562971Y-8281297D01*
X1550074Y-8212628D01*
X1562971Y-8168703D01*
X1585166Y-8125144D01*
X1600000Y-8031486D01*
X1600000Y-8000000D01*
X1000000Y-8000000D01*
X1000000Y-8450000D01*
X600000Y-8450000D01*
X600000Y-7600000D01*
X1000000Y-7600000D01*
X1599999Y-7600000D01*
X1599999Y-7568520D01*
X1585164Y-7474852D01*
X1562971Y-7431297D01*
X1550074Y-7362628D01*
X1562971Y-7318703D01*
X1585166Y-7275144D01*
X1600000Y-7181486D01*
X1600000Y-7150000D01*
X1000000Y-7150000D01*
X1000000Y-7600000D01*
X600000Y-7600000D01*
X600000Y-7133795D01*
X2319499Y-7133795D01*
X2346418Y-7269122D01*
X2346421Y-7269132D01*
X2399221Y-7396604D01*
X2399228Y-7396617D01*
X2475885Y-7511341D01*
X2475888Y-7511345D01*
X2573454Y-7608911D01*
X2573458Y-7608914D01*
X2688182Y-7685571D01*
X2688195Y-7685578D01*
X2815667Y-7738378D01*
X2815672Y-7738380D01*
X2815676Y-7738380D01*
X2815677Y-7738381D01*
X2951004Y-7765300D01*
X2951007Y-7765300D01*
X3088995Y-7765300D01*
X3180041Y-7747189D01*
X3224328Y-7738380D01*
X3351811Y-7685575D01*
X3466542Y-7608914D01*
X3564114Y-7511342D01*
X3640775Y-7396611D01*
X3693580Y-7269128D01*
X3711524Y-7178918D01*
X3720500Y-7133795D01*
X3720500Y-6995804D01*
X3693581Y-6860477D01*
X3693580Y-6860476D01*
X3693580Y-6860472D01*
X3682871Y-6834617D01*
X3640778Y-6732995D01*
X3640771Y-6732982D01*
X3564114Y-6618258D01*
X3564111Y-6618254D01*
X3466545Y-6520688D01*
X3466541Y-6520685D01*
X3351817Y-6444028D01*
X3351804Y-6444021D01*
X3224332Y-6391221D01*
X3224322Y-6391218D01*
X3088995Y-6364300D01*
X3088993Y-6364300D01*
X2951007Y-6364300D01*
X2951005Y-6364300D01*
X2815677Y-6391218D01*
X2815667Y-6391221D01*
X2688195Y-6444021D01*
X2688182Y-6444028D01*
X2573458Y-6520685D01*
X2573454Y-6520688D01*
X2475888Y-6618254D01*
X2475885Y-6618258D01*
X2399228Y-6732982D01*
X2399221Y-6732995D01*
X2346421Y-6860467D01*
X2346418Y-6860477D01*
X2319500Y-6995804D01*
X2319500Y-6995807D01*
X2319500Y-7133793D01*
X2319500Y-7133795D01*
X2319499Y-7133795D01*
X600000Y-7133795D01*
X600000Y-6750000D01*
X1000000Y-6750000D01*
X1599999Y-6750000D01*
X1599999Y-6718520D01*
X1585164Y-6624852D01*
X1562971Y-6581297D01*
X1550074Y-6512628D01*
X1562971Y-6468703D01*
X1585166Y-6425144D01*
X1600000Y-6331486D01*
X1600000Y-6300000D01*
X1000000Y-6300000D01*
X1000000Y-6750000D01*
X600000Y-6750000D01*
X600000Y-5900000D01*
X1000000Y-5900000D01*
X1599999Y-5900000D01*
X1599999Y-5868520D01*
X1585164Y-5774852D01*
X1562971Y-5731297D01*
X1550074Y-5662628D01*
X1562971Y-5618703D01*
X1585166Y-5575144D01*
X1600000Y-5481486D01*
X1600000Y-5450000D01*
X1000000Y-5450000D01*
X1000000Y-5900000D01*
X600000Y-5900000D01*
X600000Y-5050000D01*
X1000000Y-5050000D01*
X1599999Y-5050000D01*
X1599999Y-5018520D01*
X1585164Y-4924852D01*
X1562971Y-4881297D01*
X1550074Y-4812628D01*
X1562971Y-4768703D01*
X1585166Y-4725144D01*
X1600000Y-4631486D01*
X1600000Y-4600000D01*
X1000000Y-4600000D01*
X1000000Y-5050000D01*
X600000Y-5050000D01*
X600000Y-1700000D01*
X1000000Y-1700000D01*
X1000000Y-4200000D01*
X1599999Y-4200000D01*
X1599999Y-4168520D01*
X1585164Y-4074852D01*
X1562971Y-4031297D01*
X1550074Y-3962628D01*
X1552269Y-3948732D01*
X1602813Y-3715554D01*
X1613431Y-3696073D01*
X1619682Y-3674785D01*
X1629828Y-3665993D01*
X1636253Y-3654206D01*
X1655717Y-3643558D01*
X1672485Y-3629029D01*
X1685771Y-3627118D01*
X1697551Y-3620675D01*
X1719684Y-3622241D01*
X1741643Y-3619084D01*
X1756081Y-3622044D01*
X1793982Y-3632200D01*
X1906018Y-3632200D01*
X2067890Y-3632200D01*
X2134929Y-3651885D01*
X2155571Y-3668519D01*
X3135098Y-4648046D01*
X3168583Y-4709369D01*
X3169035Y-4759916D01*
X3164000Y-4785230D01*
X3164000Y-4785231D01*
X3164000Y-4913369D01*
X3164000Y-4913371D01*
X3163999Y-4913371D01*
X3188997Y-5039038D01*
X3188999Y-5039044D01*
X3238033Y-5157424D01*
X3238038Y-5157433D01*
X3309223Y-5263968D01*
X3309226Y-5263972D01*
X3399827Y-5354573D01*
X3399831Y-5354576D01*
X3506366Y-5425761D01*
X3506372Y-5425764D01*
X3506373Y-5425765D01*
X3624756Y-5474801D01*
X3624760Y-5474801D01*
X3624761Y-5474802D01*
X3750428Y-5499800D01*
X3750431Y-5499800D01*
X3878571Y-5499800D01*
X3970637Y-5481486D01*
X4004244Y-5474801D01*
X4122627Y-5425765D01*
X4229169Y-5354576D01*
X4319776Y-5263969D01*
X4390965Y-5157427D01*
X4440001Y-5039044D01*
X4461865Y-4929131D01*
X4465000Y-4913371D01*
X4465000Y-4785228D01*
X4440002Y-4659561D01*
X4440001Y-4659560D01*
X4440001Y-4659556D01*
X4402074Y-4567992D01*
X4390966Y-4541175D01*
X4390961Y-4541166D01*
X4378886Y-4523095D01*
X7212199Y-4523095D01*
X7239118Y-4658422D01*
X7239121Y-4658432D01*
X7291921Y-4785904D01*
X7291928Y-4785917D01*
X7368585Y-4900641D01*
X7368588Y-4900645D01*
X7466154Y-4998211D01*
X7466158Y-4998214D01*
X7580882Y-5074871D01*
X7580895Y-5074878D01*
X7708367Y-5127678D01*
X7708372Y-5127680D01*
X7708376Y-5127680D01*
X7708377Y-5127681D01*
X7843704Y-5154600D01*
X7843707Y-5154600D01*
X7981695Y-5154600D01*
X8072741Y-5136489D01*
X8117028Y-5127680D01*
X8244511Y-5074875D01*
X8359242Y-4998214D01*
X8456814Y-4900642D01*
X8533475Y-4785911D01*
X8586280Y-4658428D01*
X8608918Y-4544619D01*
X8613200Y-4523095D01*
X8613200Y-4385104D01*
X8586281Y-4249777D01*
X8586280Y-4249776D01*
X8586280Y-4249772D01*
X8558968Y-4183834D01*
X8533478Y-4122295D01*
X8533471Y-4122282D01*
X8456814Y-4007558D01*
X8456811Y-4007554D01*
X8359245Y-3909988D01*
X8359241Y-3909985D01*
X8244517Y-3833328D01*
X8244504Y-3833321D01*
X8117032Y-3780521D01*
X8117022Y-3780518D01*
X7981695Y-3753600D01*
X7981693Y-3753600D01*
X7843707Y-3753600D01*
X7843705Y-3753600D01*
X7708377Y-3780518D01*
X7708367Y-3780521D01*
X7580895Y-3833321D01*
X7580882Y-3833328D01*
X7466158Y-3909985D01*
X7466154Y-3909988D01*
X7368588Y-4007554D01*
X7368585Y-4007558D01*
X7291928Y-4122282D01*
X7291921Y-4122295D01*
X7239121Y-4249767D01*
X7239118Y-4249777D01*
X7212200Y-4385104D01*
X7212200Y-4385107D01*
X7212200Y-4523093D01*
X7212200Y-4523095D01*
X7212199Y-4523095D01*
X4378886Y-4523095D01*
X4328646Y-4447906D01*
X4328645Y-4447904D01*
X4319777Y-4434632D01*
X4319773Y-4434627D01*
X4229172Y-4344026D01*
X4229168Y-4344023D01*
X4122633Y-4272838D01*
X4122624Y-4272833D01*
X4004242Y-4223798D01*
X4004238Y-4223797D01*
X3928915Y-4208814D01*
X3867004Y-4176429D01*
X3865426Y-4174878D01*
X3198682Y-3508134D01*
X3165197Y-3446811D01*
X3170181Y-3377119D01*
X3212053Y-3321186D01*
X3277517Y-3296769D01*
X3305761Y-3297980D01*
X3318513Y-3299999D01*
X3750000Y-3299999D01*
X3781479Y-3299999D01*
X3875147Y-3285164D01*
X3918703Y-3262971D01*
X3987372Y-3250074D01*
X4031297Y-3262971D01*
X4074856Y-3285166D01*
X4074855Y-3285166D01*
X4168512Y-3299999D01*
X4200000Y-3299998D01*
X4200000Y-2700000D01*
X3750000Y-2700000D01*
X3750000Y-3299999D01*
X3318513Y-3299999D01*
X3350000Y-3299998D01*
X3350000Y-1700000D01*
X3750000Y-1700000D01*
X3750000Y-2300000D01*
X4200000Y-2300000D01*
X4200000Y-1699999D01*
X4168521Y-1700000D01*
X4074849Y-1714835D01*
X4074846Y-1714836D01*
X4031293Y-1737028D01*
X3962623Y-1749924D01*
X3918705Y-1737028D01*
X3875147Y-1714835D01*
X3875144Y-1714833D01*
X3781486Y-1700000D01*
X3750000Y-1700000D01*
X3350000Y-1700000D01*
X3350000Y-1699999D01*
X3318521Y-1700000D01*
X3224849Y-1714835D01*
X3224844Y-1714837D01*
X3111956Y-1772357D01*
X3111950Y-1772362D01*
X3107676Y-1776636D01*
X3046350Y-1810116D01*
X2976659Y-1805125D01*
X2970016Y-1802421D01*
X2969991Y-1802415D01*
X2944865Y-1799500D01*
X2455143Y-1799500D01*
X2455117Y-1799502D01*
X2430013Y-1802413D01*
X2325086Y-1848743D01*
X2255807Y-1857814D01*
X2224914Y-1848743D01*
X2222765Y-1847794D01*
X2119991Y-1802415D01*
X2094865Y-1799500D01*
X1605143Y-1799500D01*
X1605117Y-1799502D01*
X1580014Y-1802413D01*
X1571013Y-1804863D01*
X1570673Y-1803615D01*
X1510799Y-1811453D01*
X1447616Y-1781627D01*
X1442316Y-1776629D01*
X1438050Y-1772363D01*
X1438046Y-1772360D01*
X1325144Y-1714833D01*
X1231486Y-1700000D01*
X1000000Y-1700000D01*
X600000Y-1700000D01*
X600000Y-1699999D01*
X590023Y-1690023D01*
X556961Y-1680315D01*
X511206Y-1627511D01*
X500000Y-1576000D01*
X500000Y-624000D01*
X519685Y-556961D01*
X572489Y-511206D01*
X624000Y-500000D01*
X37876000Y-500000D01*
X37943039Y-519685D01*
G37*
G04 #@! TD.AperFunction*
M02*
