G04 #@! TF.GenerationSoftware,KiCad,Pcbnew,10.0.4*
G04 #@! TF.CreationDate,2026-09-02T14:26:12+01:00*
G04 #@! TF.ProjectId,pl60c_dmx_mini,706c3630-635f-4646-9d78-5f6d696e692e,rev?*
G04 #@! TF.SameCoordinates,Original*
G04 #@! TF.FileFunction,Legend,Bot*
G04 #@! TF.FilePolarity,Positive*
%FSLAX46Y46*%
G04 Gerber Fmt 4.6, Leading zero omitted, Abs format (unit mm)*
G04 Created by KiCad (PCBNEW 10.0.4) date 2026-09-02 14:26:12*
%MOMM*%
%LPD*%
G01*
G04 APERTURE LIST*
G04 Aperture macros list*
%AMRoundRect*
0 Rectangle with rounded corners*
0 $1 Rounding radius*
0 $2 $3 $4 $5 $6 $7 $8 $9 X,Y pos of 4 corners*
0 Add a 4 corners polygon primitive as box body*
4,1,4,$2,$3,$4,$5,$6,$7,$8,$9,$2,$3,0*
0 Add four circle primitives for the rounded corners*
1,1,$1+$1,$2,$3*
1,1,$1+$1,$4,$5*
1,1,$1+$1,$6,$7*
1,1,$1+$1,$8,$9*
0 Add four rect primitives between the rounded corners*
20,1,$1+$1,$2,$3,$4,$5,0*
20,1,$1+$1,$4,$5,$6,$7,0*
20,1,$1+$1,$6,$7,$8,$9,0*
20,1,$1+$1,$8,$9,$2,$3,0*%
G04 Aperture macros list end*
%ADD10C,0.120000*%
%ADD11C,1.600000*%
%ADD12C,3.400000*%
%ADD13C,2.900000*%
%ADD14C,0.650000*%
%ADD15O,1.000000X2.100000*%
%ADD16O,1.000000X1.600000*%
%ADD17RoundRect,0.135000X-0.135000X-0.185000X0.135000X-0.185000X0.135000X0.185000X-0.135000X0.185000X0*%
%ADD18RoundRect,0.150000X0.150000X-0.587500X0.150000X0.587500X-0.150000X0.587500X-0.150000X-0.587500X0*%
%ADD19RoundRect,0.225000X-0.225000X-0.250000X0.225000X-0.250000X0.225000X0.250000X-0.225000X0.250000X0*%
%ADD20RoundRect,0.140000X-0.140000X-0.170000X0.140000X-0.170000X0.140000X0.170000X-0.140000X0.170000X0*%
%ADD21R,1.500000X1.500000*%
%ADD22RoundRect,0.225000X-0.225000X-0.375000X0.225000X-0.375000X0.225000X0.375000X-0.225000X0.375000X0*%
%ADD23RoundRect,0.150000X-0.512500X-0.150000X0.512500X-0.150000X0.512500X0.150000X-0.512500X0.150000X0*%
%ADD24RoundRect,0.243750X-0.243750X-0.456250X0.243750X-0.456250X0.243750X0.456250X-0.243750X0.456250X0*%
%ADD25RoundRect,0.150000X-0.587500X-0.150000X0.587500X-0.150000X0.587500X0.150000X-0.587500X0.150000X0*%
%ADD26RoundRect,0.150000X0.150000X-0.825000X0.150000X0.825000X-0.150000X0.825000X-0.150000X-0.825000X0*%
%ADD27RoundRect,0.225000X0.250000X-0.225000X0.250000X0.225000X-0.250000X0.225000X-0.250000X-0.225000X0*%
G04 APERTURE END LIST*
D10*
X6900000Y-16844807D02*
X6785714Y-16882902D01*
X6785714Y-16882902D02*
X6747619Y-16920998D01*
X6747619Y-16920998D02*
X6709523Y-16997188D01*
X6709523Y-16997188D02*
X6709523Y-17111474D01*
X6709523Y-17111474D02*
X6747619Y-17187664D01*
X6747619Y-17187664D02*
X6785714Y-17225760D01*
X6785714Y-17225760D02*
X6861904Y-17263855D01*
X6861904Y-17263855D02*
X7166666Y-17263855D01*
X7166666Y-17263855D02*
X7166666Y-16463855D01*
X7166666Y-16463855D02*
X6900000Y-16463855D01*
X6900000Y-16463855D02*
X6823809Y-16501950D01*
X6823809Y-16501950D02*
X6785714Y-16540045D01*
X6785714Y-16540045D02*
X6747619Y-16616236D01*
X6747619Y-16616236D02*
X6747619Y-16692426D01*
X6747619Y-16692426D02*
X6785714Y-16768617D01*
X6785714Y-16768617D02*
X6823809Y-16806712D01*
X6823809Y-16806712D02*
X6900000Y-16844807D01*
X6900000Y-16844807D02*
X7166666Y-16844807D01*
X6442857Y-16463855D02*
X5909523Y-16463855D01*
X5909523Y-16463855D02*
X6442857Y-17263855D01*
X6442857Y-17263855D02*
X5909523Y-17263855D01*
X5604761Y-16959093D02*
X4995238Y-16959093D01*
X3738095Y-16844807D02*
X3623809Y-16882902D01*
X3623809Y-16882902D02*
X3585714Y-16920998D01*
X3585714Y-16920998D02*
X3547618Y-16997188D01*
X3547618Y-16997188D02*
X3547618Y-17111474D01*
X3547618Y-17111474D02*
X3585714Y-17187664D01*
X3585714Y-17187664D02*
X3623809Y-17225760D01*
X3623809Y-17225760D02*
X3699999Y-17263855D01*
X3699999Y-17263855D02*
X4004761Y-17263855D01*
X4004761Y-17263855D02*
X4004761Y-16463855D01*
X4004761Y-16463855D02*
X3738095Y-16463855D01*
X3738095Y-16463855D02*
X3661904Y-16501950D01*
X3661904Y-16501950D02*
X3623809Y-16540045D01*
X3623809Y-16540045D02*
X3585714Y-16616236D01*
X3585714Y-16616236D02*
X3585714Y-16692426D01*
X3585714Y-16692426D02*
X3623809Y-16768617D01*
X3623809Y-16768617D02*
X3661904Y-16806712D01*
X3661904Y-16806712D02*
X3738095Y-16844807D01*
X3738095Y-16844807D02*
X4004761Y-16844807D01*
X3280952Y-16463855D02*
X2747618Y-16463855D01*
X2747618Y-16463855D02*
X3280952Y-17263855D01*
X3280952Y-17263855D02*
X2747618Y-17263855D01*
X2442856Y-16959093D02*
X1833333Y-16959093D01*
X2138094Y-17263855D02*
X2138094Y-16654331D01*
X27995237Y-3363855D02*
X27995237Y-2563855D01*
X27995237Y-2563855D02*
X27804761Y-2563855D01*
X27804761Y-2563855D02*
X27690475Y-2601950D01*
X27690475Y-2601950D02*
X27614285Y-2678140D01*
X27614285Y-2678140D02*
X27576190Y-2754331D01*
X27576190Y-2754331D02*
X27538094Y-2906712D01*
X27538094Y-2906712D02*
X27538094Y-3020998D01*
X27538094Y-3020998D02*
X27576190Y-3173379D01*
X27576190Y-3173379D02*
X27614285Y-3249569D01*
X27614285Y-3249569D02*
X27690475Y-3325760D01*
X27690475Y-3325760D02*
X27804761Y-3363855D01*
X27804761Y-3363855D02*
X27995237Y-3363855D01*
X27195237Y-3363855D02*
X27195237Y-2563855D01*
X27195237Y-2563855D02*
X26928571Y-3135283D01*
X26928571Y-3135283D02*
X26661904Y-2563855D01*
X26661904Y-2563855D02*
X26661904Y-3363855D01*
X26357142Y-2563855D02*
X25823808Y-3363855D01*
X25823808Y-2563855D02*
X26357142Y-3363855D01*
X24757141Y-2563855D02*
X24604760Y-2563855D01*
X24604760Y-2563855D02*
X24528570Y-2601950D01*
X24528570Y-2601950D02*
X24452379Y-2678140D01*
X24452379Y-2678140D02*
X24414284Y-2830521D01*
X24414284Y-2830521D02*
X24414284Y-3097188D01*
X24414284Y-3097188D02*
X24452379Y-3249569D01*
X24452379Y-3249569D02*
X24528570Y-3325760D01*
X24528570Y-3325760D02*
X24604760Y-3363855D01*
X24604760Y-3363855D02*
X24757141Y-3363855D01*
X24757141Y-3363855D02*
X24833332Y-3325760D01*
X24833332Y-3325760D02*
X24909522Y-3249569D01*
X24909522Y-3249569D02*
X24947618Y-3097188D01*
X24947618Y-3097188D02*
X24947618Y-2830521D01*
X24947618Y-2830521D02*
X24909522Y-2678140D01*
X24909522Y-2678140D02*
X24833332Y-2601950D01*
X24833332Y-2601950D02*
X24757141Y-2563855D01*
X24071427Y-2563855D02*
X24071427Y-3211474D01*
X24071427Y-3211474D02*
X24033332Y-3287664D01*
X24033332Y-3287664D02*
X23995237Y-3325760D01*
X23995237Y-3325760D02*
X23919046Y-3363855D01*
X23919046Y-3363855D02*
X23766665Y-3363855D01*
X23766665Y-3363855D02*
X23690475Y-3325760D01*
X23690475Y-3325760D02*
X23652380Y-3287664D01*
X23652380Y-3287664D02*
X23614284Y-3211474D01*
X23614284Y-3211474D02*
X23614284Y-2563855D01*
X23347618Y-2563855D02*
X22890475Y-2563855D01*
X23119047Y-3363855D02*
X23119047Y-2563855D01*
X36476190Y-14863855D02*
X36476190Y-14063855D01*
X36476190Y-14063855D02*
X36285714Y-14063855D01*
X36285714Y-14063855D02*
X36171428Y-14101950D01*
X36171428Y-14101950D02*
X36095238Y-14178140D01*
X36095238Y-14178140D02*
X36057143Y-14254331D01*
X36057143Y-14254331D02*
X36019047Y-14406712D01*
X36019047Y-14406712D02*
X36019047Y-14520998D01*
X36019047Y-14520998D02*
X36057143Y-14673379D01*
X36057143Y-14673379D02*
X36095238Y-14749569D01*
X36095238Y-14749569D02*
X36171428Y-14825760D01*
X36171428Y-14825760D02*
X36285714Y-14863855D01*
X36285714Y-14863855D02*
X36476190Y-14863855D01*
X35676190Y-14863855D02*
X35676190Y-14063855D01*
X35676190Y-14063855D02*
X35409524Y-14635283D01*
X35409524Y-14635283D02*
X35142857Y-14063855D01*
X35142857Y-14063855D02*
X35142857Y-14863855D01*
X34838095Y-14063855D02*
X34304761Y-14863855D01*
X34304761Y-14063855D02*
X34838095Y-14863855D01*
X33390475Y-14863855D02*
X33390475Y-14330521D01*
X33390475Y-14406712D02*
X33352380Y-14368617D01*
X33352380Y-14368617D02*
X33276190Y-14330521D01*
X33276190Y-14330521D02*
X33161904Y-14330521D01*
X33161904Y-14330521D02*
X33085713Y-14368617D01*
X33085713Y-14368617D02*
X33047618Y-14444807D01*
X33047618Y-14444807D02*
X33047618Y-14863855D01*
X33047618Y-14444807D02*
X33009523Y-14368617D01*
X33009523Y-14368617D02*
X32933332Y-14330521D01*
X32933332Y-14330521D02*
X32819047Y-14330521D01*
X32819047Y-14330521D02*
X32742856Y-14368617D01*
X32742856Y-14368617D02*
X32704761Y-14444807D01*
X32704761Y-14444807D02*
X32704761Y-14863855D01*
X32323808Y-14863855D02*
X32323808Y-14330521D01*
X32323808Y-14063855D02*
X32361904Y-14101950D01*
X32361904Y-14101950D02*
X32323808Y-14140045D01*
X32323808Y-14140045D02*
X32285713Y-14101950D01*
X32285713Y-14101950D02*
X32323808Y-14063855D01*
X32323808Y-14063855D02*
X32323808Y-14140045D01*
X31942856Y-14330521D02*
X31942856Y-14863855D01*
X31942856Y-14406712D02*
X31904761Y-14368617D01*
X31904761Y-14368617D02*
X31828571Y-14330521D01*
X31828571Y-14330521D02*
X31714285Y-14330521D01*
X31714285Y-14330521D02*
X31638094Y-14368617D01*
X31638094Y-14368617D02*
X31599999Y-14444807D01*
X31599999Y-14444807D02*
X31599999Y-14863855D01*
X31219046Y-14863855D02*
X31219046Y-14330521D01*
X31219046Y-14063855D02*
X31257142Y-14101950D01*
X31257142Y-14101950D02*
X31219046Y-14140045D01*
X31219046Y-14140045D02*
X31180951Y-14101950D01*
X31180951Y-14101950D02*
X31219046Y-14063855D01*
X31219046Y-14063855D02*
X31219046Y-14140045D01*
X30228570Y-14863855D02*
X30228570Y-14330521D01*
X30228570Y-14482902D02*
X30190475Y-14406712D01*
X30190475Y-14406712D02*
X30152380Y-14368617D01*
X30152380Y-14368617D02*
X30076189Y-14330521D01*
X30076189Y-14330521D02*
X29999999Y-14330521D01*
X29428570Y-14825760D02*
X29504761Y-14863855D01*
X29504761Y-14863855D02*
X29657142Y-14863855D01*
X29657142Y-14863855D02*
X29733332Y-14825760D01*
X29733332Y-14825760D02*
X29771428Y-14749569D01*
X29771428Y-14749569D02*
X29771428Y-14444807D01*
X29771428Y-14444807D02*
X29733332Y-14368617D01*
X29733332Y-14368617D02*
X29657142Y-14330521D01*
X29657142Y-14330521D02*
X29504761Y-14330521D01*
X29504761Y-14330521D02*
X29428570Y-14368617D01*
X29428570Y-14368617D02*
X29390475Y-14444807D01*
X29390475Y-14444807D02*
X29390475Y-14520998D01*
X29390475Y-14520998D02*
X29771428Y-14597188D01*
X29123809Y-14330521D02*
X28933333Y-14863855D01*
X28933333Y-14863855D02*
X28742856Y-14330521D01*
X27866666Y-14635283D02*
X27485713Y-14635283D01*
X27942856Y-14863855D02*
X27676189Y-14063855D01*
X27676189Y-14063855D02*
X27409523Y-14863855D01*
X37852381Y-23063855D02*
X37357143Y-23063855D01*
X37357143Y-23063855D02*
X37623809Y-23368617D01*
X37623809Y-23368617D02*
X37509524Y-23368617D01*
X37509524Y-23368617D02*
X37433333Y-23406712D01*
X37433333Y-23406712D02*
X37395238Y-23444807D01*
X37395238Y-23444807D02*
X37357143Y-23520998D01*
X37357143Y-23520998D02*
X37357143Y-23711474D01*
X37357143Y-23711474D02*
X37395238Y-23787664D01*
X37395238Y-23787664D02*
X37433333Y-23825760D01*
X37433333Y-23825760D02*
X37509524Y-23863855D01*
X37509524Y-23863855D02*
X37738095Y-23863855D01*
X37738095Y-23863855D02*
X37814286Y-23825760D01*
X37814286Y-23825760D02*
X37852381Y-23787664D01*
X37128571Y-23063855D02*
X36861904Y-23863855D01*
X36861904Y-23863855D02*
X36595238Y-23063855D01*
X36404762Y-23063855D02*
X35909524Y-23063855D01*
X35909524Y-23063855D02*
X36176190Y-23368617D01*
X36176190Y-23368617D02*
X36061905Y-23368617D01*
X36061905Y-23368617D02*
X35985714Y-23406712D01*
X35985714Y-23406712D02*
X35947619Y-23444807D01*
X35947619Y-23444807D02*
X35909524Y-23520998D01*
X35909524Y-23520998D02*
X35909524Y-23711474D01*
X35909524Y-23711474D02*
X35947619Y-23787664D01*
X35947619Y-23787664D02*
X35985714Y-23825760D01*
X35985714Y-23825760D02*
X36061905Y-23863855D01*
X36061905Y-23863855D02*
X36290476Y-23863855D01*
X36290476Y-23863855D02*
X36366667Y-23825760D01*
X36366667Y-23825760D02*
X36404762Y-23787664D01*
X34538095Y-23101950D02*
X34614285Y-23063855D01*
X34614285Y-23063855D02*
X34728571Y-23063855D01*
X34728571Y-23063855D02*
X34842857Y-23101950D01*
X34842857Y-23101950D02*
X34919047Y-23178140D01*
X34919047Y-23178140D02*
X34957142Y-23254331D01*
X34957142Y-23254331D02*
X34995238Y-23406712D01*
X34995238Y-23406712D02*
X34995238Y-23520998D01*
X34995238Y-23520998D02*
X34957142Y-23673379D01*
X34957142Y-23673379D02*
X34919047Y-23749569D01*
X34919047Y-23749569D02*
X34842857Y-23825760D01*
X34842857Y-23825760D02*
X34728571Y-23863855D01*
X34728571Y-23863855D02*
X34652380Y-23863855D01*
X34652380Y-23863855D02*
X34538095Y-23825760D01*
X34538095Y-23825760D02*
X34499999Y-23787664D01*
X34499999Y-23787664D02*
X34499999Y-23520998D01*
X34499999Y-23520998D02*
X34652380Y-23520998D01*
X34157142Y-23863855D02*
X34157142Y-23063855D01*
X34157142Y-23063855D02*
X33699999Y-23863855D01*
X33699999Y-23863855D02*
X33699999Y-23063855D01*
X33319047Y-23863855D02*
X33319047Y-23063855D01*
X33319047Y-23063855D02*
X33128571Y-23063855D01*
X33128571Y-23063855D02*
X33014285Y-23101950D01*
X33014285Y-23101950D02*
X32938095Y-23178140D01*
X32938095Y-23178140D02*
X32900000Y-23254331D01*
X32900000Y-23254331D02*
X32861904Y-23406712D01*
X32861904Y-23406712D02*
X32861904Y-23520998D01*
X32861904Y-23520998D02*
X32900000Y-23673379D01*
X32900000Y-23673379D02*
X32938095Y-23749569D01*
X32938095Y-23749569D02*
X33014285Y-23825760D01*
X33014285Y-23825760D02*
X33128571Y-23863855D01*
X33128571Y-23863855D02*
X33319047Y-23863855D01*
X31947619Y-23825760D02*
X31833333Y-23863855D01*
X31833333Y-23863855D02*
X31642857Y-23863855D01*
X31642857Y-23863855D02*
X31566666Y-23825760D01*
X31566666Y-23825760D02*
X31528571Y-23787664D01*
X31528571Y-23787664D02*
X31490476Y-23711474D01*
X31490476Y-23711474D02*
X31490476Y-23635283D01*
X31490476Y-23635283D02*
X31528571Y-23559093D01*
X31528571Y-23559093D02*
X31566666Y-23520998D01*
X31566666Y-23520998D02*
X31642857Y-23482902D01*
X31642857Y-23482902D02*
X31795238Y-23444807D01*
X31795238Y-23444807D02*
X31871428Y-23406712D01*
X31871428Y-23406712D02*
X31909523Y-23368617D01*
X31909523Y-23368617D02*
X31947619Y-23292426D01*
X31947619Y-23292426D02*
X31947619Y-23216236D01*
X31947619Y-23216236D02*
X31909523Y-23140045D01*
X31909523Y-23140045D02*
X31871428Y-23101950D01*
X31871428Y-23101950D02*
X31795238Y-23063855D01*
X31795238Y-23063855D02*
X31604761Y-23063855D01*
X31604761Y-23063855D02*
X31490476Y-23101950D01*
X31147618Y-23863855D02*
X31147618Y-23063855D01*
X31147618Y-23063855D02*
X30957142Y-23063855D01*
X30957142Y-23063855D02*
X30842856Y-23101950D01*
X30842856Y-23101950D02*
X30766666Y-23178140D01*
X30766666Y-23178140D02*
X30728571Y-23254331D01*
X30728571Y-23254331D02*
X30690475Y-23406712D01*
X30690475Y-23406712D02*
X30690475Y-23520998D01*
X30690475Y-23520998D02*
X30728571Y-23673379D01*
X30728571Y-23673379D02*
X30766666Y-23749569D01*
X30766666Y-23749569D02*
X30842856Y-23825760D01*
X30842856Y-23825760D02*
X30957142Y-23863855D01*
X30957142Y-23863855D02*
X31147618Y-23863855D01*
X30385714Y-23635283D02*
X30004761Y-23635283D01*
X30461904Y-23863855D02*
X30195237Y-23063855D01*
X30195237Y-23063855D02*
X29928571Y-23863855D01*
X29090476Y-23825760D02*
X28976190Y-23863855D01*
X28976190Y-23863855D02*
X28785714Y-23863855D01*
X28785714Y-23863855D02*
X28709523Y-23825760D01*
X28709523Y-23825760D02*
X28671428Y-23787664D01*
X28671428Y-23787664D02*
X28633333Y-23711474D01*
X28633333Y-23711474D02*
X28633333Y-23635283D01*
X28633333Y-23635283D02*
X28671428Y-23559093D01*
X28671428Y-23559093D02*
X28709523Y-23520998D01*
X28709523Y-23520998D02*
X28785714Y-23482902D01*
X28785714Y-23482902D02*
X28938095Y-23444807D01*
X28938095Y-23444807D02*
X29014285Y-23406712D01*
X29014285Y-23406712D02*
X29052380Y-23368617D01*
X29052380Y-23368617D02*
X29090476Y-23292426D01*
X29090476Y-23292426D02*
X29090476Y-23216236D01*
X29090476Y-23216236D02*
X29052380Y-23140045D01*
X29052380Y-23140045D02*
X29014285Y-23101950D01*
X29014285Y-23101950D02*
X28938095Y-23063855D01*
X28938095Y-23063855D02*
X28747618Y-23063855D01*
X28747618Y-23063855D02*
X28633333Y-23101950D01*
X27833332Y-23787664D02*
X27871428Y-23825760D01*
X27871428Y-23825760D02*
X27985713Y-23863855D01*
X27985713Y-23863855D02*
X28061904Y-23863855D01*
X28061904Y-23863855D02*
X28176190Y-23825760D01*
X28176190Y-23825760D02*
X28252380Y-23749569D01*
X28252380Y-23749569D02*
X28290475Y-23673379D01*
X28290475Y-23673379D02*
X28328571Y-23520998D01*
X28328571Y-23520998D02*
X28328571Y-23406712D01*
X28328571Y-23406712D02*
X28290475Y-23254331D01*
X28290475Y-23254331D02*
X28252380Y-23178140D01*
X28252380Y-23178140D02*
X28176190Y-23101950D01*
X28176190Y-23101950D02*
X28061904Y-23063855D01*
X28061904Y-23063855D02*
X27985713Y-23063855D01*
X27985713Y-23063855D02*
X27871428Y-23101950D01*
X27871428Y-23101950D02*
X27833332Y-23140045D01*
X27109523Y-23863855D02*
X27490475Y-23863855D01*
X27490475Y-23863855D02*
X27490475Y-23063855D01*
X11146359Y-11620000D02*
X11453641Y-11620000D01*
X11146359Y-12380000D02*
X11453641Y-12380000D01*
X14546359Y-14120000D02*
X14853641Y-14120000D01*
X14546359Y-14880000D02*
X14853641Y-14880000D01*
X3246359Y-27820000D02*
X3553641Y-27820000D01*
X3246359Y-28580000D02*
X3553641Y-28580000D01*
X18446359Y-14020000D02*
X18753641Y-14020000D01*
X18446359Y-14780000D02*
X18753641Y-14780000D01*
X16340000Y-18640000D02*
X16340000Y-20160000D01*
X16340000Y-20160000D02*
X16390000Y-20160000D01*
X17340000Y-18640000D02*
X16340000Y-18640000D01*
X17510000Y-20160000D02*
X18290000Y-20160000D01*
X19410000Y-20160000D02*
X19460000Y-20160000D01*
X19460000Y-18640000D02*
X18460000Y-18640000D01*
X19460000Y-20160000D02*
X19460000Y-18640000D01*
X18280000Y-20700000D02*
X17950000Y-20460000D01*
X17950000Y-20940000D01*
X18280000Y-20700000D01*
G36*
X18280000Y-20700000D02*
G01*
X17950000Y-20940000D01*
X17950000Y-20460000D01*
X18280000Y-20700000D01*
G37*
X12359420Y-2490000D02*
X12640580Y-2490000D01*
X12359420Y-3510000D02*
X12640580Y-3510000D01*
X16892164Y-24940000D02*
X17107836Y-24940000D01*
X16892164Y-25660000D02*
X17107836Y-25660000D01*
X3392164Y-11640000D02*
X3607836Y-11640000D01*
X3392164Y-12360000D02*
X3607836Y-12360000D01*
X30250000Y-24550000D02*
X30250000Y-26450000D01*
X30250000Y-26450000D02*
X32150000Y-26450000D01*
X32150000Y-24550000D02*
X30250000Y-24550000D01*
X32150000Y-26450000D02*
X32150000Y-24550000D01*
X14359420Y-24790000D02*
X14640580Y-24790000D01*
X14359420Y-25810000D02*
X14640580Y-25810000D01*
X6140000Y-3500000D02*
X10150000Y-3500000D01*
X6140000Y-5500000D02*
X6140000Y-3500000D01*
X6140000Y-5500000D02*
X10150000Y-5500000D01*
X5846359Y-2120000D02*
X6153641Y-2120000D01*
X5846359Y-2880000D02*
X6153641Y-2880000D01*
X3392164Y-7640000D02*
X3607836Y-7640000D01*
X3392164Y-8360000D02*
X3607836Y-8360000D01*
X5490000Y-25440000D02*
X5490000Y-25490000D01*
X5490000Y-28510000D02*
X5490000Y-28560000D01*
X5490000Y-28560000D02*
X7310000Y-28560000D01*
X7310000Y-25440000D02*
X5490000Y-25440000D01*
X7310000Y-25490000D02*
X7310000Y-25440000D01*
X7310000Y-28560000D02*
X7310000Y-28510000D01*
X4950000Y-28510000D02*
X4710000Y-28840000D01*
X5190000Y-28840000D01*
X4950000Y-28510000D01*
G36*
X5190000Y-28840000D02*
G01*
X4710000Y-28840000D01*
X4950000Y-28510000D01*
X5190000Y-28840000D01*
G37*
X9246359Y-27820000D02*
X9553641Y-27820000D01*
X9246359Y-28580000D02*
X9553641Y-28580000D01*
X12890000Y-20940000D02*
X12890000Y-20990000D01*
X12890000Y-24010000D02*
X12890000Y-24060000D01*
X12890000Y-24060000D02*
X14710000Y-24060000D01*
X14710000Y-20940000D02*
X12890000Y-20940000D01*
X14710000Y-20990000D02*
X14710000Y-20940000D01*
X14710000Y-22890000D02*
X14710000Y-22110000D01*
X14710000Y-24060000D02*
X14710000Y-24010000D01*
X12350000Y-24010000D02*
X12110000Y-24340000D01*
X12590000Y-24340000D01*
X12350000Y-24010000D01*
G36*
X12590000Y-24340000D02*
G01*
X12110000Y-24340000D01*
X12350000Y-24010000D01*
X12590000Y-24340000D01*
G37*
X11146359Y-9620000D02*
X11453641Y-9620000D01*
X11146359Y-10380000D02*
X11453641Y-10380000D01*
X11146359Y-7620000D02*
X11453641Y-7620000D01*
X11146359Y-8380000D02*
X11453641Y-8380000D01*
X27550000Y-24550000D02*
X27550000Y-26450000D01*
X27550000Y-26450000D02*
X29450000Y-26450000D01*
X29450000Y-24550000D02*
X27550000Y-24550000D01*
X29450000Y-26450000D02*
X29450000Y-24550000D01*
X32950000Y-24550000D02*
X32950000Y-26450000D01*
X32950000Y-26450000D02*
X34850000Y-26450000D01*
X34850000Y-24550000D02*
X32950000Y-24550000D01*
X34850000Y-26450000D02*
X34850000Y-24550000D01*
X2050000Y-14050000D02*
X2050000Y-15950000D01*
X2050000Y-15950000D02*
X3950000Y-15950000D01*
X3950000Y-14050000D02*
X2050000Y-14050000D01*
X3950000Y-15950000D02*
X3950000Y-14050000D01*
X9392164Y-13140000D02*
X9607836Y-13140000D01*
X9392164Y-13860000D02*
X9607836Y-13860000D01*
X14392164Y-4640000D02*
X14607836Y-4640000D01*
X14392164Y-5360000D02*
X14607836Y-5360000D01*
X13341422Y-17790000D02*
X13858578Y-17790000D01*
X13341422Y-19210000D02*
X13858578Y-19210000D01*
X5050000Y-14050000D02*
X5050000Y-15950000D01*
X5050000Y-15950000D02*
X6950000Y-15950000D01*
X6950000Y-14050000D02*
X5050000Y-14050000D01*
X6950000Y-15950000D02*
X6950000Y-14050000D01*
X3346359Y-9620000D02*
X3653641Y-9620000D01*
X3346359Y-10380000D02*
X3653641Y-10380000D01*
X2240000Y-2440000D02*
X2240000Y-2490000D01*
X2240000Y-3610000D02*
X2240000Y-4390000D01*
X2240000Y-5510000D02*
X2240000Y-5560000D01*
X2240000Y-5560000D02*
X3760000Y-5560000D01*
X3760000Y-2440000D02*
X2240000Y-2440000D01*
X3760000Y-3440000D02*
X3760000Y-2440000D01*
X3760000Y-5560000D02*
X3760000Y-4560000D01*
X1700000Y-4380000D02*
X1940000Y-4050000D01*
X1460000Y-4050000D01*
X1700000Y-4380000D01*
G36*
X1700000Y-4380000D02*
G01*
X1460000Y-4050000D01*
X1940000Y-4050000D01*
X1700000Y-4380000D01*
G37*
X12640000Y-7740000D02*
X12640000Y-11860000D01*
X12640000Y-11860000D02*
X12735000Y-11860000D01*
X12735000Y-7740000D02*
X12640000Y-7740000D01*
X17665000Y-11860000D02*
X17760000Y-11860000D01*
X17760000Y-7740000D02*
X17665000Y-7740000D01*
X17760000Y-11860000D02*
X17760000Y-7740000D01*
X17670000Y-12400000D02*
X18000000Y-12640000D01*
X18000000Y-12160000D01*
X17670000Y-12400000D01*
G36*
X18000000Y-12640000D02*
G01*
X17670000Y-12400000D01*
X18000000Y-12160000D01*
X18000000Y-12640000D01*
G37*
X10090000Y-18540580D02*
X10090000Y-18259420D01*
X11110000Y-18540580D02*
X11110000Y-18259420D01*
X35650000Y-24550000D02*
X35650000Y-26450000D01*
X35650000Y-26450000D02*
X37550000Y-26450000D01*
X37550000Y-24550000D02*
X35650000Y-24550000D01*
X37550000Y-26450000D02*
X37550000Y-24550000D01*
%LPC*%
D11*
X29610000Y-17920000D03*
X34690000Y-10300000D03*
D12*
X21350000Y-10300000D03*
D13*
X25165000Y-14110000D03*
X21350000Y-14110000D03*
X25165000Y-21090000D03*
D12*
X21350000Y-17920000D03*
D13*
X31520000Y-5860000D03*
D14*
X3510000Y-23300000D03*
X9290000Y-23300000D03*
D15*
X2080000Y-22770000D03*
D16*
X2080000Y-26950000D03*
D15*
X10720000Y-22770000D03*
D16*
X10720000Y-26950000D03*
D17*
X10790000Y-12000000D03*
X11810000Y-12000000D03*
X14190000Y-14500000D03*
X15210000Y-14500000D03*
X2890000Y-28200000D03*
X3910000Y-28200000D03*
X18090000Y-14400000D03*
X19110000Y-14400000D03*
D18*
X18850000Y-20337500D03*
X16950000Y-20337500D03*
X17900000Y-18462500D03*
D19*
X11725000Y-3000000D03*
X13275000Y-3000000D03*
D20*
X16520000Y-25300000D03*
X17480000Y-25300000D03*
X3020000Y-12000000D03*
X3980000Y-12000000D03*
D21*
X31200000Y-25500000D03*
D19*
X13725000Y-25300000D03*
X15275000Y-25300000D03*
D22*
X6850000Y-4500000D03*
X10150000Y-4500000D03*
D17*
X5490000Y-2500000D03*
X6510000Y-2500000D03*
D20*
X3020000Y-8000000D03*
X3980000Y-8000000D03*
D23*
X5262500Y-27950000D03*
X5262500Y-27000000D03*
X5262500Y-26050000D03*
X7537500Y-26050000D03*
X7537500Y-27000000D03*
X7537500Y-27950000D03*
D17*
X8890000Y-28200000D03*
X9910000Y-28200000D03*
D23*
X12662500Y-23450000D03*
X12662500Y-22500000D03*
X12662500Y-21550000D03*
X14937500Y-21550000D03*
X14937500Y-23450000D03*
D17*
X10790000Y-10000000D03*
X11810000Y-10000000D03*
X10790000Y-8000000D03*
X11810000Y-8000000D03*
D21*
X28500000Y-25500000D03*
X33900000Y-25500000D03*
X3000000Y-15000000D03*
D20*
X9020000Y-13500000D03*
X9980000Y-13500000D03*
X14020000Y-5000000D03*
X14980000Y-5000000D03*
D24*
X12662500Y-18500000D03*
X14537500Y-18500000D03*
D21*
X6000000Y-15000000D03*
D17*
X2990000Y-10000000D03*
X4010000Y-10000000D03*
D25*
X2062500Y-4950000D03*
X2062500Y-3050000D03*
X3937500Y-4000000D03*
D26*
X17105000Y-12275000D03*
X15835000Y-12275000D03*
X14565000Y-12275000D03*
X13295000Y-12275000D03*
X13295000Y-7325000D03*
X14565000Y-7325000D03*
X15835000Y-7325000D03*
X17105000Y-7325000D03*
D27*
X10600000Y-19175000D03*
X10600000Y-17625000D03*
D21*
X36600000Y-25500000D03*
%LPD*%
M02*
