G04 #@! TF.GenerationSoftware,KiCad,Pcbnew,10.0.4*
G04 #@! TF.CreationDate,2026-09-02T14:52:57+01:00*
G04 #@! TF.ProjectId,pl60c_dmx_mini,706c3630-635f-4646-9d78-5f6d696e692e,rev?*
G04 #@! TF.SameCoordinates,Original*
G04 #@! TF.FileFunction,Copper,L4,Bot*
G04 #@! TF.FilePolarity,Positive*
%FSLAX46Y46*%
G04 Gerber Fmt 4.6, Leading zero omitted, Abs format (unit mm)*
G04 Created by KiCad (PCBNEW 10.0.4) date 2026-09-02 14:52:57*
%MOMM*%
%LPD*%
G01*
G04 APERTURE LIST*
G04 Aperture macros list*
%AMRoundRect*
0 Rectangle with rounded corners*
0 $1 Rounding radius*
0 $2 $3 $4 $5 $6 $7 $8 $9 X,Y pos of 4 corners*
0 Add a 4 corners polygon primitive as box body*
4,1,4,$2,$3,$4,$5,$6,$7,$8,$9,$2,$3,0*
0 Add four circle primitives for the rounded corners*
1,1,$1+$1,$2,$3*
1,1,$1+$1,$4,$5*
1,1,$1+$1,$6,$7*
1,1,$1+$1,$8,$9*
0 Add four rect primitives between the rounded corners*
20,1,$1+$1,$2,$3,$4,$5,0*
20,1,$1+$1,$4,$5,$6,$7,0*
20,1,$1+$1,$6,$7,$8,$9,0*
20,1,$1+$1,$8,$9,$2,$3,0*%
G04 Aperture macros list end*
G04 #@! TA.AperFunction,ComponentPad*
%ADD10C,3.400000*%
G04 #@! TD*
G04 #@! TA.AperFunction,ComponentPad*
%ADD11C,2.900000*%
G04 #@! TD*
G04 #@! TA.AperFunction,ComponentPad*
%ADD12O,1.000000X2.100000*%
G04 #@! TD*
G04 #@! TA.AperFunction,ComponentPad*
%ADD13O,1.000000X1.600000*%
G04 #@! TD*
G04 #@! TA.AperFunction,SMDPad,CuDef*
%ADD14R,1.500000X1.500000*%
G04 #@! TD*
G04 #@! TA.AperFunction,SMDPad,CuDef*
%ADD15RoundRect,0.225000X-0.225000X-0.250000X0.225000X-0.250000X0.225000X0.250000X-0.225000X0.250000X0*%
G04 #@! TD*
G04 #@! TA.AperFunction,SMDPad,CuDef*
%ADD16RoundRect,0.250000X-0.312500X-0.625000X0.312500X-0.625000X0.312500X0.625000X-0.312500X0.625000X0*%
G04 #@! TD*
G04 #@! TA.AperFunction,SMDPad,CuDef*
%ADD17RoundRect,0.225000X-0.225000X-0.375000X0.225000X-0.375000X0.225000X0.375000X-0.225000X0.375000X0*%
G04 #@! TD*
G04 #@! TA.AperFunction,SMDPad,CuDef*
%ADD18RoundRect,0.135000X-0.135000X-0.185000X0.135000X-0.185000X0.135000X0.185000X-0.135000X0.185000X0*%
G04 #@! TD*
G04 #@! TA.AperFunction,SMDPad,CuDef*
%ADD19RoundRect,0.150000X-0.512500X-0.150000X0.512500X-0.150000X0.512500X0.150000X-0.512500X0.150000X0*%
G04 #@! TD*
G04 #@! TA.AperFunction,SMDPad,CuDef*
%ADD20RoundRect,0.140000X-0.140000X-0.170000X0.140000X-0.170000X0.140000X0.170000X-0.140000X0.170000X0*%
G04 #@! TD*
G04 #@! TA.AperFunction,SMDPad,CuDef*
%ADD21RoundRect,0.150000X-0.587500X-0.150000X0.587500X-0.150000X0.587500X0.150000X-0.587500X0.150000X0*%
G04 #@! TD*
G04 #@! TA.AperFunction,SMDPad,CuDef*
%ADD22RoundRect,0.250000X-0.375000X-0.625000X0.375000X-0.625000X0.375000X0.625000X-0.375000X0.625000X0*%
G04 #@! TD*
G04 #@! TA.AperFunction,SMDPad,CuDef*
%ADD23RoundRect,0.150000X0.150000X-0.587500X0.150000X0.587500X-0.150000X0.587500X-0.150000X-0.587500X0*%
G04 #@! TD*
G04 #@! TA.AperFunction,SMDPad,CuDef*
%ADD24RoundRect,0.150000X0.150000X-0.825000X0.150000X0.825000X-0.150000X0.825000X-0.150000X-0.825000X0*%
G04 #@! TD*
G04 #@! TA.AperFunction,SMDPad,CuDef*
%ADD25RoundRect,0.225000X0.250000X-0.225000X0.250000X0.225000X-0.250000X0.225000X-0.250000X-0.225000X0*%
G04 #@! TD*
G04 #@! TA.AperFunction,SMDPad,CuDef*
%ADD26RoundRect,0.140000X0.170000X-0.140000X0.170000X0.140000X-0.170000X0.140000X-0.170000X-0.140000X0*%
G04 #@! TD*
G04 #@! TA.AperFunction,ViaPad*
%ADD27C,0.700000*%
G04 #@! TD*
G04 #@! TA.AperFunction,ViaPad*
%ADD28C,0.600000*%
G04 #@! TD*
G04 #@! TA.AperFunction,ViaPad*
%ADD29C,0.800000*%
G04 #@! TD*
G04 #@! TA.AperFunction,Conductor*
%ADD30C,0.250000*%
G04 #@! TD*
G04 #@! TA.AperFunction,Conductor*
%ADD31C,0.300000*%
G04 #@! TD*
G04 #@! TA.AperFunction,Conductor*
%ADD32C,0.400000*%
G04 #@! TD*
G04 #@! TA.AperFunction,Conductor*
%ADD33C,0.187400*%
G04 #@! TD*
G04 APERTURE END LIST*
D10*
X21350000Y-10300000D03*
D11*
X25165000Y-14110000D03*
X21350000Y-14110000D03*
X25165000Y-21090000D03*
D10*
X21350000Y-17920000D03*
D11*
X31520000Y-5860000D03*
D12*
X2080000Y-22770000D03*
D13*
X2080000Y-26950000D03*
D12*
X10720000Y-22770000D03*
D13*
X10720000Y-26950000D03*
D14*
X6500000Y-14900000D03*
X9200000Y-14900000D03*
D15*
X13725000Y-25300000D03*
X15275000Y-25300000D03*
D16*
X11437500Y-15400000D03*
X14362500Y-15400000D03*
D17*
X6850000Y-4500000D03*
X10150000Y-4500000D03*
D18*
X2890000Y-28200000D03*
X3910000Y-28200000D03*
X18090000Y-14400000D03*
X19110000Y-14400000D03*
X10790000Y-12000000D03*
X11810000Y-12000000D03*
D19*
X12662500Y-23450000D03*
X12662500Y-22500000D03*
X12662500Y-21550000D03*
X14937500Y-21550000D03*
X14937500Y-23450000D03*
D20*
X12020000Y-3000000D03*
X12980000Y-3000000D03*
D18*
X8890000Y-28200000D03*
X9910000Y-28200000D03*
D14*
X28500000Y-25500000D03*
D18*
X15790000Y-14800000D03*
X16810000Y-14800000D03*
D20*
X14020000Y-5000000D03*
X14980000Y-5000000D03*
D14*
X31200000Y-25500000D03*
D18*
X10790000Y-10000000D03*
X11810000Y-10000000D03*
D14*
X33900000Y-25500000D03*
D18*
X2990000Y-10000000D03*
X4010000Y-10000000D03*
X5490000Y-2500000D03*
X6510000Y-2500000D03*
D21*
X2062500Y-4950000D03*
X2062500Y-3050000D03*
X3937500Y-4000000D03*
D20*
X16520000Y-25300000D03*
X17480000Y-25300000D03*
D22*
X12600000Y-18500000D03*
X15400000Y-18500000D03*
D18*
X10790000Y-8000000D03*
X11810000Y-8000000D03*
D14*
X36600000Y-25500000D03*
D23*
X19150000Y-20337500D03*
X17250000Y-20337500D03*
X18200000Y-18462500D03*
D24*
X17105000Y-12275000D03*
X15835000Y-12275000D03*
X14565000Y-12275000D03*
X13295000Y-12275000D03*
X13295000Y-7325000D03*
X14565000Y-7325000D03*
X15835000Y-7325000D03*
X17105000Y-7325000D03*
D25*
X10600000Y-19175000D03*
X10600000Y-17625000D03*
D20*
X3020000Y-12000000D03*
X3980000Y-12000000D03*
D25*
X3000000Y-15775000D03*
X3000000Y-14225000D03*
D19*
X5262500Y-27950000D03*
X5262500Y-27000000D03*
X5262500Y-26050000D03*
X7537500Y-26050000D03*
X7537500Y-27000000D03*
X7537500Y-27950000D03*
D26*
X1500000Y-13480000D03*
X1500000Y-12520000D03*
D27*
X10800700Y-10875000D03*
X8412400Y-17444300D03*
X12887400Y-20038400D03*
X1950000Y-7800000D03*
X9450000Y-12500000D03*
X5010000Y-12000000D03*
X9450000Y-6700000D03*
X3850000Y-27000000D03*
X1950000Y-8650000D03*
X10580100Y-8980100D03*
X14800000Y-1350000D03*
X2655300Y-11044700D03*
X9910000Y-25680000D03*
D28*
X9450000Y-11150000D03*
X6150000Y-11150000D03*
X7800000Y-7850000D03*
D27*
X2900000Y-6100000D03*
X18200000Y-16975000D03*
X18800000Y-26000000D03*
X19460000Y-25300000D03*
X16810000Y-15870000D03*
X2019000Y-12419000D03*
X4800000Y-7850000D03*
X25000000Y-5000000D03*
X3000000Y-13025000D03*
X7800000Y-5550000D03*
D28*
X6150000Y-9500000D03*
D27*
X1806900Y-6256900D03*
X18750000Y-4915000D03*
X1630200Y-16280200D03*
X1950000Y-14600000D03*
X30000000Y-10000000D03*
X6150000Y-6700000D03*
X7800000Y-12500000D03*
X1500000Y-11490000D03*
X13295000Y-4150000D03*
X1850000Y-17650000D03*
D28*
X6150000Y-7850000D03*
D27*
X2500000Y-6950000D03*
X15275000Y-26525000D03*
X1630200Y-10330200D03*
X3910000Y-25680000D03*
D28*
X9450000Y-9500000D03*
D27*
X9375000Y-17625000D03*
X31200000Y-27000000D03*
X4400000Y-1350000D03*
X7800000Y-6700000D03*
X3550000Y-1350000D03*
X18800000Y-21900000D03*
D28*
X9450000Y-7850000D03*
X7800000Y-9500000D03*
D27*
X1950000Y-3550000D03*
D28*
X7800000Y-11150000D03*
D27*
X25000000Y-10000000D03*
X6150000Y-12500000D03*
X11682500Y-11120800D03*
X17328600Y-2177400D03*
D29*
X16146300Y-24398700D03*
X18486000Y-3815200D03*
X3788800Y-17520500D03*
D27*
X15761100Y-8880900D03*
X18942600Y-16443100D03*
X13786300Y-19055000D03*
X8068400Y-25199900D03*
X9549999Y-18655000D03*
X3250000Y-18655000D03*
X5151600Y-23112400D03*
X1472800Y-28109300D03*
X5650000Y-24255000D03*
X10304000Y-13728800D03*
X7750000Y-19655000D03*
X13236900Y-13790500D03*
X4956000Y-24971100D03*
X7660300Y-24024100D03*
X8150000Y-23140400D03*
X14531000Y-22599600D03*
X12471000Y-8661000D03*
X5178600Y-15539900D03*
X3979700Y-7400500D03*
X7721000Y-1556000D03*
D28*
X32843300Y-24337500D03*
D27*
X36523000Y-24187500D03*
X15757800Y-13805200D03*
D28*
X13768000Y-10812200D03*
D27*
X15734000Y-10608600D03*
X8886400Y-13200400D03*
X11224700Y-3494200D03*
X4639300Y-10661100D03*
X1131800Y-1547700D03*
X13247800Y-15400000D03*
X5863700Y-4500000D03*
X8051900Y-3583300D03*
X7805500Y-14638400D03*
D30*
X10935000Y-10875000D02*
X10800700Y-10875000D01*
X11810000Y-10000000D02*
X10935000Y-10875000D01*
D31*
X31200000Y-25500000D02*
X31200000Y-27000000D01*
X1500000Y-12520000D02*
X1500000Y-11490000D01*
X15275000Y-25300000D02*
X15275000Y-26525000D01*
X12393300Y-22769200D02*
X12662500Y-22500000D01*
X17480000Y-25300000D02*
X19460000Y-25300000D01*
X9910000Y-28200000D02*
X9910000Y-25680000D01*
X13295000Y-7325000D02*
X13295000Y-4150000D01*
X10600000Y-17625000D02*
X9375000Y-17625000D01*
X5262500Y-27000000D02*
X3850000Y-27000000D01*
D32*
X1950000Y-3550000D02*
X2062500Y-3437500D01*
D31*
X18200000Y-18462500D02*
X18200000Y-16975000D01*
X3910000Y-28200000D02*
X3910000Y-25680000D01*
D32*
X18750000Y-4915000D02*
X18665000Y-5000000D01*
D31*
X3000000Y-14225000D02*
X3000000Y-13025000D01*
X10720000Y-22769200D02*
X12393300Y-22769200D01*
X3980000Y-12000000D02*
X5010000Y-12000000D01*
D32*
X10720000Y-22770000D02*
X10720000Y-22769200D01*
D31*
X16810000Y-14800000D02*
X16810000Y-15870000D01*
D32*
X2062500Y-3437500D02*
X2062500Y-3050000D01*
X18665000Y-5000000D02*
X14980000Y-5000000D01*
D30*
X11810000Y-12000000D02*
X11810000Y-11248300D01*
X11810000Y-11248300D02*
X11682500Y-11120800D01*
D32*
X10790000Y-6392700D02*
X10790000Y-8000000D01*
D31*
X11252400Y-8491600D02*
X11252400Y-8555700D01*
D32*
X2951300Y-9961200D02*
X2990000Y-10000000D01*
D31*
X14020000Y-5690700D02*
X14778800Y-5690700D01*
D32*
X12020000Y-5162700D02*
X10790000Y-6392700D01*
X15057300Y-5969200D02*
X15109000Y-5917500D01*
X2370200Y-9380200D02*
X2951300Y-9961200D01*
X11143700Y-9646300D02*
X10790000Y-10000000D01*
D31*
X1697500Y-15345600D02*
X1877900Y-15345600D01*
D32*
X2793900Y-15568900D02*
X3000000Y-15775000D01*
X14069800Y-2954600D02*
X13368700Y-2253500D01*
D31*
X1697400Y-9395700D02*
X1712900Y-9380200D01*
D32*
X16146300Y-24398700D02*
X16016300Y-24528700D01*
X10775400Y-8014600D02*
X10365500Y-8014600D01*
X14069800Y-3815200D02*
X14069800Y-2954600D01*
X12633100Y-2253500D02*
X12020000Y-2866600D01*
X16520000Y-25300000D02*
X16520000Y-25032500D01*
X12020000Y-2866600D02*
X12020000Y-3000000D01*
X14069800Y-4950200D02*
X14069800Y-3815200D01*
X1506800Y-9395700D02*
X1697400Y-9395700D01*
X10365500Y-8014600D02*
X9742200Y-8637900D01*
X28500000Y-25500000D02*
X27368300Y-25500000D01*
X18486000Y-3815200D02*
X14069800Y-3815200D01*
D31*
X11143700Y-9449200D02*
X11143700Y-9533100D01*
X10775400Y-8014600D02*
X11252400Y-8491600D01*
D32*
X13725000Y-25300000D02*
X13725000Y-24662500D01*
D31*
X1877900Y-15345600D02*
X2101200Y-15568900D01*
D32*
X1226200Y-13480000D02*
X769800Y-13480000D01*
X17105000Y-6779700D02*
X17105000Y-7325000D01*
X2360400Y-9380200D02*
X2370200Y-9380200D01*
X14020000Y-5000000D02*
X14069800Y-4950200D01*
X1302500Y-9600000D02*
X1506800Y-9395700D01*
X16016300Y-24528700D02*
X14937500Y-23450000D01*
D31*
X769800Y-13480000D02*
X769800Y-10132700D01*
D32*
X10790000Y-8000000D02*
X10775400Y-8014600D01*
X4274600Y-8637900D02*
X2951300Y-9961200D01*
X13368700Y-2253500D02*
X12633100Y-2253500D01*
X14020000Y-5000000D02*
X14020000Y-5690700D01*
X13725000Y-24662500D02*
X14937500Y-23450000D01*
X9742200Y-8637900D02*
X4274600Y-8637900D01*
X11143700Y-9533100D02*
X11143700Y-9646300D01*
X16520000Y-25032500D02*
X16016300Y-24528700D01*
X16146300Y-24398700D02*
X26267000Y-24398700D01*
D31*
X1226200Y-13480000D02*
X1226200Y-15065000D01*
X1226200Y-15065000D02*
X1506800Y-15345600D01*
D32*
X16242800Y-5917500D02*
X17105000Y-6779700D01*
X26267000Y-24398700D02*
X27368300Y-25500000D01*
X3788800Y-16563800D02*
X3788800Y-17520500D01*
X15109000Y-5917500D02*
X16242800Y-5917500D01*
D31*
X1712900Y-9380200D02*
X2360400Y-9380200D01*
D32*
X12020000Y-3000000D02*
X12020000Y-5162700D01*
X1500000Y-13480000D02*
X1226200Y-13480000D01*
D31*
X769800Y-10132700D02*
X1302500Y-9600000D01*
D32*
X2101200Y-15568900D02*
X2793900Y-15568900D01*
X3000000Y-15775000D02*
X3788800Y-16563800D01*
D31*
X14778800Y-5690700D02*
X15057300Y-5969200D01*
D32*
X11252400Y-8555700D02*
X11644800Y-8948100D01*
X1506800Y-15345600D02*
X1697500Y-15345600D01*
D31*
X11644800Y-8948100D02*
X11143700Y-9449200D01*
D30*
X23385000Y-15890000D02*
X20647800Y-15890000D01*
X18998500Y-14511500D02*
X19110000Y-14400000D01*
D33*
X20596000Y-15838200D02*
X19810000Y-15838200D01*
D30*
X20504000Y-12353300D02*
X23408300Y-12353300D01*
X25165000Y-14110000D02*
X23385000Y-15890000D01*
X17250000Y-16990400D02*
X17250000Y-20337500D01*
D33*
X20647800Y-15890000D02*
X20596000Y-15838200D01*
D30*
X19594800Y-15838200D02*
X18998500Y-15241900D01*
X18998500Y-15241900D02*
X18998500Y-14511500D01*
X18998500Y-15241900D02*
X17250000Y-16990400D01*
X19810000Y-15838200D02*
X19594800Y-15838200D01*
X15835000Y-7325000D02*
X15835000Y-7684300D01*
X15835000Y-7684300D02*
X20504000Y-12353300D01*
X23408300Y-12353300D02*
X25165000Y-14110000D01*
X14565000Y-7325000D02*
X14565000Y-7684800D01*
X18942600Y-20130100D02*
X19150000Y-20337500D01*
X14565000Y-7684800D02*
X15761100Y-8880900D01*
X18942600Y-16443100D02*
X18942600Y-20130100D01*
X20962400Y-13722400D02*
X18767600Y-13722400D01*
X18767600Y-13722400D02*
X18090000Y-14400000D01*
X21350000Y-14110000D02*
X20962400Y-13722400D01*
X7537500Y-27000000D02*
X7994200Y-27000000D01*
X8507300Y-25638800D02*
X8068400Y-25199900D01*
X8507300Y-26486900D02*
X8507300Y-25638800D01*
X12600000Y-18500000D02*
X13155000Y-19055000D01*
X13155000Y-19055000D02*
X13786300Y-19055000D01*
D32*
X3250000Y-18655000D02*
X9549999Y-18655000D01*
D30*
X7994200Y-27000000D02*
X8507300Y-26486900D01*
X1563500Y-28200000D02*
X1472800Y-28109300D01*
X2890000Y-28200000D02*
X1563500Y-28200000D01*
X5650000Y-24255000D02*
X7750000Y-19655000D01*
X6306200Y-27950000D02*
X6306200Y-24911200D01*
X7537500Y-27950000D02*
X6306200Y-27950000D01*
X6306200Y-27950000D02*
X5262500Y-27950000D01*
X6306200Y-24911200D02*
X5650000Y-24255000D01*
X7403000Y-24281400D02*
X7660300Y-24024100D01*
X4956000Y-25743500D02*
X4956000Y-24971100D01*
X5262500Y-26050000D02*
X4956000Y-25743500D01*
X7537500Y-26050000D02*
X7403000Y-25915500D01*
X7403000Y-25915500D02*
X7403000Y-24281400D01*
X8150000Y-23477500D02*
X8951800Y-24279300D01*
X8951800Y-28138200D02*
X8890000Y-28200000D01*
X8951800Y-24279300D02*
X8951800Y-28138200D01*
X8150000Y-23140400D02*
X8150000Y-23477500D01*
X11810000Y-8000000D02*
X12471000Y-8661000D01*
X6869000Y-3127200D02*
X7721000Y-2275200D01*
X6117200Y-3127200D02*
X6869000Y-3127200D01*
X7721000Y-2275200D02*
X7721000Y-1556000D01*
X5490000Y-2500000D02*
X6117200Y-3127200D01*
X32843300Y-25500000D02*
X32843300Y-24337500D01*
X33900000Y-25500000D02*
X32843300Y-25500000D01*
X36523000Y-24187500D02*
X36600000Y-24264500D01*
X36600000Y-24264500D02*
X36600000Y-25500000D01*
X15790000Y-12320000D02*
X15835000Y-12275000D01*
X14565000Y-12275000D02*
X15835000Y-12275000D01*
X15790000Y-13805200D02*
X15757800Y-13805200D01*
X15790000Y-14800000D02*
X15790000Y-13805200D01*
X15790000Y-13805200D02*
X15790000Y-12320000D01*
X13295000Y-11285200D02*
X13768000Y-10812200D01*
X13295000Y-12275000D02*
X13295000Y-11285200D01*
X15734000Y-10608600D02*
X15825700Y-10608600D01*
X17105000Y-11887900D02*
X17105000Y-12275000D01*
X15825700Y-10608600D02*
X17105000Y-11887900D01*
X9740500Y-13200400D02*
X8886400Y-13200400D01*
X10790000Y-12000000D02*
X10790000Y-12150900D01*
X10790000Y-12150900D02*
X9740500Y-13200400D01*
X4010000Y-11010000D02*
X4010000Y-10661100D01*
X4010000Y-10661100D02*
X4010000Y-10000000D01*
X4010000Y-10661100D02*
X4639300Y-10661100D01*
X3020000Y-12000000D02*
X4010000Y-11010000D01*
X10094100Y-15959700D02*
X10259900Y-15793900D01*
X14362500Y-15400000D02*
X13247800Y-15400000D01*
X10259900Y-15793900D02*
X10259900Y-14847300D01*
X6500000Y-14900000D02*
X7559700Y-15959700D01*
X10259900Y-14847300D02*
X10894300Y-14212900D01*
X10894300Y-14212900D02*
X12060700Y-14212900D01*
X7559700Y-15959700D02*
X10094100Y-15959700D01*
X6850000Y-4500000D02*
X5863700Y-4500000D01*
X12060700Y-14212900D02*
X13247800Y-15400000D01*
X8143300Y-14900000D02*
X7881700Y-14638400D01*
X8051900Y-3583300D02*
X4354200Y-3583300D01*
X9233300Y-3583300D02*
X8051900Y-3583300D01*
X9200000Y-14900000D02*
X8143300Y-14900000D01*
X7881700Y-14638400D02*
X7805500Y-14638400D01*
X4354200Y-3583300D02*
X3937500Y-4000000D01*
X10150000Y-4500000D02*
X9233300Y-3583300D01*
D32*
X11624900Y-17225900D02*
X11437500Y-17038500D01*
D31*
X11466000Y-17560500D02*
X11624900Y-17401600D01*
D32*
X10600000Y-19175000D02*
X10600000Y-19487500D01*
D31*
X12931700Y-21819200D02*
X12662500Y-21550000D01*
D32*
X10600000Y-19487500D02*
X12662500Y-21550000D01*
X11437500Y-17038500D02*
X11437500Y-15400000D01*
X13768300Y-22869200D02*
X13768300Y-21819200D01*
D31*
X13768300Y-21819200D02*
X12931700Y-21819200D01*
D32*
X14125900Y-17225900D02*
X15400000Y-18500000D01*
D31*
X11466000Y-18034100D02*
X11466000Y-17560500D01*
D32*
X12662500Y-23450000D02*
X13187500Y-23450000D01*
X11624900Y-17225900D02*
X14125900Y-17225900D01*
X11624900Y-17401600D02*
X11624900Y-17225900D01*
X11466000Y-18309000D02*
X11466000Y-18034100D01*
X13187500Y-23450000D02*
X13768300Y-22869200D01*
X10600000Y-19175000D02*
X11466000Y-18309000D01*
D30*
X5111200Y-1807600D02*
X5817600Y-1807600D01*
X5817600Y-1807600D02*
X6510000Y-2500000D01*
X2062500Y-4950000D02*
X1010600Y-3898100D01*
X1010600Y-3898100D02*
X1010600Y-2660700D01*
X1010600Y-2660700D02*
X1601500Y-2069800D01*
X4849000Y-2069800D02*
X5111200Y-1807600D01*
X1601500Y-2069800D02*
X4849000Y-2069800D01*
G04 #@! TA.AperFunction,Conductor*
G36*
X656074Y-13967683D02*
G01*
X683796Y-13975111D01*
X743453Y-14011474D01*
X773983Y-14074320D01*
X775700Y-14094884D01*
X775700Y-15124308D01*
X797806Y-15206813D01*
X806400Y-15238885D01*
X806400Y-15238886D01*
X820843Y-15263901D01*
X865711Y-15341614D01*
X865713Y-15341616D01*
X1008687Y-15484590D01*
X1035963Y-15531833D01*
X1037299Y-15531280D01*
X1040407Y-15538785D01*
X1068256Y-15587021D01*
X1106300Y-15652914D01*
X1199486Y-15746100D01*
X1313614Y-15811992D01*
X1440908Y-15846100D01*
X1619224Y-15846100D01*
X1686263Y-15865785D01*
X1706905Y-15882419D01*
X1793886Y-15969400D01*
X1908014Y-16035292D01*
X2035308Y-16069400D01*
X2128088Y-16069400D01*
X2195127Y-16089085D01*
X2240882Y-16141889D01*
X2243442Y-16147910D01*
X2287634Y-16259972D01*
X2287634Y-16259973D01*
X2374921Y-16375078D01*
X2490023Y-16462363D01*
X2490024Y-16462363D01*
X2490025Y-16462364D01*
X2624410Y-16515359D01*
X2708856Y-16525500D01*
X2991324Y-16525500D01*
X3020764Y-16534144D01*
X3050751Y-16540668D01*
X3055766Y-16544422D01*
X3058363Y-16545185D01*
X3079005Y-16561819D01*
X3251981Y-16734795D01*
X3285466Y-16796118D01*
X3288300Y-16822476D01*
X3288300Y-16978981D01*
X3268615Y-17046020D01*
X3251981Y-17066662D01*
X3244688Y-17073954D01*
X3244685Y-17073958D01*
X3168028Y-17188682D01*
X3168021Y-17188695D01*
X3115221Y-17316167D01*
X3115218Y-17316177D01*
X3088300Y-17451504D01*
X3088300Y-17451507D01*
X3088300Y-17589493D01*
X3088300Y-17589495D01*
X3088299Y-17589495D01*
X3115218Y-17724822D01*
X3115221Y-17724832D01*
X3169806Y-17856614D01*
X3177275Y-17926084D01*
X3145999Y-17988563D01*
X3085910Y-18024214D01*
X3079438Y-18025683D01*
X3060260Y-18029497D01*
X3060255Y-18029499D01*
X2941875Y-18078533D01*
X2941866Y-18078538D01*
X2835331Y-18149723D01*
X2835327Y-18149726D01*
X2744726Y-18240327D01*
X2744723Y-18240331D01*
X2673538Y-18346866D01*
X2673533Y-18346875D01*
X2624499Y-18465255D01*
X2624497Y-18465261D01*
X2599500Y-18590928D01*
X2599500Y-18590931D01*
X2599500Y-18719069D01*
X2599500Y-18719071D01*
X2599499Y-18719071D01*
X2624497Y-18844738D01*
X2624499Y-18844744D01*
X2673533Y-18963124D01*
X2673538Y-18963133D01*
X2744723Y-19069668D01*
X2744726Y-19069672D01*
X2835327Y-19160273D01*
X2835331Y-19160276D01*
X2941866Y-19231461D01*
X2941872Y-19231464D01*
X2941873Y-19231465D01*
X3060256Y-19280501D01*
X3060260Y-19280501D01*
X3060261Y-19280502D01*
X3185928Y-19305500D01*
X3185931Y-19305500D01*
X3314071Y-19305500D01*
X3398615Y-19288682D01*
X3439744Y-19280501D01*
X3558127Y-19231465D01*
X3640541Y-19176398D01*
X3707218Y-19155520D01*
X3709432Y-19155500D01*
X7069418Y-19155500D01*
X7136457Y-19175185D01*
X7182212Y-19227989D01*
X7192156Y-19297147D01*
X7175373Y-19340945D01*
X7176408Y-19341498D01*
X7173533Y-19346875D01*
X7124499Y-19465255D01*
X7124497Y-19465261D01*
X7099500Y-19590928D01*
X7099500Y-19590931D01*
X7099500Y-19719069D01*
X7099500Y-19719071D01*
X7099499Y-19719071D01*
X7124497Y-19844737D01*
X7124499Y-19844744D01*
X7137687Y-19876584D01*
X7145154Y-19946053D01*
X7135926Y-19975530D01*
X5889619Y-22705538D01*
X5843872Y-22758348D01*
X5776835Y-22778042D01*
X5709793Y-22758366D01*
X5673716Y-22722933D01*
X5656876Y-22697731D01*
X5656873Y-22697727D01*
X5566272Y-22607126D01*
X5566268Y-22607123D01*
X5459733Y-22535938D01*
X5459724Y-22535933D01*
X5341344Y-22486899D01*
X5341338Y-22486897D01*
X5215671Y-22461900D01*
X5215669Y-22461900D01*
X5087531Y-22461900D01*
X5087529Y-22461900D01*
X4961861Y-22486897D01*
X4961855Y-22486899D01*
X4843475Y-22535933D01*
X4843466Y-22535938D01*
X4736931Y-22607123D01*
X4736927Y-22607126D01*
X4646326Y-22697727D01*
X4646323Y-22697731D01*
X4575138Y-22804266D01*
X4575133Y-22804275D01*
X4526099Y-22922655D01*
X4526097Y-22922661D01*
X4501100Y-23048328D01*
X4501100Y-23048331D01*
X4501100Y-23176469D01*
X4501100Y-23176471D01*
X4501099Y-23176471D01*
X4526097Y-23302138D01*
X4526099Y-23302144D01*
X4575133Y-23420524D01*
X4575138Y-23420533D01*
X4646323Y-23527068D01*
X4646326Y-23527072D01*
X4736927Y-23617673D01*
X4736931Y-23617676D01*
X4843466Y-23688861D01*
X4843472Y-23688864D01*
X4843473Y-23688865D01*
X4961856Y-23737901D01*
X4961860Y-23737901D01*
X4961861Y-23737902D01*
X5001669Y-23745821D01*
X5063580Y-23778206D01*
X5098154Y-23838922D01*
X5094413Y-23908692D01*
X5080581Y-23936326D01*
X5073539Y-23946865D01*
X5073533Y-23946875D01*
X5024499Y-24065255D01*
X5024497Y-24065261D01*
X4999500Y-24190928D01*
X4999500Y-24197618D01*
X4979815Y-24264657D01*
X4927011Y-24310412D01*
X4897688Y-24318316D01*
X4897906Y-24319411D01*
X4766261Y-24345597D01*
X4766255Y-24345599D01*
X4647875Y-24394633D01*
X4647866Y-24394638D01*
X4541331Y-24465823D01*
X4541327Y-24465826D01*
X4450726Y-24556427D01*
X4450723Y-24556431D01*
X4379538Y-24662966D01*
X4379533Y-24662975D01*
X4330499Y-24781355D01*
X4330497Y-24781361D01*
X4305500Y-24907028D01*
X4305500Y-24907031D01*
X4305500Y-25035169D01*
X4305500Y-25035171D01*
X4305499Y-25035171D01*
X4330497Y-25160838D01*
X4330499Y-25160844D01*
X4379533Y-25279224D01*
X4379538Y-25279233D01*
X4450723Y-25385768D01*
X4454589Y-25390479D01*
X4453355Y-25391491D01*
X4483124Y-25446008D01*
X4478140Y-25515700D01*
X4436268Y-25571633D01*
X4435594Y-25572134D01*
X4427851Y-25577848D01*
X4347207Y-25687117D01*
X4347206Y-25687119D01*
X4302353Y-25815298D01*
X4302353Y-25815300D01*
X4299500Y-25845730D01*
X4299500Y-26254269D01*
X4302353Y-26284699D01*
X4302353Y-26284701D01*
X4339116Y-26389760D01*
X4342678Y-26459539D01*
X4320879Y-26505640D01*
X4266080Y-26577902D01*
X4210613Y-26718556D01*
X4210613Y-26718557D01*
X4200832Y-26800000D01*
X5138500Y-26800000D01*
X5147185Y-26802550D01*
X5156147Y-26801262D01*
X5180187Y-26812240D01*
X5205539Y-26819685D01*
X5211466Y-26826525D01*
X5219703Y-26830287D01*
X5233992Y-26852521D01*
X5251294Y-26872489D01*
X5253581Y-26883003D01*
X5257477Y-26889065D01*
X5262500Y-26924000D01*
X5262500Y-27076000D01*
X5242815Y-27143039D01*
X5190011Y-27188794D01*
X5138500Y-27200000D01*
X4200833Y-27200000D01*
X4210613Y-27281442D01*
X4210614Y-27281446D01*
X4222693Y-27312076D01*
X4228974Y-27381663D01*
X4196636Y-27443599D01*
X4135947Y-27478220D01*
X4113714Y-27479480D01*
X4110000Y-27482775D01*
X4110000Y-28076000D01*
X4107449Y-28084685D01*
X4108738Y-28093647D01*
X4097759Y-28117687D01*
X4090315Y-28143039D01*
X4083474Y-28148966D01*
X4079713Y-28157203D01*
X4057478Y-28171492D01*
X4037511Y-28188794D01*
X4026996Y-28191081D01*
X4020935Y-28194977D01*
X3986000Y-28200000D01*
X3834000Y-28200000D01*
X3766961Y-28180315D01*
X3721206Y-28127511D01*
X3710000Y-28076000D01*
X3710000Y-27482775D01*
X3647142Y-27490324D01*
X3647141Y-27490324D01*
X3510323Y-27544278D01*
X3392012Y-27633996D01*
X3326700Y-27658819D01*
X3277160Y-27652588D01*
X3258938Y-27646390D01*
X3230794Y-27625619D01*
X3106879Y-27582259D01*
X3077457Y-27579500D01*
X3062264Y-27579500D01*
X3043232Y-27573027D01*
X3028428Y-27562604D01*
X3011312Y-27556696D01*
X3000450Y-27542906D01*
X2986101Y-27532804D01*
X2979282Y-27516032D01*
X2968078Y-27501809D01*
X2966395Y-27484339D01*
X2959785Y-27468080D01*
X2963116Y-27450282D01*
X2961381Y-27432261D01*
X2961542Y-27431440D01*
X2979999Y-27338646D01*
X2980000Y-27338643D01*
X2980000Y-27150000D01*
X2380000Y-27150000D01*
X2380000Y-26750000D01*
X2980000Y-26750000D01*
X2980000Y-26561357D01*
X2979999Y-26561353D01*
X2945415Y-26387487D01*
X2945413Y-26387479D01*
X2877571Y-26223692D01*
X2877566Y-26223683D01*
X2779076Y-26076283D01*
X2779073Y-26076279D01*
X2653720Y-25950926D01*
X2653716Y-25950923D01*
X2506316Y-25852433D01*
X2506307Y-25852428D01*
X2342520Y-25784586D01*
X2342512Y-25784584D01*
X2280000Y-25772149D01*
X2280000Y-26425735D01*
X2264205Y-26409940D01*
X2195796Y-26370444D01*
X2119496Y-26350000D01*
X2040504Y-26350000D01*
X1964204Y-26370444D01*
X1895795Y-26409940D01*
X1880000Y-26425735D01*
X1880000Y-25772149D01*
X1817487Y-25784584D01*
X1817479Y-25784586D01*
X1653692Y-25852428D01*
X1653683Y-25852433D01*
X1506283Y-25950923D01*
X1506279Y-25950926D01*
X1380926Y-26076279D01*
X1380923Y-26076283D01*
X1282433Y-26223683D01*
X1282428Y-26223692D01*
X1214586Y-26387479D01*
X1214584Y-26387487D01*
X1180000Y-26561353D01*
X1180000Y-26750000D01*
X1780000Y-26750000D01*
X1780000Y-27150000D01*
X1180000Y-27150000D01*
X1180000Y-27338640D01*
X1196133Y-27419752D01*
X1189904Y-27489344D01*
X1147041Y-27544521D01*
X1143406Y-27547044D01*
X1058131Y-27604023D01*
X1058127Y-27604026D01*
X967526Y-27694627D01*
X967523Y-27694631D01*
X896338Y-27801166D01*
X896333Y-27801175D01*
X847299Y-27919555D01*
X847297Y-27919561D01*
X822300Y-28045228D01*
X822300Y-28045231D01*
X822300Y-28173369D01*
X822300Y-28173371D01*
X822299Y-28173371D01*
X847297Y-28299038D01*
X847299Y-28299044D01*
X859090Y-28327511D01*
X859520Y-28328547D01*
X866989Y-28398016D01*
X835714Y-28460495D01*
X775626Y-28496148D01*
X744959Y-28500000D01*
X624000Y-28500000D01*
X556961Y-28480315D01*
X511206Y-28427511D01*
X500000Y-28376000D01*
X500000Y-22131353D01*
X1180000Y-22131353D01*
X1180000Y-22570000D01*
X1780000Y-22570000D01*
X1780000Y-22970000D01*
X1180000Y-22970000D01*
X1180000Y-23408646D01*
X1214584Y-23582512D01*
X1214586Y-23582520D01*
X1282428Y-23746307D01*
X1282433Y-23746316D01*
X1380923Y-23893716D01*
X1380926Y-23893720D01*
X1506279Y-24019073D01*
X1506283Y-24019076D01*
X1653683Y-24117566D01*
X1653696Y-24117573D01*
X1817474Y-24185411D01*
X1817482Y-24185413D01*
X1880000Y-24197848D01*
X1880000Y-23544265D01*
X1895795Y-23560060D01*
X1964204Y-23599556D01*
X2040504Y-23620000D01*
X2119496Y-23620000D01*
X2195796Y-23599556D01*
X2264205Y-23560060D01*
X2280000Y-23544265D01*
X2280000Y-24197847D01*
X2342517Y-24185413D01*
X2342525Y-24185411D01*
X2506303Y-24117573D01*
X2506316Y-24117566D01*
X2653716Y-24019076D01*
X2653720Y-24019073D01*
X2779073Y-23893720D01*
X2779076Y-23893716D01*
X2877566Y-23746316D01*
X2877569Y-23746310D01*
X2884124Y-23730484D01*
X2927962Y-23676078D01*
X2994255Y-23654009D01*
X3061955Y-23671285D01*
X3086369Y-23690249D01*
X3156635Y-23760515D01*
X3287865Y-23836281D01*
X3434234Y-23875500D01*
X3434236Y-23875500D01*
X3585764Y-23875500D01*
X3585766Y-23875500D01*
X3732135Y-23836281D01*
X3863365Y-23760515D01*
X3970515Y-23653365D01*
X4046281Y-23522135D01*
X4085500Y-23375766D01*
X4085500Y-23224234D01*
X4046281Y-23077865D01*
X3970515Y-22946635D01*
X3863365Y-22839485D01*
X3776519Y-22789344D01*
X3732136Y-22763719D01*
X3658950Y-22744109D01*
X3585766Y-22724500D01*
X3434234Y-22724500D01*
X3287863Y-22763719D01*
X3156635Y-22839485D01*
X3156632Y-22839487D01*
X3062439Y-22933681D01*
X3001116Y-22967166D01*
X2974758Y-22970000D01*
X2380000Y-22970000D01*
X2380000Y-22570000D01*
X2980000Y-22570000D01*
X2980000Y-22131357D01*
X2979999Y-22131353D01*
X2945415Y-21957487D01*
X2945413Y-21957479D01*
X2877571Y-21793692D01*
X2877566Y-21793683D01*
X2779076Y-21646283D01*
X2779073Y-21646279D01*
X2653720Y-21520926D01*
X2653716Y-21520923D01*
X2506316Y-21422433D01*
X2506307Y-21422428D01*
X2342520Y-21354586D01*
X2342512Y-21354584D01*
X2280000Y-21342149D01*
X2280000Y-21995735D01*
X2264205Y-21979940D01*
X2195796Y-21940444D01*
X2119496Y-21920000D01*
X2040504Y-21920000D01*
X1964204Y-21940444D01*
X1895795Y-21979940D01*
X1880000Y-21995735D01*
X1880000Y-21342149D01*
X1817487Y-21354584D01*
X1817479Y-21354586D01*
X1653692Y-21422428D01*
X1653683Y-21422433D01*
X1506283Y-21520923D01*
X1506279Y-21520926D01*
X1380926Y-21646279D01*
X1380923Y-21646283D01*
X1282433Y-21793683D01*
X1282428Y-21793692D01*
X1214586Y-21957479D01*
X1214584Y-21957487D01*
X1180000Y-22131353D01*
X500000Y-22131353D01*
X500000Y-14087462D01*
X519685Y-14020423D01*
X572489Y-13974668D01*
X641647Y-13964724D01*
X656074Y-13967683D01*
G37*
G04 #@! TD.AperFunction*
G04 #@! TA.AperFunction,Conductor*
G36*
X37943039Y-519685D02*
G01*
X37988794Y-572489D01*
X38000000Y-624000D01*
X38000000Y-28376000D01*
X37980315Y-28443039D01*
X37927511Y-28488794D01*
X37876000Y-28500000D01*
X10704000Y-28500000D01*
X10636961Y-28480315D01*
X10591206Y-28427511D01*
X10586672Y-28406672D01*
X10580000Y-28400000D01*
X10034000Y-28400000D01*
X10025314Y-28397449D01*
X10016353Y-28398738D01*
X9992312Y-28387759D01*
X9966961Y-28380315D01*
X9961033Y-28373474D01*
X9952797Y-28369713D01*
X9938507Y-28347478D01*
X9921206Y-28327511D01*
X9918918Y-28316996D01*
X9915023Y-28310935D01*
X9910000Y-28276000D01*
X9910000Y-28124000D01*
X9929685Y-28056961D01*
X9982489Y-28011206D01*
X10034000Y-28000000D01*
X10520000Y-28000000D01*
X10520000Y-27474265D01*
X10535795Y-27490060D01*
X10604204Y-27529556D01*
X10680504Y-27550000D01*
X10759496Y-27550000D01*
X10835796Y-27529556D01*
X10904205Y-27490060D01*
X10920000Y-27474265D01*
X10920000Y-28127847D01*
X10982517Y-28115413D01*
X10982525Y-28115411D01*
X11146303Y-28047573D01*
X11146316Y-28047566D01*
X11293716Y-27949076D01*
X11293720Y-27949073D01*
X11419073Y-27823720D01*
X11419076Y-27823716D01*
X11517566Y-27676316D01*
X11517571Y-27676307D01*
X11585413Y-27512520D01*
X11585415Y-27512512D01*
X11619999Y-27338646D01*
X11620000Y-27338643D01*
X11620000Y-27150000D01*
X11020000Y-27150000D01*
X11020000Y-26750000D01*
X11620000Y-26750000D01*
X11620000Y-26561357D01*
X11619999Y-26561353D01*
X11585415Y-26387487D01*
X11585413Y-26387479D01*
X11517571Y-26223692D01*
X11517566Y-26223683D01*
X11419076Y-26076283D01*
X11419073Y-26076279D01*
X11293720Y-25950926D01*
X11293716Y-25950923D01*
X11146316Y-25852433D01*
X11146307Y-25852428D01*
X10982520Y-25784586D01*
X10982512Y-25784584D01*
X10920000Y-25772149D01*
X10920000Y-26425735D01*
X10904205Y-26409940D01*
X10835796Y-26370444D01*
X10759496Y-26350000D01*
X10680504Y-26350000D01*
X10604204Y-26370444D01*
X10535795Y-26409940D01*
X10520000Y-26425735D01*
X10520000Y-25772149D01*
X10457487Y-25784584D01*
X10457479Y-25784586D01*
X10293692Y-25852428D01*
X10293683Y-25852433D01*
X10146283Y-25950923D01*
X10146279Y-25950926D01*
X10020926Y-26076279D01*
X10020923Y-26076283D01*
X9922433Y-26223683D01*
X9922428Y-26223692D01*
X9854586Y-26387479D01*
X9854584Y-26387487D01*
X9820000Y-26561353D01*
X9820000Y-26750000D01*
X10420000Y-26750000D01*
X10420000Y-27150000D01*
X9820000Y-27150000D01*
X9820000Y-27338643D01*
X9820597Y-27344705D01*
X9818440Y-27344917D01*
X9813077Y-27404776D01*
X9770208Y-27459948D01*
X9731233Y-27478740D01*
X9534841Y-27533920D01*
X9505966Y-27533582D01*
X9477203Y-27536179D01*
X9471458Y-27533179D01*
X9464976Y-27533104D01*
X9440864Y-27517206D01*
X9415267Y-27503842D01*
X9412055Y-27498211D01*
X9406644Y-27494644D01*
X9394954Y-27468235D01*
X9380646Y-27443153D01*
X9379494Y-27433308D01*
X9378364Y-27430754D01*
X9378839Y-27427703D01*
X9377300Y-27414543D01*
X9377300Y-24224694D01*
X9377300Y-24223282D01*
X9376781Y-24221346D01*
X9348303Y-24115063D01*
X9306895Y-24043343D01*
X9303452Y-24034473D01*
X9301269Y-24008770D01*
X9295187Y-23983698D01*
X9298362Y-23974524D01*
X9297541Y-23964854D01*
X9309601Y-23942050D01*
X9318039Y-23917671D01*
X9325668Y-23911671D01*
X9330206Y-23903091D01*
X9352683Y-23890425D01*
X9372960Y-23874480D01*
X9386942Y-23869825D01*
X9512135Y-23836281D01*
X9643365Y-23760515D01*
X9713633Y-23690246D01*
X9774952Y-23656764D01*
X9844644Y-23661748D01*
X9900578Y-23703619D01*
X9915873Y-23730479D01*
X9922429Y-23746309D01*
X9922433Y-23746316D01*
X10020923Y-23893716D01*
X10020926Y-23893720D01*
X10146279Y-24019073D01*
X10146283Y-24019076D01*
X10293683Y-24117566D01*
X10293696Y-24117573D01*
X10457474Y-24185411D01*
X10457482Y-24185413D01*
X10520000Y-24197848D01*
X10520000Y-23544265D01*
X10535795Y-23560060D01*
X10604204Y-23599556D01*
X10680504Y-23620000D01*
X10759496Y-23620000D01*
X10835796Y-23599556D01*
X10904205Y-23560060D01*
X10920000Y-23544265D01*
X10920000Y-24197847D01*
X10982517Y-24185413D01*
X10982525Y-24185411D01*
X11146303Y-24117573D01*
X11146316Y-24117566D01*
X11293716Y-24019076D01*
X11293720Y-24019073D01*
X11419073Y-23893720D01*
X11419079Y-23893712D01*
X11514928Y-23750265D01*
X11568540Y-23705459D01*
X11637865Y-23696752D01*
X11700892Y-23726906D01*
X11735070Y-23778198D01*
X11747207Y-23812882D01*
X11827850Y-23922150D01*
X11937118Y-24002793D01*
X11979845Y-24017744D01*
X12065299Y-24047646D01*
X12095730Y-24050500D01*
X12095734Y-24050500D01*
X13229270Y-24050500D01*
X13249554Y-24048597D01*
X13259699Y-24047646D01*
X13319665Y-24026662D01*
X13327431Y-24026266D01*
X13334259Y-24022538D01*
X13361830Y-24024509D01*
X13389441Y-24023100D01*
X13396192Y-24026967D01*
X13403951Y-24027522D01*
X13426080Y-24044087D01*
X13450069Y-24057828D01*
X13453657Y-24064730D01*
X13459885Y-24069392D01*
X13469546Y-24095295D01*
X13482297Y-24119821D01*
X13481584Y-24127566D01*
X13484303Y-24134856D01*
X13478426Y-24161871D01*
X13475893Y-24189397D01*
X13470729Y-24197253D01*
X13469452Y-24203129D01*
X13448302Y-24231383D01*
X13417686Y-24262000D01*
X13324502Y-24355183D01*
X13324500Y-24355186D01*
X13258608Y-24469312D01*
X13234554Y-24559084D01*
X13198188Y-24618745D01*
X13189706Y-24625793D01*
X13124921Y-24674922D01*
X13037636Y-24790023D01*
X12984640Y-24924411D01*
X12981161Y-24953385D01*
X12974500Y-25008856D01*
X12974500Y-25591144D01*
X12979825Y-25635494D01*
X12984640Y-25675588D01*
X13037636Y-25809976D01*
X13124921Y-25925078D01*
X13240023Y-26012363D01*
X13240024Y-26012363D01*
X13240025Y-26012364D01*
X13374410Y-26065359D01*
X13458856Y-26075500D01*
X13458862Y-26075500D01*
X13991138Y-26075500D01*
X13991144Y-26075500D01*
X14075590Y-26065359D01*
X14209975Y-26012364D01*
X14325078Y-25925078D01*
X14337477Y-25908727D01*
X14393667Y-25867204D01*
X14463388Y-25862651D01*
X14524503Y-25896515D01*
X14543011Y-25920528D01*
X14552223Y-25936105D01*
X14552232Y-25936116D01*
X14663883Y-26047767D01*
X14663891Y-26047773D01*
X14799811Y-26128155D01*
X14799814Y-26128156D01*
X14951446Y-26172210D01*
X14951452Y-26172211D01*
X14986881Y-26174999D01*
X14986894Y-26175000D01*
X15075000Y-26175000D01*
X15075000Y-25424000D01*
X15077550Y-25415314D01*
X15076262Y-25406353D01*
X15087240Y-25382312D01*
X15094685Y-25356961D01*
X15101525Y-25351033D01*
X15105287Y-25342797D01*
X15127521Y-25328507D01*
X15147489Y-25311206D01*
X15158003Y-25308918D01*
X15164065Y-25305023D01*
X15199000Y-25300000D01*
X15351000Y-25300000D01*
X15418039Y-25319685D01*
X15463794Y-25372489D01*
X15475000Y-25424000D01*
X15475000Y-26175000D01*
X15563106Y-26175000D01*
X15563118Y-26174999D01*
X15598547Y-26172211D01*
X15598553Y-26172210D01*
X15750185Y-26128156D01*
X15750188Y-26128155D01*
X15886108Y-26047773D01*
X15886116Y-26047767D01*
X15997767Y-25936116D01*
X15997774Y-25936107D01*
X16011611Y-25912710D01*
X16062679Y-25865025D01*
X16131421Y-25852520D01*
X16162632Y-25862039D01*
X16163072Y-25860783D01*
X16297173Y-25907708D01*
X16297177Y-25907708D01*
X16297181Y-25907710D01*
X16312057Y-25909105D01*
X16326930Y-25910500D01*
X16326934Y-25910500D01*
X16713070Y-25910500D01*
X16726289Y-25909260D01*
X16742819Y-25907710D01*
X16868157Y-25863852D01*
X16868160Y-25863849D01*
X16872051Y-25862488D01*
X16941829Y-25858925D01*
X16987933Y-25880725D01*
X17072853Y-25945122D01*
X17072855Y-25945123D01*
X17210941Y-25999577D01*
X17210945Y-25999578D01*
X17280000Y-26007870D01*
X17280000Y-26007869D01*
X17680000Y-26007869D01*
X17749052Y-25999579D01*
X17887150Y-25945120D01*
X18005428Y-25855428D01*
X18095120Y-25737150D01*
X18095123Y-25737144D01*
X18149578Y-25599056D01*
X18160000Y-25512270D01*
X18160000Y-25500000D01*
X17680000Y-25500000D01*
X17680000Y-26007869D01*
X17280000Y-26007869D01*
X17280000Y-25424000D01*
X17299685Y-25356961D01*
X17352489Y-25311206D01*
X17404000Y-25300000D01*
X17480000Y-25300000D01*
X17480000Y-25224000D01*
X17499685Y-25156961D01*
X17552489Y-25111206D01*
X17604000Y-25100000D01*
X18159999Y-25100000D01*
X18159999Y-25087729D01*
X18154026Y-25037982D01*
X18165579Y-24969074D01*
X18212552Y-24917351D01*
X18277142Y-24899200D01*
X26008324Y-24899200D01*
X26075363Y-24918885D01*
X26096005Y-24935519D01*
X26967800Y-25807314D01*
X27060986Y-25900500D01*
X27175114Y-25966392D01*
X27302407Y-26000500D01*
X27302408Y-26000500D01*
X27325501Y-26000500D01*
X27392540Y-26020185D01*
X27438295Y-26072989D01*
X27449501Y-26124500D01*
X27449501Y-26294856D01*
X27449502Y-26294882D01*
X27452413Y-26319987D01*
X27452415Y-26319991D01*
X27497793Y-26422764D01*
X27497794Y-26422765D01*
X27577235Y-26502206D01*
X27680009Y-26547585D01*
X27705135Y-26550500D01*
X29294864Y-26550499D01*
X29294879Y-26550497D01*
X29294882Y-26550497D01*
X29319987Y-26547586D01*
X29319988Y-26547585D01*
X29319991Y-26547585D01*
X29422765Y-26502206D01*
X29502206Y-26422765D01*
X29547585Y-26319991D01*
X29550500Y-26294865D01*
X29550500Y-26281479D01*
X30050001Y-26281479D01*
X30064835Y-26375149D01*
X30064837Y-26375155D01*
X30122356Y-26488041D01*
X30122363Y-26488050D01*
X30211949Y-26577636D01*
X30211953Y-26577639D01*
X30324855Y-26635166D01*
X30418514Y-26649999D01*
X30999999Y-26649999D01*
X31000000Y-26649998D01*
X31000000Y-25700000D01*
X30050001Y-25700000D01*
X30050001Y-26281479D01*
X29550500Y-26281479D01*
X29550499Y-25500000D01*
X29550499Y-24718513D01*
X30050000Y-24718513D01*
X30050000Y-25300000D01*
X31000000Y-25300000D01*
X31000000Y-24350000D01*
X31400000Y-24350000D01*
X31400000Y-26649999D01*
X31981479Y-26649999D01*
X32075149Y-26635164D01*
X32075155Y-26635162D01*
X32188041Y-26577643D01*
X32188050Y-26577636D01*
X32277636Y-26488050D01*
X32277639Y-26488046D01*
X32335166Y-26375144D01*
X32349999Y-26281485D01*
X32349999Y-25907809D01*
X32369683Y-25840770D01*
X32422487Y-25795015D01*
X32491646Y-25785071D01*
X32555201Y-25814096D01*
X32561680Y-25820128D01*
X32582037Y-25840485D01*
X32679063Y-25896503D01*
X32757595Y-25917545D01*
X32817254Y-25953908D01*
X32847784Y-26016755D01*
X32849501Y-26037319D01*
X32849501Y-26294856D01*
X32849502Y-26294882D01*
X32852413Y-26319987D01*
X32852415Y-26319991D01*
X32897793Y-26422764D01*
X32897794Y-26422765D01*
X32977235Y-26502206D01*
X33080009Y-26547585D01*
X33105135Y-26550500D01*
X34694864Y-26550499D01*
X34694879Y-26550497D01*
X34694882Y-26550497D01*
X34719987Y-26547586D01*
X34719988Y-26547585D01*
X34719991Y-26547585D01*
X34822765Y-26502206D01*
X34902206Y-26422765D01*
X34947585Y-26319991D01*
X34950500Y-26294865D01*
X34950499Y-24705136D01*
X34950499Y-24705135D01*
X34950499Y-24705131D01*
X35549500Y-24705131D01*
X35549500Y-26294856D01*
X35549502Y-26294882D01*
X35552413Y-26319987D01*
X35552415Y-26319991D01*
X35597793Y-26422764D01*
X35597794Y-26422765D01*
X35677235Y-26502206D01*
X35780009Y-26547585D01*
X35805135Y-26550500D01*
X37394864Y-26550499D01*
X37394879Y-26550497D01*
X37394882Y-26550497D01*
X37419987Y-26547586D01*
X37419988Y-26547585D01*
X37419991Y-26547585D01*
X37522765Y-26502206D01*
X37602206Y-26422765D01*
X37647585Y-26319991D01*
X37650500Y-26294865D01*
X37650499Y-24705136D01*
X37649280Y-24694624D01*
X37647586Y-24680012D01*
X37647585Y-24680010D01*
X37647585Y-24680009D01*
X37602206Y-24577235D01*
X37522765Y-24497794D01*
X37458264Y-24469314D01*
X37419992Y-24452415D01*
X37394868Y-24449500D01*
X37394865Y-24449500D01*
X37285224Y-24449500D01*
X37218185Y-24429815D01*
X37172430Y-24377011D01*
X37162486Y-24307853D01*
X37163607Y-24301309D01*
X37173499Y-24251573D01*
X37173500Y-24251571D01*
X37173500Y-24123428D01*
X37148502Y-23997761D01*
X37148501Y-23997760D01*
X37148501Y-23997756D01*
X37105406Y-23893716D01*
X37099466Y-23879375D01*
X37099461Y-23879366D01*
X37028276Y-23772831D01*
X37028273Y-23772827D01*
X36937672Y-23682226D01*
X36937668Y-23682223D01*
X36831133Y-23611038D01*
X36831124Y-23611033D01*
X36712744Y-23561999D01*
X36712738Y-23561997D01*
X36587071Y-23537000D01*
X36587069Y-23537000D01*
X36458931Y-23537000D01*
X36458929Y-23537000D01*
X36333261Y-23561997D01*
X36333255Y-23561999D01*
X36214875Y-23611033D01*
X36214866Y-23611038D01*
X36108331Y-23682223D01*
X36108327Y-23682226D01*
X36017726Y-23772827D01*
X36017723Y-23772831D01*
X35946538Y-23879366D01*
X35946533Y-23879375D01*
X35897499Y-23997755D01*
X35897497Y-23997761D01*
X35872500Y-24123428D01*
X35872500Y-24123431D01*
X35872500Y-24251569D01*
X35872500Y-24251571D01*
X35872499Y-24251571D01*
X35883232Y-24305524D01*
X35877005Y-24375116D01*
X35834142Y-24430293D01*
X35788482Y-24448013D01*
X35789013Y-24449965D01*
X35780008Y-24452415D01*
X35677235Y-24497793D01*
X35597794Y-24577234D01*
X35552415Y-24680006D01*
X35552415Y-24680008D01*
X35549500Y-24705131D01*
X34950499Y-24705131D01*
X34950499Y-24705130D01*
X34947586Y-24680012D01*
X34947585Y-24680010D01*
X34947585Y-24680009D01*
X34902206Y-24577235D01*
X34822765Y-24497794D01*
X34758264Y-24469314D01*
X34719992Y-24452415D01*
X34694868Y-24449500D01*
X34694865Y-24449500D01*
X33567800Y-24449500D01*
X33500761Y-24429815D01*
X33455006Y-24377011D01*
X33443800Y-24325500D01*
X33443800Y-24258445D01*
X33443800Y-24258443D01*
X33402877Y-24105716D01*
X33402740Y-24105478D01*
X33323824Y-23968790D01*
X33323818Y-23968782D01*
X33212017Y-23856981D01*
X33212009Y-23856975D01*
X33075090Y-23777926D01*
X33075086Y-23777924D01*
X33075084Y-23777923D01*
X32922357Y-23737000D01*
X32764243Y-23737000D01*
X32611516Y-23777923D01*
X32611509Y-23777926D01*
X32474590Y-23856975D01*
X32474582Y-23856981D01*
X32362781Y-23968782D01*
X32362775Y-23968790D01*
X32283726Y-24105709D01*
X32283723Y-24105716D01*
X32242799Y-24258446D01*
X32241949Y-24264902D01*
X32213677Y-24328796D01*
X32155349Y-24367262D01*
X32085484Y-24368088D01*
X32080690Y-24366636D01*
X32075144Y-24364833D01*
X31981486Y-24350000D01*
X31400000Y-24350000D01*
X31000000Y-24350000D01*
X30418520Y-24350000D01*
X30324850Y-24364835D01*
X30324844Y-24364837D01*
X30211958Y-24422356D01*
X30211949Y-24422363D01*
X30122363Y-24511949D01*
X30122360Y-24511953D01*
X30064833Y-24624855D01*
X30050000Y-24718513D01*
X29550499Y-24718513D01*
X29550499Y-24713647D01*
X29550499Y-24705143D01*
X29550499Y-24705136D01*
X29549280Y-24694624D01*
X29547586Y-24680012D01*
X29547585Y-24680010D01*
X29547585Y-24680009D01*
X29502206Y-24577235D01*
X29422765Y-24497794D01*
X29358264Y-24469314D01*
X29319992Y-24452415D01*
X29294865Y-24449500D01*
X27705143Y-24449500D01*
X27705117Y-24449502D01*
X27680012Y-24452413D01*
X27680008Y-24452415D01*
X27577235Y-24497793D01*
X27497794Y-24577234D01*
X27465407Y-24650584D01*
X27420321Y-24703960D01*
X27353535Y-24724487D01*
X27286253Y-24705648D01*
X27264292Y-24688178D01*
X26574316Y-23998202D01*
X26574314Y-23998200D01*
X26485417Y-23946875D01*
X26460187Y-23932308D01*
X26372049Y-23908692D01*
X26332892Y-23898200D01*
X26332891Y-23898200D01*
X16687819Y-23898200D01*
X16620780Y-23878515D01*
X16600138Y-23861881D01*
X16592845Y-23854588D01*
X16592841Y-23854585D01*
X16478117Y-23777928D01*
X16478104Y-23777921D01*
X16350632Y-23725121D01*
X16350622Y-23725118D01*
X16215295Y-23698200D01*
X16215293Y-23698200D01*
X16077307Y-23698200D01*
X16048690Y-23703892D01*
X15979098Y-23697663D01*
X15923922Y-23654800D01*
X15900678Y-23588910D01*
X15900500Y-23582274D01*
X15900500Y-23245730D01*
X15897646Y-23215300D01*
X15897646Y-23215298D01*
X15852793Y-23087119D01*
X15852792Y-23087117D01*
X15845964Y-23077865D01*
X15772150Y-22977850D01*
X15662882Y-22897207D01*
X15662880Y-22897206D01*
X15534700Y-22852353D01*
X15504270Y-22849500D01*
X15504266Y-22849500D01*
X15295630Y-22849500D01*
X15228591Y-22829815D01*
X15182836Y-22777011D01*
X15172892Y-22707853D01*
X15174013Y-22701307D01*
X15181500Y-22663670D01*
X15181500Y-22535528D01*
X15156502Y-22409861D01*
X15156501Y-22409860D01*
X15156501Y-22409856D01*
X15120089Y-22321952D01*
X15112621Y-22252484D01*
X15143896Y-22190004D01*
X15203985Y-22154352D01*
X15234651Y-22150500D01*
X15504270Y-22150500D01*
X15534699Y-22147646D01*
X15534701Y-22147646D01*
X15598790Y-22125219D01*
X15662882Y-22102793D01*
X15772150Y-22022150D01*
X15852793Y-21912882D01*
X15875219Y-21848790D01*
X15897646Y-21784701D01*
X15897646Y-21784699D01*
X15900500Y-21754269D01*
X15900500Y-21345730D01*
X15897646Y-21315300D01*
X15897646Y-21315298D01*
X15864006Y-21219163D01*
X15852793Y-21187118D01*
X15772150Y-21077850D01*
X15662882Y-20997207D01*
X15662880Y-20997206D01*
X15534700Y-20952353D01*
X15504270Y-20949500D01*
X15504266Y-20949500D01*
X14370734Y-20949500D01*
X14370730Y-20949500D01*
X14340300Y-20952353D01*
X14340298Y-20952353D01*
X14212119Y-20997206D01*
X14212117Y-20997207D01*
X14102850Y-21077850D01*
X14022207Y-21187117D01*
X14001994Y-21244883D01*
X13961272Y-21301658D01*
X13896319Y-21327405D01*
X13878354Y-21327751D01*
X13865393Y-21327060D01*
X13834192Y-21318700D01*
X13708521Y-21318700D01*
X13705219Y-21318524D01*
X13675254Y-21307963D01*
X13644779Y-21299015D01*
X13642543Y-21296435D01*
X13639322Y-21295300D01*
X13619817Y-21270207D01*
X13599024Y-21246211D01*
X13596727Y-21240503D01*
X13596442Y-21240136D01*
X13596402Y-21239694D01*
X13594777Y-21235655D01*
X13587968Y-21216198D01*
X13577793Y-21187118D01*
X13497150Y-21077850D01*
X13387882Y-20997207D01*
X13387880Y-20997206D01*
X13259700Y-20952353D01*
X13229270Y-20949500D01*
X13229266Y-20949500D01*
X12821176Y-20949500D01*
X12754137Y-20929815D01*
X12733495Y-20913181D01*
X12719948Y-20899634D01*
X12686463Y-20838311D01*
X12691447Y-20768619D01*
X12733319Y-20712686D01*
X12798783Y-20688269D01*
X12819789Y-20688551D01*
X12823331Y-20688900D01*
X12951471Y-20688900D01*
X13036015Y-20672082D01*
X13077144Y-20663901D01*
X13195527Y-20614865D01*
X13302069Y-20543676D01*
X13392676Y-20453069D01*
X13463865Y-20346527D01*
X13512901Y-20228144D01*
X13526402Y-20160273D01*
X13537900Y-20102471D01*
X13537900Y-19974328D01*
X13511713Y-19842682D01*
X13513234Y-19842379D01*
X13512669Y-19780120D01*
X13549908Y-19721002D01*
X13613198Y-19691401D01*
X13656151Y-19692356D01*
X13722228Y-19705500D01*
X13722231Y-19705500D01*
X13850371Y-19705500D01*
X13934915Y-19688682D01*
X13976044Y-19680501D01*
X14094427Y-19631465D01*
X14200969Y-19560276D01*
X14291576Y-19469669D01*
X14310636Y-19441144D01*
X14337212Y-19401371D01*
X14390824Y-19356565D01*
X14460149Y-19347858D01*
X14523176Y-19378012D01*
X14539118Y-19395336D01*
X14540638Y-19397341D01*
X14540639Y-19397342D01*
X14543694Y-19401371D01*
X14632077Y-19517922D01*
X14752656Y-19609360D01*
X14752657Y-19609360D01*
X14752658Y-19609361D01*
X14893436Y-19664877D01*
X14981898Y-19675500D01*
X14981903Y-19675500D01*
X15818097Y-19675500D01*
X15818102Y-19675500D01*
X15906564Y-19664877D01*
X16047342Y-19609361D01*
X16167922Y-19517922D01*
X16259361Y-19397342D01*
X16314877Y-19256564D01*
X16325500Y-19168102D01*
X16325500Y-17831898D01*
X16314877Y-17743436D01*
X16259361Y-17602658D01*
X16259360Y-17602657D01*
X16259360Y-17602656D01*
X16167922Y-17482077D01*
X16047343Y-17390639D01*
X15907809Y-17335614D01*
X15906564Y-17335123D01*
X15906563Y-17335122D01*
X15906561Y-17335122D01*
X15860926Y-17329642D01*
X15818102Y-17324500D01*
X14983676Y-17324500D01*
X14916637Y-17304815D01*
X14895995Y-17288181D01*
X14433216Y-16825402D01*
X14433214Y-16825400D01*
X14401147Y-16806886D01*
X14352933Y-16756319D01*
X14339711Y-16687712D01*
X14365679Y-16622848D01*
X14422593Y-16582320D01*
X14463149Y-16575500D01*
X14718097Y-16575500D01*
X14718102Y-16575500D01*
X14806564Y-16564877D01*
X14947342Y-16509361D01*
X15067922Y-16417922D01*
X15159361Y-16297342D01*
X15214877Y-16156564D01*
X15225500Y-16068102D01*
X15225500Y-15454908D01*
X15245185Y-15387869D01*
X15297989Y-15342114D01*
X15367147Y-15332170D01*
X15423132Y-15355138D01*
X15439014Y-15366859D01*
X15449206Y-15374381D01*
X15573119Y-15417741D01*
X15580796Y-15418460D01*
X15602543Y-15420500D01*
X15977456Y-15420499D01*
X16006879Y-15417741D01*
X16130794Y-15374381D01*
X16143453Y-15365037D01*
X16209078Y-15341066D01*
X16277249Y-15356380D01*
X16292012Y-15366003D01*
X16410323Y-15455721D01*
X16410325Y-15455722D01*
X16547141Y-15509675D01*
X16609999Y-15517222D01*
X16610000Y-15517222D01*
X16610000Y-14082775D01*
X16547139Y-14090325D01*
X16544944Y-14090880D01*
X16543102Y-14090809D01*
X16539247Y-14091273D01*
X16539173Y-14090660D01*
X16475125Y-14088222D01*
X16417826Y-14048239D01*
X16391241Y-13983625D01*
X16392944Y-13946468D01*
X16408300Y-13869271D01*
X16408300Y-13741128D01*
X16383302Y-13615461D01*
X16383301Y-13615460D01*
X16383301Y-13615456D01*
X16339012Y-13508533D01*
X16331934Y-13491445D01*
X16334301Y-13490464D01*
X16333137Y-13484879D01*
X16324943Y-13470112D01*
X16326154Y-13451384D01*
X16322324Y-13433012D01*
X16328392Y-13416789D01*
X16329453Y-13400388D01*
X16346157Y-13369297D01*
X16370230Y-13336678D01*
X16425877Y-13294428D01*
X16495533Y-13288969D01*
X16557083Y-13322036D01*
X16569763Y-13336670D01*
X16632850Y-13422150D01*
X16742118Y-13502793D01*
X16784845Y-13517744D01*
X16870299Y-13547646D01*
X16900730Y-13550500D01*
X16900734Y-13550500D01*
X17309270Y-13550500D01*
X17339699Y-13547646D01*
X17339701Y-13547646D01*
X17403790Y-13525219D01*
X17467882Y-13502793D01*
X17577150Y-13422150D01*
X17657793Y-13312882D01*
X17693780Y-13210037D01*
X17702646Y-13184701D01*
X17702646Y-13184699D01*
X17705500Y-13154269D01*
X17705500Y-11395730D01*
X17702646Y-11365300D01*
X17702646Y-11365298D01*
X17666744Y-11262700D01*
X17657793Y-11237118D01*
X17577150Y-11127850D01*
X17467882Y-11047207D01*
X17467880Y-11047206D01*
X17339700Y-11002353D01*
X17309270Y-10999500D01*
X17309266Y-10999500D01*
X16900734Y-10999500D01*
X16891829Y-11000335D01*
X16883446Y-11001121D01*
X16814862Y-10987779D01*
X16784191Y-10965343D01*
X16416342Y-10597494D01*
X16382857Y-10536171D01*
X16382406Y-10534004D01*
X16367213Y-10457628D01*
X16359501Y-10418856D01*
X16310465Y-10300473D01*
X16310464Y-10300472D01*
X16310461Y-10300466D01*
X16239276Y-10193931D01*
X16239273Y-10193927D01*
X16148672Y-10103326D01*
X16148668Y-10103323D01*
X16042133Y-10032138D01*
X16042124Y-10032133D01*
X15923744Y-9983099D01*
X15923738Y-9983097D01*
X15798071Y-9958100D01*
X15798069Y-9958100D01*
X15669931Y-9958100D01*
X15669929Y-9958100D01*
X15544261Y-9983097D01*
X15544255Y-9983099D01*
X15425875Y-10032133D01*
X15425866Y-10032138D01*
X15319331Y-10103323D01*
X15319327Y-10103326D01*
X15228726Y-10193927D01*
X15228723Y-10193931D01*
X15157538Y-10300466D01*
X15157533Y-10300475D01*
X15108499Y-10418855D01*
X15108497Y-10418861D01*
X15083500Y-10544528D01*
X15083500Y-10544531D01*
X15083500Y-10672669D01*
X15083500Y-10672671D01*
X15083499Y-10672671D01*
X15108497Y-10798338D01*
X15108499Y-10798344D01*
X15157533Y-10916724D01*
X15157538Y-10916732D01*
X15158685Y-10918449D01*
X15159009Y-10919485D01*
X15160408Y-10922102D01*
X15159911Y-10922367D01*
X15179563Y-10985126D01*
X15161079Y-11052506D01*
X15109100Y-11099197D01*
X15040130Y-11110373D01*
X14981950Y-11087111D01*
X14966582Y-11075769D01*
X14927882Y-11047207D01*
X14927880Y-11047206D01*
X14799700Y-11002353D01*
X14769270Y-10999500D01*
X14769266Y-10999500D01*
X14492500Y-10999500D01*
X14425461Y-10979815D01*
X14379706Y-10927011D01*
X14368500Y-10875500D01*
X14368500Y-10733145D01*
X14368500Y-10733143D01*
X14327577Y-10580416D01*
X14327573Y-10580409D01*
X14248524Y-10443490D01*
X14248518Y-10443482D01*
X14136717Y-10331681D01*
X14136709Y-10331675D01*
X13999790Y-10252626D01*
X13999786Y-10252624D01*
X13999784Y-10252623D01*
X13847057Y-10211700D01*
X13688943Y-10211700D01*
X13536216Y-10252623D01*
X13536209Y-10252626D01*
X13399290Y-10331675D01*
X13399282Y-10331681D01*
X13287481Y-10443482D01*
X13287475Y-10443490D01*
X13208426Y-10580409D01*
X13208423Y-10580416D01*
X13167500Y-10733143D01*
X13167500Y-10759590D01*
X13147815Y-10826629D01*
X13131181Y-10847271D01*
X12954511Y-11023940D01*
X12953237Y-11025601D01*
X12928506Y-11049871D01*
X12822850Y-11127849D01*
X12742207Y-11237117D01*
X12742206Y-11237119D01*
X12697353Y-11365298D01*
X12697353Y-11365300D01*
X12694500Y-11395730D01*
X12694500Y-13154269D01*
X12697353Y-13184699D01*
X12697354Y-13184701D01*
X12732590Y-13285400D01*
X12736152Y-13355179D01*
X12718651Y-13395246D01*
X12660438Y-13482366D01*
X12660433Y-13482375D01*
X12611399Y-13600755D01*
X12611397Y-13600761D01*
X12586400Y-13726428D01*
X12586400Y-13837490D01*
X12566715Y-13904529D01*
X12513911Y-13950284D01*
X12444753Y-13960228D01*
X12381197Y-13931203D01*
X12374719Y-13925171D01*
X12321965Y-13872417D01*
X12321963Y-13872415D01*
X12245306Y-13828157D01*
X12224939Y-13816398D01*
X12224938Y-13816397D01*
X12224937Y-13816397D01*
X12116718Y-13787400D01*
X12116717Y-13787400D01*
X11078500Y-13787400D01*
X11011461Y-13767715D01*
X10965706Y-13714911D01*
X10956086Y-13670693D01*
X10955097Y-13670791D01*
X10954500Y-13664728D01*
X10929502Y-13539061D01*
X10929501Y-13539060D01*
X10929501Y-13539056D01*
X10885576Y-13433012D01*
X10880466Y-13420675D01*
X10880461Y-13420666D01*
X10809276Y-13314131D01*
X10809273Y-13314127D01*
X10718672Y-13223526D01*
X10718668Y-13223523D01*
X10607062Y-13148950D01*
X10608229Y-13147203D01*
X10565189Y-13104933D01*
X10549722Y-13036797D01*
X10573547Y-12971115D01*
X10585793Y-12956853D01*
X10885829Y-12656818D01*
X10947152Y-12623333D01*
X10973510Y-12620499D01*
X10977454Y-12620499D01*
X10977456Y-12620499D01*
X11006879Y-12617741D01*
X11130794Y-12574381D01*
X11226367Y-12503844D01*
X11291995Y-12479874D01*
X11360165Y-12495189D01*
X11373629Y-12503842D01*
X11469206Y-12574381D01*
X11510511Y-12588834D01*
X11593119Y-12617741D01*
X11600796Y-12618460D01*
X11622543Y-12620500D01*
X11997456Y-12620499D01*
X12026879Y-12617741D01*
X12150794Y-12574381D01*
X12256423Y-12496423D01*
X12334381Y-12390794D01*
X12372259Y-12282546D01*
X12377741Y-12266881D01*
X12377741Y-12266879D01*
X12379059Y-12252819D01*
X12380500Y-12237457D01*
X12380499Y-11762544D01*
X12377741Y-11733121D01*
X12334381Y-11609206D01*
X12279844Y-11535312D01*
X12255874Y-11469684D01*
X12265054Y-11414226D01*
X12272714Y-11395734D01*
X12308001Y-11310544D01*
X12322607Y-11237117D01*
X12333000Y-11184871D01*
X12333000Y-11056728D01*
X12308002Y-10931061D01*
X12308001Y-10931060D01*
X12308001Y-10931056D01*
X12258965Y-10812673D01*
X12258964Y-10812672D01*
X12258961Y-10812666D01*
X12184392Y-10701066D01*
X12185928Y-10700039D01*
X12161993Y-10643693D01*
X12173779Y-10574824D01*
X12211524Y-10529559D01*
X12256423Y-10496423D01*
X12334381Y-10390794D01*
X12365986Y-10300473D01*
X12377741Y-10266881D01*
X12377741Y-10266879D01*
X12377896Y-10265229D01*
X12380500Y-10237457D01*
X12380499Y-9762544D01*
X12377741Y-9733121D01*
X12334381Y-9609206D01*
X12258507Y-9506401D01*
X12254601Y-9501108D01*
X12230630Y-9435479D01*
X12245945Y-9367308D01*
X12295686Y-9318240D01*
X12364058Y-9303853D01*
X12378556Y-9305855D01*
X12406931Y-9311500D01*
X12535071Y-9311500D01*
X12619615Y-9294682D01*
X12660744Y-9286501D01*
X12779127Y-9237465D01*
X12885669Y-9166276D01*
X12976276Y-9075669D01*
X13047465Y-8969127D01*
X13096501Y-8850744D01*
X13107425Y-8795829D01*
X13121500Y-8725071D01*
X13121500Y-8596928D01*
X13097383Y-8475688D01*
X13095000Y-8451496D01*
X13095000Y-7525000D01*
X12595000Y-7525000D01*
X12595000Y-7624200D01*
X12575315Y-7691239D01*
X12522511Y-7736994D01*
X12453353Y-7746938D01*
X12389797Y-7717913D01*
X12353959Y-7665155D01*
X12336093Y-7614100D01*
X12334381Y-7609206D01*
X12272234Y-7525000D01*
X12256423Y-7503576D01*
X12167338Y-7437829D01*
X12150794Y-7425619D01*
X12150792Y-7425618D01*
X12026880Y-7382258D01*
X11997461Y-7379500D01*
X11622546Y-7379500D01*
X11593125Y-7382258D01*
X11593115Y-7382260D01*
X11460435Y-7428688D01*
X11459672Y-7426507D01*
X11403953Y-7437829D01*
X11338831Y-7412513D01*
X11297733Y-7356009D01*
X11290500Y-7314278D01*
X11290500Y-6651376D01*
X11310185Y-6584337D01*
X11326819Y-6563695D01*
X11433568Y-6456946D01*
X12595000Y-6456946D01*
X12595000Y-7125000D01*
X13095000Y-7125000D01*
X13095000Y-5950832D01*
X13013557Y-5960613D01*
X13013556Y-5960613D01*
X12872904Y-6016079D01*
X12752435Y-6107435D01*
X12661079Y-6227904D01*
X12605613Y-6368556D01*
X12595000Y-6456946D01*
X11433568Y-6456946D01*
X11524961Y-6365553D01*
X11943699Y-5946815D01*
X12420500Y-5470014D01*
X12486392Y-5355886D01*
X12520500Y-5228592D01*
X12520500Y-5096807D01*
X12520500Y-3806669D01*
X12540185Y-3739630D01*
X12592989Y-3693875D01*
X12662147Y-3683931D01*
X12689993Y-3691316D01*
X12710944Y-3699578D01*
X12780000Y-3707870D01*
X12780000Y-3124000D01*
X12782550Y-3115314D01*
X12781262Y-3106353D01*
X12792240Y-3082312D01*
X12799685Y-3056961D01*
X12806525Y-3051033D01*
X12810287Y-3042797D01*
X12832521Y-3028507D01*
X12852489Y-3011206D01*
X12863003Y-3008918D01*
X12869065Y-3005023D01*
X12904000Y-3000000D01*
X13056000Y-3000000D01*
X13123039Y-3019685D01*
X13168794Y-3072489D01*
X13180000Y-3124000D01*
X13180000Y-3707869D01*
X13249052Y-3699579D01*
X13395038Y-3642010D01*
X13395820Y-3643994D01*
X13452593Y-3630896D01*
X13518359Y-3654489D01*
X13560929Y-3709893D01*
X13569300Y-3754681D01*
X13569300Y-4468372D01*
X13549615Y-4535411D01*
X13545070Y-4542005D01*
X13486148Y-4621841D01*
X13486147Y-4621842D01*
X13442291Y-4747173D01*
X13442289Y-4747185D01*
X13439500Y-4776929D01*
X13439500Y-5223070D01*
X13442289Y-5252814D01*
X13442291Y-5252826D01*
X13486147Y-5378156D01*
X13495269Y-5390515D01*
X13519241Y-5456144D01*
X13519500Y-5464150D01*
X13519500Y-5756593D01*
X13537015Y-5821962D01*
X13535352Y-5891812D01*
X13499529Y-5946815D01*
X13495000Y-5950832D01*
X13495000Y-8699165D01*
X13576442Y-8689386D01*
X13717095Y-8633920D01*
X13837566Y-8542563D01*
X13893125Y-8469298D01*
X13949317Y-8427775D01*
X14019038Y-8423223D01*
X14080152Y-8457087D01*
X14091702Y-8470594D01*
X14092848Y-8472148D01*
X14092850Y-8472150D01*
X14202118Y-8552793D01*
X14244845Y-8567744D01*
X14330299Y-8597646D01*
X14360730Y-8600500D01*
X14360734Y-8600500D01*
X14769270Y-8600500D01*
X14807212Y-8596942D01*
X14807337Y-8598283D01*
X14813801Y-8595873D01*
X14839566Y-8601477D01*
X14865873Y-8603335D01*
X14874979Y-8609181D01*
X14882074Y-8610725D01*
X14910328Y-8631876D01*
X15074281Y-8795829D01*
X15107766Y-8857152D01*
X15110600Y-8883510D01*
X15110600Y-8944969D01*
X15110600Y-8944971D01*
X15110599Y-8944971D01*
X15135597Y-9070638D01*
X15135599Y-9070644D01*
X15184633Y-9189024D01*
X15184638Y-9189033D01*
X15255823Y-9295568D01*
X15255826Y-9295572D01*
X15346427Y-9386173D01*
X15346431Y-9386176D01*
X15452966Y-9457361D01*
X15452975Y-9457366D01*
X15473899Y-9466033D01*
X15571356Y-9506401D01*
X15571360Y-9506401D01*
X15571361Y-9506402D01*
X15697028Y-9531400D01*
X15697031Y-9531400D01*
X15825171Y-9531400D01*
X15909715Y-9514582D01*
X15950844Y-9506401D01*
X16069227Y-9457365D01*
X16175769Y-9386176D01*
X16266376Y-9295569D01*
X16337565Y-9189027D01*
X16337566Y-9189024D01*
X16337568Y-9189021D01*
X16372663Y-9104292D01*
X16383826Y-9077342D01*
X16427665Y-9022940D01*
X16493959Y-9000875D01*
X16561659Y-9018154D01*
X16586067Y-9037115D01*
X20179004Y-12630052D01*
X20212489Y-12691375D01*
X20207505Y-12761067D01*
X20179005Y-12805414D01*
X20031081Y-12953338D01*
X19891396Y-13135377D01*
X19891385Y-13135394D01*
X19833936Y-13234900D01*
X19783369Y-13283115D01*
X19726549Y-13296900D01*
X18711582Y-13296900D01*
X18603363Y-13325897D01*
X18603360Y-13325898D01*
X18506335Y-13381916D01*
X18145069Y-13743181D01*
X18083746Y-13776666D01*
X18057389Y-13779500D01*
X17902546Y-13779500D01*
X17873125Y-13782258D01*
X17873115Y-13782260D01*
X17749207Y-13825618D01*
X17643576Y-13903576D01*
X17565618Y-14009207D01*
X17522258Y-14133118D01*
X17522258Y-14133119D01*
X17521336Y-14142956D01*
X17495476Y-14207864D01*
X17438630Y-14248487D01*
X17368845Y-14251928D01*
X17322953Y-14230179D01*
X17209676Y-14144278D01*
X17072858Y-14090324D01*
X17010000Y-14082775D01*
X17010000Y-15517222D01*
X17072858Y-15509675D01*
X17209674Y-15455722D01*
X17209676Y-15455721D01*
X17326859Y-15366859D01*
X17415721Y-15249676D01*
X17469675Y-15112858D01*
X17480000Y-15026884D01*
X17480000Y-15021328D01*
X17499685Y-14954289D01*
X17552489Y-14908534D01*
X17621647Y-14898590D01*
X17677633Y-14921557D01*
X17749206Y-14974381D01*
X17790511Y-14988834D01*
X17873119Y-15017741D01*
X17880796Y-15018460D01*
X17902543Y-15020500D01*
X18277456Y-15020499D01*
X18306879Y-15017741D01*
X18306881Y-15017740D01*
X18310893Y-15017364D01*
X18379477Y-15030706D01*
X18429960Y-15079009D01*
X18446315Y-15146938D01*
X18423349Y-15212925D01*
X18410147Y-15228504D01*
X16988737Y-16649915D01*
X16909517Y-16729134D01*
X16909513Y-16729140D01*
X16853498Y-16826160D01*
X16853497Y-16826163D01*
X16824500Y-16934382D01*
X16824500Y-19330823D01*
X16804815Y-19397862D01*
X16783617Y-19420477D01*
X16784420Y-19421280D01*
X16777851Y-19427848D01*
X16697207Y-19537117D01*
X16697206Y-19537119D01*
X16652353Y-19665298D01*
X16652353Y-19665300D01*
X16649500Y-19695730D01*
X16649500Y-20979269D01*
X16652353Y-21009699D01*
X16652353Y-21009701D01*
X16697206Y-21137880D01*
X16697207Y-21137882D01*
X16777850Y-21247150D01*
X16887118Y-21327793D01*
X16920472Y-21339464D01*
X17015299Y-21372646D01*
X17045730Y-21375500D01*
X17045734Y-21375500D01*
X17454270Y-21375500D01*
X17484699Y-21372646D01*
X17484701Y-21372646D01*
X17561609Y-21345734D01*
X17612882Y-21327793D01*
X17722150Y-21247150D01*
X17802793Y-21137882D01*
X17825219Y-21073790D01*
X17847646Y-21009701D01*
X17847646Y-21009699D01*
X17850500Y-20979269D01*
X17850500Y-19720994D01*
X17870185Y-19653955D01*
X17922989Y-19608200D01*
X17989285Y-19597879D01*
X18000000Y-19599165D01*
X18000000Y-17325832D01*
X17918557Y-17335613D01*
X17918553Y-17335614D01*
X17844989Y-17364624D01*
X17813319Y-17367482D01*
X17781853Y-17372007D01*
X17778773Y-17370600D01*
X17775402Y-17370905D01*
X17747220Y-17356190D01*
X17718297Y-17342982D01*
X17716466Y-17340133D01*
X17713466Y-17338567D01*
X17697711Y-17310949D01*
X17680523Y-17284204D01*
X17679872Y-17279678D01*
X17678845Y-17277878D01*
X17675500Y-17249269D01*
X17675500Y-17218009D01*
X17695185Y-17150970D01*
X17711815Y-17130332D01*
X18154302Y-16687844D01*
X18215625Y-16654360D01*
X18285317Y-16659344D01*
X18341250Y-16701216D01*
X18356544Y-16728073D01*
X18366133Y-16751223D01*
X18366138Y-16751233D01*
X18437323Y-16857768D01*
X18437326Y-16857772D01*
X18480780Y-16901225D01*
X18495484Y-16928153D01*
X18512077Y-16953972D01*
X18512968Y-16960171D01*
X18514266Y-16962548D01*
X18517100Y-16988907D01*
X18517100Y-17200113D01*
X18497415Y-17267152D01*
X18444611Y-17312907D01*
X18408176Y-17318579D01*
X18400000Y-17325832D01*
X18400000Y-19599166D01*
X18408670Y-19606857D01*
X18447224Y-19613321D01*
X18498948Y-19660293D01*
X18517100Y-19724885D01*
X18517100Y-20074082D01*
X18517100Y-20186118D01*
X18545275Y-20291272D01*
X18549500Y-20323360D01*
X18549500Y-20979269D01*
X18552353Y-21009699D01*
X18552353Y-21009701D01*
X18597206Y-21137880D01*
X18597207Y-21137882D01*
X18677850Y-21247150D01*
X18787118Y-21327793D01*
X18820472Y-21339464D01*
X18915299Y-21372646D01*
X18945730Y-21375500D01*
X18945734Y-21375500D01*
X19354270Y-21375500D01*
X19384699Y-21372646D01*
X19384701Y-21372646D01*
X19461609Y-21345734D01*
X19512882Y-21327793D01*
X19622150Y-21247150D01*
X19702793Y-21137882D01*
X19725219Y-21073790D01*
X19747646Y-21009701D01*
X19747646Y-21009699D01*
X19750500Y-20979269D01*
X19750500Y-20975258D01*
X23414500Y-20975258D01*
X23414500Y-21204741D01*
X23434228Y-21354584D01*
X23444452Y-21432238D01*
X23444453Y-21432240D01*
X23503842Y-21653887D01*
X23591650Y-21865876D01*
X23591657Y-21865890D01*
X23706392Y-22064617D01*
X23846081Y-22246661D01*
X23846089Y-22246670D01*
X24008330Y-22408911D01*
X24008338Y-22408918D01*
X24190382Y-22548607D01*
X24190385Y-22548608D01*
X24190388Y-22548611D01*
X24389112Y-22663344D01*
X24389117Y-22663346D01*
X24389123Y-22663349D01*
X24472120Y-22697727D01*
X24601113Y-22751158D01*
X24822762Y-22810548D01*
X25050266Y-22840500D01*
X25050273Y-22840500D01*
X25279727Y-22840500D01*
X25279734Y-22840500D01*
X25507238Y-22810548D01*
X25728887Y-22751158D01*
X25940888Y-22663344D01*
X26139612Y-22548611D01*
X26321661Y-22408919D01*
X26321665Y-22408914D01*
X26321670Y-22408911D01*
X26483911Y-22246670D01*
X26483914Y-22246665D01*
X26483919Y-22246661D01*
X26623611Y-22064612D01*
X26738344Y-21865888D01*
X26826158Y-21653887D01*
X26885548Y-21432238D01*
X26915500Y-21204734D01*
X26915500Y-20975266D01*
X26885548Y-20747762D01*
X26826158Y-20526113D01*
X26776190Y-20405480D01*
X26738349Y-20314123D01*
X26738346Y-20314117D01*
X26738344Y-20314112D01*
X26623611Y-20115388D01*
X26623608Y-20115385D01*
X26623607Y-20115382D01*
X26483918Y-19933338D01*
X26483911Y-19933330D01*
X26321670Y-19771089D01*
X26321661Y-19771081D01*
X26139617Y-19631392D01*
X26101456Y-19609360D01*
X25976331Y-19537119D01*
X25940890Y-19516657D01*
X25940876Y-19516650D01*
X25728887Y-19428842D01*
X25676242Y-19414736D01*
X25507238Y-19369452D01*
X25459196Y-19363127D01*
X25279741Y-19339500D01*
X25279734Y-19339500D01*
X25050266Y-19339500D01*
X25050258Y-19339500D01*
X24833715Y-19368009D01*
X24822762Y-19369452D01*
X24733311Y-19393420D01*
X24601112Y-19428842D01*
X24389123Y-19516650D01*
X24389109Y-19516657D01*
X24190382Y-19631392D01*
X24008338Y-19771081D01*
X23846081Y-19933338D01*
X23706392Y-20115382D01*
X23591657Y-20314109D01*
X23591650Y-20314123D01*
X23503842Y-20526112D01*
X23503842Y-20526113D01*
X23453851Y-20712686D01*
X23444453Y-20747759D01*
X23444451Y-20747770D01*
X23414500Y-20975258D01*
X19750500Y-20975258D01*
X19750500Y-19695730D01*
X19747646Y-19665300D01*
X19747646Y-19665298D01*
X19702793Y-19537119D01*
X19702792Y-19537117D01*
X19694285Y-19525590D01*
X19622150Y-19427850D01*
X19512882Y-19347207D01*
X19512880Y-19347206D01*
X19451145Y-19325604D01*
X19394369Y-19284882D01*
X19368622Y-19219929D01*
X19368100Y-19208563D01*
X19368100Y-18951022D01*
X19387785Y-18883983D01*
X19440589Y-18838228D01*
X19509747Y-18828284D01*
X19573303Y-18857309D01*
X19599487Y-18889022D01*
X19683075Y-19033803D01*
X19842718Y-19241851D01*
X19842726Y-19241860D01*
X20028140Y-19427274D01*
X20028148Y-19427281D01*
X20028149Y-19427282D01*
X20030182Y-19428842D01*
X20236196Y-19586924D01*
X20463299Y-19718041D01*
X20463309Y-19718046D01*
X20705571Y-19818394D01*
X20705581Y-19818398D01*
X20958884Y-19886270D01*
X21218880Y-19920500D01*
X21218887Y-19920500D01*
X21481113Y-19920500D01*
X21481120Y-19920500D01*
X21741116Y-19886270D01*
X21994419Y-19818398D01*
X22220179Y-19724885D01*
X22236690Y-19718046D01*
X22236691Y-19718045D01*
X22236697Y-19718043D01*
X22463803Y-19586924D01*
X22671851Y-19427282D01*
X22671855Y-19427277D01*
X22671860Y-19427274D01*
X22857274Y-19241860D01*
X22857277Y-19241855D01*
X22857282Y-19241851D01*
X23016924Y-19033803D01*
X23148043Y-18806697D01*
X23248398Y-18564419D01*
X23316270Y-18311116D01*
X23350500Y-18051120D01*
X23350500Y-17816530D01*
X28559500Y-17816530D01*
X28559500Y-18023469D01*
X28599868Y-18226412D01*
X28599870Y-18226420D01*
X28679058Y-18417596D01*
X28794024Y-18589657D01*
X28940342Y-18735975D01*
X28940345Y-18735977D01*
X29112402Y-18850941D01*
X29303580Y-18930130D01*
X29506530Y-18970499D01*
X29506534Y-18970500D01*
X29506535Y-18970500D01*
X29713466Y-18970500D01*
X29713467Y-18970499D01*
X29916420Y-18930130D01*
X30107598Y-18850941D01*
X30279655Y-18735977D01*
X30425977Y-18589655D01*
X30540941Y-18417598D01*
X30620130Y-18226420D01*
X30660500Y-18023465D01*
X30660500Y-17816535D01*
X30620130Y-17613580D01*
X30540941Y-17422402D01*
X30425977Y-17250345D01*
X30425975Y-17250342D01*
X30279657Y-17104024D01*
X30131963Y-17005339D01*
X30107598Y-16989059D01*
X29986808Y-16939026D01*
X29916420Y-16909870D01*
X29916412Y-16909868D01*
X29713469Y-16869500D01*
X29713465Y-16869500D01*
X29506535Y-16869500D01*
X29506530Y-16869500D01*
X29303587Y-16909868D01*
X29303579Y-16909870D01*
X29112403Y-16989058D01*
X28940342Y-17104024D01*
X28794024Y-17250342D01*
X28679058Y-17422403D01*
X28599870Y-17613579D01*
X28599868Y-17613587D01*
X28559500Y-17816530D01*
X23350500Y-17816530D01*
X23350500Y-17788880D01*
X23316270Y-17528884D01*
X23248398Y-17275581D01*
X23212403Y-17188682D01*
X23148046Y-17033309D01*
X23148041Y-17033299D01*
X23016924Y-16806196D01*
X22857281Y-16598148D01*
X22857274Y-16598140D01*
X22786315Y-16527181D01*
X22752830Y-16465858D01*
X22757814Y-16396166D01*
X22799686Y-16340233D01*
X22865150Y-16315816D01*
X22873996Y-16315500D01*
X23441016Y-16315500D01*
X23441018Y-16315500D01*
X23549237Y-16286503D01*
X23646263Y-16230485D01*
X24197759Y-15678987D01*
X24259080Y-15645504D01*
X24328771Y-15650488D01*
X24347426Y-15659277D01*
X24389112Y-15683344D01*
X24389120Y-15683347D01*
X24389123Y-15683349D01*
X24480480Y-15721190D01*
X24601113Y-15771158D01*
X24822762Y-15830548D01*
X25050266Y-15860500D01*
X25050273Y-15860500D01*
X25279727Y-15860500D01*
X25279734Y-15860500D01*
X25507238Y-15830548D01*
X25728887Y-15771158D01*
X25940888Y-15683344D01*
X26139612Y-15568611D01*
X26321661Y-15428919D01*
X26321665Y-15428914D01*
X26321670Y-15428911D01*
X26483911Y-15266670D01*
X26483914Y-15266665D01*
X26483919Y-15266661D01*
X26623611Y-15084612D01*
X26738344Y-14885888D01*
X26739979Y-14881942D01*
X26758960Y-14836116D01*
X26826158Y-14673887D01*
X26885548Y-14452238D01*
X26915500Y-14224734D01*
X26915500Y-13995266D01*
X26885548Y-13767762D01*
X26826158Y-13546113D01*
X26774684Y-13421844D01*
X26738349Y-13334123D01*
X26738346Y-13334117D01*
X26738344Y-13334112D01*
X26623611Y-13135388D01*
X26623608Y-13135385D01*
X26623607Y-13135382D01*
X26483918Y-12953338D01*
X26483911Y-12953330D01*
X26321670Y-12791089D01*
X26321661Y-12791081D01*
X26139617Y-12651392D01*
X26086110Y-12620500D01*
X25987993Y-12563852D01*
X25940890Y-12536657D01*
X25940876Y-12536650D01*
X25728887Y-12448842D01*
X25685229Y-12437144D01*
X25507238Y-12389452D01*
X25469215Y-12384446D01*
X25279741Y-12359500D01*
X25279734Y-12359500D01*
X25050266Y-12359500D01*
X25050258Y-12359500D01*
X24833715Y-12388009D01*
X24822762Y-12389452D01*
X24745034Y-12410279D01*
X24601112Y-12448842D01*
X24389123Y-12536650D01*
X24389110Y-12536656D01*
X24347435Y-12560717D01*
X24279535Y-12577187D01*
X24213508Y-12554334D01*
X24197757Y-12541009D01*
X23669565Y-12012817D01*
X23669563Y-12012815D01*
X23572537Y-11956797D01*
X23464318Y-11927800D01*
X23464317Y-11927800D01*
X22746321Y-11927800D01*
X22679282Y-11908115D01*
X22658640Y-11891481D01*
X21757216Y-10990058D01*
X21859970Y-10921401D01*
X21971401Y-10809970D01*
X22040058Y-10707216D01*
X22970539Y-11637697D01*
X23099836Y-11469195D01*
X23237472Y-11230802D01*
X23237479Y-11230787D01*
X23342819Y-10976471D01*
X23414069Y-10710565D01*
X23450000Y-10437641D01*
X23450000Y-10196530D01*
X33639500Y-10196530D01*
X33639500Y-10403469D01*
X33679868Y-10606412D01*
X33679870Y-10606420D01*
X33752759Y-10782390D01*
X33759059Y-10797598D01*
X33767326Y-10809970D01*
X33874024Y-10969657D01*
X34020342Y-11115975D01*
X34020345Y-11115977D01*
X34192402Y-11230941D01*
X34383580Y-11310130D01*
X34586530Y-11350499D01*
X34586534Y-11350500D01*
X34586535Y-11350500D01*
X34793466Y-11350500D01*
X34793467Y-11350499D01*
X34996420Y-11310130D01*
X35187598Y-11230941D01*
X35359655Y-11115977D01*
X35505977Y-10969655D01*
X35620941Y-10797598D01*
X35700130Y-10606420D01*
X35740500Y-10403465D01*
X35740500Y-10196535D01*
X35700130Y-9993580D01*
X35620941Y-9802402D01*
X35505977Y-9630345D01*
X35505975Y-9630342D01*
X35359657Y-9484024D01*
X35272245Y-9425618D01*
X35187598Y-9369059D01*
X35182849Y-9367092D01*
X34996420Y-9289870D01*
X34996412Y-9289868D01*
X34793469Y-9249500D01*
X34793465Y-9249500D01*
X34586535Y-9249500D01*
X34586530Y-9249500D01*
X34383587Y-9289868D01*
X34383579Y-9289870D01*
X34192403Y-9369058D01*
X34020342Y-9484024D01*
X33874024Y-9630342D01*
X33759058Y-9802403D01*
X33679870Y-9993579D01*
X33679868Y-9993587D01*
X33639500Y-10196530D01*
X23450000Y-10196530D01*
X23450000Y-10162358D01*
X23414069Y-9889434D01*
X23342819Y-9623528D01*
X23237479Y-9369212D01*
X23237472Y-9369197D01*
X23099836Y-9130803D01*
X22970539Y-8962301D01*
X22040058Y-9892782D01*
X21971401Y-9790030D01*
X21859970Y-9678599D01*
X21757216Y-9609941D01*
X22687697Y-8679459D01*
X22687697Y-8679458D01*
X22519200Y-8550166D01*
X22280802Y-8412527D01*
X22280787Y-8412520D01*
X22026471Y-8307180D01*
X21760565Y-8235930D01*
X21487642Y-8200000D01*
X21212358Y-8200000D01*
X20939434Y-8235930D01*
X20673528Y-8307180D01*
X20419212Y-8412520D01*
X20419197Y-8412527D01*
X20180799Y-8550166D01*
X20012301Y-8679458D01*
X20012301Y-8679459D01*
X20942783Y-9609941D01*
X20840030Y-9678599D01*
X20728599Y-9790030D01*
X20659941Y-9892783D01*
X19729459Y-8962301D01*
X19729458Y-8962301D01*
X19600166Y-9130799D01*
X19462527Y-9369197D01*
X19462520Y-9369212D01*
X19357180Y-9623528D01*
X19285930Y-9889434D01*
X19250000Y-10162358D01*
X19250000Y-10198190D01*
X19230315Y-10265229D01*
X19177511Y-10310984D01*
X19108353Y-10320928D01*
X19044797Y-10291903D01*
X19038319Y-10285871D01*
X17476191Y-8723743D01*
X17442706Y-8662420D01*
X17447690Y-8592728D01*
X17489562Y-8536795D01*
X17489947Y-8536508D01*
X17577150Y-8472150D01*
X17657793Y-8362882D01*
X17680219Y-8298790D01*
X17702646Y-8234701D01*
X17702646Y-8234699D01*
X17705500Y-8204269D01*
X17705500Y-6445730D01*
X17702646Y-6415300D01*
X17702646Y-6415298D01*
X17657793Y-6287119D01*
X17657792Y-6287117D01*
X17614091Y-6227904D01*
X17577150Y-6177850D01*
X17467882Y-6097207D01*
X17467880Y-6097206D01*
X17339700Y-6052353D01*
X17309270Y-6049500D01*
X17309266Y-6049500D01*
X17133976Y-6049500D01*
X17066937Y-6029815D01*
X17046295Y-6013181D01*
X16778372Y-5745258D01*
X29769500Y-5745258D01*
X29769500Y-5974741D01*
X29793508Y-6157092D01*
X29799452Y-6202238D01*
X29822196Y-6287119D01*
X29858842Y-6423887D01*
X29946650Y-6635876D01*
X29946657Y-6635890D01*
X30061392Y-6834617D01*
X30201081Y-7016661D01*
X30201089Y-7016670D01*
X30363330Y-7178911D01*
X30363338Y-7178918D01*
X30545382Y-7318607D01*
X30545385Y-7318608D01*
X30545388Y-7318611D01*
X30744112Y-7433344D01*
X30744117Y-7433346D01*
X30744123Y-7433349D01*
X30819500Y-7464571D01*
X30956113Y-7521158D01*
X31177762Y-7580548D01*
X31405266Y-7610500D01*
X31405273Y-7610500D01*
X31634727Y-7610500D01*
X31634734Y-7610500D01*
X31862238Y-7580548D01*
X32083887Y-7521158D01*
X32295888Y-7433344D01*
X32494612Y-7318611D01*
X32676661Y-7178919D01*
X32676665Y-7178914D01*
X32676670Y-7178911D01*
X32838911Y-7016670D01*
X32838914Y-7016665D01*
X32838919Y-7016661D01*
X32978611Y-6834612D01*
X33093344Y-6635888D01*
X33181158Y-6423887D01*
X33240548Y-6202238D01*
X33270500Y-5974734D01*
X33270500Y-5745266D01*
X33240548Y-5517762D01*
X33181158Y-5296113D01*
X33110489Y-5125503D01*
X33093349Y-5084123D01*
X33093346Y-5084117D01*
X33093344Y-5084112D01*
X32978611Y-4885388D01*
X32978608Y-4885385D01*
X32978607Y-4885382D01*
X32871447Y-4745730D01*
X32838919Y-4703339D01*
X32838918Y-4703338D01*
X32838911Y-4703330D01*
X32676670Y-4541089D01*
X32676661Y-4541081D01*
X32494617Y-4401392D01*
X32487368Y-4397207D01*
X32346194Y-4315700D01*
X32295890Y-4286657D01*
X32295876Y-4286650D01*
X32083887Y-4198842D01*
X32052347Y-4190391D01*
X31862238Y-4139452D01*
X31811712Y-4132800D01*
X31634741Y-4109500D01*
X31634734Y-4109500D01*
X31405266Y-4109500D01*
X31405258Y-4109500D01*
X31188715Y-4138009D01*
X31177762Y-4139452D01*
X31149529Y-4147017D01*
X30956112Y-4198842D01*
X30744123Y-4286650D01*
X30744109Y-4286657D01*
X30545382Y-4401392D01*
X30363338Y-4541081D01*
X30201081Y-4703338D01*
X30061392Y-4885382D01*
X29946657Y-5084109D01*
X29946650Y-5084123D01*
X29858842Y-5296112D01*
X29799453Y-5517759D01*
X29799451Y-5517770D01*
X29769500Y-5745258D01*
X16778372Y-5745258D01*
X16550116Y-5517002D01*
X16550114Y-5517000D01*
X16468732Y-5470014D01*
X16435987Y-5451108D01*
X16372339Y-5434054D01*
X16308692Y-5417000D01*
X16308691Y-5417000D01*
X15775197Y-5417000D01*
X15708158Y-5397315D01*
X15662403Y-5344511D01*
X15652081Y-5278216D01*
X15660000Y-5212270D01*
X15660000Y-5200000D01*
X15104000Y-5200000D01*
X15095314Y-5197449D01*
X15086353Y-5198738D01*
X15062312Y-5187759D01*
X15036961Y-5180315D01*
X15031033Y-5173474D01*
X15022797Y-5169713D01*
X15008507Y-5147478D01*
X14991206Y-5127511D01*
X14988918Y-5116996D01*
X14985023Y-5110935D01*
X14980000Y-5076000D01*
X14980000Y-4924000D01*
X14999685Y-4856961D01*
X15052489Y-4811206D01*
X15104000Y-4800000D01*
X15659999Y-4800000D01*
X15659999Y-4787729D01*
X15649579Y-4700945D01*
X15649577Y-4700941D01*
X15595123Y-4562855D01*
X15595120Y-4562849D01*
X15558551Y-4514625D01*
X15533728Y-4449313D01*
X15548156Y-4380949D01*
X15597254Y-4331239D01*
X15657355Y-4315700D01*
X17944481Y-4315700D01*
X18011520Y-4335385D01*
X18032162Y-4352019D01*
X18039454Y-4359311D01*
X18039458Y-4359314D01*
X18154182Y-4435971D01*
X18154195Y-4435978D01*
X18281667Y-4488778D01*
X18281672Y-4488780D01*
X18281676Y-4488780D01*
X18281677Y-4488781D01*
X18417004Y-4515700D01*
X18417007Y-4515700D01*
X18554995Y-4515700D01*
X18646041Y-4497589D01*
X18690328Y-4488780D01*
X18817811Y-4435975D01*
X18932542Y-4359314D01*
X19030114Y-4261742D01*
X19106775Y-4147011D01*
X19109907Y-4139451D01*
X19119971Y-4115153D01*
X19159580Y-4019528D01*
X19186500Y-3884193D01*
X19186500Y-3746207D01*
X19186500Y-3746204D01*
X19159581Y-3610877D01*
X19159580Y-3610876D01*
X19159580Y-3610872D01*
X19137791Y-3558269D01*
X19106778Y-3483395D01*
X19106771Y-3483382D01*
X19030114Y-3368658D01*
X19030111Y-3368654D01*
X18932545Y-3271088D01*
X18932541Y-3271085D01*
X18817817Y-3194428D01*
X18817804Y-3194421D01*
X18690332Y-3141621D01*
X18690322Y-3141618D01*
X18554995Y-3114700D01*
X18554993Y-3114700D01*
X18417007Y-3114700D01*
X18417005Y-3114700D01*
X18281677Y-3141618D01*
X18281667Y-3141621D01*
X18154195Y-3194421D01*
X18154182Y-3194428D01*
X18039458Y-3271085D01*
X18039454Y-3271088D01*
X18032162Y-3278381D01*
X17970839Y-3311866D01*
X17944481Y-3314700D01*
X14694300Y-3314700D01*
X14627261Y-3295015D01*
X14581506Y-3242211D01*
X14570300Y-3190700D01*
X14570300Y-2888710D01*
X14570300Y-2888708D01*
X14536192Y-2761414D01*
X14532086Y-2754303D01*
X14490732Y-2682676D01*
X14470300Y-2647286D01*
X14377114Y-2554100D01*
X14064485Y-2241471D01*
X16678099Y-2241471D01*
X16703097Y-2367138D01*
X16703099Y-2367144D01*
X16752133Y-2485524D01*
X16752138Y-2485533D01*
X16823323Y-2592068D01*
X16823326Y-2592072D01*
X16913927Y-2682673D01*
X16913931Y-2682676D01*
X17020466Y-2753861D01*
X17020475Y-2753866D01*
X17021530Y-2754303D01*
X17138856Y-2802901D01*
X17138860Y-2802901D01*
X17138861Y-2802902D01*
X17264528Y-2827900D01*
X17264531Y-2827900D01*
X17392671Y-2827900D01*
X17477215Y-2811082D01*
X17518344Y-2802901D01*
X17636727Y-2753865D01*
X17743269Y-2682676D01*
X17833876Y-2592069D01*
X17905065Y-2485527D01*
X17954101Y-2367144D01*
X17979100Y-2241469D01*
X17979100Y-2113331D01*
X17979100Y-2113328D01*
X17954102Y-1987661D01*
X17954101Y-1987660D01*
X17954101Y-1987656D01*
X17905065Y-1869273D01*
X17905064Y-1869272D01*
X17905061Y-1869266D01*
X17833876Y-1762731D01*
X17833871Y-1762725D01*
X17743272Y-1672126D01*
X17743268Y-1672123D01*
X17636733Y-1600938D01*
X17636724Y-1600933D01*
X17518344Y-1551899D01*
X17518338Y-1551897D01*
X17392671Y-1526900D01*
X17392669Y-1526900D01*
X17264531Y-1526900D01*
X17264529Y-1526900D01*
X17138861Y-1551897D01*
X17138855Y-1551899D01*
X17020475Y-1600933D01*
X17020466Y-1600938D01*
X16913931Y-1672123D01*
X16913927Y-1672126D01*
X16823329Y-1762725D01*
X16823323Y-1762731D01*
X16752138Y-1869266D01*
X16752133Y-1869275D01*
X16703099Y-1987655D01*
X16703097Y-1987661D01*
X16678100Y-2113328D01*
X16678100Y-2113331D01*
X16678100Y-2241469D01*
X16678100Y-2241471D01*
X16678099Y-2241471D01*
X14064485Y-2241471D01*
X13676014Y-1853000D01*
X13618950Y-1820054D01*
X13561887Y-1787108D01*
X13470909Y-1762731D01*
X13434592Y-1753000D01*
X12698992Y-1753000D01*
X12567207Y-1753000D01*
X12439912Y-1787108D01*
X12325786Y-1853000D01*
X12325783Y-1853002D01*
X11800756Y-2378028D01*
X11754031Y-2407388D01*
X11671843Y-2436147D01*
X11565001Y-2515001D01*
X11486147Y-2621844D01*
X11442289Y-2747179D01*
X11441664Y-2750044D01*
X11440618Y-2751954D01*
X11439797Y-2754303D01*
X11439408Y-2754166D01*
X11408129Y-2811340D01*
X11346778Y-2844774D01*
X11296329Y-2845203D01*
X11288769Y-2843700D01*
X11160631Y-2843700D01*
X11160629Y-2843700D01*
X11034961Y-2868697D01*
X11034955Y-2868699D01*
X10916575Y-2917733D01*
X10916566Y-2917738D01*
X10810031Y-2988923D01*
X10810027Y-2988926D01*
X10719426Y-3079527D01*
X10719423Y-3079531D01*
X10648238Y-3186066D01*
X10648233Y-3186075D01*
X10599199Y-3304455D01*
X10599197Y-3304461D01*
X10574200Y-3430128D01*
X10574200Y-3478698D01*
X10554515Y-3545737D01*
X10501711Y-3591492D01*
X10435421Y-3601814D01*
X10416144Y-3599500D01*
X9902610Y-3599500D01*
X9835571Y-3579815D01*
X9814929Y-3563181D01*
X9494565Y-3242817D01*
X9494563Y-3242815D01*
X9397537Y-3186797D01*
X9289318Y-3157800D01*
X9289317Y-3157800D01*
X8597707Y-3157800D01*
X8530668Y-3138115D01*
X8510025Y-3121480D01*
X8466572Y-3078026D01*
X8466568Y-3078023D01*
X8360033Y-3006838D01*
X8360024Y-3006833D01*
X8241644Y-2957799D01*
X8241638Y-2957797D01*
X8115971Y-2932800D01*
X8115969Y-2932800D01*
X7987831Y-2932800D01*
X7987826Y-2932800D01*
X7985931Y-2933177D01*
X7984919Y-2933086D01*
X7981766Y-2933397D01*
X7981707Y-2932798D01*
X7916340Y-2926942D01*
X7861167Y-2884073D01*
X7837929Y-2818181D01*
X7854004Y-2750186D01*
X7874067Y-2723880D01*
X8061485Y-2536463D01*
X8117503Y-2439437D01*
X8146500Y-2331218D01*
X8146500Y-2219182D01*
X8146500Y-2101807D01*
X8166185Y-2034768D01*
X8182820Y-2014125D01*
X8226273Y-1970672D01*
X8226276Y-1970669D01*
X8297465Y-1864127D01*
X8346501Y-1745744D01*
X8371500Y-1620069D01*
X8371500Y-1491931D01*
X8371500Y-1491928D01*
X8346502Y-1366261D01*
X8346501Y-1366260D01*
X8346501Y-1366256D01*
X8297465Y-1247873D01*
X8297464Y-1247872D01*
X8297461Y-1247866D01*
X8226276Y-1141331D01*
X8226273Y-1141327D01*
X8135672Y-1050726D01*
X8135668Y-1050723D01*
X8029133Y-979538D01*
X8029124Y-979533D01*
X7910744Y-930499D01*
X7910738Y-930497D01*
X7785071Y-905500D01*
X7785069Y-905500D01*
X7656931Y-905500D01*
X7656929Y-905500D01*
X7531261Y-930497D01*
X7531255Y-930499D01*
X7412875Y-979533D01*
X7412866Y-979538D01*
X7306331Y-1050723D01*
X7306327Y-1050726D01*
X7215726Y-1141327D01*
X7215723Y-1141331D01*
X7144538Y-1247866D01*
X7144533Y-1247875D01*
X7095499Y-1366255D01*
X7095497Y-1366261D01*
X7070500Y-1491928D01*
X7070500Y-1491931D01*
X7070500Y-1620069D01*
X7070500Y-1620071D01*
X7070499Y-1620071D01*
X7095497Y-1745738D01*
X7095500Y-1745748D01*
X7139860Y-1852843D01*
X7147329Y-1922312D01*
X7116054Y-1984791D01*
X7055964Y-2020443D01*
X6986139Y-2017949D01*
X6951666Y-2000065D01*
X6850794Y-1925619D01*
X6726880Y-1882258D01*
X6697461Y-1879500D01*
X6697457Y-1879500D01*
X6542610Y-1879500D01*
X6475571Y-1859815D01*
X6454929Y-1843181D01*
X6078865Y-1467117D01*
X6078863Y-1467115D01*
X5981837Y-1411097D01*
X5873618Y-1382100D01*
X5167219Y-1382100D01*
X5055182Y-1382100D01*
X4946963Y-1411097D01*
X4946960Y-1411098D01*
X4849940Y-1467113D01*
X4849934Y-1467117D01*
X4709071Y-1607981D01*
X4647748Y-1641466D01*
X4621390Y-1644300D01*
X1906300Y-1644300D01*
X1839261Y-1624615D01*
X1793506Y-1571811D01*
X1782300Y-1520300D01*
X1782300Y-1483628D01*
X1757302Y-1357961D01*
X1757301Y-1357960D01*
X1757301Y-1357956D01*
X1708265Y-1239573D01*
X1708264Y-1239572D01*
X1708261Y-1239566D01*
X1637076Y-1133031D01*
X1637073Y-1133027D01*
X1546472Y-1042426D01*
X1546468Y-1042423D01*
X1439933Y-971238D01*
X1439924Y-971233D01*
X1321544Y-922199D01*
X1321538Y-922197D01*
X1195871Y-897200D01*
X1195869Y-897200D01*
X1067731Y-897200D01*
X1067729Y-897200D01*
X942061Y-922197D01*
X942055Y-922199D01*
X823675Y-971233D01*
X823666Y-971238D01*
X717131Y-1042423D01*
X717127Y-1042426D01*
X711681Y-1047873D01*
X650358Y-1081358D01*
X580666Y-1076374D01*
X524733Y-1034502D01*
X500316Y-969038D01*
X500000Y-960192D01*
X500000Y-624000D01*
X519685Y-556961D01*
X572489Y-511206D01*
X624000Y-500000D01*
X37876000Y-500000D01*
X37943039Y-519685D01*
G37*
G04 #@! TD.AperFunction*
G04 #@! TA.AperFunction,Conductor*
G36*
X9157606Y-19175185D02*
G01*
X9159458Y-19176398D01*
X9241865Y-19231461D01*
X9241871Y-19231464D01*
X9241872Y-19231465D01*
X9360255Y-19280501D01*
X9360259Y-19280501D01*
X9360260Y-19280502D01*
X9485927Y-19305500D01*
X9485930Y-19305500D01*
X9614069Y-19305500D01*
X9630548Y-19302221D01*
X9676308Y-19293119D01*
X9745898Y-19299345D01*
X9801076Y-19342208D01*
X9824322Y-19408097D01*
X9824500Y-19414736D01*
X9824500Y-19441144D01*
X9827925Y-19469664D01*
X9834640Y-19525588D01*
X9887636Y-19659976D01*
X9974921Y-19775078D01*
X10090023Y-19862363D01*
X10090024Y-19862363D01*
X10090025Y-19862364D01*
X10224410Y-19915359D01*
X10290523Y-19923298D01*
X10354734Y-19950834D01*
X10363418Y-19958732D01*
X11663181Y-21258495D01*
X11696666Y-21319818D01*
X11699500Y-21346176D01*
X11699500Y-21657193D01*
X11679815Y-21724232D01*
X11627011Y-21769987D01*
X11557853Y-21779931D01*
X11494297Y-21750906D01*
X11472398Y-21726084D01*
X11419076Y-21646283D01*
X11419073Y-21646279D01*
X11293720Y-21520926D01*
X11293716Y-21520923D01*
X11146316Y-21422433D01*
X11146307Y-21422428D01*
X10982520Y-21354586D01*
X10982512Y-21354584D01*
X10920000Y-21342149D01*
X10920000Y-21995735D01*
X10904205Y-21979940D01*
X10835796Y-21940444D01*
X10759496Y-21920000D01*
X10680504Y-21920000D01*
X10604204Y-21940444D01*
X10535795Y-21979940D01*
X10520000Y-21995735D01*
X10520000Y-21342149D01*
X10457487Y-21354584D01*
X10457479Y-21354586D01*
X10293692Y-21422428D01*
X10293683Y-21422433D01*
X10146283Y-21520923D01*
X10146279Y-21520926D01*
X10020926Y-21646279D01*
X10020923Y-21646283D01*
X9922433Y-21793683D01*
X9922428Y-21793692D01*
X9854586Y-21957479D01*
X9854584Y-21957487D01*
X9820000Y-22131353D01*
X9820000Y-22570000D01*
X10420000Y-22570000D01*
X10420000Y-22970000D01*
X9825242Y-22970000D01*
X9758203Y-22950315D01*
X9737561Y-22933681D01*
X9643367Y-22839487D01*
X9643365Y-22839485D01*
X9556519Y-22789344D01*
X9512136Y-22763719D01*
X9438950Y-22744109D01*
X9365766Y-22724500D01*
X9214234Y-22724500D01*
X9067863Y-22763719D01*
X8936635Y-22839485D01*
X8936631Y-22839488D01*
X8920374Y-22855745D01*
X8859050Y-22889229D01*
X8789359Y-22884243D01*
X8733426Y-22842370D01*
X8729593Y-22836953D01*
X8655276Y-22725731D01*
X8655273Y-22725727D01*
X8564672Y-22635126D01*
X8564668Y-22635123D01*
X8458133Y-22563938D01*
X8458124Y-22563933D01*
X8339744Y-22514899D01*
X8339738Y-22514897D01*
X8214071Y-22489900D01*
X8214069Y-22489900D01*
X8085931Y-22489900D01*
X8085929Y-22489900D01*
X7960261Y-22514897D01*
X7960255Y-22514899D01*
X7841875Y-22563933D01*
X7841866Y-22563938D01*
X7735331Y-22635123D01*
X7735327Y-22635126D01*
X7644726Y-22725727D01*
X7644723Y-22725731D01*
X7573538Y-22832266D01*
X7573533Y-22832275D01*
X7524499Y-22950655D01*
X7524497Y-22950661D01*
X7499500Y-23076328D01*
X7499500Y-23204473D01*
X7513118Y-23272936D01*
X7506891Y-23342528D01*
X7464027Y-23397705D01*
X7438955Y-23411688D01*
X7352173Y-23447635D01*
X7352166Y-23447638D01*
X7245631Y-23518823D01*
X7245627Y-23518826D01*
X7155026Y-23609427D01*
X7155023Y-23609431D01*
X7083838Y-23715966D01*
X7083833Y-23715975D01*
X7034799Y-23834355D01*
X7034797Y-23834361D01*
X7009800Y-23960028D01*
X7009800Y-24088509D01*
X7005575Y-24120601D01*
X6977500Y-24225380D01*
X6977500Y-24830647D01*
X6957815Y-24897686D01*
X6905011Y-24943441D01*
X6835853Y-24953385D01*
X6772297Y-24924360D01*
X6734523Y-24865582D01*
X6733725Y-24862741D01*
X6731700Y-24855182D01*
X6702703Y-24746963D01*
X6646685Y-24649937D01*
X6567463Y-24570715D01*
X6336819Y-24340071D01*
X6303334Y-24278748D01*
X6300500Y-24252390D01*
X6300500Y-24190928D01*
X6275502Y-24065261D01*
X6275501Y-24065260D01*
X6275501Y-24065256D01*
X6262311Y-24033414D01*
X6254843Y-23963947D01*
X6264070Y-23934470D01*
X7910160Y-20328749D01*
X7955907Y-20275941D01*
X7975494Y-20265692D01*
X8058127Y-20231465D01*
X8164669Y-20160276D01*
X8255276Y-20069669D01*
X8326465Y-19963127D01*
X8375501Y-19844744D01*
X8390154Y-19771081D01*
X8400500Y-19719071D01*
X8400500Y-19590928D01*
X8375502Y-19465261D01*
X8375501Y-19465260D01*
X8375501Y-19465256D01*
X8326873Y-19347858D01*
X8326466Y-19346875D01*
X8323592Y-19341498D01*
X8325073Y-19340706D01*
X8306602Y-19281713D01*
X8325087Y-19214333D01*
X8377066Y-19167643D01*
X8430582Y-19155500D01*
X9090567Y-19155500D01*
X9157606Y-19175185D01*
G37*
G04 #@! TD.AperFunction*
G04 #@! TA.AperFunction,Conductor*
G36*
X10555521Y-8611582D02*
G01*
X10573121Y-8617741D01*
X10602543Y-8620500D01*
X10661666Y-8620499D01*
X10666838Y-8620934D01*
X10694760Y-8631745D01*
X10723496Y-8640182D01*
X10727002Y-8644229D01*
X10731995Y-8646162D01*
X10749643Y-8670357D01*
X10769251Y-8692986D01*
X10770012Y-8698283D01*
X10773169Y-8702611D01*
X10776232Y-8712404D01*
X10786007Y-8748884D01*
X10786007Y-8748885D01*
X10786008Y-8748886D01*
X10851900Y-8863014D01*
X10851902Y-8863016D01*
X10884660Y-8895774D01*
X10887560Y-8901086D01*
X10892575Y-8904478D01*
X10904111Y-8931396D01*
X10918145Y-8957097D01*
X10917713Y-8963134D01*
X10920098Y-8968699D01*
X10915249Y-8997579D01*
X10913161Y-9026789D01*
X10909276Y-9033164D01*
X10908531Y-9037604D01*
X10894924Y-9056716D01*
X10888757Y-9066839D01*
X10886765Y-9069030D01*
X10783211Y-9172586D01*
X10766699Y-9201182D01*
X10757747Y-9211037D01*
X10756246Y-9211952D01*
X10753653Y-9215332D01*
X10743199Y-9225786D01*
X10689454Y-9318876D01*
X10638887Y-9367092D01*
X10593641Y-9380335D01*
X10573124Y-9382258D01*
X10573115Y-9382260D01*
X10449207Y-9425618D01*
X10343576Y-9503576D01*
X10265618Y-9609207D01*
X10222258Y-9733118D01*
X10222258Y-9733120D01*
X10219500Y-9762538D01*
X10219500Y-10237453D01*
X10222258Y-10266874D01*
X10222260Y-10266884D01*
X10268688Y-10399565D01*
X10266992Y-10400158D01*
X10278680Y-10457628D01*
X10258230Y-10515994D01*
X10224237Y-10566868D01*
X10224233Y-10566875D01*
X10175199Y-10685255D01*
X10175197Y-10685261D01*
X10150200Y-10810928D01*
X10150200Y-10810931D01*
X10150200Y-10939069D01*
X10150200Y-10939071D01*
X10150199Y-10939071D01*
X10175197Y-11064738D01*
X10175199Y-11064744D01*
X10224233Y-11183124D01*
X10224238Y-11183133D01*
X10295423Y-11289668D01*
X10295426Y-11289672D01*
X10338772Y-11333018D01*
X10372257Y-11394341D01*
X10367273Y-11464033D01*
X10347450Y-11494886D01*
X10349095Y-11496100D01*
X10265618Y-11609207D01*
X10222258Y-11733118D01*
X10222258Y-11733120D01*
X10219500Y-11762538D01*
X10219500Y-12068289D01*
X10199815Y-12135328D01*
X10183181Y-12155970D01*
X9600571Y-12738581D01*
X9573643Y-12753284D01*
X9547825Y-12769877D01*
X9541624Y-12770768D01*
X9539248Y-12772066D01*
X9512890Y-12774900D01*
X9432207Y-12774900D01*
X9365168Y-12755215D01*
X9344525Y-12738580D01*
X9301072Y-12695126D01*
X9301068Y-12695123D01*
X9194533Y-12623938D01*
X9194524Y-12623933D01*
X9076144Y-12574899D01*
X9076138Y-12574897D01*
X8950471Y-12549900D01*
X8950469Y-12549900D01*
X8822331Y-12549900D01*
X8822329Y-12549900D01*
X8696661Y-12574897D01*
X8696655Y-12574899D01*
X8578275Y-12623933D01*
X8578266Y-12623938D01*
X8471731Y-12695123D01*
X8471727Y-12695126D01*
X8381126Y-12785727D01*
X8381123Y-12785731D01*
X8309938Y-12892266D01*
X8309933Y-12892275D01*
X8260899Y-13010655D01*
X8260897Y-13010661D01*
X8235900Y-13136328D01*
X8235900Y-13136331D01*
X8235900Y-13264469D01*
X8235900Y-13264471D01*
X8235899Y-13264471D01*
X8260897Y-13390138D01*
X8260899Y-13390144D01*
X8309933Y-13508524D01*
X8309938Y-13508533D01*
X8381123Y-13615068D01*
X8381126Y-13615072D01*
X8417430Y-13651376D01*
X8450915Y-13712699D01*
X8445931Y-13782391D01*
X8404059Y-13838324D01*
X8379836Y-13852491D01*
X8277234Y-13897794D01*
X8197794Y-13977234D01*
X8191301Y-13986714D01*
X8187858Y-13984355D01*
X8156912Y-14020915D01*
X8090104Y-14041373D01*
X8041221Y-14031943D01*
X8013408Y-14020423D01*
X7995244Y-14012899D01*
X7995242Y-14012898D01*
X7995238Y-14012897D01*
X7869571Y-13987900D01*
X7869569Y-13987900D01*
X7741431Y-13987900D01*
X7741429Y-13987900D01*
X7615798Y-14012890D01*
X7546206Y-14006663D01*
X7503925Y-13978954D01*
X7422765Y-13897794D01*
X7319992Y-13852415D01*
X7294865Y-13849500D01*
X5705143Y-13849500D01*
X5705117Y-13849502D01*
X5680012Y-13852413D01*
X5680008Y-13852415D01*
X5577235Y-13897793D01*
X5497794Y-13977234D01*
X5452415Y-14080006D01*
X5452415Y-14080008D01*
X5449500Y-14105131D01*
X5449500Y-14779446D01*
X5429815Y-14846485D01*
X5377011Y-14892240D01*
X5307853Y-14902184D01*
X5301310Y-14901064D01*
X5242669Y-14889400D01*
X5114531Y-14889400D01*
X5114529Y-14889400D01*
X4988861Y-14914397D01*
X4988855Y-14914399D01*
X4870475Y-14963433D01*
X4870466Y-14963438D01*
X4763931Y-15034623D01*
X4763927Y-15034626D01*
X4673326Y-15125227D01*
X4673323Y-15125231D01*
X4602138Y-15231766D01*
X4602133Y-15231775D01*
X4553099Y-15350155D01*
X4553097Y-15350161D01*
X4528100Y-15475828D01*
X4528100Y-15475831D01*
X4528100Y-15603969D01*
X4528100Y-15603971D01*
X4528099Y-15603971D01*
X4553097Y-15729638D01*
X4553099Y-15729644D01*
X4602133Y-15848024D01*
X4602138Y-15848033D01*
X4673323Y-15954568D01*
X4673326Y-15954572D01*
X4763927Y-16045173D01*
X4763931Y-16045176D01*
X4870466Y-16116361D01*
X4870472Y-16116364D01*
X4870473Y-16116365D01*
X4988856Y-16165401D01*
X4988860Y-16165401D01*
X4988861Y-16165402D01*
X5114528Y-16190400D01*
X5114531Y-16190400D01*
X5242671Y-16190400D01*
X5327215Y-16173582D01*
X5368344Y-16165401D01*
X5486727Y-16116365D01*
X5593269Y-16045176D01*
X5651628Y-15986816D01*
X5712949Y-15953333D01*
X5739298Y-15950499D01*
X6897389Y-15950499D01*
X6964428Y-15970184D01*
X6985070Y-15986818D01*
X7219215Y-16220963D01*
X7298437Y-16300185D01*
X7395463Y-16356203D01*
X7503682Y-16385200D01*
X7503684Y-16385200D01*
X10150116Y-16385200D01*
X10150118Y-16385200D01*
X10258337Y-16356203D01*
X10355363Y-16300185D01*
X10427082Y-16228464D01*
X10488402Y-16194982D01*
X10558094Y-16199966D01*
X10614028Y-16241837D01*
X10630115Y-16270657D01*
X10640638Y-16297341D01*
X10732077Y-16417922D01*
X10843737Y-16502596D01*
X10852658Y-16509361D01*
X10858488Y-16511660D01*
X10875078Y-16524568D01*
X10894203Y-16533302D01*
X10902102Y-16545593D01*
X10913633Y-16554565D01*
X10920611Y-16574394D01*
X10931977Y-16592080D01*
X10935528Y-16616783D01*
X10936827Y-16620472D01*
X10937000Y-16627015D01*
X10937000Y-16651000D01*
X10917315Y-16718039D01*
X10864511Y-16763794D01*
X10813000Y-16775000D01*
X10800000Y-16775000D01*
X10800000Y-17501000D01*
X10780315Y-17568039D01*
X10727511Y-17613794D01*
X10676000Y-17625000D01*
X10600000Y-17625000D01*
X10600000Y-17701000D01*
X10580315Y-17768039D01*
X10527511Y-17813794D01*
X10476000Y-17825000D01*
X9725000Y-17825000D01*
X9725000Y-17880500D01*
X9705315Y-17947539D01*
X9652511Y-17993294D01*
X9601000Y-18004500D01*
X9485928Y-18004500D01*
X9360260Y-18029497D01*
X9360254Y-18029499D01*
X9241874Y-18078533D01*
X9241865Y-18078538D01*
X9159458Y-18133602D01*
X9141411Y-18139252D01*
X9125502Y-18149477D01*
X9094542Y-18153928D01*
X9092781Y-18154480D01*
X9090567Y-18154500D01*
X8921508Y-18154500D01*
X8854469Y-18134815D01*
X8808714Y-18082011D01*
X8798770Y-18012853D01*
X8827795Y-17949297D01*
X8833827Y-17942819D01*
X8917673Y-17858972D01*
X8917676Y-17858969D01*
X8988865Y-17752427D01*
X9037901Y-17634044D01*
X9058819Y-17528885D01*
X9062900Y-17508371D01*
X9062900Y-17380231D01*
X9058606Y-17358643D01*
X9058606Y-17358640D01*
X9054278Y-17336881D01*
X9725000Y-17336881D01*
X9725000Y-17425000D01*
X10400000Y-17425000D01*
X10400000Y-16775000D01*
X10286881Y-16775000D01*
X10251452Y-16777788D01*
X10251446Y-16777789D01*
X10099814Y-16821843D01*
X10099811Y-16821844D01*
X9963891Y-16902226D01*
X9963883Y-16902232D01*
X9852232Y-17013883D01*
X9852226Y-17013891D01*
X9771844Y-17149811D01*
X9771843Y-17149814D01*
X9727789Y-17301446D01*
X9727788Y-17301452D01*
X9725000Y-17336881D01*
X9054278Y-17336881D01*
X9037902Y-17254561D01*
X9037901Y-17254560D01*
X9037901Y-17254556D01*
X8988865Y-17136173D01*
X8988864Y-17136172D01*
X8988861Y-17136166D01*
X8917676Y-17029631D01*
X8917673Y-17029627D01*
X8827072Y-16939026D01*
X8827068Y-16939023D01*
X8720533Y-16867838D01*
X8720524Y-16867833D01*
X8602144Y-16818799D01*
X8602138Y-16818797D01*
X8476471Y-16793800D01*
X8476469Y-16793800D01*
X8348331Y-16793800D01*
X8348329Y-16793800D01*
X8222661Y-16818797D01*
X8222655Y-16818799D01*
X8104275Y-16867833D01*
X8104266Y-16867838D01*
X7997731Y-16939023D01*
X7997727Y-16939026D01*
X7907126Y-17029627D01*
X7907123Y-17029631D01*
X7835938Y-17136166D01*
X7835933Y-17136175D01*
X7786899Y-17254555D01*
X7786897Y-17254561D01*
X7761900Y-17380228D01*
X7761900Y-17380231D01*
X7761900Y-17508369D01*
X7761900Y-17508371D01*
X7761899Y-17508371D01*
X7786897Y-17634038D01*
X7786899Y-17634044D01*
X7835933Y-17752424D01*
X7835938Y-17752433D01*
X7907123Y-17858968D01*
X7907126Y-17858972D01*
X7990973Y-17942819D01*
X8024458Y-18004142D01*
X8019474Y-18073834D01*
X7977602Y-18129767D01*
X7912138Y-18154184D01*
X7903292Y-18154500D01*
X4439647Y-18154500D01*
X4372608Y-18134815D01*
X4326853Y-18082011D01*
X4316909Y-18012853D01*
X4336545Y-17961609D01*
X4409571Y-17852317D01*
X4409571Y-17852316D01*
X4409575Y-17852311D01*
X4462380Y-17724828D01*
X4480438Y-17634044D01*
X4489300Y-17589495D01*
X4489300Y-17451504D01*
X4462381Y-17316177D01*
X4462380Y-17316176D01*
X4462380Y-17316172D01*
X4450786Y-17288181D01*
X4409578Y-17188695D01*
X4409571Y-17188682D01*
X4332914Y-17073958D01*
X4332911Y-17073954D01*
X4325619Y-17066662D01*
X4292134Y-17005339D01*
X4289300Y-16978981D01*
X4289300Y-16497910D01*
X4289300Y-16497908D01*
X4255192Y-16370614D01*
X4189300Y-16256486D01*
X4096114Y-16163300D01*
X3811819Y-15879005D01*
X3778334Y-15817682D01*
X3775500Y-15791324D01*
X3775500Y-15508862D01*
X3775500Y-15508856D01*
X3765359Y-15424410D01*
X3712364Y-15290025D01*
X3712363Y-15290024D01*
X3712363Y-15290023D01*
X3625079Y-15174923D01*
X3608726Y-15162522D01*
X3567203Y-15106329D01*
X3562652Y-15036608D01*
X3596517Y-14975494D01*
X3620532Y-14956986D01*
X3636105Y-14947776D01*
X3636116Y-14947767D01*
X3747767Y-14836116D01*
X3747773Y-14836108D01*
X3828155Y-14700188D01*
X3828156Y-14700185D01*
X3872210Y-14548553D01*
X3872211Y-14548547D01*
X3874999Y-14513118D01*
X3875000Y-14513105D01*
X3875000Y-14425000D01*
X2125000Y-14425000D01*
X2125000Y-14513118D01*
X2127788Y-14548547D01*
X2127789Y-14548553D01*
X2171843Y-14700185D01*
X2171843Y-14700186D01*
X2198330Y-14744974D01*
X2215511Y-14812698D01*
X2193351Y-14878961D01*
X2138885Y-14922723D01*
X2069405Y-14930092D01*
X2059503Y-14927869D01*
X2051788Y-14925801D01*
X2051787Y-14925801D01*
X2035952Y-14921558D01*
X2028164Y-14919471D01*
X2028130Y-14919462D01*
X2027573Y-14919313D01*
X1937209Y-14895100D01*
X1933493Y-14895100D01*
X1922325Y-14892225D01*
X1913972Y-14887245D01*
X1898351Y-14881942D01*
X1898196Y-14882319D01*
X1892451Y-14879939D01*
X1891242Y-14879529D01*
X1890688Y-14879209D01*
X1890687Y-14879208D01*
X1768606Y-14846497D01*
X1708946Y-14810132D01*
X1678417Y-14747285D01*
X1676700Y-14726722D01*
X1676700Y-14172328D01*
X1681463Y-14156106D01*
X1681207Y-14139200D01*
X1691103Y-14123275D01*
X1696385Y-14105289D01*
X1709395Y-14093840D01*
X1718087Y-14079856D01*
X1739933Y-14066971D01*
X1747485Y-14060327D01*
X1753479Y-14057478D01*
X1878157Y-14013852D01*
X1937534Y-13970029D01*
X1948326Y-13964902D01*
X1971497Y-13961211D01*
X1993534Y-13953162D01*
X2005358Y-13955818D01*
X2017326Y-13953912D01*
X2038811Y-13963333D01*
X2061705Y-13968476D01*
X2077224Y-13980176D01*
X2081314Y-13981970D01*
X2083030Y-13984554D01*
X2089222Y-13989222D01*
X2125000Y-14025000D01*
X2800000Y-14025000D01*
X3200000Y-14025000D01*
X3875000Y-14025000D01*
X3875000Y-13936894D01*
X3874999Y-13936881D01*
X3872211Y-13901452D01*
X3872210Y-13901446D01*
X3828156Y-13749814D01*
X3828155Y-13749811D01*
X3747773Y-13613891D01*
X3747767Y-13613883D01*
X3636116Y-13502232D01*
X3636108Y-13502226D01*
X3500188Y-13421844D01*
X3500185Y-13421843D01*
X3348553Y-13377789D01*
X3348547Y-13377788D01*
X3313118Y-13375000D01*
X3200000Y-13375000D01*
X3200000Y-14025000D01*
X2800000Y-14025000D01*
X2800000Y-13375000D01*
X2686881Y-13375000D01*
X2651452Y-13377788D01*
X2651446Y-13377789D01*
X2499814Y-13421843D01*
X2499811Y-13421844D01*
X2363891Y-13502226D01*
X2363883Y-13502232D01*
X2322181Y-13543935D01*
X2260858Y-13577420D01*
X2191166Y-13572436D01*
X2135233Y-13530564D01*
X2110816Y-13465100D01*
X2110500Y-13456254D01*
X2110500Y-13286929D01*
X2108950Y-13270404D01*
X2107710Y-13257181D01*
X2107708Y-13257177D01*
X2107708Y-13257173D01*
X2062489Y-13127947D01*
X2058926Y-13058169D01*
X2080726Y-13012067D01*
X2145120Y-12927150D01*
X2145123Y-12927144D01*
X2199577Y-12789060D01*
X2199579Y-12789052D01*
X2207872Y-12720000D01*
X1624000Y-12720000D01*
X1556961Y-12700315D01*
X1511206Y-12647511D01*
X1500000Y-12596000D01*
X1500000Y-12520000D01*
X1424000Y-12520000D01*
X1356961Y-12500315D01*
X1311206Y-12447511D01*
X1300000Y-12396000D01*
X1300000Y-12320000D01*
X1700000Y-12320000D01*
X2207535Y-12320000D01*
X2195074Y-12239520D01*
X2145123Y-12112855D01*
X2145120Y-12112849D01*
X2055428Y-11994571D01*
X1937150Y-11904879D01*
X1937144Y-11904876D01*
X1799056Y-11850421D01*
X1712271Y-11840000D01*
X1700000Y-11840000D01*
X1700000Y-12320000D01*
X1300000Y-12320000D01*
X1300000Y-11840000D01*
X1281575Y-11821577D01*
X1277261Y-11820311D01*
X1231506Y-11767507D01*
X1220300Y-11715996D01*
X1220300Y-10370665D01*
X1239985Y-10303626D01*
X1256619Y-10282984D01*
X1345676Y-10193927D01*
X1441491Y-10098111D01*
X1488728Y-10070842D01*
X1488174Y-10069504D01*
X1495680Y-10066393D01*
X1495686Y-10066392D01*
X1609814Y-10000500D01*
X1677795Y-9932519D01*
X1728983Y-9901691D01*
X1746815Y-9896200D01*
X1763292Y-9896200D01*
X1890586Y-9862092D01*
X1928311Y-9840311D01*
X1941691Y-9836191D01*
X1958515Y-9835970D01*
X1978184Y-9830700D01*
X2061546Y-9830700D01*
X2128585Y-9850385D01*
X2149220Y-9867011D01*
X2380361Y-10098113D01*
X2383174Y-10100925D01*
X2416664Y-10162246D01*
X2419500Y-10188612D01*
X2419500Y-10237453D01*
X2422258Y-10266875D01*
X2422260Y-10266884D01*
X2465618Y-10390792D01*
X2465619Y-10390794D01*
X2486335Y-10418863D01*
X2543576Y-10496423D01*
X2593993Y-10533632D01*
X2649206Y-10574381D01*
X2688687Y-10588196D01*
X2773119Y-10617741D01*
X2780796Y-10618460D01*
X2802543Y-10620500D01*
X3177456Y-10620499D01*
X3206879Y-10617741D01*
X3330794Y-10574381D01*
X3386868Y-10532996D01*
X3399126Y-10528518D01*
X3408989Y-10519973D01*
X3431310Y-10516763D01*
X3452494Y-10509026D01*
X3465227Y-10511886D01*
X3478147Y-10510029D01*
X3498662Y-10519397D01*
X3520665Y-10524341D01*
X3529830Y-10533632D01*
X3541703Y-10539054D01*
X3553896Y-10558027D01*
X3569733Y-10574081D01*
X3573284Y-10588196D01*
X3579477Y-10597832D01*
X3584500Y-10632767D01*
X3584500Y-10782390D01*
X3564815Y-10849429D01*
X3548181Y-10870071D01*
X3065071Y-11353181D01*
X3003748Y-11386666D01*
X2977390Y-11389500D01*
X2826930Y-11389500D01*
X2797185Y-11392289D01*
X2797173Y-11392291D01*
X2671844Y-11436147D01*
X2565001Y-11515001D01*
X2486147Y-11621844D01*
X2442291Y-11747173D01*
X2442289Y-11747185D01*
X2439500Y-11776929D01*
X2439500Y-11776934D01*
X2439500Y-12223066D01*
X2442290Y-12252819D01*
X2452690Y-12282540D01*
X2452691Y-12282546D01*
X2486147Y-12378156D01*
X2499317Y-12396000D01*
X2565001Y-12484999D01*
X2671843Y-12563852D01*
X2701933Y-12574381D01*
X2797173Y-12607708D01*
X2797177Y-12607708D01*
X2797181Y-12607710D01*
X2812057Y-12609105D01*
X2826930Y-12610500D01*
X2826934Y-12610500D01*
X3213070Y-12610500D01*
X3226289Y-12609260D01*
X3242819Y-12607710D01*
X3368157Y-12563852D01*
X3368160Y-12563849D01*
X3372051Y-12562488D01*
X3441829Y-12558925D01*
X3487933Y-12580725D01*
X3572853Y-12645122D01*
X3572855Y-12645123D01*
X3710941Y-12699577D01*
X3710945Y-12699578D01*
X3780000Y-12707870D01*
X3780000Y-12707869D01*
X4180000Y-12707869D01*
X4249052Y-12699579D01*
X4387150Y-12645120D01*
X4505428Y-12555428D01*
X4595120Y-12437150D01*
X4595123Y-12437144D01*
X4649578Y-12299056D01*
X4660000Y-12212270D01*
X4660000Y-12200000D01*
X4180000Y-12200000D01*
X4180000Y-12707869D01*
X3780000Y-12707869D01*
X3780000Y-12124000D01*
X3799685Y-12056961D01*
X3852489Y-12011206D01*
X3904000Y-12000000D01*
X3980000Y-12000000D01*
X3980000Y-11924000D01*
X3999685Y-11856961D01*
X4052489Y-11811206D01*
X4104000Y-11800000D01*
X4659999Y-11800000D01*
X4659999Y-11787729D01*
X4649579Y-11700945D01*
X4649577Y-11700941D01*
X4595123Y-11562855D01*
X4595120Y-11562849D01*
X4555442Y-11510525D01*
X4530619Y-11445213D01*
X4545047Y-11376849D01*
X4594145Y-11327138D01*
X4654246Y-11311600D01*
X4703371Y-11311600D01*
X4813605Y-11289672D01*
X4829044Y-11286601D01*
X4947427Y-11237565D01*
X5053969Y-11166376D01*
X5144576Y-11075769D01*
X5215765Y-10969227D01*
X5264801Y-10850844D01*
X5282953Y-10759590D01*
X5289800Y-10725171D01*
X5289800Y-10597028D01*
X5264802Y-10471361D01*
X5264801Y-10471360D01*
X5264801Y-10471356D01*
X5215765Y-10352973D01*
X5215764Y-10352972D01*
X5215761Y-10352966D01*
X5144576Y-10246431D01*
X5144573Y-10246427D01*
X5053972Y-10155826D01*
X5053968Y-10155823D01*
X4947433Y-10084638D01*
X4947424Y-10084633D01*
X4829044Y-10035599D01*
X4829038Y-10035597D01*
X4703371Y-10010599D01*
X4697309Y-10010003D01*
X4697453Y-10008531D01*
X4637461Y-9990915D01*
X4591706Y-9938111D01*
X4580500Y-9886601D01*
X4580499Y-9762546D01*
X4577741Y-9733125D01*
X4577741Y-9733121D01*
X4534381Y-9609206D01*
X4483558Y-9540343D01*
X4456422Y-9503575D01*
X4376915Y-9444897D01*
X4365885Y-9430370D01*
X4351280Y-9419437D01*
X4345193Y-9403118D01*
X4334664Y-9389250D01*
X4333238Y-9371064D01*
X4326864Y-9353972D01*
X4330565Y-9336955D01*
X4329205Y-9319594D01*
X4337838Y-9303524D01*
X4341716Y-9285699D01*
X4361899Y-9258737D01*
X4362272Y-9258044D01*
X4362641Y-9257672D01*
X4445596Y-9174716D01*
X4506919Y-9141234D01*
X4533276Y-9138400D01*
X9808090Y-9138400D01*
X9808092Y-9138400D01*
X9935386Y-9104292D01*
X10049514Y-9038400D01*
X10441766Y-8646146D01*
X10442466Y-8645764D01*
X10442859Y-8645066D01*
X10473093Y-8629040D01*
X10503087Y-8612663D01*
X10503899Y-8612712D01*
X10504593Y-8612345D01*
X10539825Y-8610264D01*
X10555521Y-8611582D01*
G37*
G04 #@! TD.AperFunction*
G04 #@! TA.AperFunction,Conductor*
G36*
X5245247Y-4028485D02*
G01*
X5291002Y-4081289D01*
X5300946Y-4150447D01*
X5289250Y-4186114D01*
X5289566Y-4186245D01*
X5287848Y-4190391D01*
X5287565Y-4191256D01*
X5287233Y-4191876D01*
X5238199Y-4310255D01*
X5238197Y-4310261D01*
X5213200Y-4435928D01*
X5213200Y-4435931D01*
X5213200Y-4564069D01*
X5213200Y-4564071D01*
X5213199Y-4564071D01*
X5238197Y-4689738D01*
X5238199Y-4689744D01*
X5287233Y-4808124D01*
X5287238Y-4808133D01*
X5358423Y-4914668D01*
X5358426Y-4914672D01*
X5449027Y-5005273D01*
X5449031Y-5005276D01*
X5555566Y-5076461D01*
X5555572Y-5076464D01*
X5555573Y-5076465D01*
X5673956Y-5125501D01*
X5673960Y-5125501D01*
X5673961Y-5125502D01*
X5799628Y-5150500D01*
X5799631Y-5150500D01*
X5927771Y-5150500D01*
X6043339Y-5127511D01*
X6053444Y-5125501D01*
X6053455Y-5125496D01*
X6053732Y-5125413D01*
X6053896Y-5125411D01*
X6059419Y-5124313D01*
X6059627Y-5125359D01*
X6123599Y-5124780D01*
X6182717Y-5162021D01*
X6188541Y-5169136D01*
X6221251Y-5212270D01*
X6249923Y-5250079D01*
X6365023Y-5337363D01*
X6365024Y-5337363D01*
X6365025Y-5337364D01*
X6499410Y-5390359D01*
X6583856Y-5400500D01*
X6583862Y-5400500D01*
X7116138Y-5400500D01*
X7116144Y-5400500D01*
X7200590Y-5390359D01*
X7334975Y-5337364D01*
X7450078Y-5250078D01*
X7537364Y-5134975D01*
X7590359Y-5000590D01*
X7600500Y-4916144D01*
X7600500Y-4285998D01*
X7620185Y-4218959D01*
X7672989Y-4173204D01*
X7742147Y-4163260D01*
X7771948Y-4171435D01*
X7862156Y-4208801D01*
X7862160Y-4208801D01*
X7862161Y-4208802D01*
X7987828Y-4233800D01*
X7987831Y-4233800D01*
X8115971Y-4233800D01*
X8200515Y-4216982D01*
X8241644Y-4208801D01*
X8360027Y-4159765D01*
X8466569Y-4088576D01*
X8510025Y-4045120D01*
X8571348Y-4011634D01*
X8597707Y-4008800D01*
X9005690Y-4008800D01*
X9072729Y-4028485D01*
X9093371Y-4045119D01*
X9363181Y-4314929D01*
X9396666Y-4376252D01*
X9399500Y-4402610D01*
X9399500Y-4916144D01*
X9404213Y-4955386D01*
X9409640Y-5000588D01*
X9462636Y-5134976D01*
X9549921Y-5250078D01*
X9665023Y-5337363D01*
X9665024Y-5337363D01*
X9665025Y-5337364D01*
X9799410Y-5390359D01*
X9883856Y-5400500D01*
X9883862Y-5400500D01*
X10416138Y-5400500D01*
X10416144Y-5400500D01*
X10500590Y-5390359D01*
X10634975Y-5337364D01*
X10750078Y-5250078D01*
X10837364Y-5134975D01*
X10890359Y-5000590D01*
X10900500Y-4916144D01*
X10900500Y-4244050D01*
X10920185Y-4177011D01*
X10972989Y-4131256D01*
X11042147Y-4121312D01*
X11048673Y-4122429D01*
X11109389Y-4134507D01*
X11160630Y-4144700D01*
X11160631Y-4144700D01*
X11288770Y-4144700D01*
X11306655Y-4141141D01*
X11371309Y-4128281D01*
X11440899Y-4134507D01*
X11496077Y-4177370D01*
X11519322Y-4243259D01*
X11519500Y-4249898D01*
X11519500Y-4904024D01*
X11499815Y-4971063D01*
X11483181Y-4991705D01*
X10389502Y-6085383D01*
X10389500Y-6085386D01*
X10323608Y-6199512D01*
X10289500Y-6326808D01*
X10289500Y-7421659D01*
X10269815Y-7488698D01*
X10217011Y-7534453D01*
X10197596Y-7541433D01*
X10172314Y-7548207D01*
X10058186Y-7614100D01*
X10058183Y-7614102D01*
X9571205Y-8101081D01*
X9509882Y-8134566D01*
X9483524Y-8137400D01*
X4456493Y-8137400D01*
X4389454Y-8117715D01*
X4343699Y-8064911D01*
X4333755Y-7995753D01*
X4362780Y-7932197D01*
X4387602Y-7910298D01*
X4390291Y-7908500D01*
X4394369Y-7905776D01*
X4484976Y-7815169D01*
X4556165Y-7708627D01*
X4605201Y-7590244D01*
X4618179Y-7525000D01*
X4630200Y-7464571D01*
X4630200Y-7336428D01*
X4605202Y-7210761D01*
X4605201Y-7210760D01*
X4605201Y-7210756D01*
X4556165Y-7092373D01*
X4556164Y-7092372D01*
X4556161Y-7092366D01*
X4484976Y-6985831D01*
X4484973Y-6985827D01*
X4394372Y-6895226D01*
X4394368Y-6895223D01*
X4287833Y-6824038D01*
X4287824Y-6824033D01*
X4169444Y-6774999D01*
X4169438Y-6774997D01*
X4043771Y-6750000D01*
X4043769Y-6750000D01*
X3915631Y-6750000D01*
X3915629Y-6750000D01*
X3789961Y-6774997D01*
X3789955Y-6774999D01*
X3671575Y-6824033D01*
X3671566Y-6824038D01*
X3565031Y-6895223D01*
X3565027Y-6895226D01*
X3474426Y-6985827D01*
X3474423Y-6985831D01*
X3403238Y-7092366D01*
X3403233Y-7092375D01*
X3354199Y-7210755D01*
X3354197Y-7210761D01*
X3329200Y-7336428D01*
X3329200Y-7336431D01*
X3329200Y-7464569D01*
X3329200Y-7464571D01*
X3329199Y-7464571D01*
X3354197Y-7590238D01*
X3354199Y-7590244D01*
X3403233Y-7708624D01*
X3403238Y-7708633D01*
X3474423Y-7815168D01*
X3474426Y-7815172D01*
X3565027Y-7905773D01*
X3565031Y-7905776D01*
X3671566Y-7976961D01*
X3671572Y-7976964D01*
X3671573Y-7976965D01*
X3789956Y-8026001D01*
X3886660Y-8045237D01*
X3948571Y-8077622D01*
X3983145Y-8138337D01*
X3979406Y-8208107D01*
X3950150Y-8254535D01*
X3038943Y-9165742D01*
X3031002Y-9170078D01*
X3025581Y-9177321D01*
X3000818Y-9186559D01*
X2977620Y-9199227D01*
X2968595Y-9198581D01*
X2960119Y-9201744D01*
X2934292Y-9196128D01*
X2907928Y-9194243D01*
X2898880Y-9188428D01*
X2891845Y-9186899D01*
X2863588Y-9165750D01*
X2723982Y-9026168D01*
X2723980Y-9026164D01*
X2723973Y-9026159D01*
X2677512Y-8979697D01*
X2677490Y-8979680D01*
X2677480Y-8979674D01*
X2619149Y-8946003D01*
X2563386Y-8913808D01*
X2563366Y-8913802D01*
X2563346Y-8913791D01*
X2562850Y-8913658D01*
X2493938Y-8895199D01*
X2493938Y-8895198D01*
X2493928Y-8895197D01*
X2436079Y-8879696D01*
X2436056Y-8879693D01*
X2370163Y-8879699D01*
X2370156Y-8879700D01*
X2294508Y-8879700D01*
X2167214Y-8913808D01*
X2159704Y-8916919D01*
X2159150Y-8915581D01*
X2152975Y-8917236D01*
X2141398Y-8924677D01*
X2106463Y-8929700D01*
X1908375Y-8929700D01*
X1876282Y-8925475D01*
X1797918Y-8904478D01*
X1763292Y-8895200D01*
X1572693Y-8895200D01*
X1440908Y-8895200D01*
X1313612Y-8929308D01*
X1199486Y-8995200D01*
X1199483Y-8995202D01*
X902002Y-9292683D01*
X901998Y-9292689D01*
X866616Y-9353972D01*
X850286Y-9382258D01*
X836107Y-9406816D01*
X832997Y-9414324D01*
X831661Y-9413770D01*
X828463Y-9419309D01*
X825539Y-9432753D01*
X804388Y-9461007D01*
X711681Y-9553714D01*
X650358Y-9587199D01*
X580666Y-9582215D01*
X524733Y-9540343D01*
X500316Y-9474879D01*
X500000Y-9466033D01*
X500000Y-4288610D01*
X519685Y-4221571D01*
X572489Y-4175816D01*
X641647Y-4165872D01*
X705203Y-4194897D01*
X711681Y-4200929D01*
X1023765Y-4513013D01*
X1057250Y-4574336D01*
X1053126Y-4641649D01*
X1027353Y-4715303D01*
X1024500Y-4745730D01*
X1024500Y-5154269D01*
X1027353Y-5184699D01*
X1027353Y-5184701D01*
X1066339Y-5296113D01*
X1072207Y-5312882D01*
X1152850Y-5422150D01*
X1262118Y-5502793D01*
X1302719Y-5517000D01*
X1390299Y-5547646D01*
X1420730Y-5550500D01*
X1420734Y-5550500D01*
X2704270Y-5550500D01*
X2734699Y-5547646D01*
X2734701Y-5547646D01*
X2798790Y-5525219D01*
X2862882Y-5502793D01*
X2972150Y-5422150D01*
X3052793Y-5312882D01*
X3075219Y-5248790D01*
X3097646Y-5184701D01*
X3097646Y-5184699D01*
X3100500Y-5154269D01*
X3100500Y-4745733D01*
X3098599Y-4725467D01*
X3111937Y-4656882D01*
X3160237Y-4606396D01*
X3228165Y-4590038D01*
X3263011Y-4596845D01*
X3264073Y-4597216D01*
X3265301Y-4597646D01*
X3265300Y-4597646D01*
X3295730Y-4600500D01*
X3295734Y-4600500D01*
X4579270Y-4600500D01*
X4609699Y-4597646D01*
X4609701Y-4597646D01*
X4681985Y-4572352D01*
X4737882Y-4552793D01*
X4847150Y-4472150D01*
X4927793Y-4362882D01*
X4954696Y-4285998D01*
X4972646Y-4234701D01*
X4972646Y-4234699D01*
X4975500Y-4204269D01*
X4975500Y-4132800D01*
X4978050Y-4124114D01*
X4976762Y-4115153D01*
X4987740Y-4091112D01*
X4995185Y-4065761D01*
X5002025Y-4059833D01*
X5005787Y-4051597D01*
X5028021Y-4037307D01*
X5047989Y-4020006D01*
X5058503Y-4017718D01*
X5064565Y-4013823D01*
X5099500Y-4008800D01*
X5178208Y-4008800D01*
X5245247Y-4028485D01*
G37*
G04 #@! TD.AperFunction*
G04 #@! TA.AperFunction,Conductor*
G36*
X4862540Y-2514985D02*
G01*
X4908295Y-2567789D01*
X4919501Y-2619300D01*
X4919501Y-2737454D01*
X4922258Y-2766874D01*
X4922260Y-2766884D01*
X4965618Y-2890792D01*
X4965619Y-2890794D01*
X4996621Y-2932800D01*
X5016818Y-2960166D01*
X5040789Y-3025795D01*
X5025474Y-3093966D01*
X4975733Y-3143034D01*
X4917048Y-3157800D01*
X4298182Y-3157800D01*
X4189963Y-3186797D01*
X4189960Y-3186798D01*
X4092940Y-3242813D01*
X4092934Y-3242817D01*
X3972571Y-3363181D01*
X3911248Y-3396666D01*
X3884890Y-3399500D01*
X3320995Y-3399500D01*
X3253956Y-3379815D01*
X3208201Y-3327011D01*
X3197880Y-3260713D01*
X3199167Y-3250000D01*
X2262500Y-3250000D01*
X2262500Y-3750000D01*
X2693054Y-3750000D01*
X2760716Y-3741875D01*
X2829624Y-3753427D01*
X2881348Y-3800399D01*
X2899500Y-3864991D01*
X2899500Y-4204266D01*
X2900878Y-4218959D01*
X2901401Y-4224537D01*
X2888060Y-4293121D01*
X2839758Y-4343605D01*
X2771830Y-4359961D01*
X2736995Y-4353156D01*
X2734704Y-4352354D01*
X2734699Y-4352353D01*
X2704270Y-4349500D01*
X2704266Y-4349500D01*
X2115109Y-4349500D01*
X2048070Y-4329815D01*
X2027428Y-4313181D01*
X1675929Y-3961681D01*
X1642444Y-3900358D01*
X1647428Y-3830666D01*
X1689300Y-3774733D01*
X1754764Y-3750316D01*
X1763610Y-3750000D01*
X1862500Y-3750000D01*
X1862500Y-3174000D01*
X1882185Y-3106961D01*
X1934989Y-3061206D01*
X1986500Y-3050000D01*
X2062500Y-3050000D01*
X2062500Y-2974000D01*
X2082185Y-2906961D01*
X2134989Y-2861206D01*
X2186500Y-2850000D01*
X3199167Y-2850000D01*
X3189386Y-2768557D01*
X3189386Y-2768556D01*
X3148466Y-2664790D01*
X3142185Y-2595203D01*
X3174522Y-2533267D01*
X3235211Y-2498646D01*
X3263821Y-2495300D01*
X4795501Y-2495300D01*
X4862540Y-2514985D01*
G37*
G04 #@! TD.AperFunction*
M02*
