M48
; DRILL file KiCad 10.0.4 date 2026-09-02T14:52:57
; FORMAT={-:-/ absolute / metric / decimal}
; #@! TF.CreationDate,2026-09-02T14:52:57+01:00
; #@! TF.GenerationSoftware,Kicad,Pcbnew,10.0.4
; #@! TF.FileFunction,Plated,1,4,PTH
FMAT,2
METRIC
; #@! TA.AperFunction,Plated,PTH,ViaDrill
T1C0.300
; #@! TA.AperFunction,Plated,PTH,ViaDrill
T2C0.350
; #@! TA.AperFunction,Plated,PTH,ViaDrill
T3C0.400
; #@! TA.AperFunction,Plated,PTH,ComponentDrill
T4C0.600
; #@! TA.AperFunction,Plated,PTH,ComponentDrill
T5C1.200
; #@! TA.AperFunction,Plated,PTH,ComponentDrill
T6C1.600
%
G90
G05
T1
X1.132Y-1.548
X1.473Y-28.109
X3.98Y-7.401
X4.639Y-10.661
X4.956Y-24.971
X5.152Y-23.112
X5.179Y-15.54
X5.864Y-4.5
X7.66Y-24.024
X7.721Y-1.556
X7.805Y-14.638
X8.052Y-3.583
X8.068Y-25.2
X8.15Y-23.14
X8.412Y-17.444
X8.886Y-13.2
X10.304Y-13.729
X10.801Y-10.875
X11.225Y-3.494
X11.682Y-11.121
X12.471Y-8.661
X12.887Y-20.038
X13.237Y-13.79
X13.248Y-15.4
X13.768Y-10.812
X13.786Y-19.055
X14.531Y-22.6
X15.734Y-10.609
X15.758Y-13.805
X15.761Y-8.881
X17.329Y-2.177
X18.943Y-16.443
X32.843Y-24.337
X36.523Y-24.188
T2
X1.5Y-11.49
X1.63Y-10.33
X1.63Y-16.28
X1.807Y-6.257
X1.85Y-17.65
X1.95Y-3.55
X1.95Y-7.8
X1.95Y-8.65
X1.95Y-14.6
X2.019Y-12.419
X2.5Y-6.95
X2.655Y-11.045
X2.9Y-6.1
X3.0Y-13.025
X3.25Y-18.655
X3.55Y-1.35
X3.85Y-27.0
X3.91Y-25.68
X4.4Y-1.35
X4.8Y-7.85
X5.01Y-12.0
X5.65Y-24.255
X6.15Y-6.7
X6.15Y-12.5
X7.75Y-19.655
X7.8Y-5.55
X7.8Y-6.7
X7.8Y-12.5
X9.375Y-17.625
X9.45Y-6.7
X9.45Y-12.5
X9.55Y-18.655
X9.91Y-25.68
X10.58Y-8.98
X13.295Y-4.15
X14.8Y-1.35
X15.275Y-26.525
X16.81Y-15.87
X18.2Y-16.975
X18.75Y-4.915
X18.8Y-21.9
X18.8Y-26.0
X19.46Y-25.3
X25.0Y-5.0
X25.0Y-10.0
X30.0Y-10.0
X31.2Y-27.0
T3
X3.789Y-17.52
X6.15Y-7.85
X6.15Y-9.5
X6.15Y-11.15
X7.8Y-7.85
X7.8Y-9.5
X7.8Y-11.15
X9.45Y-7.85
X9.45Y-9.5
X9.45Y-11.15
X16.146Y-24.399
X18.486Y-3.815
T5
X21.35Y-14.11
X25.165Y-14.11
X25.165Y-21.09
X31.52Y-5.86
T6
X21.35Y-10.3
X21.35Y-17.92
T4
X2.08Y-22.22G85X2.08Y-23.32
G05
X2.08Y-26.65G85X2.08Y-27.25
G05
X10.72Y-22.22G85X10.72Y-23.32
G05
X10.72Y-26.65G85X10.72Y-27.25
G05
M30
