M48
; DRILL file KiCad 10.0.4 date 2026-09-02T14:26:13
; FORMAT={-:-/ absolute / metric / decimal}
; #@! TF.CreationDate,2026-09-02T14:26:13+01:00
; #@! TF.GenerationSoftware,Kicad,Pcbnew,10.0.4
; #@! TF.FileFunction,Plated,1,4,PTH
FMAT,2
METRIC
; #@! TA.AperFunction,Plated,PTH,ViaDrill
T1C0.300
; #@! TA.AperFunction,Plated,PTH,ViaDrill
T2C0.350
; #@! TA.AperFunction,Plated,PTH,ViaDrill
T3C0.400
; #@! TA.AperFunction,Plated,PTH,ComponentDrill
T4C0.600
; #@! TA.AperFunction,Plated,PTH,ComponentDrill
T5C1.200
; #@! TA.AperFunction,Plated,PTH,ComponentDrill
T6C1.600
%
G90
G05
T1
X3.677Y-24.602
X3.814Y-4.849
X4.633Y-25.151
X7.572Y-24.609
X7.727Y-23.628
X8.303Y-1.541
X8.475Y-24.717
X10.26Y-14.58
X10.577Y-20.242
X10.738Y-6.935
X10.877Y-11.147
X11.173Y-5.344
X12.115Y-14.302
X12.231Y-20.354
X12.469Y-8.661
X12.51Y-12.534
X13.295Y-10.735
X13.423Y-14.5
X13.868Y-8.909
X14.238Y-26.335
X15.736Y-10.609
X16.291Y-9.791
X32.843Y-24.337
X36.523Y-24.188
T2
X1.63Y-4.38
X1.63Y-8.63
X1.63Y-12.03
X1.63Y-12.88
X1.63Y-14.58
X1.63Y-16.28
X1.807Y-9.657
X1.85Y-17.65
X1.95Y-6.95
X2.019Y-10.719
X2.062Y-6.0
X2.5Y-4.4
X2.5Y-12.9
X2.5Y-16.5
X2.7Y-17.65
X2.9Y-5.25
X3.25Y-18.655
X3.4Y-6.1
X3.55Y-1.35
X3.85Y-27.0
X3.91Y-25.68
X4.4Y-1.35
X5.01Y-8.0
X5.01Y-12.0
X5.02Y-8.98
X5.65Y-24.255
X6.15Y-6.7
X6.15Y-12.5
X7.75Y-19.655
X7.8Y-5.55
X7.8Y-6.7
X7.8Y-12.5
X9.375Y-17.625
X9.45Y-6.7
X9.45Y-12.5
X9.55Y-18.655
X9.91Y-25.68
X10.58Y-8.98
X11.01Y-13.5
X13.295Y-4.15
X14.8Y-1.35
X15.275Y-26.525
X15.95Y-16.5
X17.9Y-16.975
X18.75Y-4.915
X18.8Y-21.9
X18.8Y-26.0
X19.46Y-25.3
X25.0Y-5.0
X25.0Y-10.0
X30.0Y-10.0
X31.2Y-27.0
T3
X3.02Y-7.065
X3.66Y-17.391
X6.15Y-7.85
X6.15Y-9.5
X6.15Y-11.15
X6.736Y-13.617
X7.8Y-7.85
X7.8Y-9.5
X7.8Y-11.15
X7.913Y-4.454
X9.45Y-7.85
X9.45Y-9.5
X9.45Y-11.15
X16.148Y-24.399
X18.486Y-3.815
T5
X21.35Y-14.11
X25.165Y-14.11
X25.165Y-21.09
X31.52Y-5.86
T6
X21.35Y-10.3
X21.35Y-17.92
T4
X2.08Y-22.22G85X2.08Y-23.32
G05
X2.08Y-26.65G85X2.08Y-27.25
G05
X10.72Y-22.22G85X10.72Y-23.32
G05
X10.72Y-26.65G85X10.72Y-27.25
G05
M30
