G04 #@! TF.GenerationSoftware,KiCad,Pcbnew,10.0.4*
G04 #@! TF.CreationDate,2026-09-02T14:52:57+01:00*
G04 #@! TF.ProjectId,pl60c_dmx_mini,706c3630-635f-4646-9d78-5f6d696e692e,rev?*
G04 #@! TF.SameCoordinates,Original*
G04 #@! TF.FileFunction,Copper,L2,Inr*
G04 #@! TF.FilePolarity,Positive*
%FSLAX46Y46*%
G04 Gerber Fmt 4.6, Leading zero omitted, Abs format (unit mm)*
G04 Created by KiCad (PCBNEW 10.0.4) date 2026-09-02 14:52:57*
%MOMM*%
%LPD*%
G01*
G04 APERTURE LIST*
G04 #@! TA.AperFunction,ComponentPad*
%ADD10C,3.400000*%
G04 #@! TD*
G04 #@! TA.AperFunction,ComponentPad*
%ADD11C,2.900000*%
G04 #@! TD*
G04 #@! TA.AperFunction,ComponentPad*
%ADD12O,1.000000X2.100000*%
G04 #@! TD*
G04 #@! TA.AperFunction,ComponentPad*
%ADD13O,1.000000X1.600000*%
G04 #@! TD*
G04 #@! TA.AperFunction,ViaPad*
%ADD14C,0.700000*%
G04 #@! TD*
G04 #@! TA.AperFunction,ViaPad*
%ADD15C,0.600000*%
G04 #@! TD*
G04 #@! TA.AperFunction,ViaPad*
%ADD16C,0.800000*%
G04 #@! TD*
G04 APERTURE END LIST*
D10*
X21350000Y-10300000D03*
D11*
X25165000Y-14110000D03*
X21350000Y-14110000D03*
X25165000Y-21090000D03*
D10*
X21350000Y-17920000D03*
D11*
X31520000Y-5860000D03*
D12*
X2080000Y-22770000D03*
D13*
X2080000Y-26950000D03*
D12*
X10720000Y-22770000D03*
D13*
X10720000Y-26950000D03*
D14*
X10800700Y-10875000D03*
X8412400Y-17444300D03*
X12887400Y-20038400D03*
X1950000Y-7800000D03*
X9450000Y-12500000D03*
X5010000Y-12000000D03*
X9450000Y-6700000D03*
X3850000Y-27000000D03*
X1950000Y-8650000D03*
X10580100Y-8980100D03*
X14800000Y-1350000D03*
X2655300Y-11044700D03*
X9910000Y-25680000D03*
D15*
X9450000Y-11150000D03*
X6150000Y-11150000D03*
X7800000Y-7850000D03*
D14*
X2900000Y-6100000D03*
X18200000Y-16975000D03*
X18800000Y-26000000D03*
X19460000Y-25300000D03*
X16810000Y-15870000D03*
X2019000Y-12419000D03*
X4800000Y-7850000D03*
X25000000Y-5000000D03*
X3000000Y-13025000D03*
X7800000Y-5550000D03*
D15*
X6150000Y-9500000D03*
D14*
X1806900Y-6256900D03*
X18750000Y-4915000D03*
X1630200Y-16280200D03*
X1950000Y-14600000D03*
X30000000Y-10000000D03*
X6150000Y-6700000D03*
X7800000Y-12500000D03*
X1500000Y-11490000D03*
X13295000Y-4150000D03*
X1850000Y-17650000D03*
D15*
X6150000Y-7850000D03*
D14*
X2500000Y-6950000D03*
X15275000Y-26525000D03*
X1630200Y-10330200D03*
X3910000Y-25680000D03*
D15*
X9450000Y-9500000D03*
D14*
X9375000Y-17625000D03*
X31200000Y-27000000D03*
X4400000Y-1350000D03*
X7800000Y-6700000D03*
X3550000Y-1350000D03*
X18800000Y-21900000D03*
D15*
X9450000Y-7850000D03*
X7800000Y-9500000D03*
D14*
X1950000Y-3550000D03*
D15*
X7800000Y-11150000D03*
D14*
X25000000Y-10000000D03*
X6150000Y-12500000D03*
X11682500Y-11120800D03*
X17328600Y-2177400D03*
D16*
X16146300Y-24398700D03*
X18486000Y-3815200D03*
X3788800Y-17520500D03*
D14*
X15761100Y-8880900D03*
X18942600Y-16443100D03*
X13786300Y-19055000D03*
X8068400Y-25199900D03*
X9549999Y-18655000D03*
X3250000Y-18655000D03*
X5151600Y-23112400D03*
X1472800Y-28109300D03*
X5650000Y-24255000D03*
X10304000Y-13728800D03*
X7750000Y-19655000D03*
X13236900Y-13790500D03*
X4956000Y-24971100D03*
X7660300Y-24024100D03*
X8150000Y-23140400D03*
X14531000Y-22599600D03*
X12471000Y-8661000D03*
X5178600Y-15539900D03*
X3979700Y-7400500D03*
X7721000Y-1556000D03*
D15*
X32843300Y-24337500D03*
D14*
X36523000Y-24187500D03*
X15757800Y-13805200D03*
D15*
X13768000Y-10812200D03*
D14*
X15734000Y-10608600D03*
X8886400Y-13200400D03*
X11224700Y-3494200D03*
X4639300Y-10661100D03*
X1131800Y-1547700D03*
X13247800Y-15400000D03*
X5863700Y-4500000D03*
X8051900Y-3583300D03*
X7805500Y-14638400D03*
G04 #@! TA.AperFunction,Conductor*
G36*
X37943039Y-519685D02*
G01*
X37988794Y-572489D01*
X38000000Y-624000D01*
X38000000Y-28376000D01*
X37980315Y-28443039D01*
X37927511Y-28488794D01*
X37876000Y-28500000D01*
X2200641Y-28500000D01*
X2176156Y-28492810D01*
X2150844Y-28489562D01*
X2143190Y-28483130D01*
X2133602Y-28480315D01*
X2116893Y-28461032D01*
X2097353Y-28444612D01*
X2094391Y-28435063D01*
X2087847Y-28427511D01*
X2084215Y-28402255D01*
X2076655Y-28377879D01*
X2078969Y-28365766D01*
X2077903Y-28358353D01*
X2081148Y-28342872D01*
X2083174Y-28335562D01*
X2098301Y-28299044D01*
X2111004Y-28235179D01*
X2112232Y-28230753D01*
X2128343Y-28204827D01*
X2142493Y-28177778D01*
X2146611Y-28175432D01*
X2149112Y-28171409D01*
X2176677Y-28158311D01*
X2203209Y-28143204D01*
X2207535Y-28142263D01*
X2342520Y-28115413D01*
X2506307Y-28047571D01*
X2506316Y-28047566D01*
X2653716Y-27949076D01*
X2653720Y-27949073D01*
X2779073Y-27823720D01*
X2779076Y-27823716D01*
X2877566Y-27676316D01*
X2877571Y-27676307D01*
X2945413Y-27512520D01*
X2945415Y-27512512D01*
X2979999Y-27338646D01*
X2980000Y-27338643D01*
X2980000Y-27150000D01*
X2380000Y-27150000D01*
X2380000Y-26750000D01*
X2980000Y-26750000D01*
X2980000Y-26561357D01*
X2979999Y-26561353D01*
X9820000Y-26561353D01*
X9820000Y-26750000D01*
X10420000Y-26750000D01*
X10420000Y-27150000D01*
X9820000Y-27150000D01*
X9820000Y-27338646D01*
X9854584Y-27512512D01*
X9854586Y-27512520D01*
X9922428Y-27676307D01*
X9922433Y-27676316D01*
X10020923Y-27823716D01*
X10020926Y-27823720D01*
X10146279Y-27949073D01*
X10146283Y-27949076D01*
X10293683Y-28047566D01*
X10293696Y-28047573D01*
X10457474Y-28115411D01*
X10457482Y-28115413D01*
X10520000Y-28127848D01*
X10520000Y-27474265D01*
X10535795Y-27490060D01*
X10604204Y-27529556D01*
X10680504Y-27550000D01*
X10759496Y-27550000D01*
X10835796Y-27529556D01*
X10904205Y-27490060D01*
X10920000Y-27474265D01*
X10920000Y-28127847D01*
X10982517Y-28115413D01*
X10982525Y-28115411D01*
X11146303Y-28047573D01*
X11146316Y-28047566D01*
X11293716Y-27949076D01*
X11293720Y-27949073D01*
X11419073Y-27823720D01*
X11419076Y-27823716D01*
X11517566Y-27676316D01*
X11517571Y-27676307D01*
X11585413Y-27512520D01*
X11585415Y-27512512D01*
X11619999Y-27338646D01*
X11620000Y-27338643D01*
X11620000Y-27150000D01*
X11020000Y-27150000D01*
X11020000Y-26750000D01*
X11620000Y-26750000D01*
X11620000Y-26561357D01*
X11619999Y-26561353D01*
X11585415Y-26387487D01*
X11585413Y-26387479D01*
X11517571Y-26223692D01*
X11517566Y-26223683D01*
X11419076Y-26076283D01*
X11419073Y-26076279D01*
X11293720Y-25950926D01*
X11293716Y-25950923D01*
X11146316Y-25852433D01*
X11146307Y-25852428D01*
X10982520Y-25784586D01*
X10982512Y-25784584D01*
X10920000Y-25772149D01*
X10920000Y-26425735D01*
X10904205Y-26409940D01*
X10835796Y-26370444D01*
X10759496Y-26350000D01*
X10680504Y-26350000D01*
X10604204Y-26370444D01*
X10535795Y-26409940D01*
X10520000Y-26425735D01*
X10520000Y-25772149D01*
X10457487Y-25784584D01*
X10457479Y-25784586D01*
X10293692Y-25852428D01*
X10293683Y-25852433D01*
X10146283Y-25950923D01*
X10146279Y-25950926D01*
X10020926Y-26076279D01*
X10020923Y-26076283D01*
X9922433Y-26223683D01*
X9922428Y-26223692D01*
X9854586Y-26387479D01*
X9854584Y-26387487D01*
X9820000Y-26561353D01*
X2979999Y-26561353D01*
X2945415Y-26387487D01*
X2945413Y-26387479D01*
X2877571Y-26223692D01*
X2877566Y-26223683D01*
X2779076Y-26076283D01*
X2779073Y-26076279D01*
X2653720Y-25950926D01*
X2653716Y-25950923D01*
X2506316Y-25852433D01*
X2506307Y-25852428D01*
X2342520Y-25784586D01*
X2342512Y-25784584D01*
X2280000Y-25772149D01*
X2280000Y-26425735D01*
X2264205Y-26409940D01*
X2195796Y-26370444D01*
X2119496Y-26350000D01*
X2040504Y-26350000D01*
X1964204Y-26370444D01*
X1895795Y-26409940D01*
X1880000Y-26425735D01*
X1880000Y-25772149D01*
X1817487Y-25784584D01*
X1817479Y-25784586D01*
X1653692Y-25852428D01*
X1653683Y-25852433D01*
X1506283Y-25950923D01*
X1506279Y-25950926D01*
X1380926Y-26076279D01*
X1380923Y-26076283D01*
X1282433Y-26223683D01*
X1282428Y-26223692D01*
X1214586Y-26387479D01*
X1214584Y-26387487D01*
X1180000Y-26561353D01*
X1180000Y-26750000D01*
X1780000Y-26750000D01*
X1780000Y-27150000D01*
X1180000Y-27150000D01*
X1180000Y-27338640D01*
X1196133Y-27419752D01*
X1189904Y-27489344D01*
X1147041Y-27544521D01*
X1143406Y-27547044D01*
X1058131Y-27604023D01*
X1058127Y-27604026D01*
X967526Y-27694627D01*
X967523Y-27694631D01*
X896338Y-27801166D01*
X896333Y-27801175D01*
X847299Y-27919555D01*
X847297Y-27919561D01*
X822300Y-28045228D01*
X822300Y-28045231D01*
X822300Y-28173369D01*
X822300Y-28173371D01*
X822299Y-28173371D01*
X847297Y-28299038D01*
X847299Y-28299044D01*
X859520Y-28328547D01*
X866989Y-28398016D01*
X835714Y-28460495D01*
X775626Y-28496148D01*
X744959Y-28500000D01*
X624000Y-28500000D01*
X556961Y-28480315D01*
X511206Y-28427511D01*
X500000Y-28376000D01*
X500000Y-25035171D01*
X4305499Y-25035171D01*
X4330497Y-25160838D01*
X4330499Y-25160844D01*
X4379533Y-25279224D01*
X4379538Y-25279233D01*
X4450723Y-25385768D01*
X4450726Y-25385772D01*
X4541327Y-25476373D01*
X4541331Y-25476376D01*
X4647866Y-25547561D01*
X4647872Y-25547564D01*
X4647873Y-25547565D01*
X4766256Y-25596601D01*
X4766260Y-25596601D01*
X4766261Y-25596602D01*
X4891928Y-25621600D01*
X4891931Y-25621600D01*
X5020071Y-25621600D01*
X5104615Y-25604782D01*
X5145744Y-25596601D01*
X5264127Y-25547565D01*
X5370669Y-25476376D01*
X5461276Y-25385769D01*
X5532465Y-25279227D01*
X5581501Y-25160844D01*
X5599118Y-25072280D01*
X5606500Y-25035171D01*
X5606500Y-25028481D01*
X5626185Y-24961442D01*
X5678989Y-24915687D01*
X5708313Y-24907790D01*
X5708094Y-24906689D01*
X5801105Y-24888186D01*
X5839744Y-24880501D01*
X5958127Y-24831465D01*
X6064669Y-24760276D01*
X6155276Y-24669669D01*
X6226465Y-24563127D01*
X6275501Y-24444744D01*
X6295223Y-24345597D01*
X6300500Y-24319071D01*
X6300500Y-24190928D01*
X6280059Y-24088171D01*
X7009799Y-24088171D01*
X7034797Y-24213838D01*
X7034799Y-24213844D01*
X7083833Y-24332224D01*
X7083838Y-24332233D01*
X7155023Y-24438768D01*
X7155026Y-24438772D01*
X7245627Y-24529373D01*
X7245631Y-24529376D01*
X7352166Y-24600561D01*
X7352179Y-24600568D01*
X7474443Y-24651211D01*
X7528847Y-24695052D01*
X7550912Y-24761346D01*
X7533633Y-24829045D01*
X7530094Y-24834662D01*
X7491937Y-24891768D01*
X7491933Y-24891775D01*
X7442899Y-25010155D01*
X7442897Y-25010161D01*
X7417900Y-25135828D01*
X7417900Y-25135831D01*
X7417900Y-25263969D01*
X7417900Y-25263971D01*
X7417899Y-25263971D01*
X7442897Y-25389638D01*
X7442899Y-25389644D01*
X7491933Y-25508024D01*
X7491938Y-25508033D01*
X7563123Y-25614568D01*
X7563126Y-25614572D01*
X7653727Y-25705173D01*
X7653731Y-25705176D01*
X7760266Y-25776361D01*
X7760272Y-25776364D01*
X7760273Y-25776365D01*
X7878656Y-25825401D01*
X7878660Y-25825401D01*
X7878661Y-25825402D01*
X8004328Y-25850400D01*
X8004331Y-25850400D01*
X8132471Y-25850400D01*
X8217015Y-25833582D01*
X8258144Y-25825401D01*
X8376527Y-25776365D01*
X8483069Y-25705176D01*
X8573676Y-25614569D01*
X8644865Y-25508027D01*
X8693901Y-25389644D01*
X8718900Y-25263969D01*
X8718900Y-25135831D01*
X8718900Y-25135828D01*
X8693902Y-25010161D01*
X8693901Y-25010160D01*
X8693901Y-25010156D01*
X8654771Y-24915687D01*
X8644866Y-24891775D01*
X8644861Y-24891766D01*
X8573676Y-24785231D01*
X8573673Y-24785227D01*
X8483072Y-24694626D01*
X8483068Y-24694623D01*
X8376533Y-24623438D01*
X8376523Y-24623433D01*
X8254255Y-24572788D01*
X8199852Y-24528947D01*
X8179465Y-24467695D01*
X15445799Y-24467695D01*
X15472718Y-24603022D01*
X15472721Y-24603032D01*
X15525521Y-24730504D01*
X15525528Y-24730517D01*
X15602185Y-24845241D01*
X15602188Y-24845245D01*
X15699754Y-24942811D01*
X15699758Y-24942814D01*
X15814482Y-25019471D01*
X15814495Y-25019478D01*
X15941967Y-25072278D01*
X15941972Y-25072280D01*
X15941976Y-25072280D01*
X15941977Y-25072281D01*
X16077304Y-25099200D01*
X16077307Y-25099200D01*
X16215295Y-25099200D01*
X16306341Y-25081089D01*
X16350628Y-25072280D01*
X16478111Y-25019475D01*
X16592842Y-24942814D01*
X16690414Y-24845242D01*
X16767075Y-24730511D01*
X16819880Y-24603028D01*
X16830547Y-24549400D01*
X16846800Y-24467695D01*
X16846800Y-24329704D01*
X16846799Y-24329702D01*
X16835821Y-24274507D01*
X16832625Y-24258443D01*
X32242800Y-24258443D01*
X32242800Y-24416557D01*
X32282074Y-24563127D01*
X32283723Y-24569283D01*
X32283726Y-24569290D01*
X32362775Y-24706209D01*
X32362779Y-24706214D01*
X32362780Y-24706216D01*
X32474584Y-24818020D01*
X32474586Y-24818021D01*
X32474590Y-24818024D01*
X32611509Y-24897073D01*
X32611516Y-24897077D01*
X32764243Y-24938000D01*
X32764245Y-24938000D01*
X32922355Y-24938000D01*
X32922357Y-24938000D01*
X33075084Y-24897077D01*
X33212016Y-24818020D01*
X33323820Y-24706216D01*
X33402877Y-24569284D01*
X33443800Y-24416557D01*
X33443800Y-24258443D01*
X33441959Y-24251571D01*
X35872499Y-24251571D01*
X35897497Y-24377238D01*
X35897499Y-24377244D01*
X35946533Y-24495624D01*
X35946538Y-24495633D01*
X36017723Y-24602168D01*
X36017726Y-24602172D01*
X36108327Y-24692773D01*
X36108331Y-24692776D01*
X36214866Y-24763961D01*
X36214872Y-24763964D01*
X36214873Y-24763965D01*
X36333256Y-24813001D01*
X36333260Y-24813001D01*
X36333261Y-24813002D01*
X36458928Y-24838000D01*
X36458931Y-24838000D01*
X36587071Y-24838000D01*
X36687512Y-24818020D01*
X36712744Y-24813001D01*
X36831127Y-24763965D01*
X36937669Y-24692776D01*
X37028276Y-24602169D01*
X37099465Y-24495627D01*
X37148501Y-24377244D01*
X37156682Y-24336115D01*
X37173500Y-24251571D01*
X37173500Y-24123428D01*
X37148502Y-23997761D01*
X37148501Y-23997760D01*
X37148501Y-23997756D01*
X37099465Y-23879373D01*
X37099464Y-23879372D01*
X37099461Y-23879366D01*
X37028276Y-23772831D01*
X37028273Y-23772827D01*
X36937672Y-23682226D01*
X36937668Y-23682223D01*
X36831133Y-23611038D01*
X36831124Y-23611033D01*
X36712744Y-23561999D01*
X36712738Y-23561997D01*
X36587071Y-23537000D01*
X36587069Y-23537000D01*
X36458931Y-23537000D01*
X36458929Y-23537000D01*
X36333261Y-23561997D01*
X36333255Y-23561999D01*
X36214875Y-23611033D01*
X36214866Y-23611038D01*
X36108331Y-23682223D01*
X36108327Y-23682226D01*
X36017726Y-23772827D01*
X36017723Y-23772831D01*
X35946538Y-23879366D01*
X35946533Y-23879375D01*
X35897499Y-23997755D01*
X35897497Y-23997761D01*
X35872500Y-24123428D01*
X35872500Y-24123431D01*
X35872500Y-24251569D01*
X35872500Y-24251571D01*
X35872499Y-24251571D01*
X33441959Y-24251571D01*
X33402877Y-24105716D01*
X33402873Y-24105709D01*
X33323824Y-23968790D01*
X33323818Y-23968782D01*
X33212017Y-23856981D01*
X33212009Y-23856975D01*
X33075090Y-23777926D01*
X33075086Y-23777924D01*
X33075084Y-23777923D01*
X32922357Y-23737000D01*
X32764243Y-23737000D01*
X32611516Y-23777923D01*
X32611509Y-23777926D01*
X32474590Y-23856975D01*
X32474582Y-23856981D01*
X32362781Y-23968782D01*
X32362775Y-23968790D01*
X32283726Y-24105709D01*
X32283723Y-24105716D01*
X32242800Y-24258443D01*
X16832625Y-24258443D01*
X16819881Y-24194377D01*
X16819880Y-24194376D01*
X16819880Y-24194372D01*
X16818455Y-24190931D01*
X16767078Y-24066895D01*
X16767071Y-24066882D01*
X16690414Y-23952158D01*
X16690411Y-23952154D01*
X16592845Y-23854588D01*
X16592841Y-23854585D01*
X16478117Y-23777928D01*
X16478104Y-23777921D01*
X16350632Y-23725121D01*
X16350622Y-23725118D01*
X16215295Y-23698200D01*
X16215293Y-23698200D01*
X16077307Y-23698200D01*
X16077305Y-23698200D01*
X15941977Y-23725118D01*
X15941967Y-23725121D01*
X15814495Y-23777921D01*
X15814482Y-23777928D01*
X15699758Y-23854585D01*
X15699754Y-23854588D01*
X15602188Y-23952154D01*
X15602185Y-23952158D01*
X15525528Y-24066882D01*
X15525521Y-24066895D01*
X15472721Y-24194367D01*
X15472718Y-24194377D01*
X15445800Y-24329704D01*
X15445800Y-24329707D01*
X15445800Y-24467693D01*
X15445800Y-24467695D01*
X15445799Y-24467695D01*
X8179465Y-24467695D01*
X8177787Y-24462653D01*
X8195066Y-24394953D01*
X8198606Y-24389336D01*
X8236765Y-24332227D01*
X8285801Y-24213844D01*
X8293982Y-24172715D01*
X8310800Y-24088171D01*
X8310800Y-23960028D01*
X8297181Y-23891564D01*
X8303408Y-23821972D01*
X8346270Y-23766795D01*
X8371346Y-23752811D01*
X8458120Y-23716868D01*
X8458120Y-23716867D01*
X8458127Y-23716865D01*
X8564669Y-23645676D01*
X8615472Y-23594873D01*
X8676795Y-23561387D01*
X8746487Y-23566371D01*
X8802420Y-23608242D01*
X8810540Y-23620551D01*
X8829485Y-23653365D01*
X8936635Y-23760515D01*
X9067865Y-23836281D01*
X9214234Y-23875500D01*
X9214236Y-23875500D01*
X9365764Y-23875500D01*
X9365766Y-23875500D01*
X9512135Y-23836281D01*
X9643365Y-23760515D01*
X9713633Y-23690246D01*
X9774952Y-23656764D01*
X9844644Y-23661748D01*
X9900578Y-23703619D01*
X9915873Y-23730479D01*
X9922429Y-23746309D01*
X9922433Y-23746316D01*
X10020923Y-23893716D01*
X10020926Y-23893720D01*
X10146279Y-24019073D01*
X10146283Y-24019076D01*
X10293683Y-24117566D01*
X10293696Y-24117573D01*
X10457474Y-24185411D01*
X10457482Y-24185413D01*
X10520000Y-24197848D01*
X10520000Y-23544265D01*
X10535795Y-23560060D01*
X10604204Y-23599556D01*
X10680504Y-23620000D01*
X10759496Y-23620000D01*
X10835796Y-23599556D01*
X10904205Y-23560060D01*
X10920000Y-23544265D01*
X10920000Y-24197847D01*
X10982517Y-24185413D01*
X10982525Y-24185411D01*
X11146303Y-24117573D01*
X11146316Y-24117566D01*
X11293716Y-24019076D01*
X11293720Y-24019073D01*
X11419073Y-23893720D01*
X11419076Y-23893716D01*
X11517566Y-23746316D01*
X11517571Y-23746307D01*
X11585413Y-23582520D01*
X11585415Y-23582512D01*
X11619999Y-23408646D01*
X11620000Y-23408643D01*
X11620000Y-22970000D01*
X11020000Y-22970000D01*
X11020000Y-22663671D01*
X13880499Y-22663671D01*
X13905497Y-22789338D01*
X13905499Y-22789344D01*
X13954533Y-22907724D01*
X13954538Y-22907733D01*
X14025723Y-23014268D01*
X14025726Y-23014272D01*
X14116327Y-23104873D01*
X14116331Y-23104876D01*
X14222866Y-23176061D01*
X14222872Y-23176064D01*
X14222873Y-23176065D01*
X14341256Y-23225101D01*
X14341260Y-23225101D01*
X14341261Y-23225102D01*
X14466928Y-23250100D01*
X14466931Y-23250100D01*
X14595071Y-23250100D01*
X14679615Y-23233282D01*
X14720744Y-23225101D01*
X14839127Y-23176065D01*
X14945669Y-23104876D01*
X15036276Y-23014269D01*
X15107465Y-22907727D01*
X15156501Y-22789344D01*
X15169400Y-22724500D01*
X15181500Y-22663671D01*
X15181500Y-22535528D01*
X15156502Y-22409861D01*
X15156501Y-22409860D01*
X15156501Y-22409856D01*
X15107465Y-22291473D01*
X15107464Y-22291472D01*
X15107461Y-22291466D01*
X15036276Y-22184931D01*
X15036273Y-22184927D01*
X14945672Y-22094326D01*
X14945668Y-22094323D01*
X14839133Y-22023138D01*
X14839124Y-22023133D01*
X14720744Y-21974099D01*
X14720738Y-21974097D01*
X14595071Y-21949100D01*
X14595069Y-21949100D01*
X14466931Y-21949100D01*
X14466929Y-21949100D01*
X14341261Y-21974097D01*
X14341255Y-21974099D01*
X14222875Y-22023133D01*
X14222866Y-22023138D01*
X14116331Y-22094323D01*
X14116327Y-22094326D01*
X14025726Y-22184927D01*
X14025723Y-22184931D01*
X13954538Y-22291466D01*
X13954533Y-22291475D01*
X13905499Y-22409855D01*
X13905497Y-22409861D01*
X13880500Y-22535528D01*
X13880500Y-22535531D01*
X13880500Y-22663669D01*
X13880500Y-22663671D01*
X13880499Y-22663671D01*
X11020000Y-22663671D01*
X11020000Y-22570000D01*
X11620000Y-22570000D01*
X11620000Y-22131357D01*
X11619999Y-22131353D01*
X11585415Y-21957487D01*
X11585413Y-21957479D01*
X11517571Y-21793692D01*
X11517566Y-21793683D01*
X11419076Y-21646283D01*
X11419073Y-21646279D01*
X11293720Y-21520926D01*
X11293716Y-21520923D01*
X11146316Y-21422433D01*
X11146307Y-21422428D01*
X10982520Y-21354586D01*
X10982512Y-21354584D01*
X10920000Y-21342149D01*
X10920000Y-21995735D01*
X10904205Y-21979940D01*
X10835796Y-21940444D01*
X10759496Y-21920000D01*
X10680504Y-21920000D01*
X10604204Y-21940444D01*
X10535795Y-21979940D01*
X10520000Y-21995735D01*
X10520000Y-21342149D01*
X10457487Y-21354584D01*
X10457479Y-21354586D01*
X10293692Y-21422428D01*
X10293683Y-21422433D01*
X10146283Y-21520923D01*
X10146279Y-21520926D01*
X10020926Y-21646279D01*
X10020923Y-21646283D01*
X9922433Y-21793683D01*
X9922428Y-21793692D01*
X9854586Y-21957479D01*
X9854584Y-21957487D01*
X9820000Y-22131353D01*
X9820000Y-22570000D01*
X10420000Y-22570000D01*
X10420000Y-22970000D01*
X9825242Y-22970000D01*
X9758203Y-22950315D01*
X9737561Y-22933681D01*
X9643367Y-22839487D01*
X9643365Y-22839485D01*
X9556519Y-22789344D01*
X9512136Y-22763719D01*
X9438950Y-22744109D01*
X9365766Y-22724500D01*
X9214234Y-22724500D01*
X9067863Y-22763719D01*
X8936635Y-22839485D01*
X8936631Y-22839488D01*
X8920374Y-22855745D01*
X8859050Y-22889229D01*
X8789359Y-22884243D01*
X8733426Y-22842370D01*
X8729593Y-22836953D01*
X8655276Y-22725731D01*
X8655273Y-22725727D01*
X8564672Y-22635126D01*
X8564668Y-22635123D01*
X8458133Y-22563938D01*
X8458124Y-22563933D01*
X8339744Y-22514899D01*
X8339738Y-22514897D01*
X8214071Y-22489900D01*
X8214069Y-22489900D01*
X8085931Y-22489900D01*
X8085929Y-22489900D01*
X7960261Y-22514897D01*
X7960255Y-22514899D01*
X7841875Y-22563933D01*
X7841866Y-22563938D01*
X7735331Y-22635123D01*
X7735327Y-22635126D01*
X7644726Y-22725727D01*
X7644723Y-22725731D01*
X7573538Y-22832266D01*
X7573533Y-22832275D01*
X7524499Y-22950655D01*
X7524497Y-22950661D01*
X7499500Y-23076328D01*
X7499500Y-23204473D01*
X7513118Y-23272936D01*
X7506891Y-23342528D01*
X7464027Y-23397705D01*
X7438955Y-23411688D01*
X7352173Y-23447635D01*
X7352166Y-23447638D01*
X7245631Y-23518823D01*
X7245627Y-23518826D01*
X7155026Y-23609427D01*
X7155023Y-23609431D01*
X7083838Y-23715966D01*
X7083833Y-23715975D01*
X7034799Y-23834355D01*
X7034797Y-23834361D01*
X7009800Y-23960028D01*
X7009800Y-23960031D01*
X7009800Y-24088169D01*
X7009800Y-24088171D01*
X7009799Y-24088171D01*
X6280059Y-24088171D01*
X6275502Y-24065261D01*
X6275501Y-24065260D01*
X6275501Y-24065256D01*
X6256373Y-24019076D01*
X6249048Y-24001391D01*
X6226466Y-23946876D01*
X6226466Y-23946875D01*
X6226465Y-23946873D01*
X6226463Y-23946870D01*
X6226461Y-23946866D01*
X6155276Y-23840331D01*
X6155273Y-23840327D01*
X6064672Y-23749726D01*
X6064668Y-23749723D01*
X5958133Y-23678538D01*
X5958124Y-23678533D01*
X5839744Y-23629499D01*
X5839740Y-23629498D01*
X5799928Y-23621578D01*
X5738018Y-23589191D01*
X5703445Y-23528475D01*
X5707186Y-23458705D01*
X5721020Y-23431069D01*
X5728065Y-23420527D01*
X5777101Y-23302144D01*
X5785282Y-23261015D01*
X5802100Y-23176471D01*
X5802100Y-23048328D01*
X5777102Y-22922661D01*
X5777101Y-22922660D01*
X5777101Y-22922656D01*
X5730664Y-22810548D01*
X5728066Y-22804275D01*
X5728061Y-22804266D01*
X5656876Y-22697731D01*
X5656873Y-22697727D01*
X5566272Y-22607126D01*
X5566268Y-22607123D01*
X5459733Y-22535938D01*
X5459724Y-22535933D01*
X5341344Y-22486899D01*
X5341338Y-22486897D01*
X5215671Y-22461900D01*
X5215669Y-22461900D01*
X5087531Y-22461900D01*
X5087529Y-22461900D01*
X4961861Y-22486897D01*
X4961855Y-22486899D01*
X4843475Y-22535933D01*
X4843466Y-22535938D01*
X4736931Y-22607123D01*
X4736927Y-22607126D01*
X4646326Y-22697727D01*
X4646323Y-22697731D01*
X4575138Y-22804266D01*
X4575133Y-22804275D01*
X4526099Y-22922655D01*
X4526097Y-22922661D01*
X4501100Y-23048328D01*
X4501100Y-23048331D01*
X4501100Y-23176469D01*
X4501100Y-23176471D01*
X4501099Y-23176471D01*
X4526097Y-23302138D01*
X4526099Y-23302144D01*
X4575133Y-23420524D01*
X4575138Y-23420533D01*
X4646323Y-23527068D01*
X4646326Y-23527072D01*
X4736927Y-23617673D01*
X4736931Y-23617676D01*
X4843466Y-23688861D01*
X4843472Y-23688864D01*
X4843473Y-23688865D01*
X4961856Y-23737901D01*
X4961860Y-23737901D01*
X4961861Y-23737902D01*
X5001669Y-23745821D01*
X5063580Y-23778206D01*
X5098154Y-23838922D01*
X5094413Y-23908692D01*
X5080581Y-23936326D01*
X5073539Y-23946865D01*
X5073533Y-23946875D01*
X5024499Y-24065255D01*
X5024497Y-24065261D01*
X4999500Y-24190928D01*
X4999500Y-24197618D01*
X4979815Y-24264657D01*
X4927011Y-24310412D01*
X4897688Y-24318316D01*
X4897906Y-24319411D01*
X4766261Y-24345597D01*
X4766255Y-24345599D01*
X4647875Y-24394633D01*
X4647866Y-24394638D01*
X4541331Y-24465823D01*
X4541327Y-24465826D01*
X4450726Y-24556427D01*
X4450723Y-24556431D01*
X4379538Y-24662966D01*
X4379533Y-24662975D01*
X4330499Y-24781355D01*
X4330497Y-24781361D01*
X4305500Y-24907028D01*
X4305500Y-24907031D01*
X4305500Y-25035169D01*
X4305500Y-25035171D01*
X4305499Y-25035171D01*
X500000Y-25035171D01*
X500000Y-22131353D01*
X1180000Y-22131353D01*
X1180000Y-22570000D01*
X1780000Y-22570000D01*
X1780000Y-22970000D01*
X1180000Y-22970000D01*
X1180000Y-23408646D01*
X1214584Y-23582512D01*
X1214586Y-23582520D01*
X1282428Y-23746307D01*
X1282433Y-23746316D01*
X1380923Y-23893716D01*
X1380926Y-23893720D01*
X1506279Y-24019073D01*
X1506283Y-24019076D01*
X1653683Y-24117566D01*
X1653696Y-24117573D01*
X1817474Y-24185411D01*
X1817482Y-24185413D01*
X1880000Y-24197848D01*
X1880000Y-23544265D01*
X1895795Y-23560060D01*
X1964204Y-23599556D01*
X2040504Y-23620000D01*
X2119496Y-23620000D01*
X2195796Y-23599556D01*
X2264205Y-23560060D01*
X2280000Y-23544265D01*
X2280000Y-24197847D01*
X2342517Y-24185413D01*
X2342525Y-24185411D01*
X2506303Y-24117573D01*
X2506316Y-24117566D01*
X2653716Y-24019076D01*
X2653720Y-24019073D01*
X2779073Y-23893720D01*
X2779076Y-23893716D01*
X2877566Y-23746316D01*
X2877569Y-23746310D01*
X2884124Y-23730484D01*
X2927962Y-23676078D01*
X2994255Y-23654009D01*
X3061955Y-23671285D01*
X3086369Y-23690249D01*
X3156635Y-23760515D01*
X3287865Y-23836281D01*
X3434234Y-23875500D01*
X3434236Y-23875500D01*
X3585764Y-23875500D01*
X3585766Y-23875500D01*
X3732135Y-23836281D01*
X3863365Y-23760515D01*
X3970515Y-23653365D01*
X4046281Y-23522135D01*
X4085500Y-23375766D01*
X4085500Y-23224234D01*
X4046281Y-23077865D01*
X3970515Y-22946635D01*
X3863365Y-22839485D01*
X3776519Y-22789344D01*
X3732136Y-22763719D01*
X3658950Y-22744109D01*
X3585766Y-22724500D01*
X3434234Y-22724500D01*
X3287863Y-22763719D01*
X3156635Y-22839485D01*
X3156632Y-22839487D01*
X3062439Y-22933681D01*
X3001116Y-22967166D01*
X2974758Y-22970000D01*
X2380000Y-22970000D01*
X2380000Y-22570000D01*
X2980000Y-22570000D01*
X2980000Y-22131357D01*
X2979999Y-22131353D01*
X2945415Y-21957487D01*
X2945413Y-21957479D01*
X2877571Y-21793692D01*
X2877566Y-21793683D01*
X2779076Y-21646283D01*
X2779073Y-21646279D01*
X2653720Y-21520926D01*
X2653716Y-21520923D01*
X2506316Y-21422433D01*
X2506307Y-21422428D01*
X2342520Y-21354586D01*
X2342512Y-21354584D01*
X2280000Y-21342149D01*
X2280000Y-21995735D01*
X2264205Y-21979940D01*
X2195796Y-21940444D01*
X2119496Y-21920000D01*
X2040504Y-21920000D01*
X1964204Y-21940444D01*
X1895795Y-21979940D01*
X1880000Y-21995735D01*
X1880000Y-21342149D01*
X1817487Y-21354584D01*
X1817479Y-21354586D01*
X1653692Y-21422428D01*
X1653683Y-21422433D01*
X1506283Y-21520923D01*
X1506279Y-21520926D01*
X1380926Y-21646279D01*
X1380923Y-21646283D01*
X1282433Y-21793683D01*
X1282428Y-21793692D01*
X1214586Y-21957479D01*
X1214584Y-21957487D01*
X1180000Y-22131353D01*
X500000Y-22131353D01*
X500000Y-20975258D01*
X23414500Y-20975258D01*
X23414500Y-21204741D01*
X23432591Y-21342149D01*
X23444452Y-21432238D01*
X23444453Y-21432240D01*
X23503842Y-21653887D01*
X23591650Y-21865876D01*
X23591657Y-21865890D01*
X23706392Y-22064617D01*
X23846081Y-22246661D01*
X23846089Y-22246670D01*
X24008330Y-22408911D01*
X24008338Y-22408918D01*
X24190382Y-22548607D01*
X24190385Y-22548608D01*
X24190388Y-22548611D01*
X24389112Y-22663344D01*
X24389117Y-22663346D01*
X24389123Y-22663349D01*
X24472120Y-22697727D01*
X24601113Y-22751158D01*
X24822762Y-22810548D01*
X25050266Y-22840500D01*
X25050273Y-22840500D01*
X25279727Y-22840500D01*
X25279734Y-22840500D01*
X25507238Y-22810548D01*
X25728887Y-22751158D01*
X25940888Y-22663344D01*
X26139612Y-22548611D01*
X26321661Y-22408919D01*
X26321665Y-22408914D01*
X26321670Y-22408911D01*
X26483911Y-22246670D01*
X26483914Y-22246665D01*
X26483919Y-22246661D01*
X26623611Y-22064612D01*
X26738344Y-21865888D01*
X26826158Y-21653887D01*
X26885548Y-21432238D01*
X26915500Y-21204734D01*
X26915500Y-20975266D01*
X26885548Y-20747762D01*
X26826158Y-20526113D01*
X26776190Y-20405480D01*
X26738349Y-20314123D01*
X26738346Y-20314117D01*
X26738344Y-20314112D01*
X26623611Y-20115388D01*
X26623608Y-20115385D01*
X26623607Y-20115382D01*
X26483918Y-19933338D01*
X26483911Y-19933330D01*
X26321670Y-19771089D01*
X26321661Y-19771081D01*
X26139617Y-19631392D01*
X25940890Y-19516657D01*
X25940876Y-19516650D01*
X25728887Y-19428842D01*
X25669386Y-19412899D01*
X25507238Y-19369452D01*
X25469215Y-19364446D01*
X25279741Y-19339500D01*
X25279734Y-19339500D01*
X25050266Y-19339500D01*
X25050258Y-19339500D01*
X24833715Y-19368009D01*
X24822762Y-19369452D01*
X24729076Y-19394554D01*
X24601112Y-19428842D01*
X24389123Y-19516650D01*
X24389109Y-19516657D01*
X24190382Y-19631392D01*
X24008338Y-19771081D01*
X23846081Y-19933338D01*
X23706392Y-20115382D01*
X23591657Y-20314109D01*
X23591650Y-20314123D01*
X23503842Y-20526112D01*
X23444453Y-20747759D01*
X23444451Y-20747770D01*
X23414500Y-20975258D01*
X500000Y-20975258D01*
X500000Y-19719071D01*
X7099499Y-19719071D01*
X7124497Y-19844738D01*
X7124499Y-19844744D01*
X7173533Y-19963124D01*
X7173538Y-19963133D01*
X7244723Y-20069668D01*
X7244726Y-20069672D01*
X7335327Y-20160273D01*
X7335331Y-20160276D01*
X7441866Y-20231461D01*
X7441872Y-20231464D01*
X7441873Y-20231465D01*
X7560256Y-20280501D01*
X7560260Y-20280501D01*
X7560261Y-20280502D01*
X7685928Y-20305500D01*
X7685931Y-20305500D01*
X7814071Y-20305500D01*
X7898615Y-20288682D01*
X7939744Y-20280501D01*
X8058127Y-20231465D01*
X8164669Y-20160276D01*
X8222474Y-20102471D01*
X12236899Y-20102471D01*
X12261897Y-20228138D01*
X12261899Y-20228144D01*
X12310933Y-20346524D01*
X12310938Y-20346533D01*
X12382123Y-20453068D01*
X12382126Y-20453072D01*
X12472727Y-20543673D01*
X12472731Y-20543676D01*
X12579266Y-20614861D01*
X12579272Y-20614864D01*
X12579273Y-20614865D01*
X12697656Y-20663901D01*
X12697660Y-20663901D01*
X12697661Y-20663902D01*
X12823328Y-20688900D01*
X12823331Y-20688900D01*
X12951471Y-20688900D01*
X13036015Y-20672082D01*
X13077144Y-20663901D01*
X13195527Y-20614865D01*
X13302069Y-20543676D01*
X13392676Y-20453069D01*
X13463865Y-20346527D01*
X13512901Y-20228144D01*
X13526402Y-20160273D01*
X13537900Y-20102471D01*
X13537900Y-19974328D01*
X13511713Y-19842682D01*
X13513234Y-19842379D01*
X13512669Y-19780120D01*
X13549908Y-19721002D01*
X13613198Y-19691401D01*
X13656151Y-19692356D01*
X13722228Y-19705500D01*
X13722231Y-19705500D01*
X13850371Y-19705500D01*
X13934915Y-19688682D01*
X13976044Y-19680501D01*
X14094427Y-19631465D01*
X14200969Y-19560276D01*
X14291576Y-19469669D01*
X14362765Y-19363127D01*
X14411801Y-19244744D01*
X14430702Y-19149724D01*
X14436800Y-19119071D01*
X14436800Y-18990928D01*
X14411802Y-18865261D01*
X14411801Y-18865260D01*
X14411801Y-18865256D01*
X14362765Y-18746873D01*
X14362764Y-18746872D01*
X14362761Y-18746866D01*
X14291576Y-18640331D01*
X14291573Y-18640327D01*
X14200972Y-18549726D01*
X14200968Y-18549723D01*
X14094433Y-18478538D01*
X14094424Y-18478533D01*
X13976044Y-18429499D01*
X13976038Y-18429497D01*
X13850371Y-18404500D01*
X13850369Y-18404500D01*
X13722231Y-18404500D01*
X13722229Y-18404500D01*
X13596561Y-18429497D01*
X13596555Y-18429499D01*
X13478175Y-18478533D01*
X13478166Y-18478538D01*
X13371631Y-18549723D01*
X13371627Y-18549726D01*
X13281026Y-18640327D01*
X13281023Y-18640331D01*
X13209838Y-18746866D01*
X13209833Y-18746875D01*
X13160799Y-18865255D01*
X13160797Y-18865261D01*
X13135800Y-18990928D01*
X13135800Y-18990931D01*
X13135800Y-19119069D01*
X13135800Y-19119071D01*
X13135799Y-19119071D01*
X13161987Y-19250718D01*
X13160467Y-19251020D01*
X13161025Y-19313296D01*
X13123778Y-19372409D01*
X13060484Y-19402001D01*
X13017550Y-19401044D01*
X12951469Y-19387900D01*
X12823331Y-19387900D01*
X12823329Y-19387900D01*
X12697661Y-19412897D01*
X12697655Y-19412899D01*
X12579275Y-19461933D01*
X12579266Y-19461938D01*
X12472731Y-19533123D01*
X12472727Y-19533126D01*
X12382126Y-19623727D01*
X12382123Y-19623731D01*
X12310938Y-19730266D01*
X12310933Y-19730275D01*
X12261899Y-19848655D01*
X12261897Y-19848661D01*
X12236900Y-19974328D01*
X12236900Y-19974331D01*
X12236900Y-20102469D01*
X12236900Y-20102471D01*
X12236899Y-20102471D01*
X8222474Y-20102471D01*
X8255276Y-20069669D01*
X8326465Y-19963127D01*
X8375501Y-19844744D01*
X8398271Y-19730275D01*
X8400500Y-19719071D01*
X8400500Y-19590928D01*
X8375502Y-19465261D01*
X8375501Y-19465260D01*
X8375501Y-19465256D01*
X8326465Y-19346873D01*
X8326464Y-19346872D01*
X8326461Y-19346866D01*
X8255276Y-19240331D01*
X8255273Y-19240327D01*
X8164672Y-19149726D01*
X8164668Y-19149723D01*
X8058133Y-19078538D01*
X8058124Y-19078533D01*
X7939744Y-19029499D01*
X7939738Y-19029497D01*
X7814071Y-19004500D01*
X7814069Y-19004500D01*
X7685931Y-19004500D01*
X7685929Y-19004500D01*
X7560261Y-19029497D01*
X7560255Y-19029499D01*
X7441875Y-19078533D01*
X7441866Y-19078538D01*
X7335331Y-19149723D01*
X7335327Y-19149726D01*
X7244726Y-19240327D01*
X7244723Y-19240331D01*
X7173538Y-19346866D01*
X7173533Y-19346875D01*
X7124499Y-19465255D01*
X7124497Y-19465261D01*
X7099500Y-19590928D01*
X7099500Y-19590931D01*
X7099500Y-19719069D01*
X7099500Y-19719071D01*
X7099499Y-19719071D01*
X500000Y-19719071D01*
X500000Y-18719071D01*
X2599499Y-18719071D01*
X2624497Y-18844738D01*
X2624499Y-18844744D01*
X2673533Y-18963124D01*
X2673538Y-18963133D01*
X2744723Y-19069668D01*
X2744726Y-19069672D01*
X2835327Y-19160273D01*
X2835331Y-19160276D01*
X2941866Y-19231461D01*
X2941872Y-19231464D01*
X2941873Y-19231465D01*
X3060256Y-19280501D01*
X3060260Y-19280501D01*
X3060261Y-19280502D01*
X3185928Y-19305500D01*
X3185931Y-19305500D01*
X3314071Y-19305500D01*
X3398615Y-19288682D01*
X3439744Y-19280501D01*
X3558127Y-19231465D01*
X3664669Y-19160276D01*
X3755276Y-19069669D01*
X3826465Y-18963127D01*
X3875501Y-18844744D01*
X3894969Y-18746875D01*
X3900500Y-18719071D01*
X8899498Y-18719071D01*
X8924496Y-18844738D01*
X8924498Y-18844744D01*
X8973532Y-18963124D01*
X8973537Y-18963133D01*
X9044722Y-19069668D01*
X9044725Y-19069672D01*
X9135326Y-19160273D01*
X9135330Y-19160276D01*
X9241865Y-19231461D01*
X9241871Y-19231464D01*
X9241872Y-19231465D01*
X9360255Y-19280501D01*
X9360259Y-19280501D01*
X9360260Y-19280502D01*
X9485927Y-19305500D01*
X9485930Y-19305500D01*
X9614070Y-19305500D01*
X9698614Y-19288682D01*
X9739743Y-19280501D01*
X9858126Y-19231465D01*
X9964668Y-19160276D01*
X10055275Y-19069669D01*
X10126464Y-18963127D01*
X10175500Y-18844744D01*
X10194968Y-18746875D01*
X10200499Y-18719071D01*
X10200499Y-18590928D01*
X10175501Y-18465261D01*
X10175500Y-18465260D01*
X10175500Y-18465256D01*
X10126464Y-18346873D01*
X10126463Y-18346872D01*
X10126460Y-18346866D01*
X10055275Y-18240331D01*
X10055272Y-18240327D01*
X9964671Y-18149726D01*
X9964667Y-18149723D01*
X9858132Y-18078538D01*
X9858123Y-18078533D01*
X9739743Y-18029499D01*
X9739737Y-18029497D01*
X9614070Y-18004500D01*
X9614068Y-18004500D01*
X9485930Y-18004500D01*
X9485928Y-18004500D01*
X9360260Y-18029497D01*
X9360254Y-18029499D01*
X9241874Y-18078533D01*
X9241865Y-18078538D01*
X9135330Y-18149723D01*
X9135326Y-18149726D01*
X9044725Y-18240327D01*
X9044722Y-18240331D01*
X8973537Y-18346866D01*
X8973532Y-18346875D01*
X8924498Y-18465255D01*
X8924496Y-18465261D01*
X8899499Y-18590928D01*
X8899499Y-18590931D01*
X8899499Y-18719069D01*
X8899499Y-18719071D01*
X8899498Y-18719071D01*
X3900500Y-18719071D01*
X3900500Y-18590928D01*
X3875502Y-18465261D01*
X3875501Y-18465260D01*
X3875501Y-18465256D01*
X3838500Y-18375929D01*
X3831032Y-18306463D01*
X3862307Y-18243984D01*
X3922395Y-18208331D01*
X3928871Y-18206862D01*
X3954622Y-18201739D01*
X3993128Y-18194080D01*
X4120611Y-18141275D01*
X4235342Y-18064614D01*
X4332914Y-17967042D01*
X4409575Y-17852311D01*
X4462380Y-17724828D01*
X4480438Y-17634044D01*
X4489300Y-17589495D01*
X4489300Y-17508371D01*
X7761899Y-17508371D01*
X7786897Y-17634038D01*
X7786899Y-17634044D01*
X7835933Y-17752424D01*
X7835938Y-17752433D01*
X7907123Y-17858968D01*
X7907126Y-17858972D01*
X7997727Y-17949573D01*
X7997731Y-17949576D01*
X8104266Y-18020761D01*
X8104275Y-18020766D01*
X8116146Y-18025683D01*
X8222656Y-18069801D01*
X8222660Y-18069801D01*
X8222661Y-18069802D01*
X8348328Y-18094800D01*
X8348331Y-18094800D01*
X8476471Y-18094800D01*
X8561015Y-18077982D01*
X8602144Y-18069801D01*
X8720527Y-18020765D01*
X8827069Y-17949576D01*
X8917676Y-17858969D01*
X8988865Y-17752427D01*
X9037901Y-17634044D01*
X9058819Y-17528885D01*
X9062900Y-17508371D01*
X9062900Y-17380228D01*
X9037902Y-17254561D01*
X9037901Y-17254560D01*
X9037901Y-17254556D01*
X8988865Y-17136173D01*
X8988864Y-17136172D01*
X8988861Y-17136166D01*
X8917676Y-17029631D01*
X8917673Y-17029627D01*
X8827072Y-16939026D01*
X8827068Y-16939023D01*
X8720533Y-16867838D01*
X8720524Y-16867833D01*
X8602144Y-16818799D01*
X8602138Y-16818797D01*
X8476471Y-16793800D01*
X8476469Y-16793800D01*
X8348331Y-16793800D01*
X8348329Y-16793800D01*
X8222661Y-16818797D01*
X8222655Y-16818799D01*
X8104275Y-16867833D01*
X8104266Y-16867838D01*
X7997731Y-16939023D01*
X7997727Y-16939026D01*
X7907126Y-17029627D01*
X7907123Y-17029631D01*
X7835938Y-17136166D01*
X7835933Y-17136175D01*
X7786899Y-17254555D01*
X7786897Y-17254561D01*
X7761900Y-17380228D01*
X7761900Y-17380231D01*
X7761900Y-17508369D01*
X7761900Y-17508371D01*
X7761899Y-17508371D01*
X4489300Y-17508371D01*
X4489300Y-17451504D01*
X4489299Y-17451502D01*
X4478723Y-17398330D01*
X4462381Y-17316177D01*
X4462380Y-17316176D01*
X4462380Y-17316172D01*
X4436858Y-17254556D01*
X4409578Y-17188695D01*
X4409571Y-17188682D01*
X4332914Y-17073958D01*
X4332911Y-17073954D01*
X4235345Y-16976388D01*
X4235341Y-16976385D01*
X4120617Y-16899728D01*
X4120604Y-16899721D01*
X3993132Y-16846921D01*
X3993122Y-16846918D01*
X3857795Y-16820000D01*
X3857793Y-16820000D01*
X3719807Y-16820000D01*
X3719805Y-16820000D01*
X3584477Y-16846918D01*
X3584467Y-16846921D01*
X3456995Y-16899721D01*
X3456982Y-16899728D01*
X3342258Y-16976385D01*
X3342254Y-16976388D01*
X3244688Y-17073954D01*
X3244685Y-17073958D01*
X3168028Y-17188682D01*
X3168021Y-17188695D01*
X3115221Y-17316167D01*
X3115218Y-17316177D01*
X3088300Y-17451504D01*
X3088300Y-17451507D01*
X3088300Y-17589493D01*
X3088300Y-17589495D01*
X3088299Y-17589495D01*
X3115218Y-17724822D01*
X3115221Y-17724832D01*
X3169806Y-17856614D01*
X3177275Y-17926084D01*
X3145999Y-17988563D01*
X3085910Y-18024214D01*
X3079438Y-18025683D01*
X3060260Y-18029497D01*
X3060255Y-18029499D01*
X2941875Y-18078533D01*
X2941866Y-18078538D01*
X2835331Y-18149723D01*
X2835327Y-18149726D01*
X2744726Y-18240327D01*
X2744723Y-18240331D01*
X2673538Y-18346866D01*
X2673533Y-18346875D01*
X2624499Y-18465255D01*
X2624497Y-18465261D01*
X2599500Y-18590928D01*
X2599500Y-18590931D01*
X2599500Y-18719069D01*
X2599500Y-18719071D01*
X2599499Y-18719071D01*
X500000Y-18719071D01*
X500000Y-16507171D01*
X18292099Y-16507171D01*
X18317097Y-16632838D01*
X18317099Y-16632844D01*
X18366133Y-16751224D01*
X18366138Y-16751233D01*
X18437323Y-16857768D01*
X18437326Y-16857772D01*
X18527927Y-16948373D01*
X18527931Y-16948376D01*
X18634466Y-17019561D01*
X18634472Y-17019564D01*
X18634473Y-17019565D01*
X18752856Y-17068601D01*
X18752860Y-17068601D01*
X18752861Y-17068602D01*
X18878528Y-17093600D01*
X18878531Y-17093600D01*
X19006671Y-17093600D01*
X19105433Y-17073954D01*
X19132344Y-17068601D01*
X19250727Y-17019565D01*
X19335219Y-16963108D01*
X19401894Y-16942232D01*
X19469274Y-16960716D01*
X19515964Y-17012694D01*
X19527141Y-17081664D01*
X19518669Y-17113664D01*
X19451607Y-17275565D01*
X19451602Y-17275581D01*
X19389227Y-17508371D01*
X19383730Y-17528885D01*
X19349500Y-17788872D01*
X19349500Y-18051127D01*
X19370004Y-18206862D01*
X19383730Y-18311116D01*
X19447665Y-18549724D01*
X19451602Y-18564418D01*
X19451605Y-18564428D01*
X19551953Y-18806690D01*
X19551958Y-18806700D01*
X19683075Y-19033803D01*
X19842718Y-19241851D01*
X19842726Y-19241860D01*
X20028140Y-19427274D01*
X20028148Y-19427281D01*
X20236196Y-19586924D01*
X20463299Y-19718041D01*
X20463309Y-19718046D01*
X20705571Y-19818394D01*
X20705581Y-19818398D01*
X20958884Y-19886270D01*
X21218880Y-19920500D01*
X21218887Y-19920500D01*
X21481113Y-19920500D01*
X21481120Y-19920500D01*
X21741116Y-19886270D01*
X21994419Y-19818398D01*
X22171340Y-19745114D01*
X22236690Y-19718046D01*
X22236691Y-19718045D01*
X22236697Y-19718043D01*
X22463803Y-19586924D01*
X22671851Y-19427282D01*
X22671855Y-19427277D01*
X22671860Y-19427274D01*
X22857274Y-19241860D01*
X22857277Y-19241855D01*
X22857282Y-19241851D01*
X23016924Y-19033803D01*
X23148043Y-18806697D01*
X23248398Y-18564419D01*
X23316270Y-18311116D01*
X23350500Y-18051120D01*
X23350500Y-17816530D01*
X28559500Y-17816530D01*
X28559500Y-18023469D01*
X28599868Y-18226412D01*
X28599870Y-18226420D01*
X28679058Y-18417596D01*
X28794024Y-18589657D01*
X28940342Y-18735975D01*
X28940345Y-18735977D01*
X29112402Y-18850941D01*
X29303580Y-18930130D01*
X29506530Y-18970499D01*
X29506534Y-18970500D01*
X29506535Y-18970500D01*
X29713466Y-18970500D01*
X29713467Y-18970499D01*
X29916420Y-18930130D01*
X30107598Y-18850941D01*
X30279655Y-18735977D01*
X30425977Y-18589655D01*
X30540941Y-18417598D01*
X30620130Y-18226420D01*
X30660500Y-18023465D01*
X30660500Y-17816535D01*
X30620130Y-17613580D01*
X30540941Y-17422402D01*
X30425977Y-17250345D01*
X30425975Y-17250342D01*
X30279657Y-17104024D01*
X30153248Y-17019561D01*
X30107598Y-16989059D01*
X30077000Y-16976385D01*
X29916420Y-16909870D01*
X29916412Y-16909868D01*
X29713469Y-16869500D01*
X29713465Y-16869500D01*
X29506535Y-16869500D01*
X29506530Y-16869500D01*
X29303587Y-16909868D01*
X29303579Y-16909870D01*
X29112403Y-16989058D01*
X28940342Y-17104024D01*
X28794024Y-17250342D01*
X28679058Y-17422403D01*
X28599870Y-17613579D01*
X28599868Y-17613587D01*
X28559500Y-17816530D01*
X23350500Y-17816530D01*
X23350500Y-17788880D01*
X23316270Y-17528884D01*
X23248398Y-17275581D01*
X23248394Y-17275571D01*
X23148046Y-17033309D01*
X23148041Y-17033299D01*
X23016924Y-16806196D01*
X22883900Y-16632838D01*
X22857282Y-16598149D01*
X22857281Y-16598148D01*
X22857274Y-16598140D01*
X22671860Y-16412726D01*
X22671851Y-16412718D01*
X22463803Y-16253075D01*
X22236700Y-16121958D01*
X22236690Y-16121953D01*
X21994428Y-16021605D01*
X21994421Y-16021603D01*
X21994422Y-16021603D01*
X21994419Y-16021602D01*
X21931228Y-16004670D01*
X21871570Y-15968306D01*
X21841041Y-15905459D01*
X21849336Y-15836083D01*
X21893821Y-15782205D01*
X21915865Y-15770338D01*
X22125888Y-15683344D01*
X22324612Y-15568611D01*
X22506661Y-15428919D01*
X22506665Y-15428914D01*
X22506670Y-15428911D01*
X22668911Y-15266670D01*
X22668914Y-15266665D01*
X22668919Y-15266661D01*
X22808611Y-15084612D01*
X22923344Y-14885888D01*
X23011158Y-14673887D01*
X23070548Y-14452238D01*
X23100500Y-14224734D01*
X23100500Y-13995266D01*
X23100499Y-13995258D01*
X23414500Y-13995258D01*
X23414500Y-14224741D01*
X23434849Y-14379300D01*
X23444452Y-14452238D01*
X23503842Y-14673887D01*
X23591650Y-14885876D01*
X23591657Y-14885890D01*
X23706392Y-15084617D01*
X23846081Y-15266661D01*
X23846089Y-15266670D01*
X24008330Y-15428911D01*
X24008338Y-15428918D01*
X24190382Y-15568607D01*
X24190385Y-15568608D01*
X24190388Y-15568611D01*
X24389112Y-15683344D01*
X24389117Y-15683346D01*
X24389123Y-15683349D01*
X24480480Y-15721190D01*
X24601113Y-15771158D01*
X24822762Y-15830548D01*
X25050266Y-15860500D01*
X25050273Y-15860500D01*
X25279727Y-15860500D01*
X25279734Y-15860500D01*
X25507238Y-15830548D01*
X25728887Y-15771158D01*
X25940888Y-15683344D01*
X26139612Y-15568611D01*
X26321661Y-15428919D01*
X26321665Y-15428914D01*
X26321670Y-15428911D01*
X26483911Y-15266670D01*
X26483914Y-15266665D01*
X26483919Y-15266661D01*
X26623611Y-15084612D01*
X26738344Y-14885888D01*
X26826158Y-14673887D01*
X26885548Y-14452238D01*
X26915500Y-14224734D01*
X26915500Y-13995266D01*
X26885548Y-13767762D01*
X26826158Y-13546113D01*
X26755196Y-13374795D01*
X26738349Y-13334123D01*
X26738346Y-13334117D01*
X26738344Y-13334112D01*
X26623611Y-13135388D01*
X26623608Y-13135385D01*
X26623607Y-13135382D01*
X26483918Y-12953338D01*
X26483911Y-12953330D01*
X26321670Y-12791089D01*
X26321661Y-12791081D01*
X26139617Y-12651392D01*
X25940890Y-12536657D01*
X25940876Y-12536650D01*
X25728887Y-12448842D01*
X25507238Y-12389452D01*
X25469215Y-12384446D01*
X25279741Y-12359500D01*
X25279734Y-12359500D01*
X25050266Y-12359500D01*
X25050258Y-12359500D01*
X24833715Y-12388009D01*
X24822762Y-12389452D01*
X24729076Y-12414554D01*
X24601112Y-12448842D01*
X24389123Y-12536650D01*
X24389109Y-12536657D01*
X24190382Y-12651392D01*
X24008338Y-12791081D01*
X23846081Y-12953338D01*
X23706392Y-13135382D01*
X23591657Y-13334109D01*
X23591650Y-13334123D01*
X23503842Y-13546112D01*
X23485365Y-13615071D01*
X23451589Y-13741128D01*
X23444453Y-13767759D01*
X23444451Y-13767770D01*
X23414500Y-13995258D01*
X23100499Y-13995258D01*
X23070548Y-13767762D01*
X23011158Y-13546113D01*
X22940196Y-13374795D01*
X22923349Y-13334123D01*
X22923346Y-13334117D01*
X22923344Y-13334112D01*
X22808611Y-13135388D01*
X22808608Y-13135385D01*
X22808607Y-13135382D01*
X22668918Y-12953338D01*
X22668911Y-12953330D01*
X22506670Y-12791089D01*
X22506661Y-12791081D01*
X22324617Y-12651392D01*
X22125890Y-12536657D01*
X22125881Y-12536652D01*
X22058417Y-12508708D01*
X22004014Y-12464867D01*
X21981949Y-12398572D01*
X21999228Y-12330873D01*
X22050366Y-12283263D01*
X22058418Y-12279586D01*
X22280787Y-12187479D01*
X22280802Y-12187472D01*
X22519195Y-12049836D01*
X22687697Y-11920539D01*
X21757216Y-10990058D01*
X21859970Y-10921401D01*
X21971401Y-10809970D01*
X22040058Y-10707216D01*
X22970539Y-11637697D01*
X23099836Y-11469195D01*
X23237472Y-11230802D01*
X23237479Y-11230787D01*
X23342819Y-10976471D01*
X23414069Y-10710565D01*
X23450000Y-10437641D01*
X23450000Y-10196530D01*
X33639500Y-10196530D01*
X33639500Y-10403469D01*
X33679868Y-10606412D01*
X33679870Y-10606420D01*
X33752037Y-10780647D01*
X33759059Y-10797598D01*
X33769132Y-10812673D01*
X33874024Y-10969657D01*
X34020342Y-11115975D01*
X34020345Y-11115977D01*
X34192402Y-11230941D01*
X34383580Y-11310130D01*
X34586530Y-11350499D01*
X34586534Y-11350500D01*
X34586535Y-11350500D01*
X34793466Y-11350500D01*
X34793467Y-11350499D01*
X34996420Y-11310130D01*
X35187598Y-11230941D01*
X35359655Y-11115977D01*
X35505977Y-10969655D01*
X35620941Y-10797598D01*
X35700130Y-10606420D01*
X35740500Y-10403465D01*
X35740500Y-10196535D01*
X35700130Y-9993580D01*
X35620941Y-9802402D01*
X35505977Y-9630345D01*
X35505975Y-9630342D01*
X35359657Y-9484024D01*
X35273626Y-9426541D01*
X35187598Y-9369059D01*
X34996420Y-9289870D01*
X34996412Y-9289868D01*
X34793469Y-9249500D01*
X34793465Y-9249500D01*
X34586535Y-9249500D01*
X34586530Y-9249500D01*
X34383587Y-9289868D01*
X34383579Y-9289870D01*
X34192403Y-9369058D01*
X34020342Y-9484024D01*
X33874024Y-9630342D01*
X33759058Y-9802403D01*
X33679870Y-9993579D01*
X33679868Y-9993587D01*
X33639500Y-10196530D01*
X23450000Y-10196530D01*
X23450000Y-10162358D01*
X23414069Y-9889434D01*
X23342819Y-9623528D01*
X23237479Y-9369212D01*
X23237472Y-9369197D01*
X23099836Y-9130803D01*
X22970539Y-8962301D01*
X22040058Y-9892782D01*
X21971401Y-9790030D01*
X21859970Y-9678599D01*
X21757216Y-9609941D01*
X22687697Y-8679459D01*
X22687697Y-8679458D01*
X22519200Y-8550166D01*
X22280802Y-8412527D01*
X22280787Y-8412520D01*
X22026471Y-8307180D01*
X21760565Y-8235930D01*
X21487642Y-8200000D01*
X21212358Y-8200000D01*
X20939434Y-8235930D01*
X20673528Y-8307180D01*
X20419212Y-8412520D01*
X20419197Y-8412527D01*
X20180799Y-8550166D01*
X20012301Y-8679458D01*
X20012301Y-8679459D01*
X20942783Y-9609941D01*
X20840030Y-9678599D01*
X20728599Y-9790030D01*
X20659941Y-9892783D01*
X19729459Y-8962301D01*
X19729458Y-8962301D01*
X19600166Y-9130799D01*
X19462527Y-9369197D01*
X19462520Y-9369212D01*
X19357180Y-9623528D01*
X19285930Y-9889434D01*
X19250000Y-10162358D01*
X19250000Y-10437641D01*
X19285930Y-10710565D01*
X19357180Y-10976471D01*
X19462520Y-11230787D01*
X19462527Y-11230802D01*
X19600166Y-11469200D01*
X19729459Y-11637697D01*
X20659941Y-10707216D01*
X20728599Y-10809970D01*
X20840030Y-10921401D01*
X20942783Y-10990058D01*
X20012301Y-11920539D01*
X20180803Y-12049836D01*
X20419197Y-12187472D01*
X20419212Y-12187479D01*
X20641581Y-12279586D01*
X20695985Y-12323426D01*
X20718050Y-12389720D01*
X20700771Y-12457420D01*
X20649634Y-12505031D01*
X20641583Y-12508708D01*
X20574113Y-12536655D01*
X20574109Y-12536657D01*
X20375382Y-12651392D01*
X20193338Y-12791081D01*
X20031081Y-12953338D01*
X19891392Y-13135382D01*
X19776657Y-13334109D01*
X19776650Y-13334123D01*
X19688842Y-13546112D01*
X19670365Y-13615071D01*
X19636589Y-13741128D01*
X19629453Y-13767759D01*
X19629451Y-13767770D01*
X19599500Y-13995258D01*
X19599500Y-14224741D01*
X19619849Y-14379300D01*
X19629452Y-14452238D01*
X19688842Y-14673887D01*
X19776650Y-14885876D01*
X19776657Y-14885890D01*
X19891392Y-15084617D01*
X20031081Y-15266661D01*
X20031089Y-15266670D01*
X20193330Y-15428911D01*
X20193338Y-15428918D01*
X20375382Y-15568607D01*
X20375385Y-15568608D01*
X20375388Y-15568611D01*
X20574112Y-15683344D01*
X20574117Y-15683346D01*
X20574123Y-15683349D01*
X20685875Y-15729638D01*
X20784127Y-15770335D01*
X20838531Y-15814176D01*
X20860596Y-15880470D01*
X20843317Y-15948169D01*
X20792180Y-15995780D01*
X20768769Y-16004670D01*
X20705581Y-16021602D01*
X20705579Y-16021602D01*
X20705578Y-16021603D01*
X20705571Y-16021605D01*
X20463309Y-16121953D01*
X20463299Y-16121958D01*
X20236196Y-16253075D01*
X20028148Y-16412718D01*
X19842726Y-16598140D01*
X19842716Y-16598151D01*
X19805059Y-16647225D01*
X19748631Y-16688427D01*
X19678885Y-16692580D01*
X19617965Y-16658367D01*
X19585213Y-16596649D01*
X19585068Y-16547547D01*
X19593100Y-16507169D01*
X19593100Y-16379031D01*
X19593100Y-16379028D01*
X19568102Y-16253361D01*
X19568101Y-16253360D01*
X19568101Y-16253356D01*
X19519065Y-16134973D01*
X19519064Y-16134972D01*
X19519061Y-16134966D01*
X19447876Y-16028431D01*
X19447873Y-16028427D01*
X19357272Y-15937826D01*
X19357268Y-15937823D01*
X19250733Y-15866638D01*
X19250724Y-15866633D01*
X19132344Y-15817599D01*
X19132338Y-15817597D01*
X19006671Y-15792600D01*
X19006669Y-15792600D01*
X18878531Y-15792600D01*
X18878529Y-15792600D01*
X18752861Y-15817597D01*
X18752855Y-15817599D01*
X18634475Y-15866633D01*
X18634466Y-15866638D01*
X18527931Y-15937823D01*
X18527927Y-15937826D01*
X18437326Y-16028427D01*
X18437323Y-16028431D01*
X18366138Y-16134966D01*
X18366133Y-16134975D01*
X18317099Y-16253355D01*
X18317097Y-16253361D01*
X18292100Y-16379028D01*
X18292100Y-16379031D01*
X18292100Y-16507169D01*
X18292100Y-16507171D01*
X18292099Y-16507171D01*
X500000Y-16507171D01*
X500000Y-15603971D01*
X4528099Y-15603971D01*
X4553097Y-15729638D01*
X4553099Y-15729644D01*
X4602133Y-15848024D01*
X4602138Y-15848033D01*
X4673323Y-15954568D01*
X4673326Y-15954572D01*
X4763927Y-16045173D01*
X4763931Y-16045176D01*
X4870466Y-16116361D01*
X4870475Y-16116366D01*
X4897292Y-16127474D01*
X4988856Y-16165401D01*
X4988860Y-16165401D01*
X4988861Y-16165402D01*
X5114528Y-16190400D01*
X5114531Y-16190400D01*
X5242671Y-16190400D01*
X5327215Y-16173582D01*
X5368344Y-16165401D01*
X5486727Y-16116365D01*
X5593269Y-16045176D01*
X5683876Y-15954569D01*
X5755065Y-15848027D01*
X5804101Y-15729644D01*
X5829100Y-15603969D01*
X5829100Y-15475831D01*
X5829100Y-15475828D01*
X5826761Y-15464071D01*
X12597299Y-15464071D01*
X12622297Y-15589738D01*
X12622299Y-15589744D01*
X12671333Y-15708124D01*
X12671338Y-15708133D01*
X12742523Y-15814668D01*
X12742526Y-15814672D01*
X12833127Y-15905273D01*
X12833131Y-15905276D01*
X12939666Y-15976461D01*
X12939672Y-15976464D01*
X12939673Y-15976465D01*
X13058056Y-16025501D01*
X13058060Y-16025501D01*
X13058061Y-16025502D01*
X13183728Y-16050500D01*
X13183731Y-16050500D01*
X13311871Y-16050500D01*
X13422834Y-16028427D01*
X13437544Y-16025501D01*
X13555927Y-15976465D01*
X13662469Y-15905276D01*
X13753076Y-15814669D01*
X13824265Y-15708127D01*
X13873301Y-15589744D01*
X13881482Y-15548615D01*
X13898300Y-15464071D01*
X13898300Y-15335928D01*
X13873302Y-15210261D01*
X13873301Y-15210260D01*
X13873301Y-15210256D01*
X13824265Y-15091873D01*
X13824264Y-15091872D01*
X13824261Y-15091866D01*
X13753076Y-14985331D01*
X13753073Y-14985327D01*
X13662472Y-14894726D01*
X13662468Y-14894723D01*
X13555933Y-14823538D01*
X13555924Y-14823533D01*
X13437544Y-14774499D01*
X13437538Y-14774497D01*
X13311871Y-14749500D01*
X13311869Y-14749500D01*
X13183731Y-14749500D01*
X13183729Y-14749500D01*
X13058061Y-14774497D01*
X13058055Y-14774499D01*
X12939675Y-14823533D01*
X12939666Y-14823538D01*
X12833131Y-14894723D01*
X12833127Y-14894726D01*
X12742526Y-14985327D01*
X12742523Y-14985331D01*
X12671338Y-15091866D01*
X12671333Y-15091875D01*
X12622299Y-15210255D01*
X12622297Y-15210261D01*
X12597300Y-15335928D01*
X12597300Y-15335931D01*
X12597300Y-15464069D01*
X12597300Y-15464071D01*
X12597299Y-15464071D01*
X5826761Y-15464071D01*
X5804102Y-15350161D01*
X5804101Y-15350160D01*
X5804101Y-15350156D01*
X5755065Y-15231773D01*
X5755064Y-15231772D01*
X5755061Y-15231766D01*
X5683876Y-15125231D01*
X5683873Y-15125227D01*
X5593272Y-15034626D01*
X5593268Y-15034623D01*
X5486733Y-14963438D01*
X5486724Y-14963433D01*
X5368344Y-14914399D01*
X5368338Y-14914397D01*
X5242671Y-14889400D01*
X5242669Y-14889400D01*
X5114531Y-14889400D01*
X5114529Y-14889400D01*
X4988861Y-14914397D01*
X4988855Y-14914399D01*
X4870475Y-14963433D01*
X4870466Y-14963438D01*
X4763931Y-15034623D01*
X4763927Y-15034626D01*
X4673326Y-15125227D01*
X4673323Y-15125231D01*
X4602138Y-15231766D01*
X4602133Y-15231775D01*
X4553099Y-15350155D01*
X4553097Y-15350161D01*
X4528100Y-15475828D01*
X4528100Y-15475831D01*
X4528100Y-15603969D01*
X4528100Y-15603971D01*
X4528099Y-15603971D01*
X500000Y-15603971D01*
X500000Y-14702471D01*
X7154999Y-14702471D01*
X7179997Y-14828138D01*
X7179999Y-14828144D01*
X7229033Y-14946524D01*
X7229038Y-14946533D01*
X7300223Y-15053068D01*
X7300226Y-15053072D01*
X7390827Y-15143673D01*
X7390831Y-15143676D01*
X7497366Y-15214861D01*
X7497375Y-15214866D01*
X7498370Y-15215278D01*
X7615756Y-15263901D01*
X7615760Y-15263901D01*
X7615761Y-15263902D01*
X7741428Y-15288900D01*
X7741431Y-15288900D01*
X7869571Y-15288900D01*
X7954115Y-15272082D01*
X7995244Y-15263901D01*
X8112632Y-15215277D01*
X8112633Y-15215277D01*
X8112921Y-15215157D01*
X8113627Y-15214865D01*
X8220169Y-15143676D01*
X8310776Y-15053069D01*
X8381965Y-14946527D01*
X8431001Y-14828144D01*
X8456000Y-14702469D01*
X8456000Y-14574331D01*
X8456000Y-14574328D01*
X8431002Y-14448661D01*
X8431001Y-14448660D01*
X8431001Y-14448656D01*
X8381965Y-14330273D01*
X8381964Y-14330272D01*
X8381961Y-14330266D01*
X8310776Y-14223731D01*
X8310773Y-14223727D01*
X8220172Y-14133126D01*
X8220168Y-14133123D01*
X8113633Y-14061938D01*
X8113624Y-14061933D01*
X7995244Y-14012899D01*
X7995238Y-14012897D01*
X7869571Y-13987900D01*
X7869569Y-13987900D01*
X7741431Y-13987900D01*
X7741429Y-13987900D01*
X7615761Y-14012897D01*
X7615755Y-14012899D01*
X7497375Y-14061933D01*
X7497366Y-14061938D01*
X7390831Y-14133123D01*
X7390827Y-14133126D01*
X7300226Y-14223727D01*
X7300223Y-14223731D01*
X7229038Y-14330266D01*
X7229033Y-14330275D01*
X7179999Y-14448655D01*
X7179997Y-14448661D01*
X7155000Y-14574328D01*
X7155000Y-14574331D01*
X7155000Y-14702469D01*
X7155000Y-14702471D01*
X7154999Y-14702471D01*
X500000Y-14702471D01*
X500000Y-13264471D01*
X8235899Y-13264471D01*
X8260897Y-13390138D01*
X8260899Y-13390144D01*
X8309933Y-13508524D01*
X8309938Y-13508533D01*
X8381123Y-13615068D01*
X8381126Y-13615072D01*
X8471727Y-13705673D01*
X8471731Y-13705676D01*
X8578266Y-13776861D01*
X8578272Y-13776864D01*
X8578273Y-13776865D01*
X8696656Y-13825901D01*
X8696660Y-13825901D01*
X8696661Y-13825902D01*
X8822328Y-13850900D01*
X8822331Y-13850900D01*
X8950471Y-13850900D01*
X9035015Y-13834082D01*
X9076144Y-13825901D01*
X9194527Y-13776865D01*
X9301069Y-13705676D01*
X9391676Y-13615069D01*
X9432210Y-13554404D01*
X9485821Y-13509601D01*
X9555146Y-13500893D01*
X9618174Y-13531047D01*
X9654893Y-13590489D01*
X9656930Y-13647485D01*
X9653500Y-13664730D01*
X9653500Y-13664731D01*
X9653500Y-13792869D01*
X9653500Y-13792871D01*
X9653499Y-13792871D01*
X9678497Y-13918538D01*
X9678499Y-13918544D01*
X9727533Y-14036924D01*
X9727538Y-14036933D01*
X9798723Y-14143468D01*
X9798726Y-14143472D01*
X9889327Y-14234073D01*
X9889331Y-14234076D01*
X9995866Y-14305261D01*
X9995872Y-14305264D01*
X9995873Y-14305265D01*
X10114256Y-14354301D01*
X10114260Y-14354301D01*
X10114261Y-14354302D01*
X10239928Y-14379300D01*
X10239931Y-14379300D01*
X10368071Y-14379300D01*
X10452615Y-14362482D01*
X10493744Y-14354301D01*
X10612127Y-14305265D01*
X10718669Y-14234076D01*
X10809276Y-14143469D01*
X10880465Y-14036927D01*
X10929501Y-13918544D01*
X10942226Y-13854571D01*
X12586399Y-13854571D01*
X12611397Y-13980238D01*
X12611399Y-13980244D01*
X12660433Y-14098624D01*
X12660438Y-14098633D01*
X12731623Y-14205168D01*
X12731626Y-14205172D01*
X12822227Y-14295773D01*
X12822231Y-14295776D01*
X12928766Y-14366961D01*
X12928772Y-14366964D01*
X12928773Y-14366965D01*
X13047156Y-14416001D01*
X13047160Y-14416001D01*
X13047161Y-14416002D01*
X13172828Y-14441000D01*
X13172831Y-14441000D01*
X13300971Y-14441000D01*
X13385515Y-14424182D01*
X13426644Y-14416001D01*
X13545027Y-14366965D01*
X13651569Y-14295776D01*
X13742176Y-14205169D01*
X13813365Y-14098627D01*
X13862401Y-13980244D01*
X13874674Y-13918544D01*
X13884476Y-13869271D01*
X15107299Y-13869271D01*
X15132297Y-13994938D01*
X15132299Y-13994944D01*
X15181333Y-14113324D01*
X15181338Y-14113333D01*
X15252523Y-14219868D01*
X15252526Y-14219872D01*
X15343127Y-14310473D01*
X15343131Y-14310476D01*
X15449666Y-14381661D01*
X15449672Y-14381664D01*
X15449673Y-14381665D01*
X15568056Y-14430701D01*
X15568060Y-14430701D01*
X15568061Y-14430702D01*
X15693728Y-14455700D01*
X15693731Y-14455700D01*
X15821871Y-14455700D01*
X15906415Y-14438882D01*
X15947544Y-14430701D01*
X16065927Y-14381665D01*
X16172469Y-14310476D01*
X16263076Y-14219869D01*
X16334265Y-14113327D01*
X16383301Y-13994944D01*
X16408300Y-13869269D01*
X16408300Y-13741131D01*
X16408300Y-13741128D01*
X16383302Y-13615461D01*
X16383301Y-13615460D01*
X16383301Y-13615456D01*
X16339012Y-13508533D01*
X16334266Y-13497075D01*
X16334261Y-13497066D01*
X16263076Y-13390531D01*
X16263073Y-13390527D01*
X16172472Y-13299926D01*
X16172468Y-13299923D01*
X16065933Y-13228738D01*
X16065924Y-13228733D01*
X15947544Y-13179699D01*
X15947538Y-13179697D01*
X15821871Y-13154700D01*
X15821869Y-13154700D01*
X15693731Y-13154700D01*
X15693729Y-13154700D01*
X15568061Y-13179697D01*
X15568055Y-13179699D01*
X15449675Y-13228733D01*
X15449666Y-13228738D01*
X15343131Y-13299923D01*
X15343127Y-13299926D01*
X15252526Y-13390527D01*
X15252523Y-13390531D01*
X15181338Y-13497066D01*
X15181333Y-13497075D01*
X15132299Y-13615455D01*
X15132297Y-13615461D01*
X15107300Y-13741128D01*
X15107300Y-13741131D01*
X15107300Y-13869269D01*
X15107300Y-13869271D01*
X15107299Y-13869271D01*
X13884476Y-13869271D01*
X13887400Y-13854571D01*
X13887400Y-13726428D01*
X13862402Y-13600761D01*
X13862401Y-13600760D01*
X13862401Y-13600756D01*
X13813365Y-13482373D01*
X13813364Y-13482372D01*
X13813361Y-13482366D01*
X13742176Y-13375831D01*
X13742173Y-13375827D01*
X13651572Y-13285226D01*
X13651568Y-13285223D01*
X13545033Y-13214038D01*
X13545024Y-13214033D01*
X13426644Y-13164999D01*
X13426638Y-13164997D01*
X13300971Y-13140000D01*
X13300969Y-13140000D01*
X13172831Y-13140000D01*
X13172829Y-13140000D01*
X13047161Y-13164997D01*
X13047155Y-13164999D01*
X12928775Y-13214033D01*
X12928766Y-13214038D01*
X12822231Y-13285223D01*
X12822227Y-13285226D01*
X12731626Y-13375827D01*
X12731623Y-13375831D01*
X12660438Y-13482366D01*
X12660433Y-13482375D01*
X12611399Y-13600755D01*
X12611397Y-13600761D01*
X12586400Y-13726428D01*
X12586400Y-13726431D01*
X12586400Y-13854569D01*
X12586400Y-13854571D01*
X12586399Y-13854571D01*
X10942226Y-13854571D01*
X10947929Y-13825902D01*
X10954500Y-13792871D01*
X10954500Y-13664728D01*
X10929502Y-13539061D01*
X10929501Y-13539060D01*
X10929501Y-13539056D01*
X10880465Y-13420673D01*
X10880464Y-13420672D01*
X10880461Y-13420666D01*
X10809276Y-13314131D01*
X10809273Y-13314127D01*
X10718672Y-13223526D01*
X10718668Y-13223523D01*
X10612133Y-13152338D01*
X10612124Y-13152333D01*
X10493744Y-13103299D01*
X10493738Y-13103297D01*
X10368071Y-13078300D01*
X10368069Y-13078300D01*
X10239931Y-13078300D01*
X10239929Y-13078300D01*
X10114261Y-13103297D01*
X10114255Y-13103299D01*
X9995875Y-13152333D01*
X9995866Y-13152338D01*
X9889331Y-13223523D01*
X9889327Y-13223526D01*
X9798726Y-13314127D01*
X9758189Y-13374795D01*
X9704576Y-13419599D01*
X9635251Y-13428306D01*
X9572224Y-13398151D01*
X9535505Y-13338707D01*
X9533470Y-13281711D01*
X9536900Y-13264469D01*
X9536900Y-13136331D01*
X9536900Y-13136328D01*
X9511902Y-13010661D01*
X9511901Y-13010660D01*
X9511901Y-13010656D01*
X9462865Y-12892273D01*
X9462864Y-12892272D01*
X9462861Y-12892266D01*
X9391676Y-12785731D01*
X9391673Y-12785727D01*
X9301072Y-12695126D01*
X9301068Y-12695123D01*
X9194533Y-12623938D01*
X9194524Y-12623933D01*
X9076144Y-12574899D01*
X9076138Y-12574897D01*
X8950471Y-12549900D01*
X8950469Y-12549900D01*
X8822331Y-12549900D01*
X8822329Y-12549900D01*
X8696661Y-12574897D01*
X8696655Y-12574899D01*
X8578275Y-12623933D01*
X8578266Y-12623938D01*
X8471731Y-12695123D01*
X8471727Y-12695126D01*
X8381126Y-12785727D01*
X8381123Y-12785731D01*
X8309938Y-12892266D01*
X8309933Y-12892275D01*
X8260899Y-13010655D01*
X8260897Y-13010661D01*
X8235900Y-13136328D01*
X8235900Y-13136331D01*
X8235900Y-13264469D01*
X8235900Y-13264471D01*
X8235899Y-13264471D01*
X500000Y-13264471D01*
X500000Y-10725171D01*
X3988799Y-10725171D01*
X4013797Y-10850838D01*
X4013799Y-10850844D01*
X4062833Y-10969224D01*
X4062838Y-10969233D01*
X4134023Y-11075768D01*
X4134026Y-11075772D01*
X4224627Y-11166373D01*
X4224631Y-11166376D01*
X4331166Y-11237561D01*
X4331172Y-11237564D01*
X4331173Y-11237565D01*
X4449556Y-11286601D01*
X4449560Y-11286601D01*
X4449561Y-11286602D01*
X4575228Y-11311600D01*
X4575231Y-11311600D01*
X4703371Y-11311600D01*
X4798262Y-11292724D01*
X4829044Y-11286601D01*
X4947427Y-11237565D01*
X5053969Y-11166376D01*
X5144576Y-11075769D01*
X5215765Y-10969227D01*
X5228256Y-10939071D01*
X10150199Y-10939071D01*
X10175197Y-11064738D01*
X10175199Y-11064744D01*
X10224233Y-11183124D01*
X10224238Y-11183133D01*
X10295423Y-11289668D01*
X10295426Y-11289672D01*
X10386027Y-11380273D01*
X10386031Y-11380276D01*
X10492566Y-11451461D01*
X10492572Y-11451464D01*
X10492573Y-11451465D01*
X10610956Y-11500501D01*
X10610960Y-11500501D01*
X10610961Y-11500502D01*
X10736628Y-11525500D01*
X10736631Y-11525500D01*
X10864771Y-11525500D01*
X10949315Y-11508682D01*
X10990444Y-11500501D01*
X11024418Y-11486428D01*
X11093883Y-11478959D01*
X11156363Y-11510232D01*
X11174970Y-11532096D01*
X11177224Y-11535470D01*
X11267827Y-11626073D01*
X11267831Y-11626076D01*
X11374366Y-11697261D01*
X11374372Y-11697264D01*
X11374373Y-11697265D01*
X11492756Y-11746301D01*
X11492760Y-11746301D01*
X11492761Y-11746302D01*
X11618428Y-11771300D01*
X11618431Y-11771300D01*
X11746571Y-11771300D01*
X11831115Y-11754482D01*
X11872244Y-11746301D01*
X11990627Y-11697265D01*
X12097169Y-11626076D01*
X12187776Y-11535469D01*
X12258965Y-11428927D01*
X12308001Y-11310544D01*
X12323207Y-11234100D01*
X12333000Y-11184871D01*
X12333000Y-11056728D01*
X12308002Y-10931061D01*
X12308001Y-10931060D01*
X12308001Y-10931056D01*
X12258965Y-10812673D01*
X12249387Y-10798338D01*
X12246426Y-10793906D01*
X12246425Y-10793905D01*
X12205825Y-10733143D01*
X13167500Y-10733143D01*
X13167500Y-10891257D01*
X13202874Y-11023272D01*
X13208423Y-11043983D01*
X13208426Y-11043990D01*
X13287475Y-11180909D01*
X13287479Y-11180914D01*
X13287480Y-11180916D01*
X13399284Y-11292720D01*
X13399286Y-11292721D01*
X13399290Y-11292724D01*
X13430156Y-11310544D01*
X13536216Y-11371777D01*
X13688943Y-11412700D01*
X13688945Y-11412700D01*
X13847055Y-11412700D01*
X13847057Y-11412700D01*
X13999784Y-11371777D01*
X14136716Y-11292720D01*
X14248520Y-11180916D01*
X14327577Y-11043984D01*
X14368500Y-10891257D01*
X14368500Y-10733143D01*
X14352297Y-10672671D01*
X15083499Y-10672671D01*
X15108497Y-10798338D01*
X15108499Y-10798344D01*
X15157533Y-10916724D01*
X15157538Y-10916733D01*
X15228723Y-11023268D01*
X15228726Y-11023272D01*
X15319327Y-11113873D01*
X15319331Y-11113876D01*
X15425866Y-11185061D01*
X15425872Y-11185064D01*
X15425873Y-11185065D01*
X15544256Y-11234101D01*
X15544260Y-11234101D01*
X15544261Y-11234102D01*
X15669928Y-11259100D01*
X15669931Y-11259100D01*
X15798071Y-11259100D01*
X15882615Y-11242282D01*
X15923744Y-11234101D01*
X16042127Y-11185065D01*
X16148669Y-11113876D01*
X16239276Y-11023269D01*
X16310465Y-10916727D01*
X16359501Y-10798344D01*
X16372471Y-10733143D01*
X16384500Y-10672671D01*
X16384500Y-10544528D01*
X16359502Y-10418861D01*
X16359501Y-10418860D01*
X16359501Y-10418856D01*
X16310465Y-10300473D01*
X16310464Y-10300472D01*
X16310461Y-10300466D01*
X16261500Y-10227191D01*
X16239276Y-10193931D01*
X16239273Y-10193927D01*
X16148672Y-10103326D01*
X16148668Y-10103323D01*
X16042133Y-10032138D01*
X16042124Y-10032133D01*
X15923744Y-9983099D01*
X15923738Y-9983097D01*
X15798071Y-9958100D01*
X15798069Y-9958100D01*
X15669931Y-9958100D01*
X15669929Y-9958100D01*
X15544261Y-9983097D01*
X15544255Y-9983099D01*
X15425875Y-10032133D01*
X15425866Y-10032138D01*
X15319331Y-10103323D01*
X15319327Y-10103326D01*
X15228726Y-10193927D01*
X15228723Y-10193931D01*
X15157538Y-10300466D01*
X15157533Y-10300475D01*
X15108499Y-10418855D01*
X15108497Y-10418861D01*
X15083500Y-10544528D01*
X15083500Y-10544531D01*
X15083500Y-10672669D01*
X15083500Y-10672671D01*
X15083499Y-10672671D01*
X14352297Y-10672671D01*
X14327577Y-10580416D01*
X14306859Y-10544531D01*
X14248524Y-10443490D01*
X14248518Y-10443482D01*
X14136717Y-10331681D01*
X14136709Y-10331675D01*
X13999790Y-10252626D01*
X13999786Y-10252624D01*
X13999784Y-10252623D01*
X13847057Y-10211700D01*
X13688943Y-10211700D01*
X13536216Y-10252623D01*
X13536209Y-10252626D01*
X13399290Y-10331675D01*
X13399282Y-10331681D01*
X13287481Y-10443482D01*
X13287475Y-10443490D01*
X13208426Y-10580409D01*
X13208423Y-10580416D01*
X13167500Y-10733143D01*
X12205825Y-10733143D01*
X12187776Y-10706131D01*
X12187773Y-10706127D01*
X12097172Y-10615526D01*
X12097168Y-10615523D01*
X11990633Y-10544338D01*
X11990624Y-10544333D01*
X11872244Y-10495299D01*
X11872238Y-10495297D01*
X11746571Y-10470300D01*
X11746569Y-10470300D01*
X11618431Y-10470300D01*
X11618429Y-10470300D01*
X11492761Y-10495297D01*
X11492751Y-10495300D01*
X11458782Y-10509371D01*
X11389313Y-10516840D01*
X11326834Y-10485564D01*
X11308227Y-10463700D01*
X11305974Y-10460328D01*
X11215372Y-10369726D01*
X11215368Y-10369723D01*
X11108833Y-10298538D01*
X11108824Y-10298533D01*
X10990444Y-10249499D01*
X10990438Y-10249497D01*
X10864771Y-10224500D01*
X10864769Y-10224500D01*
X10736631Y-10224500D01*
X10736629Y-10224500D01*
X10610961Y-10249497D01*
X10610955Y-10249499D01*
X10492575Y-10298533D01*
X10492566Y-10298538D01*
X10386031Y-10369723D01*
X10386027Y-10369726D01*
X10295426Y-10460327D01*
X10295423Y-10460331D01*
X10224238Y-10566866D01*
X10224233Y-10566875D01*
X10175199Y-10685255D01*
X10175197Y-10685261D01*
X10150200Y-10810928D01*
X10150200Y-10810931D01*
X10150200Y-10939069D01*
X10150200Y-10939071D01*
X10150199Y-10939071D01*
X5228256Y-10939071D01*
X5264801Y-10850844D01*
X5268368Y-10832910D01*
X5278765Y-10780647D01*
X5289800Y-10725171D01*
X5289800Y-10597028D01*
X5264802Y-10471361D01*
X5264801Y-10471360D01*
X5264801Y-10471356D01*
X5215765Y-10352973D01*
X5215764Y-10352972D01*
X5215761Y-10352966D01*
X5144576Y-10246431D01*
X5144573Y-10246427D01*
X5053972Y-10155826D01*
X5053968Y-10155823D01*
X4947433Y-10084638D01*
X4947424Y-10084633D01*
X4829044Y-10035599D01*
X4829038Y-10035597D01*
X4703371Y-10010600D01*
X4703369Y-10010600D01*
X4575231Y-10010600D01*
X4575229Y-10010600D01*
X4449561Y-10035597D01*
X4449555Y-10035599D01*
X4331175Y-10084633D01*
X4331166Y-10084638D01*
X4224631Y-10155823D01*
X4224627Y-10155826D01*
X4134026Y-10246427D01*
X4134023Y-10246431D01*
X4062838Y-10352966D01*
X4062833Y-10352975D01*
X4013799Y-10471355D01*
X4013797Y-10471361D01*
X3988800Y-10597028D01*
X3988800Y-10597031D01*
X3988800Y-10725169D01*
X3988800Y-10725171D01*
X3988799Y-10725171D01*
X500000Y-10725171D01*
X500000Y-8725071D01*
X11820499Y-8725071D01*
X11845497Y-8850738D01*
X11845499Y-8850744D01*
X11894533Y-8969124D01*
X11894538Y-8969133D01*
X11965723Y-9075668D01*
X11965726Y-9075672D01*
X12056327Y-9166273D01*
X12056331Y-9166276D01*
X12162866Y-9237461D01*
X12162872Y-9237464D01*
X12162873Y-9237465D01*
X12281256Y-9286501D01*
X12281260Y-9286501D01*
X12281261Y-9286502D01*
X12406928Y-9311500D01*
X12406931Y-9311500D01*
X12535071Y-9311500D01*
X12643817Y-9289868D01*
X12660744Y-9286501D01*
X12779127Y-9237465D01*
X12885669Y-9166276D01*
X12976276Y-9075669D01*
X13047465Y-8969127D01*
X13057471Y-8944971D01*
X15110599Y-8944971D01*
X15135597Y-9070638D01*
X15135599Y-9070644D01*
X15184633Y-9189024D01*
X15184638Y-9189033D01*
X15255823Y-9295568D01*
X15255826Y-9295572D01*
X15346427Y-9386173D01*
X15346431Y-9386176D01*
X15452966Y-9457361D01*
X15452972Y-9457364D01*
X15452973Y-9457365D01*
X15571356Y-9506401D01*
X15571360Y-9506401D01*
X15571361Y-9506402D01*
X15697028Y-9531400D01*
X15697031Y-9531400D01*
X15825171Y-9531400D01*
X15909715Y-9514582D01*
X15950844Y-9506401D01*
X16069227Y-9457365D01*
X16175769Y-9386176D01*
X16266376Y-9295569D01*
X16337565Y-9189027D01*
X16386601Y-9070644D01*
X16394782Y-9029515D01*
X16411600Y-8944971D01*
X16411600Y-8816828D01*
X16411599Y-8816826D01*
X16398626Y-8751603D01*
X16386602Y-8691160D01*
X16386601Y-8691158D01*
X16386601Y-8691156D01*
X16337565Y-8572773D01*
X16337564Y-8572772D01*
X16337561Y-8572766D01*
X16266376Y-8466231D01*
X16266373Y-8466227D01*
X16175772Y-8375626D01*
X16175768Y-8375623D01*
X16069233Y-8304438D01*
X16069224Y-8304433D01*
X15950844Y-8255399D01*
X15950838Y-8255397D01*
X15825171Y-8230400D01*
X15825169Y-8230400D01*
X15697031Y-8230400D01*
X15697029Y-8230400D01*
X15571361Y-8255397D01*
X15571355Y-8255399D01*
X15452975Y-8304433D01*
X15452966Y-8304438D01*
X15346431Y-8375623D01*
X15346427Y-8375626D01*
X15255826Y-8466227D01*
X15255823Y-8466231D01*
X15184638Y-8572766D01*
X15184633Y-8572775D01*
X15135599Y-8691155D01*
X15135597Y-8691161D01*
X15110600Y-8816828D01*
X15110600Y-8816831D01*
X15110600Y-8944969D01*
X15110600Y-8944971D01*
X15110599Y-8944971D01*
X13057471Y-8944971D01*
X13096501Y-8850744D01*
X13121500Y-8725069D01*
X13121500Y-8596931D01*
X13121500Y-8596928D01*
X13096502Y-8471261D01*
X13096501Y-8471260D01*
X13096501Y-8471256D01*
X13047465Y-8352873D01*
X13047464Y-8352872D01*
X13047461Y-8352866D01*
X12976276Y-8246331D01*
X12976273Y-8246327D01*
X12885672Y-8155726D01*
X12885668Y-8155723D01*
X12779133Y-8084538D01*
X12779124Y-8084533D01*
X12660744Y-8035499D01*
X12660738Y-8035497D01*
X12535071Y-8010500D01*
X12535069Y-8010500D01*
X12406931Y-8010500D01*
X12406929Y-8010500D01*
X12281261Y-8035497D01*
X12281255Y-8035499D01*
X12162875Y-8084533D01*
X12162866Y-8084538D01*
X12056331Y-8155723D01*
X12056327Y-8155726D01*
X11965726Y-8246327D01*
X11965723Y-8246331D01*
X11894538Y-8352866D01*
X11894533Y-8352875D01*
X11845499Y-8471255D01*
X11845497Y-8471261D01*
X11820500Y-8596928D01*
X11820500Y-8596931D01*
X11820500Y-8725069D01*
X11820500Y-8725071D01*
X11820499Y-8725071D01*
X500000Y-8725071D01*
X500000Y-7464571D01*
X3329199Y-7464571D01*
X3354197Y-7590238D01*
X3354199Y-7590244D01*
X3403233Y-7708624D01*
X3403238Y-7708633D01*
X3474423Y-7815168D01*
X3474426Y-7815172D01*
X3565027Y-7905773D01*
X3565031Y-7905776D01*
X3671566Y-7976961D01*
X3671572Y-7976964D01*
X3671573Y-7976965D01*
X3789956Y-8026001D01*
X3789960Y-8026001D01*
X3789961Y-8026002D01*
X3915628Y-8051000D01*
X3915631Y-8051000D01*
X4043771Y-8051000D01*
X4128315Y-8034182D01*
X4169444Y-8026001D01*
X4287827Y-7976965D01*
X4394369Y-7905776D01*
X4484976Y-7815169D01*
X4556165Y-7708627D01*
X4605201Y-7590244D01*
X4613382Y-7549115D01*
X4630200Y-7464571D01*
X4630200Y-7336428D01*
X4605202Y-7210761D01*
X4605201Y-7210760D01*
X4605201Y-7210756D01*
X4556165Y-7092373D01*
X4556164Y-7092372D01*
X4556161Y-7092366D01*
X4484976Y-6985831D01*
X4484973Y-6985827D01*
X4394372Y-6895226D01*
X4394368Y-6895223D01*
X4287833Y-6824038D01*
X4287824Y-6824033D01*
X4169444Y-6774999D01*
X4169438Y-6774997D01*
X4043771Y-6750000D01*
X4043769Y-6750000D01*
X3915631Y-6750000D01*
X3915629Y-6750000D01*
X3789961Y-6774997D01*
X3789955Y-6774999D01*
X3671575Y-6824033D01*
X3671566Y-6824038D01*
X3565031Y-6895223D01*
X3565027Y-6895226D01*
X3474426Y-6985827D01*
X3474423Y-6985831D01*
X3403238Y-7092366D01*
X3403233Y-7092375D01*
X3354199Y-7210755D01*
X3354197Y-7210761D01*
X3329200Y-7336428D01*
X3329200Y-7336431D01*
X3329200Y-7464569D01*
X3329200Y-7464571D01*
X3329199Y-7464571D01*
X500000Y-7464571D01*
X500000Y-5745258D01*
X29769500Y-5745258D01*
X29769500Y-5974741D01*
X29794446Y-6164215D01*
X29799452Y-6202238D01*
X29799453Y-6202240D01*
X29858842Y-6423887D01*
X29946650Y-6635876D01*
X29946657Y-6635890D01*
X30061392Y-6834617D01*
X30201081Y-7016661D01*
X30201089Y-7016670D01*
X30363330Y-7178911D01*
X30363338Y-7178918D01*
X30545382Y-7318607D01*
X30545385Y-7318608D01*
X30545388Y-7318611D01*
X30744112Y-7433344D01*
X30744117Y-7433346D01*
X30744123Y-7433349D01*
X30819500Y-7464571D01*
X30956113Y-7521158D01*
X31177762Y-7580548D01*
X31405266Y-7610500D01*
X31405273Y-7610500D01*
X31634727Y-7610500D01*
X31634734Y-7610500D01*
X31862238Y-7580548D01*
X32083887Y-7521158D01*
X32295888Y-7433344D01*
X32494612Y-7318611D01*
X32676661Y-7178919D01*
X32676665Y-7178914D01*
X32676670Y-7178911D01*
X32838911Y-7016670D01*
X32838914Y-7016665D01*
X32838919Y-7016661D01*
X32978611Y-6834612D01*
X33093344Y-6635888D01*
X33181158Y-6423887D01*
X33240548Y-6202238D01*
X33270500Y-5974734D01*
X33270500Y-5745266D01*
X33240548Y-5517762D01*
X33181158Y-5296113D01*
X33120843Y-5150500D01*
X33093349Y-5084123D01*
X33093346Y-5084117D01*
X33093344Y-5084112D01*
X32978611Y-4885388D01*
X32978608Y-4885385D01*
X32978607Y-4885382D01*
X32838918Y-4703338D01*
X32838911Y-4703330D01*
X32676670Y-4541089D01*
X32676661Y-4541081D01*
X32494617Y-4401392D01*
X32295890Y-4286657D01*
X32295876Y-4286650D01*
X32083887Y-4198842D01*
X31862238Y-4139452D01*
X31824215Y-4134446D01*
X31634741Y-4109500D01*
X31634734Y-4109500D01*
X31405266Y-4109500D01*
X31405258Y-4109500D01*
X31188715Y-4138009D01*
X31177762Y-4139452D01*
X31149529Y-4147017D01*
X30956112Y-4198842D01*
X30744123Y-4286650D01*
X30744109Y-4286657D01*
X30545382Y-4401392D01*
X30363338Y-4541081D01*
X30201081Y-4703338D01*
X30061392Y-4885382D01*
X29946657Y-5084109D01*
X29946650Y-5084123D01*
X29858842Y-5296112D01*
X29799453Y-5517759D01*
X29799451Y-5517770D01*
X29769500Y-5745258D01*
X500000Y-5745258D01*
X500000Y-4564071D01*
X5213199Y-4564071D01*
X5238197Y-4689738D01*
X5238199Y-4689744D01*
X5287233Y-4808124D01*
X5287238Y-4808133D01*
X5358423Y-4914668D01*
X5358426Y-4914672D01*
X5449027Y-5005273D01*
X5449031Y-5005276D01*
X5555566Y-5076461D01*
X5555572Y-5076464D01*
X5555573Y-5076465D01*
X5673956Y-5125501D01*
X5673960Y-5125501D01*
X5673961Y-5125502D01*
X5799628Y-5150500D01*
X5799631Y-5150500D01*
X5927771Y-5150500D01*
X6012315Y-5133682D01*
X6053444Y-5125501D01*
X6171827Y-5076465D01*
X6278369Y-5005276D01*
X6368976Y-4914669D01*
X6440165Y-4808127D01*
X6489201Y-4689744D01*
X6514200Y-4564069D01*
X6514200Y-4435931D01*
X6514200Y-4435928D01*
X6489202Y-4310261D01*
X6489201Y-4310260D01*
X6489201Y-4310256D01*
X6440165Y-4191873D01*
X6440164Y-4191872D01*
X6440161Y-4191866D01*
X6368976Y-4085331D01*
X6368973Y-4085327D01*
X6278372Y-3994726D01*
X6278368Y-3994723D01*
X6171833Y-3923538D01*
X6171824Y-3923533D01*
X6053444Y-3874499D01*
X6053438Y-3874497D01*
X5927771Y-3849500D01*
X5927769Y-3849500D01*
X5799631Y-3849500D01*
X5799629Y-3849500D01*
X5673961Y-3874497D01*
X5673955Y-3874499D01*
X5555575Y-3923533D01*
X5555566Y-3923538D01*
X5449031Y-3994723D01*
X5449027Y-3994726D01*
X5358426Y-4085327D01*
X5358423Y-4085331D01*
X5287238Y-4191866D01*
X5287233Y-4191875D01*
X5238199Y-4310255D01*
X5238197Y-4310261D01*
X5213200Y-4435928D01*
X5213200Y-4435931D01*
X5213200Y-4564069D01*
X5213200Y-4564071D01*
X5213199Y-4564071D01*
X500000Y-4564071D01*
X500000Y-3647371D01*
X7401399Y-3647371D01*
X7426397Y-3773038D01*
X7426399Y-3773044D01*
X7475433Y-3891424D01*
X7475438Y-3891433D01*
X7546623Y-3997968D01*
X7546626Y-3997972D01*
X7637227Y-4088573D01*
X7637231Y-4088576D01*
X7743766Y-4159761D01*
X7743772Y-4159764D01*
X7743773Y-4159765D01*
X7862156Y-4208801D01*
X7862160Y-4208801D01*
X7862161Y-4208802D01*
X7987828Y-4233800D01*
X7987831Y-4233800D01*
X8115971Y-4233800D01*
X8200515Y-4216982D01*
X8241644Y-4208801D01*
X8360027Y-4159765D01*
X8466569Y-4088576D01*
X8557176Y-3997969D01*
X8628365Y-3891427D01*
X8677401Y-3773044D01*
X8685582Y-3731915D01*
X8702400Y-3647371D01*
X8702400Y-3558271D01*
X10574199Y-3558271D01*
X10599197Y-3683938D01*
X10599199Y-3683944D01*
X10648233Y-3802324D01*
X10648238Y-3802333D01*
X10719423Y-3908868D01*
X10719426Y-3908872D01*
X10810027Y-3999473D01*
X10810031Y-3999476D01*
X10916566Y-4070661D01*
X10916572Y-4070664D01*
X10916573Y-4070665D01*
X11034956Y-4119701D01*
X11034960Y-4119701D01*
X11034961Y-4119702D01*
X11160628Y-4144700D01*
X11160631Y-4144700D01*
X11288771Y-4144700D01*
X11373315Y-4127882D01*
X11414444Y-4119701D01*
X11532827Y-4070665D01*
X11639369Y-3999476D01*
X11729976Y-3908869D01*
X11746463Y-3884195D01*
X17785499Y-3884195D01*
X17812418Y-4019522D01*
X17812421Y-4019532D01*
X17865221Y-4147004D01*
X17865228Y-4147017D01*
X17941885Y-4261741D01*
X17941888Y-4261745D01*
X18039454Y-4359311D01*
X18039458Y-4359314D01*
X18154182Y-4435971D01*
X18154195Y-4435978D01*
X18281667Y-4488778D01*
X18281672Y-4488780D01*
X18281676Y-4488780D01*
X18281677Y-4488781D01*
X18417004Y-4515700D01*
X18417007Y-4515700D01*
X18554995Y-4515700D01*
X18646041Y-4497589D01*
X18690328Y-4488780D01*
X18817811Y-4435975D01*
X18932542Y-4359314D01*
X19030114Y-4261742D01*
X19106775Y-4147011D01*
X19109907Y-4139451D01*
X19118740Y-4118124D01*
X19159580Y-4019528D01*
X19178674Y-3923538D01*
X19186500Y-3884195D01*
X19186500Y-3746204D01*
X19159581Y-3610877D01*
X19159580Y-3610876D01*
X19159580Y-3610872D01*
X19137791Y-3558269D01*
X19106778Y-3483395D01*
X19106771Y-3483382D01*
X19030114Y-3368658D01*
X19030111Y-3368654D01*
X18932545Y-3271088D01*
X18932541Y-3271085D01*
X18817817Y-3194428D01*
X18817804Y-3194421D01*
X18690332Y-3141621D01*
X18690322Y-3141618D01*
X18554995Y-3114700D01*
X18554993Y-3114700D01*
X18417007Y-3114700D01*
X18417005Y-3114700D01*
X18281677Y-3141618D01*
X18281667Y-3141621D01*
X18154195Y-3194421D01*
X18154182Y-3194428D01*
X18039458Y-3271085D01*
X18039454Y-3271088D01*
X17941888Y-3368654D01*
X17941885Y-3368658D01*
X17865228Y-3483382D01*
X17865221Y-3483395D01*
X17812421Y-3610867D01*
X17812418Y-3610877D01*
X17785500Y-3746204D01*
X17785500Y-3746207D01*
X17785500Y-3884193D01*
X17785500Y-3884195D01*
X17785499Y-3884195D01*
X11746463Y-3884195D01*
X11801165Y-3802327D01*
X11850201Y-3683944D01*
X11875200Y-3558269D01*
X11875200Y-3430131D01*
X11875200Y-3430128D01*
X11850202Y-3304461D01*
X11850201Y-3304460D01*
X11850201Y-3304456D01*
X11801165Y-3186073D01*
X11801164Y-3186072D01*
X11801161Y-3186066D01*
X11729976Y-3079531D01*
X11729973Y-3079527D01*
X11639372Y-2988926D01*
X11639368Y-2988923D01*
X11532833Y-2917738D01*
X11532824Y-2917733D01*
X11414444Y-2868699D01*
X11414438Y-2868697D01*
X11288771Y-2843700D01*
X11288769Y-2843700D01*
X11160631Y-2843700D01*
X11160629Y-2843700D01*
X11034961Y-2868697D01*
X11034955Y-2868699D01*
X10916575Y-2917733D01*
X10916566Y-2917738D01*
X10810031Y-2988923D01*
X10810027Y-2988926D01*
X10719426Y-3079527D01*
X10719423Y-3079531D01*
X10648238Y-3186066D01*
X10648233Y-3186075D01*
X10599199Y-3304455D01*
X10599197Y-3304461D01*
X10574200Y-3430128D01*
X10574200Y-3430131D01*
X10574200Y-3558269D01*
X10574200Y-3558271D01*
X10574199Y-3558271D01*
X8702400Y-3558271D01*
X8702400Y-3519228D01*
X8688277Y-3448231D01*
X8677402Y-3393561D01*
X8677401Y-3393560D01*
X8677401Y-3393556D01*
X8628365Y-3275173D01*
X8628364Y-3275172D01*
X8628361Y-3275166D01*
X8557176Y-3168631D01*
X8557173Y-3168627D01*
X8466572Y-3078026D01*
X8466568Y-3078023D01*
X8360033Y-3006838D01*
X8360024Y-3006833D01*
X8241644Y-2957799D01*
X8241638Y-2957797D01*
X8115971Y-2932800D01*
X8115969Y-2932800D01*
X7987831Y-2932800D01*
X7987829Y-2932800D01*
X7862161Y-2957797D01*
X7862155Y-2957799D01*
X7743775Y-3006833D01*
X7743766Y-3006838D01*
X7637231Y-3078023D01*
X7637227Y-3078026D01*
X7546626Y-3168627D01*
X7546623Y-3168631D01*
X7475438Y-3275166D01*
X7475433Y-3275175D01*
X7426399Y-3393555D01*
X7426397Y-3393561D01*
X7401400Y-3519228D01*
X7401400Y-3519231D01*
X7401400Y-3647369D01*
X7401400Y-3647371D01*
X7401399Y-3647371D01*
X500000Y-3647371D01*
X500000Y-2241471D01*
X16678099Y-2241471D01*
X16703097Y-2367138D01*
X16703099Y-2367144D01*
X16752133Y-2485524D01*
X16752138Y-2485533D01*
X16823323Y-2592068D01*
X16823326Y-2592072D01*
X16913927Y-2682673D01*
X16913931Y-2682676D01*
X17020466Y-2753861D01*
X17020472Y-2753864D01*
X17020473Y-2753865D01*
X17138856Y-2802901D01*
X17138860Y-2802901D01*
X17138861Y-2802902D01*
X17264528Y-2827900D01*
X17264531Y-2827900D01*
X17392671Y-2827900D01*
X17477215Y-2811082D01*
X17518344Y-2802901D01*
X17636727Y-2753865D01*
X17743269Y-2682676D01*
X17833876Y-2592069D01*
X17905065Y-2485527D01*
X17954101Y-2367144D01*
X17979100Y-2241469D01*
X17979100Y-2113331D01*
X17979100Y-2113328D01*
X17954102Y-1987661D01*
X17954101Y-1987660D01*
X17954101Y-1987656D01*
X17905065Y-1869273D01*
X17905064Y-1869272D01*
X17905061Y-1869266D01*
X17833876Y-1762731D01*
X17833873Y-1762727D01*
X17743272Y-1672126D01*
X17743268Y-1672123D01*
X17636733Y-1600938D01*
X17636724Y-1600933D01*
X17518344Y-1551899D01*
X17518338Y-1551897D01*
X17392671Y-1526900D01*
X17392669Y-1526900D01*
X17264531Y-1526900D01*
X17264529Y-1526900D01*
X17138861Y-1551897D01*
X17138855Y-1551899D01*
X17020475Y-1600933D01*
X17020466Y-1600938D01*
X16913931Y-1672123D01*
X16913927Y-1672126D01*
X16823326Y-1762727D01*
X16823323Y-1762731D01*
X16752138Y-1869266D01*
X16752133Y-1869275D01*
X16703099Y-1987655D01*
X16703097Y-1987661D01*
X16678100Y-2113328D01*
X16678100Y-2113331D01*
X16678100Y-2241469D01*
X16678100Y-2241471D01*
X16678099Y-2241471D01*
X500000Y-2241471D01*
X500000Y-2135208D01*
X519685Y-2068169D01*
X572489Y-2022414D01*
X641647Y-2012470D01*
X705203Y-2041495D01*
X711681Y-2047527D01*
X717127Y-2052973D01*
X717131Y-2052976D01*
X823666Y-2124161D01*
X823672Y-2124164D01*
X823673Y-2124165D01*
X942056Y-2173201D01*
X942060Y-2173201D01*
X942061Y-2173202D01*
X1067728Y-2198200D01*
X1067731Y-2198200D01*
X1195871Y-2198200D01*
X1280415Y-2181382D01*
X1321544Y-2173201D01*
X1439927Y-2124165D01*
X1546469Y-2052976D01*
X1637076Y-1962369D01*
X1708265Y-1855827D01*
X1757301Y-1737444D01*
X1780649Y-1620071D01*
X7070499Y-1620071D01*
X7095497Y-1745738D01*
X7095499Y-1745744D01*
X7144533Y-1864124D01*
X7144538Y-1864133D01*
X7215723Y-1970668D01*
X7215726Y-1970672D01*
X7306327Y-2061273D01*
X7306331Y-2061276D01*
X7412866Y-2132461D01*
X7412872Y-2132464D01*
X7412873Y-2132465D01*
X7531256Y-2181501D01*
X7531260Y-2181501D01*
X7531261Y-2181502D01*
X7656928Y-2206500D01*
X7656931Y-2206500D01*
X7785071Y-2206500D01*
X7869615Y-2189682D01*
X7910744Y-2181501D01*
X8029127Y-2132465D01*
X8135669Y-2061276D01*
X8155450Y-2041495D01*
X8177388Y-2019558D01*
X8226273Y-1970672D01*
X8226276Y-1970669D01*
X8297465Y-1864127D01*
X8346501Y-1745744D01*
X8371500Y-1620069D01*
X8371500Y-1491931D01*
X8371500Y-1491928D01*
X8346502Y-1366261D01*
X8346501Y-1366260D01*
X8346501Y-1366256D01*
X8297465Y-1247873D01*
X8297464Y-1247872D01*
X8297461Y-1247866D01*
X8226276Y-1141331D01*
X8226273Y-1141327D01*
X8135672Y-1050726D01*
X8135668Y-1050723D01*
X8029133Y-979538D01*
X8029124Y-979533D01*
X7910744Y-930499D01*
X7910738Y-930497D01*
X7785071Y-905500D01*
X7785069Y-905500D01*
X7656931Y-905500D01*
X7656929Y-905500D01*
X7531261Y-930497D01*
X7531255Y-930499D01*
X7412875Y-979533D01*
X7412866Y-979538D01*
X7306331Y-1050723D01*
X7306327Y-1050726D01*
X7215726Y-1141327D01*
X7215723Y-1141331D01*
X7144538Y-1247866D01*
X7144533Y-1247875D01*
X7095499Y-1366255D01*
X7095497Y-1366261D01*
X7070500Y-1491928D01*
X7070500Y-1491931D01*
X7070500Y-1620069D01*
X7070500Y-1620071D01*
X7070499Y-1620071D01*
X1780649Y-1620071D01*
X1782300Y-1611769D01*
X1782300Y-1483631D01*
X1782300Y-1483628D01*
X1757302Y-1357961D01*
X1757301Y-1357960D01*
X1757301Y-1357956D01*
X1708265Y-1239573D01*
X1708264Y-1239572D01*
X1708261Y-1239566D01*
X1637076Y-1133031D01*
X1637073Y-1133027D01*
X1546472Y-1042426D01*
X1546468Y-1042423D01*
X1439933Y-971238D01*
X1439924Y-971233D01*
X1321544Y-922199D01*
X1321538Y-922197D01*
X1195871Y-897200D01*
X1195869Y-897200D01*
X1067731Y-897200D01*
X1067729Y-897200D01*
X942061Y-922197D01*
X942055Y-922199D01*
X823675Y-971233D01*
X823666Y-971238D01*
X717131Y-1042423D01*
X717127Y-1042426D01*
X711681Y-1047873D01*
X650358Y-1081358D01*
X580666Y-1076374D01*
X524733Y-1034502D01*
X500316Y-969038D01*
X500000Y-960192D01*
X500000Y-624000D01*
X519685Y-556961D01*
X572489Y-511206D01*
X624000Y-500000D01*
X37876000Y-500000D01*
X37943039Y-519685D01*
G37*
G04 #@! TD.AperFunction*
M02*
