%TF.GenerationSoftware,KiCad,Pcbnew,10.0.4*%
%TF.CreationDate,2026-09-02T14:26:13+01:00*%
%TF.ProjectId,pl60c_dmx_mini,706c3630-635f-4646-9d78-5f6d696e692e,rev?*%
%TF.SameCoordinates,Original*%
%TF.FileFunction,Drillmap*%
%TF.FilePolarity,Positive*%
%FSLAX45Y45*%
G04 Gerber Fmt 4.5, Leading zero omitted, Abs format (unit mm)*
G04 Created by KiCad (PCBNEW 10.0.4) date 2026-09-02 14:26:13*
%MOMM*%
%LPD*%
G01*
G04 APERTURE LIST*
%ADD10C,0.100000*%
%ADD11C,0.200000*%
%ADD12C,0.160000*%
G04 APERTURE END LIST*
D10*
X0Y-60000D02*
G75*
G02*
X60000Y0I60000J0D01*
G01*
X0Y-2840000D02*
X0Y-60000D01*
X60000Y0D02*
X3790000Y0D01*
X60000Y-2900000D02*
G75*
G02*
X0Y-2840000I0J60000D01*
G01*
X3790000Y0D02*
G75*
G02*
X3850000Y-60000I0J-60000D01*
G01*
X3790000Y-2900000D02*
X60000Y-2900000D01*
X3850000Y-60000D02*
X3850000Y-2840000D01*
X3850000Y-2840000D02*
G75*
G02*
X3790000Y-2900000I-60000J0D01*
G01*
D11*
D10*
X318500Y-2297500D02*
X383500Y-2362500D01*
X383500Y-2297500D02*
X318500Y-2362500D01*
X896500Y-2297500D02*
X961500Y-2362500D01*
X961500Y-2297500D02*
X896500Y-2362500D01*
D12*
X3041000Y-1792000D02*
G75*
G02*
X2881000Y-1792000I-80000J0D01*
G01*
X2881000Y-1792000D02*
G75*
G02*
X3041000Y-1792000I80000J0D01*
G01*
X3549000Y-1030000D02*
G75*
G02*
X3389000Y-1030000I-80000J0D01*
G01*
X3389000Y-1030000D02*
G75*
G02*
X3549000Y-1030000I80000J0D01*
G01*
D11*
X255777Y-3216484D02*
X255777Y-3016484D01*
X255777Y-3016484D02*
X303396Y-3016484D01*
X303396Y-3016484D02*
X331967Y-3026008D01*
X331967Y-3026008D02*
X351015Y-3045055D01*
X351015Y-3045055D02*
X360539Y-3064103D01*
X360539Y-3064103D02*
X370062Y-3102198D01*
X370062Y-3102198D02*
X370062Y-3130769D01*
X370062Y-3130769D02*
X360539Y-3168865D01*
X360539Y-3168865D02*
X351015Y-3187912D01*
X351015Y-3187912D02*
X331967Y-3206960D01*
X331967Y-3206960D02*
X303396Y-3216484D01*
X303396Y-3216484D02*
X255777Y-3216484D01*
X455777Y-3216484D02*
X455777Y-3083150D01*
X455777Y-3121246D02*
X465301Y-3102198D01*
X465301Y-3102198D02*
X474824Y-3092674D01*
X474824Y-3092674D02*
X493872Y-3083150D01*
X493872Y-3083150D02*
X512920Y-3083150D01*
X579586Y-3216484D02*
X579586Y-3083150D01*
X579586Y-3016484D02*
X570063Y-3026008D01*
X570063Y-3026008D02*
X579586Y-3035531D01*
X579586Y-3035531D02*
X589110Y-3026008D01*
X589110Y-3026008D02*
X579586Y-3016484D01*
X579586Y-3016484D02*
X579586Y-3035531D01*
X703396Y-3216484D02*
X684348Y-3206960D01*
X684348Y-3206960D02*
X674824Y-3187912D01*
X674824Y-3187912D02*
X674824Y-3016484D01*
X808158Y-3216484D02*
X789110Y-3206960D01*
X789110Y-3206960D02*
X779586Y-3187912D01*
X779586Y-3187912D02*
X779586Y-3016484D01*
X1036729Y-3216484D02*
X1036729Y-3016484D01*
X1036729Y-3016484D02*
X1103396Y-3159341D01*
X1103396Y-3159341D02*
X1170063Y-3016484D01*
X1170063Y-3016484D02*
X1170063Y-3216484D01*
X1351015Y-3216484D02*
X1351015Y-3111722D01*
X1351015Y-3111722D02*
X1341491Y-3092674D01*
X1341491Y-3092674D02*
X1322444Y-3083150D01*
X1322444Y-3083150D02*
X1284348Y-3083150D01*
X1284348Y-3083150D02*
X1265301Y-3092674D01*
X1351015Y-3206960D02*
X1331967Y-3216484D01*
X1331967Y-3216484D02*
X1284348Y-3216484D01*
X1284348Y-3216484D02*
X1265301Y-3206960D01*
X1265301Y-3206960D02*
X1255777Y-3187912D01*
X1255777Y-3187912D02*
X1255777Y-3168865D01*
X1255777Y-3168865D02*
X1265301Y-3149817D01*
X1265301Y-3149817D02*
X1284348Y-3140293D01*
X1284348Y-3140293D02*
X1331967Y-3140293D01*
X1331967Y-3140293D02*
X1351015Y-3130769D01*
X1446253Y-3083150D02*
X1446253Y-3283150D01*
X1446253Y-3092674D02*
X1465301Y-3083150D01*
X1465301Y-3083150D02*
X1503396Y-3083150D01*
X1503396Y-3083150D02*
X1522443Y-3092674D01*
X1522443Y-3092674D02*
X1531967Y-3102198D01*
X1531967Y-3102198D02*
X1541491Y-3121246D01*
X1541491Y-3121246D02*
X1541491Y-3178388D01*
X1541491Y-3178388D02*
X1531967Y-3197436D01*
X1531967Y-3197436D02*
X1522443Y-3206960D01*
X1522443Y-3206960D02*
X1503396Y-3216484D01*
X1503396Y-3216484D02*
X1465301Y-3216484D01*
X1465301Y-3216484D02*
X1446253Y-3206960D01*
X1627205Y-3197436D02*
X1636729Y-3206960D01*
X1636729Y-3206960D02*
X1627205Y-3216484D01*
X1627205Y-3216484D02*
X1617682Y-3206960D01*
X1617682Y-3206960D02*
X1627205Y-3197436D01*
X1627205Y-3197436D02*
X1627205Y-3216484D01*
X1627205Y-3092674D02*
X1636729Y-3102198D01*
X1636729Y-3102198D02*
X1627205Y-3111722D01*
X1627205Y-3111722D02*
X1617682Y-3102198D01*
X1617682Y-3102198D02*
X1627205Y-3092674D01*
X1627205Y-3092674D02*
X1627205Y-3111722D01*
D10*
X-70000Y-3512500D02*
X-5000Y-3577500D01*
X-5000Y-3512500D02*
X-70000Y-3577500D01*
D11*
X293872Y-3436484D02*
X312920Y-3436484D01*
X312920Y-3436484D02*
X331967Y-3446008D01*
X331967Y-3446008D02*
X341491Y-3455531D01*
X341491Y-3455531D02*
X351015Y-3474579D01*
X351015Y-3474579D02*
X360539Y-3512674D01*
X360539Y-3512674D02*
X360539Y-3560293D01*
X360539Y-3560293D02*
X351015Y-3598388D01*
X351015Y-3598388D02*
X341491Y-3617436D01*
X341491Y-3617436D02*
X331967Y-3626960D01*
X331967Y-3626960D02*
X312920Y-3636484D01*
X312920Y-3636484D02*
X293872Y-3636484D01*
X293872Y-3636484D02*
X274824Y-3626960D01*
X274824Y-3626960D02*
X265301Y-3617436D01*
X265301Y-3617436D02*
X255777Y-3598388D01*
X255777Y-3598388D02*
X246253Y-3560293D01*
X246253Y-3560293D02*
X246253Y-3512674D01*
X246253Y-3512674D02*
X255777Y-3474579D01*
X255777Y-3474579D02*
X265301Y-3455531D01*
X265301Y-3455531D02*
X274824Y-3446008D01*
X274824Y-3446008D02*
X293872Y-3436484D01*
X446253Y-3617436D02*
X455777Y-3626960D01*
X455777Y-3626960D02*
X446253Y-3636484D01*
X446253Y-3636484D02*
X436729Y-3626960D01*
X436729Y-3626960D02*
X446253Y-3617436D01*
X446253Y-3617436D02*
X446253Y-3636484D01*
X627205Y-3436484D02*
X589110Y-3436484D01*
X589110Y-3436484D02*
X570063Y-3446008D01*
X570063Y-3446008D02*
X560539Y-3455531D01*
X560539Y-3455531D02*
X541491Y-3484103D01*
X541491Y-3484103D02*
X531967Y-3522198D01*
X531967Y-3522198D02*
X531967Y-3598388D01*
X531967Y-3598388D02*
X541491Y-3617436D01*
X541491Y-3617436D02*
X551015Y-3626960D01*
X551015Y-3626960D02*
X570063Y-3636484D01*
X570063Y-3636484D02*
X608158Y-3636484D01*
X608158Y-3636484D02*
X627205Y-3626960D01*
X627205Y-3626960D02*
X636729Y-3617436D01*
X636729Y-3617436D02*
X646253Y-3598388D01*
X646253Y-3598388D02*
X646253Y-3550769D01*
X646253Y-3550769D02*
X636729Y-3531722D01*
X636729Y-3531722D02*
X627205Y-3522198D01*
X627205Y-3522198D02*
X608158Y-3512674D01*
X608158Y-3512674D02*
X570063Y-3512674D01*
X570063Y-3512674D02*
X551015Y-3522198D01*
X551015Y-3522198D02*
X541491Y-3531722D01*
X541491Y-3531722D02*
X531967Y-3550769D01*
X827205Y-3436484D02*
X731967Y-3436484D01*
X731967Y-3436484D02*
X722443Y-3531722D01*
X722443Y-3531722D02*
X731967Y-3522198D01*
X731967Y-3522198D02*
X751015Y-3512674D01*
X751015Y-3512674D02*
X798634Y-3512674D01*
X798634Y-3512674D02*
X817682Y-3522198D01*
X817682Y-3522198D02*
X827205Y-3531722D01*
X827205Y-3531722D02*
X836729Y-3550769D01*
X836729Y-3550769D02*
X836729Y-3598388D01*
X836729Y-3598388D02*
X827205Y-3617436D01*
X827205Y-3617436D02*
X817682Y-3626960D01*
X817682Y-3626960D02*
X798634Y-3636484D01*
X798634Y-3636484D02*
X751015Y-3636484D01*
X751015Y-3636484D02*
X731967Y-3626960D01*
X731967Y-3626960D02*
X722443Y-3617436D01*
X960539Y-3436484D02*
X979586Y-3436484D01*
X979586Y-3436484D02*
X998634Y-3446008D01*
X998634Y-3446008D02*
X1008158Y-3455531D01*
X1008158Y-3455531D02*
X1017682Y-3474579D01*
X1017682Y-3474579D02*
X1027205Y-3512674D01*
X1027205Y-3512674D02*
X1027205Y-3560293D01*
X1027205Y-3560293D02*
X1017682Y-3598388D01*
X1017682Y-3598388D02*
X1008158Y-3617436D01*
X1008158Y-3617436D02*
X998634Y-3626960D01*
X998634Y-3626960D02*
X979586Y-3636484D01*
X979586Y-3636484D02*
X960539Y-3636484D01*
X960539Y-3636484D02*
X941491Y-3626960D01*
X941491Y-3626960D02*
X931967Y-3617436D01*
X931967Y-3617436D02*
X922443Y-3598388D01*
X922443Y-3598388D02*
X912920Y-3560293D01*
X912920Y-3560293D02*
X912920Y-3512674D01*
X912920Y-3512674D02*
X922443Y-3474579D01*
X922443Y-3474579D02*
X931967Y-3455531D01*
X931967Y-3455531D02*
X941491Y-3446008D01*
X941491Y-3446008D02*
X960539Y-3436484D01*
X1112920Y-3636484D02*
X1112920Y-3503150D01*
X1112920Y-3522198D02*
X1122444Y-3512674D01*
X1122444Y-3512674D02*
X1141491Y-3503150D01*
X1141491Y-3503150D02*
X1170063Y-3503150D01*
X1170063Y-3503150D02*
X1189110Y-3512674D01*
X1189110Y-3512674D02*
X1198634Y-3531722D01*
X1198634Y-3531722D02*
X1198634Y-3636484D01*
X1198634Y-3531722D02*
X1208158Y-3512674D01*
X1208158Y-3512674D02*
X1227205Y-3503150D01*
X1227205Y-3503150D02*
X1255777Y-3503150D01*
X1255777Y-3503150D02*
X1274825Y-3512674D01*
X1274825Y-3512674D02*
X1284348Y-3531722D01*
X1284348Y-3531722D02*
X1284348Y-3636484D01*
X1379586Y-3636484D02*
X1379586Y-3503150D01*
X1379586Y-3522198D02*
X1389110Y-3512674D01*
X1389110Y-3512674D02*
X1408158Y-3503150D01*
X1408158Y-3503150D02*
X1436729Y-3503150D01*
X1436729Y-3503150D02*
X1455777Y-3512674D01*
X1455777Y-3512674D02*
X1465301Y-3531722D01*
X1465301Y-3531722D02*
X1465301Y-3636484D01*
X1465301Y-3531722D02*
X1474824Y-3512674D01*
X1474824Y-3512674D02*
X1493872Y-3503150D01*
X1493872Y-3503150D02*
X1522443Y-3503150D01*
X1522443Y-3503150D02*
X1541491Y-3512674D01*
X1541491Y-3512674D02*
X1551015Y-3531722D01*
X1551015Y-3531722D02*
X1551015Y-3636484D01*
X1941491Y-3426960D02*
X1770063Y-3684103D01*
X2198634Y-3436484D02*
X2217682Y-3436484D01*
X2217682Y-3436484D02*
X2236729Y-3446008D01*
X2236729Y-3446008D02*
X2246253Y-3455531D01*
X2246253Y-3455531D02*
X2255777Y-3474579D01*
X2255777Y-3474579D02*
X2265301Y-3512674D01*
X2265301Y-3512674D02*
X2265301Y-3560293D01*
X2265301Y-3560293D02*
X2255777Y-3598388D01*
X2255777Y-3598388D02*
X2246253Y-3617436D01*
X2246253Y-3617436D02*
X2236729Y-3626960D01*
X2236729Y-3626960D02*
X2217682Y-3636484D01*
X2217682Y-3636484D02*
X2198634Y-3636484D01*
X2198634Y-3636484D02*
X2179587Y-3626960D01*
X2179587Y-3626960D02*
X2170063Y-3617436D01*
X2170063Y-3617436D02*
X2160539Y-3598388D01*
X2160539Y-3598388D02*
X2151015Y-3560293D01*
X2151015Y-3560293D02*
X2151015Y-3512674D01*
X2151015Y-3512674D02*
X2160539Y-3474579D01*
X2160539Y-3474579D02*
X2170063Y-3455531D01*
X2170063Y-3455531D02*
X2179587Y-3446008D01*
X2179587Y-3446008D02*
X2198634Y-3436484D01*
X2351015Y-3617436D02*
X2360539Y-3626960D01*
X2360539Y-3626960D02*
X2351015Y-3636484D01*
X2351015Y-3636484D02*
X2341491Y-3626960D01*
X2341491Y-3626960D02*
X2351015Y-3617436D01*
X2351015Y-3617436D02*
X2351015Y-3636484D01*
X2484348Y-3436484D02*
X2503396Y-3436484D01*
X2503396Y-3436484D02*
X2522444Y-3446008D01*
X2522444Y-3446008D02*
X2531968Y-3455531D01*
X2531968Y-3455531D02*
X2541491Y-3474579D01*
X2541491Y-3474579D02*
X2551015Y-3512674D01*
X2551015Y-3512674D02*
X2551015Y-3560293D01*
X2551015Y-3560293D02*
X2541491Y-3598388D01*
X2541491Y-3598388D02*
X2531968Y-3617436D01*
X2531968Y-3617436D02*
X2522444Y-3626960D01*
X2522444Y-3626960D02*
X2503396Y-3636484D01*
X2503396Y-3636484D02*
X2484348Y-3636484D01*
X2484348Y-3636484D02*
X2465301Y-3626960D01*
X2465301Y-3626960D02*
X2455777Y-3617436D01*
X2455777Y-3617436D02*
X2446253Y-3598388D01*
X2446253Y-3598388D02*
X2436729Y-3560293D01*
X2436729Y-3560293D02*
X2436729Y-3512674D01*
X2436729Y-3512674D02*
X2446253Y-3474579D01*
X2446253Y-3474579D02*
X2455777Y-3455531D01*
X2455777Y-3455531D02*
X2465301Y-3446008D01*
X2465301Y-3446008D02*
X2484348Y-3436484D01*
X2627206Y-3455531D02*
X2636729Y-3446008D01*
X2636729Y-3446008D02*
X2655777Y-3436484D01*
X2655777Y-3436484D02*
X2703396Y-3436484D01*
X2703396Y-3436484D02*
X2722444Y-3446008D01*
X2722444Y-3446008D02*
X2731968Y-3455531D01*
X2731968Y-3455531D02*
X2741491Y-3474579D01*
X2741491Y-3474579D02*
X2741491Y-3493627D01*
X2741491Y-3493627D02*
X2731968Y-3522198D01*
X2731968Y-3522198D02*
X2617682Y-3636484D01*
X2617682Y-3636484D02*
X2741491Y-3636484D01*
X2922444Y-3436484D02*
X2827206Y-3436484D01*
X2827206Y-3436484D02*
X2817682Y-3531722D01*
X2817682Y-3531722D02*
X2827206Y-3522198D01*
X2827206Y-3522198D02*
X2846253Y-3512674D01*
X2846253Y-3512674D02*
X2893872Y-3512674D01*
X2893872Y-3512674D02*
X2912920Y-3522198D01*
X2912920Y-3522198D02*
X2922444Y-3531722D01*
X2922444Y-3531722D02*
X2931967Y-3550769D01*
X2931967Y-3550769D02*
X2931967Y-3598388D01*
X2931967Y-3598388D02*
X2922444Y-3617436D01*
X2922444Y-3617436D02*
X2912920Y-3626960D01*
X2912920Y-3626960D02*
X2893872Y-3636484D01*
X2893872Y-3636484D02*
X2846253Y-3636484D01*
X2846253Y-3636484D02*
X2827206Y-3626960D01*
X2827206Y-3626960D02*
X2817682Y-3617436D01*
X3103396Y-3436484D02*
X3065301Y-3436484D01*
X3065301Y-3436484D02*
X3046253Y-3446008D01*
X3046253Y-3446008D02*
X3036729Y-3455531D01*
X3036729Y-3455531D02*
X3017682Y-3484103D01*
X3017682Y-3484103D02*
X3008158Y-3522198D01*
X3008158Y-3522198D02*
X3008158Y-3598388D01*
X3008158Y-3598388D02*
X3017682Y-3617436D01*
X3017682Y-3617436D02*
X3027206Y-3626960D01*
X3027206Y-3626960D02*
X3046253Y-3636484D01*
X3046253Y-3636484D02*
X3084348Y-3636484D01*
X3084348Y-3636484D02*
X3103396Y-3626960D01*
X3103396Y-3626960D02*
X3112920Y-3617436D01*
X3112920Y-3617436D02*
X3122444Y-3598388D01*
X3122444Y-3598388D02*
X3122444Y-3550769D01*
X3122444Y-3550769D02*
X3112920Y-3531722D01*
X3112920Y-3531722D02*
X3103396Y-3522198D01*
X3103396Y-3522198D02*
X3084348Y-3512674D01*
X3084348Y-3512674D02*
X3046253Y-3512674D01*
X3046253Y-3512674D02*
X3027206Y-3522198D01*
X3027206Y-3522198D02*
X3017682Y-3531722D01*
X3017682Y-3531722D02*
X3008158Y-3550769D01*
X3198634Y-3436484D02*
X3198634Y-3474579D01*
X3274825Y-3436484D02*
X3274825Y-3474579D01*
X3570063Y-3712674D02*
X3560539Y-3703150D01*
X3560539Y-3703150D02*
X3541491Y-3674579D01*
X3541491Y-3674579D02*
X3531968Y-3655531D01*
X3531968Y-3655531D02*
X3522444Y-3626960D01*
X3522444Y-3626960D02*
X3512920Y-3579341D01*
X3512920Y-3579341D02*
X3512920Y-3541246D01*
X3512920Y-3541246D02*
X3522444Y-3493627D01*
X3522444Y-3493627D02*
X3531968Y-3465055D01*
X3531968Y-3465055D02*
X3541491Y-3446008D01*
X3541491Y-3446008D02*
X3560539Y-3417436D01*
X3560539Y-3417436D02*
X3570063Y-3407912D01*
X3636729Y-3455531D02*
X3646253Y-3446008D01*
X3646253Y-3446008D02*
X3665301Y-3436484D01*
X3665301Y-3436484D02*
X3712920Y-3436484D01*
X3712920Y-3436484D02*
X3731968Y-3446008D01*
X3731968Y-3446008D02*
X3741491Y-3455531D01*
X3741491Y-3455531D02*
X3751015Y-3474579D01*
X3751015Y-3474579D02*
X3751015Y-3493627D01*
X3751015Y-3493627D02*
X3741491Y-3522198D01*
X3741491Y-3522198D02*
X3627206Y-3636484D01*
X3627206Y-3636484D02*
X3751015Y-3636484D01*
X3989110Y-3636484D02*
X3989110Y-3436484D01*
X4074825Y-3636484D02*
X4074825Y-3531722D01*
X4074825Y-3531722D02*
X4065301Y-3512674D01*
X4065301Y-3512674D02*
X4046253Y-3503150D01*
X4046253Y-3503150D02*
X4017682Y-3503150D01*
X4017682Y-3503150D02*
X3998634Y-3512674D01*
X3998634Y-3512674D02*
X3989110Y-3522198D01*
X4198634Y-3636484D02*
X4179587Y-3626960D01*
X4179587Y-3626960D02*
X4170063Y-3617436D01*
X4170063Y-3617436D02*
X4160539Y-3598388D01*
X4160539Y-3598388D02*
X4160539Y-3541246D01*
X4160539Y-3541246D02*
X4170063Y-3522198D01*
X4170063Y-3522198D02*
X4179587Y-3512674D01*
X4179587Y-3512674D02*
X4198634Y-3503150D01*
X4198634Y-3503150D02*
X4227206Y-3503150D01*
X4227206Y-3503150D02*
X4246253Y-3512674D01*
X4246253Y-3512674D02*
X4255777Y-3522198D01*
X4255777Y-3522198D02*
X4265301Y-3541246D01*
X4265301Y-3541246D02*
X4265301Y-3598388D01*
X4265301Y-3598388D02*
X4255777Y-3617436D01*
X4255777Y-3617436D02*
X4246253Y-3626960D01*
X4246253Y-3626960D02*
X4227206Y-3636484D01*
X4227206Y-3636484D02*
X4198634Y-3636484D01*
X4379587Y-3636484D02*
X4360539Y-3626960D01*
X4360539Y-3626960D02*
X4351015Y-3607912D01*
X4351015Y-3607912D02*
X4351015Y-3436484D01*
X4531968Y-3626960D02*
X4512920Y-3636484D01*
X4512920Y-3636484D02*
X4474825Y-3636484D01*
X4474825Y-3636484D02*
X4455777Y-3626960D01*
X4455777Y-3626960D02*
X4446253Y-3607912D01*
X4446253Y-3607912D02*
X4446253Y-3531722D01*
X4446253Y-3531722D02*
X4455777Y-3512674D01*
X4455777Y-3512674D02*
X4474825Y-3503150D01*
X4474825Y-3503150D02*
X4512920Y-3503150D01*
X4512920Y-3503150D02*
X4531968Y-3512674D01*
X4531968Y-3512674D02*
X4541492Y-3531722D01*
X4541492Y-3531722D02*
X4541492Y-3550769D01*
X4541492Y-3550769D02*
X4446253Y-3569817D01*
X4617682Y-3626960D02*
X4636730Y-3636484D01*
X4636730Y-3636484D02*
X4674825Y-3636484D01*
X4674825Y-3636484D02*
X4693873Y-3626960D01*
X4693873Y-3626960D02*
X4703396Y-3607912D01*
X4703396Y-3607912D02*
X4703396Y-3598388D01*
X4703396Y-3598388D02*
X4693873Y-3579341D01*
X4693873Y-3579341D02*
X4674825Y-3569817D01*
X4674825Y-3569817D02*
X4646253Y-3569817D01*
X4646253Y-3569817D02*
X4627206Y-3560293D01*
X4627206Y-3560293D02*
X4617682Y-3541246D01*
X4617682Y-3541246D02*
X4617682Y-3531722D01*
X4617682Y-3531722D02*
X4627206Y-3512674D01*
X4627206Y-3512674D02*
X4646253Y-3503150D01*
X4646253Y-3503150D02*
X4674825Y-3503150D01*
X4674825Y-3503150D02*
X4693873Y-3512674D01*
X4770063Y-3712674D02*
X4779587Y-3703150D01*
X4779587Y-3703150D02*
X4798634Y-3674579D01*
X4798634Y-3674579D02*
X4808158Y-3655531D01*
X4808158Y-3655531D02*
X4817682Y-3626960D01*
X4817682Y-3626960D02*
X4827206Y-3579341D01*
X4827206Y-3579341D02*
X4827206Y-3541246D01*
X4827206Y-3541246D02*
X4817682Y-3493627D01*
X4817682Y-3493627D02*
X4808158Y-3465055D01*
X4808158Y-3465055D02*
X4798634Y-3446008D01*
X4798634Y-3446008D02*
X4779587Y-3417436D01*
X4779587Y-3417436D02*
X4770063Y-3407912D01*
X5131968Y-3712674D02*
X5122444Y-3703150D01*
X5122444Y-3703150D02*
X5103396Y-3674579D01*
X5103396Y-3674579D02*
X5093873Y-3655531D01*
X5093873Y-3655531D02*
X5084349Y-3626960D01*
X5084349Y-3626960D02*
X5074825Y-3579341D01*
X5074825Y-3579341D02*
X5074825Y-3541246D01*
X5074825Y-3541246D02*
X5084349Y-3493627D01*
X5084349Y-3493627D02*
X5093873Y-3465055D01*
X5093873Y-3465055D02*
X5103396Y-3446008D01*
X5103396Y-3446008D02*
X5122444Y-3417436D01*
X5122444Y-3417436D02*
X5131968Y-3407912D01*
X5208158Y-3503150D02*
X5208158Y-3636484D01*
X5208158Y-3522198D02*
X5217682Y-3512674D01*
X5217682Y-3512674D02*
X5236730Y-3503150D01*
X5236730Y-3503150D02*
X5265301Y-3503150D01*
X5265301Y-3503150D02*
X5284349Y-3512674D01*
X5284349Y-3512674D02*
X5293873Y-3531722D01*
X5293873Y-3531722D02*
X5293873Y-3636484D01*
X5417682Y-3636484D02*
X5398634Y-3626960D01*
X5398634Y-3626960D02*
X5389111Y-3617436D01*
X5389111Y-3617436D02*
X5379587Y-3598388D01*
X5379587Y-3598388D02*
X5379587Y-3541246D01*
X5379587Y-3541246D02*
X5389111Y-3522198D01*
X5389111Y-3522198D02*
X5398634Y-3512674D01*
X5398634Y-3512674D02*
X5417682Y-3503150D01*
X5417682Y-3503150D02*
X5446254Y-3503150D01*
X5446254Y-3503150D02*
X5465301Y-3512674D01*
X5465301Y-3512674D02*
X5474825Y-3522198D01*
X5474825Y-3522198D02*
X5484349Y-3541246D01*
X5484349Y-3541246D02*
X5484349Y-3598388D01*
X5484349Y-3598388D02*
X5474825Y-3617436D01*
X5474825Y-3617436D02*
X5465301Y-3626960D01*
X5465301Y-3626960D02*
X5446254Y-3636484D01*
X5446254Y-3636484D02*
X5417682Y-3636484D01*
X5541492Y-3503150D02*
X5617682Y-3503150D01*
X5570063Y-3436484D02*
X5570063Y-3607912D01*
X5570063Y-3607912D02*
X5579587Y-3626960D01*
X5579587Y-3626960D02*
X5598634Y-3636484D01*
X5598634Y-3636484D02*
X5617682Y-3636484D01*
X5836730Y-3503150D02*
X5836730Y-3703150D01*
X5836730Y-3512674D02*
X5855777Y-3503150D01*
X5855777Y-3503150D02*
X5893873Y-3503150D01*
X5893873Y-3503150D02*
X5912920Y-3512674D01*
X5912920Y-3512674D02*
X5922444Y-3522198D01*
X5922444Y-3522198D02*
X5931968Y-3541246D01*
X5931968Y-3541246D02*
X5931968Y-3598388D01*
X5931968Y-3598388D02*
X5922444Y-3617436D01*
X5922444Y-3617436D02*
X5912920Y-3626960D01*
X5912920Y-3626960D02*
X5893873Y-3636484D01*
X5893873Y-3636484D02*
X5855777Y-3636484D01*
X5855777Y-3636484D02*
X5836730Y-3626960D01*
X6046253Y-3636484D02*
X6027206Y-3626960D01*
X6027206Y-3626960D02*
X6017682Y-3607912D01*
X6017682Y-3607912D02*
X6017682Y-3436484D01*
X6208158Y-3636484D02*
X6208158Y-3531722D01*
X6208158Y-3531722D02*
X6198634Y-3512674D01*
X6198634Y-3512674D02*
X6179587Y-3503150D01*
X6179587Y-3503150D02*
X6141492Y-3503150D01*
X6141492Y-3503150D02*
X6122444Y-3512674D01*
X6208158Y-3626960D02*
X6189111Y-3636484D01*
X6189111Y-3636484D02*
X6141492Y-3636484D01*
X6141492Y-3636484D02*
X6122444Y-3626960D01*
X6122444Y-3626960D02*
X6112920Y-3607912D01*
X6112920Y-3607912D02*
X6112920Y-3588865D01*
X6112920Y-3588865D02*
X6122444Y-3569817D01*
X6122444Y-3569817D02*
X6141492Y-3560293D01*
X6141492Y-3560293D02*
X6189111Y-3560293D01*
X6189111Y-3560293D02*
X6208158Y-3550769D01*
X6274825Y-3503150D02*
X6351015Y-3503150D01*
X6303396Y-3436484D02*
X6303396Y-3607912D01*
X6303396Y-3607912D02*
X6312920Y-3626960D01*
X6312920Y-3626960D02*
X6331968Y-3636484D01*
X6331968Y-3636484D02*
X6351015Y-3636484D01*
X6493873Y-3626960D02*
X6474825Y-3636484D01*
X6474825Y-3636484D02*
X6436730Y-3636484D01*
X6436730Y-3636484D02*
X6417682Y-3626960D01*
X6417682Y-3626960D02*
X6408158Y-3607912D01*
X6408158Y-3607912D02*
X6408158Y-3531722D01*
X6408158Y-3531722D02*
X6417682Y-3512674D01*
X6417682Y-3512674D02*
X6436730Y-3503150D01*
X6436730Y-3503150D02*
X6474825Y-3503150D01*
X6474825Y-3503150D02*
X6493873Y-3512674D01*
X6493873Y-3512674D02*
X6503396Y-3531722D01*
X6503396Y-3531722D02*
X6503396Y-3550769D01*
X6503396Y-3550769D02*
X6408158Y-3569817D01*
X6674825Y-3636484D02*
X6674825Y-3436484D01*
X6674825Y-3626960D02*
X6655777Y-3636484D01*
X6655777Y-3636484D02*
X6617682Y-3636484D01*
X6617682Y-3636484D02*
X6598634Y-3626960D01*
X6598634Y-3626960D02*
X6589111Y-3617436D01*
X6589111Y-3617436D02*
X6579587Y-3598388D01*
X6579587Y-3598388D02*
X6579587Y-3541246D01*
X6579587Y-3541246D02*
X6589111Y-3522198D01*
X6589111Y-3522198D02*
X6598634Y-3512674D01*
X6598634Y-3512674D02*
X6617682Y-3503150D01*
X6617682Y-3503150D02*
X6655777Y-3503150D01*
X6655777Y-3503150D02*
X6674825Y-3512674D01*
X6751015Y-3712674D02*
X6760539Y-3703150D01*
X6760539Y-3703150D02*
X6779587Y-3674579D01*
X6779587Y-3674579D02*
X6789111Y-3655531D01*
X6789111Y-3655531D02*
X6798634Y-3626960D01*
X6798634Y-3626960D02*
X6808158Y-3579341D01*
X6808158Y-3579341D02*
X6808158Y-3541246D01*
X6808158Y-3541246D02*
X6798634Y-3493627D01*
X6798634Y-3493627D02*
X6789111Y-3465055D01*
X6789111Y-3465055D02*
X6779587Y-3446008D01*
X6779587Y-3446008D02*
X6760539Y-3417436D01*
X6760539Y-3417436D02*
X6751015Y-3407912D01*
D12*
X-5000Y-3809000D02*
G75*
G02*
X-165000Y-3809000I-80000J0D01*
G01*
X-165000Y-3809000D02*
G75*
G02*
X-5000Y-3809000I80000J0D01*
G01*
D11*
X360539Y-3900484D02*
X246253Y-3900484D01*
X303396Y-3900484D02*
X303396Y-3700484D01*
X303396Y-3700484D02*
X284348Y-3729055D01*
X284348Y-3729055D02*
X265301Y-3748103D01*
X265301Y-3748103D02*
X246253Y-3757627D01*
X446253Y-3881436D02*
X455777Y-3890960D01*
X455777Y-3890960D02*
X446253Y-3900484D01*
X446253Y-3900484D02*
X436729Y-3890960D01*
X436729Y-3890960D02*
X446253Y-3881436D01*
X446253Y-3881436D02*
X446253Y-3900484D01*
X627205Y-3700484D02*
X589110Y-3700484D01*
X589110Y-3700484D02*
X570063Y-3710008D01*
X570063Y-3710008D02*
X560539Y-3719531D01*
X560539Y-3719531D02*
X541491Y-3748103D01*
X541491Y-3748103D02*
X531967Y-3786198D01*
X531967Y-3786198D02*
X531967Y-3862388D01*
X531967Y-3862388D02*
X541491Y-3881436D01*
X541491Y-3881436D02*
X551015Y-3890960D01*
X551015Y-3890960D02*
X570063Y-3900484D01*
X570063Y-3900484D02*
X608158Y-3900484D01*
X608158Y-3900484D02*
X627205Y-3890960D01*
X627205Y-3890960D02*
X636729Y-3881436D01*
X636729Y-3881436D02*
X646253Y-3862388D01*
X646253Y-3862388D02*
X646253Y-3814769D01*
X646253Y-3814769D02*
X636729Y-3795722D01*
X636729Y-3795722D02*
X627205Y-3786198D01*
X627205Y-3786198D02*
X608158Y-3776674D01*
X608158Y-3776674D02*
X570063Y-3776674D01*
X570063Y-3776674D02*
X551015Y-3786198D01*
X551015Y-3786198D02*
X541491Y-3795722D01*
X541491Y-3795722D02*
X531967Y-3814769D01*
X770062Y-3700484D02*
X789110Y-3700484D01*
X789110Y-3700484D02*
X808158Y-3710008D01*
X808158Y-3710008D02*
X817682Y-3719531D01*
X817682Y-3719531D02*
X827205Y-3738579D01*
X827205Y-3738579D02*
X836729Y-3776674D01*
X836729Y-3776674D02*
X836729Y-3824293D01*
X836729Y-3824293D02*
X827205Y-3862388D01*
X827205Y-3862388D02*
X817682Y-3881436D01*
X817682Y-3881436D02*
X808158Y-3890960D01*
X808158Y-3890960D02*
X789110Y-3900484D01*
X789110Y-3900484D02*
X770062Y-3900484D01*
X770062Y-3900484D02*
X751015Y-3890960D01*
X751015Y-3890960D02*
X741491Y-3881436D01*
X741491Y-3881436D02*
X731967Y-3862388D01*
X731967Y-3862388D02*
X722443Y-3824293D01*
X722443Y-3824293D02*
X722443Y-3776674D01*
X722443Y-3776674D02*
X731967Y-3738579D01*
X731967Y-3738579D02*
X741491Y-3719531D01*
X741491Y-3719531D02*
X751015Y-3710008D01*
X751015Y-3710008D02*
X770062Y-3700484D01*
X960539Y-3700484D02*
X979586Y-3700484D01*
X979586Y-3700484D02*
X998634Y-3710008D01*
X998634Y-3710008D02*
X1008158Y-3719531D01*
X1008158Y-3719531D02*
X1017682Y-3738579D01*
X1017682Y-3738579D02*
X1027205Y-3776674D01*
X1027205Y-3776674D02*
X1027205Y-3824293D01*
X1027205Y-3824293D02*
X1017682Y-3862388D01*
X1017682Y-3862388D02*
X1008158Y-3881436D01*
X1008158Y-3881436D02*
X998634Y-3890960D01*
X998634Y-3890960D02*
X979586Y-3900484D01*
X979586Y-3900484D02*
X960539Y-3900484D01*
X960539Y-3900484D02*
X941491Y-3890960D01*
X941491Y-3890960D02*
X931967Y-3881436D01*
X931967Y-3881436D02*
X922443Y-3862388D01*
X922443Y-3862388D02*
X912920Y-3824293D01*
X912920Y-3824293D02*
X912920Y-3776674D01*
X912920Y-3776674D02*
X922443Y-3738579D01*
X922443Y-3738579D02*
X931967Y-3719531D01*
X931967Y-3719531D02*
X941491Y-3710008D01*
X941491Y-3710008D02*
X960539Y-3700484D01*
X1112920Y-3900484D02*
X1112920Y-3767150D01*
X1112920Y-3786198D02*
X1122444Y-3776674D01*
X1122444Y-3776674D02*
X1141491Y-3767150D01*
X1141491Y-3767150D02*
X1170063Y-3767150D01*
X1170063Y-3767150D02*
X1189110Y-3776674D01*
X1189110Y-3776674D02*
X1198634Y-3795722D01*
X1198634Y-3795722D02*
X1198634Y-3900484D01*
X1198634Y-3795722D02*
X1208158Y-3776674D01*
X1208158Y-3776674D02*
X1227205Y-3767150D01*
X1227205Y-3767150D02*
X1255777Y-3767150D01*
X1255777Y-3767150D02*
X1274825Y-3776674D01*
X1274825Y-3776674D02*
X1284348Y-3795722D01*
X1284348Y-3795722D02*
X1284348Y-3900484D01*
X1379586Y-3900484D02*
X1379586Y-3767150D01*
X1379586Y-3786198D02*
X1389110Y-3776674D01*
X1389110Y-3776674D02*
X1408158Y-3767150D01*
X1408158Y-3767150D02*
X1436729Y-3767150D01*
X1436729Y-3767150D02*
X1455777Y-3776674D01*
X1455777Y-3776674D02*
X1465301Y-3795722D01*
X1465301Y-3795722D02*
X1465301Y-3900484D01*
X1465301Y-3795722D02*
X1474824Y-3776674D01*
X1474824Y-3776674D02*
X1493872Y-3767150D01*
X1493872Y-3767150D02*
X1522443Y-3767150D01*
X1522443Y-3767150D02*
X1541491Y-3776674D01*
X1541491Y-3776674D02*
X1551015Y-3795722D01*
X1551015Y-3795722D02*
X1551015Y-3900484D01*
X1941491Y-3690960D02*
X1770063Y-3948103D01*
X2198634Y-3700484D02*
X2217682Y-3700484D01*
X2217682Y-3700484D02*
X2236729Y-3710008D01*
X2236729Y-3710008D02*
X2246253Y-3719531D01*
X2246253Y-3719531D02*
X2255777Y-3738579D01*
X2255777Y-3738579D02*
X2265301Y-3776674D01*
X2265301Y-3776674D02*
X2265301Y-3824293D01*
X2265301Y-3824293D02*
X2255777Y-3862388D01*
X2255777Y-3862388D02*
X2246253Y-3881436D01*
X2246253Y-3881436D02*
X2236729Y-3890960D01*
X2236729Y-3890960D02*
X2217682Y-3900484D01*
X2217682Y-3900484D02*
X2198634Y-3900484D01*
X2198634Y-3900484D02*
X2179587Y-3890960D01*
X2179587Y-3890960D02*
X2170063Y-3881436D01*
X2170063Y-3881436D02*
X2160539Y-3862388D01*
X2160539Y-3862388D02*
X2151015Y-3824293D01*
X2151015Y-3824293D02*
X2151015Y-3776674D01*
X2151015Y-3776674D02*
X2160539Y-3738579D01*
X2160539Y-3738579D02*
X2170063Y-3719531D01*
X2170063Y-3719531D02*
X2179587Y-3710008D01*
X2179587Y-3710008D02*
X2198634Y-3700484D01*
X2351015Y-3881436D02*
X2360539Y-3890960D01*
X2360539Y-3890960D02*
X2351015Y-3900484D01*
X2351015Y-3900484D02*
X2341491Y-3890960D01*
X2341491Y-3890960D02*
X2351015Y-3881436D01*
X2351015Y-3881436D02*
X2351015Y-3900484D01*
X2484348Y-3700484D02*
X2503396Y-3700484D01*
X2503396Y-3700484D02*
X2522444Y-3710008D01*
X2522444Y-3710008D02*
X2531968Y-3719531D01*
X2531968Y-3719531D02*
X2541491Y-3738579D01*
X2541491Y-3738579D02*
X2551015Y-3776674D01*
X2551015Y-3776674D02*
X2551015Y-3824293D01*
X2551015Y-3824293D02*
X2541491Y-3862388D01*
X2541491Y-3862388D02*
X2531968Y-3881436D01*
X2531968Y-3881436D02*
X2522444Y-3890960D01*
X2522444Y-3890960D02*
X2503396Y-3900484D01*
X2503396Y-3900484D02*
X2484348Y-3900484D01*
X2484348Y-3900484D02*
X2465301Y-3890960D01*
X2465301Y-3890960D02*
X2455777Y-3881436D01*
X2455777Y-3881436D02*
X2446253Y-3862388D01*
X2446253Y-3862388D02*
X2436729Y-3824293D01*
X2436729Y-3824293D02*
X2436729Y-3776674D01*
X2436729Y-3776674D02*
X2446253Y-3738579D01*
X2446253Y-3738579D02*
X2455777Y-3719531D01*
X2455777Y-3719531D02*
X2465301Y-3710008D01*
X2465301Y-3710008D02*
X2484348Y-3700484D01*
X2722444Y-3700484D02*
X2684348Y-3700484D01*
X2684348Y-3700484D02*
X2665301Y-3710008D01*
X2665301Y-3710008D02*
X2655777Y-3719531D01*
X2655777Y-3719531D02*
X2636729Y-3748103D01*
X2636729Y-3748103D02*
X2627206Y-3786198D01*
X2627206Y-3786198D02*
X2627206Y-3862388D01*
X2627206Y-3862388D02*
X2636729Y-3881436D01*
X2636729Y-3881436D02*
X2646253Y-3890960D01*
X2646253Y-3890960D02*
X2665301Y-3900484D01*
X2665301Y-3900484D02*
X2703396Y-3900484D01*
X2703396Y-3900484D02*
X2722444Y-3890960D01*
X2722444Y-3890960D02*
X2731968Y-3881436D01*
X2731968Y-3881436D02*
X2741491Y-3862388D01*
X2741491Y-3862388D02*
X2741491Y-3814769D01*
X2741491Y-3814769D02*
X2731968Y-3795722D01*
X2731968Y-3795722D02*
X2722444Y-3786198D01*
X2722444Y-3786198D02*
X2703396Y-3776674D01*
X2703396Y-3776674D02*
X2665301Y-3776674D01*
X2665301Y-3776674D02*
X2646253Y-3786198D01*
X2646253Y-3786198D02*
X2636729Y-3795722D01*
X2636729Y-3795722D02*
X2627206Y-3814769D01*
X2808158Y-3700484D02*
X2931967Y-3700484D01*
X2931967Y-3700484D02*
X2865301Y-3776674D01*
X2865301Y-3776674D02*
X2893872Y-3776674D01*
X2893872Y-3776674D02*
X2912920Y-3786198D01*
X2912920Y-3786198D02*
X2922444Y-3795722D01*
X2922444Y-3795722D02*
X2931967Y-3814769D01*
X2931967Y-3814769D02*
X2931967Y-3862388D01*
X2931967Y-3862388D02*
X2922444Y-3881436D01*
X2922444Y-3881436D02*
X2912920Y-3890960D01*
X2912920Y-3890960D02*
X2893872Y-3900484D01*
X2893872Y-3900484D02*
X2836729Y-3900484D01*
X2836729Y-3900484D02*
X2817682Y-3890960D01*
X2817682Y-3890960D02*
X2808158Y-3881436D01*
X3055777Y-3700484D02*
X3074825Y-3700484D01*
X3074825Y-3700484D02*
X3093872Y-3710008D01*
X3093872Y-3710008D02*
X3103396Y-3719531D01*
X3103396Y-3719531D02*
X3112920Y-3738579D01*
X3112920Y-3738579D02*
X3122444Y-3776674D01*
X3122444Y-3776674D02*
X3122444Y-3824293D01*
X3122444Y-3824293D02*
X3112920Y-3862388D01*
X3112920Y-3862388D02*
X3103396Y-3881436D01*
X3103396Y-3881436D02*
X3093872Y-3890960D01*
X3093872Y-3890960D02*
X3074825Y-3900484D01*
X3074825Y-3900484D02*
X3055777Y-3900484D01*
X3055777Y-3900484D02*
X3036729Y-3890960D01*
X3036729Y-3890960D02*
X3027206Y-3881436D01*
X3027206Y-3881436D02*
X3017682Y-3862388D01*
X3017682Y-3862388D02*
X3008158Y-3824293D01*
X3008158Y-3824293D02*
X3008158Y-3776674D01*
X3008158Y-3776674D02*
X3017682Y-3738579D01*
X3017682Y-3738579D02*
X3027206Y-3719531D01*
X3027206Y-3719531D02*
X3036729Y-3710008D01*
X3036729Y-3710008D02*
X3055777Y-3700484D01*
X3198634Y-3700484D02*
X3198634Y-3738579D01*
X3274825Y-3700484D02*
X3274825Y-3738579D01*
X3570063Y-3976674D02*
X3560539Y-3967150D01*
X3560539Y-3967150D02*
X3541491Y-3938579D01*
X3541491Y-3938579D02*
X3531968Y-3919531D01*
X3531968Y-3919531D02*
X3522444Y-3890960D01*
X3522444Y-3890960D02*
X3512920Y-3843341D01*
X3512920Y-3843341D02*
X3512920Y-3805246D01*
X3512920Y-3805246D02*
X3522444Y-3757627D01*
X3522444Y-3757627D02*
X3531968Y-3729055D01*
X3531968Y-3729055D02*
X3541491Y-3710008D01*
X3541491Y-3710008D02*
X3560539Y-3681436D01*
X3560539Y-3681436D02*
X3570063Y-3671912D01*
X3636729Y-3719531D02*
X3646253Y-3710008D01*
X3646253Y-3710008D02*
X3665301Y-3700484D01*
X3665301Y-3700484D02*
X3712920Y-3700484D01*
X3712920Y-3700484D02*
X3731968Y-3710008D01*
X3731968Y-3710008D02*
X3741491Y-3719531D01*
X3741491Y-3719531D02*
X3751015Y-3738579D01*
X3751015Y-3738579D02*
X3751015Y-3757627D01*
X3751015Y-3757627D02*
X3741491Y-3786198D01*
X3741491Y-3786198D02*
X3627206Y-3900484D01*
X3627206Y-3900484D02*
X3751015Y-3900484D01*
X3989110Y-3900484D02*
X3989110Y-3700484D01*
X4074825Y-3900484D02*
X4074825Y-3795722D01*
X4074825Y-3795722D02*
X4065301Y-3776674D01*
X4065301Y-3776674D02*
X4046253Y-3767150D01*
X4046253Y-3767150D02*
X4017682Y-3767150D01*
X4017682Y-3767150D02*
X3998634Y-3776674D01*
X3998634Y-3776674D02*
X3989110Y-3786198D01*
X4198634Y-3900484D02*
X4179587Y-3890960D01*
X4179587Y-3890960D02*
X4170063Y-3881436D01*
X4170063Y-3881436D02*
X4160539Y-3862388D01*
X4160539Y-3862388D02*
X4160539Y-3805246D01*
X4160539Y-3805246D02*
X4170063Y-3786198D01*
X4170063Y-3786198D02*
X4179587Y-3776674D01*
X4179587Y-3776674D02*
X4198634Y-3767150D01*
X4198634Y-3767150D02*
X4227206Y-3767150D01*
X4227206Y-3767150D02*
X4246253Y-3776674D01*
X4246253Y-3776674D02*
X4255777Y-3786198D01*
X4255777Y-3786198D02*
X4265301Y-3805246D01*
X4265301Y-3805246D02*
X4265301Y-3862388D01*
X4265301Y-3862388D02*
X4255777Y-3881436D01*
X4255777Y-3881436D02*
X4246253Y-3890960D01*
X4246253Y-3890960D02*
X4227206Y-3900484D01*
X4227206Y-3900484D02*
X4198634Y-3900484D01*
X4379587Y-3900484D02*
X4360539Y-3890960D01*
X4360539Y-3890960D02*
X4351015Y-3871912D01*
X4351015Y-3871912D02*
X4351015Y-3700484D01*
X4531968Y-3890960D02*
X4512920Y-3900484D01*
X4512920Y-3900484D02*
X4474825Y-3900484D01*
X4474825Y-3900484D02*
X4455777Y-3890960D01*
X4455777Y-3890960D02*
X4446253Y-3871912D01*
X4446253Y-3871912D02*
X4446253Y-3795722D01*
X4446253Y-3795722D02*
X4455777Y-3776674D01*
X4455777Y-3776674D02*
X4474825Y-3767150D01*
X4474825Y-3767150D02*
X4512920Y-3767150D01*
X4512920Y-3767150D02*
X4531968Y-3776674D01*
X4531968Y-3776674D02*
X4541492Y-3795722D01*
X4541492Y-3795722D02*
X4541492Y-3814769D01*
X4541492Y-3814769D02*
X4446253Y-3833817D01*
X4617682Y-3890960D02*
X4636730Y-3900484D01*
X4636730Y-3900484D02*
X4674825Y-3900484D01*
X4674825Y-3900484D02*
X4693873Y-3890960D01*
X4693873Y-3890960D02*
X4703396Y-3871912D01*
X4703396Y-3871912D02*
X4703396Y-3862388D01*
X4703396Y-3862388D02*
X4693873Y-3843341D01*
X4693873Y-3843341D02*
X4674825Y-3833817D01*
X4674825Y-3833817D02*
X4646253Y-3833817D01*
X4646253Y-3833817D02*
X4627206Y-3824293D01*
X4627206Y-3824293D02*
X4617682Y-3805246D01*
X4617682Y-3805246D02*
X4617682Y-3795722D01*
X4617682Y-3795722D02*
X4627206Y-3776674D01*
X4627206Y-3776674D02*
X4646253Y-3767150D01*
X4646253Y-3767150D02*
X4674825Y-3767150D01*
X4674825Y-3767150D02*
X4693873Y-3776674D01*
X4770063Y-3976674D02*
X4779587Y-3967150D01*
X4779587Y-3967150D02*
X4798634Y-3938579D01*
X4798634Y-3938579D02*
X4808158Y-3919531D01*
X4808158Y-3919531D02*
X4817682Y-3890960D01*
X4817682Y-3890960D02*
X4827206Y-3843341D01*
X4827206Y-3843341D02*
X4827206Y-3805246D01*
X4827206Y-3805246D02*
X4817682Y-3757627D01*
X4817682Y-3757627D02*
X4808158Y-3729055D01*
X4808158Y-3729055D02*
X4798634Y-3710008D01*
X4798634Y-3710008D02*
X4779587Y-3681436D01*
X4779587Y-3681436D02*
X4770063Y-3671912D01*
X5131968Y-3976674D02*
X5122444Y-3967150D01*
X5122444Y-3967150D02*
X5103396Y-3938579D01*
X5103396Y-3938579D02*
X5093873Y-3919531D01*
X5093873Y-3919531D02*
X5084349Y-3890960D01*
X5084349Y-3890960D02*
X5074825Y-3843341D01*
X5074825Y-3843341D02*
X5074825Y-3805246D01*
X5074825Y-3805246D02*
X5084349Y-3757627D01*
X5084349Y-3757627D02*
X5093873Y-3729055D01*
X5093873Y-3729055D02*
X5103396Y-3710008D01*
X5103396Y-3710008D02*
X5122444Y-3681436D01*
X5122444Y-3681436D02*
X5131968Y-3671912D01*
X5208158Y-3767150D02*
X5208158Y-3900484D01*
X5208158Y-3786198D02*
X5217682Y-3776674D01*
X5217682Y-3776674D02*
X5236730Y-3767150D01*
X5236730Y-3767150D02*
X5265301Y-3767150D01*
X5265301Y-3767150D02*
X5284349Y-3776674D01*
X5284349Y-3776674D02*
X5293873Y-3795722D01*
X5293873Y-3795722D02*
X5293873Y-3900484D01*
X5417682Y-3900484D02*
X5398634Y-3890960D01*
X5398634Y-3890960D02*
X5389111Y-3881436D01*
X5389111Y-3881436D02*
X5379587Y-3862388D01*
X5379587Y-3862388D02*
X5379587Y-3805246D01*
X5379587Y-3805246D02*
X5389111Y-3786198D01*
X5389111Y-3786198D02*
X5398634Y-3776674D01*
X5398634Y-3776674D02*
X5417682Y-3767150D01*
X5417682Y-3767150D02*
X5446254Y-3767150D01*
X5446254Y-3767150D02*
X5465301Y-3776674D01*
X5465301Y-3776674D02*
X5474825Y-3786198D01*
X5474825Y-3786198D02*
X5484349Y-3805246D01*
X5484349Y-3805246D02*
X5484349Y-3862388D01*
X5484349Y-3862388D02*
X5474825Y-3881436D01*
X5474825Y-3881436D02*
X5465301Y-3890960D01*
X5465301Y-3890960D02*
X5446254Y-3900484D01*
X5446254Y-3900484D02*
X5417682Y-3900484D01*
X5541492Y-3767150D02*
X5617682Y-3767150D01*
X5570063Y-3700484D02*
X5570063Y-3871912D01*
X5570063Y-3871912D02*
X5579587Y-3890960D01*
X5579587Y-3890960D02*
X5598634Y-3900484D01*
X5598634Y-3900484D02*
X5617682Y-3900484D01*
X5836730Y-3767150D02*
X5836730Y-3967150D01*
X5836730Y-3776674D02*
X5855777Y-3767150D01*
X5855777Y-3767150D02*
X5893873Y-3767150D01*
X5893873Y-3767150D02*
X5912920Y-3776674D01*
X5912920Y-3776674D02*
X5922444Y-3786198D01*
X5922444Y-3786198D02*
X5931968Y-3805246D01*
X5931968Y-3805246D02*
X5931968Y-3862388D01*
X5931968Y-3862388D02*
X5922444Y-3881436D01*
X5922444Y-3881436D02*
X5912920Y-3890960D01*
X5912920Y-3890960D02*
X5893873Y-3900484D01*
X5893873Y-3900484D02*
X5855777Y-3900484D01*
X5855777Y-3900484D02*
X5836730Y-3890960D01*
X6046253Y-3900484D02*
X6027206Y-3890960D01*
X6027206Y-3890960D02*
X6017682Y-3871912D01*
X6017682Y-3871912D02*
X6017682Y-3700484D01*
X6208158Y-3900484D02*
X6208158Y-3795722D01*
X6208158Y-3795722D02*
X6198634Y-3776674D01*
X6198634Y-3776674D02*
X6179587Y-3767150D01*
X6179587Y-3767150D02*
X6141492Y-3767150D01*
X6141492Y-3767150D02*
X6122444Y-3776674D01*
X6208158Y-3890960D02*
X6189111Y-3900484D01*
X6189111Y-3900484D02*
X6141492Y-3900484D01*
X6141492Y-3900484D02*
X6122444Y-3890960D01*
X6122444Y-3890960D02*
X6112920Y-3871912D01*
X6112920Y-3871912D02*
X6112920Y-3852865D01*
X6112920Y-3852865D02*
X6122444Y-3833817D01*
X6122444Y-3833817D02*
X6141492Y-3824293D01*
X6141492Y-3824293D02*
X6189111Y-3824293D01*
X6189111Y-3824293D02*
X6208158Y-3814769D01*
X6274825Y-3767150D02*
X6351015Y-3767150D01*
X6303396Y-3700484D02*
X6303396Y-3871912D01*
X6303396Y-3871912D02*
X6312920Y-3890960D01*
X6312920Y-3890960D02*
X6331968Y-3900484D01*
X6331968Y-3900484D02*
X6351015Y-3900484D01*
X6493873Y-3890960D02*
X6474825Y-3900484D01*
X6474825Y-3900484D02*
X6436730Y-3900484D01*
X6436730Y-3900484D02*
X6417682Y-3890960D01*
X6417682Y-3890960D02*
X6408158Y-3871912D01*
X6408158Y-3871912D02*
X6408158Y-3795722D01*
X6408158Y-3795722D02*
X6417682Y-3776674D01*
X6417682Y-3776674D02*
X6436730Y-3767150D01*
X6436730Y-3767150D02*
X6474825Y-3767150D01*
X6474825Y-3767150D02*
X6493873Y-3776674D01*
X6493873Y-3776674D02*
X6503396Y-3795722D01*
X6503396Y-3795722D02*
X6503396Y-3814769D01*
X6503396Y-3814769D02*
X6408158Y-3833817D01*
X6674825Y-3900484D02*
X6674825Y-3700484D01*
X6674825Y-3890960D02*
X6655777Y-3900484D01*
X6655777Y-3900484D02*
X6617682Y-3900484D01*
X6617682Y-3900484D02*
X6598634Y-3890960D01*
X6598634Y-3890960D02*
X6589111Y-3881436D01*
X6589111Y-3881436D02*
X6579587Y-3862388D01*
X6579587Y-3862388D02*
X6579587Y-3805246D01*
X6579587Y-3805246D02*
X6589111Y-3786198D01*
X6589111Y-3786198D02*
X6598634Y-3776674D01*
X6598634Y-3776674D02*
X6617682Y-3767150D01*
X6617682Y-3767150D02*
X6655777Y-3767150D01*
X6655777Y-3767150D02*
X6674825Y-3776674D01*
X6751015Y-3976674D02*
X6760539Y-3967150D01*
X6760539Y-3967150D02*
X6779587Y-3938579D01*
X6779587Y-3938579D02*
X6789111Y-3919531D01*
X6789111Y-3919531D02*
X6798634Y-3890960D01*
X6798634Y-3890960D02*
X6808158Y-3843341D01*
X6808158Y-3843341D02*
X6808158Y-3805246D01*
X6808158Y-3805246D02*
X6798634Y-3757627D01*
X6798634Y-3757627D02*
X6789111Y-3729055D01*
X6789111Y-3729055D02*
X6779587Y-3710008D01*
X6779587Y-3710008D02*
X6760539Y-3681436D01*
X6760539Y-3681436D02*
X6751015Y-3671912D01*
M02*
