G04 #@! TF.GenerationSoftware,KiCad,Pcbnew,10.0.4*
G04 #@! TF.CreationDate,2026-09-02T14:26:12+01:00*
G04 #@! TF.ProjectId,pl60c_dmx_mini,706c3630-635f-4646-9d78-5f6d696e692e,rev?*
G04 #@! TF.SameCoordinates,Original*
G04 #@! TF.FileFunction,Legend,Top*
G04 #@! TF.FilePolarity,Positive*
%FSLAX46Y46*%
G04 Gerber Fmt 4.6, Leading zero omitted, Abs format (unit mm)*
G04 Created by KiCad (PCBNEW 10.0.4) date 2026-09-02 14:26:12*
%MOMM*%
%LPD*%
G01*
G04 APERTURE LIST*
G04 Aperture macros list*
%AMRoundRect*
0 Rectangle with rounded corners*
0 $1 Rounding radius*
0 $2 $3 $4 $5 $6 $7 $8 $9 X,Y pos of 4 corners*
0 Add a 4 corners polygon primitive as box body*
4,1,4,$2,$3,$4,$5,$6,$7,$8,$9,$2,$3,0*
0 Add four circle primitives for the rounded corners*
1,1,$1+$1,$2,$3*
1,1,$1+$1,$4,$5*
1,1,$1+$1,$6,$7*
1,1,$1+$1,$8,$9*
0 Add four rect primitives between the rounded corners*
20,1,$1+$1,$2,$3,$4,$5,0*
20,1,$1+$1,$4,$5,$6,$7,0*
20,1,$1+$1,$6,$7,$8,$9,0*
20,1,$1+$1,$8,$9,$2,$3,0*%
%AMOutline5P*
0 Free polygon, 5 corners , with rotation*
0 The origin of the aperture is its center*
0 number of corners: always 5*
0 $1 to $10 corner X, Y*
0 $11 Rotation angle, in degrees counterclockwise*
0 create outline with 5 corners*
4,1,5,$1,$2,$3,$4,$5,$6,$7,$8,$9,$10,$1,$2,$11*%
%AMOutline6P*
0 Free polygon, 6 corners , with rotation*
0 The origin of the aperture is its center*
0 number of corners: always 6*
0 $1 to $12 corner X, Y*
0 $13 Rotation angle, in degrees counterclockwise*
0 create outline with 6 corners*
4,1,6,$1,$2,$3,$4,$5,$6,$7,$8,$9,$10,$11,$12,$1,$2,$13*%
%AMOutline7P*
0 Free polygon, 7 corners , with rotation*
0 The origin of the aperture is its center*
0 number of corners: always 7*
0 $1 to $14 corner X, Y*
0 $15 Rotation angle, in degrees counterclockwise*
0 create outline with 7 corners*
4,1,7,$1,$2,$3,$4,$5,$6,$7,$8,$9,$10,$11,$12,$13,$14,$1,$2,$15*%
%AMOutline8P*
0 Free polygon, 8 corners , with rotation*
0 The origin of the aperture is its center*
0 number of corners: always 8*
0 $1 to $16 corner X, Y*
0 $17 Rotation angle, in degrees counterclockwise*
0 create outline with 8 corners*
4,1,8,$1,$2,$3,$4,$5,$6,$7,$8,$9,$10,$11,$12,$13,$14,$15,$16,$1,$2,$17*%
G04 Aperture macros list end*
%ADD10C,0.120000*%
%ADD11C,1.600000*%
%ADD12C,3.400000*%
%ADD13C,2.900000*%
%ADD14C,0.650000*%
%ADD15RoundRect,0.150000X-0.150000X-0.575000X0.150000X-0.575000X0.150000X0.575000X-0.150000X0.575000X0*%
%ADD16RoundRect,0.075000X-0.075000X-0.650000X0.075000X-0.650000X0.075000X0.650000X-0.075000X0.650000X0*%
%ADD17O,1.000000X2.100000*%
%ADD18O,1.000000X1.600000*%
%ADD19R,0.700000X0.700000*%
%ADD20R,0.400000X0.800000*%
%ADD21R,0.800000X0.400000*%
%ADD22Outline5P,-0.600000X0.204000X-0.204000X0.600000X0.600000X0.600000X0.600000X-0.600000X-0.600000X-0.600000X90.000000*%
%ADD23R,1.200000X1.200000*%
%ADD24R,0.800000X0.800000*%
%ADD25RoundRect,0.250000X-0.275000X-0.750000X0.275000X-0.750000X0.275000X0.750000X-0.275000X0.750000X0*%
G04 APERTURE END LIST*
D10*
X14214285Y-19644807D02*
X14328571Y-19682902D01*
X14328571Y-19682902D02*
X14366666Y-19720998D01*
X14366666Y-19720998D02*
X14404762Y-19797188D01*
X14404762Y-19797188D02*
X14404762Y-19911474D01*
X14404762Y-19911474D02*
X14366666Y-19987664D01*
X14366666Y-19987664D02*
X14328571Y-20025760D01*
X14328571Y-20025760D02*
X14252381Y-20063855D01*
X14252381Y-20063855D02*
X13947619Y-20063855D01*
X13947619Y-20063855D02*
X13947619Y-19263855D01*
X13947619Y-19263855D02*
X14214285Y-19263855D01*
X14214285Y-19263855D02*
X14290476Y-19301950D01*
X14290476Y-19301950D02*
X14328571Y-19340045D01*
X14328571Y-19340045D02*
X14366666Y-19416236D01*
X14366666Y-19416236D02*
X14366666Y-19492426D01*
X14366666Y-19492426D02*
X14328571Y-19568617D01*
X14328571Y-19568617D02*
X14290476Y-19606712D01*
X14290476Y-19606712D02*
X14214285Y-19644807D01*
X14214285Y-19644807D02*
X13947619Y-19644807D01*
X14900000Y-19263855D02*
X15052381Y-19263855D01*
X15052381Y-19263855D02*
X15128571Y-19301950D01*
X15128571Y-19301950D02*
X15204762Y-19378140D01*
X15204762Y-19378140D02*
X15242857Y-19530521D01*
X15242857Y-19530521D02*
X15242857Y-19797188D01*
X15242857Y-19797188D02*
X15204762Y-19949569D01*
X15204762Y-19949569D02*
X15128571Y-20025760D01*
X15128571Y-20025760D02*
X15052381Y-20063855D01*
X15052381Y-20063855D02*
X14900000Y-20063855D01*
X14900000Y-20063855D02*
X14823809Y-20025760D01*
X14823809Y-20025760D02*
X14747619Y-19949569D01*
X14747619Y-19949569D02*
X14709523Y-19797188D01*
X14709523Y-19797188D02*
X14709523Y-19530521D01*
X14709523Y-19530521D02*
X14747619Y-19378140D01*
X14747619Y-19378140D02*
X14823809Y-19301950D01*
X14823809Y-19301950D02*
X14900000Y-19263855D01*
X15738095Y-19263855D02*
X15890476Y-19263855D01*
X15890476Y-19263855D02*
X15966666Y-19301950D01*
X15966666Y-19301950D02*
X16042857Y-19378140D01*
X16042857Y-19378140D02*
X16080952Y-19530521D01*
X16080952Y-19530521D02*
X16080952Y-19797188D01*
X16080952Y-19797188D02*
X16042857Y-19949569D01*
X16042857Y-19949569D02*
X15966666Y-20025760D01*
X15966666Y-20025760D02*
X15890476Y-20063855D01*
X15890476Y-20063855D02*
X15738095Y-20063855D01*
X15738095Y-20063855D02*
X15661904Y-20025760D01*
X15661904Y-20025760D02*
X15585714Y-19949569D01*
X15585714Y-19949569D02*
X15547618Y-19797188D01*
X15547618Y-19797188D02*
X15547618Y-19530521D01*
X15547618Y-19530521D02*
X15585714Y-19378140D01*
X15585714Y-19378140D02*
X15661904Y-19301950D01*
X15661904Y-19301950D02*
X15738095Y-19263855D01*
X16309523Y-19263855D02*
X16766666Y-19263855D01*
X16538094Y-20063855D02*
X16538094Y-19263855D01*
X13928571Y-27963855D02*
X13928571Y-28611474D01*
X13928571Y-28611474D02*
X13966666Y-28687664D01*
X13966666Y-28687664D02*
X14004761Y-28725760D01*
X14004761Y-28725760D02*
X14080952Y-28763855D01*
X14080952Y-28763855D02*
X14233333Y-28763855D01*
X14233333Y-28763855D02*
X14309523Y-28725760D01*
X14309523Y-28725760D02*
X14347618Y-28687664D01*
X14347618Y-28687664D02*
X14385714Y-28611474D01*
X14385714Y-28611474D02*
X14385714Y-27963855D01*
X14728570Y-28725760D02*
X14842856Y-28763855D01*
X14842856Y-28763855D02*
X15033332Y-28763855D01*
X15033332Y-28763855D02*
X15109523Y-28725760D01*
X15109523Y-28725760D02*
X15147618Y-28687664D01*
X15147618Y-28687664D02*
X15185713Y-28611474D01*
X15185713Y-28611474D02*
X15185713Y-28535283D01*
X15185713Y-28535283D02*
X15147618Y-28459093D01*
X15147618Y-28459093D02*
X15109523Y-28420998D01*
X15109523Y-28420998D02*
X15033332Y-28382902D01*
X15033332Y-28382902D02*
X14880951Y-28344807D01*
X14880951Y-28344807D02*
X14804761Y-28306712D01*
X14804761Y-28306712D02*
X14766666Y-28268617D01*
X14766666Y-28268617D02*
X14728570Y-28192426D01*
X14728570Y-28192426D02*
X14728570Y-28116236D01*
X14728570Y-28116236D02*
X14766666Y-28040045D01*
X14766666Y-28040045D02*
X14804761Y-28001950D01*
X14804761Y-28001950D02*
X14880951Y-27963855D01*
X14880951Y-27963855D02*
X15071428Y-27963855D01*
X15071428Y-27963855D02*
X15185713Y-28001950D01*
X15528571Y-28344807D02*
X15795237Y-28344807D01*
X15909523Y-28763855D02*
X15528571Y-28763855D01*
X15528571Y-28763855D02*
X15528571Y-27963855D01*
X15528571Y-27963855D02*
X15909523Y-27963855D01*
X16709524Y-28763855D02*
X16442857Y-28382902D01*
X16252381Y-28763855D02*
X16252381Y-27963855D01*
X16252381Y-27963855D02*
X16557143Y-27963855D01*
X16557143Y-27963855D02*
X16633333Y-28001950D01*
X16633333Y-28001950D02*
X16671428Y-28040045D01*
X16671428Y-28040045D02*
X16709524Y-28116236D01*
X16709524Y-28116236D02*
X16709524Y-28230521D01*
X16709524Y-28230521D02*
X16671428Y-28306712D01*
X16671428Y-28306712D02*
X16633333Y-28344807D01*
X16633333Y-28344807D02*
X16557143Y-28382902D01*
X16557143Y-28382902D02*
X16252381Y-28382902D01*
X18880000Y-5190000D02*
X18880000Y-23030000D01*
X26380000Y-5190000D02*
X18880000Y-5190000D01*
X26380000Y-5190000D02*
X26380000Y-3140000D01*
X26380000Y-23030000D02*
X18880000Y-23030000D01*
X26380000Y-23030000D02*
X26380000Y-25080000D01*
X31880000Y-3140000D02*
X26380000Y-3140000D01*
X31880000Y-3140000D02*
X31880000Y-1490000D01*
X31880000Y-25080000D02*
X26380000Y-25080000D01*
X31880000Y-27030000D02*
X31880000Y-25080000D01*
X38620000Y-1490000D02*
X31880000Y-1490000D01*
X38620000Y-1490000D02*
X38620000Y-2990000D01*
X38620000Y-2990000D02*
X41320000Y-2990000D01*
X38620000Y-25230000D02*
X38620000Y-27030000D01*
X38620000Y-25230000D02*
X41320000Y-25230000D01*
X38620000Y-27030000D02*
X31880000Y-27030000D01*
X41320000Y-2990000D02*
X41320000Y-25230000D01*
X1700000Y-24000000D02*
X1700000Y-26000000D01*
X1700000Y-27900000D02*
X1700000Y-29800000D01*
X1700000Y-29800000D02*
X11100000Y-29800000D01*
X11100000Y-24000000D02*
X11100000Y-26000000D01*
X11100000Y-27900000D02*
X11100000Y-29800000D01*
X15950000Y-2400000D02*
X18250000Y-2400000D01*
X15950000Y-5300000D02*
X15950000Y-2400000D01*
X15950000Y-5300000D02*
X16250000Y-5600000D01*
X18250000Y-5600000D02*
X16250000Y-5600000D01*
X18250000Y-5600000D02*
X18250000Y-2400000D01*
X-5350000Y-17575000D02*
X-5350000Y-15125000D01*
X-5350000Y-17575000D02*
X-2900000Y-17575000D01*
X-5100000Y-1700000D02*
X15600000Y-1700000D01*
X-5100000Y-17300000D02*
X-5100000Y-1700000D01*
X15600000Y-1700000D02*
X15600000Y-17300000D01*
X15600000Y-17300000D02*
X-5100000Y-17300000D01*
X1850000Y-17475000D02*
X2090000Y-17811000D01*
X1610000Y-17811000D01*
X1850000Y-17475000D01*
G36*
X2090000Y-17811000D02*
G01*
X1610000Y-17811000D01*
X1850000Y-17475000D01*
X2090000Y-17811000D01*
G37*
X13200000Y-20250000D02*
X17400000Y-20250000D01*
X13200000Y-20640000D02*
X13200000Y-20250000D01*
X13200000Y-23160000D02*
X13200000Y-23550000D01*
X13200000Y-23550000D02*
X17400000Y-23550000D01*
X17400000Y-20250000D02*
X17400000Y-20640000D01*
X17400000Y-23550000D02*
X17400000Y-23160000D01*
X13200000Y-24350000D02*
X17400000Y-24350000D01*
X13200000Y-24740000D02*
X13200000Y-24350000D01*
X13200000Y-27260000D02*
X13200000Y-27650000D01*
X13200000Y-27650000D02*
X17400000Y-27650000D01*
X17400000Y-24350000D02*
X17400000Y-24740000D01*
X17400000Y-27650000D02*
X17400000Y-27260000D01*
%LPC*%
D11*
X29610000Y-17920000D03*
X34690000Y-10300000D03*
D12*
X21350000Y-10300000D03*
D13*
X25165000Y-14110000D03*
X21350000Y-14110000D03*
X25165000Y-21090000D03*
D12*
X21350000Y-17920000D03*
D13*
X31520000Y-5860000D03*
D14*
X3510000Y-23300000D03*
X9290000Y-23300000D03*
D15*
X3150000Y-21855000D03*
X3950000Y-21855000D03*
D16*
X5150000Y-21855000D03*
X6150000Y-21855000D03*
X6650000Y-21855000D03*
X7650000Y-21855000D03*
D15*
X8850000Y-21855000D03*
X9650000Y-21855000D03*
X9650000Y-21855000D03*
X8850000Y-21855000D03*
D16*
X8150000Y-21855000D03*
X7150000Y-21855000D03*
X5650000Y-21855000D03*
X4650000Y-21855000D03*
D15*
X3950000Y-21855000D03*
X3150000Y-21855000D03*
D17*
X2080000Y-22770000D03*
D18*
X2080000Y-26950000D03*
D17*
X10720000Y-22770000D03*
D18*
X10720000Y-26950000D03*
D19*
X16550000Y-4915000D03*
X17650000Y-4915000D03*
X17650000Y-3085000D03*
X16550000Y-3085000D03*
D20*
X1850000Y-16500000D03*
X2700000Y-16500000D03*
X3550000Y-16500000D03*
X4400000Y-16500000D03*
X5250000Y-16500000D03*
X6100000Y-16500000D03*
X6950000Y-16500000D03*
X7800000Y-16500000D03*
X8650000Y-16500000D03*
X9500000Y-16500000D03*
X10350000Y-16500000D03*
X11200000Y-16500000D03*
X12050000Y-16500000D03*
X12900000Y-16500000D03*
X13750000Y-16500000D03*
D21*
X14800000Y-15450000D03*
X14800000Y-14600000D03*
X14800000Y-13750000D03*
X14800000Y-12900000D03*
X14800000Y-12050000D03*
X14800000Y-11200000D03*
X14800000Y-10350000D03*
X14800000Y-9500000D03*
X14800000Y-8650000D03*
X14800000Y-7800000D03*
X14800000Y-6950000D03*
X14800000Y-6100000D03*
X14800000Y-5250000D03*
X14800000Y-4400000D03*
X14800000Y-3550000D03*
D20*
X13750000Y-2500000D03*
X12900000Y-2500000D03*
X12050000Y-2500000D03*
X11200000Y-2500000D03*
X10350000Y-2500000D03*
X9500000Y-2500000D03*
X8650000Y-2500000D03*
X7800000Y-2500000D03*
X6950000Y-2500000D03*
X6100000Y-2500000D03*
X5250000Y-2500000D03*
X4400000Y-2500000D03*
X3550000Y-2500000D03*
X2700000Y-2500000D03*
X1850000Y-2500000D03*
D21*
X800000Y-3550000D03*
X800000Y-4400000D03*
X800000Y-5250000D03*
X800000Y-6100000D03*
X800000Y-6950000D03*
X800000Y-7800000D03*
X800000Y-8650000D03*
X800000Y-9500000D03*
X800000Y-10350000D03*
X800000Y-11200000D03*
X800000Y-12050000D03*
X800000Y-12900000D03*
X800000Y-13750000D03*
X800000Y-14600000D03*
X800000Y-15450000D03*
D22*
X6150000Y-11150000D03*
D23*
X7800000Y-11150000D03*
X9450000Y-11150000D03*
X6150000Y-9500000D03*
X7800000Y-9500000D03*
X9450000Y-9500000D03*
X6150000Y-7850000D03*
X7800000Y-7850000D03*
X9450000Y-7850000D03*
D24*
X800000Y-16500000D03*
X14800000Y-16500000D03*
X14800000Y-2500000D03*
X800000Y-2500000D03*
D25*
X13075000Y-21900000D03*
X17525000Y-21900000D03*
X13075000Y-26000000D03*
X17525000Y-26000000D03*
%LPD*%
M02*
