G04 #@! TF.GenerationSoftware,KiCad,Pcbnew,10.0.4*
G04 #@! TF.CreationDate,2026-09-02T14:26:12+01:00*
G04 #@! TF.ProjectId,pl60c_dmx_mini,706c3630-635f-4646-9d78-5f6d696e692e,rev?*
G04 #@! TF.SameCoordinates,Original*
G04 #@! TF.FileFunction,Copper,L2,Inr*
G04 #@! TF.FilePolarity,Positive*
%FSLAX46Y46*%
G04 Gerber Fmt 4.6, Leading zero omitted, Abs format (unit mm)*
G04 Created by KiCad (PCBNEW 10.0.4) date 2026-09-02 14:26:12*
%MOMM*%
%LPD*%
G01*
G04 APERTURE LIST*
G04 #@! TA.AperFunction,ComponentPad*
%ADD10C,3.400000*%
G04 #@! TD*
G04 #@! TA.AperFunction,ComponentPad*
%ADD11C,2.900000*%
G04 #@! TD*
G04 #@! TA.AperFunction,ComponentPad*
%ADD12O,1.000000X2.100000*%
G04 #@! TD*
G04 #@! TA.AperFunction,ComponentPad*
%ADD13O,1.000000X1.600000*%
G04 #@! TD*
G04 #@! TA.AperFunction,ViaPad*
%ADD14C,0.700000*%
G04 #@! TD*
G04 #@! TA.AperFunction,ViaPad*
%ADD15C,0.600000*%
G04 #@! TD*
G04 #@! TA.AperFunction,ViaPad*
%ADD16C,0.800000*%
G04 #@! TD*
G04 APERTURE END LIST*
D10*
X21350000Y-10300000D03*
D11*
X25165000Y-14110000D03*
X21350000Y-14110000D03*
X25165000Y-21090000D03*
D10*
X21350000Y-17920000D03*
D11*
X31520000Y-5860000D03*
D12*
X2080000Y-22770000D03*
D13*
X2080000Y-26950000D03*
D12*
X10720000Y-22770000D03*
D13*
X10720000Y-26950000D03*
D14*
X1630200Y-8630200D03*
X7800000Y-6700000D03*
X7800000Y-12500000D03*
X9450000Y-6700000D03*
X3400000Y-6100000D03*
X5010000Y-12000000D03*
X2062500Y-6000000D03*
X25000000Y-5000000D03*
D15*
X7800000Y-9500000D03*
D14*
X1630200Y-14580200D03*
X13295000Y-4150000D03*
X2900000Y-5250000D03*
X4400000Y-1350000D03*
X15950000Y-16500000D03*
X2019000Y-10719000D03*
X15275000Y-26525000D03*
X1630200Y-16280200D03*
X9450000Y-12500000D03*
X1850000Y-17650000D03*
D15*
X9450000Y-9500000D03*
D14*
X2500000Y-4400000D03*
X2700000Y-17650000D03*
X3550000Y-1350000D03*
X6150000Y-12500000D03*
X14800000Y-1350000D03*
X1950000Y-6950000D03*
X10580100Y-8980100D03*
X18800000Y-26000000D03*
D15*
X9450000Y-11150000D03*
D14*
X31200000Y-27000000D03*
X1630200Y-12030200D03*
D15*
X6150000Y-7850000D03*
D14*
X1630200Y-4380200D03*
X2500000Y-12900000D03*
X9375000Y-17625000D03*
X3850000Y-27000000D03*
X11010000Y-13500000D03*
D15*
X6150000Y-9500000D03*
D14*
X2500000Y-16500000D03*
X18750000Y-4915000D03*
D15*
X7800000Y-7850000D03*
D14*
X5019900Y-8980100D03*
X19460000Y-25300000D03*
X25000000Y-10000000D03*
X1630200Y-12880200D03*
X9910000Y-25680000D03*
X3910000Y-25680000D03*
X18800000Y-21900000D03*
X30000000Y-10000000D03*
X1806900Y-9656900D03*
D15*
X9450000Y-7850000D03*
D14*
X17900000Y-16975000D03*
X5010000Y-8000000D03*
X7800000Y-5550000D03*
X6150000Y-6700000D03*
D15*
X6150000Y-11150000D03*
X7800000Y-11150000D03*
D14*
X3250000Y-18655000D03*
X8474700Y-24717300D03*
X9549999Y-18655000D03*
X3677300Y-24602500D03*
X7750000Y-19655000D03*
X13867600Y-8908600D03*
X5650000Y-24255000D03*
X4633100Y-25151400D03*
X10737900Y-6934800D03*
X7571900Y-24609100D03*
X7727000Y-23627600D03*
X12115300Y-14302200D03*
X16290600Y-9790700D03*
D16*
X3020000Y-7064800D03*
D15*
X3659600Y-17391300D03*
D16*
X18486000Y-3815200D03*
X16147900Y-24398700D03*
D14*
X10260100Y-14579900D03*
X14238000Y-26334900D03*
X12469400Y-8661000D03*
X12231300Y-20354000D03*
D15*
X12509700Y-12534200D03*
D14*
X10577400Y-20242500D03*
X8303400Y-1541500D03*
D15*
X32843300Y-24337500D03*
D14*
X36523000Y-24187500D03*
D15*
X13423100Y-14500000D03*
D14*
X13295000Y-10734600D03*
X15735600Y-10608600D03*
X11172600Y-5343800D03*
X10877500Y-11147100D03*
X3814500Y-4849300D03*
D16*
X6735900Y-13616600D03*
X7912700Y-4454100D03*
G04 #@! TA.AperFunction,Conductor*
G36*
X37943039Y-519685D02*
G01*
X37988794Y-572489D01*
X38000000Y-624000D01*
X38000000Y-28376000D01*
X37980315Y-28443039D01*
X37927511Y-28488794D01*
X37876000Y-28500000D01*
X624000Y-28500000D01*
X556961Y-28480315D01*
X511206Y-28427511D01*
X500000Y-28376000D01*
X500000Y-26561353D01*
X1180000Y-26561353D01*
X1180000Y-26750000D01*
X1780000Y-26750000D01*
X1780000Y-27150000D01*
X1180000Y-27150000D01*
X1180000Y-27338646D01*
X1214584Y-27512512D01*
X1214586Y-27512520D01*
X1282428Y-27676307D01*
X1282433Y-27676316D01*
X1380923Y-27823716D01*
X1380926Y-27823720D01*
X1506279Y-27949073D01*
X1506283Y-27949076D01*
X1653683Y-28047566D01*
X1653696Y-28047573D01*
X1817474Y-28115411D01*
X1817482Y-28115413D01*
X1880000Y-28127848D01*
X1880000Y-27474265D01*
X1895795Y-27490060D01*
X1964204Y-27529556D01*
X2040504Y-27550000D01*
X2119496Y-27550000D01*
X2195796Y-27529556D01*
X2264205Y-27490060D01*
X2280000Y-27474265D01*
X2280000Y-28127847D01*
X2342517Y-28115413D01*
X2342525Y-28115411D01*
X2506303Y-28047573D01*
X2506316Y-28047566D01*
X2653716Y-27949076D01*
X2653720Y-27949073D01*
X2779073Y-27823720D01*
X2779076Y-27823716D01*
X2877566Y-27676316D01*
X2877571Y-27676307D01*
X2945413Y-27512520D01*
X2945415Y-27512512D01*
X2979999Y-27338646D01*
X2980000Y-27338643D01*
X2980000Y-27150000D01*
X2380000Y-27150000D01*
X2380000Y-26750000D01*
X2980000Y-26750000D01*
X2980000Y-26561357D01*
X2979999Y-26561353D01*
X9820000Y-26561353D01*
X9820000Y-26750000D01*
X10420000Y-26750000D01*
X10420000Y-27150000D01*
X9820000Y-27150000D01*
X9820000Y-27338646D01*
X9854584Y-27512512D01*
X9854586Y-27512520D01*
X9922428Y-27676307D01*
X9922433Y-27676316D01*
X10020923Y-27823716D01*
X10020926Y-27823720D01*
X10146279Y-27949073D01*
X10146283Y-27949076D01*
X10293683Y-28047566D01*
X10293696Y-28047573D01*
X10457474Y-28115411D01*
X10457482Y-28115413D01*
X10520000Y-28127848D01*
X10520000Y-27474265D01*
X10535795Y-27490060D01*
X10604204Y-27529556D01*
X10680504Y-27550000D01*
X10759496Y-27550000D01*
X10835796Y-27529556D01*
X10904205Y-27490060D01*
X10920000Y-27474265D01*
X10920000Y-28127847D01*
X10982517Y-28115413D01*
X10982525Y-28115411D01*
X11146303Y-28047573D01*
X11146316Y-28047566D01*
X11293716Y-27949076D01*
X11293720Y-27949073D01*
X11419073Y-27823720D01*
X11419076Y-27823716D01*
X11517566Y-27676316D01*
X11517571Y-27676307D01*
X11585413Y-27512520D01*
X11585415Y-27512512D01*
X11619999Y-27338646D01*
X11620000Y-27338643D01*
X11620000Y-27150000D01*
X11020000Y-27150000D01*
X11020000Y-26750000D01*
X11620000Y-26750000D01*
X11620000Y-26561357D01*
X11619999Y-26561353D01*
X11587699Y-26398971D01*
X13587499Y-26398971D01*
X13612497Y-26524638D01*
X13612499Y-26524644D01*
X13661533Y-26643024D01*
X13661538Y-26643033D01*
X13732723Y-26749568D01*
X13732726Y-26749572D01*
X13823327Y-26840173D01*
X13823331Y-26840176D01*
X13929866Y-26911361D01*
X13929872Y-26911364D01*
X13929873Y-26911365D01*
X14048256Y-26960401D01*
X14048260Y-26960401D01*
X14048261Y-26960402D01*
X14173928Y-26985400D01*
X14173931Y-26985400D01*
X14302071Y-26985400D01*
X14386615Y-26968582D01*
X14427744Y-26960401D01*
X14546127Y-26911365D01*
X14652669Y-26840176D01*
X14743276Y-26749569D01*
X14814465Y-26643027D01*
X14863501Y-26524644D01*
X14888500Y-26398969D01*
X14888500Y-26270831D01*
X14888500Y-26270828D01*
X14863502Y-26145161D01*
X14863501Y-26145160D01*
X14863501Y-26145156D01*
X14814465Y-26026773D01*
X14814464Y-26026772D01*
X14814461Y-26026766D01*
X14743276Y-25920231D01*
X14743273Y-25920227D01*
X14652672Y-25829626D01*
X14652668Y-25829623D01*
X14546133Y-25758438D01*
X14546124Y-25758433D01*
X14427744Y-25709399D01*
X14427738Y-25709397D01*
X14302071Y-25684400D01*
X14302069Y-25684400D01*
X14173931Y-25684400D01*
X14173929Y-25684400D01*
X14048261Y-25709397D01*
X14048255Y-25709399D01*
X13929875Y-25758433D01*
X13929866Y-25758438D01*
X13823331Y-25829623D01*
X13823327Y-25829626D01*
X13732726Y-25920227D01*
X13732723Y-25920231D01*
X13661538Y-26026766D01*
X13661533Y-26026775D01*
X13612499Y-26145155D01*
X13612497Y-26145161D01*
X13587500Y-26270828D01*
X13587500Y-26270831D01*
X13587500Y-26398969D01*
X13587500Y-26398971D01*
X13587499Y-26398971D01*
X11587699Y-26398971D01*
X11585415Y-26387487D01*
X11585412Y-26387475D01*
X11554229Y-26312191D01*
X11517571Y-26223693D01*
X11517566Y-26223683D01*
X11419076Y-26076283D01*
X11419073Y-26076279D01*
X11293720Y-25950926D01*
X11293716Y-25950923D01*
X11146316Y-25852433D01*
X11146307Y-25852428D01*
X10982520Y-25784586D01*
X10982512Y-25784584D01*
X10920000Y-25772149D01*
X10920000Y-26425735D01*
X10904205Y-26409940D01*
X10835796Y-26370444D01*
X10759496Y-26350000D01*
X10680504Y-26350000D01*
X10604204Y-26370444D01*
X10535795Y-26409940D01*
X10520000Y-26425735D01*
X10520000Y-25772149D01*
X10457487Y-25784584D01*
X10457479Y-25784586D01*
X10293692Y-25852428D01*
X10293683Y-25852433D01*
X10146283Y-25950923D01*
X10146279Y-25950926D01*
X10020926Y-26076279D01*
X10020923Y-26076283D01*
X9922433Y-26223683D01*
X9922428Y-26223692D01*
X9854586Y-26387479D01*
X9854584Y-26387487D01*
X9820000Y-26561353D01*
X2979999Y-26561353D01*
X2945415Y-26387487D01*
X2945413Y-26387479D01*
X2877571Y-26223692D01*
X2877566Y-26223683D01*
X2779076Y-26076283D01*
X2779073Y-26076279D01*
X2653720Y-25950926D01*
X2653716Y-25950923D01*
X2506316Y-25852433D01*
X2506307Y-25852428D01*
X2342520Y-25784586D01*
X2342512Y-25784584D01*
X2280000Y-25772149D01*
X2280000Y-26425735D01*
X2264205Y-26409940D01*
X2195796Y-26370444D01*
X2119496Y-26350000D01*
X2040504Y-26350000D01*
X1964204Y-26370444D01*
X1895795Y-26409940D01*
X1880000Y-26425735D01*
X1880000Y-25772149D01*
X1817487Y-25784584D01*
X1817479Y-25784586D01*
X1653692Y-25852428D01*
X1653683Y-25852433D01*
X1506283Y-25950923D01*
X1506279Y-25950926D01*
X1380926Y-26076279D01*
X1380923Y-26076283D01*
X1282433Y-26223683D01*
X1282428Y-26223692D01*
X1214586Y-26387479D01*
X1214584Y-26387487D01*
X1180000Y-26561353D01*
X500000Y-26561353D01*
X500000Y-22131353D01*
X1180000Y-22131353D01*
X1180000Y-22570000D01*
X1780000Y-22570000D01*
X1780000Y-22970000D01*
X1180000Y-22970000D01*
X1180000Y-23408646D01*
X1214584Y-23582512D01*
X1214586Y-23582520D01*
X1282428Y-23746307D01*
X1282433Y-23746316D01*
X1380923Y-23893716D01*
X1380926Y-23893720D01*
X1506279Y-24019073D01*
X1506283Y-24019076D01*
X1653683Y-24117566D01*
X1653696Y-24117573D01*
X1817474Y-24185411D01*
X1817482Y-24185413D01*
X1880000Y-24197848D01*
X1880000Y-23544265D01*
X1895795Y-23560060D01*
X1964204Y-23599556D01*
X2040504Y-23620000D01*
X2119496Y-23620000D01*
X2195796Y-23599556D01*
X2264205Y-23560060D01*
X2280000Y-23544265D01*
X2280000Y-24197847D01*
X2342517Y-24185413D01*
X2342525Y-24185411D01*
X2506303Y-24117573D01*
X2506316Y-24117566D01*
X2653716Y-24019076D01*
X2653720Y-24019073D01*
X2779073Y-23893720D01*
X2779076Y-23893716D01*
X2877566Y-23746316D01*
X2877569Y-23746310D01*
X2884124Y-23730484D01*
X2927962Y-23676078D01*
X2994255Y-23654009D01*
X3061955Y-23671285D01*
X3086369Y-23690249D01*
X3156635Y-23760515D01*
X3287863Y-23836280D01*
X3287865Y-23836281D01*
X3295369Y-23839389D01*
X3294475Y-23841545D01*
X3343906Y-23871671D01*
X3374440Y-23934516D01*
X3366150Y-24003892D01*
X3321668Y-24057773D01*
X3321050Y-24058188D01*
X3262633Y-24097221D01*
X3262627Y-24097226D01*
X3172026Y-24187827D01*
X3172023Y-24187831D01*
X3100838Y-24294366D01*
X3100833Y-24294375D01*
X3051799Y-24412755D01*
X3051797Y-24412761D01*
X3026800Y-24538428D01*
X3026800Y-24538431D01*
X3026800Y-24666569D01*
X3026800Y-24666571D01*
X3026799Y-24666571D01*
X3051797Y-24792238D01*
X3051799Y-24792244D01*
X3100833Y-24910624D01*
X3100838Y-24910633D01*
X3172023Y-25017168D01*
X3172026Y-25017172D01*
X3262627Y-25107773D01*
X3262631Y-25107776D01*
X3369166Y-25178961D01*
X3369175Y-25178966D01*
X3385107Y-25185565D01*
X3487556Y-25228001D01*
X3487560Y-25228001D01*
X3487561Y-25228002D01*
X3613228Y-25253000D01*
X3613231Y-25253000D01*
X3741371Y-25253000D01*
X3858982Y-25229605D01*
X3928574Y-25235832D01*
X3983751Y-25278695D01*
X4004791Y-25327029D01*
X4007597Y-25341139D01*
X4007599Y-25341144D01*
X4056633Y-25459524D01*
X4056638Y-25459533D01*
X4127823Y-25566068D01*
X4127826Y-25566072D01*
X4218427Y-25656673D01*
X4218431Y-25656676D01*
X4324966Y-25727861D01*
X4324972Y-25727864D01*
X4324973Y-25727865D01*
X4443356Y-25776901D01*
X4443360Y-25776901D01*
X4443361Y-25776902D01*
X4569028Y-25801900D01*
X4569031Y-25801900D01*
X4697171Y-25801900D01*
X4784220Y-25784584D01*
X4822844Y-25776901D01*
X4941227Y-25727865D01*
X5047769Y-25656676D01*
X5138376Y-25566069D01*
X5209565Y-25459527D01*
X5258601Y-25341144D01*
X5274822Y-25259600D01*
X5283600Y-25215471D01*
X5283600Y-25087328D01*
X5268161Y-25009716D01*
X5274388Y-24940125D01*
X5317250Y-24884947D01*
X5383140Y-24861702D01*
X5437230Y-24870963D01*
X5460256Y-24880501D01*
X5460260Y-24880501D01*
X5460261Y-24880502D01*
X5585928Y-24905500D01*
X5585931Y-24905500D01*
X5714071Y-24905500D01*
X5817393Y-24884947D01*
X5839744Y-24880501D01*
X5958127Y-24831465D01*
X6064669Y-24760276D01*
X6151774Y-24673171D01*
X6921399Y-24673171D01*
X6946397Y-24798838D01*
X6946399Y-24798844D01*
X6995433Y-24917224D01*
X6995438Y-24917233D01*
X7066623Y-25023768D01*
X7066626Y-25023772D01*
X7157227Y-25114373D01*
X7157231Y-25114376D01*
X7263766Y-25185561D01*
X7263772Y-25185564D01*
X7263773Y-25185565D01*
X7382156Y-25234601D01*
X7382160Y-25234601D01*
X7382161Y-25234602D01*
X7507828Y-25259600D01*
X7507831Y-25259600D01*
X7635971Y-25259600D01*
X7720515Y-25242782D01*
X7761644Y-25234601D01*
X7880027Y-25185565D01*
X7881120Y-25184835D01*
X7881778Y-25184628D01*
X7885402Y-25182692D01*
X7885769Y-25183378D01*
X7947795Y-25163949D01*
X8015177Y-25182426D01*
X8037700Y-25200245D01*
X8052924Y-25215469D01*
X8060032Y-25222577D01*
X8166566Y-25293761D01*
X8166572Y-25293764D01*
X8166573Y-25293765D01*
X8284956Y-25342801D01*
X8284960Y-25342801D01*
X8284961Y-25342802D01*
X8410628Y-25367800D01*
X8410631Y-25367800D01*
X8538771Y-25367800D01*
X8623315Y-25350982D01*
X8664444Y-25342801D01*
X8782827Y-25293765D01*
X8889369Y-25222576D01*
X8979976Y-25131969D01*
X9051165Y-25025427D01*
X9100201Y-24907044D01*
X9117909Y-24818024D01*
X9125200Y-24781371D01*
X9125200Y-24653228D01*
X9100202Y-24527561D01*
X9100201Y-24527560D01*
X9100201Y-24527556D01*
X9075406Y-24467695D01*
X15447399Y-24467695D01*
X15474318Y-24603022D01*
X15474321Y-24603032D01*
X15527121Y-24730504D01*
X15527128Y-24730517D01*
X15603785Y-24845241D01*
X15603788Y-24845245D01*
X15701354Y-24942811D01*
X15701358Y-24942814D01*
X15816082Y-25019471D01*
X15816095Y-25019478D01*
X15943567Y-25072278D01*
X15943572Y-25072280D01*
X15943576Y-25072280D01*
X15943577Y-25072281D01*
X16078904Y-25099200D01*
X16078907Y-25099200D01*
X16216895Y-25099200D01*
X16307941Y-25081089D01*
X16352228Y-25072280D01*
X16479711Y-25019475D01*
X16594442Y-24942814D01*
X16692014Y-24845242D01*
X16768675Y-24730511D01*
X16821480Y-24603028D01*
X16834925Y-24535436D01*
X16848400Y-24467695D01*
X16848400Y-24329704D01*
X16848399Y-24329702D01*
X16837421Y-24274507D01*
X16834225Y-24258443D01*
X32242800Y-24258443D01*
X32242800Y-24416557D01*
X32282074Y-24563127D01*
X32283723Y-24569283D01*
X32283726Y-24569290D01*
X32362775Y-24706209D01*
X32362779Y-24706214D01*
X32362780Y-24706216D01*
X32474584Y-24818020D01*
X32474586Y-24818021D01*
X32474590Y-24818024D01*
X32582805Y-24880501D01*
X32611516Y-24897077D01*
X32764243Y-24938000D01*
X32764245Y-24938000D01*
X32922355Y-24938000D01*
X32922357Y-24938000D01*
X33075084Y-24897077D01*
X33212016Y-24818020D01*
X33323820Y-24706216D01*
X33402877Y-24569284D01*
X33443800Y-24416557D01*
X33443800Y-24258443D01*
X33441959Y-24251571D01*
X35872499Y-24251571D01*
X35897497Y-24377238D01*
X35897499Y-24377244D01*
X35946533Y-24495624D01*
X35946538Y-24495633D01*
X36017723Y-24602168D01*
X36017726Y-24602172D01*
X36108327Y-24692773D01*
X36108331Y-24692776D01*
X36214866Y-24763961D01*
X36214872Y-24763964D01*
X36214873Y-24763965D01*
X36333256Y-24813001D01*
X36333260Y-24813001D01*
X36333261Y-24813002D01*
X36458928Y-24838000D01*
X36458931Y-24838000D01*
X36587071Y-24838000D01*
X36687512Y-24818020D01*
X36712744Y-24813001D01*
X36831127Y-24763965D01*
X36937669Y-24692776D01*
X37028276Y-24602169D01*
X37099465Y-24495627D01*
X37148501Y-24377244D01*
X37164987Y-24294366D01*
X37173500Y-24251571D01*
X37173500Y-24123428D01*
X37148502Y-23997761D01*
X37148501Y-23997760D01*
X37148501Y-23997756D01*
X37099465Y-23879373D01*
X37099464Y-23879372D01*
X37099461Y-23879366D01*
X37028276Y-23772831D01*
X37028273Y-23772827D01*
X36937672Y-23682226D01*
X36937668Y-23682223D01*
X36831133Y-23611038D01*
X36831124Y-23611033D01*
X36712744Y-23561999D01*
X36712738Y-23561997D01*
X36587071Y-23537000D01*
X36587069Y-23537000D01*
X36458931Y-23537000D01*
X36458929Y-23537000D01*
X36333261Y-23561997D01*
X36333255Y-23561999D01*
X36214875Y-23611033D01*
X36214866Y-23611038D01*
X36108331Y-23682223D01*
X36108327Y-23682226D01*
X36017726Y-23772827D01*
X36017723Y-23772831D01*
X35946538Y-23879366D01*
X35946533Y-23879375D01*
X35897499Y-23997755D01*
X35897497Y-23997761D01*
X35872500Y-24123428D01*
X35872500Y-24123431D01*
X35872500Y-24251569D01*
X35872500Y-24251571D01*
X35872499Y-24251571D01*
X33441959Y-24251571D01*
X33402877Y-24105716D01*
X33397974Y-24097223D01*
X33323824Y-23968790D01*
X33323818Y-23968782D01*
X33212017Y-23856981D01*
X33212009Y-23856975D01*
X33075090Y-23777926D01*
X33075086Y-23777924D01*
X33075084Y-23777923D01*
X32922357Y-23737000D01*
X32764243Y-23737000D01*
X32611516Y-23777923D01*
X32611509Y-23777926D01*
X32474590Y-23856975D01*
X32474582Y-23856981D01*
X32362781Y-23968782D01*
X32362775Y-23968790D01*
X32283726Y-24105709D01*
X32283723Y-24105716D01*
X32242800Y-24258443D01*
X16834225Y-24258443D01*
X16821481Y-24194377D01*
X16821480Y-24194376D01*
X16821480Y-24194372D01*
X16820055Y-24190931D01*
X16768678Y-24066895D01*
X16768671Y-24066882D01*
X16692014Y-23952158D01*
X16692011Y-23952154D01*
X16594445Y-23854588D01*
X16594441Y-23854585D01*
X16479717Y-23777928D01*
X16479704Y-23777921D01*
X16352232Y-23725121D01*
X16352222Y-23725118D01*
X16216895Y-23698200D01*
X16216893Y-23698200D01*
X16078907Y-23698200D01*
X16078905Y-23698200D01*
X15943577Y-23725118D01*
X15943567Y-23725121D01*
X15816095Y-23777921D01*
X15816082Y-23777928D01*
X15701358Y-23854585D01*
X15701354Y-23854588D01*
X15603788Y-23952154D01*
X15603785Y-23952158D01*
X15527128Y-24066882D01*
X15527121Y-24066895D01*
X15474321Y-24194367D01*
X15474318Y-24194377D01*
X15447400Y-24329704D01*
X15447400Y-24329707D01*
X15447400Y-24467693D01*
X15447400Y-24467695D01*
X15447399Y-24467695D01*
X9075406Y-24467695D01*
X9051165Y-24409173D01*
X9051164Y-24409172D01*
X9051161Y-24409166D01*
X8979976Y-24302631D01*
X8979973Y-24302627D01*
X8889372Y-24212026D01*
X8889368Y-24212023D01*
X8782833Y-24140838D01*
X8782824Y-24140833D01*
X8664444Y-24091799D01*
X8664438Y-24091797D01*
X8538771Y-24066800D01*
X8538769Y-24066800D01*
X8434752Y-24066800D01*
X8367713Y-24047115D01*
X8321958Y-23994311D01*
X8312014Y-23925153D01*
X8320191Y-23895347D01*
X8326807Y-23879375D01*
X8352501Y-23817344D01*
X8363806Y-23760512D01*
X8377500Y-23691671D01*
X8377500Y-23563528D01*
X8352502Y-23437861D01*
X8352501Y-23437860D01*
X8352501Y-23437856D01*
X8303465Y-23319473D01*
X8303464Y-23319472D01*
X8303461Y-23319466D01*
X8280430Y-23284998D01*
X8239828Y-23224234D01*
X8714500Y-23224234D01*
X8714500Y-23375765D01*
X8753719Y-23522136D01*
X8777617Y-23563528D01*
X8829485Y-23653365D01*
X8936635Y-23760515D01*
X9067865Y-23836281D01*
X9214234Y-23875500D01*
X9214236Y-23875500D01*
X9365764Y-23875500D01*
X9365766Y-23875500D01*
X9512135Y-23836281D01*
X9643365Y-23760515D01*
X9713633Y-23690246D01*
X9774952Y-23656764D01*
X9844644Y-23661748D01*
X9900578Y-23703619D01*
X9915873Y-23730479D01*
X9922429Y-23746309D01*
X9922433Y-23746316D01*
X10020923Y-23893716D01*
X10020926Y-23893720D01*
X10146279Y-24019073D01*
X10146283Y-24019076D01*
X10293683Y-24117566D01*
X10293696Y-24117573D01*
X10457474Y-24185411D01*
X10457482Y-24185413D01*
X10520000Y-24197848D01*
X10520000Y-23544265D01*
X10535795Y-23560060D01*
X10604204Y-23599556D01*
X10680504Y-23620000D01*
X10759496Y-23620000D01*
X10835796Y-23599556D01*
X10904205Y-23560060D01*
X10920000Y-23544265D01*
X10920000Y-24197847D01*
X10982517Y-24185413D01*
X10982525Y-24185411D01*
X11146303Y-24117573D01*
X11146316Y-24117566D01*
X11293716Y-24019076D01*
X11293720Y-24019073D01*
X11419073Y-23893720D01*
X11419076Y-23893716D01*
X11517566Y-23746316D01*
X11517571Y-23746307D01*
X11585413Y-23582520D01*
X11585415Y-23582512D01*
X11619999Y-23408646D01*
X11620000Y-23408643D01*
X11620000Y-22970000D01*
X11020000Y-22970000D01*
X11020000Y-22570000D01*
X11620000Y-22570000D01*
X11620000Y-22131357D01*
X11619999Y-22131353D01*
X11585415Y-21957487D01*
X11585413Y-21957479D01*
X11517571Y-21793692D01*
X11517566Y-21793683D01*
X11419076Y-21646283D01*
X11419073Y-21646279D01*
X11293720Y-21520926D01*
X11293716Y-21520923D01*
X11146316Y-21422433D01*
X11146307Y-21422428D01*
X10982520Y-21354586D01*
X10982512Y-21354584D01*
X10920000Y-21342149D01*
X10920000Y-21995735D01*
X10904205Y-21979940D01*
X10835796Y-21940444D01*
X10759496Y-21920000D01*
X10680504Y-21920000D01*
X10604204Y-21940444D01*
X10535795Y-21979940D01*
X10520000Y-21995735D01*
X10520000Y-21342149D01*
X10457487Y-21354584D01*
X10457479Y-21354586D01*
X10293692Y-21422428D01*
X10293683Y-21422433D01*
X10146283Y-21520923D01*
X10146279Y-21520926D01*
X10020926Y-21646279D01*
X10020923Y-21646283D01*
X9922433Y-21793683D01*
X9922428Y-21793692D01*
X9854586Y-21957479D01*
X9854584Y-21957487D01*
X9820000Y-22131353D01*
X9820000Y-22570000D01*
X10420000Y-22570000D01*
X10420000Y-22970000D01*
X9825242Y-22970000D01*
X9758203Y-22950315D01*
X9737561Y-22933681D01*
X9643367Y-22839487D01*
X9643365Y-22839485D01*
X9577750Y-22801602D01*
X9512136Y-22763719D01*
X9438950Y-22744109D01*
X9365766Y-22724500D01*
X9214234Y-22724500D01*
X9067863Y-22763719D01*
X8936635Y-22839485D01*
X8936632Y-22839487D01*
X8829487Y-22946632D01*
X8829485Y-22946635D01*
X8753719Y-23077863D01*
X8714500Y-23224234D01*
X8239828Y-23224234D01*
X8232276Y-23212931D01*
X8232273Y-23212927D01*
X8141672Y-23122326D01*
X8141668Y-23122323D01*
X8035133Y-23051138D01*
X8035124Y-23051133D01*
X7916744Y-23002099D01*
X7916738Y-23002097D01*
X7791071Y-22977100D01*
X7791069Y-22977100D01*
X7662931Y-22977100D01*
X7662929Y-22977100D01*
X7537261Y-23002097D01*
X7537255Y-23002099D01*
X7418875Y-23051133D01*
X7418866Y-23051138D01*
X7312331Y-23122323D01*
X7312327Y-23122326D01*
X7221726Y-23212927D01*
X7221723Y-23212931D01*
X7150538Y-23319466D01*
X7150533Y-23319475D01*
X7101499Y-23437855D01*
X7101497Y-23437861D01*
X7076500Y-23563528D01*
X7076500Y-23563531D01*
X7076500Y-23691669D01*
X7076500Y-23691671D01*
X7076499Y-23691671D01*
X7101497Y-23817338D01*
X7101499Y-23817344D01*
X7150533Y-23935724D01*
X7150538Y-23935732D01*
X7164009Y-23955893D01*
X7184887Y-24022570D01*
X7166403Y-24089950D01*
X7148589Y-24112465D01*
X7066623Y-24194431D01*
X6995438Y-24300966D01*
X6995433Y-24300975D01*
X6946399Y-24419355D01*
X6946397Y-24419361D01*
X6921400Y-24545028D01*
X6921400Y-24545031D01*
X6921400Y-24673169D01*
X6921400Y-24673171D01*
X6921399Y-24673171D01*
X6151774Y-24673171D01*
X6155276Y-24669669D01*
X6226465Y-24563127D01*
X6275501Y-24444744D01*
X6298385Y-24329702D01*
X6300500Y-24319071D01*
X6300500Y-24190928D01*
X6275502Y-24065261D01*
X6275501Y-24065260D01*
X6275501Y-24065256D01*
X6228654Y-23952158D01*
X6226466Y-23946875D01*
X6226461Y-23946866D01*
X6155276Y-23840331D01*
X6155273Y-23840327D01*
X6064672Y-23749726D01*
X6064668Y-23749723D01*
X5958133Y-23678538D01*
X5958124Y-23678533D01*
X5839744Y-23629499D01*
X5839738Y-23629497D01*
X5714071Y-23604500D01*
X5714069Y-23604500D01*
X5585931Y-23604500D01*
X5585929Y-23604500D01*
X5460261Y-23629497D01*
X5460255Y-23629499D01*
X5341875Y-23678533D01*
X5341866Y-23678538D01*
X5235331Y-23749723D01*
X5235327Y-23749726D01*
X5144726Y-23840327D01*
X5144723Y-23840331D01*
X5073538Y-23946866D01*
X5073533Y-23946875D01*
X5024499Y-24065255D01*
X5024497Y-24065261D01*
X4999500Y-24190928D01*
X4999500Y-24319073D01*
X5014938Y-24396684D01*
X5008711Y-24466275D01*
X4965848Y-24521453D01*
X4899958Y-24544697D01*
X4845868Y-24535436D01*
X4822844Y-24525899D01*
X4822838Y-24525897D01*
X4697171Y-24500900D01*
X4697169Y-24500900D01*
X4569031Y-24500900D01*
X4569026Y-24500900D01*
X4451416Y-24524294D01*
X4381824Y-24518067D01*
X4326647Y-24475203D01*
X4305607Y-24426867D01*
X4302801Y-24412756D01*
X4253765Y-24294373D01*
X4253764Y-24294372D01*
X4253761Y-24294366D01*
X4182576Y-24187831D01*
X4182573Y-24187827D01*
X4091972Y-24097226D01*
X4091968Y-24097223D01*
X3985433Y-24026038D01*
X3985423Y-24026033D01*
X3878882Y-23981902D01*
X3824479Y-23938061D01*
X3802414Y-23871766D01*
X3819693Y-23804067D01*
X3857713Y-23766501D01*
X3856916Y-23765463D01*
X3863357Y-23760519D01*
X3863365Y-23760515D01*
X3970515Y-23653365D01*
X4046281Y-23522135D01*
X4085500Y-23375766D01*
X4085500Y-23224234D01*
X4046281Y-23077865D01*
X3970515Y-22946635D01*
X3863365Y-22839485D01*
X3797750Y-22801602D01*
X3732136Y-22763719D01*
X3658950Y-22744109D01*
X3585766Y-22724500D01*
X3434234Y-22724500D01*
X3287863Y-22763719D01*
X3156635Y-22839485D01*
X3156632Y-22839487D01*
X3062439Y-22933681D01*
X3001116Y-22967166D01*
X2974758Y-22970000D01*
X2380000Y-22970000D01*
X2380000Y-22570000D01*
X2980000Y-22570000D01*
X2980000Y-22131357D01*
X2979999Y-22131353D01*
X2945415Y-21957487D01*
X2945413Y-21957479D01*
X2877571Y-21793692D01*
X2877566Y-21793683D01*
X2779076Y-21646283D01*
X2779073Y-21646279D01*
X2653720Y-21520926D01*
X2653716Y-21520923D01*
X2506316Y-21422433D01*
X2506307Y-21422428D01*
X2342520Y-21354586D01*
X2342512Y-21354584D01*
X2280000Y-21342149D01*
X2280000Y-21995735D01*
X2264205Y-21979940D01*
X2195796Y-21940444D01*
X2119496Y-21920000D01*
X2040504Y-21920000D01*
X1964204Y-21940444D01*
X1895795Y-21979940D01*
X1880000Y-21995735D01*
X1880000Y-21342149D01*
X1817487Y-21354584D01*
X1817479Y-21354586D01*
X1653692Y-21422428D01*
X1653683Y-21422433D01*
X1506283Y-21520923D01*
X1506279Y-21520926D01*
X1380926Y-21646279D01*
X1380923Y-21646283D01*
X1282433Y-21793683D01*
X1282428Y-21793692D01*
X1214586Y-21957479D01*
X1214584Y-21957487D01*
X1180000Y-22131353D01*
X500000Y-22131353D01*
X500000Y-20306571D01*
X9926899Y-20306571D01*
X9951897Y-20432238D01*
X9951899Y-20432244D01*
X10000933Y-20550624D01*
X10000938Y-20550633D01*
X10072123Y-20657168D01*
X10072126Y-20657172D01*
X10162727Y-20747773D01*
X10162731Y-20747776D01*
X10269266Y-20818961D01*
X10269272Y-20818964D01*
X10269273Y-20818965D01*
X10387656Y-20868001D01*
X10387660Y-20868001D01*
X10387661Y-20868002D01*
X10513328Y-20893000D01*
X10513331Y-20893000D01*
X10641471Y-20893000D01*
X10726015Y-20876182D01*
X10767144Y-20868001D01*
X10885527Y-20818965D01*
X10992069Y-20747776D01*
X11082676Y-20657169D01*
X11153865Y-20550627D01*
X11202901Y-20432244D01*
X11205720Y-20418071D01*
X11580799Y-20418071D01*
X11605797Y-20543738D01*
X11605799Y-20543744D01*
X11654833Y-20662124D01*
X11654838Y-20662133D01*
X11726023Y-20768668D01*
X11726026Y-20768672D01*
X11816627Y-20859273D01*
X11816631Y-20859276D01*
X11923166Y-20930461D01*
X11923172Y-20930464D01*
X11923173Y-20930465D01*
X12041556Y-20979501D01*
X12041560Y-20979501D01*
X12041561Y-20979502D01*
X12167228Y-21004500D01*
X12167231Y-21004500D01*
X12295371Y-21004500D01*
X12379915Y-20987682D01*
X12421044Y-20979501D01*
X12431287Y-20975258D01*
X23414500Y-20975258D01*
X23414500Y-21204741D01*
X23432591Y-21342149D01*
X23444452Y-21432238D01*
X23444453Y-21432240D01*
X23503842Y-21653887D01*
X23591650Y-21865876D01*
X23591657Y-21865890D01*
X23706392Y-22064617D01*
X23846081Y-22246661D01*
X23846089Y-22246670D01*
X24008330Y-22408911D01*
X24008338Y-22408918D01*
X24190382Y-22548607D01*
X24190385Y-22548608D01*
X24190388Y-22548611D01*
X24389112Y-22663344D01*
X24389117Y-22663346D01*
X24389123Y-22663349D01*
X24480480Y-22701190D01*
X24601113Y-22751158D01*
X24822762Y-22810548D01*
X25050266Y-22840500D01*
X25050273Y-22840500D01*
X25279727Y-22840500D01*
X25279734Y-22840500D01*
X25507238Y-22810548D01*
X25728887Y-22751158D01*
X25940888Y-22663344D01*
X26139612Y-22548611D01*
X26321661Y-22408919D01*
X26321665Y-22408914D01*
X26321670Y-22408911D01*
X26483911Y-22246670D01*
X26483914Y-22246665D01*
X26483919Y-22246661D01*
X26623611Y-22064612D01*
X26738344Y-21865888D01*
X26826158Y-21653887D01*
X26885548Y-21432238D01*
X26915500Y-21204734D01*
X26915500Y-20975266D01*
X26885548Y-20747762D01*
X26826158Y-20526113D01*
X26738344Y-20314112D01*
X26623611Y-20115388D01*
X26623608Y-20115385D01*
X26623607Y-20115382D01*
X26483918Y-19933338D01*
X26483911Y-19933330D01*
X26321670Y-19771089D01*
X26321661Y-19771081D01*
X26139617Y-19631392D01*
X25940890Y-19516657D01*
X25940876Y-19516650D01*
X25728887Y-19428842D01*
X25723035Y-19427274D01*
X25507238Y-19369452D01*
X25469215Y-19364446D01*
X25279741Y-19339500D01*
X25279734Y-19339500D01*
X25050266Y-19339500D01*
X25050258Y-19339500D01*
X24833715Y-19368009D01*
X24822762Y-19369452D01*
X24729076Y-19394554D01*
X24601112Y-19428842D01*
X24389123Y-19516650D01*
X24389109Y-19516657D01*
X24190382Y-19631392D01*
X24008338Y-19771081D01*
X23846081Y-19933338D01*
X23706392Y-20115382D01*
X23591657Y-20314109D01*
X23591650Y-20314123D01*
X23503842Y-20526112D01*
X23444453Y-20747759D01*
X23444451Y-20747770D01*
X23414500Y-20975258D01*
X12431287Y-20975258D01*
X12539427Y-20930465D01*
X12539433Y-20930461D01*
X12632756Y-20868105D01*
X12637436Y-20864976D01*
X12645969Y-20859276D01*
X12736576Y-20768669D01*
X12807765Y-20662127D01*
X12856801Y-20543744D01*
X12864982Y-20502615D01*
X12881800Y-20418071D01*
X12881800Y-20289928D01*
X12856802Y-20164261D01*
X12856801Y-20164260D01*
X12856801Y-20164256D01*
X12807765Y-20045873D01*
X12807764Y-20045872D01*
X12807761Y-20045866D01*
X12736576Y-19939331D01*
X12736573Y-19939327D01*
X12645972Y-19848726D01*
X12645968Y-19848723D01*
X12539433Y-19777538D01*
X12539424Y-19777533D01*
X12421044Y-19728499D01*
X12421038Y-19728497D01*
X12295371Y-19703500D01*
X12295369Y-19703500D01*
X12167231Y-19703500D01*
X12167229Y-19703500D01*
X12041561Y-19728497D01*
X12041555Y-19728499D01*
X11923175Y-19777533D01*
X11923166Y-19777538D01*
X11816631Y-19848723D01*
X11816627Y-19848726D01*
X11726026Y-19939327D01*
X11726023Y-19939331D01*
X11654838Y-20045866D01*
X11654833Y-20045875D01*
X11605799Y-20164255D01*
X11605797Y-20164261D01*
X11580800Y-20289928D01*
X11580800Y-20289931D01*
X11580800Y-20418069D01*
X11580800Y-20418071D01*
X11580799Y-20418071D01*
X11205720Y-20418071D01*
X11211082Y-20391115D01*
X11227900Y-20306571D01*
X11227900Y-20178428D01*
X11202902Y-20052761D01*
X11202901Y-20052760D01*
X11202901Y-20052756D01*
X11153865Y-19934373D01*
X11153864Y-19934372D01*
X11153861Y-19934366D01*
X11082676Y-19827831D01*
X11082673Y-19827827D01*
X10992072Y-19737226D01*
X10992068Y-19737223D01*
X10885533Y-19666038D01*
X10885524Y-19666033D01*
X10767144Y-19616999D01*
X10767138Y-19616997D01*
X10641471Y-19592000D01*
X10641469Y-19592000D01*
X10513331Y-19592000D01*
X10513329Y-19592000D01*
X10387661Y-19616997D01*
X10387655Y-19616999D01*
X10269275Y-19666033D01*
X10269266Y-19666038D01*
X10162731Y-19737223D01*
X10162727Y-19737226D01*
X10072126Y-19827827D01*
X10072123Y-19827831D01*
X10000938Y-19934366D01*
X10000933Y-19934375D01*
X9951899Y-20052755D01*
X9951897Y-20052761D01*
X9926900Y-20178428D01*
X9926900Y-20178431D01*
X9926900Y-20306569D01*
X9926900Y-20306571D01*
X9926899Y-20306571D01*
X500000Y-20306571D01*
X500000Y-19719071D01*
X7099499Y-19719071D01*
X7124497Y-19844738D01*
X7124499Y-19844744D01*
X7173533Y-19963124D01*
X7173538Y-19963133D01*
X7244723Y-20069668D01*
X7244726Y-20069672D01*
X7335327Y-20160273D01*
X7335331Y-20160276D01*
X7441866Y-20231461D01*
X7441872Y-20231464D01*
X7441873Y-20231465D01*
X7560256Y-20280501D01*
X7560260Y-20280501D01*
X7560261Y-20280502D01*
X7685928Y-20305500D01*
X7685931Y-20305500D01*
X7814071Y-20305500D01*
X7898615Y-20288682D01*
X7939744Y-20280501D01*
X8058127Y-20231465D01*
X8164669Y-20160276D01*
X8164672Y-20160273D01*
X8240288Y-20084658D01*
X8255273Y-20069672D01*
X8255276Y-20069669D01*
X8326465Y-19963127D01*
X8375501Y-19844744D01*
X8383682Y-19803615D01*
X8400500Y-19719071D01*
X8400500Y-19590928D01*
X8375502Y-19465261D01*
X8375501Y-19465260D01*
X8375501Y-19465256D01*
X8326465Y-19346873D01*
X8326464Y-19346872D01*
X8326461Y-19346866D01*
X8255276Y-19240331D01*
X8255273Y-19240327D01*
X8164672Y-19149726D01*
X8164668Y-19149723D01*
X8058133Y-19078538D01*
X8058124Y-19078533D01*
X7939744Y-19029499D01*
X7939738Y-19029497D01*
X7814071Y-19004500D01*
X7814069Y-19004500D01*
X7685931Y-19004500D01*
X7685929Y-19004500D01*
X7560261Y-19029497D01*
X7560255Y-19029499D01*
X7441875Y-19078533D01*
X7441866Y-19078538D01*
X7335331Y-19149723D01*
X7335327Y-19149726D01*
X7244726Y-19240327D01*
X7244723Y-19240331D01*
X7173538Y-19346866D01*
X7173533Y-19346875D01*
X7124499Y-19465255D01*
X7124497Y-19465261D01*
X7099500Y-19590928D01*
X7099500Y-19590931D01*
X7099500Y-19719069D01*
X7099500Y-19719071D01*
X7099499Y-19719071D01*
X500000Y-19719071D01*
X500000Y-18719071D01*
X2599499Y-18719071D01*
X2624497Y-18844738D01*
X2624499Y-18844744D01*
X2673533Y-18963124D01*
X2673538Y-18963133D01*
X2744723Y-19069668D01*
X2744726Y-19069672D01*
X2835327Y-19160273D01*
X2835331Y-19160276D01*
X2941866Y-19231461D01*
X2941872Y-19231464D01*
X2941873Y-19231465D01*
X3060256Y-19280501D01*
X3060260Y-19280501D01*
X3060261Y-19280502D01*
X3185928Y-19305500D01*
X3185931Y-19305500D01*
X3314071Y-19305500D01*
X3398615Y-19288682D01*
X3439744Y-19280501D01*
X3558127Y-19231465D01*
X3664669Y-19160276D01*
X3755276Y-19069669D01*
X3826465Y-18963127D01*
X3875501Y-18844744D01*
X3900500Y-18719071D01*
X8899498Y-18719071D01*
X8924496Y-18844738D01*
X8924498Y-18844744D01*
X8973532Y-18963124D01*
X8973537Y-18963133D01*
X9044722Y-19069668D01*
X9044725Y-19069672D01*
X9135326Y-19160273D01*
X9135330Y-19160276D01*
X9241865Y-19231461D01*
X9241871Y-19231464D01*
X9241872Y-19231465D01*
X9360255Y-19280501D01*
X9360259Y-19280501D01*
X9360260Y-19280502D01*
X9485927Y-19305500D01*
X9485930Y-19305500D01*
X9614070Y-19305500D01*
X9698614Y-19288682D01*
X9739743Y-19280501D01*
X9858126Y-19231465D01*
X9964668Y-19160276D01*
X10055275Y-19069669D01*
X10126464Y-18963127D01*
X10175500Y-18844744D01*
X10200499Y-18719069D01*
X10200499Y-18590931D01*
X10200499Y-18590928D01*
X10175501Y-18465261D01*
X10175500Y-18465260D01*
X10175500Y-18465256D01*
X10126464Y-18346873D01*
X10126463Y-18346872D01*
X10126460Y-18346866D01*
X10055275Y-18240331D01*
X10055272Y-18240327D01*
X9964671Y-18149726D01*
X9964667Y-18149723D01*
X9858132Y-18078538D01*
X9858123Y-18078533D01*
X9739743Y-18029499D01*
X9739737Y-18029497D01*
X9614070Y-18004500D01*
X9614068Y-18004500D01*
X9485930Y-18004500D01*
X9485928Y-18004500D01*
X9360260Y-18029497D01*
X9360254Y-18029499D01*
X9241874Y-18078533D01*
X9241865Y-18078538D01*
X9135330Y-18149723D01*
X9135326Y-18149726D01*
X9044725Y-18240327D01*
X9044722Y-18240331D01*
X8973537Y-18346866D01*
X8973532Y-18346875D01*
X8924498Y-18465255D01*
X8924496Y-18465261D01*
X8899499Y-18590928D01*
X8899499Y-18590931D01*
X8899499Y-18719069D01*
X8899499Y-18719071D01*
X8899498Y-18719071D01*
X3900500Y-18719071D01*
X3900500Y-18719069D01*
X3900500Y-18590931D01*
X3900500Y-18590928D01*
X3875502Y-18465261D01*
X3875501Y-18465260D01*
X3875501Y-18465256D01*
X3826465Y-18346873D01*
X3826464Y-18346872D01*
X3826461Y-18346866D01*
X3755276Y-18240331D01*
X3755273Y-18240327D01*
X3707622Y-18192676D01*
X3674137Y-18131353D01*
X3679121Y-18061661D01*
X3720993Y-18005728D01*
X3763205Y-17985222D01*
X3891384Y-17950877D01*
X4028316Y-17871820D01*
X4140120Y-17760016D01*
X4147016Y-17748071D01*
X4161595Y-17722821D01*
X4184367Y-17683376D01*
X4219177Y-17623084D01*
X4260100Y-17470357D01*
X4260100Y-17312243D01*
X4219177Y-17159516D01*
X4187139Y-17104024D01*
X4140124Y-17022590D01*
X4140118Y-17022582D01*
X4028317Y-16910781D01*
X4028309Y-16910775D01*
X3891390Y-16831726D01*
X3891386Y-16831724D01*
X3891384Y-16831723D01*
X3738657Y-16790800D01*
X3580543Y-16790800D01*
X3427816Y-16831723D01*
X3427809Y-16831726D01*
X3290890Y-16910775D01*
X3290882Y-16910781D01*
X3179081Y-17022582D01*
X3179075Y-17022590D01*
X3100026Y-17159509D01*
X3100023Y-17159516D01*
X3059100Y-17312243D01*
X3059100Y-17470357D01*
X3097479Y-17613587D01*
X3100023Y-17623083D01*
X3100026Y-17623090D01*
X3179075Y-17760009D01*
X3179081Y-17760017D01*
X3220098Y-17801034D01*
X3253583Y-17862357D01*
X3248599Y-17932049D01*
X3206727Y-17987982D01*
X3156609Y-18010332D01*
X3060261Y-18029497D01*
X3060255Y-18029499D01*
X2941875Y-18078533D01*
X2941866Y-18078538D01*
X2835331Y-18149723D01*
X2835327Y-18149726D01*
X2744726Y-18240327D01*
X2744723Y-18240331D01*
X2673538Y-18346866D01*
X2673533Y-18346875D01*
X2624499Y-18465255D01*
X2624497Y-18465261D01*
X2599500Y-18590928D01*
X2599500Y-18590931D01*
X2599500Y-18719069D01*
X2599500Y-18719071D01*
X2599499Y-18719071D01*
X500000Y-18719071D01*
X500000Y-14643971D01*
X9609599Y-14643971D01*
X9634597Y-14769638D01*
X9634599Y-14769644D01*
X9683633Y-14888024D01*
X9683638Y-14888033D01*
X9754823Y-14994568D01*
X9754826Y-14994572D01*
X9845427Y-15085173D01*
X9845431Y-15085176D01*
X9951966Y-15156361D01*
X9951972Y-15156364D01*
X9951973Y-15156365D01*
X10070356Y-15205401D01*
X10070360Y-15205401D01*
X10070361Y-15205402D01*
X10196028Y-15230400D01*
X10196031Y-15230400D01*
X10324171Y-15230400D01*
X10408715Y-15213582D01*
X10449844Y-15205401D01*
X10568227Y-15156365D01*
X10674769Y-15085176D01*
X10765376Y-14994569D01*
X10836565Y-14888027D01*
X10885601Y-14769644D01*
X10910600Y-14643969D01*
X10910600Y-14515831D01*
X10910600Y-14515828D01*
X10885602Y-14390161D01*
X10885601Y-14390160D01*
X10885601Y-14390156D01*
X10875707Y-14366271D01*
X11464799Y-14366271D01*
X11489797Y-14491938D01*
X11489799Y-14491944D01*
X11538833Y-14610324D01*
X11538838Y-14610333D01*
X11610023Y-14716868D01*
X11610026Y-14716872D01*
X11700627Y-14807473D01*
X11700631Y-14807476D01*
X11807166Y-14878661D01*
X11807175Y-14878666D01*
X11829775Y-14888027D01*
X11925556Y-14927701D01*
X11925560Y-14927701D01*
X11925561Y-14927702D01*
X12051228Y-14952700D01*
X12051231Y-14952700D01*
X12179371Y-14952700D01*
X12263915Y-14935882D01*
X12305044Y-14927701D01*
X12423427Y-14878665D01*
X12529969Y-14807476D01*
X12620576Y-14716869D01*
X12639086Y-14689165D01*
X12692696Y-14644362D01*
X12762021Y-14635653D01*
X12825049Y-14665807D01*
X12861769Y-14725249D01*
X12861961Y-14725956D01*
X12863522Y-14731781D01*
X12863526Y-14731790D01*
X12942575Y-14868709D01*
X12942579Y-14868714D01*
X12942580Y-14868716D01*
X13054384Y-14980520D01*
X13054386Y-14980521D01*
X13054390Y-14980524D01*
X13191309Y-15059573D01*
X13191316Y-15059577D01*
X13344043Y-15100500D01*
X13344045Y-15100500D01*
X13502155Y-15100500D01*
X13502157Y-15100500D01*
X13654884Y-15059577D01*
X13791816Y-14980520D01*
X13903620Y-14868716D01*
X13982677Y-14731784D01*
X14023600Y-14579057D01*
X14023600Y-14420943D01*
X13982677Y-14268216D01*
X13923868Y-14166355D01*
X13903624Y-14131290D01*
X13903618Y-14131282D01*
X13791817Y-14019481D01*
X13791809Y-14019475D01*
X13654890Y-13940426D01*
X13654886Y-13940424D01*
X13654884Y-13940423D01*
X13502157Y-13899500D01*
X13344043Y-13899500D01*
X13191316Y-13940423D01*
X13191309Y-13940426D01*
X13054390Y-14019475D01*
X13054382Y-14019481D01*
X12936833Y-14137031D01*
X12934384Y-14134582D01*
X12890685Y-14166355D01*
X12820930Y-14170368D01*
X12760080Y-14136032D01*
X12734413Y-14097034D01*
X12691766Y-13994075D01*
X12691761Y-13994066D01*
X12620576Y-13887531D01*
X12620573Y-13887527D01*
X12529972Y-13796926D01*
X12529968Y-13796923D01*
X12423433Y-13725738D01*
X12423424Y-13725733D01*
X12305044Y-13676699D01*
X12305038Y-13676697D01*
X12179371Y-13651700D01*
X12179369Y-13651700D01*
X12051231Y-13651700D01*
X12051229Y-13651700D01*
X11925561Y-13676697D01*
X11925555Y-13676699D01*
X11807175Y-13725733D01*
X11807166Y-13725738D01*
X11700631Y-13796923D01*
X11700627Y-13796926D01*
X11610026Y-13887527D01*
X11610023Y-13887531D01*
X11538838Y-13994066D01*
X11538833Y-13994075D01*
X11489799Y-14112455D01*
X11489797Y-14112461D01*
X11464800Y-14238128D01*
X11464800Y-14238131D01*
X11464800Y-14366269D01*
X11464800Y-14366271D01*
X11464799Y-14366271D01*
X10875707Y-14366271D01*
X10836565Y-14271773D01*
X10836562Y-14271768D01*
X10836561Y-14271766D01*
X10765376Y-14165231D01*
X10765373Y-14165227D01*
X10674772Y-14074626D01*
X10674768Y-14074623D01*
X10568233Y-14003438D01*
X10568224Y-14003433D01*
X10449844Y-13954399D01*
X10449838Y-13954397D01*
X10324171Y-13929400D01*
X10324169Y-13929400D01*
X10196031Y-13929400D01*
X10196029Y-13929400D01*
X10070361Y-13954397D01*
X10070355Y-13954399D01*
X9951975Y-14003433D01*
X9951966Y-14003438D01*
X9845431Y-14074623D01*
X9845427Y-14074626D01*
X9754826Y-14165227D01*
X9754823Y-14165231D01*
X9683638Y-14271766D01*
X9683633Y-14271775D01*
X9634599Y-14390155D01*
X9634597Y-14390161D01*
X9609600Y-14515828D01*
X9609600Y-14515831D01*
X9609600Y-14643969D01*
X9609600Y-14643971D01*
X9609599Y-14643971D01*
X500000Y-14643971D01*
X500000Y-13685595D01*
X6035399Y-13685595D01*
X6062318Y-13820922D01*
X6062321Y-13820932D01*
X6115121Y-13948404D01*
X6115128Y-13948417D01*
X6191785Y-14063141D01*
X6191788Y-14063145D01*
X6289354Y-14160711D01*
X6289358Y-14160714D01*
X6404082Y-14237371D01*
X6404095Y-14237378D01*
X6531567Y-14290178D01*
X6531572Y-14290180D01*
X6531576Y-14290180D01*
X6531577Y-14290181D01*
X6666904Y-14317100D01*
X6666907Y-14317100D01*
X6804895Y-14317100D01*
X6895941Y-14298989D01*
X6940228Y-14290180D01*
X7067711Y-14237375D01*
X7182442Y-14160714D01*
X7280014Y-14063142D01*
X7356675Y-13948411D01*
X7359983Y-13940426D01*
X7368640Y-13919524D01*
X7409480Y-13820928D01*
X7436400Y-13685593D01*
X7436400Y-13547607D01*
X7436400Y-13547604D01*
X7409481Y-13412277D01*
X7409480Y-13412276D01*
X7409480Y-13412272D01*
X7377110Y-13334123D01*
X7356678Y-13284795D01*
X7356671Y-13284782D01*
X7280014Y-13170058D01*
X7280011Y-13170054D01*
X7182445Y-13072488D01*
X7182441Y-13072485D01*
X7067717Y-12995828D01*
X7067704Y-12995821D01*
X6940232Y-12943021D01*
X6940222Y-12943018D01*
X6804895Y-12916100D01*
X6804893Y-12916100D01*
X6666907Y-12916100D01*
X6666905Y-12916100D01*
X6531577Y-12943018D01*
X6531567Y-12943021D01*
X6404095Y-12995821D01*
X6404082Y-12995828D01*
X6289358Y-13072485D01*
X6289354Y-13072488D01*
X6191788Y-13170054D01*
X6191785Y-13170058D01*
X6115128Y-13284782D01*
X6115121Y-13284795D01*
X6062321Y-13412267D01*
X6062318Y-13412277D01*
X6035400Y-13547604D01*
X6035400Y-13547607D01*
X6035400Y-13685593D01*
X6035400Y-13685595D01*
X6035399Y-13685595D01*
X500000Y-13685595D01*
X500000Y-12455143D01*
X11909200Y-12455143D01*
X11909200Y-12613257D01*
X11919418Y-12651389D01*
X11950123Y-12765983D01*
X11950126Y-12765990D01*
X12029175Y-12902909D01*
X12029179Y-12902914D01*
X12029180Y-12902916D01*
X12140984Y-13014720D01*
X12140986Y-13014721D01*
X12140990Y-13014724D01*
X12241042Y-13072488D01*
X12277916Y-13093777D01*
X12430643Y-13134700D01*
X12430645Y-13134700D01*
X12588755Y-13134700D01*
X12588757Y-13134700D01*
X12741484Y-13093777D01*
X12878416Y-13014720D01*
X12990220Y-12902916D01*
X13069277Y-12765984D01*
X13110200Y-12613257D01*
X13110200Y-12455143D01*
X13069277Y-12302416D01*
X13002915Y-12187472D01*
X12990224Y-12165490D01*
X12990218Y-12165482D01*
X12878417Y-12053681D01*
X12878409Y-12053675D01*
X12741490Y-11974626D01*
X12741486Y-11974624D01*
X12741484Y-11974623D01*
X12588757Y-11933700D01*
X12430643Y-11933700D01*
X12277916Y-11974623D01*
X12277909Y-11974626D01*
X12140990Y-12053675D01*
X12140982Y-12053681D01*
X12029181Y-12165482D01*
X12029175Y-12165490D01*
X11950126Y-12302409D01*
X11950123Y-12302416D01*
X11909200Y-12455143D01*
X500000Y-12455143D01*
X500000Y-11211171D01*
X10226999Y-11211171D01*
X10251997Y-11336838D01*
X10251999Y-11336844D01*
X10301033Y-11455224D01*
X10301038Y-11455233D01*
X10372223Y-11561768D01*
X10372226Y-11561772D01*
X10462827Y-11652373D01*
X10462831Y-11652376D01*
X10569366Y-11723561D01*
X10569372Y-11723564D01*
X10569373Y-11723565D01*
X10687756Y-11772601D01*
X10687760Y-11772601D01*
X10687761Y-11772602D01*
X10813428Y-11797600D01*
X10813431Y-11797600D01*
X10941571Y-11797600D01*
X11026115Y-11780782D01*
X11067244Y-11772601D01*
X11185627Y-11723565D01*
X11292169Y-11652376D01*
X11382776Y-11561769D01*
X11453965Y-11455227D01*
X11503001Y-11336844D01*
X11522290Y-11239876D01*
X11528000Y-11211171D01*
X11528000Y-11083028D01*
X11503002Y-10957361D01*
X11503001Y-10957360D01*
X11503001Y-10957356D01*
X11453965Y-10838973D01*
X11453964Y-10838972D01*
X11453961Y-10838966D01*
X11427037Y-10798671D01*
X12644499Y-10798671D01*
X12669497Y-10924338D01*
X12669499Y-10924344D01*
X12718533Y-11042724D01*
X12718538Y-11042733D01*
X12789723Y-11149268D01*
X12789726Y-11149272D01*
X12880327Y-11239873D01*
X12880331Y-11239876D01*
X12986866Y-11311061D01*
X12986872Y-11311064D01*
X12986873Y-11311065D01*
X13105256Y-11360101D01*
X13105260Y-11360101D01*
X13105261Y-11360102D01*
X13230928Y-11385100D01*
X13230931Y-11385100D01*
X13359071Y-11385100D01*
X13443615Y-11368282D01*
X13484744Y-11360101D01*
X13603127Y-11311065D01*
X13709669Y-11239876D01*
X13800276Y-11149269D01*
X13871465Y-11042727D01*
X13920501Y-10924344D01*
X13928682Y-10883215D01*
X13945500Y-10798671D01*
X13945500Y-10672671D01*
X15085099Y-10672671D01*
X15110097Y-10798338D01*
X15110099Y-10798344D01*
X15159133Y-10916724D01*
X15159138Y-10916733D01*
X15230323Y-11023268D01*
X15230326Y-11023272D01*
X15320927Y-11113873D01*
X15320931Y-11113876D01*
X15427466Y-11185061D01*
X15427472Y-11185064D01*
X15427473Y-11185065D01*
X15545856Y-11234101D01*
X15545860Y-11234101D01*
X15545861Y-11234102D01*
X15671528Y-11259100D01*
X15671531Y-11259100D01*
X15799671Y-11259100D01*
X15896327Y-11239873D01*
X15925344Y-11234101D01*
X16043727Y-11185065D01*
X16150269Y-11113876D01*
X16240876Y-11023269D01*
X16312065Y-10916727D01*
X16361101Y-10798344D01*
X16369282Y-10757215D01*
X16386100Y-10672671D01*
X16386100Y-10538439D01*
X16388514Y-10538439D01*
X16399547Y-10480256D01*
X16447610Y-10429544D01*
X16474899Y-10419246D01*
X16474512Y-10417970D01*
X16480334Y-10416202D01*
X16480344Y-10416201D01*
X16598727Y-10367165D01*
X16705269Y-10295976D01*
X16795876Y-10205369D01*
X16824615Y-10162358D01*
X19250000Y-10162358D01*
X19250000Y-10437641D01*
X19285930Y-10710565D01*
X19357180Y-10976471D01*
X19462520Y-11230787D01*
X19462527Y-11230802D01*
X19600166Y-11469200D01*
X19729459Y-11637697D01*
X20659941Y-10707216D01*
X20728599Y-10809970D01*
X20840030Y-10921401D01*
X20942783Y-10990058D01*
X20012301Y-11920539D01*
X20180803Y-12049836D01*
X20419197Y-12187472D01*
X20419212Y-12187479D01*
X20641581Y-12279586D01*
X20695985Y-12323426D01*
X20718050Y-12389720D01*
X20700771Y-12457420D01*
X20649634Y-12505031D01*
X20641583Y-12508708D01*
X20574113Y-12536655D01*
X20574109Y-12536657D01*
X20375382Y-12651392D01*
X20193338Y-12791081D01*
X20031081Y-12953338D01*
X19891392Y-13135382D01*
X19776657Y-13334109D01*
X19776650Y-13334123D01*
X19688842Y-13546112D01*
X19629453Y-13767759D01*
X19629451Y-13767770D01*
X19599500Y-13995258D01*
X19599500Y-14224741D01*
X19621279Y-14390161D01*
X19629452Y-14452238D01*
X19663433Y-14579057D01*
X19688842Y-14673887D01*
X19776650Y-14885876D01*
X19776657Y-14885890D01*
X19891392Y-15084617D01*
X20031081Y-15266661D01*
X20031089Y-15266670D01*
X20193330Y-15428911D01*
X20193338Y-15428918D01*
X20375382Y-15568607D01*
X20375385Y-15568608D01*
X20375388Y-15568611D01*
X20574112Y-15683344D01*
X20574117Y-15683346D01*
X20574123Y-15683349D01*
X20688774Y-15730839D01*
X20784127Y-15770335D01*
X20838531Y-15814176D01*
X20860596Y-15880470D01*
X20843317Y-15948169D01*
X20792180Y-15995780D01*
X20768769Y-16004670D01*
X20705581Y-16021602D01*
X20705579Y-16021602D01*
X20705578Y-16021603D01*
X20705571Y-16021605D01*
X20463309Y-16121953D01*
X20463299Y-16121958D01*
X20236196Y-16253075D01*
X20028148Y-16412718D01*
X19842718Y-16598148D01*
X19683075Y-16806196D01*
X19551958Y-17033299D01*
X19551953Y-17033309D01*
X19451605Y-17275571D01*
X19451602Y-17275581D01*
X19399413Y-17470356D01*
X19383730Y-17528885D01*
X19349500Y-17788872D01*
X19349500Y-18051127D01*
X19372578Y-18226412D01*
X19383730Y-18311116D01*
X19425033Y-18465261D01*
X19451602Y-18564418D01*
X19451605Y-18564428D01*
X19551953Y-18806690D01*
X19551958Y-18806700D01*
X19683075Y-19033803D01*
X19842718Y-19241851D01*
X19842726Y-19241860D01*
X20028140Y-19427274D01*
X20028148Y-19427281D01*
X20236196Y-19586924D01*
X20463299Y-19718041D01*
X20463309Y-19718046D01*
X20606936Y-19777538D01*
X20705581Y-19818398D01*
X20958884Y-19886270D01*
X21218880Y-19920500D01*
X21218887Y-19920500D01*
X21481113Y-19920500D01*
X21481120Y-19920500D01*
X21741116Y-19886270D01*
X21994419Y-19818398D01*
X22190390Y-19737224D01*
X22236690Y-19718046D01*
X22236691Y-19718045D01*
X22236697Y-19718043D01*
X22463803Y-19586924D01*
X22671851Y-19427282D01*
X22671855Y-19427277D01*
X22671860Y-19427274D01*
X22857274Y-19241860D01*
X22857277Y-19241855D01*
X22857282Y-19241851D01*
X23016924Y-19033803D01*
X23148043Y-18806697D01*
X23248398Y-18564419D01*
X23316270Y-18311116D01*
X23350500Y-18051120D01*
X23350500Y-17816530D01*
X28559500Y-17816530D01*
X28559500Y-18023469D01*
X28599868Y-18226412D01*
X28599870Y-18226420D01*
X28679058Y-18417596D01*
X28794024Y-18589657D01*
X28940342Y-18735975D01*
X28940345Y-18735977D01*
X29112402Y-18850941D01*
X29303580Y-18930130D01*
X29506530Y-18970499D01*
X29506534Y-18970500D01*
X29506535Y-18970500D01*
X29713466Y-18970500D01*
X29713467Y-18970499D01*
X29916420Y-18930130D01*
X30107598Y-18850941D01*
X30279655Y-18735977D01*
X30425977Y-18589655D01*
X30540941Y-18417598D01*
X30620130Y-18226420D01*
X30660500Y-18023465D01*
X30660500Y-17816535D01*
X30620130Y-17613580D01*
X30540941Y-17422402D01*
X30425977Y-17250345D01*
X30425975Y-17250342D01*
X30279657Y-17104024D01*
X30157769Y-17022582D01*
X30107598Y-16989059D01*
X29916420Y-16909870D01*
X29916412Y-16909868D01*
X29713469Y-16869500D01*
X29713465Y-16869500D01*
X29506535Y-16869500D01*
X29506530Y-16869500D01*
X29303587Y-16909868D01*
X29303579Y-16909870D01*
X29112403Y-16989058D01*
X28940342Y-17104024D01*
X28794024Y-17250342D01*
X28679058Y-17422403D01*
X28599870Y-17613579D01*
X28599868Y-17613587D01*
X28559500Y-17816530D01*
X23350500Y-17816530D01*
X23350500Y-17788880D01*
X23316270Y-17528884D01*
X23248398Y-17275581D01*
X23237944Y-17250342D01*
X23148046Y-17033309D01*
X23148041Y-17033299D01*
X23016924Y-16806196D01*
X22857281Y-16598148D01*
X22857274Y-16598140D01*
X22671860Y-16412726D01*
X22671851Y-16412718D01*
X22463803Y-16253075D01*
X22236700Y-16121958D01*
X22236690Y-16121953D01*
X21994428Y-16021605D01*
X21994421Y-16021603D01*
X21994422Y-16021603D01*
X21994419Y-16021602D01*
X21931228Y-16004670D01*
X21871570Y-15968306D01*
X21841041Y-15905459D01*
X21849336Y-15836083D01*
X21893821Y-15782205D01*
X21915865Y-15770338D01*
X22125888Y-15683344D01*
X22324612Y-15568611D01*
X22506661Y-15428919D01*
X22506665Y-15428914D01*
X22506670Y-15428911D01*
X22668911Y-15266670D01*
X22668914Y-15266665D01*
X22668919Y-15266661D01*
X22808611Y-15084612D01*
X22923344Y-14885888D01*
X23011158Y-14673887D01*
X23070548Y-14452238D01*
X23100500Y-14224734D01*
X23100500Y-13995266D01*
X23100499Y-13995258D01*
X23414500Y-13995258D01*
X23414500Y-14224741D01*
X23436279Y-14390161D01*
X23444452Y-14452238D01*
X23478433Y-14579057D01*
X23503842Y-14673887D01*
X23591650Y-14885876D01*
X23591657Y-14885890D01*
X23706392Y-15084617D01*
X23846081Y-15266661D01*
X23846089Y-15266670D01*
X24008330Y-15428911D01*
X24008338Y-15428918D01*
X24190382Y-15568607D01*
X24190385Y-15568608D01*
X24190388Y-15568611D01*
X24389112Y-15683344D01*
X24389117Y-15683346D01*
X24389123Y-15683349D01*
X24480480Y-15721190D01*
X24601113Y-15771158D01*
X24822762Y-15830548D01*
X25050266Y-15860500D01*
X25050273Y-15860500D01*
X25279727Y-15860500D01*
X25279734Y-15860500D01*
X25507238Y-15830548D01*
X25728887Y-15771158D01*
X25940888Y-15683344D01*
X26139612Y-15568611D01*
X26321661Y-15428919D01*
X26321665Y-15428914D01*
X26321670Y-15428911D01*
X26483911Y-15266670D01*
X26483914Y-15266665D01*
X26483919Y-15266661D01*
X26623611Y-15084612D01*
X26738344Y-14885888D01*
X26826158Y-14673887D01*
X26885548Y-14452238D01*
X26915500Y-14224734D01*
X26915500Y-13995266D01*
X26885548Y-13767762D01*
X26826158Y-13546113D01*
X26738344Y-13334112D01*
X26623611Y-13135388D01*
X26623608Y-13135385D01*
X26623607Y-13135382D01*
X26483918Y-12953338D01*
X26483911Y-12953330D01*
X26321670Y-12791089D01*
X26321661Y-12791081D01*
X26139617Y-12651392D01*
X26073563Y-12613256D01*
X25940888Y-12536656D01*
X25940886Y-12536655D01*
X25940876Y-12536650D01*
X25728887Y-12448842D01*
X25507238Y-12389452D01*
X25469215Y-12384446D01*
X25279741Y-12359500D01*
X25279734Y-12359500D01*
X25050266Y-12359500D01*
X25050258Y-12359500D01*
X24833715Y-12388009D01*
X24822762Y-12389452D01*
X24729076Y-12414554D01*
X24601112Y-12448842D01*
X24389123Y-12536650D01*
X24389109Y-12536657D01*
X24190382Y-12651392D01*
X24008338Y-12791081D01*
X23846081Y-12953338D01*
X23706392Y-13135382D01*
X23591657Y-13334109D01*
X23591650Y-13334123D01*
X23503842Y-13546112D01*
X23444453Y-13767759D01*
X23444451Y-13767770D01*
X23414500Y-13995258D01*
X23100499Y-13995258D01*
X23070548Y-13767762D01*
X23011158Y-13546113D01*
X22923344Y-13334112D01*
X22808611Y-13135388D01*
X22808608Y-13135385D01*
X22808607Y-13135382D01*
X22668918Y-12953338D01*
X22668911Y-12953330D01*
X22506670Y-12791089D01*
X22506661Y-12791081D01*
X22324617Y-12651392D01*
X22258563Y-12613256D01*
X22125888Y-12536656D01*
X22125886Y-12536655D01*
X22125881Y-12536652D01*
X22058417Y-12508708D01*
X22004014Y-12464867D01*
X21981949Y-12398572D01*
X21999228Y-12330873D01*
X22050366Y-12283263D01*
X22058418Y-12279586D01*
X22280787Y-12187479D01*
X22280802Y-12187472D01*
X22519195Y-12049836D01*
X22687697Y-11920539D01*
X21757216Y-10990058D01*
X21859970Y-10921401D01*
X21971401Y-10809970D01*
X22040058Y-10707216D01*
X22970539Y-11637697D01*
X23099836Y-11469195D01*
X23237472Y-11230802D01*
X23237479Y-11230787D01*
X23342819Y-10976471D01*
X23414069Y-10710565D01*
X23450000Y-10437641D01*
X23450000Y-10196530D01*
X33639500Y-10196530D01*
X33639500Y-10403469D01*
X33679868Y-10606412D01*
X33679870Y-10606420D01*
X33723008Y-10710565D01*
X33759059Y-10797598D01*
X33759775Y-10798669D01*
X33874024Y-10969657D01*
X34020342Y-11115975D01*
X34020345Y-11115977D01*
X34192402Y-11230941D01*
X34383580Y-11310130D01*
X34586530Y-11350499D01*
X34586534Y-11350500D01*
X34586535Y-11350500D01*
X34793466Y-11350500D01*
X34793467Y-11350499D01*
X34996420Y-11310130D01*
X35187598Y-11230941D01*
X35359655Y-11115977D01*
X35505977Y-10969655D01*
X35620941Y-10797598D01*
X35700130Y-10606420D01*
X35740500Y-10403465D01*
X35740500Y-10196535D01*
X35700130Y-9993580D01*
X35620941Y-9802402D01*
X35505977Y-9630345D01*
X35505975Y-9630342D01*
X35359657Y-9484024D01*
X35198026Y-9376027D01*
X35187598Y-9369059D01*
X35077049Y-9323268D01*
X34996420Y-9289870D01*
X34996412Y-9289868D01*
X34793469Y-9249500D01*
X34793465Y-9249500D01*
X34586535Y-9249500D01*
X34586530Y-9249500D01*
X34383587Y-9289868D01*
X34383579Y-9289870D01*
X34192403Y-9369058D01*
X34020342Y-9484024D01*
X33874024Y-9630342D01*
X33759058Y-9802403D01*
X33679870Y-9993579D01*
X33679868Y-9993587D01*
X33639500Y-10196530D01*
X23450000Y-10196530D01*
X23450000Y-10162358D01*
X23414069Y-9889434D01*
X23342819Y-9623528D01*
X23237479Y-9369212D01*
X23237472Y-9369197D01*
X23099836Y-9130803D01*
X22970539Y-8962301D01*
X22040058Y-9892782D01*
X21971401Y-9790030D01*
X21859970Y-9678599D01*
X21757216Y-9609941D01*
X22687697Y-8679459D01*
X22687697Y-8679458D01*
X22519200Y-8550166D01*
X22280802Y-8412527D01*
X22280787Y-8412520D01*
X22026471Y-8307180D01*
X21760565Y-8235930D01*
X21487642Y-8200000D01*
X21212358Y-8200000D01*
X20939434Y-8235930D01*
X20673528Y-8307180D01*
X20419212Y-8412520D01*
X20419197Y-8412527D01*
X20180799Y-8550166D01*
X20012301Y-8679458D01*
X20012301Y-8679459D01*
X20942783Y-9609941D01*
X20840030Y-9678599D01*
X20728599Y-9790030D01*
X20659941Y-9892783D01*
X19729459Y-8962301D01*
X19729458Y-8962301D01*
X19600166Y-9130799D01*
X19462527Y-9369197D01*
X19462520Y-9369212D01*
X19357180Y-9623528D01*
X19285930Y-9889434D01*
X19250000Y-10162358D01*
X16824615Y-10162358D01*
X16867065Y-10098827D01*
X16916101Y-9980444D01*
X16934205Y-9889434D01*
X16941100Y-9854771D01*
X16941100Y-9726628D01*
X16916102Y-9600961D01*
X16916101Y-9600960D01*
X16916101Y-9600956D01*
X16867065Y-9482573D01*
X16867064Y-9482572D01*
X16867061Y-9482566D01*
X16795876Y-9376031D01*
X16795873Y-9376027D01*
X16705272Y-9285426D01*
X16705268Y-9285423D01*
X16598733Y-9214238D01*
X16598724Y-9214233D01*
X16480344Y-9165199D01*
X16480338Y-9165197D01*
X16354671Y-9140200D01*
X16354669Y-9140200D01*
X16226531Y-9140200D01*
X16226529Y-9140200D01*
X16100861Y-9165197D01*
X16100855Y-9165199D01*
X15982475Y-9214233D01*
X15982466Y-9214238D01*
X15875931Y-9285423D01*
X15875927Y-9285426D01*
X15785326Y-9376027D01*
X15785323Y-9376031D01*
X15714138Y-9482566D01*
X15714133Y-9482575D01*
X15665099Y-9600955D01*
X15665097Y-9600961D01*
X15640100Y-9726628D01*
X15640100Y-9860861D01*
X15637697Y-9860861D01*
X15626622Y-9919101D01*
X15578532Y-9969788D01*
X15551310Y-9980077D01*
X15551690Y-9981329D01*
X15545857Y-9983098D01*
X15427475Y-10032133D01*
X15427466Y-10032138D01*
X15320931Y-10103323D01*
X15320927Y-10103326D01*
X15230326Y-10193927D01*
X15230323Y-10193931D01*
X15159138Y-10300466D01*
X15159133Y-10300475D01*
X15110099Y-10418855D01*
X15110097Y-10418861D01*
X15085100Y-10544528D01*
X15085100Y-10544531D01*
X15085100Y-10672669D01*
X15085100Y-10672671D01*
X15085099Y-10672671D01*
X13945500Y-10672671D01*
X13945500Y-10670528D01*
X13924037Y-10562631D01*
X13924037Y-10562630D01*
X13920502Y-10544863D01*
X13920502Y-10544861D01*
X13920501Y-10544856D01*
X13871465Y-10426473D01*
X13871464Y-10426472D01*
X13871461Y-10426466D01*
X13800276Y-10319931D01*
X13800273Y-10319927D01*
X13709672Y-10229326D01*
X13709668Y-10229323D01*
X13603133Y-10158138D01*
X13603124Y-10158133D01*
X13484744Y-10109099D01*
X13484738Y-10109097D01*
X13359071Y-10084100D01*
X13359069Y-10084100D01*
X13230931Y-10084100D01*
X13230929Y-10084100D01*
X13105261Y-10109097D01*
X13105255Y-10109099D01*
X12986875Y-10158133D01*
X12986866Y-10158138D01*
X12880331Y-10229323D01*
X12880327Y-10229326D01*
X12789726Y-10319927D01*
X12789723Y-10319931D01*
X12718538Y-10426466D01*
X12718533Y-10426475D01*
X12669499Y-10544855D01*
X12669497Y-10544861D01*
X12644500Y-10670528D01*
X12644500Y-10670531D01*
X12644500Y-10798669D01*
X12644500Y-10798671D01*
X12644499Y-10798671D01*
X11427037Y-10798671D01*
X11383377Y-10733330D01*
X11382776Y-10732430D01*
X11292172Y-10641826D01*
X11292168Y-10641823D01*
X11185633Y-10570638D01*
X11185624Y-10570633D01*
X11067244Y-10521599D01*
X11067238Y-10521597D01*
X10941571Y-10496600D01*
X10941569Y-10496600D01*
X10813431Y-10496600D01*
X10813429Y-10496600D01*
X10687761Y-10521597D01*
X10687755Y-10521599D01*
X10569375Y-10570633D01*
X10569366Y-10570638D01*
X10462831Y-10641823D01*
X10462827Y-10641826D01*
X10372226Y-10732427D01*
X10372223Y-10732431D01*
X10301038Y-10838966D01*
X10301033Y-10838975D01*
X10251999Y-10957355D01*
X10251997Y-10957361D01*
X10227000Y-11083028D01*
X10227000Y-11083031D01*
X10227000Y-11211169D01*
X10227000Y-11211171D01*
X10226999Y-11211171D01*
X500000Y-11211171D01*
X500000Y-8725071D01*
X11818899Y-8725071D01*
X11843897Y-8850738D01*
X11843899Y-8850744D01*
X11892933Y-8969124D01*
X11892938Y-8969133D01*
X11964123Y-9075668D01*
X11964126Y-9075672D01*
X12054727Y-9166273D01*
X12054731Y-9166276D01*
X12161266Y-9237461D01*
X12161272Y-9237464D01*
X12161273Y-9237465D01*
X12279656Y-9286501D01*
X12279660Y-9286501D01*
X12279661Y-9286502D01*
X12405328Y-9311500D01*
X12405331Y-9311500D01*
X12533471Y-9311500D01*
X12642217Y-9289868D01*
X12659144Y-9286501D01*
X12777527Y-9237465D01*
X12884069Y-9166276D01*
X12974676Y-9075669D01*
X13010959Y-9021368D01*
X13064571Y-8976563D01*
X13133896Y-8967856D01*
X13196923Y-8998010D01*
X13233643Y-9057453D01*
X13235678Y-9066067D01*
X13242097Y-9098338D01*
X13242099Y-9098344D01*
X13291133Y-9216724D01*
X13291138Y-9216733D01*
X13362323Y-9323268D01*
X13362326Y-9323272D01*
X13452927Y-9413873D01*
X13452931Y-9413876D01*
X13559466Y-9485061D01*
X13559472Y-9485064D01*
X13559473Y-9485065D01*
X13677856Y-9534101D01*
X13677860Y-9534101D01*
X13677861Y-9534102D01*
X13803528Y-9559100D01*
X13803531Y-9559100D01*
X13931671Y-9559100D01*
X14016215Y-9542282D01*
X14057344Y-9534101D01*
X14175727Y-9485065D01*
X14282269Y-9413876D01*
X14372876Y-9323269D01*
X14444065Y-9216727D01*
X14493101Y-9098344D01*
X14508413Y-9021368D01*
X14518100Y-8972671D01*
X14518100Y-8844528D01*
X14518099Y-8844526D01*
X14499616Y-8751603D01*
X14493102Y-8718860D01*
X14493101Y-8718858D01*
X14493101Y-8718856D01*
X14444065Y-8600473D01*
X14444064Y-8600472D01*
X14444061Y-8600466D01*
X14372876Y-8493931D01*
X14372873Y-8493927D01*
X14282272Y-8403326D01*
X14282268Y-8403323D01*
X14175733Y-8332138D01*
X14175724Y-8332133D01*
X14057344Y-8283099D01*
X14057338Y-8283097D01*
X13931671Y-8258100D01*
X13931669Y-8258100D01*
X13803531Y-8258100D01*
X13803529Y-8258100D01*
X13677861Y-8283097D01*
X13677855Y-8283099D01*
X13559475Y-8332133D01*
X13559466Y-8332138D01*
X13452931Y-8403323D01*
X13452927Y-8403326D01*
X13362324Y-8493929D01*
X13326039Y-8548233D01*
X13272426Y-8593037D01*
X13203101Y-8601743D01*
X13140074Y-8571587D01*
X13103356Y-8512143D01*
X13101325Y-8503553D01*
X13094901Y-8471256D01*
X13045865Y-8352873D01*
X13045864Y-8352872D01*
X13045861Y-8352866D01*
X12974676Y-8246331D01*
X12974673Y-8246327D01*
X12884072Y-8155726D01*
X12884068Y-8155723D01*
X12777533Y-8084538D01*
X12777524Y-8084533D01*
X12659144Y-8035499D01*
X12659138Y-8035497D01*
X12533471Y-8010500D01*
X12533469Y-8010500D01*
X12405331Y-8010500D01*
X12405329Y-8010500D01*
X12279661Y-8035497D01*
X12279655Y-8035499D01*
X12161275Y-8084533D01*
X12161266Y-8084538D01*
X12054731Y-8155723D01*
X12054727Y-8155726D01*
X11964126Y-8246327D01*
X11964123Y-8246331D01*
X11892938Y-8352866D01*
X11892933Y-8352875D01*
X11843899Y-8471255D01*
X11843897Y-8471261D01*
X11818900Y-8596928D01*
X11818900Y-8596931D01*
X11818900Y-8725069D01*
X11818900Y-8725071D01*
X11818899Y-8725071D01*
X500000Y-8725071D01*
X500000Y-7133795D01*
X2319499Y-7133795D01*
X2346418Y-7269122D01*
X2346421Y-7269132D01*
X2399221Y-7396604D01*
X2399228Y-7396617D01*
X2475885Y-7511341D01*
X2475888Y-7511345D01*
X2573454Y-7608911D01*
X2573458Y-7608914D01*
X2688182Y-7685571D01*
X2688195Y-7685578D01*
X2815667Y-7738378D01*
X2815672Y-7738380D01*
X2815676Y-7738380D01*
X2815677Y-7738381D01*
X2951004Y-7765300D01*
X2951007Y-7765300D01*
X3088995Y-7765300D01*
X3180041Y-7747189D01*
X3224328Y-7738380D01*
X3351811Y-7685575D01*
X3466542Y-7608914D01*
X3564114Y-7511342D01*
X3640775Y-7396611D01*
X3693580Y-7269128D01*
X3711524Y-7178918D01*
X3720500Y-7133795D01*
X3720500Y-6998871D01*
X10087399Y-6998871D01*
X10112397Y-7124538D01*
X10112399Y-7124544D01*
X10161433Y-7242924D01*
X10161438Y-7242933D01*
X10232623Y-7349468D01*
X10232626Y-7349472D01*
X10323227Y-7440073D01*
X10323231Y-7440076D01*
X10429766Y-7511261D01*
X10429775Y-7511266D01*
X10429966Y-7511345D01*
X10548156Y-7560301D01*
X10548160Y-7560301D01*
X10548161Y-7560302D01*
X10673828Y-7585300D01*
X10673831Y-7585300D01*
X10801971Y-7585300D01*
X10886515Y-7568482D01*
X10927644Y-7560301D01*
X11046027Y-7511265D01*
X11152569Y-7440076D01*
X11243176Y-7349469D01*
X11314365Y-7242927D01*
X11363401Y-7124544D01*
X11388400Y-6998869D01*
X11388400Y-6870731D01*
X11388400Y-6870728D01*
X11363402Y-6745061D01*
X11363401Y-6745060D01*
X11363401Y-6745056D01*
X11314365Y-6626673D01*
X11314364Y-6626672D01*
X11314361Y-6626666D01*
X11243176Y-6520131D01*
X11243173Y-6520127D01*
X11152572Y-6429526D01*
X11152568Y-6429523D01*
X11046033Y-6358338D01*
X11046024Y-6358333D01*
X10927644Y-6309299D01*
X10927638Y-6309297D01*
X10801971Y-6284300D01*
X10801969Y-6284300D01*
X10673831Y-6284300D01*
X10673829Y-6284300D01*
X10548161Y-6309297D01*
X10548155Y-6309299D01*
X10429775Y-6358333D01*
X10429766Y-6358338D01*
X10323231Y-6429523D01*
X10323227Y-6429526D01*
X10232626Y-6520127D01*
X10232623Y-6520131D01*
X10161438Y-6626666D01*
X10161433Y-6626675D01*
X10112399Y-6745055D01*
X10112397Y-6745061D01*
X10087400Y-6870728D01*
X10087400Y-6870731D01*
X10087400Y-6998869D01*
X10087400Y-6998871D01*
X10087399Y-6998871D01*
X3720500Y-6998871D01*
X3720500Y-6995804D01*
X3699221Y-6888831D01*
X3699220Y-6888830D01*
X3693580Y-6860472D01*
X3682871Y-6834617D01*
X3640778Y-6732995D01*
X3640771Y-6732982D01*
X3564114Y-6618258D01*
X3564111Y-6618254D01*
X3466545Y-6520688D01*
X3466541Y-6520685D01*
X3351817Y-6444028D01*
X3351804Y-6444021D01*
X3224332Y-6391221D01*
X3224322Y-6391218D01*
X3088995Y-6364300D01*
X3088993Y-6364300D01*
X2951007Y-6364300D01*
X2951005Y-6364300D01*
X2815677Y-6391218D01*
X2815667Y-6391221D01*
X2688195Y-6444021D01*
X2688182Y-6444028D01*
X2573458Y-6520685D01*
X2573454Y-6520688D01*
X2475888Y-6618254D01*
X2475885Y-6618258D01*
X2399228Y-6732982D01*
X2399221Y-6732995D01*
X2346421Y-6860467D01*
X2346418Y-6860477D01*
X2319500Y-6995804D01*
X2319500Y-6995807D01*
X2319500Y-7133793D01*
X2319500Y-7133795D01*
X2319499Y-7133795D01*
X500000Y-7133795D01*
X500000Y-4913371D01*
X3163999Y-4913371D01*
X3188997Y-5039038D01*
X3188999Y-5039044D01*
X3238033Y-5157424D01*
X3238038Y-5157433D01*
X3309223Y-5263968D01*
X3309226Y-5263972D01*
X3399827Y-5354573D01*
X3399831Y-5354576D01*
X3506366Y-5425761D01*
X3506372Y-5425764D01*
X3506373Y-5425765D01*
X3624756Y-5474801D01*
X3624760Y-5474801D01*
X3624761Y-5474802D01*
X3750428Y-5499800D01*
X3750431Y-5499800D01*
X3878571Y-5499800D01*
X3963115Y-5482982D01*
X4004244Y-5474801D01*
X4122627Y-5425765D01*
X4149407Y-5407871D01*
X10522099Y-5407871D01*
X10547097Y-5533538D01*
X10547099Y-5533544D01*
X10596133Y-5651924D01*
X10596138Y-5651933D01*
X10667323Y-5758468D01*
X10667326Y-5758472D01*
X10757927Y-5849073D01*
X10757931Y-5849076D01*
X10864466Y-5920261D01*
X10864472Y-5920264D01*
X10864473Y-5920265D01*
X10982856Y-5969301D01*
X10982860Y-5969301D01*
X10982861Y-5969302D01*
X11108528Y-5994300D01*
X11108531Y-5994300D01*
X11236671Y-5994300D01*
X11335066Y-5974727D01*
X11362344Y-5969301D01*
X11480727Y-5920265D01*
X11587269Y-5849076D01*
X11677876Y-5758469D01*
X11686703Y-5745258D01*
X29769500Y-5745258D01*
X29769500Y-5974741D01*
X29794446Y-6164215D01*
X29799452Y-6202238D01*
X29850089Y-6391220D01*
X29858842Y-6423887D01*
X29946650Y-6635876D01*
X29946657Y-6635890D01*
X30061392Y-6834617D01*
X30201081Y-7016661D01*
X30201089Y-7016670D01*
X30363330Y-7178911D01*
X30363338Y-7178918D01*
X30545382Y-7318607D01*
X30545385Y-7318608D01*
X30545388Y-7318611D01*
X30744112Y-7433344D01*
X30744117Y-7433346D01*
X30744123Y-7433349D01*
X30760364Y-7440076D01*
X30956113Y-7521158D01*
X31177762Y-7580548D01*
X31405266Y-7610500D01*
X31405273Y-7610500D01*
X31634727Y-7610500D01*
X31634734Y-7610500D01*
X31862238Y-7580548D01*
X32083887Y-7521158D01*
X32295888Y-7433344D01*
X32494612Y-7318611D01*
X32676661Y-7178919D01*
X32676665Y-7178914D01*
X32676670Y-7178911D01*
X32838911Y-7016670D01*
X32838914Y-7016665D01*
X32838919Y-7016661D01*
X32978611Y-6834612D01*
X33093344Y-6635888D01*
X33181158Y-6423887D01*
X33240548Y-6202238D01*
X33270500Y-5974734D01*
X33270500Y-5745266D01*
X33240548Y-5517762D01*
X33181158Y-5296113D01*
X33122316Y-5154056D01*
X33093349Y-5084123D01*
X33093346Y-5084117D01*
X33093344Y-5084112D01*
X32978611Y-4885388D01*
X32978608Y-4885385D01*
X32978607Y-4885382D01*
X32838918Y-4703338D01*
X32838911Y-4703330D01*
X32676670Y-4541089D01*
X32676661Y-4541081D01*
X32494617Y-4401392D01*
X32295890Y-4286657D01*
X32295876Y-4286650D01*
X32083887Y-4198842D01*
X32083730Y-4198800D01*
X31862238Y-4139452D01*
X31824215Y-4134446D01*
X31634741Y-4109500D01*
X31634734Y-4109500D01*
X31405266Y-4109500D01*
X31405258Y-4109500D01*
X31188715Y-4138009D01*
X31177762Y-4139452D01*
X31149529Y-4147017D01*
X30956112Y-4198842D01*
X30744123Y-4286650D01*
X30744109Y-4286657D01*
X30545382Y-4401392D01*
X30363338Y-4541081D01*
X30201081Y-4703338D01*
X30061392Y-4885382D01*
X29946657Y-5084109D01*
X29946650Y-5084123D01*
X29858842Y-5296112D01*
X29799453Y-5517759D01*
X29799451Y-5517770D01*
X29769500Y-5745258D01*
X11686703Y-5745258D01*
X11749065Y-5651927D01*
X11798101Y-5533544D01*
X11823100Y-5407869D01*
X11823100Y-5279731D01*
X11823100Y-5279728D01*
X11798102Y-5154061D01*
X11798101Y-5154060D01*
X11798101Y-5154056D01*
X11749065Y-5035673D01*
X11749064Y-5035672D01*
X11749061Y-5035666D01*
X11677876Y-4929131D01*
X11677873Y-4929127D01*
X11587272Y-4838526D01*
X11587268Y-4838523D01*
X11480733Y-4767338D01*
X11480724Y-4767333D01*
X11362344Y-4718299D01*
X11362338Y-4718297D01*
X11236671Y-4693300D01*
X11236669Y-4693300D01*
X11108531Y-4693300D01*
X11108529Y-4693300D01*
X10982861Y-4718297D01*
X10982855Y-4718299D01*
X10864475Y-4767333D01*
X10864466Y-4767338D01*
X10757931Y-4838523D01*
X10757927Y-4838526D01*
X10667326Y-4929127D01*
X10667323Y-4929131D01*
X10596138Y-5035666D01*
X10596133Y-5035675D01*
X10547099Y-5154055D01*
X10547097Y-5154061D01*
X10522100Y-5279728D01*
X10522100Y-5279731D01*
X10522100Y-5407869D01*
X10522100Y-5407871D01*
X10522099Y-5407871D01*
X4149407Y-5407871D01*
X4229169Y-5354576D01*
X4319776Y-5263969D01*
X4390965Y-5157427D01*
X4440001Y-5039044D01*
X4461865Y-4929131D01*
X4465000Y-4913371D01*
X4465000Y-4785228D01*
X4440002Y-4659561D01*
X4440001Y-4659560D01*
X4440001Y-4659556D01*
X4390965Y-4541173D01*
X4390964Y-4541172D01*
X4390961Y-4541166D01*
X4378886Y-4523095D01*
X7212199Y-4523095D01*
X7239118Y-4658422D01*
X7239121Y-4658432D01*
X7291921Y-4785904D01*
X7291928Y-4785917D01*
X7368585Y-4900641D01*
X7368588Y-4900645D01*
X7466154Y-4998211D01*
X7466158Y-4998214D01*
X7580882Y-5074871D01*
X7580895Y-5074878D01*
X7708367Y-5127678D01*
X7708372Y-5127680D01*
X7708376Y-5127680D01*
X7708377Y-5127681D01*
X7843704Y-5154600D01*
X7843707Y-5154600D01*
X7981695Y-5154600D01*
X7981696Y-5154599D01*
X7985325Y-5153877D01*
X7994651Y-5152023D01*
X7994656Y-5152022D01*
X8083823Y-5134284D01*
X8117028Y-5127680D01*
X8244511Y-5074875D01*
X8359242Y-4998214D01*
X8456814Y-4900642D01*
X8533475Y-4785911D01*
X8586280Y-4658428D01*
X8595089Y-4614141D01*
X8613200Y-4523095D01*
X8613200Y-4385104D01*
X8586281Y-4249777D01*
X8586280Y-4249776D01*
X8586280Y-4249772D01*
X8543718Y-4147017D01*
X8533478Y-4122295D01*
X8533471Y-4122282D01*
X8456814Y-4007558D01*
X8456811Y-4007554D01*
X8359245Y-3909988D01*
X8359241Y-3909985D01*
X8320644Y-3884195D01*
X17785499Y-3884195D01*
X17812418Y-4019522D01*
X17812421Y-4019532D01*
X17865221Y-4147004D01*
X17865228Y-4147017D01*
X17941885Y-4261741D01*
X17941888Y-4261745D01*
X18039454Y-4359311D01*
X18039458Y-4359314D01*
X18154182Y-4435971D01*
X18154195Y-4435978D01*
X18281667Y-4488778D01*
X18281672Y-4488780D01*
X18281676Y-4488780D01*
X18281677Y-4488781D01*
X18417004Y-4515700D01*
X18417007Y-4515700D01*
X18554995Y-4515700D01*
X18646041Y-4497589D01*
X18690328Y-4488780D01*
X18817811Y-4435975D01*
X18932542Y-4359314D01*
X19030114Y-4261742D01*
X19106775Y-4147011D01*
X19109907Y-4139451D01*
X19118740Y-4118124D01*
X19159580Y-4019528D01*
X19181369Y-3909988D01*
X19186500Y-3884195D01*
X19186500Y-3746204D01*
X19159581Y-3610877D01*
X19159580Y-3610876D01*
X19159580Y-3610872D01*
X19159578Y-3610867D01*
X19106778Y-3483395D01*
X19106771Y-3483382D01*
X19030114Y-3368658D01*
X19030111Y-3368654D01*
X18932545Y-3271088D01*
X18932541Y-3271085D01*
X18817817Y-3194428D01*
X18817804Y-3194421D01*
X18690332Y-3141621D01*
X18690322Y-3141618D01*
X18554995Y-3114700D01*
X18554993Y-3114700D01*
X18417007Y-3114700D01*
X18417005Y-3114700D01*
X18281677Y-3141618D01*
X18281667Y-3141621D01*
X18154195Y-3194421D01*
X18154182Y-3194428D01*
X18039458Y-3271085D01*
X18039454Y-3271088D01*
X17941888Y-3368654D01*
X17941885Y-3368658D01*
X17865228Y-3483382D01*
X17865221Y-3483395D01*
X17812421Y-3610867D01*
X17812418Y-3610877D01*
X17785500Y-3746204D01*
X17785500Y-3746207D01*
X17785500Y-3884193D01*
X17785500Y-3884195D01*
X17785499Y-3884195D01*
X8320644Y-3884195D01*
X8259364Y-3843249D01*
X8259315Y-3843217D01*
X8244511Y-3833325D01*
X8244504Y-3833321D01*
X8117032Y-3780521D01*
X8117022Y-3780518D01*
X7981695Y-3753600D01*
X7981693Y-3753600D01*
X7843707Y-3753600D01*
X7843705Y-3753600D01*
X7708377Y-3780518D01*
X7708367Y-3780521D01*
X7580895Y-3833321D01*
X7580882Y-3833328D01*
X7466158Y-3909985D01*
X7466154Y-3909988D01*
X7368588Y-4007554D01*
X7368585Y-4007558D01*
X7291928Y-4122282D01*
X7291921Y-4122295D01*
X7239121Y-4249767D01*
X7239118Y-4249777D01*
X7212200Y-4385104D01*
X7212200Y-4385107D01*
X7212200Y-4523093D01*
X7212200Y-4523095D01*
X7212199Y-4523095D01*
X4378886Y-4523095D01*
X4328646Y-4447906D01*
X4328645Y-4447904D01*
X4319777Y-4434632D01*
X4319773Y-4434627D01*
X4229172Y-4344026D01*
X4229168Y-4344023D01*
X4122633Y-4272838D01*
X4122624Y-4272833D01*
X4004244Y-4223799D01*
X4004238Y-4223797D01*
X3878571Y-4198800D01*
X3878569Y-4198800D01*
X3750431Y-4198800D01*
X3750429Y-4198800D01*
X3624761Y-4223797D01*
X3624755Y-4223799D01*
X3506375Y-4272833D01*
X3506366Y-4272838D01*
X3399831Y-4344023D01*
X3399827Y-4344026D01*
X3309226Y-4434627D01*
X3309223Y-4434631D01*
X3238038Y-4541166D01*
X3238033Y-4541175D01*
X3188999Y-4659555D01*
X3188997Y-4659561D01*
X3164000Y-4785228D01*
X3164000Y-4785231D01*
X3164000Y-4913369D01*
X3164000Y-4913371D01*
X3163999Y-4913371D01*
X500000Y-4913371D01*
X500000Y-1605571D01*
X7652899Y-1605571D01*
X7677897Y-1731238D01*
X7677899Y-1731244D01*
X7726933Y-1849624D01*
X7726938Y-1849633D01*
X7798123Y-1956168D01*
X7798126Y-1956172D01*
X7888727Y-2046773D01*
X7888731Y-2046776D01*
X7995266Y-2117961D01*
X7995272Y-2117964D01*
X7995273Y-2117965D01*
X8113656Y-2167001D01*
X8113660Y-2167001D01*
X8113661Y-2167002D01*
X8239328Y-2192000D01*
X8239331Y-2192000D01*
X8367471Y-2192000D01*
X8452015Y-2175182D01*
X8493144Y-2167001D01*
X8611527Y-2117965D01*
X8718069Y-2046776D01*
X8808676Y-1956169D01*
X8879865Y-1849627D01*
X8928901Y-1731244D01*
X8953900Y-1605569D01*
X8953900Y-1477431D01*
X8953900Y-1477428D01*
X8928902Y-1351761D01*
X8928901Y-1351760D01*
X8928901Y-1351756D01*
X8879865Y-1233373D01*
X8879864Y-1233372D01*
X8879861Y-1233366D01*
X8808676Y-1126831D01*
X8808673Y-1126827D01*
X8718072Y-1036226D01*
X8718068Y-1036223D01*
X8611533Y-965038D01*
X8611524Y-965033D01*
X8493144Y-915999D01*
X8493138Y-915997D01*
X8367471Y-891000D01*
X8367469Y-891000D01*
X8239331Y-891000D01*
X8239329Y-891000D01*
X8113661Y-915997D01*
X8113655Y-915999D01*
X7995275Y-965033D01*
X7995266Y-965038D01*
X7888731Y-1036223D01*
X7888727Y-1036226D01*
X7798126Y-1126827D01*
X7798123Y-1126831D01*
X7726938Y-1233366D01*
X7726933Y-1233375D01*
X7677899Y-1351755D01*
X7677897Y-1351761D01*
X7652900Y-1477428D01*
X7652900Y-1477431D01*
X7652900Y-1605569D01*
X7652900Y-1605571D01*
X7652899Y-1605571D01*
X500000Y-1605571D01*
X500000Y-624000D01*
X519685Y-556961D01*
X572489Y-511206D01*
X624000Y-500000D01*
X37876000Y-500000D01*
X37943039Y-519685D01*
G37*
G04 #@! TD.AperFunction*
M02*
