G04 #@! TF.GenerationSoftware,KiCad,Pcbnew,10.0.4*
G04 #@! TF.CreationDate,2026-09-02T14:26:12+01:00*
G04 #@! TF.ProjectId,pl60c_dmx_mini,706c3630-635f-4646-9d78-5f6d696e692e,rev?*
G04 #@! TF.SameCoordinates,Original*
G04 #@! TF.FileFunction,Copper,L4,Bot*
G04 #@! TF.FilePolarity,Positive*
%FSLAX46Y46*%
G04 Gerber Fmt 4.6, Leading zero omitted, Abs format (unit mm)*
G04 Created by KiCad (PCBNEW 10.0.4) date 2026-09-02 14:26:12*
%MOMM*%
%LPD*%
G01*
G04 APERTURE LIST*
G04 Aperture macros list*
%AMRoundRect*
0 Rectangle with rounded corners*
0 $1 Rounding radius*
0 $2 $3 $4 $5 $6 $7 $8 $9 X,Y pos of 4 corners*
0 Add a 4 corners polygon primitive as box body*
4,1,4,$2,$3,$4,$5,$6,$7,$8,$9,$2,$3,0*
0 Add four circle primitives for the rounded corners*
1,1,$1+$1,$2,$3*
1,1,$1+$1,$4,$5*
1,1,$1+$1,$6,$7*
1,1,$1+$1,$8,$9*
0 Add four rect primitives between the rounded corners*
20,1,$1+$1,$2,$3,$4,$5,0*
20,1,$1+$1,$4,$5,$6,$7,0*
20,1,$1+$1,$6,$7,$8,$9,0*
20,1,$1+$1,$8,$9,$2,$3,0*%
G04 Aperture macros list end*
G04 #@! TA.AperFunction,ComponentPad*
%ADD10C,3.400000*%
G04 #@! TD*
G04 #@! TA.AperFunction,ComponentPad*
%ADD11C,2.900000*%
G04 #@! TD*
G04 #@! TA.AperFunction,ComponentPad*
%ADD12O,1.000000X2.100000*%
G04 #@! TD*
G04 #@! TA.AperFunction,ComponentPad*
%ADD13O,1.000000X1.600000*%
G04 #@! TD*
G04 #@! TA.AperFunction,SMDPad,CuDef*
%ADD14RoundRect,0.135000X-0.135000X-0.185000X0.135000X-0.185000X0.135000X0.185000X-0.135000X0.185000X0*%
G04 #@! TD*
G04 #@! TA.AperFunction,SMDPad,CuDef*
%ADD15RoundRect,0.150000X0.150000X-0.587500X0.150000X0.587500X-0.150000X0.587500X-0.150000X-0.587500X0*%
G04 #@! TD*
G04 #@! TA.AperFunction,SMDPad,CuDef*
%ADD16RoundRect,0.225000X-0.225000X-0.250000X0.225000X-0.250000X0.225000X0.250000X-0.225000X0.250000X0*%
G04 #@! TD*
G04 #@! TA.AperFunction,SMDPad,CuDef*
%ADD17RoundRect,0.140000X-0.140000X-0.170000X0.140000X-0.170000X0.140000X0.170000X-0.140000X0.170000X0*%
G04 #@! TD*
G04 #@! TA.AperFunction,SMDPad,CuDef*
%ADD18R,1.500000X1.500000*%
G04 #@! TD*
G04 #@! TA.AperFunction,SMDPad,CuDef*
%ADD19RoundRect,0.225000X-0.225000X-0.375000X0.225000X-0.375000X0.225000X0.375000X-0.225000X0.375000X0*%
G04 #@! TD*
G04 #@! TA.AperFunction,SMDPad,CuDef*
%ADD20RoundRect,0.150000X-0.512500X-0.150000X0.512500X-0.150000X0.512500X0.150000X-0.512500X0.150000X0*%
G04 #@! TD*
G04 #@! TA.AperFunction,SMDPad,CuDef*
%ADD21RoundRect,0.243750X-0.243750X-0.456250X0.243750X-0.456250X0.243750X0.456250X-0.243750X0.456250X0*%
G04 #@! TD*
G04 #@! TA.AperFunction,SMDPad,CuDef*
%ADD22RoundRect,0.150000X-0.587500X-0.150000X0.587500X-0.150000X0.587500X0.150000X-0.587500X0.150000X0*%
G04 #@! TD*
G04 #@! TA.AperFunction,SMDPad,CuDef*
%ADD23RoundRect,0.150000X0.150000X-0.825000X0.150000X0.825000X-0.150000X0.825000X-0.150000X-0.825000X0*%
G04 #@! TD*
G04 #@! TA.AperFunction,SMDPad,CuDef*
%ADD24RoundRect,0.225000X0.250000X-0.225000X0.250000X0.225000X-0.250000X0.225000X-0.250000X-0.225000X0*%
G04 #@! TD*
G04 #@! TA.AperFunction,ViaPad*
%ADD25C,0.700000*%
G04 #@! TD*
G04 #@! TA.AperFunction,ViaPad*
%ADD26C,0.600000*%
G04 #@! TD*
G04 #@! TA.AperFunction,ViaPad*
%ADD27C,0.800000*%
G04 #@! TD*
G04 #@! TA.AperFunction,Conductor*
%ADD28C,0.400000*%
G04 #@! TD*
G04 #@! TA.AperFunction,Conductor*
%ADD29C,0.300000*%
G04 #@! TD*
G04 #@! TA.AperFunction,Conductor*
%ADD30C,0.250000*%
G04 #@! TD*
G04 #@! TA.AperFunction,Conductor*
%ADD31C,0.187400*%
G04 #@! TD*
G04 APERTURE END LIST*
D10*
X21350000Y-10300000D03*
D11*
X25165000Y-14110000D03*
X21350000Y-14110000D03*
X25165000Y-21090000D03*
D10*
X21350000Y-17920000D03*
D11*
X31520000Y-5860000D03*
D12*
X2080000Y-22770000D03*
D13*
X2080000Y-26950000D03*
D12*
X10720000Y-22770000D03*
D13*
X10720000Y-26950000D03*
D14*
X10790000Y-12000000D03*
X11810000Y-12000000D03*
X14190000Y-14500000D03*
X15210000Y-14500000D03*
X2890000Y-28200000D03*
X3910000Y-28200000D03*
X18090000Y-14400000D03*
X19110000Y-14400000D03*
D15*
X18850000Y-20337500D03*
X16950000Y-20337500D03*
X17900000Y-18462500D03*
D16*
X11725000Y-3000000D03*
X13275000Y-3000000D03*
D17*
X16520000Y-25300000D03*
X17480000Y-25300000D03*
X3020000Y-12000000D03*
X3980000Y-12000000D03*
D18*
X31200000Y-25500000D03*
D16*
X13725000Y-25300000D03*
X15275000Y-25300000D03*
D19*
X6850000Y-4500000D03*
X10150000Y-4500000D03*
D14*
X5490000Y-2500000D03*
X6510000Y-2500000D03*
D17*
X3020000Y-8000000D03*
X3980000Y-8000000D03*
D20*
X5262500Y-27950000D03*
X5262500Y-27000000D03*
X5262500Y-26050000D03*
X7537500Y-26050000D03*
X7537500Y-27000000D03*
X7537500Y-27950000D03*
D14*
X8890000Y-28200000D03*
X9910000Y-28200000D03*
D20*
X12662500Y-23450000D03*
X12662500Y-22500000D03*
X12662500Y-21550000D03*
X14937500Y-21550000D03*
X14937500Y-23450000D03*
D14*
X10790000Y-10000000D03*
X11810000Y-10000000D03*
X10790000Y-8000000D03*
X11810000Y-8000000D03*
D18*
X28500000Y-25500000D03*
X33900000Y-25500000D03*
X3000000Y-15000000D03*
D17*
X9020000Y-13500000D03*
X9980000Y-13500000D03*
X14020000Y-5000000D03*
X14980000Y-5000000D03*
D21*
X12662500Y-18500000D03*
X14537500Y-18500000D03*
D18*
X6000000Y-15000000D03*
D14*
X2990000Y-10000000D03*
X4010000Y-10000000D03*
D22*
X2062500Y-4950000D03*
X2062500Y-3050000D03*
X3937500Y-4000000D03*
D23*
X17105000Y-12275000D03*
X15835000Y-12275000D03*
X14565000Y-12275000D03*
X13295000Y-12275000D03*
X13295000Y-7325000D03*
X14565000Y-7325000D03*
X15835000Y-7325000D03*
X17105000Y-7325000D03*
D24*
X10600000Y-19175000D03*
X10600000Y-17625000D03*
D18*
X36600000Y-25500000D03*
D25*
X1630200Y-8630200D03*
X7800000Y-6700000D03*
X7800000Y-12500000D03*
X9450000Y-6700000D03*
X3400000Y-6100000D03*
X5010000Y-12000000D03*
X2062500Y-6000000D03*
X25000000Y-5000000D03*
D26*
X7800000Y-9500000D03*
D25*
X1630200Y-14580200D03*
X13295000Y-4150000D03*
X2900000Y-5250000D03*
X4400000Y-1350000D03*
X15950000Y-16500000D03*
X2019000Y-10719000D03*
X15275000Y-26525000D03*
X1630200Y-16280200D03*
X9450000Y-12500000D03*
X1850000Y-17650000D03*
D26*
X9450000Y-9500000D03*
D25*
X2500000Y-4400000D03*
X2700000Y-17650000D03*
X3550000Y-1350000D03*
X6150000Y-12500000D03*
X14800000Y-1350000D03*
X1950000Y-6950000D03*
X10580100Y-8980100D03*
X18800000Y-26000000D03*
D26*
X9450000Y-11150000D03*
D25*
X31200000Y-27000000D03*
X1630200Y-12030200D03*
D26*
X6150000Y-7850000D03*
D25*
X1630200Y-4380200D03*
X2500000Y-12900000D03*
X9375000Y-17625000D03*
X3850000Y-27000000D03*
X11010000Y-13500000D03*
D26*
X6150000Y-9500000D03*
D25*
X2500000Y-16500000D03*
X18750000Y-4915000D03*
D26*
X7800000Y-7850000D03*
D25*
X5019900Y-8980100D03*
X19460000Y-25300000D03*
X25000000Y-10000000D03*
X1630200Y-12880200D03*
X9910000Y-25680000D03*
X3910000Y-25680000D03*
X18800000Y-21900000D03*
X30000000Y-10000000D03*
X1806900Y-9656900D03*
D26*
X9450000Y-7850000D03*
D25*
X17900000Y-16975000D03*
X5010000Y-8000000D03*
X7800000Y-5550000D03*
X6150000Y-6700000D03*
D26*
X6150000Y-11150000D03*
X7800000Y-11150000D03*
D25*
X3250000Y-18655000D03*
X8474700Y-24717300D03*
X9549999Y-18655000D03*
X3677300Y-24602500D03*
X7750000Y-19655000D03*
X13867600Y-8908600D03*
X5650000Y-24255000D03*
X4633100Y-25151400D03*
X10737900Y-6934800D03*
X7571900Y-24609100D03*
X7727000Y-23627600D03*
X12115300Y-14302200D03*
X16290600Y-9790700D03*
D27*
X3020000Y-7064800D03*
D26*
X3659600Y-17391300D03*
D27*
X18486000Y-3815200D03*
X16147900Y-24398700D03*
D25*
X10260100Y-14579900D03*
X14238000Y-26334900D03*
X12469400Y-8661000D03*
X12231300Y-20354000D03*
D26*
X12509700Y-12534200D03*
D25*
X10577400Y-20242500D03*
X8303400Y-1541500D03*
D26*
X32843300Y-24337500D03*
D25*
X36523000Y-24187500D03*
D26*
X13423100Y-14500000D03*
D25*
X13295000Y-10734600D03*
X15735600Y-10608600D03*
X11172600Y-5343800D03*
X10877500Y-11147100D03*
X3814500Y-4849300D03*
D27*
X6735900Y-13616600D03*
X7912700Y-4454100D03*
D28*
X10720000Y-22770000D02*
X10720000Y-22769200D01*
D29*
X10720000Y-22769200D02*
X12393300Y-22769200D01*
X31200000Y-25500000D02*
X31200000Y-27000000D01*
X13295000Y-7325000D02*
X13295000Y-4150000D01*
X9980000Y-13500000D02*
X11010000Y-13500000D01*
D28*
X15210000Y-15760000D02*
X15210000Y-14500000D01*
D29*
X17480000Y-25300000D02*
X19460000Y-25300000D01*
X15275000Y-25300000D02*
X15275000Y-26525000D01*
X12393300Y-22769200D02*
X12662500Y-22500000D01*
X3980000Y-8000000D02*
X5010000Y-8000000D01*
X5262500Y-27000000D02*
X3850000Y-27000000D01*
X17900000Y-18462500D02*
X17900000Y-16975000D01*
X3910000Y-28200000D02*
X3910000Y-25680000D01*
X3980000Y-12000000D02*
X5010000Y-12000000D01*
D28*
X15950000Y-16500000D02*
X15210000Y-15760000D01*
X18665000Y-5000000D02*
X14980000Y-5000000D01*
X18750000Y-4915000D02*
X18665000Y-5000000D01*
D29*
X2062500Y-4950000D02*
X2062500Y-6000000D01*
X9910000Y-28200000D02*
X9910000Y-25680000D01*
X10600000Y-17625000D02*
X9375000Y-17625000D01*
D30*
X16950000Y-21032900D02*
X16950000Y-20337500D01*
X20443400Y-12353300D02*
X15835000Y-7744900D01*
X25165000Y-14110000D02*
X23408300Y-12353300D01*
X23408300Y-12353300D02*
X20443400Y-12353300D01*
X23385000Y-15890000D02*
X20647800Y-15890000D01*
X19110000Y-14400000D02*
X19110000Y-15653200D01*
X19086400Y-22573700D02*
X18490800Y-22573700D01*
X19474300Y-18999600D02*
X19474300Y-22185800D01*
X19295000Y-15838200D02*
X19295000Y-18820300D01*
X19110000Y-15653200D02*
X19295000Y-15838200D01*
X18490800Y-22573700D02*
X16950000Y-21032900D01*
X19474300Y-22185800D02*
X19086400Y-22573700D01*
X15835000Y-7744900D02*
X15835000Y-7325000D01*
X19295000Y-18820300D02*
X19474300Y-18999600D01*
X25165000Y-14110000D02*
X23385000Y-15890000D01*
X19810000Y-15838200D02*
X19295000Y-15838200D01*
D31*
X20647800Y-15890000D02*
X20596000Y-15838200D01*
X20596000Y-15838200D02*
X19810000Y-15838200D01*
D30*
X21350000Y-14110000D02*
X20962400Y-13722400D01*
X18850000Y-16927200D02*
X18850000Y-20337500D01*
X20962400Y-13722400D02*
X18767600Y-13722400D01*
X14565000Y-7694800D02*
X14565000Y-7325000D01*
X18767600Y-13722400D02*
X18767600Y-11338900D01*
X18767600Y-11338900D02*
X16504800Y-9076100D01*
X18767600Y-13722400D02*
X18090000Y-14400000D01*
X18090000Y-14400000D02*
X18090000Y-16167200D01*
X15946300Y-9076100D02*
X14565000Y-7694800D01*
X16504800Y-9076100D02*
X15946300Y-9076100D01*
X18090000Y-16167200D02*
X18850000Y-16927200D01*
X12545100Y-18382600D02*
X9822400Y-18382600D01*
X8525100Y-26373700D02*
X8525100Y-24767700D01*
D28*
X3250000Y-18655000D02*
X9549999Y-18655000D01*
D30*
X12662500Y-18500000D02*
X12545100Y-18382600D01*
X7898800Y-27000000D02*
X8525100Y-26373700D01*
X8525100Y-24767700D02*
X8474700Y-24717300D01*
X7537500Y-27000000D02*
X7898800Y-27000000D01*
X9822400Y-18382600D02*
X9550000Y-18655000D01*
X2890000Y-25389800D02*
X3677300Y-24602500D01*
X2890000Y-28200000D02*
X2890000Y-25389800D01*
X5650000Y-24255000D02*
X7750000Y-19655000D01*
X6306200Y-24911200D02*
X5650000Y-24255000D01*
X6306200Y-27950000D02*
X5262500Y-27950000D01*
X7537500Y-27950000D02*
X6306200Y-27950000D01*
X6306200Y-27950000D02*
X6306200Y-24911200D01*
X5262500Y-26050000D02*
X4633100Y-25420600D01*
X7537500Y-26050000D02*
X7537500Y-24643500D01*
X4633100Y-25420600D02*
X4633100Y-25151400D01*
X7537500Y-24643500D02*
X7571900Y-24609100D01*
X9137100Y-24393900D02*
X8370800Y-23627600D01*
X8370800Y-23627600D02*
X7727000Y-23627600D01*
X8890000Y-28200000D02*
X9137100Y-27952900D01*
X9137100Y-27952900D02*
X9137100Y-24393900D01*
X11810000Y-12000000D02*
X11810000Y-13996900D01*
X11810000Y-13996900D02*
X12115300Y-14302200D01*
D29*
X11143700Y-9449200D02*
X11143700Y-9533100D01*
D28*
X16017100Y-24529500D02*
X16520000Y-25032500D01*
X18486000Y-3815200D02*
X14162700Y-3815200D01*
X9170300Y-10419800D02*
X8687500Y-10902600D01*
X16017100Y-24529500D02*
X16147900Y-24398700D01*
X26267000Y-24398700D02*
X27368300Y-25500000D01*
X14162700Y-2499300D02*
X13800800Y-2137400D01*
D29*
X14025200Y-4390200D02*
X14106100Y-4309300D01*
X14778800Y-5690700D02*
X15057300Y-5969200D01*
D28*
X15057300Y-5969200D02*
X15109000Y-5917500D01*
X10790000Y-8000000D02*
X10790000Y-7917500D01*
X11904300Y-6803200D02*
X11904300Y-3179300D01*
X14937500Y-23450000D02*
X16017100Y-24529500D01*
D29*
X14020000Y-5690700D02*
X14778800Y-5690700D01*
D28*
X11143700Y-9646300D02*
X10790000Y-10000000D01*
X16242800Y-5917500D02*
X17105000Y-6779700D01*
X13800800Y-2137400D02*
X12587600Y-2137400D01*
X8687500Y-13167500D02*
X9020000Y-13500000D01*
X15109000Y-5917500D02*
X16242800Y-5917500D01*
D29*
X10775400Y-8014600D02*
X11252400Y-8491600D01*
D28*
X10370200Y-10419800D02*
X9170300Y-10419800D01*
X10790000Y-8000000D02*
X10775400Y-8014600D01*
X14106100Y-4309300D02*
X14162700Y-4252700D01*
X16520000Y-25032500D02*
X16520000Y-25300000D01*
X17105000Y-6779700D02*
X17105000Y-7325000D01*
X10790000Y-7917500D02*
X11904300Y-6803200D01*
X14025200Y-4994800D02*
X14025200Y-4908300D01*
D29*
X11644800Y-8948100D02*
X11143700Y-9449200D01*
D28*
X16147900Y-24398700D02*
X26267000Y-24398700D01*
D29*
X11252400Y-8491600D02*
X11252400Y-8555700D01*
D28*
X3020000Y-8000000D02*
X2990000Y-8030000D01*
X14020000Y-5000000D02*
X14025200Y-4994800D01*
X13725000Y-24662500D02*
X14937500Y-23450000D01*
X2990000Y-8030000D02*
X2990000Y-10000000D01*
X11904300Y-3179300D02*
X11725000Y-3000000D01*
X8687500Y-10902600D02*
X8687500Y-13167500D01*
X14162700Y-4252700D02*
X14162700Y-3815200D01*
X14020000Y-5000000D02*
X14020000Y-5690700D01*
X28500000Y-25500000D02*
X27368300Y-25500000D01*
X14162700Y-3815200D02*
X14162700Y-2499300D01*
X3020000Y-8000000D02*
X3020000Y-7064800D01*
X10790000Y-10000000D02*
X10370200Y-10419800D01*
D29*
X14025200Y-4908300D02*
X14025200Y-4390200D01*
D28*
X12587600Y-2137400D02*
X11725000Y-3000000D01*
X13725000Y-25300000D02*
X13725000Y-24662500D01*
X11252400Y-8555700D02*
X11644800Y-8948100D01*
X11143700Y-9533100D02*
X11143700Y-9646300D01*
D30*
X12469400Y-8659400D02*
X12469400Y-8661000D01*
X11810000Y-8000000D02*
X12469400Y-8659400D01*
X12639800Y-11374300D02*
X11810000Y-10544500D01*
X12509700Y-12408900D02*
X12509700Y-12534200D01*
D31*
X12683700Y-11930500D02*
X12639800Y-11886600D01*
X12683700Y-12234900D02*
X12683700Y-11930500D01*
D30*
X12639800Y-11886600D02*
X12639800Y-11374300D01*
X12683700Y-12234900D02*
X12509700Y-12408900D01*
X11810000Y-10544500D02*
X11810000Y-10000000D01*
X6129400Y-3139400D02*
X6846600Y-3139400D01*
X5490000Y-2500000D02*
X6129400Y-3139400D01*
X8303400Y-1682600D02*
X8303400Y-1541500D01*
X6846600Y-3139400D02*
X8303400Y-1682600D01*
X33900000Y-25500000D02*
X32843300Y-25500000D01*
X32843300Y-25500000D02*
X32843300Y-24337500D01*
X36523000Y-24187500D02*
X36600000Y-24264500D01*
X36600000Y-24264500D02*
X36600000Y-25500000D01*
X13423100Y-14500000D02*
X14190000Y-14500000D01*
X14190000Y-12650000D02*
X14565000Y-12275000D01*
X14565000Y-12275000D02*
X15835000Y-12275000D01*
X14190000Y-14500000D02*
X14190000Y-12650000D01*
X13295000Y-10734600D02*
X13295000Y-12275000D01*
X15825700Y-10608600D02*
X17105000Y-11887900D01*
X15735600Y-10608600D02*
X15825700Y-10608600D01*
X17105000Y-11887900D02*
X17105000Y-12275000D01*
X10790000Y-12000000D02*
X10790000Y-11234600D01*
X10790000Y-11234600D02*
X10877500Y-11147100D01*
X3020000Y-12000000D02*
X3020000Y-10990000D01*
X5287900Y-4849300D02*
X3814500Y-4849300D01*
X6830800Y-6392200D02*
X5287900Y-4849300D01*
X4143400Y-10133400D02*
X6382400Y-10133400D01*
X6382400Y-10133400D02*
X6830800Y-9685000D01*
X4010000Y-10000000D02*
X4143400Y-10133400D01*
X6830800Y-9685000D02*
X6830800Y-6392200D01*
X3020000Y-10990000D02*
X4010000Y-10000000D01*
D28*
X12534400Y-21421900D02*
X12662500Y-21550000D01*
X6735900Y-15000000D02*
X6735900Y-13616600D01*
X13187500Y-23450000D02*
X12662500Y-23450000D01*
X12534400Y-21085700D02*
X11928300Y-21085700D01*
D29*
X13768300Y-21819200D02*
X12931700Y-21819200D01*
D28*
X7912700Y-4454100D02*
X6895900Y-4454100D01*
X7047500Y-15311600D02*
X11349100Y-15311600D01*
X13768300Y-21819200D02*
X13768300Y-22869200D01*
X14537500Y-19082600D02*
X14537500Y-18500000D01*
X6895900Y-4454100D02*
X6850000Y-4500000D01*
X11928300Y-21085700D02*
X11309100Y-20466500D01*
X11349100Y-15311600D02*
X14537500Y-18500000D01*
X6000000Y-15000000D02*
X6735900Y-15000000D01*
D29*
X12931700Y-21819200D02*
X12662500Y-21550000D01*
D28*
X12534400Y-21085700D02*
X14537500Y-19082600D01*
X11309100Y-20466500D02*
X11309100Y-19884100D01*
X12534400Y-21085700D02*
X12534400Y-21421900D01*
X11309100Y-19884100D02*
X10600000Y-19175000D01*
X6735900Y-15000000D02*
X7047500Y-15311600D01*
X13768300Y-22869200D02*
X13187500Y-23450000D01*
D30*
X3627900Y-3690400D02*
X1388900Y-3690400D01*
X1388900Y-3690400D02*
X915400Y-4163900D01*
X10150000Y-4500000D02*
X9233300Y-3583300D01*
X915400Y-13151300D02*
X1602100Y-13838000D01*
X4354200Y-3583300D02*
X3937500Y-4000000D01*
X3937500Y-4000000D02*
X3627900Y-3690400D01*
X9233300Y-3583300D02*
X4354200Y-3583300D01*
X915400Y-4163900D02*
X915400Y-13151300D01*
X1602100Y-13838000D02*
X1838000Y-13838000D01*
X1838000Y-13838000D02*
X3000000Y-15000000D01*
X5861600Y-1851600D02*
X5063500Y-1851600D01*
X3865100Y-3050000D02*
X2062500Y-3050000D01*
X5063500Y-1851600D02*
X3865100Y-3050000D01*
X6510000Y-2500000D02*
X5861600Y-1851600D01*
G04 #@! TA.AperFunction,Conductor*
G36*
X9072729Y-4028485D02*
G01*
X9093371Y-4045119D01*
X9363181Y-4314929D01*
X9396666Y-4376252D01*
X9399500Y-4402610D01*
X9399500Y-4916144D01*
X9403566Y-4950000D01*
X9409640Y-5000588D01*
X9462636Y-5134976D01*
X9549921Y-5250078D01*
X9665023Y-5337363D01*
X9665024Y-5337363D01*
X9665025Y-5337364D01*
X9799410Y-5390359D01*
X9883856Y-5400500D01*
X9883862Y-5400500D01*
X10418870Y-5400500D01*
X10485909Y-5420185D01*
X10531664Y-5472989D01*
X10540487Y-5500307D01*
X10547097Y-5533539D01*
X10547099Y-5533544D01*
X10596133Y-5651924D01*
X10596138Y-5651933D01*
X10667323Y-5758468D01*
X10667326Y-5758472D01*
X10757927Y-5849073D01*
X10757931Y-5849076D01*
X10864466Y-5920261D01*
X10864472Y-5920264D01*
X10864473Y-5920265D01*
X10982856Y-5969301D01*
X10982860Y-5969301D01*
X10982861Y-5969302D01*
X11108528Y-5994300D01*
X11108531Y-5994300D01*
X11236670Y-5994300D01*
X11255607Y-5990533D01*
X11325199Y-5996760D01*
X11380377Y-6039622D01*
X11403622Y-6105512D01*
X11403800Y-6112150D01*
X11403800Y-6381392D01*
X11384115Y-6448431D01*
X11331311Y-6494186D01*
X11262153Y-6504130D01*
X11198597Y-6475105D01*
X11192119Y-6469073D01*
X11152572Y-6429526D01*
X11152568Y-6429523D01*
X11046033Y-6358338D01*
X11046024Y-6358333D01*
X10927644Y-6309299D01*
X10927638Y-6309297D01*
X10801971Y-6284300D01*
X10801969Y-6284300D01*
X10673831Y-6284300D01*
X10673829Y-6284300D01*
X10548161Y-6309297D01*
X10548155Y-6309299D01*
X10429775Y-6358333D01*
X10429766Y-6358338D01*
X10323231Y-6429523D01*
X10323227Y-6429526D01*
X10232626Y-6520127D01*
X10232623Y-6520131D01*
X10161438Y-6626666D01*
X10161433Y-6626675D01*
X10112399Y-6745055D01*
X10112397Y-6745061D01*
X10087400Y-6870728D01*
X10087400Y-6870731D01*
X10087400Y-6998869D01*
X10087400Y-6998871D01*
X10087399Y-6998871D01*
X10112397Y-7124538D01*
X10112399Y-7124544D01*
X10161433Y-7242924D01*
X10161438Y-7242933D01*
X10232623Y-7349468D01*
X10232626Y-7349472D01*
X10286446Y-7403292D01*
X10319931Y-7464615D01*
X10314947Y-7534307D01*
X10298535Y-7564607D01*
X10265618Y-7609207D01*
X10222258Y-7733118D01*
X10222258Y-7733120D01*
X10219500Y-7762538D01*
X10219500Y-8237453D01*
X10222258Y-8266874D01*
X10222260Y-8266884D01*
X10255851Y-8362880D01*
X10265619Y-8390794D01*
X10281654Y-8412520D01*
X10343576Y-8496423D01*
X10396391Y-8535402D01*
X10449206Y-8574381D01*
X10490511Y-8588834D01*
X10573119Y-8617741D01*
X10586707Y-8619015D01*
X10602543Y-8620500D01*
X10656458Y-8620499D01*
X10723496Y-8640182D01*
X10769251Y-8692986D01*
X10776232Y-8712404D01*
X10786007Y-8748884D01*
X10786007Y-8748885D01*
X10786008Y-8748886D01*
X10851900Y-8863014D01*
X10851902Y-8863016D01*
X10884660Y-8895774D01*
X10887560Y-8901086D01*
X10892575Y-8904478D01*
X10904111Y-8931396D01*
X10918145Y-8957097D01*
X10917713Y-8963134D01*
X10920098Y-8968699D01*
X10915249Y-8997579D01*
X10913161Y-9026789D01*
X10909276Y-9033164D01*
X10908531Y-9037604D01*
X10894924Y-9056716D01*
X10888757Y-9066839D01*
X10886765Y-9069030D01*
X10783211Y-9172586D01*
X10766699Y-9201182D01*
X10757747Y-9211037D01*
X10756246Y-9211952D01*
X10753653Y-9215332D01*
X10743199Y-9225786D01*
X10689454Y-9318876D01*
X10638887Y-9367092D01*
X10593641Y-9380335D01*
X10573124Y-9382258D01*
X10573115Y-9382260D01*
X10449207Y-9425618D01*
X10343576Y-9503576D01*
X10265618Y-9609207D01*
X10222258Y-9733118D01*
X10222258Y-9733120D01*
X10219500Y-9762536D01*
X10219500Y-9795300D01*
X10199815Y-9862339D01*
X10147011Y-9908094D01*
X10095500Y-9919300D01*
X9104407Y-9919300D01*
X9003779Y-9946263D01*
X9003778Y-9946262D01*
X8977118Y-9953406D01*
X8977111Y-9953409D01*
X8862989Y-10019298D01*
X8862987Y-10019299D01*
X8776869Y-10105417D01*
X8776868Y-10105416D01*
X8362744Y-10519540D01*
X8362745Y-10519541D01*
X8287000Y-10595286D01*
X8221108Y-10709412D01*
X8194164Y-10809970D01*
X8187000Y-10836708D01*
X8187000Y-13101608D01*
X8187000Y-13233392D01*
X8190695Y-13247181D01*
X8221108Y-13360687D01*
X8250888Y-13412267D01*
X8287000Y-13474814D01*
X8287002Y-13474816D01*
X8403181Y-13590995D01*
X8436666Y-13652318D01*
X8439500Y-13678676D01*
X8439500Y-13723070D01*
X8442289Y-13752814D01*
X8442291Y-13752826D01*
X8485125Y-13875233D01*
X8486148Y-13878157D01*
X8565001Y-13984999D01*
X8671843Y-14063852D01*
X8710003Y-14077204D01*
X8797173Y-14107708D01*
X8797177Y-14107708D01*
X8797181Y-14107710D01*
X8812057Y-14109105D01*
X8826930Y-14110500D01*
X8826934Y-14110500D01*
X9213070Y-14110500D01*
X9226865Y-14109206D01*
X9242819Y-14107710D01*
X9368157Y-14063852D01*
X9368160Y-14063849D01*
X9372051Y-14062488D01*
X9375889Y-14062291D01*
X9379140Y-14060244D01*
X9410495Y-14060524D01*
X9441829Y-14058925D01*
X9446279Y-14060845D01*
X9449007Y-14060870D01*
X9463678Y-14068353D01*
X9480979Y-14075819D01*
X9618315Y-14165829D01*
X9633041Y-14183135D01*
X9650977Y-14197090D01*
X9655250Y-14209235D01*
X9663595Y-14219041D01*
X9666627Y-14241564D01*
X9674170Y-14262998D01*
X9671560Y-14278203D01*
X9672918Y-14288285D01*
X9668039Y-14298717D01*
X9664904Y-14316991D01*
X9634600Y-14390151D01*
X9634597Y-14390161D01*
X9609600Y-14515828D01*
X9609600Y-14643970D01*
X9613367Y-14662907D01*
X9607140Y-14732499D01*
X9564278Y-14787677D01*
X9498388Y-14810922D01*
X9491750Y-14811100D01*
X7360400Y-14811100D01*
X7293361Y-14791415D01*
X7247606Y-14738611D01*
X7236400Y-14687100D01*
X7236400Y-14158118D01*
X7256085Y-14091079D01*
X7272723Y-14070433D01*
X7274803Y-14068353D01*
X7280014Y-14063142D01*
X7356675Y-13948411D01*
X7359983Y-13940426D01*
X7371268Y-13913181D01*
X7409480Y-13820928D01*
X7420056Y-13767759D01*
X7436400Y-13685595D01*
X7436400Y-13547604D01*
X7409481Y-13412277D01*
X7409480Y-13412276D01*
X7409480Y-13412272D01*
X7388113Y-13360687D01*
X7356678Y-13284795D01*
X7356671Y-13284782D01*
X7280014Y-13170058D01*
X7280011Y-13170054D01*
X7182445Y-13072488D01*
X7182441Y-13072485D01*
X7067717Y-12995828D01*
X7067704Y-12995821D01*
X6940232Y-12943021D01*
X6940222Y-12943018D01*
X6804895Y-12916100D01*
X6804893Y-12916100D01*
X6666907Y-12916100D01*
X6666905Y-12916100D01*
X6531577Y-12943018D01*
X6531567Y-12943021D01*
X6404095Y-12995821D01*
X6404082Y-12995828D01*
X6289358Y-13072485D01*
X6289354Y-13072488D01*
X6191788Y-13170054D01*
X6191785Y-13170058D01*
X6115128Y-13284782D01*
X6115121Y-13284795D01*
X6062321Y-13412267D01*
X6062318Y-13412277D01*
X6035400Y-13547604D01*
X6035400Y-13547607D01*
X6035400Y-13685593D01*
X6035400Y-13685595D01*
X6035399Y-13685595D01*
X6058417Y-13801308D01*
X6052190Y-13870900D01*
X6009327Y-13926077D01*
X5943437Y-13949322D01*
X5936800Y-13949500D01*
X5205143Y-13949500D01*
X5205117Y-13949502D01*
X5180012Y-13952413D01*
X5180008Y-13952415D01*
X5077235Y-13997793D01*
X4997794Y-14077234D01*
X4952415Y-14180006D01*
X4952415Y-14180008D01*
X4949500Y-14205131D01*
X4949500Y-15794856D01*
X4949502Y-15794882D01*
X4952413Y-15819987D01*
X4952415Y-15819991D01*
X4997793Y-15922764D01*
X4997794Y-15922765D01*
X5077235Y-16002206D01*
X5180009Y-16047585D01*
X5205135Y-16050500D01*
X6794864Y-16050499D01*
X6794879Y-16050497D01*
X6794882Y-16050497D01*
X6819987Y-16047586D01*
X6819988Y-16047585D01*
X6819991Y-16047585D01*
X6922765Y-16002206D01*
X7002206Y-15922765D01*
X7018434Y-15886011D01*
X7063518Y-15832638D01*
X7130304Y-15812110D01*
X7131867Y-15812100D01*
X11090424Y-15812100D01*
X11157463Y-15831785D01*
X11178105Y-15848419D01*
X12617505Y-17287819D01*
X12650990Y-17349142D01*
X12646006Y-17418834D01*
X12604134Y-17474767D01*
X12538670Y-17499184D01*
X12529824Y-17499500D01*
X12376140Y-17499500D01*
X12310544Y-17507377D01*
X12288677Y-17510003D01*
X12149502Y-17564887D01*
X12149500Y-17564888D01*
X12030288Y-17655288D01*
X11939888Y-17774500D01*
X11939887Y-17774502D01*
X11898840Y-17878590D01*
X11885932Y-17895178D01*
X11877199Y-17914303D01*
X11864905Y-17922203D01*
X11855934Y-17933734D01*
X11836106Y-17940711D01*
X11818421Y-17952077D01*
X11793714Y-17955629D01*
X11790027Y-17956927D01*
X11783486Y-17957100D01*
X11599000Y-17957100D01*
X11531961Y-17937415D01*
X11486206Y-17884611D01*
X11475000Y-17833100D01*
X11475000Y-17825000D01*
X9725000Y-17825000D01*
X9725000Y-17875917D01*
X9721618Y-17887434D01*
X9722759Y-17899384D01*
X9711956Y-17920338D01*
X9705315Y-17942956D01*
X9695444Y-17952368D01*
X9690743Y-17961487D01*
X9663000Y-17983304D01*
X9655062Y-17987887D01*
X9593062Y-18004500D01*
X9485928Y-18004500D01*
X9360260Y-18029497D01*
X9360254Y-18029499D01*
X9241874Y-18078533D01*
X9241865Y-18078538D01*
X9159458Y-18133602D01*
X9092781Y-18154480D01*
X9090567Y-18154500D01*
X4001473Y-18154500D01*
X3934434Y-18134815D01*
X3888679Y-18082011D01*
X3878735Y-18012853D01*
X3907760Y-17949297D01*
X3939472Y-17923113D01*
X4028316Y-17871820D01*
X4140120Y-17760016D01*
X4219177Y-17623084D01*
X4260100Y-17470357D01*
X4260100Y-17336881D01*
X9725000Y-17336881D01*
X9725000Y-17425000D01*
X10400000Y-17425000D01*
X10800000Y-17425000D01*
X11475000Y-17425000D01*
X11475000Y-17336894D01*
X11474999Y-17336881D01*
X11472211Y-17301452D01*
X11472210Y-17301446D01*
X11428156Y-17149814D01*
X11428155Y-17149811D01*
X11347773Y-17013891D01*
X11347767Y-17013883D01*
X11236116Y-16902232D01*
X11236108Y-16902226D01*
X11100188Y-16821844D01*
X11100185Y-16821843D01*
X10948553Y-16777789D01*
X10948547Y-16777788D01*
X10913118Y-16775000D01*
X10800000Y-16775000D01*
X10800000Y-17425000D01*
X10400000Y-17425000D01*
X10400000Y-16775000D01*
X10286881Y-16775000D01*
X10251452Y-16777788D01*
X10251446Y-16777789D01*
X10099814Y-16821843D01*
X10099811Y-16821844D01*
X9963891Y-16902226D01*
X9963883Y-16902232D01*
X9852232Y-17013883D01*
X9852226Y-17013891D01*
X9771844Y-17149811D01*
X9771843Y-17149814D01*
X9727789Y-17301446D01*
X9727788Y-17301452D01*
X9725000Y-17336881D01*
X4260100Y-17336881D01*
X4260100Y-17312243D01*
X4219177Y-17159516D01*
X4201242Y-17128451D01*
X4140124Y-17022590D01*
X4140118Y-17022582D01*
X4028317Y-16910781D01*
X4028309Y-16910775D01*
X3891390Y-16831726D01*
X3891386Y-16831724D01*
X3891384Y-16831723D01*
X3738657Y-16790800D01*
X3580543Y-16790800D01*
X3427816Y-16831723D01*
X3427809Y-16831726D01*
X3290890Y-16910775D01*
X3290882Y-16910781D01*
X3179081Y-17022582D01*
X3179075Y-17022590D01*
X3100026Y-17159509D01*
X3100023Y-17159516D01*
X3059100Y-17312243D01*
X3059100Y-17470357D01*
X3097479Y-17613587D01*
X3100023Y-17623083D01*
X3100026Y-17623090D01*
X3179075Y-17760009D01*
X3179081Y-17760017D01*
X3220098Y-17801034D01*
X3253583Y-17862357D01*
X3248599Y-17932049D01*
X3206727Y-17987982D01*
X3156609Y-18010332D01*
X3060261Y-18029497D01*
X3060255Y-18029499D01*
X2941875Y-18078533D01*
X2941866Y-18078538D01*
X2835331Y-18149723D01*
X2835327Y-18149726D01*
X2744726Y-18240327D01*
X2744723Y-18240331D01*
X2673538Y-18346866D01*
X2673533Y-18346875D01*
X2624499Y-18465255D01*
X2624497Y-18465261D01*
X2599500Y-18590928D01*
X2599500Y-18590931D01*
X2599500Y-18719069D01*
X2599500Y-18719071D01*
X2599499Y-18719071D01*
X2624497Y-18844738D01*
X2624499Y-18844744D01*
X2673533Y-18963124D01*
X2673538Y-18963133D01*
X2744723Y-19069668D01*
X2744726Y-19069672D01*
X2835327Y-19160273D01*
X2835331Y-19160276D01*
X2941866Y-19231461D01*
X2941872Y-19231464D01*
X2941873Y-19231465D01*
X3060256Y-19280501D01*
X3060260Y-19280501D01*
X3060261Y-19280502D01*
X3185928Y-19305500D01*
X3185931Y-19305500D01*
X3314071Y-19305500D01*
X3400622Y-19288283D01*
X3439744Y-19280501D01*
X3558127Y-19231465D01*
X3583767Y-19214333D01*
X3640541Y-19176398D01*
X3707218Y-19155520D01*
X3709432Y-19155500D01*
X7069418Y-19155500D01*
X7136457Y-19175185D01*
X7182212Y-19227989D01*
X7192156Y-19297147D01*
X7175373Y-19340945D01*
X7176408Y-19341498D01*
X7173533Y-19346875D01*
X7124499Y-19465255D01*
X7124497Y-19465261D01*
X7099500Y-19590928D01*
X7099500Y-19590931D01*
X7099500Y-19719069D01*
X7099500Y-19719071D01*
X7099499Y-19719071D01*
X7124497Y-19844737D01*
X7124499Y-19844744D01*
X7137687Y-19876584D01*
X7145154Y-19946053D01*
X7135926Y-19975530D01*
X5489838Y-23581248D01*
X5444091Y-23634058D01*
X5424491Y-23644313D01*
X5341872Y-23678535D01*
X5341866Y-23678538D01*
X5235331Y-23749723D01*
X5235327Y-23749726D01*
X5144726Y-23840327D01*
X5144723Y-23840331D01*
X5073538Y-23946866D01*
X5073533Y-23946875D01*
X5024499Y-24065255D01*
X5024497Y-24065261D01*
X4999500Y-24190928D01*
X4999500Y-24319073D01*
X5014938Y-24396684D01*
X5008711Y-24466275D01*
X4965848Y-24521453D01*
X4899958Y-24544697D01*
X4845868Y-24535436D01*
X4822844Y-24525899D01*
X4822838Y-24525897D01*
X4697171Y-24500900D01*
X4697169Y-24500900D01*
X4569031Y-24500900D01*
X4569026Y-24500900D01*
X4451416Y-24524294D01*
X4381824Y-24518067D01*
X4326647Y-24475203D01*
X4305607Y-24426867D01*
X4302801Y-24412756D01*
X4253765Y-24294373D01*
X4253764Y-24294372D01*
X4253761Y-24294366D01*
X4182576Y-24187831D01*
X4182573Y-24187827D01*
X4091972Y-24097226D01*
X4091968Y-24097223D01*
X3985433Y-24026038D01*
X3985423Y-24026033D01*
X3878882Y-23981902D01*
X3824479Y-23938061D01*
X3802414Y-23871766D01*
X3819693Y-23804067D01*
X3857713Y-23766501D01*
X3856916Y-23765463D01*
X3863357Y-23760519D01*
X3863365Y-23760515D01*
X3970515Y-23653365D01*
X4046281Y-23522135D01*
X4085500Y-23375766D01*
X4085500Y-23224234D01*
X4046281Y-23077865D01*
X3970515Y-22946635D01*
X3863365Y-22839485D01*
X3797750Y-22801602D01*
X3732136Y-22763719D01*
X3658950Y-22744109D01*
X3585766Y-22724500D01*
X3434234Y-22724500D01*
X3287863Y-22763719D01*
X3156635Y-22839485D01*
X3156632Y-22839487D01*
X3062439Y-22933681D01*
X3001116Y-22967166D01*
X2974758Y-22970000D01*
X2380000Y-22970000D01*
X2380000Y-22570000D01*
X2980000Y-22570000D01*
X2980000Y-22131357D01*
X2979999Y-22131353D01*
X2945415Y-21957487D01*
X2945413Y-21957479D01*
X2877571Y-21793692D01*
X2877566Y-21793683D01*
X2779076Y-21646283D01*
X2779073Y-21646279D01*
X2653720Y-21520926D01*
X2653716Y-21520923D01*
X2506316Y-21422433D01*
X2506307Y-21422428D01*
X2342520Y-21354586D01*
X2342512Y-21354584D01*
X2280000Y-21342149D01*
X2280000Y-21995735D01*
X2264205Y-21979940D01*
X2195796Y-21940444D01*
X2119496Y-21920000D01*
X2040504Y-21920000D01*
X1964204Y-21940444D01*
X1895795Y-21979940D01*
X1880000Y-21995735D01*
X1880000Y-21342149D01*
X1817487Y-21354584D01*
X1817479Y-21354586D01*
X1653692Y-21422428D01*
X1653683Y-21422433D01*
X1506283Y-21520923D01*
X1506279Y-21520926D01*
X1380926Y-21646279D01*
X1380923Y-21646283D01*
X1282433Y-21793683D01*
X1282428Y-21793692D01*
X1214586Y-21957479D01*
X1214584Y-21957487D01*
X1180000Y-22131353D01*
X1180000Y-22570000D01*
X1780000Y-22570000D01*
X1780000Y-22970000D01*
X1180000Y-22970000D01*
X1180000Y-23408646D01*
X1214584Y-23582512D01*
X1214586Y-23582520D01*
X1282428Y-23746307D01*
X1282433Y-23746316D01*
X1380923Y-23893716D01*
X1380926Y-23893720D01*
X1506279Y-24019073D01*
X1506283Y-24019076D01*
X1653683Y-24117566D01*
X1653696Y-24117573D01*
X1817474Y-24185411D01*
X1817482Y-24185413D01*
X1880000Y-24197848D01*
X1880000Y-23544265D01*
X1895795Y-23560060D01*
X1964204Y-23599556D01*
X2040504Y-23620000D01*
X2119496Y-23620000D01*
X2195796Y-23599556D01*
X2264205Y-23560060D01*
X2280000Y-23544265D01*
X2280000Y-24197847D01*
X2342517Y-24185413D01*
X2342525Y-24185411D01*
X2506303Y-24117573D01*
X2506316Y-24117566D01*
X2653716Y-24019076D01*
X2653720Y-24019073D01*
X2779073Y-23893720D01*
X2779076Y-23893716D01*
X2877566Y-23746316D01*
X2877569Y-23746310D01*
X2884124Y-23730484D01*
X2927962Y-23676078D01*
X2994255Y-23654009D01*
X3061955Y-23671285D01*
X3086369Y-23690249D01*
X3156635Y-23760515D01*
X3287863Y-23836280D01*
X3287865Y-23836281D01*
X3295369Y-23839389D01*
X3294475Y-23841545D01*
X3343906Y-23871671D01*
X3374440Y-23934516D01*
X3366150Y-24003892D01*
X3321668Y-24057773D01*
X3321050Y-24058188D01*
X3262633Y-24097221D01*
X3262627Y-24097226D01*
X3172026Y-24187827D01*
X3172023Y-24187831D01*
X3100838Y-24294366D01*
X3100833Y-24294375D01*
X3051799Y-24412755D01*
X3051797Y-24412761D01*
X3026800Y-24538428D01*
X3026800Y-24599889D01*
X3007115Y-24666928D01*
X2990481Y-24687570D01*
X2611295Y-25066755D01*
X2611296Y-25066756D01*
X2549514Y-25128538D01*
X2549513Y-25128540D01*
X2493498Y-25225560D01*
X2493497Y-25225563D01*
X2464500Y-25333782D01*
X2464500Y-25657754D01*
X2444815Y-25724793D01*
X2392011Y-25770548D01*
X2322853Y-25780492D01*
X2316310Y-25779372D01*
X2280000Y-25772149D01*
X2280000Y-26425735D01*
X2264205Y-26409940D01*
X2195796Y-26370444D01*
X2119496Y-26350000D01*
X2040504Y-26350000D01*
X1964204Y-26370444D01*
X1895795Y-26409940D01*
X1880000Y-26425735D01*
X1880000Y-25772149D01*
X1817487Y-25784584D01*
X1817479Y-25784586D01*
X1653692Y-25852428D01*
X1653683Y-25852433D01*
X1506283Y-25950923D01*
X1506279Y-25950926D01*
X1380926Y-26076279D01*
X1380923Y-26076283D01*
X1282433Y-26223683D01*
X1282428Y-26223692D01*
X1214586Y-26387479D01*
X1214584Y-26387487D01*
X1180000Y-26561353D01*
X1180000Y-26750000D01*
X1780000Y-26750000D01*
X1780000Y-27150000D01*
X1180000Y-27150000D01*
X1180000Y-27338646D01*
X1214584Y-27512512D01*
X1214586Y-27512520D01*
X1282428Y-27676307D01*
X1282433Y-27676316D01*
X1380923Y-27823716D01*
X1380926Y-27823720D01*
X1506279Y-27949073D01*
X1506283Y-27949076D01*
X1653683Y-28047566D01*
X1653696Y-28047573D01*
X1817474Y-28115411D01*
X1817482Y-28115413D01*
X1880000Y-28127848D01*
X1880000Y-27474265D01*
X1895795Y-27490060D01*
X1964204Y-27529556D01*
X2040504Y-27550000D01*
X2119496Y-27550000D01*
X2195796Y-27529556D01*
X2264205Y-27490060D01*
X2280000Y-27474265D01*
X2280000Y-28131627D01*
X2313499Y-28180807D01*
X2319500Y-28218913D01*
X2319501Y-28375999D01*
X2299817Y-28443039D01*
X2247013Y-28488794D01*
X2195501Y-28500000D01*
X624000Y-28500000D01*
X556961Y-28480315D01*
X511206Y-28427511D01*
X500000Y-28376000D01*
X500000Y-13637010D01*
X519685Y-13569971D01*
X572489Y-13524216D01*
X641647Y-13514272D01*
X705203Y-13543297D01*
X711681Y-13549329D01*
X1261615Y-14099263D01*
X1340837Y-14178485D01*
X1386998Y-14205136D01*
X1437863Y-14234503D01*
X1546081Y-14263500D01*
X1546082Y-14263500D01*
X1610390Y-14263500D01*
X1677429Y-14283185D01*
X1698071Y-14299819D01*
X1913181Y-14514929D01*
X1946666Y-14576252D01*
X1949500Y-14602610D01*
X1949500Y-15794856D01*
X1949502Y-15794882D01*
X1952413Y-15819987D01*
X1952415Y-15819991D01*
X1997793Y-15922764D01*
X1997794Y-15922765D01*
X2077235Y-16002206D01*
X2180009Y-16047585D01*
X2205135Y-16050500D01*
X3794864Y-16050499D01*
X3794879Y-16050497D01*
X3794882Y-16050497D01*
X3819987Y-16047586D01*
X3819988Y-16047585D01*
X3819991Y-16047585D01*
X3922765Y-16002206D01*
X4002206Y-15922765D01*
X4047585Y-15819991D01*
X4050500Y-15794865D01*
X4050499Y-14205136D01*
X4050499Y-14205135D01*
X4050497Y-14205117D01*
X4047586Y-14180012D01*
X4047585Y-14180010D01*
X4047585Y-14180009D01*
X4002206Y-14077235D01*
X3922765Y-13997794D01*
X3917040Y-13995266D01*
X3819992Y-13952415D01*
X3794868Y-13949500D01*
X3794865Y-13949500D01*
X2602610Y-13949500D01*
X2535571Y-13929815D01*
X2514929Y-13913181D01*
X2099265Y-13497517D01*
X2099263Y-13497515D01*
X2002237Y-13441497D01*
X1894018Y-13412500D01*
X1894017Y-13412500D01*
X1829710Y-13412500D01*
X1762671Y-13392815D01*
X1742029Y-13376181D01*
X1377219Y-13011371D01*
X1343734Y-12950048D01*
X1340900Y-12923690D01*
X1340900Y-5774000D01*
X1360585Y-5706961D01*
X1413389Y-5661206D01*
X1464900Y-5650000D01*
X1862500Y-5650000D01*
X1862500Y-5074000D01*
X1865050Y-5065314D01*
X1863762Y-5056353D01*
X1874740Y-5032312D01*
X1882185Y-5006961D01*
X1889025Y-5001033D01*
X1892787Y-4992797D01*
X1915021Y-4978507D01*
X1934989Y-4961206D01*
X1945503Y-4958918D01*
X1951565Y-4955023D01*
X1986500Y-4950000D01*
X2138500Y-4950000D01*
X2205539Y-4969685D01*
X2251294Y-5022489D01*
X2262500Y-5074000D01*
X2262500Y-5650000D01*
X2693054Y-5650000D01*
X2781443Y-5639386D01*
X2922095Y-5583920D01*
X3042564Y-5492564D01*
X3133921Y-5372093D01*
X3144724Y-5344699D01*
X3187628Y-5289554D01*
X3253536Y-5266360D01*
X3321520Y-5282479D01*
X3347760Y-5302506D01*
X3399827Y-5354573D01*
X3399831Y-5354576D01*
X3506366Y-5425761D01*
X3506372Y-5425764D01*
X3506373Y-5425765D01*
X3624756Y-5474801D01*
X3624760Y-5474801D01*
X3624761Y-5474802D01*
X3750428Y-5499800D01*
X3750431Y-5499800D01*
X3878571Y-5499800D01*
X3972246Y-5481166D01*
X4004244Y-5474801D01*
X4122627Y-5425765D01*
X4229169Y-5354576D01*
X4272625Y-5311120D01*
X4333948Y-5277634D01*
X4360307Y-5274800D01*
X5060290Y-5274800D01*
X5127329Y-5294485D01*
X5147971Y-5311119D01*
X6368981Y-6532129D01*
X6402466Y-6593452D01*
X6405300Y-6619810D01*
X6405300Y-9457390D01*
X6396655Y-9486830D01*
X6390132Y-9516817D01*
X6386377Y-9521832D01*
X6385615Y-9524429D01*
X6368981Y-9545071D01*
X6242471Y-9671581D01*
X6181148Y-9705066D01*
X6154790Y-9707900D01*
X4656898Y-9707900D01*
X4589859Y-9688215D01*
X4544104Y-9635411D01*
X4539857Y-9624855D01*
X4534381Y-9609207D01*
X4534381Y-9609206D01*
X4478164Y-9533035D01*
X4456423Y-9503576D01*
X4351997Y-9426507D01*
X4350794Y-9425619D01*
X4350792Y-9425618D01*
X4226880Y-9382258D01*
X4197461Y-9379500D01*
X3822546Y-9379500D01*
X3793125Y-9382258D01*
X3793115Y-9382260D01*
X3660435Y-9428688D01*
X3659672Y-9426507D01*
X3603953Y-9437829D01*
X3538831Y-9412513D01*
X3497733Y-9356009D01*
X3490500Y-9314278D01*
X3490500Y-8794839D01*
X3510185Y-8727800D01*
X3562989Y-8682045D01*
X3632147Y-8672101D01*
X3659991Y-8679485D01*
X3710944Y-8699578D01*
X3780000Y-8707870D01*
X3780000Y-8707869D01*
X4180000Y-8707869D01*
X4249052Y-8699579D01*
X4387150Y-8645120D01*
X4505428Y-8555428D01*
X4595120Y-8437150D01*
X4595123Y-8437144D01*
X4649578Y-8299056D01*
X4660000Y-8212270D01*
X4660000Y-8200000D01*
X4180000Y-8200000D01*
X4180000Y-8707869D01*
X3780000Y-8707869D01*
X3780000Y-7800000D01*
X4180000Y-7800000D01*
X4659999Y-7800000D01*
X4659999Y-7787729D01*
X4649579Y-7700945D01*
X4649577Y-7700941D01*
X4595123Y-7562855D01*
X4595120Y-7562849D01*
X4505428Y-7444571D01*
X4387150Y-7354879D01*
X4387144Y-7354876D01*
X4249060Y-7300422D01*
X4249052Y-7300420D01*
X4180000Y-7292127D01*
X4180000Y-7800000D01*
X3780000Y-7800000D01*
X3780000Y-7292129D01*
X3755857Y-7270713D01*
X3718769Y-7211499D01*
X3716529Y-7153755D01*
X3720500Y-7133795D01*
X3720500Y-6995804D01*
X3693581Y-6860477D01*
X3693580Y-6860476D01*
X3693580Y-6860472D01*
X3682871Y-6834617D01*
X3640778Y-6732995D01*
X3640771Y-6732982D01*
X3564114Y-6618258D01*
X3564111Y-6618254D01*
X3466545Y-6520688D01*
X3466541Y-6520685D01*
X3351817Y-6444028D01*
X3351804Y-6444021D01*
X3224332Y-6391221D01*
X3224322Y-6391218D01*
X3088995Y-6364300D01*
X3088993Y-6364300D01*
X2951007Y-6364300D01*
X2951005Y-6364300D01*
X2815677Y-6391218D01*
X2815667Y-6391221D01*
X2688195Y-6444021D01*
X2688182Y-6444028D01*
X2573458Y-6520685D01*
X2573454Y-6520688D01*
X2475888Y-6618254D01*
X2475885Y-6618258D01*
X2399228Y-6732982D01*
X2399221Y-6732995D01*
X2346421Y-6860467D01*
X2346418Y-6860477D01*
X2319500Y-6995804D01*
X2319500Y-6995807D01*
X2319500Y-7133793D01*
X2319500Y-7133795D01*
X2319499Y-7133795D01*
X2346418Y-7269122D01*
X2346421Y-7269132D01*
X2399221Y-7396604D01*
X2399228Y-7396617D01*
X2473622Y-7507955D01*
X2494500Y-7574633D01*
X2487562Y-7617801D01*
X2442290Y-7747180D01*
X2442289Y-7747185D01*
X2439500Y-7776929D01*
X2439500Y-8223070D01*
X2442289Y-8252814D01*
X2442291Y-8252823D01*
X2457576Y-8296505D01*
X2482541Y-8367850D01*
X2489500Y-8408803D01*
X2489500Y-9536045D01*
X2469815Y-9603084D01*
X2465694Y-9609062D01*
X2465619Y-9609205D01*
X2422258Y-9733118D01*
X2422258Y-9733120D01*
X2419500Y-9762536D01*
X2419500Y-10237453D01*
X2422258Y-10266874D01*
X2422260Y-10266884D01*
X2465618Y-10390792D01*
X2465619Y-10390794D01*
X2490761Y-10424860D01*
X2543576Y-10496423D01*
X2643789Y-10570383D01*
X2686039Y-10626030D01*
X2691498Y-10695686D01*
X2677542Y-10732152D01*
X2623500Y-10825756D01*
X2623497Y-10825763D01*
X2594500Y-10933982D01*
X2594500Y-11434228D01*
X2574815Y-11501267D01*
X2570270Y-11507862D01*
X2486147Y-11621844D01*
X2442291Y-11747173D01*
X2442289Y-11747185D01*
X2439500Y-11776929D01*
X2439500Y-12223070D01*
X2442289Y-12252814D01*
X2442291Y-12252826D01*
X2486147Y-12378155D01*
X2486148Y-12378157D01*
X2565001Y-12484999D01*
X2671843Y-12563852D01*
X2701076Y-12574081D01*
X2797173Y-12607708D01*
X2797177Y-12607708D01*
X2797181Y-12607710D01*
X2812057Y-12609105D01*
X2826930Y-12610500D01*
X2826934Y-12610500D01*
X3213070Y-12610500D01*
X3226289Y-12609260D01*
X3242819Y-12607710D01*
X3368157Y-12563852D01*
X3368160Y-12563849D01*
X3372051Y-12562488D01*
X3441829Y-12558925D01*
X3487933Y-12580725D01*
X3572853Y-12645122D01*
X3572855Y-12645123D01*
X3710941Y-12699577D01*
X3710945Y-12699578D01*
X3780000Y-12707870D01*
X3780000Y-12707869D01*
X4180000Y-12707869D01*
X4249052Y-12699579D01*
X4387150Y-12645120D01*
X4505428Y-12555428D01*
X4595120Y-12437150D01*
X4595123Y-12437144D01*
X4649578Y-12299056D01*
X4660000Y-12212270D01*
X4660000Y-12200000D01*
X4180000Y-12200000D01*
X4180000Y-12707869D01*
X3780000Y-12707869D01*
X3780000Y-11800000D01*
X4180000Y-11800000D01*
X4659999Y-11800000D01*
X4659999Y-11787729D01*
X4649579Y-11700945D01*
X4649577Y-11700941D01*
X4595123Y-11562855D01*
X4595120Y-11562849D01*
X4505428Y-11444571D01*
X4387150Y-11354879D01*
X4387144Y-11354876D01*
X4249060Y-11300422D01*
X4249052Y-11300420D01*
X4180000Y-11292127D01*
X4180000Y-11800000D01*
X3780000Y-11800000D01*
X3780000Y-11292129D01*
X3710946Y-11300420D01*
X3614990Y-11338261D01*
X3583318Y-11341119D01*
X3551853Y-11345644D01*
X3548773Y-11344237D01*
X3545403Y-11344542D01*
X3517221Y-11329828D01*
X3488297Y-11316619D01*
X3486466Y-11313771D01*
X3483467Y-11312205D01*
X3467715Y-11284592D01*
X3450523Y-11257841D01*
X3449872Y-11253314D01*
X3448846Y-11251516D01*
X3445500Y-11222906D01*
X3445500Y-11217609D01*
X3465185Y-11150570D01*
X3481815Y-11129932D01*
X3954929Y-10656817D01*
X4016252Y-10623333D01*
X4042610Y-10620499D01*
X4197454Y-10620499D01*
X4197456Y-10620499D01*
X4226879Y-10617741D01*
X4350794Y-10574381D01*
X4350796Y-10574379D01*
X4352899Y-10573269D01*
X4356584Y-10572355D01*
X4359565Y-10571312D01*
X4359662Y-10571591D01*
X4410838Y-10558900D01*
X6438416Y-10558900D01*
X6438418Y-10558900D01*
X6546637Y-10529903D01*
X6643663Y-10473885D01*
X7081856Y-10035689D01*
X7081861Y-10035686D01*
X7092061Y-10025485D01*
X7092063Y-10025485D01*
X7171285Y-9946263D01*
X7227303Y-9849237D01*
X7250532Y-9762544D01*
X7256300Y-9741019D01*
X7256300Y-9628982D01*
X7256300Y-6336182D01*
X7227303Y-6227963D01*
X7171285Y-6130937D01*
X7092063Y-6051715D01*
X6652529Y-5612181D01*
X6619044Y-5550858D01*
X6624028Y-5481166D01*
X6665900Y-5425233D01*
X6731364Y-5400816D01*
X6740210Y-5400500D01*
X7116138Y-5400500D01*
X7116144Y-5400500D01*
X7200590Y-5390359D01*
X7334975Y-5337364D01*
X7450078Y-5250078D01*
X7524619Y-5151781D01*
X7580809Y-5110260D01*
X7650530Y-5105708D01*
X7670872Y-5112147D01*
X7684875Y-5117947D01*
X7708366Y-5127678D01*
X7708369Y-5127678D01*
X7708372Y-5127680D01*
X7708376Y-5127680D01*
X7708377Y-5127681D01*
X7843704Y-5154600D01*
X7843707Y-5154600D01*
X7981695Y-5154600D01*
X8080354Y-5134975D01*
X8117028Y-5127680D01*
X8244511Y-5074875D01*
X8359242Y-4998214D01*
X8456814Y-4900642D01*
X8533475Y-4785911D01*
X8537196Y-4776929D01*
X8561481Y-4718299D01*
X8586280Y-4658428D01*
X8606651Y-4556019D01*
X8613200Y-4523095D01*
X8613200Y-4385104D01*
X8586281Y-4249777D01*
X8586280Y-4249776D01*
X8586280Y-4249772D01*
X8557483Y-4180251D01*
X8550015Y-4110784D01*
X8581290Y-4048304D01*
X8641379Y-4012652D01*
X8672045Y-4008800D01*
X9005690Y-4008800D01*
X9072729Y-4028485D01*
G37*
G04 #@! TD.AperFunction*
G04 #@! TA.AperFunction,Conductor*
G36*
X37943039Y-519685D02*
G01*
X37988794Y-572489D01*
X38000000Y-624000D01*
X38000000Y-28376000D01*
X37980315Y-28443039D01*
X37927511Y-28488794D01*
X37876000Y-28500000D01*
X10704000Y-28500000D01*
X10636961Y-28480315D01*
X10591206Y-28427511D01*
X10586672Y-28406672D01*
X10580000Y-28400000D01*
X10034000Y-28400000D01*
X10025314Y-28397449D01*
X10016353Y-28398738D01*
X9992312Y-28387759D01*
X9966961Y-28380315D01*
X9961033Y-28373474D01*
X9952797Y-28369713D01*
X9938507Y-28347478D01*
X9921206Y-28327511D01*
X9918918Y-28316996D01*
X9915023Y-28310935D01*
X9910000Y-28276000D01*
X9910000Y-28124000D01*
X9929685Y-28056961D01*
X9982489Y-28011206D01*
X10034000Y-28000000D01*
X10520000Y-28000000D01*
X10520000Y-27474265D01*
X10535795Y-27490060D01*
X10604204Y-27529556D01*
X10680504Y-27550000D01*
X10759496Y-27550000D01*
X10835796Y-27529556D01*
X10904205Y-27490060D01*
X10920000Y-27474265D01*
X10920000Y-28127847D01*
X10982517Y-28115413D01*
X10982525Y-28115411D01*
X11146303Y-28047573D01*
X11146316Y-28047566D01*
X11293716Y-27949076D01*
X11293720Y-27949073D01*
X11419073Y-27823720D01*
X11419076Y-27823716D01*
X11517566Y-27676316D01*
X11517571Y-27676307D01*
X11585413Y-27512520D01*
X11585415Y-27512512D01*
X11619999Y-27338646D01*
X11620000Y-27338643D01*
X11620000Y-27150000D01*
X11020000Y-27150000D01*
X11020000Y-26750000D01*
X11620000Y-26750000D01*
X11620000Y-26561357D01*
X11619999Y-26561353D01*
X11585415Y-26387487D01*
X11585413Y-26387479D01*
X11517571Y-26223692D01*
X11517566Y-26223683D01*
X11419076Y-26076283D01*
X11419073Y-26076279D01*
X11293720Y-25950926D01*
X11293716Y-25950923D01*
X11146316Y-25852433D01*
X11146307Y-25852428D01*
X10982520Y-25784586D01*
X10982512Y-25784584D01*
X10920000Y-25772149D01*
X10920000Y-26425735D01*
X10904205Y-26409940D01*
X10835796Y-26370444D01*
X10759496Y-26350000D01*
X10680504Y-26350000D01*
X10604204Y-26370444D01*
X10535795Y-26409940D01*
X10520000Y-26425735D01*
X10520000Y-25772149D01*
X10457487Y-25784584D01*
X10457479Y-25784586D01*
X10293692Y-25852428D01*
X10293683Y-25852433D01*
X10146283Y-25950923D01*
X10146279Y-25950926D01*
X10020926Y-26076279D01*
X10020923Y-26076283D01*
X9922433Y-26223683D01*
X9922428Y-26223692D01*
X9854586Y-26387479D01*
X9854584Y-26387487D01*
X9820000Y-26561353D01*
X9820000Y-26750000D01*
X10420000Y-26750000D01*
X10420000Y-27150000D01*
X9820000Y-27150000D01*
X9820000Y-27338643D01*
X9820597Y-27344705D01*
X9818440Y-27344917D01*
X9813077Y-27404776D01*
X9770208Y-27459948D01*
X9712477Y-27482478D01*
X9701385Y-27483810D01*
X9632476Y-27472259D01*
X9580752Y-27425287D01*
X9562600Y-27360695D01*
X9562600Y-24337884D01*
X9562600Y-24337882D01*
X9533603Y-24229663D01*
X9477585Y-24132637D01*
X9403025Y-24058077D01*
X9369540Y-23996754D01*
X9374524Y-23927062D01*
X9416396Y-23871129D01*
X9458610Y-23850622D01*
X9512135Y-23836281D01*
X9643365Y-23760515D01*
X9713633Y-23690246D01*
X9774952Y-23656764D01*
X9844644Y-23661748D01*
X9900578Y-23703619D01*
X9915873Y-23730479D01*
X9922429Y-23746309D01*
X9922433Y-23746316D01*
X10020923Y-23893716D01*
X10020926Y-23893720D01*
X10146279Y-24019073D01*
X10146283Y-24019076D01*
X10293683Y-24117566D01*
X10293696Y-24117573D01*
X10457474Y-24185411D01*
X10457482Y-24185413D01*
X10520000Y-24197848D01*
X10520000Y-23544265D01*
X10535795Y-23560060D01*
X10604204Y-23599556D01*
X10680504Y-23620000D01*
X10759496Y-23620000D01*
X10835796Y-23599556D01*
X10904205Y-23560060D01*
X10920000Y-23544265D01*
X10920000Y-24197847D01*
X10982517Y-24185413D01*
X10982525Y-24185411D01*
X11146303Y-24117573D01*
X11146316Y-24117566D01*
X11293716Y-24019076D01*
X11293720Y-24019073D01*
X11419073Y-23893720D01*
X11419079Y-23893712D01*
X11514928Y-23750265D01*
X11568540Y-23705459D01*
X11637865Y-23696752D01*
X11700892Y-23726906D01*
X11735070Y-23778198D01*
X11747207Y-23812882D01*
X11827850Y-23922150D01*
X11937118Y-24002793D01*
X11979845Y-24017744D01*
X12065299Y-24047646D01*
X12095730Y-24050500D01*
X12095734Y-24050500D01*
X13229270Y-24050500D01*
X13249554Y-24048597D01*
X13259699Y-24047646D01*
X13319665Y-24026662D01*
X13327431Y-24026266D01*
X13334259Y-24022538D01*
X13361830Y-24024509D01*
X13389441Y-24023100D01*
X13396192Y-24026967D01*
X13403951Y-24027522D01*
X13426080Y-24044087D01*
X13450069Y-24057828D01*
X13453657Y-24064730D01*
X13459885Y-24069392D01*
X13469546Y-24095295D01*
X13482297Y-24119821D01*
X13481584Y-24127566D01*
X13484303Y-24134856D01*
X13478426Y-24161871D01*
X13475893Y-24189397D01*
X13470729Y-24197253D01*
X13469452Y-24203129D01*
X13448302Y-24231383D01*
X13417686Y-24262000D01*
X13324502Y-24355183D01*
X13324500Y-24355186D01*
X13258608Y-24469312D01*
X13234554Y-24559084D01*
X13198188Y-24618745D01*
X13189706Y-24625793D01*
X13124921Y-24674922D01*
X13037636Y-24790023D01*
X12984640Y-24924411D01*
X12980168Y-24961656D01*
X12974500Y-25008856D01*
X12974500Y-25591144D01*
X12977654Y-25617409D01*
X12984640Y-25675588D01*
X13037636Y-25809976D01*
X13124921Y-25925078D01*
X13240023Y-26012363D01*
X13240024Y-26012363D01*
X13240025Y-26012364D01*
X13374410Y-26065359D01*
X13458856Y-26075500D01*
X13475259Y-26075500D01*
X13542298Y-26095185D01*
X13588053Y-26147989D01*
X13597997Y-26217147D01*
X13596876Y-26223691D01*
X13587500Y-26270826D01*
X13587500Y-26270831D01*
X13587500Y-26398969D01*
X13587500Y-26398971D01*
X13587499Y-26398971D01*
X13612497Y-26524638D01*
X13612499Y-26524644D01*
X13661533Y-26643024D01*
X13661538Y-26643033D01*
X13732723Y-26749568D01*
X13732726Y-26749572D01*
X13823327Y-26840173D01*
X13823331Y-26840176D01*
X13929866Y-26911361D01*
X13929872Y-26911364D01*
X13929873Y-26911365D01*
X14048256Y-26960401D01*
X14048260Y-26960401D01*
X14048261Y-26960402D01*
X14173928Y-26985400D01*
X14173931Y-26985400D01*
X14302071Y-26985400D01*
X14386615Y-26968582D01*
X14427744Y-26960401D01*
X14546127Y-26911365D01*
X14652669Y-26840176D01*
X14743276Y-26749569D01*
X14814465Y-26643027D01*
X14863501Y-26524644D01*
X14883767Y-26422764D01*
X14888500Y-26398971D01*
X14888500Y-26299000D01*
X14908185Y-26231961D01*
X14960989Y-26186206D01*
X15012500Y-26175000D01*
X15075000Y-26175000D01*
X15075000Y-25424000D01*
X15077550Y-25415314D01*
X15076262Y-25406353D01*
X15087240Y-25382312D01*
X15094685Y-25356961D01*
X15101525Y-25351033D01*
X15105287Y-25342797D01*
X15127521Y-25328507D01*
X15147489Y-25311206D01*
X15158003Y-25308918D01*
X15164065Y-25305023D01*
X15199000Y-25300000D01*
X15351000Y-25300000D01*
X15418039Y-25319685D01*
X15463794Y-25372489D01*
X15475000Y-25424000D01*
X15475000Y-26175000D01*
X15563106Y-26175000D01*
X15563118Y-26174999D01*
X15598547Y-26172211D01*
X15598553Y-26172210D01*
X15750185Y-26128156D01*
X15750188Y-26128155D01*
X15886108Y-26047773D01*
X15886116Y-26047767D01*
X15997767Y-25936116D01*
X15997774Y-25936107D01*
X16011611Y-25912710D01*
X16062679Y-25865025D01*
X16131421Y-25852520D01*
X16162632Y-25862039D01*
X16163072Y-25860783D01*
X16297173Y-25907708D01*
X16297177Y-25907708D01*
X16297181Y-25907710D01*
X16312057Y-25909105D01*
X16326930Y-25910500D01*
X16326934Y-25910500D01*
X16713070Y-25910500D01*
X16726289Y-25909260D01*
X16742819Y-25907710D01*
X16868157Y-25863852D01*
X16868160Y-25863849D01*
X16872051Y-25862488D01*
X16941829Y-25858925D01*
X16987933Y-25880725D01*
X17072853Y-25945122D01*
X17072855Y-25945123D01*
X17210941Y-25999577D01*
X17210945Y-25999578D01*
X17280000Y-26007870D01*
X17280000Y-26007869D01*
X17680000Y-26007869D01*
X17749052Y-25999579D01*
X17887150Y-25945120D01*
X18005428Y-25855428D01*
X18095120Y-25737150D01*
X18095123Y-25737144D01*
X18149578Y-25599056D01*
X18160000Y-25512270D01*
X18160000Y-25500000D01*
X17680000Y-25500000D01*
X17680000Y-26007869D01*
X17280000Y-26007869D01*
X17280000Y-25424000D01*
X17299685Y-25356961D01*
X17352489Y-25311206D01*
X17404000Y-25300000D01*
X17480000Y-25300000D01*
X17480000Y-25224000D01*
X17499685Y-25156961D01*
X17552489Y-25111206D01*
X17604000Y-25100000D01*
X18159999Y-25100000D01*
X18159999Y-25087729D01*
X18154026Y-25037982D01*
X18165579Y-24969074D01*
X18212552Y-24917351D01*
X18277142Y-24899200D01*
X26008324Y-24899200D01*
X26075363Y-24918885D01*
X26096005Y-24935519D01*
X26967800Y-25807314D01*
X27060986Y-25900500D01*
X27143605Y-25948200D01*
X27148326Y-25950926D01*
X27175114Y-25966392D01*
X27302407Y-26000500D01*
X27302408Y-26000500D01*
X27325501Y-26000500D01*
X27392540Y-26020185D01*
X27438295Y-26072989D01*
X27449501Y-26124500D01*
X27449501Y-26294856D01*
X27449502Y-26294882D01*
X27452413Y-26319987D01*
X27452415Y-26319991D01*
X27497793Y-26422764D01*
X27497794Y-26422765D01*
X27577235Y-26502206D01*
X27680009Y-26547585D01*
X27705135Y-26550500D01*
X29294864Y-26550499D01*
X29294879Y-26550497D01*
X29294882Y-26550497D01*
X29319987Y-26547586D01*
X29319988Y-26547585D01*
X29319991Y-26547585D01*
X29422765Y-26502206D01*
X29502206Y-26422765D01*
X29547585Y-26319991D01*
X29550500Y-26294865D01*
X29550500Y-26281479D01*
X30050001Y-26281479D01*
X30064835Y-26375149D01*
X30064837Y-26375155D01*
X30122356Y-26488041D01*
X30122363Y-26488050D01*
X30211949Y-26577636D01*
X30211953Y-26577639D01*
X30324855Y-26635166D01*
X30418514Y-26649999D01*
X30999999Y-26649999D01*
X31000000Y-26649998D01*
X31000000Y-25700000D01*
X30050001Y-25700000D01*
X30050001Y-26281479D01*
X29550500Y-26281479D01*
X29550499Y-25500000D01*
X29550499Y-24718513D01*
X30050000Y-24718513D01*
X30050000Y-25300000D01*
X31000000Y-25300000D01*
X31000000Y-24350000D01*
X31400000Y-24350000D01*
X31400000Y-26649999D01*
X31981479Y-26649999D01*
X32075149Y-26635164D01*
X32075155Y-26635162D01*
X32188041Y-26577643D01*
X32188050Y-26577636D01*
X32277636Y-26488050D01*
X32277639Y-26488046D01*
X32335166Y-26375144D01*
X32349999Y-26281485D01*
X32349999Y-25907809D01*
X32369683Y-25840770D01*
X32422487Y-25795015D01*
X32491646Y-25785071D01*
X32555201Y-25814096D01*
X32561680Y-25820128D01*
X32582037Y-25840485D01*
X32679063Y-25896503D01*
X32757595Y-25917545D01*
X32817254Y-25953908D01*
X32847784Y-26016755D01*
X32849501Y-26037319D01*
X32849501Y-26294856D01*
X32849502Y-26294882D01*
X32852413Y-26319987D01*
X32852415Y-26319991D01*
X32897793Y-26422764D01*
X32897794Y-26422765D01*
X32977235Y-26502206D01*
X33080009Y-26547585D01*
X33105135Y-26550500D01*
X34694864Y-26550499D01*
X34694879Y-26550497D01*
X34694882Y-26550497D01*
X34719987Y-26547586D01*
X34719988Y-26547585D01*
X34719991Y-26547585D01*
X34822765Y-26502206D01*
X34902206Y-26422765D01*
X34947585Y-26319991D01*
X34950500Y-26294865D01*
X34950499Y-24705136D01*
X34950499Y-24705135D01*
X34950499Y-24705131D01*
X35549500Y-24705131D01*
X35549500Y-26294856D01*
X35549502Y-26294882D01*
X35552413Y-26319987D01*
X35552415Y-26319991D01*
X35597793Y-26422764D01*
X35597794Y-26422765D01*
X35677235Y-26502206D01*
X35780009Y-26547585D01*
X35805135Y-26550500D01*
X37394864Y-26550499D01*
X37394879Y-26550497D01*
X37394882Y-26550497D01*
X37419987Y-26547586D01*
X37419988Y-26547585D01*
X37419991Y-26547585D01*
X37522765Y-26502206D01*
X37602206Y-26422765D01*
X37647585Y-26319991D01*
X37650500Y-26294865D01*
X37650499Y-24705136D01*
X37650363Y-24703960D01*
X37647586Y-24680012D01*
X37647585Y-24680010D01*
X37647585Y-24680009D01*
X37602206Y-24577235D01*
X37522765Y-24497794D01*
X37522763Y-24497793D01*
X37419992Y-24452415D01*
X37394868Y-24449500D01*
X37394865Y-24449500D01*
X37285224Y-24449500D01*
X37218185Y-24429815D01*
X37172430Y-24377011D01*
X37162486Y-24307853D01*
X37163607Y-24301309D01*
X37173499Y-24251573D01*
X37173500Y-24251571D01*
X37173500Y-24123428D01*
X37148502Y-23997761D01*
X37148501Y-23997760D01*
X37148501Y-23997756D01*
X37105406Y-23893716D01*
X37099466Y-23879375D01*
X37099461Y-23879366D01*
X37028276Y-23772831D01*
X37028273Y-23772827D01*
X36937672Y-23682226D01*
X36937668Y-23682223D01*
X36831133Y-23611038D01*
X36831124Y-23611033D01*
X36712744Y-23561999D01*
X36712738Y-23561997D01*
X36587071Y-23537000D01*
X36587069Y-23537000D01*
X36458931Y-23537000D01*
X36458929Y-23537000D01*
X36333261Y-23561997D01*
X36333255Y-23561999D01*
X36214875Y-23611033D01*
X36214866Y-23611038D01*
X36108331Y-23682223D01*
X36108327Y-23682226D01*
X36017726Y-23772827D01*
X36017723Y-23772831D01*
X35946538Y-23879366D01*
X35946533Y-23879375D01*
X35897499Y-23997755D01*
X35897497Y-23997761D01*
X35872500Y-24123428D01*
X35872500Y-24123431D01*
X35872500Y-24251569D01*
X35872500Y-24251571D01*
X35872499Y-24251571D01*
X35883232Y-24305524D01*
X35877005Y-24375116D01*
X35834142Y-24430293D01*
X35788482Y-24448013D01*
X35789013Y-24449965D01*
X35780008Y-24452415D01*
X35677235Y-24497793D01*
X35597794Y-24577234D01*
X35552415Y-24680006D01*
X35552415Y-24680008D01*
X35549500Y-24705131D01*
X34950499Y-24705131D01*
X34950499Y-24705130D01*
X34947586Y-24680012D01*
X34947585Y-24680010D01*
X34947585Y-24680009D01*
X34902206Y-24577235D01*
X34822765Y-24497794D01*
X34822763Y-24497793D01*
X34719992Y-24452415D01*
X34694868Y-24449500D01*
X34694865Y-24449500D01*
X33567800Y-24449500D01*
X33500761Y-24429815D01*
X33455006Y-24377011D01*
X33443800Y-24325500D01*
X33443800Y-24258445D01*
X33443800Y-24258443D01*
X33402877Y-24105716D01*
X33397974Y-24097223D01*
X33323824Y-23968790D01*
X33323818Y-23968782D01*
X33212017Y-23856981D01*
X33212009Y-23856975D01*
X33075090Y-23777926D01*
X33075086Y-23777924D01*
X33075084Y-23777923D01*
X32922357Y-23737000D01*
X32764243Y-23737000D01*
X32611516Y-23777923D01*
X32611509Y-23777926D01*
X32474590Y-23856975D01*
X32474582Y-23856981D01*
X32362781Y-23968782D01*
X32362775Y-23968790D01*
X32283726Y-24105709D01*
X32283723Y-24105716D01*
X32242799Y-24258446D01*
X32241949Y-24264902D01*
X32213677Y-24328796D01*
X32155349Y-24367262D01*
X32085484Y-24368088D01*
X32080690Y-24366636D01*
X32075144Y-24364833D01*
X31981486Y-24350000D01*
X31400000Y-24350000D01*
X31000000Y-24350000D01*
X30418520Y-24350000D01*
X30324850Y-24364835D01*
X30324844Y-24364837D01*
X30211958Y-24422356D01*
X30211949Y-24422363D01*
X30122363Y-24511949D01*
X30122360Y-24511953D01*
X30064833Y-24624855D01*
X30050000Y-24718513D01*
X29550499Y-24718513D01*
X29550499Y-24713647D01*
X29550499Y-24705143D01*
X29550499Y-24705136D01*
X29550363Y-24703960D01*
X29547586Y-24680012D01*
X29547585Y-24680010D01*
X29547585Y-24680009D01*
X29502206Y-24577235D01*
X29422765Y-24497794D01*
X29422763Y-24497793D01*
X29319992Y-24452415D01*
X29294865Y-24449500D01*
X27705143Y-24449500D01*
X27705117Y-24449502D01*
X27680012Y-24452413D01*
X27680008Y-24452415D01*
X27577235Y-24497793D01*
X27497794Y-24577234D01*
X27465407Y-24650584D01*
X27420321Y-24703960D01*
X27353535Y-24724487D01*
X27286253Y-24705648D01*
X27264292Y-24688178D01*
X26574316Y-23998202D01*
X26574314Y-23998200D01*
X26514986Y-23963947D01*
X26460187Y-23932308D01*
X26396539Y-23915254D01*
X26332892Y-23898200D01*
X26332891Y-23898200D01*
X16689419Y-23898200D01*
X16622380Y-23878515D01*
X16601738Y-23861881D01*
X16594445Y-23854588D01*
X16594441Y-23854585D01*
X16479717Y-23777928D01*
X16479704Y-23777921D01*
X16352232Y-23725121D01*
X16352222Y-23725118D01*
X16216895Y-23698200D01*
X16216893Y-23698200D01*
X16078907Y-23698200D01*
X16078906Y-23698200D01*
X16048689Y-23704210D01*
X15979098Y-23697981D01*
X15923921Y-23655117D01*
X15900678Y-23589227D01*
X15900500Y-23582592D01*
X15900500Y-23245730D01*
X15897646Y-23215300D01*
X15897646Y-23215298D01*
X15852793Y-23087119D01*
X15852792Y-23087117D01*
X15845964Y-23077865D01*
X15772150Y-22977850D01*
X15662882Y-22897207D01*
X15662880Y-22897206D01*
X15534700Y-22852353D01*
X15504270Y-22849500D01*
X15504266Y-22849500D01*
X14392800Y-22849500D01*
X14325761Y-22829815D01*
X14280006Y-22777011D01*
X14268800Y-22725500D01*
X14268800Y-22274500D01*
X14288485Y-22207461D01*
X14341289Y-22161706D01*
X14392800Y-22150500D01*
X15504270Y-22150500D01*
X15534699Y-22147646D01*
X15534701Y-22147646D01*
X15606202Y-22122626D01*
X15662882Y-22102793D01*
X15772150Y-22022150D01*
X15852793Y-21912882D01*
X15875219Y-21848790D01*
X15897646Y-21784701D01*
X15897646Y-21784699D01*
X15900500Y-21754269D01*
X15900500Y-21345730D01*
X15897646Y-21315300D01*
X15897646Y-21315298D01*
X15864006Y-21219163D01*
X15852793Y-21187118D01*
X15772150Y-21077850D01*
X15662882Y-20997207D01*
X15662880Y-20997206D01*
X15534700Y-20952353D01*
X15504270Y-20949500D01*
X15504266Y-20949500D01*
X14370734Y-20949500D01*
X14370730Y-20949500D01*
X14340300Y-20952353D01*
X14340298Y-20952353D01*
X14212119Y-20997206D01*
X14212117Y-20997207D01*
X14102850Y-21077850D01*
X14022207Y-21187117D01*
X14001994Y-21244883D01*
X13961272Y-21301658D01*
X13896319Y-21327405D01*
X13878354Y-21327751D01*
X13865393Y-21327060D01*
X13834192Y-21318700D01*
X13708521Y-21318700D01*
X13705219Y-21318524D01*
X13675254Y-21307963D01*
X13644779Y-21299015D01*
X13642543Y-21296435D01*
X13639322Y-21295300D01*
X13619817Y-21270207D01*
X13599024Y-21246211D01*
X13596727Y-21240503D01*
X13596442Y-21240136D01*
X13596402Y-21239694D01*
X13594777Y-21235655D01*
X13587968Y-21216198D01*
X13577793Y-21187118D01*
X13497150Y-21077850D01*
X13470918Y-21058490D01*
X13428668Y-21002843D01*
X13423210Y-20933187D01*
X13456278Y-20871638D01*
X13456734Y-20871178D01*
X14797577Y-19530334D01*
X14858898Y-19496851D01*
X14870454Y-19494904D01*
X14911321Y-19489997D01*
X15050500Y-19435111D01*
X15169711Y-19344711D01*
X15260111Y-19225500D01*
X15314997Y-19086321D01*
X15325500Y-18998860D01*
X15325500Y-18001140D01*
X15314997Y-17913679D01*
X15303534Y-17884611D01*
X15299241Y-17873724D01*
X15282766Y-17831946D01*
X17200000Y-17831946D01*
X17200000Y-18262500D01*
X17700000Y-18262500D01*
X17700000Y-17325832D01*
X17618557Y-17335613D01*
X17618556Y-17335613D01*
X17477904Y-17391079D01*
X17357435Y-17482435D01*
X17266079Y-17602904D01*
X17210613Y-17743556D01*
X17200000Y-17831946D01*
X15282766Y-17831946D01*
X15260112Y-17774502D01*
X15260111Y-17774500D01*
X15169711Y-17655288D01*
X15050499Y-17564888D01*
X15050497Y-17564887D01*
X14911322Y-17510003D01*
X14898826Y-17508502D01*
X14823860Y-17499500D01*
X14296176Y-17499500D01*
X14229137Y-17479815D01*
X14208495Y-17463181D01*
X11899355Y-15154041D01*
X11865870Y-15092718D01*
X11870854Y-15023026D01*
X11912726Y-14967093D01*
X11978190Y-14942676D01*
X12011228Y-14944743D01*
X12051229Y-14952700D01*
X12051231Y-14952700D01*
X12179371Y-14952700D01*
X12263915Y-14935882D01*
X12305044Y-14927701D01*
X12423427Y-14878665D01*
X12529969Y-14807476D01*
X12620576Y-14716869D01*
X12639086Y-14689165D01*
X12692696Y-14644362D01*
X12762021Y-14635653D01*
X12825049Y-14665807D01*
X12861769Y-14725249D01*
X12861961Y-14725956D01*
X12863522Y-14731781D01*
X12863526Y-14731790D01*
X12942575Y-14868709D01*
X12942579Y-14868714D01*
X12942580Y-14868716D01*
X13054384Y-14980520D01*
X13054386Y-14980521D01*
X13054390Y-14980524D01*
X13191309Y-15059573D01*
X13191316Y-15059577D01*
X13344043Y-15100500D01*
X13344045Y-15100500D01*
X13502155Y-15100500D01*
X13502157Y-15100500D01*
X13654884Y-15059577D01*
X13660422Y-15056380D01*
X13682347Y-15043721D01*
X13750247Y-15027247D01*
X13816275Y-15050099D01*
X13817956Y-15051317D01*
X13849206Y-15074381D01*
X13878459Y-15084617D01*
X13973119Y-15117741D01*
X13980796Y-15118460D01*
X14002543Y-15120500D01*
X14377456Y-15120499D01*
X14406879Y-15117741D01*
X14530794Y-15074381D01*
X14543453Y-15065037D01*
X14609078Y-15041066D01*
X14677249Y-15056380D01*
X14692012Y-15066003D01*
X14810323Y-15155721D01*
X14810325Y-15155722D01*
X14947141Y-15209675D01*
X15009999Y-15217222D01*
X15010000Y-15217222D01*
X15410000Y-15217222D01*
X15472858Y-15209675D01*
X15609674Y-15155722D01*
X15609676Y-15155721D01*
X15726859Y-15066859D01*
X15815721Y-14949676D01*
X15869675Y-14812858D01*
X15880000Y-14726884D01*
X15880000Y-14700000D01*
X15410000Y-14700000D01*
X15410000Y-15217222D01*
X15010000Y-15217222D01*
X15010000Y-14300000D01*
X15410000Y-14300000D01*
X15880000Y-14300000D01*
X15880000Y-14273115D01*
X15869675Y-14187141D01*
X15815721Y-14050323D01*
X15726859Y-13933140D01*
X15609676Y-13844278D01*
X15472858Y-13790324D01*
X15410000Y-13782775D01*
X15410000Y-14300000D01*
X15010000Y-14300000D01*
X15010000Y-13782775D01*
X14947142Y-13790324D01*
X14947141Y-13790324D01*
X14810323Y-13844278D01*
X14802931Y-13848435D01*
X14801589Y-13846048D01*
X14801472Y-13846093D01*
X14791011Y-13855158D01*
X14769459Y-13858256D01*
X14749102Y-13865992D01*
X14735555Y-13863131D01*
X14721853Y-13865102D01*
X14702046Y-13856056D01*
X14680740Y-13851558D01*
X14670890Y-13841828D01*
X14658297Y-13836077D01*
X14646525Y-13817759D01*
X14631033Y-13802456D01*
X14627226Y-13787729D01*
X14620523Y-13777299D01*
X14615500Y-13742364D01*
X14615500Y-13674500D01*
X14635185Y-13607461D01*
X14687989Y-13561706D01*
X14739500Y-13550500D01*
X14769270Y-13550500D01*
X14799699Y-13547646D01*
X14799701Y-13547646D01*
X14873840Y-13521703D01*
X14927882Y-13502793D01*
X15037150Y-13422150D01*
X15100231Y-13336677D01*
X15155877Y-13294428D01*
X15225533Y-13288969D01*
X15287083Y-13322036D01*
X15299763Y-13336670D01*
X15362850Y-13422150D01*
X15472118Y-13502793D01*
X15504923Y-13514272D01*
X15600299Y-13547646D01*
X15630730Y-13550500D01*
X15630734Y-13550500D01*
X16039270Y-13550500D01*
X16069699Y-13547646D01*
X16069701Y-13547646D01*
X16143840Y-13521703D01*
X16197882Y-13502793D01*
X16307150Y-13422150D01*
X16370231Y-13336677D01*
X16425877Y-13294428D01*
X16495533Y-13288969D01*
X16557083Y-13322036D01*
X16569763Y-13336670D01*
X16632850Y-13422150D01*
X16742118Y-13502793D01*
X16774923Y-13514272D01*
X16870299Y-13547646D01*
X16900730Y-13550500D01*
X16900734Y-13550500D01*
X17309270Y-13550500D01*
X17339699Y-13547646D01*
X17339701Y-13547646D01*
X17413840Y-13521703D01*
X17467882Y-13502793D01*
X17577150Y-13422150D01*
X17657793Y-13312882D01*
X17685608Y-13233391D01*
X17702646Y-13184701D01*
X17702646Y-13184699D01*
X17705500Y-13154269D01*
X17705500Y-11395730D01*
X17702646Y-11365300D01*
X17702646Y-11365298D01*
X17657793Y-11237119D01*
X17657792Y-11237117D01*
X17653234Y-11230941D01*
X17577150Y-11127850D01*
X17467882Y-11047207D01*
X17467880Y-11047206D01*
X17339700Y-11002353D01*
X17309270Y-10999500D01*
X17309266Y-10999500D01*
X16900734Y-10999500D01*
X16891829Y-11000335D01*
X16883446Y-11001121D01*
X16814862Y-10987779D01*
X16784191Y-10965343D01*
X16438118Y-10619270D01*
X16404633Y-10557947D01*
X16409617Y-10488255D01*
X16451489Y-10432322D01*
X16478347Y-10417028D01*
X16511082Y-10403469D01*
X16598727Y-10367165D01*
X16705269Y-10295976D01*
X16795876Y-10205369D01*
X16806638Y-10189262D01*
X16860247Y-10144457D01*
X16929572Y-10135747D01*
X16992600Y-10165900D01*
X16997422Y-10170470D01*
X18305781Y-11478829D01*
X18339266Y-11540152D01*
X18342100Y-11566510D01*
X18342100Y-13494789D01*
X18333455Y-13524229D01*
X18326932Y-13554216D01*
X18323177Y-13559231D01*
X18322415Y-13561828D01*
X18305781Y-13582471D01*
X18145069Y-13743182D01*
X18083746Y-13776666D01*
X18057389Y-13779500D01*
X17902546Y-13779500D01*
X17873125Y-13782258D01*
X17873115Y-13782260D01*
X17749207Y-13825618D01*
X17643576Y-13903576D01*
X17565618Y-14009207D01*
X17522258Y-14133118D01*
X17522258Y-14133120D01*
X17519500Y-14162538D01*
X17519500Y-14637453D01*
X17522258Y-14666874D01*
X17522260Y-14666884D01*
X17558218Y-14769644D01*
X17565619Y-14790794D01*
X17640270Y-14891943D01*
X17664241Y-14957570D01*
X17664500Y-14965575D01*
X17664500Y-16111182D01*
X17664500Y-16223218D01*
X17693497Y-16331437D01*
X17749515Y-16428463D01*
X18078477Y-16757425D01*
X18388181Y-17067128D01*
X18402884Y-17094055D01*
X18419477Y-17119874D01*
X18420368Y-17126074D01*
X18421666Y-17128451D01*
X18424500Y-17154809D01*
X18424500Y-17249269D01*
X18404815Y-17316308D01*
X18352011Y-17362063D01*
X18282853Y-17372007D01*
X18255011Y-17364624D01*
X18181446Y-17335614D01*
X18181442Y-17335613D01*
X18100000Y-17325832D01*
X18100000Y-19599165D01*
X18110715Y-19597879D01*
X18179624Y-19609430D01*
X18231348Y-19656401D01*
X18249500Y-19720994D01*
X18249500Y-20979269D01*
X18252353Y-21009699D01*
X18252353Y-21009701D01*
X18297206Y-21137880D01*
X18297207Y-21137882D01*
X18377850Y-21247150D01*
X18487118Y-21327793D01*
X18520472Y-21339464D01*
X18615299Y-21372646D01*
X18645730Y-21375500D01*
X18645734Y-21375500D01*
X18924800Y-21375500D01*
X18991839Y-21395185D01*
X19037594Y-21447989D01*
X19048800Y-21499500D01*
X19048800Y-21958190D01*
X19040155Y-21987630D01*
X19033632Y-22017617D01*
X19029877Y-22022632D01*
X19029115Y-22025229D01*
X19012481Y-22045871D01*
X18946471Y-22111881D01*
X18885148Y-22145366D01*
X18858790Y-22148200D01*
X18718409Y-22148200D01*
X18651370Y-22128515D01*
X18630728Y-22111881D01*
X17586819Y-21067971D01*
X17553334Y-21006648D01*
X17550500Y-20980290D01*
X17550500Y-19720994D01*
X17570185Y-19653955D01*
X17622989Y-19608200D01*
X17689285Y-19597879D01*
X17700000Y-19599165D01*
X17700000Y-18662500D01*
X17200000Y-18662500D01*
X17200000Y-19093053D01*
X17208125Y-19160716D01*
X17196573Y-19229624D01*
X17149601Y-19281348D01*
X17085009Y-19299500D01*
X16745730Y-19299500D01*
X16715300Y-19302353D01*
X16715298Y-19302353D01*
X16587119Y-19347206D01*
X16587117Y-19347207D01*
X16477850Y-19427850D01*
X16397207Y-19537117D01*
X16397206Y-19537119D01*
X16352353Y-19665298D01*
X16352353Y-19665300D01*
X16349500Y-19695730D01*
X16349500Y-20979269D01*
X16352353Y-21009699D01*
X16352353Y-21009701D01*
X16397206Y-21137880D01*
X16397207Y-21137882D01*
X16477850Y-21247150D01*
X16544629Y-21296435D01*
X16587119Y-21327794D01*
X16646586Y-21348601D01*
X16693315Y-21377962D01*
X18150313Y-22834960D01*
X18150315Y-22834963D01*
X18229537Y-22914185D01*
X18290710Y-22949503D01*
X18326563Y-22970203D01*
X18434781Y-22999200D01*
X18434782Y-22999200D01*
X18434783Y-22999200D01*
X19142416Y-22999200D01*
X19142418Y-22999200D01*
X19250637Y-22970203D01*
X19347663Y-22914185D01*
X19814784Y-22447064D01*
X19840336Y-22402808D01*
X19870803Y-22350037D01*
X19892329Y-22269700D01*
X19899800Y-22241819D01*
X19899800Y-22129782D01*
X19899800Y-20975258D01*
X23414500Y-20975258D01*
X23414500Y-21204741D01*
X23434228Y-21354584D01*
X23444452Y-21432238D01*
X23490239Y-21603120D01*
X23503842Y-21653887D01*
X23591650Y-21865876D01*
X23591657Y-21865890D01*
X23706392Y-22064617D01*
X23846081Y-22246661D01*
X23846089Y-22246670D01*
X24008330Y-22408911D01*
X24008338Y-22408918D01*
X24190382Y-22548607D01*
X24190385Y-22548608D01*
X24190388Y-22548611D01*
X24389112Y-22663344D01*
X24389117Y-22663346D01*
X24389123Y-22663349D01*
X24480480Y-22701190D01*
X24601113Y-22751158D01*
X24822762Y-22810548D01*
X25050266Y-22840500D01*
X25050273Y-22840500D01*
X25279727Y-22840500D01*
X25279734Y-22840500D01*
X25507238Y-22810548D01*
X25728887Y-22751158D01*
X25940888Y-22663344D01*
X26139612Y-22548611D01*
X26321661Y-22408919D01*
X26321665Y-22408914D01*
X26321670Y-22408911D01*
X26483911Y-22246670D01*
X26483914Y-22246665D01*
X26483919Y-22246661D01*
X26623611Y-22064612D01*
X26738344Y-21865888D01*
X26826158Y-21653887D01*
X26885548Y-21432238D01*
X26915500Y-21204734D01*
X26915500Y-20975266D01*
X26885548Y-20747762D01*
X26826158Y-20526113D01*
X26738344Y-20314112D01*
X26623611Y-20115388D01*
X26623608Y-20115385D01*
X26623607Y-20115382D01*
X26516293Y-19975530D01*
X26483919Y-19933339D01*
X26483918Y-19933338D01*
X26483911Y-19933330D01*
X26321670Y-19771089D01*
X26321661Y-19771081D01*
X26139617Y-19631392D01*
X26109685Y-19614111D01*
X26038408Y-19572959D01*
X25940890Y-19516657D01*
X25940876Y-19516650D01*
X25728887Y-19428842D01*
X25676242Y-19414736D01*
X25507238Y-19369452D01*
X25469215Y-19364446D01*
X25279741Y-19339500D01*
X25279734Y-19339500D01*
X25050266Y-19339500D01*
X25050258Y-19339500D01*
X24833715Y-19368009D01*
X24822762Y-19369452D01*
X24733311Y-19393420D01*
X24601112Y-19428842D01*
X24389123Y-19516650D01*
X24389109Y-19516657D01*
X24190382Y-19631392D01*
X24008338Y-19771081D01*
X23846081Y-19933338D01*
X23706392Y-20115382D01*
X23591657Y-20314109D01*
X23591650Y-20314123D01*
X23503842Y-20526112D01*
X23444453Y-20747759D01*
X23444451Y-20747770D01*
X23414500Y-20975258D01*
X19899800Y-20975258D01*
X19899800Y-19580243D01*
X19919485Y-19513204D01*
X19972289Y-19467449D01*
X20041447Y-19457505D01*
X20099285Y-19481867D01*
X20122936Y-19500015D01*
X20236196Y-19586924D01*
X20463299Y-19718041D01*
X20463309Y-19718046D01*
X20620801Y-19783281D01*
X20705581Y-19818398D01*
X20958884Y-19886270D01*
X21218880Y-19920500D01*
X21218887Y-19920500D01*
X21481113Y-19920500D01*
X21481120Y-19920500D01*
X21741116Y-19886270D01*
X21994419Y-19818398D01*
X22236697Y-19718043D01*
X22463803Y-19586924D01*
X22671851Y-19427282D01*
X22671855Y-19427277D01*
X22671860Y-19427274D01*
X22857274Y-19241860D01*
X22857277Y-19241855D01*
X22857282Y-19241851D01*
X23016924Y-19033803D01*
X23148043Y-18806697D01*
X23248398Y-18564419D01*
X23316270Y-18311116D01*
X23350500Y-18051120D01*
X23350500Y-17816530D01*
X28559500Y-17816530D01*
X28559500Y-18023469D01*
X28599868Y-18226412D01*
X28599870Y-18226420D01*
X28649763Y-18346873D01*
X28679059Y-18417598D01*
X28736541Y-18503626D01*
X28794024Y-18589657D01*
X28940342Y-18735975D01*
X28940345Y-18735977D01*
X29112402Y-18850941D01*
X29303580Y-18930130D01*
X29506530Y-18970499D01*
X29506534Y-18970500D01*
X29506535Y-18970500D01*
X29713466Y-18970500D01*
X29713467Y-18970499D01*
X29916420Y-18930130D01*
X30107598Y-18850941D01*
X30279655Y-18735977D01*
X30425977Y-18589655D01*
X30540941Y-18417598D01*
X30620130Y-18226420D01*
X30660500Y-18023465D01*
X30660500Y-17816535D01*
X30620130Y-17613580D01*
X30540941Y-17422402D01*
X30425977Y-17250345D01*
X30425975Y-17250342D01*
X30279657Y-17104024D01*
X30144750Y-17013883D01*
X30107598Y-16989059D01*
X29916420Y-16909870D01*
X29916412Y-16909868D01*
X29713469Y-16869500D01*
X29713465Y-16869500D01*
X29506535Y-16869500D01*
X29506530Y-16869500D01*
X29303587Y-16909868D01*
X29303579Y-16909870D01*
X29112403Y-16989058D01*
X28940342Y-17104024D01*
X28794024Y-17250342D01*
X28679058Y-17422403D01*
X28599870Y-17613579D01*
X28599868Y-17613587D01*
X28559500Y-17816530D01*
X23350500Y-17816530D01*
X23350500Y-17788880D01*
X23316270Y-17528884D01*
X23248398Y-17275581D01*
X23237499Y-17249269D01*
X23148046Y-17033309D01*
X23148041Y-17033299D01*
X23016924Y-16806196D01*
X22857281Y-16598148D01*
X22857274Y-16598140D01*
X22786315Y-16527181D01*
X22752830Y-16465858D01*
X22757814Y-16396166D01*
X22799686Y-16340233D01*
X22865150Y-16315816D01*
X22873996Y-16315500D01*
X23441016Y-16315500D01*
X23441018Y-16315500D01*
X23549237Y-16286503D01*
X23646263Y-16230485D01*
X24197759Y-15678987D01*
X24259080Y-15645504D01*
X24328771Y-15650488D01*
X24347426Y-15659277D01*
X24389112Y-15683344D01*
X24389120Y-15683347D01*
X24389123Y-15683349D01*
X24451577Y-15709218D01*
X24601113Y-15771158D01*
X24822762Y-15830548D01*
X25050266Y-15860500D01*
X25050273Y-15860500D01*
X25279727Y-15860500D01*
X25279734Y-15860500D01*
X25507238Y-15830548D01*
X25728887Y-15771158D01*
X25940888Y-15683344D01*
X26139612Y-15568611D01*
X26321661Y-15428919D01*
X26321665Y-15428914D01*
X26321670Y-15428911D01*
X26483911Y-15266670D01*
X26483914Y-15266665D01*
X26483919Y-15266661D01*
X26623611Y-15084612D01*
X26738344Y-14885888D01*
X26826158Y-14673887D01*
X26885548Y-14452238D01*
X26915500Y-14224734D01*
X26915500Y-13995266D01*
X26885548Y-13767762D01*
X26826158Y-13546113D01*
X26770840Y-13412563D01*
X26738349Y-13334123D01*
X26738346Y-13334117D01*
X26738344Y-13334112D01*
X26623611Y-13135388D01*
X26623608Y-13135385D01*
X26623607Y-13135382D01*
X26483918Y-12953338D01*
X26483911Y-12953330D01*
X26321670Y-12791089D01*
X26321661Y-12791081D01*
X26139617Y-12651392D01*
X26086110Y-12620500D01*
X25987993Y-12563852D01*
X25940890Y-12536657D01*
X25940876Y-12536650D01*
X25728887Y-12448842D01*
X25685229Y-12437144D01*
X25507238Y-12389452D01*
X25469215Y-12384446D01*
X25279741Y-12359500D01*
X25279734Y-12359500D01*
X25050266Y-12359500D01*
X25050258Y-12359500D01*
X24833715Y-12388009D01*
X24822762Y-12389452D01*
X24817754Y-12390794D01*
X24601112Y-12448842D01*
X24389123Y-12536650D01*
X24389110Y-12536656D01*
X24347435Y-12560717D01*
X24279535Y-12577187D01*
X24213508Y-12554334D01*
X24197757Y-12541009D01*
X23669565Y-12012817D01*
X23669563Y-12012815D01*
X23572537Y-11956797D01*
X23464318Y-11927800D01*
X23464317Y-11927800D01*
X22746321Y-11927800D01*
X22679282Y-11908115D01*
X22658640Y-11891481D01*
X21757216Y-10990058D01*
X21859970Y-10921401D01*
X21971401Y-10809970D01*
X22040058Y-10707216D01*
X22970539Y-11637697D01*
X23099836Y-11469195D01*
X23237472Y-11230802D01*
X23237479Y-11230787D01*
X23342819Y-10976471D01*
X23414069Y-10710565D01*
X23450000Y-10437641D01*
X23450000Y-10196530D01*
X33639500Y-10196530D01*
X33639500Y-10403469D01*
X33679868Y-10606412D01*
X33679870Y-10606420D01*
X33723008Y-10710565D01*
X33759059Y-10797598D01*
X33777878Y-10825763D01*
X33874024Y-10969657D01*
X34020342Y-11115975D01*
X34020345Y-11115977D01*
X34192402Y-11230941D01*
X34383580Y-11310130D01*
X34555049Y-11344237D01*
X34586530Y-11350499D01*
X34586534Y-11350500D01*
X34586535Y-11350500D01*
X34793466Y-11350500D01*
X34793467Y-11350499D01*
X34996420Y-11310130D01*
X35187598Y-11230941D01*
X35359655Y-11115977D01*
X35505977Y-10969655D01*
X35620941Y-10797598D01*
X35700130Y-10606420D01*
X35740500Y-10403465D01*
X35740500Y-10196535D01*
X35700130Y-9993580D01*
X35620941Y-9802402D01*
X35505977Y-9630345D01*
X35505975Y-9630342D01*
X35359657Y-9484024D01*
X35230763Y-9397901D01*
X35187598Y-9369059D01*
X35184271Y-9367681D01*
X34996420Y-9289870D01*
X34996412Y-9289868D01*
X34793469Y-9249500D01*
X34793465Y-9249500D01*
X34586535Y-9249500D01*
X34586530Y-9249500D01*
X34383587Y-9289868D01*
X34383579Y-9289870D01*
X34192403Y-9369058D01*
X34020342Y-9484024D01*
X33874024Y-9630342D01*
X33759058Y-9802403D01*
X33679870Y-9993579D01*
X33679868Y-9993587D01*
X33639500Y-10196530D01*
X23450000Y-10196530D01*
X23450000Y-10162358D01*
X23414069Y-9889434D01*
X23342819Y-9623528D01*
X23237479Y-9369212D01*
X23237472Y-9369197D01*
X23099836Y-9130803D01*
X22970539Y-8962301D01*
X22040058Y-9892782D01*
X21971401Y-9790030D01*
X21859970Y-9678599D01*
X21757216Y-9609941D01*
X22687697Y-8679459D01*
X22687697Y-8679458D01*
X22519200Y-8550166D01*
X22280802Y-8412527D01*
X22280787Y-8412520D01*
X22026471Y-8307180D01*
X21760565Y-8235930D01*
X21487642Y-8200000D01*
X21212358Y-8200000D01*
X20939434Y-8235930D01*
X20673528Y-8307180D01*
X20419212Y-8412520D01*
X20419197Y-8412527D01*
X20180799Y-8550166D01*
X20012301Y-8679458D01*
X20012301Y-8679459D01*
X20942783Y-9609941D01*
X20840030Y-9678599D01*
X20728599Y-9790030D01*
X20659941Y-9892783D01*
X19729459Y-8962301D01*
X19729458Y-8962301D01*
X19600166Y-9130799D01*
X19462527Y-9369197D01*
X19462520Y-9369212D01*
X19357180Y-9623528D01*
X19285930Y-9889434D01*
X19250000Y-10162358D01*
X19250000Y-10258790D01*
X19230315Y-10325829D01*
X19177511Y-10371584D01*
X19108353Y-10381528D01*
X19044797Y-10352503D01*
X19038319Y-10346471D01*
X17440634Y-8748786D01*
X17407149Y-8687463D01*
X17412133Y-8617771D01*
X17454005Y-8561838D01*
X17465396Y-8554627D01*
X17467880Y-8552793D01*
X17467882Y-8552793D01*
X17577150Y-8472150D01*
X17657793Y-8362882D01*
X17685710Y-8283099D01*
X17702646Y-8234701D01*
X17702646Y-8234699D01*
X17705500Y-8204269D01*
X17705500Y-6445730D01*
X17702646Y-6415300D01*
X17702646Y-6415298D01*
X17657793Y-6287119D01*
X17657792Y-6287117D01*
X17654548Y-6282721D01*
X17577150Y-6177850D01*
X17467882Y-6097207D01*
X17467880Y-6097206D01*
X17339700Y-6052353D01*
X17309270Y-6049500D01*
X17309266Y-6049500D01*
X17133976Y-6049500D01*
X17066937Y-6029815D01*
X17046295Y-6013181D01*
X16778372Y-5745258D01*
X29769500Y-5745258D01*
X29769500Y-5974741D01*
X29787591Y-6112150D01*
X29799452Y-6202238D01*
X29850089Y-6391220D01*
X29858842Y-6423887D01*
X29946650Y-6635876D01*
X29946657Y-6635890D01*
X30061392Y-6834617D01*
X30201081Y-7016661D01*
X30201089Y-7016670D01*
X30363330Y-7178911D01*
X30363338Y-7178918D01*
X30545382Y-7318607D01*
X30545385Y-7318608D01*
X30545388Y-7318611D01*
X30744112Y-7433344D01*
X30744117Y-7433346D01*
X30744123Y-7433349D01*
X30827873Y-7468039D01*
X30956113Y-7521158D01*
X31177762Y-7580548D01*
X31405266Y-7610500D01*
X31405273Y-7610500D01*
X31634727Y-7610500D01*
X31634734Y-7610500D01*
X31862238Y-7580548D01*
X32083887Y-7521158D01*
X32295888Y-7433344D01*
X32494612Y-7318611D01*
X32676661Y-7178919D01*
X32676665Y-7178914D01*
X32676670Y-7178911D01*
X32838911Y-7016670D01*
X32838914Y-7016665D01*
X32838919Y-7016661D01*
X32978611Y-6834612D01*
X33093344Y-6635888D01*
X33181158Y-6423887D01*
X33240548Y-6202238D01*
X33270500Y-5974734D01*
X33270500Y-5745266D01*
X33240548Y-5517762D01*
X33181158Y-5296113D01*
X33106965Y-5116996D01*
X33093349Y-5084123D01*
X33093346Y-5084117D01*
X33093344Y-5084112D01*
X32978611Y-4885388D01*
X32978608Y-4885385D01*
X32978607Y-4885382D01*
X32850398Y-4718299D01*
X32838919Y-4703339D01*
X32838918Y-4703338D01*
X32838911Y-4703330D01*
X32676670Y-4541089D01*
X32676661Y-4541081D01*
X32494617Y-4401392D01*
X32295890Y-4286657D01*
X32295876Y-4286650D01*
X32083887Y-4198842D01*
X32000284Y-4176441D01*
X31862238Y-4139452D01*
X31811712Y-4132800D01*
X31634741Y-4109500D01*
X31634734Y-4109500D01*
X31405266Y-4109500D01*
X31405258Y-4109500D01*
X31188715Y-4138009D01*
X31177762Y-4139452D01*
X31149529Y-4147017D01*
X30956112Y-4198842D01*
X30744123Y-4286650D01*
X30744109Y-4286657D01*
X30545382Y-4401392D01*
X30363338Y-4541081D01*
X30201081Y-4703338D01*
X30061392Y-4885382D01*
X29946657Y-5084109D01*
X29946650Y-5084123D01*
X29858842Y-5296112D01*
X29799453Y-5517759D01*
X29799451Y-5517770D01*
X29769500Y-5745258D01*
X16778372Y-5745258D01*
X16550116Y-5517002D01*
X16550114Y-5517000D01*
X16477025Y-5474802D01*
X16435987Y-5451108D01*
X16341407Y-5425766D01*
X16308692Y-5417000D01*
X16308691Y-5417000D01*
X15775197Y-5417000D01*
X15708158Y-5397315D01*
X15662403Y-5344511D01*
X15652081Y-5278216D01*
X15660000Y-5212270D01*
X15660000Y-5200000D01*
X15104000Y-5200000D01*
X15095314Y-5197449D01*
X15086353Y-5198738D01*
X15062312Y-5187759D01*
X15036961Y-5180315D01*
X15031033Y-5173474D01*
X15022797Y-5169713D01*
X15008507Y-5147478D01*
X14991206Y-5127511D01*
X14988918Y-5116996D01*
X14985023Y-5110935D01*
X14980000Y-5076000D01*
X14980000Y-4924000D01*
X14999685Y-4856961D01*
X15052489Y-4811206D01*
X15104000Y-4800000D01*
X15659999Y-4800000D01*
X15659999Y-4787729D01*
X15649579Y-4700945D01*
X15649577Y-4700941D01*
X15595123Y-4562855D01*
X15595120Y-4562849D01*
X15558551Y-4514625D01*
X15533728Y-4449313D01*
X15548156Y-4380949D01*
X15597254Y-4331239D01*
X15657355Y-4315700D01*
X17944481Y-4315700D01*
X18011520Y-4335385D01*
X18032162Y-4352019D01*
X18039454Y-4359311D01*
X18039458Y-4359314D01*
X18154182Y-4435971D01*
X18154195Y-4435978D01*
X18241523Y-4472150D01*
X18281672Y-4488780D01*
X18281676Y-4488780D01*
X18281677Y-4488781D01*
X18417004Y-4515700D01*
X18417007Y-4515700D01*
X18554995Y-4515700D01*
X18646041Y-4497589D01*
X18690328Y-4488780D01*
X18817811Y-4435975D01*
X18932542Y-4359314D01*
X19030114Y-4261742D01*
X19106775Y-4147011D01*
X19109907Y-4139451D01*
X19121781Y-4110784D01*
X19159580Y-4019528D01*
X19173910Y-3947489D01*
X19186500Y-3884195D01*
X19186500Y-3746204D01*
X19159581Y-3610877D01*
X19159580Y-3610876D01*
X19159580Y-3610872D01*
X19117788Y-3509976D01*
X19106778Y-3483395D01*
X19106771Y-3483382D01*
X19030114Y-3368658D01*
X19030111Y-3368654D01*
X18932545Y-3271088D01*
X18932541Y-3271085D01*
X18817817Y-3194428D01*
X18817804Y-3194421D01*
X18690332Y-3141621D01*
X18690322Y-3141618D01*
X18554995Y-3114700D01*
X18554993Y-3114700D01*
X18417007Y-3114700D01*
X18417005Y-3114700D01*
X18281677Y-3141618D01*
X18281667Y-3141621D01*
X18154195Y-3194421D01*
X18154182Y-3194428D01*
X18039458Y-3271085D01*
X18039454Y-3271088D01*
X18032162Y-3278381D01*
X17970839Y-3311866D01*
X17944481Y-3314700D01*
X14787200Y-3314700D01*
X14720161Y-3295015D01*
X14674406Y-3242211D01*
X14663200Y-3190700D01*
X14663200Y-2433410D01*
X14663200Y-2433408D01*
X14629092Y-2306114D01*
X14563200Y-2191986D01*
X14470014Y-2098800D01*
X14108114Y-1736900D01*
X14051050Y-1703954D01*
X13993987Y-1671008D01*
X13898698Y-1645476D01*
X13866692Y-1636900D01*
X12653493Y-1636900D01*
X12521708Y-1636900D01*
X12394412Y-1671008D01*
X12280286Y-1736900D01*
X12280283Y-1736902D01*
X11829005Y-2188181D01*
X11767682Y-2221666D01*
X11741324Y-2224500D01*
X11458856Y-2224500D01*
X11420841Y-2229065D01*
X11374411Y-2234640D01*
X11240023Y-2287636D01*
X11124921Y-2374921D01*
X11037636Y-2490023D01*
X10984640Y-2624411D01*
X10979065Y-2670841D01*
X10974500Y-2708856D01*
X10974500Y-3291144D01*
X10977329Y-3314700D01*
X10984640Y-3375588D01*
X11037636Y-3509976D01*
X11124921Y-3625078D01*
X11240024Y-3712364D01*
X11261942Y-3721007D01*
X11325291Y-3745989D01*
X11380433Y-3788892D01*
X11403627Y-3854800D01*
X11403800Y-3861342D01*
X11403800Y-4575449D01*
X11384115Y-4642488D01*
X11331311Y-4688243D01*
X11262153Y-4698187D01*
X11255612Y-4697067D01*
X11236671Y-4693300D01*
X11236669Y-4693300D01*
X11108531Y-4693300D01*
X11108526Y-4693300D01*
X11048691Y-4705202D01*
X10979099Y-4698975D01*
X10923922Y-4656111D01*
X10900678Y-4590222D01*
X10900500Y-4583585D01*
X10900500Y-4083862D01*
X10900500Y-4083856D01*
X10890359Y-3999410D01*
X10837364Y-3865025D01*
X10837363Y-3865024D01*
X10837363Y-3865023D01*
X10750078Y-3749921D01*
X10634976Y-3662636D01*
X10500588Y-3609640D01*
X10457242Y-3604435D01*
X10416144Y-3599500D01*
X9902610Y-3599500D01*
X9835571Y-3579815D01*
X9814929Y-3563181D01*
X9494565Y-3242817D01*
X9494563Y-3242815D01*
X9397537Y-3186797D01*
X9289318Y-3157800D01*
X9289317Y-3157800D01*
X7729310Y-3157800D01*
X7662271Y-3138115D01*
X7616516Y-3085311D01*
X7606572Y-3016153D01*
X7635597Y-2952597D01*
X7641629Y-2946119D01*
X8004130Y-2583617D01*
X8376172Y-2211573D01*
X8437493Y-2178090D01*
X8439526Y-2177666D01*
X8493144Y-2167001D01*
X8611527Y-2117965D01*
X8718069Y-2046776D01*
X8808676Y-1956169D01*
X8879865Y-1849627D01*
X8928901Y-1731244D01*
X8953900Y-1605569D01*
X8953900Y-1477431D01*
X8953900Y-1477428D01*
X8928902Y-1351761D01*
X8928901Y-1351760D01*
X8928901Y-1351756D01*
X8879865Y-1233373D01*
X8879864Y-1233372D01*
X8879861Y-1233366D01*
X8808676Y-1126831D01*
X8808673Y-1126827D01*
X8718072Y-1036226D01*
X8718068Y-1036223D01*
X8611533Y-965038D01*
X8611524Y-965033D01*
X8493144Y-915999D01*
X8493138Y-915997D01*
X8367471Y-891000D01*
X8367469Y-891000D01*
X8239331Y-891000D01*
X8239329Y-891000D01*
X8113661Y-915997D01*
X8113655Y-915999D01*
X7995275Y-965033D01*
X7995266Y-965038D01*
X7888731Y-1036223D01*
X7888727Y-1036226D01*
X7798126Y-1126827D01*
X7798123Y-1126831D01*
X7726938Y-1233366D01*
X7726933Y-1233375D01*
X7677899Y-1351755D01*
X7677897Y-1351761D01*
X7652900Y-1477428D01*
X7652900Y-1605571D01*
X7660838Y-1645476D01*
X7654611Y-1715067D01*
X7626902Y-1757349D01*
X7236307Y-2147944D01*
X7174984Y-2181429D01*
X7105292Y-2176445D01*
X7049359Y-2134573D01*
X7039900Y-2116798D01*
X7038723Y-2117421D01*
X7034382Y-2109208D01*
X6956423Y-2003576D01*
X6884860Y-1950761D01*
X6850794Y-1925619D01*
X6850792Y-1925618D01*
X6726880Y-1882258D01*
X6697461Y-1879500D01*
X6697457Y-1879500D01*
X6542610Y-1879500D01*
X6475571Y-1859815D01*
X6454929Y-1843181D01*
X6122865Y-1511117D01*
X6122863Y-1511115D01*
X6025837Y-1455097D01*
X5917618Y-1426100D01*
X5119519Y-1426100D01*
X5007482Y-1426100D01*
X4899263Y-1455097D01*
X4899260Y-1455098D01*
X4802240Y-1511113D01*
X4802234Y-1511117D01*
X3725171Y-2588181D01*
X3663848Y-2621666D01*
X3637490Y-2624500D01*
X3069177Y-2624500D01*
X3002138Y-2604815D01*
X2979524Y-2583617D01*
X2978721Y-2584421D01*
X2972151Y-2577851D01*
X2862882Y-2497207D01*
X2862880Y-2497206D01*
X2734700Y-2452353D01*
X2704270Y-2449500D01*
X2704266Y-2449500D01*
X1420734Y-2449500D01*
X1420730Y-2449500D01*
X1390300Y-2452353D01*
X1390298Y-2452353D01*
X1262119Y-2497206D01*
X1262117Y-2497207D01*
X1152850Y-2577850D01*
X1072207Y-2687117D01*
X1072206Y-2687119D01*
X1027353Y-2815298D01*
X1027353Y-2815300D01*
X1024500Y-2845730D01*
X1024500Y-3254269D01*
X1027353Y-3284699D01*
X1027353Y-3284700D01*
X1044519Y-3333758D01*
X1048080Y-3403537D01*
X1015158Y-3462392D01*
X711681Y-3765870D01*
X650358Y-3799355D01*
X580667Y-3794371D01*
X524733Y-3752500D01*
X500316Y-3687035D01*
X500000Y-3678189D01*
X500000Y-624000D01*
X519685Y-556961D01*
X572489Y-511206D01*
X624000Y-500000D01*
X37876000Y-500000D01*
X37943039Y-519685D01*
G37*
G04 #@! TD.AperFunction*
G04 #@! TA.AperFunction,Conductor*
G36*
X3897944Y-25233091D02*
G01*
X3928574Y-25235832D01*
X3932121Y-25238587D01*
X3936557Y-25239301D01*
X3959464Y-25259828D01*
X3983751Y-25278695D01*
X3985818Y-25283444D01*
X3988591Y-25285929D01*
X3991510Y-25296519D01*
X4004791Y-25327029D01*
X4007597Y-25341139D01*
X4007599Y-25341144D01*
X4056633Y-25459524D01*
X4056638Y-25459533D01*
X4127823Y-25566068D01*
X4127826Y-25566072D01*
X4218427Y-25656673D01*
X4218435Y-25656679D01*
X4251605Y-25678843D01*
X4296411Y-25732455D01*
X4305118Y-25801780D01*
X4303861Y-25808397D01*
X4302353Y-25815301D01*
X4299500Y-25845730D01*
X4299500Y-26254269D01*
X4302353Y-26284699D01*
X4302353Y-26284701D01*
X4339116Y-26389760D01*
X4342678Y-26459539D01*
X4320879Y-26505640D01*
X4266080Y-26577902D01*
X4210613Y-26718556D01*
X4210613Y-26718557D01*
X4200832Y-26800000D01*
X5138500Y-26800000D01*
X5147185Y-26802550D01*
X5156147Y-26801262D01*
X5180187Y-26812240D01*
X5205539Y-26819685D01*
X5211466Y-26826525D01*
X5219703Y-26830287D01*
X5233992Y-26852521D01*
X5251294Y-26872489D01*
X5253581Y-26883003D01*
X5257477Y-26889065D01*
X5262500Y-26924000D01*
X5262500Y-27076000D01*
X5242815Y-27143039D01*
X5190011Y-27188794D01*
X5138500Y-27200000D01*
X4200833Y-27200000D01*
X4210613Y-27281442D01*
X4210614Y-27281446D01*
X4222693Y-27312076D01*
X4228974Y-27381663D01*
X4196636Y-27443599D01*
X4135947Y-27478220D01*
X4113714Y-27479480D01*
X4110000Y-27482775D01*
X4110000Y-28076000D01*
X4107449Y-28084685D01*
X4108738Y-28093647D01*
X4097759Y-28117687D01*
X4090315Y-28143039D01*
X4083474Y-28148966D01*
X4079713Y-28157203D01*
X4057478Y-28171492D01*
X4037511Y-28188794D01*
X4026996Y-28191081D01*
X4020935Y-28194977D01*
X3986000Y-28200000D01*
X3834000Y-28200000D01*
X3766961Y-28180315D01*
X3721206Y-28127511D01*
X3710000Y-28076000D01*
X3710000Y-27482775D01*
X3647142Y-27490324D01*
X3647141Y-27490324D01*
X3510323Y-27544278D01*
X3502931Y-27548435D01*
X3501589Y-27546048D01*
X3449102Y-27565992D01*
X3380740Y-27551558D01*
X3331033Y-27502456D01*
X3315500Y-27442364D01*
X3315500Y-25617409D01*
X3335185Y-25550370D01*
X3351819Y-25529728D01*
X3592228Y-25289319D01*
X3612539Y-25278228D01*
X3630283Y-25263363D01*
X3645632Y-25260157D01*
X3653551Y-25255834D01*
X3664308Y-25253985D01*
X3672075Y-25253000D01*
X3741369Y-25253000D01*
X3863256Y-25228754D01*
X3867573Y-25228207D01*
X3897944Y-25233091D01*
G37*
G04 #@! TD.AperFunction*
G04 #@! TA.AperFunction,Conductor*
G36*
X9157606Y-19175185D02*
G01*
X9159458Y-19176398D01*
X9241865Y-19231461D01*
X9241871Y-19231464D01*
X9241872Y-19231465D01*
X9360255Y-19280501D01*
X9360259Y-19280501D01*
X9360260Y-19280502D01*
X9485927Y-19305500D01*
X9485930Y-19305500D01*
X9614069Y-19305500D01*
X9630548Y-19302221D01*
X9676308Y-19293119D01*
X9745898Y-19299345D01*
X9801076Y-19342208D01*
X9824322Y-19408097D01*
X9824500Y-19414736D01*
X9824500Y-19441144D01*
X9829825Y-19485494D01*
X9834640Y-19525588D01*
X9887636Y-19659976D01*
X9974922Y-19775079D01*
X9980919Y-19781076D01*
X9978713Y-19783281D01*
X10011283Y-19827355D01*
X10015836Y-19897076D01*
X10002475Y-19928292D01*
X10003805Y-19929003D01*
X10000935Y-19934370D01*
X9951899Y-20052755D01*
X9951897Y-20052761D01*
X9926900Y-20178428D01*
X9926900Y-20178431D01*
X9926900Y-20306569D01*
X9926900Y-20306571D01*
X9926899Y-20306571D01*
X9951897Y-20432238D01*
X9951899Y-20432244D01*
X10000933Y-20550624D01*
X10000938Y-20550633D01*
X10072123Y-20657168D01*
X10072126Y-20657172D01*
X10162727Y-20747773D01*
X10162731Y-20747776D01*
X10269266Y-20818961D01*
X10269272Y-20818964D01*
X10269273Y-20818965D01*
X10387656Y-20868001D01*
X10387660Y-20868001D01*
X10387661Y-20868002D01*
X10513328Y-20893000D01*
X10513331Y-20893000D01*
X10641471Y-20893000D01*
X10751866Y-20871040D01*
X10767144Y-20868001D01*
X10857223Y-20830688D01*
X10926690Y-20823220D01*
X10989169Y-20854495D01*
X10992355Y-20857569D01*
X11620986Y-21486200D01*
X11637500Y-21495734D01*
X11645781Y-21504419D01*
X11656703Y-21509407D01*
X11669447Y-21529238D01*
X11685714Y-21546297D01*
X11688930Y-21559554D01*
X11694477Y-21568185D01*
X11699500Y-21603120D01*
X11699500Y-21657193D01*
X11679815Y-21724232D01*
X11627011Y-21769987D01*
X11557853Y-21779931D01*
X11494297Y-21750906D01*
X11472398Y-21726084D01*
X11419076Y-21646283D01*
X11419073Y-21646279D01*
X11293720Y-21520926D01*
X11293716Y-21520923D01*
X11146316Y-21422433D01*
X11146307Y-21422428D01*
X10982520Y-21354586D01*
X10982512Y-21354584D01*
X10920000Y-21342149D01*
X10920000Y-21995735D01*
X10904205Y-21979940D01*
X10835796Y-21940444D01*
X10759496Y-21920000D01*
X10680504Y-21920000D01*
X10604204Y-21940444D01*
X10535795Y-21979940D01*
X10520000Y-21995735D01*
X10520000Y-21342149D01*
X10457487Y-21354584D01*
X10457479Y-21354586D01*
X10293692Y-21422428D01*
X10293683Y-21422433D01*
X10146283Y-21520923D01*
X10146279Y-21520926D01*
X10020926Y-21646279D01*
X10020923Y-21646283D01*
X9922433Y-21793683D01*
X9922428Y-21793692D01*
X9854586Y-21957479D01*
X9854584Y-21957487D01*
X9820000Y-22131353D01*
X9820000Y-22570000D01*
X10420000Y-22570000D01*
X10420000Y-22970000D01*
X9825242Y-22970000D01*
X9758203Y-22950315D01*
X9737561Y-22933681D01*
X9643367Y-22839487D01*
X9643365Y-22839485D01*
X9577750Y-22801602D01*
X9512136Y-22763719D01*
X9438950Y-22744109D01*
X9365766Y-22724500D01*
X9214234Y-22724500D01*
X9067863Y-22763719D01*
X8936635Y-22839485D01*
X8936632Y-22839487D01*
X8829487Y-22946632D01*
X8829485Y-22946635D01*
X8753719Y-23077865D01*
X8741806Y-23122326D01*
X8730689Y-23163816D01*
X8694324Y-23223476D01*
X8631477Y-23254005D01*
X8562101Y-23245710D01*
X8548921Y-23239113D01*
X8535037Y-23231097D01*
X8426818Y-23202100D01*
X8426817Y-23202100D01*
X8272807Y-23202100D01*
X8205768Y-23182415D01*
X8185125Y-23165780D01*
X8141672Y-23122326D01*
X8141668Y-23122323D01*
X8035133Y-23051138D01*
X8035124Y-23051133D01*
X7916744Y-23002099D01*
X7916738Y-23002097D01*
X7791071Y-22977100D01*
X7791069Y-22977100D01*
X7662931Y-22977100D01*
X7662929Y-22977100D01*
X7537261Y-23002097D01*
X7537255Y-23002099D01*
X7418875Y-23051133D01*
X7418866Y-23051138D01*
X7312331Y-23122323D01*
X7312327Y-23122326D01*
X7221726Y-23212927D01*
X7221723Y-23212931D01*
X7150538Y-23319466D01*
X7150533Y-23319475D01*
X7101499Y-23437855D01*
X7101497Y-23437861D01*
X7076500Y-23563528D01*
X7076500Y-23563531D01*
X7076500Y-23691669D01*
X7076500Y-23691671D01*
X7076499Y-23691671D01*
X7101497Y-23817338D01*
X7101499Y-23817344D01*
X7150533Y-23935724D01*
X7150538Y-23935732D01*
X7164009Y-23955893D01*
X7184887Y-24022570D01*
X7166403Y-24089950D01*
X7148589Y-24112465D01*
X7066623Y-24194431D01*
X6995438Y-24300966D01*
X6995433Y-24300975D01*
X6946399Y-24419355D01*
X6946397Y-24419361D01*
X6921400Y-24545028D01*
X6921400Y-24545031D01*
X6921400Y-24673169D01*
X6946399Y-24798844D01*
X6973951Y-24865362D01*
X6973952Y-24865363D01*
X6995431Y-24917220D01*
X6995438Y-24917233D01*
X7066622Y-25023767D01*
X7066623Y-25023768D01*
X7066624Y-25023769D01*
X7075679Y-25032824D01*
X7090386Y-25059756D01*
X7106977Y-25085572D01*
X7107867Y-25091768D01*
X7109165Y-25094144D01*
X7112000Y-25120507D01*
X7112000Y-25325500D01*
X7092315Y-25392539D01*
X7039511Y-25438294D01*
X6988000Y-25449500D01*
X6970730Y-25449500D01*
X6940301Y-25452353D01*
X6896654Y-25467626D01*
X6826875Y-25471187D01*
X6766248Y-25436458D01*
X6734021Y-25374464D01*
X6731700Y-25350584D01*
X6731700Y-24918692D01*
X6731700Y-24855182D01*
X6702703Y-24746963D01*
X6646685Y-24649937D01*
X6567463Y-24570715D01*
X6336819Y-24340071D01*
X6303334Y-24278748D01*
X6300500Y-24252390D01*
X6300500Y-24190928D01*
X6275502Y-24065261D01*
X6275501Y-24065260D01*
X6275501Y-24065256D01*
X6262311Y-24033414D01*
X6254843Y-23963947D01*
X6264070Y-23934470D01*
X7910160Y-20328749D01*
X7955907Y-20275941D01*
X7975494Y-20265692D01*
X8058127Y-20231465D01*
X8164669Y-20160276D01*
X8255276Y-20069669D01*
X8326465Y-19963127D01*
X8375501Y-19844744D01*
X8388166Y-19781076D01*
X8400500Y-19719071D01*
X8400500Y-19590928D01*
X8375502Y-19465261D01*
X8375501Y-19465260D01*
X8375501Y-19465256D01*
X8335817Y-19369451D01*
X8326466Y-19346875D01*
X8323592Y-19341498D01*
X8325073Y-19340706D01*
X8306602Y-19281713D01*
X8325087Y-19214333D01*
X8377066Y-19167643D01*
X8430582Y-19155500D01*
X9090567Y-19155500D01*
X9157606Y-19175185D01*
G37*
G04 #@! TD.AperFunction*
G04 #@! TA.AperFunction,Conductor*
G36*
X10175314Y-10939985D02*
G01*
X10221069Y-10992789D01*
X10231013Y-11061947D01*
X10229894Y-11068482D01*
X10227000Y-11083031D01*
X10227000Y-11211169D01*
X10227000Y-11211171D01*
X10226999Y-11211171D01*
X10251997Y-11336838D01*
X10252000Y-11336848D01*
X10302346Y-11458395D01*
X10309815Y-11527864D01*
X10287558Y-11579477D01*
X10265621Y-11609202D01*
X10265617Y-11609209D01*
X10222258Y-11733118D01*
X10222258Y-11733120D01*
X10219500Y-11762538D01*
X10219500Y-12237453D01*
X10222258Y-12266874D01*
X10222260Y-12266884D01*
X10265618Y-12390792D01*
X10343576Y-12496423D01*
X10381404Y-12524341D01*
X10449206Y-12574381D01*
X10490511Y-12588834D01*
X10573119Y-12617741D01*
X10580796Y-12618460D01*
X10602543Y-12620500D01*
X10977456Y-12620499D01*
X11006879Y-12617741D01*
X11130794Y-12574381D01*
X11186868Y-12532996D01*
X11252494Y-12509026D01*
X11320665Y-12524341D01*
X11369733Y-12574081D01*
X11384500Y-12632767D01*
X11384500Y-13940882D01*
X11384500Y-14052918D01*
X11412688Y-14158118D01*
X11413498Y-14161139D01*
X11413499Y-14161142D01*
X11448186Y-14221220D01*
X11464800Y-14283221D01*
X11464800Y-14366269D01*
X11464800Y-14366271D01*
X11464799Y-14366271D01*
X11489797Y-14491938D01*
X11489799Y-14491944D01*
X11538833Y-14610324D01*
X11538840Y-14610336D01*
X11546213Y-14621371D01*
X11567090Y-14688049D01*
X11548604Y-14755428D01*
X11496625Y-14802118D01*
X11427655Y-14813293D01*
X11419461Y-14811688D01*
X11414993Y-14811100D01*
X11414992Y-14811100D01*
X11414990Y-14811100D01*
X11028450Y-14811100D01*
X10961411Y-14791415D01*
X10915656Y-14738611D01*
X10905712Y-14669453D01*
X10906833Y-14662907D01*
X10910600Y-14643970D01*
X10910600Y-14515828D01*
X10885602Y-14390161D01*
X10885601Y-14390160D01*
X10885601Y-14390156D01*
X10841292Y-14283185D01*
X10836566Y-14271775D01*
X10836561Y-14271766D01*
X10765376Y-14165231D01*
X10765373Y-14165227D01*
X10674772Y-14074626D01*
X10674768Y-14074623D01*
X10651975Y-14059393D01*
X10607170Y-14005780D01*
X10598463Y-13936455D01*
X10605512Y-13910801D01*
X10649578Y-13799056D01*
X10660000Y-13712270D01*
X10660000Y-13700000D01*
X10104000Y-13700000D01*
X10036961Y-13680315D01*
X9991206Y-13627511D01*
X9980000Y-13576000D01*
X9980000Y-13500000D01*
X9904000Y-13500000D01*
X9836961Y-13480315D01*
X9791206Y-13427511D01*
X9780000Y-13376000D01*
X9780000Y-13300000D01*
X10180000Y-13300000D01*
X10659999Y-13300000D01*
X10659999Y-13287729D01*
X10649579Y-13200945D01*
X10649577Y-13200941D01*
X10595123Y-13062855D01*
X10595120Y-13062849D01*
X10505428Y-12944571D01*
X10387150Y-12854879D01*
X10387144Y-12854876D01*
X10249060Y-12800422D01*
X10249052Y-12800420D01*
X10180000Y-12792127D01*
X10180000Y-13300000D01*
X9780000Y-13300000D01*
X9780000Y-12792129D01*
X9710945Y-12800421D01*
X9710941Y-12800422D01*
X9572855Y-12854876D01*
X9572849Y-12854879D01*
X9487932Y-12919274D01*
X9480296Y-12922175D01*
X9474640Y-12928068D01*
X9448113Y-12934407D01*
X9422620Y-12944097D01*
X9412879Y-12942828D01*
X9406685Y-12944309D01*
X9372051Y-12937511D01*
X9368157Y-12936148D01*
X9302342Y-12913118D01*
X9271044Y-12902166D01*
X9214269Y-12861444D01*
X9188522Y-12796491D01*
X9188000Y-12785125D01*
X9188000Y-11161275D01*
X9207685Y-11094236D01*
X9224319Y-11073594D01*
X9341294Y-10956619D01*
X9402617Y-10923134D01*
X9428975Y-10920300D01*
X10108275Y-10920300D01*
X10175314Y-10939985D01*
G37*
G04 #@! TD.AperFunction*
G04 #@! TA.AperFunction,Conductor*
G36*
X13418039Y-3019685D02*
G01*
X13463794Y-3072489D01*
X13475000Y-3124000D01*
X13475000Y-3875000D01*
X13538200Y-3875000D01*
X13546885Y-3877550D01*
X13555847Y-3876262D01*
X13579887Y-3887240D01*
X13605239Y-3894685D01*
X13611166Y-3901525D01*
X13619403Y-3905287D01*
X13633692Y-3927521D01*
X13650994Y-3947489D01*
X13653281Y-3958003D01*
X13657177Y-3964065D01*
X13662200Y-3999000D01*
X13662200Y-4043930D01*
X13645589Y-4105927D01*
X13639709Y-4116111D01*
X13639707Y-4116115D01*
X13623542Y-4176441D01*
X13611160Y-4206336D01*
X13605400Y-4216312D01*
X13605401Y-4216313D01*
X13574700Y-4330891D01*
X13574700Y-4461056D01*
X13555015Y-4528095D01*
X13550470Y-4534690D01*
X13486147Y-4621844D01*
X13442291Y-4747173D01*
X13442289Y-4747185D01*
X13439500Y-4776929D01*
X13439500Y-5223070D01*
X13442289Y-5252814D01*
X13442291Y-5252826D01*
X13486147Y-5378156D01*
X13495269Y-5390515D01*
X13519241Y-5456144D01*
X13519500Y-5464150D01*
X13519500Y-5756593D01*
X13537015Y-5821962D01*
X13535352Y-5891812D01*
X13499529Y-5946815D01*
X13495000Y-5950832D01*
X13495000Y-7201000D01*
X13475315Y-7268039D01*
X13422511Y-7313794D01*
X13371000Y-7325000D01*
X13295000Y-7325000D01*
X13295000Y-7401000D01*
X13275315Y-7468039D01*
X13222511Y-7513794D01*
X13171000Y-7525000D01*
X12595000Y-7525000D01*
X12595000Y-7624200D01*
X12575315Y-7691239D01*
X12522511Y-7736994D01*
X12453353Y-7746938D01*
X12389797Y-7717913D01*
X12353959Y-7665155D01*
X12338803Y-7621843D01*
X12334381Y-7609206D01*
X12272234Y-7525000D01*
X12256423Y-7503576D01*
X12174037Y-7442773D01*
X12131787Y-7387126D01*
X12126328Y-7317469D01*
X12159396Y-7255920D01*
X12159696Y-7255616D01*
X12304800Y-7110514D01*
X12358981Y-7016670D01*
X12363613Y-7008648D01*
X12414180Y-6960432D01*
X12482788Y-6947210D01*
X12547652Y-6973178D01*
X12588180Y-7030092D01*
X12595000Y-7070648D01*
X12595000Y-7125000D01*
X13095000Y-7125000D01*
X13095000Y-5950832D01*
X13013557Y-5960613D01*
X13013556Y-5960613D01*
X12872904Y-6016079D01*
X12752435Y-6107435D01*
X12661078Y-6227906D01*
X12644154Y-6270823D01*
X12601248Y-6325966D01*
X12535340Y-6349159D01*
X12467356Y-6333038D01*
X12418880Y-6282721D01*
X12404800Y-6225332D01*
X12404800Y-3788046D01*
X12424485Y-3721007D01*
X12477289Y-3675252D01*
X12546447Y-3665308D01*
X12610003Y-3694333D01*
X12616481Y-3700365D01*
X12663883Y-3747767D01*
X12663891Y-3747773D01*
X12799811Y-3828155D01*
X12799814Y-3828156D01*
X12951446Y-3872210D01*
X12951452Y-3872211D01*
X12986881Y-3874999D01*
X12986894Y-3875000D01*
X13075000Y-3875000D01*
X13075000Y-3124000D01*
X13077550Y-3115314D01*
X13076262Y-3106353D01*
X13087240Y-3082312D01*
X13094685Y-3056961D01*
X13101525Y-3051033D01*
X13105287Y-3042797D01*
X13127521Y-3028507D01*
X13147489Y-3011206D01*
X13158003Y-3008918D01*
X13164065Y-3005023D01*
X13199000Y-3000000D01*
X13351000Y-3000000D01*
X13418039Y-3019685D01*
G37*
G04 #@! TD.AperFunction*
M02*
