G04 #@! TF.GenerationSoftware,KiCad,Pcbnew,10.0.4*
G04 #@! TF.CreationDate,2026-09-02T14:26:12+01:00*
G04 #@! TF.ProjectId,pl60c_dmx_mini,706c3630-635f-4646-9d78-5f6d696e692e,rev?*
G04 #@! TF.SameCoordinates,Original*
G04 #@! TF.FileFunction,Copper,L3,Inr*
G04 #@! TF.FilePolarity,Positive*
%FSLAX46Y46*%
G04 Gerber Fmt 4.6, Leading zero omitted, Abs format (unit mm)*
G04 Created by KiCad (PCBNEW 10.0.4) date 2026-09-02 14:26:12*
%MOMM*%
%LPD*%
G01*
G04 APERTURE LIST*
G04 #@! TA.AperFunction,ComponentPad*
%ADD10C,3.400000*%
G04 #@! TD*
G04 #@! TA.AperFunction,ComponentPad*
%ADD11C,2.900000*%
G04 #@! TD*
G04 #@! TA.AperFunction,ComponentPad*
%ADD12O,1.000000X2.100000*%
G04 #@! TD*
G04 #@! TA.AperFunction,ComponentPad*
%ADD13O,1.000000X1.600000*%
G04 #@! TD*
G04 #@! TA.AperFunction,ViaPad*
%ADD14C,0.700000*%
G04 #@! TD*
G04 #@! TA.AperFunction,ViaPad*
%ADD15C,0.600000*%
G04 #@! TD*
G04 #@! TA.AperFunction,ViaPad*
%ADD16C,0.800000*%
G04 #@! TD*
G04 #@! TA.AperFunction,Conductor*
%ADD17C,0.250000*%
G04 #@! TD*
G04 #@! TA.AperFunction,Conductor*
%ADD18C,0.400000*%
G04 #@! TD*
G04 APERTURE END LIST*
D10*
X21350000Y-10300000D03*
D11*
X25165000Y-14110000D03*
X21350000Y-14110000D03*
X25165000Y-21090000D03*
D10*
X21350000Y-17920000D03*
D11*
X31520000Y-5860000D03*
D12*
X2080000Y-22770000D03*
D13*
X2080000Y-26950000D03*
D12*
X10720000Y-22770000D03*
D13*
X10720000Y-26950000D03*
D14*
X1630200Y-8630200D03*
X7800000Y-6700000D03*
X7800000Y-12500000D03*
X9450000Y-6700000D03*
X3400000Y-6100000D03*
X5010000Y-12000000D03*
X2062500Y-6000000D03*
X25000000Y-5000000D03*
D15*
X7800000Y-9500000D03*
D14*
X1630200Y-14580200D03*
X13295000Y-4150000D03*
X2900000Y-5250000D03*
X4400000Y-1350000D03*
X15950000Y-16500000D03*
X2019000Y-10719000D03*
X15275000Y-26525000D03*
X1630200Y-16280200D03*
X9450000Y-12500000D03*
X1850000Y-17650000D03*
D15*
X9450000Y-9500000D03*
D14*
X2500000Y-4400000D03*
X2700000Y-17650000D03*
X3550000Y-1350000D03*
X6150000Y-12500000D03*
X14800000Y-1350000D03*
X1950000Y-6950000D03*
X10580100Y-8980100D03*
X18800000Y-26000000D03*
D15*
X9450000Y-11150000D03*
D14*
X31200000Y-27000000D03*
X1630200Y-12030200D03*
D15*
X6150000Y-7850000D03*
D14*
X1630200Y-4380200D03*
X2500000Y-12900000D03*
X9375000Y-17625000D03*
X3850000Y-27000000D03*
X11010000Y-13500000D03*
D15*
X6150000Y-9500000D03*
D14*
X2500000Y-16500000D03*
X18750000Y-4915000D03*
D15*
X7800000Y-7850000D03*
D14*
X5019900Y-8980100D03*
X19460000Y-25300000D03*
X25000000Y-10000000D03*
X1630200Y-12880200D03*
X9910000Y-25680000D03*
X3910000Y-25680000D03*
X18800000Y-21900000D03*
X30000000Y-10000000D03*
X1806900Y-9656900D03*
D15*
X9450000Y-7850000D03*
D14*
X17900000Y-16975000D03*
X5010000Y-8000000D03*
X7800000Y-5550000D03*
X6150000Y-6700000D03*
D15*
X6150000Y-11150000D03*
X7800000Y-11150000D03*
D14*
X3250000Y-18655000D03*
X8474700Y-24717300D03*
X9549999Y-18655000D03*
X3677300Y-24602500D03*
X7750000Y-19655000D03*
X13867600Y-8908600D03*
X5650000Y-24255000D03*
X4633100Y-25151400D03*
X10737900Y-6934800D03*
X7571900Y-24609100D03*
X7727000Y-23627600D03*
X12115300Y-14302200D03*
X16290600Y-9790700D03*
D16*
X3020000Y-7064800D03*
D15*
X3659600Y-17391300D03*
D16*
X18486000Y-3815200D03*
X16147900Y-24398700D03*
D14*
X10260100Y-14579900D03*
X14238000Y-26334900D03*
X12469400Y-8661000D03*
X12231300Y-20354000D03*
D15*
X12509700Y-12534200D03*
D14*
X10577400Y-20242500D03*
X8303400Y-1541500D03*
D15*
X32843300Y-24337500D03*
D14*
X36523000Y-24187500D03*
D15*
X13423100Y-14500000D03*
D14*
X13295000Y-10734600D03*
X15735600Y-10608600D03*
X11172600Y-5343800D03*
X10877500Y-11147100D03*
X3814500Y-4849300D03*
D16*
X6735900Y-13616600D03*
X7912700Y-4454100D03*
D17*
X8408300Y-24650900D02*
X8474700Y-24717300D01*
X8408300Y-22934900D02*
X8408300Y-24650900D01*
X9550000Y-21793200D02*
X8408300Y-22934900D01*
X9550000Y-18655000D02*
X9550000Y-21793200D01*
X15545000Y-27215500D02*
X15977800Y-26782700D01*
X9119100Y-25002200D02*
X11856800Y-25002200D01*
X15977800Y-25904900D02*
X15078900Y-25006000D01*
X6769500Y-25374500D02*
X8746800Y-25374500D01*
X5650000Y-24255000D02*
X6769500Y-25374500D01*
X11856800Y-25002200D02*
X14070100Y-27215500D01*
X15078900Y-25006000D02*
X15078900Y-10119900D01*
X14070100Y-27215500D02*
X15545000Y-27215500D01*
X8746800Y-25374500D02*
X9119100Y-25002200D01*
X15977800Y-26782700D02*
X15977800Y-25904900D01*
X15078900Y-10119900D02*
X13867600Y-8908600D01*
X6869000Y-23598300D02*
X6869000Y-23906200D01*
X5301600Y-23598300D02*
X4633100Y-24266800D01*
X10737900Y-7488300D02*
X9723500Y-8502700D01*
X8627500Y-9461600D02*
X8627500Y-21559400D01*
X4633100Y-24266800D02*
X4633100Y-25151400D01*
X9586400Y-8502700D02*
X8627500Y-9461600D01*
X6869000Y-23906200D02*
X7571900Y-24609100D01*
X9723500Y-8502700D02*
X9586400Y-8502700D01*
X6869000Y-23598300D02*
X5301600Y-23598300D01*
X10737900Y-6934800D02*
X10737900Y-7488300D01*
X6869000Y-23317900D02*
X6869000Y-23598300D01*
X8627500Y-21559400D02*
X6869000Y-23317900D01*
X12384100Y-11327600D02*
X12384100Y-9682100D01*
X14751700Y-8251800D02*
X16290600Y-9790700D01*
X12115300Y-14302200D02*
X11865800Y-14052700D01*
X12384100Y-9682100D02*
X13126200Y-8940000D01*
X11865800Y-14052700D02*
X11865800Y-11845900D01*
X13126200Y-8940000D02*
X13126200Y-8708300D01*
X13582700Y-8251800D02*
X14751700Y-8251800D01*
X11865800Y-11845900D02*
X12384100Y-11327600D01*
X13126200Y-8708300D02*
X13582700Y-8251800D01*
D18*
X3659600Y-7704400D02*
X3659600Y-17391300D01*
X17078000Y-4932900D02*
X17368300Y-4932900D01*
X5286300Y-3491100D02*
X8017500Y-759900D01*
X17078000Y-23468600D02*
X16147900Y-24398700D01*
X8017500Y-759900D02*
X12905000Y-759900D01*
X17078000Y-4932900D02*
X17078000Y-23468600D01*
X3259900Y-7304600D02*
X3659600Y-7704400D01*
X5286300Y-5278200D02*
X5286300Y-3491100D01*
X17368300Y-4932900D02*
X18486000Y-3815200D01*
X12905000Y-759900D02*
X17078000Y-4932900D01*
X3259900Y-7304600D02*
X5286300Y-5278200D01*
X3020000Y-7064800D02*
X3259900Y-7304600D01*
D17*
X11525200Y-21009200D02*
X14238000Y-23722000D01*
X11525200Y-15845000D02*
X11525200Y-21009200D01*
X14238000Y-23722000D02*
X14238000Y-26334900D01*
X10260100Y-14579900D02*
X11525200Y-15845000D01*
X12231300Y-20354000D02*
X12794200Y-19791100D01*
X12794200Y-19791100D02*
X12794200Y-12818700D01*
X12794200Y-12818700D02*
X12509700Y-12534200D01*
X11778900Y-8416500D02*
X11778900Y-11237300D01*
X11835400Y-5073500D02*
X11835400Y-8360000D01*
X11778900Y-11237300D02*
X9553500Y-13462700D01*
X8303400Y-1541500D02*
X11835400Y-5073500D01*
X11835400Y-8360000D02*
X11778900Y-8416500D01*
X9553500Y-16083100D02*
X10577400Y-17107000D01*
X9553500Y-13462700D02*
X9553500Y-16083100D01*
X10577400Y-17107000D02*
X10577400Y-20242500D01*
X11394600Y-7206900D02*
X11394600Y-5565800D01*
X11394600Y-5565800D02*
X11172600Y-5343800D01*
X11292800Y-10731800D02*
X11292800Y-7308700D01*
X11292800Y-7308700D02*
X11394600Y-7206900D01*
X10877500Y-11147100D02*
X11292800Y-10731800D01*
D18*
X6881700Y-5391600D02*
X6881700Y-13470800D01*
X6881700Y-13470800D02*
X6735900Y-13616600D01*
X7912700Y-4454100D02*
X7819200Y-4454100D01*
X7819200Y-4454100D02*
X6881700Y-5391600D01*
G04 #@! TA.AperFunction,Conductor*
G36*
X7337263Y-519685D02*
G01*
X7383018Y-572489D01*
X7392962Y-641647D01*
X7363937Y-705203D01*
X7357905Y-711681D01*
X4885802Y-3183783D01*
X4885800Y-3183786D01*
X4819908Y-3297912D01*
X4785800Y-3425208D01*
X4785800Y-5019523D01*
X4766115Y-5086562D01*
X4749481Y-5107204D01*
X4613771Y-5242914D01*
X4552448Y-5276399D01*
X4482756Y-5271415D01*
X4426823Y-5229543D01*
X4402406Y-5164079D01*
X4411528Y-5107782D01*
X4440001Y-5039044D01*
X4461865Y-4929131D01*
X4465000Y-4913371D01*
X4465000Y-4785228D01*
X4440002Y-4659561D01*
X4440001Y-4659560D01*
X4440001Y-4659556D01*
X4390965Y-4541173D01*
X4390964Y-4541172D01*
X4390961Y-4541166D01*
X4319776Y-4434631D01*
X4319773Y-4434627D01*
X4229172Y-4344026D01*
X4229168Y-4344023D01*
X4122633Y-4272838D01*
X4122624Y-4272833D01*
X4004244Y-4223799D01*
X4004238Y-4223797D01*
X3878571Y-4198800D01*
X3878569Y-4198800D01*
X3750431Y-4198800D01*
X3750429Y-4198800D01*
X3624761Y-4223797D01*
X3624755Y-4223799D01*
X3506375Y-4272833D01*
X3506366Y-4272838D01*
X3399831Y-4344023D01*
X3399827Y-4344026D01*
X3309226Y-4434627D01*
X3309223Y-4434631D01*
X3238038Y-4541166D01*
X3238033Y-4541175D01*
X3188999Y-4659555D01*
X3188997Y-4659561D01*
X3164000Y-4785228D01*
X3164000Y-4785231D01*
X3164000Y-4913369D01*
X3164000Y-4913371D01*
X3163999Y-4913371D01*
X3188997Y-5039038D01*
X3188999Y-5039044D01*
X3238033Y-5157424D01*
X3238038Y-5157433D01*
X3309223Y-5263968D01*
X3309226Y-5263972D01*
X3399827Y-5354573D01*
X3399831Y-5354576D01*
X3506366Y-5425761D01*
X3506372Y-5425764D01*
X3506373Y-5425765D01*
X3624756Y-5474801D01*
X3624760Y-5474801D01*
X3624761Y-5474802D01*
X3750428Y-5499800D01*
X3750431Y-5499800D01*
X3878571Y-5499800D01*
X3963115Y-5482982D01*
X4004244Y-5474801D01*
X4072981Y-5446328D01*
X4142449Y-5438860D01*
X4204928Y-5470135D01*
X4240581Y-5530223D01*
X4238088Y-5600049D01*
X4208114Y-5648571D01*
X3453424Y-6403260D01*
X3392101Y-6436745D01*
X3322409Y-6431761D01*
X3318291Y-6430140D01*
X3224332Y-6391221D01*
X3224322Y-6391218D01*
X3088995Y-6364300D01*
X3088993Y-6364300D01*
X2951007Y-6364300D01*
X2951005Y-6364300D01*
X2815677Y-6391218D01*
X2815667Y-6391221D01*
X2688195Y-6444021D01*
X2688182Y-6444028D01*
X2573458Y-6520685D01*
X2573454Y-6520688D01*
X2475888Y-6618254D01*
X2475885Y-6618258D01*
X2399228Y-6732982D01*
X2399221Y-6732995D01*
X2346421Y-6860467D01*
X2346418Y-6860477D01*
X2319500Y-6995804D01*
X2319500Y-6995807D01*
X2319500Y-7133793D01*
X2319500Y-7133795D01*
X2319499Y-7133795D01*
X2346418Y-7269122D01*
X2346421Y-7269132D01*
X2399221Y-7396604D01*
X2399228Y-7396617D01*
X2475885Y-7511341D01*
X2475888Y-7511345D01*
X2573454Y-7608911D01*
X2573458Y-7608914D01*
X2688182Y-7685571D01*
X2688195Y-7685578D01*
X2733786Y-7704462D01*
X2815672Y-7738380D01*
X2815676Y-7738380D01*
X2815677Y-7738381D01*
X2951004Y-7765300D01*
X2951007Y-7765300D01*
X2961389Y-7765300D01*
X2990835Y-7773946D01*
X3020829Y-7780475D01*
X3025835Y-7784223D01*
X3028428Y-7784985D01*
X3049076Y-7801625D01*
X3122793Y-7875360D01*
X3156269Y-7936686D01*
X3159100Y-7963029D01*
X3159100Y-17023964D01*
X3142488Y-17085963D01*
X3100023Y-17159515D01*
X3100023Y-17159516D01*
X3059100Y-17312243D01*
X3059100Y-17470357D01*
X3097479Y-17613587D01*
X3100023Y-17623083D01*
X3100026Y-17623090D01*
X3179075Y-17760009D01*
X3179081Y-17760017D01*
X3220098Y-17801034D01*
X3253583Y-17862357D01*
X3248599Y-17932049D01*
X3206727Y-17987982D01*
X3156609Y-18010332D01*
X3060261Y-18029497D01*
X3060255Y-18029499D01*
X2941875Y-18078533D01*
X2941866Y-18078538D01*
X2835331Y-18149723D01*
X2835327Y-18149726D01*
X2744726Y-18240327D01*
X2744723Y-18240331D01*
X2673538Y-18346866D01*
X2673533Y-18346875D01*
X2624499Y-18465255D01*
X2624497Y-18465261D01*
X2599500Y-18590928D01*
X2599500Y-18590931D01*
X2599500Y-18719069D01*
X2599500Y-18719071D01*
X2599499Y-18719071D01*
X2624497Y-18844738D01*
X2624499Y-18844744D01*
X2673533Y-18963124D01*
X2673538Y-18963133D01*
X2744723Y-19069668D01*
X2744726Y-19069672D01*
X2835327Y-19160273D01*
X2835331Y-19160276D01*
X2941866Y-19231461D01*
X2941872Y-19231464D01*
X2941873Y-19231465D01*
X3060256Y-19280501D01*
X3060260Y-19280501D01*
X3060261Y-19280502D01*
X3185928Y-19305500D01*
X3185931Y-19305500D01*
X3314071Y-19305500D01*
X3398615Y-19288682D01*
X3439744Y-19280501D01*
X3558127Y-19231465D01*
X3664669Y-19160276D01*
X3755276Y-19069669D01*
X3826465Y-18963127D01*
X3875501Y-18844744D01*
X3900500Y-18719069D01*
X3900500Y-18590931D01*
X3900500Y-18590928D01*
X3875502Y-18465261D01*
X3875501Y-18465260D01*
X3875501Y-18465256D01*
X3826465Y-18346873D01*
X3826464Y-18346872D01*
X3826461Y-18346866D01*
X3755276Y-18240331D01*
X3755273Y-18240327D01*
X3707622Y-18192676D01*
X3674137Y-18131353D01*
X3679121Y-18061661D01*
X3720993Y-18005728D01*
X3763205Y-17985222D01*
X3891384Y-17950877D01*
X4028316Y-17871820D01*
X4140120Y-17760016D01*
X4219177Y-17623084D01*
X4260100Y-17470357D01*
X4260100Y-17312243D01*
X4219177Y-17159516D01*
X4176712Y-17085963D01*
X4160100Y-17023964D01*
X4160100Y-13685595D01*
X6035399Y-13685595D01*
X6062318Y-13820922D01*
X6062321Y-13820932D01*
X6115121Y-13948404D01*
X6115128Y-13948417D01*
X6191785Y-14063141D01*
X6191788Y-14063145D01*
X6289354Y-14160711D01*
X6289358Y-14160714D01*
X6404082Y-14237371D01*
X6404095Y-14237378D01*
X6487133Y-14271773D01*
X6531572Y-14290180D01*
X6531576Y-14290180D01*
X6531577Y-14290181D01*
X6666904Y-14317100D01*
X6666907Y-14317100D01*
X6804895Y-14317100D01*
X6895941Y-14298989D01*
X6940228Y-14290180D01*
X7067711Y-14237375D01*
X7182442Y-14160714D01*
X7280014Y-14063142D01*
X7356675Y-13948411D01*
X7359983Y-13940426D01*
X7375512Y-13902935D01*
X7409480Y-13820928D01*
X7420056Y-13767759D01*
X7436400Y-13685595D01*
X7436400Y-13547604D01*
X7409481Y-13412277D01*
X7409480Y-13412276D01*
X7409480Y-13412272D01*
X7391637Y-13369196D01*
X7382200Y-13321746D01*
X7382200Y-5650275D01*
X7401885Y-5583236D01*
X7418519Y-5562594D01*
X7790194Y-5190919D01*
X7851517Y-5157434D01*
X7877875Y-5154600D01*
X7981695Y-5154600D01*
X8072741Y-5136489D01*
X8117028Y-5127680D01*
X8244511Y-5074875D01*
X8359242Y-4998214D01*
X8456814Y-4900642D01*
X8533475Y-4785911D01*
X8586280Y-4658428D01*
X8607446Y-4552019D01*
X8613200Y-4523095D01*
X8613200Y-4385104D01*
X8586281Y-4249777D01*
X8586280Y-4249776D01*
X8586280Y-4249772D01*
X8543718Y-4147017D01*
X8533478Y-4122295D01*
X8533471Y-4122282D01*
X8456814Y-4007558D01*
X8456811Y-4007554D01*
X8359245Y-3909988D01*
X8359241Y-3909985D01*
X8244517Y-3833328D01*
X8244504Y-3833321D01*
X8117032Y-3780521D01*
X8117022Y-3780518D01*
X7981695Y-3753600D01*
X7981693Y-3753600D01*
X7843707Y-3753600D01*
X7843705Y-3753600D01*
X7708377Y-3780518D01*
X7708367Y-3780521D01*
X7580895Y-3833321D01*
X7580882Y-3833328D01*
X7466158Y-3909985D01*
X7466154Y-3909988D01*
X7368588Y-4007554D01*
X7368585Y-4007558D01*
X7291928Y-4122282D01*
X7291921Y-4122295D01*
X7239121Y-4249767D01*
X7239118Y-4249777D01*
X7227439Y-4308493D01*
X7195054Y-4370404D01*
X7193503Y-4371982D01*
X6556944Y-5008540D01*
X6556945Y-5008541D01*
X6481200Y-5084286D01*
X6415308Y-5198412D01*
X6381200Y-5325708D01*
X6381200Y-12944839D01*
X6361515Y-13011878D01*
X6326092Y-13047940D01*
X6304917Y-13062090D01*
X6289354Y-13072489D01*
X6289351Y-13072492D01*
X6191788Y-13170054D01*
X6191785Y-13170058D01*
X6115128Y-13284782D01*
X6115121Y-13284795D01*
X6062321Y-13412267D01*
X6062318Y-13412277D01*
X6035400Y-13547604D01*
X6035400Y-13547607D01*
X6035400Y-13685593D01*
X6035400Y-13685595D01*
X6035399Y-13685595D01*
X4160100Y-13685595D01*
X4160100Y-7704462D01*
X4160108Y-7638570D01*
X4160100Y-7638540D01*
X4160100Y-7638508D01*
X4141734Y-7569963D01*
X4126120Y-7511662D01*
X4126015Y-7511257D01*
X4126013Y-7511253D01*
X4125993Y-7511218D01*
X4125992Y-7511214D01*
X4091478Y-7451435D01*
X4091477Y-7451433D01*
X4091479Y-7451431D01*
X4091470Y-7451421D01*
X4060138Y-7397136D01*
X4060134Y-7397132D01*
X4060098Y-7397084D01*
X4055344Y-7392330D01*
X4021859Y-7331007D01*
X4026843Y-7261315D01*
X4055342Y-7216970D01*
X5686799Y-5585515D01*
X5725961Y-5517686D01*
X5752692Y-5471386D01*
X5771401Y-5401563D01*
X5786800Y-5344093D01*
X5786800Y-5212308D01*
X5786800Y-3749775D01*
X5806485Y-3682736D01*
X5823114Y-3662099D01*
X7583507Y-1901705D01*
X7644828Y-1868222D01*
X7714520Y-1873206D01*
X7770453Y-1915078D01*
X7774288Y-1920497D01*
X7798123Y-1956168D01*
X7798126Y-1956172D01*
X7888727Y-2046773D01*
X7888731Y-2046776D01*
X7995266Y-2117961D01*
X7995272Y-2117964D01*
X7995273Y-2117965D01*
X8113656Y-2167001D01*
X8113660Y-2167001D01*
X8113661Y-2167002D01*
X8239328Y-2192000D01*
X8239331Y-2192000D01*
X8300790Y-2192000D01*
X8367829Y-2211685D01*
X8388471Y-2228319D01*
X10795407Y-4635254D01*
X10828892Y-4696577D01*
X10823908Y-4766269D01*
X10782036Y-4822202D01*
X10776620Y-4826035D01*
X10757932Y-4838522D01*
X10757927Y-4838526D01*
X10667326Y-4929127D01*
X10667323Y-4929131D01*
X10596138Y-5035666D01*
X10596133Y-5035675D01*
X10547099Y-5154055D01*
X10547097Y-5154061D01*
X10522100Y-5279728D01*
X10522100Y-5279731D01*
X10522100Y-5407869D01*
X10522100Y-5407871D01*
X10522099Y-5407871D01*
X10547097Y-5533538D01*
X10547099Y-5533544D01*
X10596133Y-5651924D01*
X10596138Y-5651933D01*
X10667323Y-5758468D01*
X10667326Y-5758472D01*
X10757927Y-5849073D01*
X10757931Y-5849076D01*
X10864466Y-5920261D01*
X10864478Y-5920268D01*
X10892552Y-5931896D01*
X10908117Y-5944438D01*
X10926303Y-5952744D01*
X10934766Y-5965913D01*
X10946956Y-5975736D01*
X10953269Y-5994705D01*
X10964077Y-6011522D01*
X10968039Y-6039081D01*
X10969021Y-6042030D01*
X10969100Y-6046457D01*
X10969100Y-6166449D01*
X10949415Y-6233488D01*
X10896611Y-6279243D01*
X10827453Y-6289187D01*
X10820912Y-6288067D01*
X10801971Y-6284300D01*
X10801969Y-6284300D01*
X10673831Y-6284300D01*
X10673829Y-6284300D01*
X10548161Y-6309297D01*
X10548155Y-6309299D01*
X10429775Y-6358333D01*
X10429766Y-6358338D01*
X10323231Y-6429523D01*
X10323227Y-6429526D01*
X10232626Y-6520127D01*
X10232623Y-6520131D01*
X10161438Y-6626666D01*
X10161433Y-6626675D01*
X10112399Y-6745055D01*
X10112397Y-6745061D01*
X10087400Y-6870728D01*
X10087400Y-6870731D01*
X10087400Y-6998869D01*
X10087400Y-6998871D01*
X10087399Y-6998871D01*
X10112397Y-7124538D01*
X10112399Y-7124544D01*
X10161433Y-7242924D01*
X10161437Y-7242931D01*
X10193053Y-7290248D01*
X10213930Y-7356926D01*
X10195445Y-7424306D01*
X10177631Y-7446819D01*
X9576921Y-8047530D01*
X9521334Y-8079624D01*
X9491706Y-8087563D01*
X9422161Y-8106197D01*
X9422160Y-8106198D01*
X9325140Y-8162213D01*
X9325134Y-8162217D01*
X9245913Y-8241439D01*
X8348796Y-9138555D01*
X8348795Y-9138555D01*
X8348796Y-9138556D01*
X8287014Y-9200338D01*
X8287013Y-9200340D01*
X8230998Y-9297360D01*
X8230997Y-9297363D01*
X8202000Y-9405582D01*
X8202000Y-18952549D01*
X8182315Y-19019588D01*
X8129511Y-19065343D01*
X8060353Y-19075287D01*
X8030548Y-19067110D01*
X7939748Y-19029500D01*
X7939738Y-19029497D01*
X7814071Y-19004500D01*
X7814069Y-19004500D01*
X7685931Y-19004500D01*
X7685929Y-19004500D01*
X7560261Y-19029497D01*
X7560255Y-19029499D01*
X7441875Y-19078533D01*
X7441866Y-19078538D01*
X7335331Y-19149723D01*
X7335327Y-19149726D01*
X7244726Y-19240327D01*
X7244723Y-19240331D01*
X7173538Y-19346866D01*
X7173533Y-19346875D01*
X7124499Y-19465255D01*
X7124497Y-19465261D01*
X7099500Y-19590928D01*
X7099500Y-19590931D01*
X7099500Y-19719069D01*
X7099500Y-19719071D01*
X7099499Y-19719071D01*
X7124497Y-19844738D01*
X7124499Y-19844744D01*
X7173533Y-19963124D01*
X7173538Y-19963133D01*
X7244723Y-20069668D01*
X7244726Y-20069672D01*
X7335327Y-20160273D01*
X7335331Y-20160276D01*
X7441866Y-20231461D01*
X7441872Y-20231464D01*
X7441873Y-20231465D01*
X7560256Y-20280501D01*
X7560260Y-20280501D01*
X7560261Y-20280502D01*
X7685928Y-20305500D01*
X7685931Y-20305500D01*
X7814071Y-20305500D01*
X7898615Y-20288682D01*
X7939744Y-20280501D01*
X8030547Y-20242888D01*
X8100017Y-20235420D01*
X8162496Y-20266695D01*
X8198148Y-20326784D01*
X8202000Y-20357450D01*
X8202000Y-21331790D01*
X8182315Y-21398829D01*
X8165681Y-21419471D01*
X6528517Y-23056634D01*
X6528513Y-23056640D01*
X6497244Y-23110800D01*
X6446677Y-23159016D01*
X6389857Y-23172800D01*
X5245582Y-23172800D01*
X5137363Y-23201797D01*
X5137360Y-23201798D01*
X5040340Y-23257813D01*
X5040334Y-23257817D01*
X4292617Y-24005534D01*
X4292615Y-24005537D01*
X4264756Y-24053790D01*
X4214188Y-24102005D01*
X4145581Y-24115227D01*
X4088478Y-24094891D01*
X3985433Y-24026038D01*
X3985423Y-24026033D01*
X3878882Y-23981902D01*
X3824479Y-23938061D01*
X3802414Y-23871766D01*
X3819693Y-23804067D01*
X3857713Y-23766501D01*
X3856916Y-23765463D01*
X3863357Y-23760519D01*
X3863365Y-23760515D01*
X3970515Y-23653365D01*
X4046281Y-23522135D01*
X4085500Y-23375766D01*
X4085500Y-23224234D01*
X4046281Y-23077865D01*
X3970515Y-22946635D01*
X3863365Y-22839485D01*
X3758802Y-22779115D01*
X3732136Y-22763719D01*
X3658950Y-22744109D01*
X3585766Y-22724500D01*
X3434234Y-22724500D01*
X3287863Y-22763719D01*
X3156635Y-22839485D01*
X3156632Y-22839487D01*
X3062439Y-22933681D01*
X3001116Y-22967166D01*
X2974758Y-22970000D01*
X2380000Y-22970000D01*
X2380000Y-22570000D01*
X2980000Y-22570000D01*
X2980000Y-22131357D01*
X2979999Y-22131353D01*
X2945415Y-21957487D01*
X2945413Y-21957479D01*
X2877571Y-21793692D01*
X2877566Y-21793683D01*
X2779076Y-21646283D01*
X2779073Y-21646279D01*
X2653720Y-21520926D01*
X2653716Y-21520923D01*
X2506316Y-21422433D01*
X2506307Y-21422428D01*
X2342520Y-21354586D01*
X2342512Y-21354584D01*
X2280000Y-21342149D01*
X2280000Y-21995735D01*
X2264205Y-21979940D01*
X2195796Y-21940444D01*
X2119496Y-21920000D01*
X2040504Y-21920000D01*
X1964204Y-21940444D01*
X1895795Y-21979940D01*
X1880000Y-21995735D01*
X1880000Y-21342149D01*
X1817487Y-21354584D01*
X1817479Y-21354586D01*
X1653692Y-21422428D01*
X1653683Y-21422433D01*
X1506283Y-21520923D01*
X1506279Y-21520926D01*
X1380926Y-21646279D01*
X1380923Y-21646283D01*
X1282433Y-21793683D01*
X1282428Y-21793692D01*
X1214586Y-21957479D01*
X1214584Y-21957487D01*
X1180000Y-22131353D01*
X1180000Y-22570000D01*
X1780000Y-22570000D01*
X1780000Y-22970000D01*
X1180000Y-22970000D01*
X1180000Y-23408646D01*
X1214584Y-23582512D01*
X1214586Y-23582520D01*
X1282428Y-23746307D01*
X1282433Y-23746316D01*
X1380923Y-23893716D01*
X1380926Y-23893720D01*
X1506279Y-24019073D01*
X1506283Y-24019076D01*
X1653683Y-24117566D01*
X1653696Y-24117573D01*
X1817474Y-24185411D01*
X1817482Y-24185413D01*
X1880000Y-24197848D01*
X1880000Y-23544265D01*
X1895795Y-23560060D01*
X1964204Y-23599556D01*
X2040504Y-23620000D01*
X2119496Y-23620000D01*
X2195796Y-23599556D01*
X2264205Y-23560060D01*
X2280000Y-23544265D01*
X2280000Y-24197847D01*
X2342517Y-24185413D01*
X2342525Y-24185411D01*
X2506303Y-24117573D01*
X2506316Y-24117566D01*
X2653716Y-24019076D01*
X2653720Y-24019073D01*
X2779073Y-23893720D01*
X2779076Y-23893716D01*
X2877566Y-23746316D01*
X2877569Y-23746310D01*
X2884124Y-23730484D01*
X2927962Y-23676078D01*
X2994255Y-23654009D01*
X3061955Y-23671285D01*
X3086369Y-23690249D01*
X3156635Y-23760515D01*
X3238393Y-23807718D01*
X3287865Y-23836281D01*
X3295369Y-23839389D01*
X3294475Y-23841545D01*
X3343906Y-23871671D01*
X3374440Y-23934516D01*
X3366150Y-24003892D01*
X3321668Y-24057773D01*
X3321050Y-24058188D01*
X3262633Y-24097221D01*
X3262627Y-24097226D01*
X3172026Y-24187827D01*
X3172023Y-24187831D01*
X3100838Y-24294366D01*
X3100833Y-24294375D01*
X3051799Y-24412755D01*
X3051797Y-24412761D01*
X3026800Y-24538428D01*
X3026800Y-24538431D01*
X3026800Y-24666569D01*
X3026800Y-24666571D01*
X3026799Y-24666571D01*
X3051797Y-24792238D01*
X3051799Y-24792244D01*
X3100833Y-24910624D01*
X3100838Y-24910633D01*
X3172023Y-25017168D01*
X3172026Y-25017172D01*
X3262627Y-25107773D01*
X3262631Y-25107776D01*
X3369166Y-25178961D01*
X3369175Y-25178966D01*
X3395992Y-25190074D01*
X3487556Y-25228001D01*
X3487560Y-25228001D01*
X3487561Y-25228002D01*
X3613228Y-25253000D01*
X3613231Y-25253000D01*
X3741371Y-25253000D01*
X3858982Y-25229605D01*
X3928574Y-25235832D01*
X3983751Y-25278695D01*
X4004791Y-25327029D01*
X4007597Y-25341139D01*
X4007599Y-25341144D01*
X4056633Y-25459524D01*
X4056638Y-25459533D01*
X4127823Y-25566068D01*
X4127826Y-25566072D01*
X4218427Y-25656673D01*
X4218431Y-25656676D01*
X4324966Y-25727861D01*
X4324972Y-25727864D01*
X4324973Y-25727865D01*
X4443356Y-25776901D01*
X4443360Y-25776901D01*
X4443361Y-25776902D01*
X4569028Y-25801900D01*
X4569031Y-25801900D01*
X4697171Y-25801900D01*
X4784220Y-25784584D01*
X4822844Y-25776901D01*
X4941227Y-25727865D01*
X5047769Y-25656676D01*
X5138376Y-25566069D01*
X5209565Y-25459527D01*
X5258601Y-25341144D01*
X5273297Y-25267263D01*
X5283600Y-25215471D01*
X5283600Y-25087328D01*
X5268161Y-25009716D01*
X5274388Y-24940125D01*
X5317250Y-24884947D01*
X5383140Y-24861702D01*
X5437230Y-24870963D01*
X5460256Y-24880501D01*
X5460260Y-24880501D01*
X5460261Y-24880502D01*
X5585928Y-24905500D01*
X5585931Y-24905500D01*
X5647390Y-24905500D01*
X5714429Y-24925185D01*
X5735071Y-24941819D01*
X6508237Y-25714985D01*
X6605263Y-25771003D01*
X6713482Y-25800000D01*
X6713484Y-25800000D01*
X8802816Y-25800000D01*
X8802818Y-25800000D01*
X8911037Y-25771003D01*
X9008063Y-25714985D01*
X9259029Y-25464019D01*
X9320352Y-25430534D01*
X9346710Y-25427700D01*
X11629190Y-25427700D01*
X11696229Y-25447385D01*
X11716871Y-25464019D01*
X13729615Y-27476763D01*
X13808837Y-27555985D01*
X13905863Y-27612003D01*
X14014082Y-27641000D01*
X14014084Y-27641000D01*
X15601016Y-27641000D01*
X15601018Y-27641000D01*
X15709237Y-27612003D01*
X15806263Y-27555985D01*
X16318285Y-27043963D01*
X16374303Y-26946937D01*
X16403300Y-26838718D01*
X16403300Y-26726681D01*
X16403300Y-25848882D01*
X16374303Y-25740663D01*
X16318285Y-25643637D01*
X16239063Y-25564415D01*
X15985529Y-25310881D01*
X15952044Y-25249558D01*
X15957028Y-25179866D01*
X15998900Y-25123933D01*
X16064364Y-25099516D01*
X16073210Y-25099200D01*
X16216895Y-25099200D01*
X16307941Y-25081089D01*
X16352228Y-25072280D01*
X16479711Y-25019475D01*
X16594442Y-24942814D01*
X16692014Y-24845242D01*
X16768675Y-24730511D01*
X16821480Y-24603028D01*
X16834330Y-24538428D01*
X16848400Y-24467695D01*
X16848400Y-24457376D01*
X16868085Y-24390337D01*
X16884719Y-24369695D01*
X16995971Y-24258443D01*
X32242800Y-24258443D01*
X32242800Y-24416557D01*
X32282074Y-24563127D01*
X32283723Y-24569283D01*
X32283726Y-24569290D01*
X32362775Y-24706209D01*
X32362779Y-24706214D01*
X32362780Y-24706216D01*
X32474584Y-24818020D01*
X32474586Y-24818021D01*
X32474590Y-24818024D01*
X32582805Y-24880501D01*
X32611516Y-24897077D01*
X32764243Y-24938000D01*
X32764245Y-24938000D01*
X32922355Y-24938000D01*
X32922357Y-24938000D01*
X33075084Y-24897077D01*
X33212016Y-24818020D01*
X33323820Y-24706216D01*
X33402877Y-24569284D01*
X33443800Y-24416557D01*
X33443800Y-24258443D01*
X33441959Y-24251571D01*
X35872499Y-24251571D01*
X35897497Y-24377238D01*
X35897499Y-24377244D01*
X35946533Y-24495624D01*
X35946538Y-24495633D01*
X36017723Y-24602168D01*
X36017726Y-24602172D01*
X36108327Y-24692773D01*
X36108331Y-24692776D01*
X36214866Y-24763961D01*
X36214872Y-24763964D01*
X36214873Y-24763965D01*
X36333256Y-24813001D01*
X36333260Y-24813001D01*
X36333261Y-24813002D01*
X36458928Y-24838000D01*
X36458931Y-24838000D01*
X36587071Y-24838000D01*
X36687512Y-24818020D01*
X36712744Y-24813001D01*
X36831127Y-24763965D01*
X36937669Y-24692776D01*
X37028276Y-24602169D01*
X37099465Y-24495627D01*
X37148501Y-24377244D01*
X37168094Y-24278748D01*
X37173500Y-24251571D01*
X37173500Y-24123428D01*
X37148502Y-23997761D01*
X37148501Y-23997760D01*
X37148501Y-23997756D01*
X37099465Y-23879373D01*
X37099464Y-23879372D01*
X37099461Y-23879366D01*
X37028276Y-23772831D01*
X37028273Y-23772827D01*
X36937672Y-23682226D01*
X36937668Y-23682223D01*
X36831133Y-23611038D01*
X36831124Y-23611033D01*
X36712744Y-23561999D01*
X36712738Y-23561997D01*
X36587071Y-23537000D01*
X36587069Y-23537000D01*
X36458931Y-23537000D01*
X36458929Y-23537000D01*
X36333261Y-23561997D01*
X36333255Y-23561999D01*
X36214875Y-23611033D01*
X36214866Y-23611038D01*
X36108331Y-23682223D01*
X36108327Y-23682226D01*
X36017726Y-23772827D01*
X36017723Y-23772831D01*
X35946538Y-23879366D01*
X35946533Y-23879375D01*
X35897499Y-23997755D01*
X35897497Y-23997761D01*
X35872500Y-24123428D01*
X35872500Y-24123431D01*
X35872500Y-24251569D01*
X35872500Y-24251571D01*
X35872499Y-24251571D01*
X33441959Y-24251571D01*
X33402877Y-24105716D01*
X33401057Y-24102563D01*
X33323824Y-23968790D01*
X33323818Y-23968782D01*
X33212017Y-23856981D01*
X33212009Y-23856975D01*
X33075090Y-23777926D01*
X33075086Y-23777924D01*
X33075084Y-23777923D01*
X32922357Y-23737000D01*
X32764243Y-23737000D01*
X32611516Y-23777923D01*
X32611509Y-23777926D01*
X32474590Y-23856975D01*
X32474582Y-23856981D01*
X32362781Y-23968782D01*
X32362775Y-23968790D01*
X32283726Y-24105709D01*
X32283723Y-24105716D01*
X32242800Y-24258443D01*
X16995971Y-24258443D01*
X17091779Y-24162635D01*
X17277415Y-23976999D01*
X17478500Y-23775914D01*
X17544392Y-23661786D01*
X17578500Y-23534492D01*
X17578500Y-23402708D01*
X17578500Y-20975258D01*
X23414500Y-20975258D01*
X23414500Y-21204741D01*
X23437990Y-21383152D01*
X23444452Y-21432238D01*
X23464257Y-21506151D01*
X23503842Y-21653887D01*
X23591650Y-21865876D01*
X23591656Y-21865888D01*
X23700529Y-22054463D01*
X23706392Y-22064617D01*
X23846081Y-22246661D01*
X23846089Y-22246670D01*
X24008330Y-22408911D01*
X24008338Y-22408918D01*
X24008339Y-22408919D01*
X24028396Y-22424309D01*
X24190382Y-22548607D01*
X24190385Y-22548608D01*
X24190388Y-22548611D01*
X24389112Y-22663344D01*
X24389117Y-22663346D01*
X24389123Y-22663349D01*
X24480480Y-22701190D01*
X24601113Y-22751158D01*
X24822762Y-22810548D01*
X25050266Y-22840500D01*
X25050273Y-22840500D01*
X25279727Y-22840500D01*
X25279734Y-22840500D01*
X25507238Y-22810548D01*
X25728887Y-22751158D01*
X25940888Y-22663344D01*
X26139612Y-22548611D01*
X26321661Y-22408919D01*
X26321665Y-22408914D01*
X26321670Y-22408911D01*
X26483911Y-22246670D01*
X26483914Y-22246665D01*
X26483919Y-22246661D01*
X26623611Y-22064612D01*
X26738344Y-21865888D01*
X26826158Y-21653887D01*
X26885548Y-21432238D01*
X26915500Y-21204734D01*
X26915500Y-20975266D01*
X26885548Y-20747762D01*
X26826158Y-20526113D01*
X26756295Y-20357450D01*
X26738349Y-20314123D01*
X26738346Y-20314117D01*
X26738344Y-20314112D01*
X26623611Y-20115388D01*
X26623608Y-20115385D01*
X26623607Y-20115382D01*
X26483918Y-19933338D01*
X26483911Y-19933330D01*
X26321670Y-19771089D01*
X26321661Y-19771081D01*
X26139617Y-19631392D01*
X25940890Y-19516657D01*
X25940876Y-19516650D01*
X25728887Y-19428842D01*
X25723035Y-19427274D01*
X25507238Y-19369452D01*
X25469215Y-19364446D01*
X25279741Y-19339500D01*
X25279734Y-19339500D01*
X25050266Y-19339500D01*
X25050258Y-19339500D01*
X24833715Y-19368009D01*
X24822762Y-19369452D01*
X24729076Y-19394554D01*
X24601112Y-19428842D01*
X24389123Y-19516650D01*
X24389109Y-19516657D01*
X24190382Y-19631392D01*
X24008338Y-19771081D01*
X23846081Y-19933338D01*
X23706392Y-20115382D01*
X23591657Y-20314109D01*
X23591650Y-20314123D01*
X23503842Y-20526112D01*
X23475553Y-20631690D01*
X23447557Y-20736176D01*
X23444453Y-20747759D01*
X23444451Y-20747770D01*
X23414500Y-20975258D01*
X17578500Y-20975258D01*
X17578500Y-10162358D01*
X19250000Y-10162358D01*
X19250000Y-10437641D01*
X19285930Y-10710565D01*
X19357180Y-10976471D01*
X19462520Y-11230787D01*
X19462527Y-11230802D01*
X19600166Y-11469200D01*
X19729459Y-11637697D01*
X20659941Y-10707216D01*
X20728599Y-10809970D01*
X20840030Y-10921401D01*
X20942783Y-10990058D01*
X20012301Y-11920539D01*
X20180803Y-12049836D01*
X20419197Y-12187472D01*
X20419212Y-12187479D01*
X20641581Y-12279586D01*
X20695985Y-12323426D01*
X20718050Y-12389720D01*
X20700771Y-12457420D01*
X20649634Y-12505031D01*
X20641583Y-12508708D01*
X20574113Y-12536655D01*
X20574109Y-12536657D01*
X20375382Y-12651392D01*
X20193338Y-12791081D01*
X20031081Y-12953338D01*
X19891392Y-13135382D01*
X19776657Y-13334109D01*
X19776650Y-13334123D01*
X19688842Y-13546112D01*
X19629453Y-13767759D01*
X19629451Y-13767770D01*
X19599500Y-13995258D01*
X19599500Y-14224741D01*
X19621279Y-14390161D01*
X19629452Y-14452238D01*
X19686453Y-14664971D01*
X19688842Y-14673887D01*
X19776650Y-14885876D01*
X19776657Y-14885890D01*
X19891392Y-15084617D01*
X20031081Y-15266661D01*
X20031089Y-15266670D01*
X20193330Y-15428911D01*
X20193338Y-15428918D01*
X20375382Y-15568607D01*
X20375385Y-15568608D01*
X20375388Y-15568611D01*
X20574112Y-15683344D01*
X20574117Y-15683346D01*
X20574123Y-15683349D01*
X20688774Y-15730839D01*
X20784127Y-15770335D01*
X20838531Y-15814176D01*
X20860596Y-15880470D01*
X20843317Y-15948169D01*
X20792180Y-15995780D01*
X20768769Y-16004670D01*
X20705581Y-16021602D01*
X20705579Y-16021602D01*
X20705578Y-16021603D01*
X20705571Y-16021605D01*
X20463309Y-16121953D01*
X20463299Y-16121958D01*
X20236196Y-16253075D01*
X20028148Y-16412718D01*
X19842718Y-16598148D01*
X19683075Y-16806196D01*
X19551958Y-17033299D01*
X19551953Y-17033309D01*
X19451605Y-17275571D01*
X19451602Y-17275581D01*
X19399413Y-17470356D01*
X19383730Y-17528885D01*
X19349500Y-17788872D01*
X19349500Y-18051127D01*
X19372578Y-18226412D01*
X19383730Y-18311116D01*
X19425033Y-18465261D01*
X19451602Y-18564418D01*
X19451605Y-18564428D01*
X19551953Y-18806690D01*
X19551958Y-18806700D01*
X19683075Y-19033803D01*
X19842718Y-19241851D01*
X19842726Y-19241860D01*
X20028140Y-19427274D01*
X20028148Y-19427281D01*
X20236196Y-19586924D01*
X20463299Y-19718041D01*
X20463309Y-19718046D01*
X20705571Y-19818394D01*
X20705581Y-19818398D01*
X20958884Y-19886270D01*
X21218880Y-19920500D01*
X21218887Y-19920500D01*
X21481113Y-19920500D01*
X21481120Y-19920500D01*
X21741116Y-19886270D01*
X21994419Y-19818398D01*
X22236697Y-19718043D01*
X22463803Y-19586924D01*
X22671851Y-19427282D01*
X22671855Y-19427277D01*
X22671860Y-19427274D01*
X22857274Y-19241860D01*
X22857277Y-19241855D01*
X22857282Y-19241851D01*
X23016924Y-19033803D01*
X23148043Y-18806697D01*
X23248398Y-18564419D01*
X23316270Y-18311116D01*
X23350500Y-18051120D01*
X23350500Y-17816530D01*
X28559500Y-17816530D01*
X28559500Y-18023469D01*
X28599868Y-18226412D01*
X28599870Y-18226420D01*
X28679058Y-18417596D01*
X28794024Y-18589657D01*
X28940342Y-18735975D01*
X28940345Y-18735977D01*
X29112402Y-18850941D01*
X29303580Y-18930130D01*
X29506530Y-18970499D01*
X29506534Y-18970500D01*
X29506535Y-18970500D01*
X29713466Y-18970500D01*
X29713467Y-18970499D01*
X29916420Y-18930130D01*
X30107598Y-18850941D01*
X30279655Y-18735977D01*
X30425977Y-18589655D01*
X30540941Y-18417598D01*
X30620130Y-18226420D01*
X30660500Y-18023465D01*
X30660500Y-17816535D01*
X30620130Y-17613580D01*
X30540941Y-17422402D01*
X30425977Y-17250345D01*
X30425975Y-17250342D01*
X30279657Y-17104024D01*
X30159837Y-17023964D01*
X30107598Y-16989059D01*
X29916420Y-16909870D01*
X29916412Y-16909868D01*
X29713469Y-16869500D01*
X29713465Y-16869500D01*
X29506535Y-16869500D01*
X29506530Y-16869500D01*
X29303587Y-16909868D01*
X29303579Y-16909870D01*
X29112403Y-16989058D01*
X28940342Y-17104024D01*
X28794024Y-17250342D01*
X28679058Y-17422403D01*
X28599870Y-17613579D01*
X28599868Y-17613587D01*
X28559500Y-17816530D01*
X23350500Y-17816530D01*
X23350500Y-17788880D01*
X23316270Y-17528884D01*
X23248398Y-17275581D01*
X23236530Y-17246928D01*
X23148046Y-17033309D01*
X23148041Y-17033299D01*
X23016924Y-16806196D01*
X22857281Y-16598148D01*
X22857274Y-16598140D01*
X22671860Y-16412726D01*
X22671851Y-16412718D01*
X22463803Y-16253075D01*
X22236700Y-16121958D01*
X22236690Y-16121953D01*
X21994428Y-16021605D01*
X21994421Y-16021603D01*
X21994422Y-16021603D01*
X21994419Y-16021602D01*
X21931228Y-16004670D01*
X21871570Y-15968306D01*
X21841041Y-15905459D01*
X21849336Y-15836083D01*
X21893821Y-15782205D01*
X21915865Y-15770338D01*
X22125888Y-15683344D01*
X22324612Y-15568611D01*
X22506661Y-15428919D01*
X22506665Y-15428914D01*
X22506670Y-15428911D01*
X22668911Y-15266670D01*
X22668914Y-15266665D01*
X22668919Y-15266661D01*
X22808611Y-15084612D01*
X22923344Y-14885888D01*
X23011158Y-14673887D01*
X23070548Y-14452238D01*
X23100500Y-14224734D01*
X23100500Y-13995266D01*
X23100499Y-13995258D01*
X23414500Y-13995258D01*
X23414500Y-14224741D01*
X23436279Y-14390161D01*
X23444452Y-14452238D01*
X23501453Y-14664971D01*
X23503842Y-14673887D01*
X23591650Y-14885876D01*
X23591657Y-14885890D01*
X23706392Y-15084617D01*
X23846081Y-15266661D01*
X23846089Y-15266670D01*
X24008330Y-15428911D01*
X24008338Y-15428918D01*
X24190382Y-15568607D01*
X24190385Y-15568608D01*
X24190388Y-15568611D01*
X24389112Y-15683344D01*
X24389117Y-15683346D01*
X24389123Y-15683349D01*
X24480480Y-15721190D01*
X24601113Y-15771158D01*
X24822762Y-15830548D01*
X25050266Y-15860500D01*
X25050273Y-15860500D01*
X25279727Y-15860500D01*
X25279734Y-15860500D01*
X25507238Y-15830548D01*
X25728887Y-15771158D01*
X25940888Y-15683344D01*
X26139612Y-15568611D01*
X26321661Y-15428919D01*
X26321665Y-15428914D01*
X26321670Y-15428911D01*
X26483911Y-15266670D01*
X26483914Y-15266665D01*
X26483919Y-15266661D01*
X26623611Y-15084612D01*
X26738344Y-14885888D01*
X26826158Y-14673887D01*
X26885548Y-14452238D01*
X26915500Y-14224734D01*
X26915500Y-13995266D01*
X26885548Y-13767762D01*
X26826158Y-13546113D01*
X26738344Y-13334112D01*
X26623611Y-13135388D01*
X26623608Y-13135385D01*
X26623607Y-13135382D01*
X26483918Y-12953338D01*
X26483911Y-12953330D01*
X26321670Y-12791089D01*
X26321661Y-12791081D01*
X26139617Y-12651392D01*
X25940890Y-12536657D01*
X25940876Y-12536650D01*
X25728887Y-12448842D01*
X25507238Y-12389452D01*
X25469215Y-12384446D01*
X25279741Y-12359500D01*
X25279734Y-12359500D01*
X25050266Y-12359500D01*
X25050258Y-12359500D01*
X24833715Y-12388009D01*
X24822762Y-12389452D01*
X24729076Y-12414554D01*
X24601112Y-12448842D01*
X24389123Y-12536650D01*
X24389109Y-12536657D01*
X24190382Y-12651392D01*
X24008338Y-12791081D01*
X23846081Y-12953338D01*
X23706392Y-13135382D01*
X23591657Y-13334109D01*
X23591650Y-13334123D01*
X23503842Y-13546112D01*
X23444453Y-13767759D01*
X23444451Y-13767770D01*
X23414500Y-13995258D01*
X23100499Y-13995258D01*
X23070548Y-13767762D01*
X23011158Y-13546113D01*
X22923344Y-13334112D01*
X22808611Y-13135388D01*
X22808608Y-13135385D01*
X22808607Y-13135382D01*
X22668918Y-12953338D01*
X22668911Y-12953330D01*
X22506670Y-12791089D01*
X22506661Y-12791081D01*
X22324617Y-12651392D01*
X22125890Y-12536657D01*
X22125881Y-12536652D01*
X22058417Y-12508708D01*
X22004014Y-12464867D01*
X21981949Y-12398572D01*
X21999228Y-12330873D01*
X22050366Y-12283263D01*
X22058418Y-12279586D01*
X22280787Y-12187479D01*
X22280802Y-12187472D01*
X22519195Y-12049836D01*
X22687697Y-11920539D01*
X21757216Y-10990058D01*
X21859970Y-10921401D01*
X21971401Y-10809970D01*
X22040058Y-10707216D01*
X22970539Y-11637697D01*
X23099836Y-11469195D01*
X23237472Y-11230802D01*
X23237479Y-11230787D01*
X23342819Y-10976471D01*
X23414069Y-10710565D01*
X23450000Y-10437641D01*
X23450000Y-10196530D01*
X33639500Y-10196530D01*
X33639500Y-10403469D01*
X33679868Y-10606412D01*
X33679870Y-10606420D01*
X33749855Y-10775379D01*
X33759059Y-10797598D01*
X33816541Y-10883626D01*
X33874024Y-10969657D01*
X34020342Y-11115975D01*
X34020345Y-11115977D01*
X34192402Y-11230941D01*
X34383580Y-11310130D01*
X34586530Y-11350499D01*
X34586534Y-11350500D01*
X34586535Y-11350500D01*
X34793466Y-11350500D01*
X34793467Y-11350499D01*
X34996420Y-11310130D01*
X35187598Y-11230941D01*
X35359655Y-11115977D01*
X35505977Y-10969655D01*
X35620941Y-10797598D01*
X35700130Y-10606420D01*
X35740500Y-10403465D01*
X35740500Y-10196535D01*
X35700130Y-9993580D01*
X35620941Y-9802402D01*
X35505977Y-9630345D01*
X35505975Y-9630342D01*
X35359657Y-9484024D01*
X35194433Y-9373626D01*
X35187598Y-9369059D01*
X35186591Y-9368642D01*
X34996420Y-9289870D01*
X34996412Y-9289868D01*
X34793469Y-9249500D01*
X34793465Y-9249500D01*
X34586535Y-9249500D01*
X34586530Y-9249500D01*
X34383587Y-9289868D01*
X34383579Y-9289870D01*
X34192403Y-9369058D01*
X34020342Y-9484024D01*
X33874024Y-9630342D01*
X33759058Y-9802403D01*
X33679870Y-9993579D01*
X33679868Y-9993587D01*
X33639500Y-10196530D01*
X23450000Y-10196530D01*
X23450000Y-10162358D01*
X23414069Y-9889434D01*
X23342819Y-9623528D01*
X23237479Y-9369212D01*
X23237472Y-9369197D01*
X23099836Y-9130803D01*
X22970539Y-8962301D01*
X22040058Y-9892782D01*
X21971401Y-9790030D01*
X21859970Y-9678599D01*
X21757216Y-9609941D01*
X22687697Y-8679459D01*
X22687697Y-8679458D01*
X22519200Y-8550166D01*
X22280802Y-8412527D01*
X22280787Y-8412520D01*
X22026471Y-8307180D01*
X21760565Y-8235930D01*
X21487642Y-8200000D01*
X21212358Y-8200000D01*
X20939434Y-8235930D01*
X20673528Y-8307180D01*
X20419212Y-8412520D01*
X20419197Y-8412527D01*
X20180799Y-8550166D01*
X20012301Y-8679458D01*
X20012301Y-8679459D01*
X20942783Y-9609941D01*
X20840030Y-9678599D01*
X20728599Y-9790030D01*
X20659941Y-9892783D01*
X19729459Y-8962301D01*
X19729458Y-8962301D01*
X19600166Y-9130799D01*
X19462527Y-9369197D01*
X19462520Y-9369212D01*
X19357180Y-9623528D01*
X19285930Y-9889434D01*
X19250000Y-10162358D01*
X17578500Y-10162358D01*
X17578500Y-5745258D01*
X29769500Y-5745258D01*
X29769500Y-5974741D01*
X29794446Y-6164215D01*
X29799452Y-6202238D01*
X29850089Y-6391220D01*
X29858842Y-6423887D01*
X29946650Y-6635876D01*
X29946657Y-6635890D01*
X30061392Y-6834617D01*
X30201081Y-7016661D01*
X30201089Y-7016670D01*
X30363330Y-7178911D01*
X30363338Y-7178918D01*
X30545382Y-7318607D01*
X30545385Y-7318608D01*
X30545388Y-7318611D01*
X30744112Y-7433344D01*
X30744117Y-7433346D01*
X30744123Y-7433349D01*
X30787787Y-7451435D01*
X30956113Y-7521158D01*
X31177762Y-7580548D01*
X31405266Y-7610500D01*
X31405273Y-7610500D01*
X31634727Y-7610500D01*
X31634734Y-7610500D01*
X31862238Y-7580548D01*
X32083887Y-7521158D01*
X32295888Y-7433344D01*
X32494612Y-7318611D01*
X32676661Y-7178919D01*
X32676665Y-7178914D01*
X32676670Y-7178911D01*
X32838911Y-7016670D01*
X32838914Y-7016665D01*
X32838919Y-7016661D01*
X32978611Y-6834612D01*
X33093344Y-6635888D01*
X33181158Y-6423887D01*
X33240548Y-6202238D01*
X33270500Y-5974734D01*
X33270500Y-5745266D01*
X33240548Y-5517762D01*
X33181158Y-5296113D01*
X33122316Y-5154056D01*
X33093349Y-5084123D01*
X33093346Y-5084117D01*
X33093344Y-5084112D01*
X32978611Y-4885388D01*
X32978608Y-4885385D01*
X32978607Y-4885382D01*
X32838918Y-4703338D01*
X32838911Y-4703330D01*
X32676670Y-4541089D01*
X32676661Y-4541081D01*
X32494617Y-4401392D01*
X32295890Y-4286657D01*
X32295876Y-4286650D01*
X32083887Y-4198842D01*
X32083730Y-4198800D01*
X31862238Y-4139452D01*
X31824215Y-4134446D01*
X31634741Y-4109500D01*
X31634734Y-4109500D01*
X31405266Y-4109500D01*
X31405258Y-4109500D01*
X31188715Y-4138009D01*
X31177762Y-4139452D01*
X31149529Y-4147017D01*
X30956112Y-4198842D01*
X30744123Y-4286650D01*
X30744109Y-4286657D01*
X30545382Y-4401392D01*
X30363338Y-4541081D01*
X30201081Y-4703338D01*
X30061392Y-4885382D01*
X29946657Y-5084109D01*
X29946650Y-5084123D01*
X29858842Y-5296112D01*
X29848851Y-5333400D01*
X29799473Y-5517686D01*
X29799453Y-5517759D01*
X29799451Y-5517770D01*
X29769500Y-5745258D01*
X17578500Y-5745258D01*
X17578500Y-5461060D01*
X17598185Y-5394021D01*
X17640501Y-5353672D01*
X17675614Y-5333400D01*
X18456995Y-4552019D01*
X18518318Y-4518534D01*
X18544676Y-4515700D01*
X18554995Y-4515700D01*
X18646041Y-4497589D01*
X18690328Y-4488780D01*
X18817811Y-4435975D01*
X18932542Y-4359314D01*
X19030114Y-4261742D01*
X19106775Y-4147011D01*
X19109907Y-4139451D01*
X19118740Y-4118124D01*
X19159580Y-4019528D01*
X19181369Y-3909988D01*
X19186500Y-3884195D01*
X19186500Y-3746204D01*
X19159581Y-3610877D01*
X19159580Y-3610876D01*
X19159580Y-3610872D01*
X19159578Y-3610867D01*
X19106778Y-3483395D01*
X19106771Y-3483382D01*
X19030114Y-3368658D01*
X19030111Y-3368654D01*
X18932545Y-3271088D01*
X18932541Y-3271085D01*
X18817817Y-3194428D01*
X18817804Y-3194421D01*
X18690332Y-3141621D01*
X18690322Y-3141618D01*
X18554995Y-3114700D01*
X18554993Y-3114700D01*
X18417007Y-3114700D01*
X18417005Y-3114700D01*
X18281677Y-3141618D01*
X18281667Y-3141621D01*
X18154195Y-3194421D01*
X18154182Y-3194428D01*
X18039458Y-3271085D01*
X18039454Y-3271088D01*
X17941888Y-3368654D01*
X17941885Y-3368658D01*
X17865228Y-3483382D01*
X17865221Y-3483395D01*
X17812421Y-3610867D01*
X17812418Y-3610877D01*
X17785500Y-3746204D01*
X17785500Y-3756523D01*
X17765815Y-3823562D01*
X17749181Y-3844204D01*
X17310830Y-4282555D01*
X17249507Y-4316040D01*
X17179815Y-4311056D01*
X17135468Y-4282555D01*
X13564595Y-711681D01*
X13531110Y-650358D01*
X13536094Y-580666D01*
X13577966Y-524733D01*
X13643430Y-500316D01*
X13652276Y-500000D01*
X37876000Y-500000D01*
X37943039Y-519685D01*
X37988794Y-572489D01*
X38000000Y-624000D01*
X38000000Y-28376000D01*
X37980315Y-28443039D01*
X37927511Y-28488794D01*
X37876000Y-28500000D01*
X624000Y-28500000D01*
X556961Y-28480315D01*
X511206Y-28427511D01*
X500000Y-28376000D01*
X500000Y-26561353D01*
X1180000Y-26561353D01*
X1180000Y-26750000D01*
X1780000Y-26750000D01*
X1780000Y-27150000D01*
X1180000Y-27150000D01*
X1180000Y-27338646D01*
X1214584Y-27512512D01*
X1214586Y-27512520D01*
X1282428Y-27676307D01*
X1282433Y-27676316D01*
X1380923Y-27823716D01*
X1380926Y-27823720D01*
X1506279Y-27949073D01*
X1506283Y-27949076D01*
X1653683Y-28047566D01*
X1653696Y-28047573D01*
X1817474Y-28115411D01*
X1817482Y-28115413D01*
X1880000Y-28127848D01*
X1880000Y-27474265D01*
X1895795Y-27490060D01*
X1964204Y-27529556D01*
X2040504Y-27550000D01*
X2119496Y-27550000D01*
X2195796Y-27529556D01*
X2264205Y-27490060D01*
X2280000Y-27474265D01*
X2280000Y-28127847D01*
X2342517Y-28115413D01*
X2342525Y-28115411D01*
X2506303Y-28047573D01*
X2506316Y-28047566D01*
X2653716Y-27949076D01*
X2653720Y-27949073D01*
X2779073Y-27823720D01*
X2779076Y-27823716D01*
X2877566Y-27676316D01*
X2877571Y-27676307D01*
X2945413Y-27512520D01*
X2945415Y-27512512D01*
X2979999Y-27338646D01*
X2980000Y-27338643D01*
X2980000Y-27150000D01*
X2380000Y-27150000D01*
X2380000Y-26750000D01*
X2980000Y-26750000D01*
X2980000Y-26561357D01*
X2979999Y-26561353D01*
X9820000Y-26561353D01*
X9820000Y-26750000D01*
X10420000Y-26750000D01*
X10420000Y-27150000D01*
X9820000Y-27150000D01*
X9820000Y-27338646D01*
X9854584Y-27512512D01*
X9854586Y-27512520D01*
X9922428Y-27676307D01*
X9922433Y-27676316D01*
X10020923Y-27823716D01*
X10020926Y-27823720D01*
X10146279Y-27949073D01*
X10146283Y-27949076D01*
X10293683Y-28047566D01*
X10293696Y-28047573D01*
X10457474Y-28115411D01*
X10457482Y-28115413D01*
X10520000Y-28127848D01*
X10520000Y-27474265D01*
X10535795Y-27490060D01*
X10604204Y-27529556D01*
X10680504Y-27550000D01*
X10759496Y-27550000D01*
X10835796Y-27529556D01*
X10904205Y-27490060D01*
X10920000Y-27474265D01*
X10920000Y-28127847D01*
X10982517Y-28115413D01*
X10982525Y-28115411D01*
X11146303Y-28047573D01*
X11146316Y-28047566D01*
X11293716Y-27949076D01*
X11293720Y-27949073D01*
X11419073Y-27823720D01*
X11419076Y-27823716D01*
X11517566Y-27676316D01*
X11517571Y-27676307D01*
X11585413Y-27512520D01*
X11585415Y-27512512D01*
X11619999Y-27338646D01*
X11620000Y-27338643D01*
X11620000Y-27150000D01*
X11020000Y-27150000D01*
X11020000Y-26750000D01*
X11620000Y-26750000D01*
X11620000Y-26561357D01*
X11619999Y-26561353D01*
X11585415Y-26387487D01*
X11585413Y-26387479D01*
X11517571Y-26223692D01*
X11517566Y-26223683D01*
X11419076Y-26076283D01*
X11419073Y-26076279D01*
X11293720Y-25950926D01*
X11293716Y-25950923D01*
X11146316Y-25852433D01*
X11146307Y-25852428D01*
X10982520Y-25784586D01*
X10982512Y-25784584D01*
X10920000Y-25772149D01*
X10920000Y-26425735D01*
X10904205Y-26409940D01*
X10835796Y-26370444D01*
X10759496Y-26350000D01*
X10680504Y-26350000D01*
X10604204Y-26370444D01*
X10535795Y-26409940D01*
X10520000Y-26425735D01*
X10520000Y-25772149D01*
X10457487Y-25784584D01*
X10457479Y-25784586D01*
X10293692Y-25852428D01*
X10293683Y-25852433D01*
X10146283Y-25950923D01*
X10146279Y-25950926D01*
X10020926Y-26076279D01*
X10020923Y-26076283D01*
X9922433Y-26223683D01*
X9922428Y-26223692D01*
X9854586Y-26387479D01*
X9854584Y-26387487D01*
X9820000Y-26561353D01*
X2979999Y-26561353D01*
X2945415Y-26387487D01*
X2945413Y-26387479D01*
X2877571Y-26223692D01*
X2877566Y-26223683D01*
X2779076Y-26076283D01*
X2779073Y-26076279D01*
X2653720Y-25950926D01*
X2653716Y-25950923D01*
X2506316Y-25852433D01*
X2506307Y-25852428D01*
X2342520Y-25784586D01*
X2342512Y-25784584D01*
X2280000Y-25772149D01*
X2280000Y-26425735D01*
X2264205Y-26409940D01*
X2195796Y-26370444D01*
X2119496Y-26350000D01*
X2040504Y-26350000D01*
X1964204Y-26370444D01*
X1895795Y-26409940D01*
X1880000Y-26425735D01*
X1880000Y-25772149D01*
X1817487Y-25784584D01*
X1817479Y-25784586D01*
X1653692Y-25852428D01*
X1653683Y-25852433D01*
X1506283Y-25950923D01*
X1506279Y-25950926D01*
X1380926Y-26076279D01*
X1380923Y-26076283D01*
X1282433Y-26223683D01*
X1282428Y-26223692D01*
X1214586Y-26387479D01*
X1214584Y-26387487D01*
X1180000Y-26561353D01*
X500000Y-26561353D01*
X500000Y-624000D01*
X519685Y-556961D01*
X572489Y-511206D01*
X624000Y-500000D01*
X7270224Y-500000D01*
X7337263Y-519685D01*
G37*
G04 #@! TD.AperFunction*
G04 #@! TA.AperFunction,Conductor*
G36*
X14868703Y-25397997D02*
G01*
X14875181Y-25404029D01*
X15515981Y-26044829D01*
X15549466Y-26106152D01*
X15552300Y-26132510D01*
X15552300Y-26555090D01*
X15543655Y-26584530D01*
X15537132Y-26614517D01*
X15533377Y-26619532D01*
X15532615Y-26622129D01*
X15515981Y-26642771D01*
X15405071Y-26753681D01*
X15343748Y-26787166D01*
X15317390Y-26790000D01*
X14939166Y-26790000D01*
X14872127Y-26770315D01*
X14826372Y-26717511D01*
X14816428Y-26648353D01*
X14824605Y-26618547D01*
X14826274Y-26614517D01*
X14863501Y-26524644D01*
X14888500Y-26398969D01*
X14888500Y-26270831D01*
X14888500Y-26270828D01*
X14863502Y-26145161D01*
X14863501Y-26145160D01*
X14863501Y-26145156D01*
X14814465Y-26026773D01*
X14814464Y-26026772D01*
X14814461Y-26026766D01*
X14743276Y-25920231D01*
X14743273Y-25920227D01*
X14699819Y-25876773D01*
X14666334Y-25815450D01*
X14663500Y-25789092D01*
X14663500Y-25491710D01*
X14683185Y-25424671D01*
X14735989Y-25378916D01*
X14805147Y-25368972D01*
X14868703Y-25397997D01*
G37*
G04 #@! TD.AperFunction*
G04 #@! TA.AperFunction,Conductor*
G36*
X11777045Y-21869041D02*
G01*
X11803366Y-21889114D01*
X13776181Y-23861929D01*
X13809666Y-23923252D01*
X13812500Y-23949610D01*
X13812500Y-25789092D01*
X13805890Y-25811601D01*
X13803705Y-25834959D01*
X13795268Y-25847775D01*
X13792815Y-25856131D01*
X13786116Y-25865558D01*
X13781484Y-25871470D01*
X13732724Y-25920231D01*
X13671423Y-26011974D01*
X13668529Y-26015669D01*
X13643765Y-26033373D01*
X13620403Y-26052899D01*
X13615616Y-26053500D01*
X13611692Y-26056306D01*
X13581282Y-26057812D01*
X13551078Y-26061606D01*
X13546726Y-26059524D01*
X13541908Y-26059763D01*
X13515511Y-26044589D01*
X13488050Y-26031451D01*
X13483232Y-26026884D01*
X12118065Y-24661717D01*
X12118063Y-24661715D01*
X12021037Y-24605697D01*
X11912818Y-24576700D01*
X11912817Y-24576700D01*
X9203411Y-24576700D01*
X9136372Y-24557015D01*
X9090617Y-24504211D01*
X9088850Y-24500152D01*
X9051168Y-24409179D01*
X9051161Y-24409166D01*
X8979976Y-24302631D01*
X8979973Y-24302627D01*
X8889371Y-24212025D01*
X8888905Y-24211714D01*
X8888715Y-24211487D01*
X8884661Y-24208160D01*
X8885292Y-24207390D01*
X8883815Y-24205623D01*
X8876597Y-24202327D01*
X8861734Y-24179199D01*
X8844102Y-24158100D01*
X8842150Y-24148727D01*
X8838823Y-24143549D01*
X8833800Y-24108614D01*
X8833800Y-23915917D01*
X8853485Y-23848878D01*
X8906289Y-23803123D01*
X8975447Y-23793179D01*
X9019798Y-23808529D01*
X9043212Y-23822048D01*
X9067862Y-23836280D01*
X9067864Y-23836280D01*
X9067865Y-23836281D01*
X9214234Y-23875500D01*
X9214236Y-23875500D01*
X9365764Y-23875500D01*
X9365766Y-23875500D01*
X9512135Y-23836281D01*
X9643365Y-23760515D01*
X9713633Y-23690246D01*
X9774952Y-23656764D01*
X9844644Y-23661748D01*
X9900578Y-23703619D01*
X9915873Y-23730479D01*
X9922429Y-23746309D01*
X9922433Y-23746316D01*
X10020923Y-23893716D01*
X10020926Y-23893720D01*
X10146279Y-24019073D01*
X10146283Y-24019076D01*
X10293683Y-24117566D01*
X10293696Y-24117573D01*
X10457474Y-24185411D01*
X10457482Y-24185413D01*
X10520000Y-24197848D01*
X10520000Y-23544265D01*
X10535795Y-23560060D01*
X10604204Y-23599556D01*
X10680504Y-23620000D01*
X10759496Y-23620000D01*
X10835796Y-23599556D01*
X10904205Y-23560060D01*
X10920000Y-23544265D01*
X10920000Y-24197847D01*
X10982517Y-24185413D01*
X10982525Y-24185411D01*
X11146303Y-24117573D01*
X11146316Y-24117566D01*
X11293716Y-24019076D01*
X11293720Y-24019073D01*
X11419073Y-23893720D01*
X11419076Y-23893716D01*
X11517566Y-23746316D01*
X11517571Y-23746307D01*
X11585413Y-23582520D01*
X11585415Y-23582512D01*
X11619999Y-23408646D01*
X11620000Y-23408643D01*
X11620000Y-22970000D01*
X11020000Y-22970000D01*
X11020000Y-22570000D01*
X11620000Y-22570000D01*
X11620000Y-22131357D01*
X11619999Y-22131353D01*
X11594068Y-22000986D01*
X11600295Y-21931395D01*
X11643158Y-21876217D01*
X11709048Y-21852973D01*
X11777045Y-21869041D01*
G37*
G04 #@! TD.AperFunction*
G04 #@! TA.AperFunction,Conductor*
G36*
X16516773Y-10792658D02*
G01*
X16564384Y-10843795D01*
X16577500Y-10899300D01*
X16577500Y-23209924D01*
X16557815Y-23276963D01*
X16541181Y-23297605D01*
X16176905Y-23661881D01*
X16115582Y-23695366D01*
X16089224Y-23698200D01*
X16078905Y-23698200D01*
X15943577Y-23725118D01*
X15943567Y-23725121D01*
X15816095Y-23777921D01*
X15816082Y-23777928D01*
X15697291Y-23857303D01*
X15630614Y-23878181D01*
X15563233Y-23859697D01*
X15516543Y-23807718D01*
X15504400Y-23754201D01*
X15504400Y-11376950D01*
X15524085Y-11309911D01*
X15576889Y-11264156D01*
X15646047Y-11254212D01*
X15652593Y-11255333D01*
X15671530Y-11259100D01*
X15671531Y-11259100D01*
X15799671Y-11259100D01*
X15896327Y-11239873D01*
X15925344Y-11234101D01*
X16043727Y-11185065D01*
X16150269Y-11113876D01*
X16240876Y-11023269D01*
X16312065Y-10916727D01*
X16338939Y-10851848D01*
X16382780Y-10797444D01*
X16449074Y-10775379D01*
X16516773Y-10792658D01*
G37*
G04 #@! TD.AperFunction*
G04 #@! TA.AperFunction,Conductor*
G36*
X9739334Y-22308127D02*
G01*
X9795267Y-22349999D01*
X9819684Y-22415463D01*
X9820000Y-22424309D01*
X9820000Y-22570000D01*
X10420000Y-22570000D01*
X10420000Y-22970000D01*
X9825242Y-22970000D01*
X9758203Y-22950315D01*
X9737561Y-22933681D01*
X9643367Y-22839487D01*
X9643365Y-22839485D01*
X9512135Y-22763719D01*
X9458611Y-22749377D01*
X9398952Y-22713013D01*
X9368423Y-22650166D01*
X9376718Y-22580790D01*
X9403022Y-22541925D01*
X9608321Y-22336626D01*
X9669642Y-22303143D01*
X9739334Y-22308127D01*
G37*
G04 #@! TD.AperFunction*
G04 #@! TA.AperFunction,Conductor*
G36*
X10128250Y-20736176D02*
G01*
X10136553Y-20736325D01*
X10168391Y-20751558D01*
X10269266Y-20818961D01*
X10269272Y-20818964D01*
X10269273Y-20818965D01*
X10387656Y-20868001D01*
X10387660Y-20868001D01*
X10387661Y-20868002D01*
X10513328Y-20893000D01*
X10513331Y-20893000D01*
X10641471Y-20893000D01*
X10726015Y-20876182D01*
X10767144Y-20868001D01*
X10885527Y-20818965D01*
X10885532Y-20818961D01*
X10885535Y-20818960D01*
X10906808Y-20804746D01*
X10973485Y-20783867D01*
X11040865Y-20802351D01*
X11087556Y-20854329D01*
X11099700Y-20907847D01*
X11099700Y-21065217D01*
X11128697Y-21173436D01*
X11128698Y-21173439D01*
X11129634Y-21175060D01*
X11130007Y-21176600D01*
X11131808Y-21180947D01*
X11131130Y-21181227D01*
X11146104Y-21242960D01*
X11123251Y-21308986D01*
X11068328Y-21352176D01*
X10998775Y-21358816D01*
X10986246Y-21355717D01*
X10982509Y-21354583D01*
X10920000Y-21342149D01*
X10920000Y-21995735D01*
X10904205Y-21979940D01*
X10835796Y-21940444D01*
X10759496Y-21920000D01*
X10680504Y-21920000D01*
X10604204Y-21940444D01*
X10535795Y-21979940D01*
X10520000Y-21995735D01*
X10520000Y-21342149D01*
X10457487Y-21354584D01*
X10457479Y-21354586D01*
X10293692Y-21422428D01*
X10293678Y-21422436D01*
X10168390Y-21506151D01*
X10101713Y-21527029D01*
X10034333Y-21508544D01*
X9987643Y-21456565D01*
X9975500Y-21403049D01*
X9975500Y-20854660D01*
X9978363Y-20844908D01*
X9977097Y-20834825D01*
X9988040Y-20811950D01*
X9995185Y-20787621D01*
X10002865Y-20780966D01*
X10007252Y-20771797D01*
X10028828Y-20758469D01*
X10047989Y-20741866D01*
X10058047Y-20740419D01*
X10066695Y-20735078D01*
X10092050Y-20735530D01*
X10117147Y-20731922D01*
X10128250Y-20736176D01*
G37*
G04 #@! TD.AperFunction*
G04 #@! TA.AperFunction,Conductor*
G36*
X11359634Y-12360828D02*
G01*
X11415567Y-12402700D01*
X11439984Y-12468164D01*
X11440300Y-12477010D01*
X11440300Y-14108719D01*
X11461695Y-14188569D01*
X11465324Y-14232807D01*
X11464800Y-14238130D01*
X11464800Y-14238131D01*
X11464800Y-14366269D01*
X11464800Y-14366271D01*
X11464799Y-14366271D01*
X11489797Y-14491938D01*
X11489799Y-14491944D01*
X11538833Y-14610324D01*
X11538838Y-14610333D01*
X11610023Y-14716868D01*
X11610026Y-14716872D01*
X11700627Y-14807473D01*
X11700631Y-14807476D01*
X11807166Y-14878661D01*
X11807175Y-14878666D01*
X11833992Y-14889774D01*
X11925556Y-14927701D01*
X11925560Y-14927701D01*
X11925561Y-14927702D01*
X12051228Y-14952700D01*
X12051231Y-14952700D01*
X12179370Y-14952700D01*
X12220508Y-14944517D01*
X12290099Y-14950744D01*
X12345277Y-14993606D01*
X12368522Y-15059496D01*
X12368700Y-15066134D01*
X12368700Y-19563490D01*
X12360055Y-19592930D01*
X12353532Y-19622917D01*
X12349777Y-19627932D01*
X12349015Y-19630529D01*
X12332381Y-19651171D01*
X12316371Y-19667181D01*
X12255048Y-19700666D01*
X12228690Y-19703500D01*
X12167228Y-19703500D01*
X12098891Y-19717093D01*
X12029300Y-19710866D01*
X11974122Y-19668003D01*
X11950878Y-19602113D01*
X11950700Y-19595476D01*
X11950700Y-15788984D01*
X11950700Y-15788982D01*
X11921703Y-15680763D01*
X11865685Y-15583737D01*
X11786463Y-15504515D01*
X10946919Y-14664971D01*
X10913434Y-14603648D01*
X10910600Y-14577290D01*
X10910600Y-14515828D01*
X10885602Y-14390161D01*
X10885601Y-14390160D01*
X10885601Y-14390156D01*
X10844190Y-14290181D01*
X10836566Y-14271775D01*
X10836561Y-14271766D01*
X10765376Y-14165231D01*
X10765373Y-14165227D01*
X10674772Y-14074626D01*
X10674768Y-14074623D01*
X10568233Y-14003438D01*
X10568224Y-14003433D01*
X10449844Y-13954399D01*
X10449838Y-13954397D01*
X10324171Y-13929400D01*
X10324169Y-13929400D01*
X10196031Y-13929400D01*
X10178853Y-13932817D01*
X10127191Y-13943093D01*
X10106204Y-13941214D01*
X10085353Y-13944213D01*
X10072105Y-13938163D01*
X10057599Y-13936865D01*
X10040961Y-13923939D01*
X10021797Y-13915188D01*
X10013922Y-13902935D01*
X10002422Y-13894001D01*
X9995413Y-13874134D01*
X9984023Y-13856410D01*
X9980488Y-13831824D01*
X9979178Y-13828111D01*
X9979000Y-13821475D01*
X9979000Y-13690310D01*
X9998685Y-13623271D01*
X10015319Y-13602629D01*
X11228619Y-12389329D01*
X11289942Y-12355844D01*
X11359634Y-12360828D01*
G37*
G04 #@! TD.AperFunction*
G04 #@! TA.AperFunction,Conductor*
G36*
X9258203Y-16389996D02*
G01*
X9264667Y-16396015D01*
X9684523Y-16815870D01*
X10115581Y-17246928D01*
X10149066Y-17308251D01*
X10151900Y-17334609D01*
X10151900Y-18042840D01*
X10132215Y-18109879D01*
X10079411Y-18155634D01*
X10010253Y-18165578D01*
X9959009Y-18145942D01*
X9858132Y-18078538D01*
X9858123Y-18078533D01*
X9739743Y-18029499D01*
X9739737Y-18029497D01*
X9614070Y-18004500D01*
X9614068Y-18004500D01*
X9485930Y-18004500D01*
X9485928Y-18004500D01*
X9360260Y-18029497D01*
X9360254Y-18029499D01*
X9241874Y-18078533D01*
X9236497Y-18081408D01*
X9235305Y-18079177D01*
X9179138Y-18096728D01*
X9111769Y-18078202D01*
X9065111Y-18026195D01*
X9053000Y-17972746D01*
X9053000Y-16483709D01*
X9072685Y-16416670D01*
X9125489Y-16370915D01*
X9194647Y-16360971D01*
X9258203Y-16389996D01*
G37*
G04 #@! TD.AperFunction*
G04 #@! TA.AperFunction,Conductor*
G36*
X10786633Y-8143827D02*
G01*
X10842567Y-8185698D01*
X10866984Y-8251163D01*
X10867300Y-8260009D01*
X10867300Y-10384120D01*
X10847615Y-10451159D01*
X10794811Y-10496914D01*
X10767493Y-10505737D01*
X10687760Y-10521597D01*
X10687755Y-10521599D01*
X10569375Y-10570633D01*
X10569366Y-10570638D01*
X10462831Y-10641823D01*
X10462827Y-10641826D01*
X10372226Y-10732427D01*
X10372223Y-10732431D01*
X10301038Y-10838966D01*
X10301033Y-10838975D01*
X10251999Y-10957355D01*
X10251997Y-10957361D01*
X10227000Y-11083028D01*
X10227000Y-11083031D01*
X10227000Y-11211169D01*
X10227000Y-11211171D01*
X10226999Y-11211171D01*
X10251997Y-11336838D01*
X10251999Y-11336844D01*
X10301033Y-11455224D01*
X10301038Y-11455233D01*
X10372223Y-11561768D01*
X10372226Y-11561772D01*
X10462827Y-11652373D01*
X10462831Y-11652376D01*
X10516584Y-11688293D01*
X10561389Y-11741905D01*
X10570096Y-11811230D01*
X10539942Y-11874258D01*
X10535374Y-11879076D01*
X9292237Y-13122215D01*
X9264681Y-13149771D01*
X9203358Y-13183256D01*
X9133666Y-13178272D01*
X9077733Y-13136400D01*
X9053316Y-13070936D01*
X9053000Y-13062090D01*
X9053000Y-9689209D01*
X9072685Y-9622170D01*
X9089319Y-9601528D01*
X9400979Y-9289868D01*
X9732979Y-8957867D01*
X9788562Y-8925776D01*
X9887737Y-8899203D01*
X9984763Y-8843185D01*
X10655619Y-8172327D01*
X10716942Y-8138843D01*
X10786633Y-8143827D01*
G37*
G04 #@! TD.AperFunction*
G04 #@! TA.AperFunction,Conductor*
G36*
X12713363Y-1280085D02*
G01*
X12734005Y-1296719D01*
X16541181Y-5103894D01*
X16574666Y-5165217D01*
X16577500Y-5191575D01*
X16577500Y-9033429D01*
X16573089Y-9048448D01*
X16573649Y-9064092D01*
X16563447Y-9081287D01*
X16557815Y-9100468D01*
X16545986Y-9110717D01*
X16537998Y-9124182D01*
X16520118Y-9133132D01*
X16505011Y-9146223D01*
X16488681Y-9148869D01*
X16475520Y-9155458D01*
X16449462Y-9155225D01*
X16440248Y-9156719D01*
X16434733Y-9156126D01*
X16354669Y-9140200D01*
X16286563Y-9140200D01*
X16279957Y-9139490D01*
X16253565Y-9128559D01*
X16226170Y-9120515D01*
X16217738Y-9113720D01*
X16215405Y-9112754D01*
X16213964Y-9110679D01*
X16205528Y-9103881D01*
X15012965Y-7911317D01*
X15012964Y-7911316D01*
X15012963Y-7911315D01*
X14915937Y-7855297D01*
X14807718Y-7826300D01*
X13638718Y-7826300D01*
X13526681Y-7826300D01*
X13418463Y-7855297D01*
X13418461Y-7855298D01*
X13418460Y-7855298D01*
X13350128Y-7894750D01*
X13321437Y-7911315D01*
X13321436Y-7911316D01*
X13126554Y-8106197D01*
X13068229Y-8164522D01*
X13006906Y-8198006D01*
X12937214Y-8193022D01*
X12892867Y-8164521D01*
X12884072Y-8155726D01*
X12884068Y-8155723D01*
X12777533Y-8084538D01*
X12777524Y-8084533D01*
X12659144Y-8035499D01*
X12659138Y-8035497D01*
X12533471Y-8010500D01*
X12533469Y-8010500D01*
X12405331Y-8010500D01*
X12405328Y-8010500D01*
X12399266Y-8011097D01*
X12399045Y-8008856D01*
X12339480Y-8003516D01*
X12284310Y-7960644D01*
X12261077Y-7894750D01*
X12260900Y-7888134D01*
X12260900Y-5017481D01*
X12254636Y-4994106D01*
X12254635Y-4994102D01*
X12237225Y-4929127D01*
X12231903Y-4909263D01*
X12222687Y-4893300D01*
X12175885Y-4812237D01*
X12096663Y-4733015D01*
X12096662Y-4733014D01*
X12092332Y-4728684D01*
X12092321Y-4728674D01*
X8990219Y-1626571D01*
X8978480Y-1605073D01*
X8963178Y-1585951D01*
X8960431Y-1572019D01*
X8956734Y-1565248D01*
X8954566Y-1551724D01*
X8953900Y-1545323D01*
X8953900Y-1477431D01*
X8939085Y-1402954D01*
X8938490Y-1397234D01*
X8943812Y-1368299D01*
X8946434Y-1339000D01*
X8950060Y-1334331D01*
X8951130Y-1328517D01*
X8971248Y-1307055D01*
X8989296Y-1283823D01*
X8994871Y-1281855D01*
X8998915Y-1277543D01*
X9027442Y-1270365D01*
X9055186Y-1260578D01*
X9061824Y-1260400D01*
X12646324Y-1260400D01*
X12713363Y-1280085D01*
G37*
G04 #@! TD.AperFunction*
M02*
